<svg width="16" height="16" viewBox="0 0 16 16" fill="none" xmlns="http://www.w3.org/2000/svg">
<g clip-path="url(#clip0_170_18013)">
<path d="M15.1604 6.15061C14.167 4.53265 11.9072 1.81812 7.9411 1.81812C3.97498 1.81812 1.71522 4.53265 0.721769 6.15061C0.414656 6.64734 0.25198 7.2198 0.25198 7.8038C0.25198 8.3878 0.414656 8.96026 0.721769 9.45699C1.71522 11.075 3.97498 13.7895 7.9411 13.7895C11.9072 13.7895 14.167 11.075 15.1604 9.45699C15.4675 8.96026 15.6302 8.3878 15.6302 7.8038C15.6302 7.2198 15.4675 6.64734 15.1604 6.15061ZM14.0683 8.78636C13.2152 10.1737 11.284 12.5084 7.9411 12.5084C4.59821 12.5084 2.66704 10.1737 1.81386 8.78636C1.6314 8.49111 1.53475 8.15088 1.53475 7.8038C1.53475 7.45672 1.6314 7.11649 1.81386 6.82124C2.66704 5.43387 4.59821 3.09916 7.9411 3.09916C11.284 3.09916 13.2152 5.4313 14.0683 6.82124C14.2508 7.11649 14.3475 7.45672 14.3475 7.8038C14.3475 8.15088 14.2508 8.49111 14.0683 8.78636Z" fill="url(#paint0_linear_170_18013)"/>
<path d="M7.94103 4.60107C7.30762 4.60107 6.68842 4.7889 6.16176 5.14081C5.63509 5.49272 5.2246 5.9929 4.9822 6.5781C4.73981 7.1633 4.67638 7.80724 4.79996 8.42849C4.92353 9.04973 5.22855 9.62039 5.67644 10.0683C6.12434 10.5162 6.69499 10.8212 7.31624 10.9448C7.93748 11.0683 8.58142 11.0049 9.16662 10.7625C9.75182 10.5201 10.252 10.1096 10.6039 9.58297C10.9558 9.0563 11.1436 8.43711 11.1436 7.80369C11.1426 6.95461 10.8049 6.14061 10.2045 5.54022C9.60412 4.93984 8.79011 4.60209 7.94103 4.60107ZM7.94103 9.72526C7.56098 9.72526 7.18947 9.61256 6.87347 9.40141C6.55747 9.19027 6.31118 8.89016 6.16574 8.53904C6.0203 8.18792 5.98224 7.80156 6.05639 7.42881C6.13053 7.05606 6.31354 6.71367 6.58228 6.44493C6.85102 6.1762 7.19341 5.99319 7.56616 5.91904C7.9389 5.8449 8.32527 5.88295 8.67639 6.02839C9.02751 6.17383 9.32762 6.42012 9.53876 6.73612C9.74991 7.05212 9.8626 7.42364 9.8626 7.80369C9.8626 8.31332 9.66015 8.80208 9.29979 9.16244C8.93943 9.52281 8.45067 9.72526 7.94103 9.72526Z" fill="url(#paint1_linear_170_18013)"/>
</g>
<defs>
<linearGradient id="paint0_linear_170_18013" x1="7.9411" y1="1.81812" x2="7.9411" y2="13.7895" gradientUnits="userSpaceOnUse">
<stop stop-color="#DC3D8E"/>
<stop offset="1" stop-color="#AC4DBA"/>
</linearGradient>
<linearGradient id="paint1_linear_170_18013" x1="7.94103" y1="4.60107" x2="7.94103" y2="11.0063" gradientUnits="userSpaceOnUse">
<stop stop-color="#DC3D8E"/>
<stop offset="1" stop-color="#AC4DBA"/>
</linearGradient>
<clipPath id="clip0_170_18013">
<rect width="15.3725" height="15.3725" fill="white" transform="translate(0.254913 0.117676)"/>
</clipPath>
</defs>
</svg>
