<svg width="16" height="16" viewBox="0 0 16 16" fill="none" xmlns="http://www.w3.org/2000/svg">
<path d="M14.9869 10.6859L13.4881 9.53297C13.1182 9.18089 12.6269 8.98485 12.1163 8.98556C11.6056 8.98628 11.1149 9.1837 10.746 9.53681L9.80508 10.2849C8.80855 9.87245 7.90334 9.26711 7.14147 8.50371C6.3796 7.7403 5.77609 6.83387 5.36562 5.83651L6.10734 4.90391C6.46073 4.53508 6.65838 4.04425 6.65922 3.53345C6.66005 3.02265 6.464 2.53117 6.11183 2.16119L4.96017 0.659804C4.94325 0.637251 4.92485 0.615853 4.90508 0.595751C4.53929 0.22821 4.04354 0.0194074 3.52501 0.014493C3.00649 0.0095787 2.50687 0.208947 2.13418 0.56949L1.39758 1.21001C-3.54662 6.46871 9.21196 19.2375 14.4642 14.2126L15.0471 13.5407C15.4183 13.1685 15.6268 12.6643 15.6268 12.1386C15.6268 11.6129 15.4183 11.1087 15.0471 10.7365C15.028 10.7186 15.0079 10.7017 14.9869 10.6859ZM14.1132 12.6715L13.5297 13.3441C9.72694 16.9406 -1.34642 6.49753 2.27061 2.14902L3.00721 1.5085C3.13477 1.38165 3.30601 1.3084 3.48584 1.30375C3.66567 1.29911 3.84047 1.36342 3.9744 1.48352L5.11837 2.97145C5.13515 2.99412 5.15356 3.01553 5.17346 3.0355C5.3043 3.16746 5.37771 3.34576 5.37771 3.53159C5.37771 3.71741 5.3043 3.89572 5.17346 4.02767C5.15544 4.04403 5.13853 4.06158 5.12286 4.0802L4.1262 5.33562C4.05524 5.42452 4.00924 5.53072 3.99291 5.64329C3.97659 5.75586 3.99054 5.87075 4.03333 5.97614C4.51574 7.26685 5.26997 8.43878 6.24491 9.4125C7.21985 10.3862 8.39271 11.139 9.68402 11.6198C9.788 11.6594 9.90051 11.6713 10.0105 11.6542C10.1204 11.6372 10.224 11.5917 10.3111 11.5224L11.5665 10.5239C11.5854 10.5087 11.6033 10.4924 11.6203 10.4752C11.6916 10.4064 11.7763 10.353 11.8691 10.3183C11.9619 10.2836 12.0608 10.2683 12.1598 10.2735C12.2587 10.2787 12.3555 10.3041 12.4442 10.3483C12.5329 10.3925 12.6115 10.4544 12.6753 10.5303L14.1651 11.6749C14.2873 11.8157 14.3499 11.9984 14.3397 12.1845C14.3295 12.3706 14.2474 12.5455 14.1107 12.6722L14.1132 12.6715Z" fill="url(#paint0_linear_170_18008)"/>
<defs>
<linearGradient id="paint0_linear_170_18008" x1="7.95356" y1="0.0144043" x2="7.95356" y2="15.3617" gradientUnits="userSpaceOnUse">
<stop stop-color="#DC3D8E"/>
<stop offset="1" stop-color="#AC4DBA"/>
</linearGradient>
</defs>
</svg>
