<svg width="24" height="24" viewBox="0 0 24 24" fill="none" xmlns="http://www.w3.org/2000/svg">
<circle cx="12.0002" cy="12" r="10" fill="white"/>
<path fill-rule="evenodd" clip-rule="evenodd" d="M12.0002 22C17.523 22 22.0002 17.5228 22.0002 12C22.0002 6.47715 17.523 2 12.0002 2C6.47734 2 2.00018 6.47715 2.00018 12C2.00018 17.5228 6.47734 22 12.0002 22ZM12 7.0001C12.1473 7.0001 12.2886 7.05863 12.3928 7.16282C12.497 7.26701 12.5555 7.40832 12.5555 7.55566V11.4447H16.4443C16.5916 11.4447 16.7329 11.5032 16.8371 11.6074C16.9413 11.7116 16.9998 11.8529 16.9998 12.0003C16.9998 12.1476 16.9413 12.2889 16.8371 12.3931C16.7329 12.4973 16.5916 12.5558 16.4443 12.5558H12.5554V16.4447C12.5554 16.592 12.4968 16.7333 12.3927 16.8375C12.2885 16.9417 12.1472 17.0003 11.9998 17.0003C11.8525 17.0003 11.7112 16.9417 11.607 16.8375C11.5028 16.7333 11.4443 16.592 11.4443 16.4447V12.5557H7.55553C7.40819 12.5557 7.26688 12.4971 7.1627 12.3929C7.05851 12.2888 6.99998 12.1474 6.99998 12.0001C6.99998 11.8528 7.05851 11.7115 7.1627 11.6073C7.26688 11.5031 7.40819 11.4445 7.55553 11.4445H11.4444V7.55566C11.4444 7.40832 11.503 7.26701 11.6071 7.16282C11.7113 7.05863 11.8526 7.0001 12 7.0001Z" fill="url(#paint0_linear_131_4995)"/>
<defs>
<linearGradient id="paint0_linear_131_4995" x1="12.0002" y1="2" x2="12.0002" y2="22" gradientUnits="userSpaceOnUse">
<stop stop-color="#DC3D8E"/>
<stop offset="1" stop-color="#AC4DBA"/>
</linearGradient>
</defs>
</svg>
