<svg width="24" height="24" viewBox="0 0 24 24" fill="none" xmlns="http://www.w3.org/2000/svg">
<circle cx="12.0002" cy="12" r="10" fill="white"/>
<path fill-rule="evenodd" clip-rule="evenodd" d="M12.0002 22C17.5231 22 22.0002 17.5228 22.0002 12C22.0002 6.47715 17.5231 2 12.0002 2C6.4774 2 2.00024 6.47715 2.00024 12C2.00024 17.5228 6.4774 22 12.0002 22ZM16.5 15.9884C16.5 15.7062 16.2734 15.4767 15.9949 15.4767H13.1398C12.8613 15.4767 12.6347 15.7062 12.6347 15.9884C12.6347 16.2711 12.8613 16.5001 13.1398 16.5001H15.9949C16.2734 16.5001 16.5 16.2711 16.5 15.9884ZM14.7524 8.4355L14.0149 7.84964C13.3729 7.33903 12.5771 7.39278 12.1208 7.97864L11.6273 8.61878C11.5637 8.69887 11.5796 8.81711 11.6592 8.88161C11.6592 8.88161 12.906 9.88134 12.9325 9.90284C13.0174 9.98346 13.0811 10.091 13.097 10.22C13.1236 10.4726 12.9485 10.7091 12.6885 10.7413C12.5664 10.7574 12.4497 10.7198 12.3648 10.6499L11.0543 9.60722C10.9906 9.55938 10.8951 9.5696 10.8421 9.63409L7.72757 13.6652C7.52595 13.9179 7.45697 14.2457 7.52595 14.5628L7.92388 16.2882C7.94511 16.3795 8.02469 16.444 8.1202 16.444L9.87111 16.4225C10.1895 16.4172 10.4866 16.2721 10.6882 16.0141L15.0814 10.3328C15.3202 10.0265 15.405 9.67226 15.3255 9.3116C15.2565 8.98374 15.0549 8.67199 14.7524 8.4355Z" fill="#F92A2A"/>
</svg>
