<svg width="41" height="40" viewBox="0 0 41 40" fill="none" xmlns="http://www.w3.org/2000/svg">
<circle cx="20.8455" cy="20" r="19.5" stroke="#946DAE"/>
<path fill-rule="evenodd" clip-rule="evenodd" d="M28.3149 19.1352C27.9933 18.7151 27.882 18.3559 27.7284 17.8605L27.7284 17.8605L27.7284 17.8604C27.6612 17.6437 27.586 17.4011 27.4816 17.1158L27.4646 17.0689C27.0527 15.9277 26.7337 15.0437 27.1482 14.1716C26.1951 11.397 27.2472 9 27.2472 9H15.7991C15.7991 9 16.9293 11.5776 15.7835 14.4726C16.0905 14.53 16.2213 14.6293 16.4076 14.7709L16.4076 14.7709C16.4738 14.8212 16.547 14.8768 16.6377 14.9378L16.728 15.0026C17.531 15.5792 18.5623 16.3196 18.195 17.187C19.0355 17.6587 20.5753 18.784 20.2471 19.7317C20.6615 20.4573 20.2224 21.0994 19.6585 21.1218C19.6325 21.171 19.6012 21.2203 19.5648 21.2695C19.4189 21.4556 19.2054 21.5596 18.9606 21.5596L18.8981 21.5541C18.6794 21.5432 18.3981 21.4665 18.1429 21.379C17.4547 22.3305 14.3994 20.7518 13.5751 20.1368C13.5439 20.6348 13.523 21.2641 13.5126 21.9537C16.1689 22.4571 18.8669 22.7143 21.5231 22.7143C24.1221 22.7143 26.7628 22.4681 29.3618 21.981C28.8339 21.8146 28.6572 20.7697 28.5244 19.9839C28.4567 19.5837 28.4004 19.2508 28.3149 19.1352ZM20.6743 20.3776L20.6534 20.3612L20.8416 20.1537L20.9558 20.0278C20.9748 20.0069 20.9824 19.9985 20.9712 20.0109C20.919 19.9835 20.669 19.8521 20.7212 19.8795L20.7316 19.8631C20.0064 19.3381 20.3573 18.1338 21.242 18.1338C21.7368 18.1338 22.1483 18.5606 22.1483 19.0805C22.1483 19.6807 21.6164 20.1302 21.0753 20.0163L21.0649 20.0218L20.7212 20.3502C20.7738 20.3753 21.003 20.4847 20.9503 20.4596C20.8217 20.5778 20.7428 20.651 20.6987 20.692C20.7705 20.6236 20.9013 20.4962 20.9087 20.4706L20.6743 20.3776ZM20.6528 20.7352C20.6554 20.7329 20.6734 20.7161 20.6987 20.692C20.6628 20.7255 20.6501 20.7375 20.6528 20.7352ZM21.5015 20.4632L21.4926 20.4651C21.4912 20.4103 21.4964 20.613 21.4978 20.6678C21.5499 20.6555 21.1537 20.7486 21.1016 20.7609L21.0964 20.7719L21.0651 20.9745L20.794 21.0731L21.0807 20.9855H21.0911L21.1433 20.7938C21.091 20.8029 21.5289 20.7262 21.5812 20.7171C21.5789 20.7437 21.5815 20.7134 21.5852 20.6689L21.5854 20.6675L21.5867 20.6513L21.5968 20.5309C21.6255 20.5254 21.6541 20.5213 21.6827 20.5172L21.6828 20.5172L21.6828 20.5172L21.6828 20.5172L21.6829 20.5172C21.7115 20.5131 21.7402 20.5089 21.7689 20.5035L21.7897 20.4049C21.7045 20.4207 21.5771 20.4474 21.5015 20.4632ZM21.3153 22.0639L21.1849 22.0475L21.2319 21.8722C21.1797 21.8622 21.0077 21.8294 21.0598 21.8393L21.0338 21.5161L20.7992 21.423H20.7887V21.4121L20.8304 21.2587L20.8096 21.4066L21.065 21.4888H21.0755L21.0807 21.4997L21.1328 21.7791L21.2322 21.7912C21.3085 21.8005 21.3908 21.8106 21.357 21.8065C21.357 21.8065 21.3537 21.8265 21.349 21.8556L21.3415 21.9023L21.339 21.9176C21.3255 22.0012 21.3101 22.0962 21.3153 22.0639ZM13.7895 30.1228C13.5929 29.1556 13.4111 28.2614 13.5044 22.3836C18.8506 23.39 24.1968 23.39 29.543 22.3836C29.6376 28.1271 29.4903 28.9015 29.2657 30.082C29.2153 30.3472 29.1609 30.6329 29.1046 31H22.2558C21.8856 30.4813 21.151 30.4921 20.7916 31H13.9439C13.8946 30.64 13.8415 30.3788 13.7895 30.1228ZM19.523 19.6964C19.5452 19.7074 19.5673 19.7183 19.5908 19.7266C19.5908 19.7266 20.0179 20.1534 19.8512 20.449C19.7462 20.6318 19.5467 20.5975 19.2371 20.4519C19.2443 20.4967 19.3238 21.0389 18.9293 21.0127C18.5937 20.9845 17.985 20.7462 17.7707 20.6623L17.7706 20.6622C17.7356 20.6485 17.7111 20.6389 17.7001 20.6351L17.7028 20.6419C17.738 20.7289 17.9245 21.1915 17.4189 21.1331C16.8564 21.0729 14.4032 20.4928 13.0959 18.9933C11.7886 17.4938 8.92915 13.8436 8.92915 13.8436C8.92915 13.8436 8.51248 9.79935 9.53854 9.08244H12.924C12.924 9.08244 11.3302 11.4357 11.8927 12.6725C12.0203 12.9503 12.1107 13.2236 12.196 13.4812C12.4902 14.3703 12.722 15.0708 14.2001 15.1132C14.2001 15.1132 15.6063 14.8013 16.0178 15.1515C16.0831 15.2071 16.2015 15.2921 16.3469 15.3965L16.3469 15.3965L16.3469 15.3965C17.1119 15.9457 18.6252 17.0323 17.1035 17.2055C17.3405 17.3444 17.578 17.4751 17.8016 17.5982L17.8017 17.5983L17.8017 17.5983L17.8018 17.5983L17.8018 17.5983L17.8018 17.5983C18.3226 17.885 18.7684 18.1304 18.9606 18.342C19.0074 18.3928 19.0657 18.4515 19.1294 18.5157C19.5055 18.8944 20.0717 19.4645 19.5908 19.7266C19.5724 19.7155 19.5541 19.7059 19.5357 19.6962L19.5357 19.6962C19.5176 19.6867 19.4995 19.6772 19.4814 19.6664C19.6794 19.6281 19.6169 19.245 19.6169 19.245C19.3746 19.1114 19.3352 19.1529 19.2886 19.202C19.2741 19.2173 19.2589 19.2333 19.2366 19.245C19.1846 19.2669 19.2054 19.4256 19.2783 19.5405C18.5758 19.1034 17.2597 18.3693 16.4762 18.1231C16.6714 18.2116 16.9024 18.3374 17.2192 18.5099L17.2192 18.5099L17.2192 18.5099C17.6838 18.763 18.3331 19.1167 19.3252 19.6007C19.3616 19.639 19.4085 19.6664 19.4554 19.6664C19.4788 19.6746 19.5009 19.6855 19.523 19.6964ZM17.0102 17.1504C16.68 16.8325 16.2086 16.4797 15.8706 16.2267L15.8706 16.2267L15.8706 16.2267C15.7167 16.1115 15.5904 16.017 15.5178 15.956C15.8631 16.4096 16.43 16.8048 17.0102 17.1504ZM19.1834 20.4262C19.0568 20.3641 18.9131 20.2858 18.7512 20.1976C18.2623 19.9313 17.6082 19.5749 16.7626 19.3052C16.7164 19.2926 16.6696 19.2789 16.6224 19.265C16.3821 19.1942 16.1296 19.1199 15.8772 19.1794C16.2618 19.1445 17.3052 19.603 18.4276 20.0963L18.4276 20.0963L18.4276 20.0963C18.6778 20.2062 18.9318 20.3178 19.1834 20.4262ZM17.5965 16.6345C17.56 16.5578 17.3828 16.3661 17.315 16.4045C17.315 16.4045 16.9605 16.5578 16.9709 16.7441C16.9814 16.9303 17.2524 17.018 17.3463 16.9248C17.3685 16.9041 17.3962 16.8812 17.4252 16.8574C17.5186 16.7803 17.6244 16.6931 17.5965 16.6345ZM18.9878 20.394C18.9878 20.394 19.1184 20.8056 18.9304 20.8714C18.7476 20.9318 18.5544 20.6739 18.5909 20.5532C18.6275 20.4325 18.711 20.3227 18.9878 20.394ZM17.4459 21.0301C17.1707 21.0826 16.9057 20.4243 17.5295 20.6734C17.5295 20.6733 17.5608 21.0081 17.4459 21.0301ZM16.2575 19.978C16.3207 20.0046 16.3864 20.0319 16.4542 20.0601L16.4544 20.0602C16.8143 20.2098 17.2367 20.3854 17.695 20.6292C16.805 20.3542 16.3421 20.1213 16.0211 19.9598C15.6643 19.7804 15.4829 19.6891 15.0856 19.7262C15.5602 19.5987 15.9156 19.7938 16.1374 19.9155L16.1375 19.9155C16.1832 19.9406 16.2232 19.9626 16.2575 19.978ZM19.6284 20.0603C19.0537 19.793 19.179 20.5842 19.524 20.5212C19.7614 20.4724 19.6315 20.0697 19.6285 20.0605L19.6284 20.0603ZM33.8455 13.7465L29.3565 15.5738C29.3565 15.5738 28.945 15.7271 29.1637 16.3509C29.9557 18.6291 29.8004 21.9106 29.4606 21.4021C29.1116 20.8877 28.9189 19.0215 28.9189 19.0215C28.9189 19.0215 28.4658 18.6439 28.2314 17.7081C28.1782 17.4993 28.079 17.2243 27.9692 16.92C27.5839 15.8527 27.0689 14.4259 27.9606 14.2385C28.3332 14.1895 29.8119 13.0877 31.4193 11.8902C32.2377 11.2804 33.0894 10.6459 33.8455 10.1128V13.7465Z" fill="#946DAE"/>
</svg>
