<svg width="41" height="40" viewBox="0 0 41 40" fill="none" xmlns="http://www.w3.org/2000/svg">
<g id="Abdominal Pain">
<g id="Subtract">
<mask id="path-1-inside-1_131_5358" fill="white">
<path fill-rule="evenodd" clip-rule="evenodd" d="M20.8456 40C31.8913 40 40.8456 31.0457 40.8456 20C40.8456 8.9543 31.8913 0 20.8456 0C9.79989 0 0.845581 8.9543 0.845581 20C0.845581 31.0457 9.79989 40 20.8456 40ZM27.7285 17.8605C27.8821 18.3559 27.9934 18.7151 28.315 19.1352C28.4006 19.2508 28.4569 19.5837 28.5245 19.9839C28.6573 20.7697 28.834 21.8146 29.3619 21.981C26.7629 22.4681 24.1223 22.7143 21.5233 22.7143C18.867 22.7143 16.169 22.4571 13.5127 21.9537C13.5231 21.2641 13.544 20.6348 13.5752 20.1368C14.3995 20.7518 17.4548 22.3305 18.143 21.379C18.3982 21.4665 18.6795 21.5432 18.8982 21.5541L18.9607 21.5596C19.2055 21.5596 19.4191 21.4556 19.5649 21.2695C19.6014 21.2203 19.6326 21.171 19.6587 21.1218C20.2226 21.0994 20.6616 20.4573 20.2472 19.7317C20.5754 18.784 19.0356 17.6587 18.1951 17.187C18.5625 16.3196 17.5312 15.5792 16.7281 15.0026L16.6378 14.9378C16.5472 14.8768 16.474 14.8212 16.4078 14.7709L16.4078 14.7709L16.4077 14.7709C16.2214 14.6293 16.0906 14.53 15.7836 14.4726C16.9294 11.5776 15.7992 9 15.7992 9H27.2473C27.2473 9 26.1952 11.397 27.1483 14.1716C26.7338 15.0437 27.0529 15.9277 27.4647 17.0689L27.4817 17.1158C27.5861 17.4011 27.6613 17.6437 27.7285 17.8604L27.7285 17.8605L27.7285 17.8605ZM20.6536 20.3612L20.6744 20.3776L20.9088 20.4706C20.9015 20.4962 20.7707 20.6236 20.6989 20.692C20.6629 20.7255 20.6502 20.7375 20.6529 20.7352C20.654 20.7342 20.6578 20.7307 20.6637 20.7251C20.6719 20.7175 20.6842 20.706 20.6989 20.692C20.7429 20.651 20.8219 20.5778 20.9504 20.4596C21.0031 20.4847 20.7739 20.3753 20.7213 20.3502L21.065 20.0218L21.0754 20.0163C21.6165 20.1302 22.1484 19.6807 22.1484 19.0805C22.1484 18.5606 21.7369 18.1338 21.2421 18.1338C20.3574 18.1338 20.0065 19.3381 20.7317 19.8631L20.7213 19.8795C20.6904 19.8633 20.7653 19.9027 20.8424 19.9432C20.8957 19.9712 20.95 19.9997 20.9713 20.0109C20.9825 19.9985 20.9749 20.0069 20.9559 20.0278L20.8418 20.1537L20.6536 20.3612ZM21.4927 20.4651L21.5016 20.4632C21.5773 20.4474 21.7047 20.4207 21.7898 20.4049L21.769 20.5035C21.7403 20.5089 21.7116 20.5131 21.683 20.5172L21.6829 20.5172L21.6829 20.5172L21.6829 20.5172L21.6829 20.5172C21.6542 20.5213 21.6256 20.5254 21.597 20.5309L21.5868 20.6513L21.5855 20.6675L21.5853 20.6689L21.5847 20.6768C21.5813 20.7169 21.5792 20.7421 21.5813 20.7171C21.529 20.7262 21.0911 20.8029 21.1434 20.7938L21.0913 20.9855H21.0808L20.7941 21.0731L21.0652 20.9745L21.0965 20.7719L21.1017 20.7609C21.1538 20.7486 21.55 20.6555 21.4979 20.6678C21.4965 20.613 21.4913 20.4103 21.4927 20.4651ZM21.1851 22.0475L21.3154 22.0639C21.3109 22.0919 21.3218 22.0246 21.3336 21.9519L21.3391 21.9176L21.3416 21.9023L21.3491 21.8556L21.3571 21.8065C21.3909 21.8106 21.3086 21.8005 21.2323 21.7912L21.1329 21.7791L21.0808 21.4997L21.0756 21.4888H21.0652L20.8097 21.4066L20.8306 21.2587L20.7889 21.4121V21.423H20.7993L21.0339 21.5161L21.0599 21.8393C21.0302 21.8336 21.0735 21.8419 21.1259 21.8519C21.1652 21.8594 21.2096 21.8679 21.232 21.8722L21.1851 22.0475ZM13.5046 22.3836C13.4112 28.2614 13.593 29.1556 13.7896 30.1228L13.7896 30.1228C13.8416 30.3788 13.8947 30.64 13.944 31H20.7918C21.1511 30.4921 21.8857 30.4813 22.2559 31H29.1047C29.1611 30.6329 29.2154 30.3472 29.2659 30.082C29.4904 28.9015 29.6377 28.1271 29.5431 22.3836C24.197 23.39 18.8507 23.39 13.5046 22.3836ZM19.5909 19.7266C19.5674 19.7183 19.5453 19.7074 19.5231 19.6964C19.501 19.6855 19.4789 19.6746 19.4555 19.6664C19.4086 19.6664 19.3617 19.639 19.3253 19.6007C18.3332 19.1167 17.6839 18.763 17.2193 18.5099L17.2193 18.5099L17.2193 18.5099C16.9025 18.3374 16.6716 18.2116 16.4763 18.1231C17.2598 18.3693 18.5759 19.1034 19.2784 19.5405C19.2055 19.4256 19.1847 19.2669 19.2368 19.245C19.259 19.2333 19.2743 19.2173 19.2888 19.202C19.3354 19.1529 19.3747 19.1115 19.617 19.245C19.617 19.245 19.6795 19.6281 19.4816 19.6664C19.4997 19.6772 19.5178 19.6867 19.5358 19.6962C19.5542 19.7059 19.5726 19.7155 19.5909 19.7266ZM19.8513 20.449C20.018 20.1534 19.5909 19.7266 19.5909 19.7266C20.0719 19.4645 19.5057 18.8944 19.1295 18.5157C19.0658 18.4515 19.0075 18.3928 18.9607 18.342C18.7685 18.1304 18.3227 17.885 17.8019 17.5983L17.8019 17.5983L17.8019 17.5983L17.8018 17.5983L17.8018 17.5983L17.8017 17.5982L17.8016 17.5981C17.578 17.4751 17.3406 17.3444 17.1036 17.2055C18.6254 17.0323 17.112 15.9457 16.3471 15.3965L16.347 15.3965L16.347 15.3965L16.347 15.3965C16.2016 15.2921 16.0832 15.2071 16.0179 15.1515C15.6065 14.8013 14.2002 15.1132 14.2002 15.1132C12.7221 15.0708 12.4903 14.3703 12.1961 13.4812L12.1961 13.4812C12.1108 13.2236 12.0204 12.9503 11.8929 12.6725C11.3304 11.4357 12.9241 9.08244 12.9241 9.08244H9.53866C8.5126 9.79935 8.92928 13.8436 8.92928 13.8436C8.92928 13.8436 11.7887 17.4938 13.096 18.9933C14.4033 20.4928 16.8565 21.0729 17.419 21.1331C17.9247 21.1915 17.7381 20.7289 17.703 20.6419L17.7002 20.6351C17.7112 20.6389 17.7357 20.6485 17.7707 20.6622L17.7709 20.6623C17.9851 20.7462 18.5938 20.9845 18.9294 21.0127C19.3239 21.0389 19.2444 20.4967 19.2372 20.4519C19.5468 20.5975 19.7463 20.6318 19.8513 20.449ZM15.8707 16.2267C16.2087 16.4797 16.6801 16.8325 17.0103 17.1504C16.4301 16.8048 15.8633 16.4096 15.5179 15.956C15.5905 16.017 15.7168 16.1115 15.8707 16.2267ZM18.7514 20.1976C18.9132 20.2858 19.057 20.3641 19.1836 20.4262C18.932 20.3178 18.6779 20.2062 18.4277 20.0963C17.3053 19.603 16.2619 19.1445 15.8773 19.1794C16.1298 19.1199 16.3822 19.1942 16.6225 19.265C16.6698 19.2789 16.7165 19.2926 16.7627 19.3052C17.6084 19.5749 18.2625 19.9313 18.7513 20.1976L18.7514 20.1976ZM17.3151 16.4045C17.3829 16.3661 17.5602 16.5578 17.5966 16.6345C17.6245 16.6931 17.5187 16.7803 17.4253 16.8574C17.3964 16.8812 17.3686 16.9041 17.3464 16.9248C17.2526 17.018 16.9815 16.9303 16.9711 16.7441C16.9606 16.5578 17.3151 16.4045 17.3151 16.4045ZM18.9305 20.8714C19.1185 20.8056 18.9879 20.394 18.9879 20.394C18.7111 20.3227 18.6276 20.4325 18.5911 20.5532C18.5545 20.6739 18.7477 20.9318 18.9305 20.8714ZM17.446 21.0301C17.1709 21.0826 16.9058 20.4243 17.5296 20.6734C17.5296 20.6733 17.561 21.0081 17.446 21.0301ZM16.4543 20.0601C16.3865 20.0319 16.3208 20.0046 16.2576 19.978C16.2234 19.9626 16.1833 19.9406 16.1376 19.9155L16.1376 19.9155C15.9157 19.7938 15.5603 19.5987 15.0857 19.7262C15.4831 19.6891 15.6645 19.7804 16.0212 19.9598C16.3422 20.1213 16.8052 20.3542 17.6951 20.6292C17.2368 20.3854 16.8144 20.2098 16.4545 20.0602L16.4543 20.0601ZM19.5241 20.5212C19.1791 20.5842 19.0539 19.793 19.6286 20.0603L19.6286 20.0605C19.6316 20.0697 19.7616 20.4724 19.5241 20.5212ZM29.3566 15.5738L33.8456 13.7465V10.1128C33.0896 10.6458 32.238 11.2803 31.4197 11.89L31.4195 11.8902L31.4194 11.8902C29.812 13.0878 28.3333 14.1895 27.9607 14.2385C27.069 14.4259 27.584 15.8527 27.9693 16.92C28.0791 17.2243 28.1784 17.4993 28.2315 17.7081C28.4659 18.6439 28.919 19.0215 28.919 19.0215C28.919 19.0215 29.1117 20.8877 29.4607 21.4021C29.8005 21.9106 29.9558 18.6291 29.1638 16.3509C28.9451 15.7271 29.3566 15.5738 29.3566 15.5738Z"/>
</mask>
<path fill-rule="evenodd" clip-rule="evenodd" d="M20.8456 40C31.8913 40 40.8456 31.0457 40.8456 20C40.8456 8.9543 31.8913 0 20.8456 0C9.79989 0 0.845581 8.9543 0.845581 20C0.845581 31.0457 9.79989 40 20.8456 40ZM27.7285 17.8605C27.8821 18.3559 27.9934 18.7151 28.315 19.1352C28.4006 19.2508 28.4569 19.5837 28.5245 19.9839C28.6573 20.7697 28.834 21.8146 29.3619 21.981C26.7629 22.4681 24.1223 22.7143 21.5233 22.7143C18.867 22.7143 16.169 22.4571 13.5127 21.9537C13.5231 21.2641 13.544 20.6348 13.5752 20.1368C14.3995 20.7518 17.4548 22.3305 18.143 21.379C18.3982 21.4665 18.6795 21.5432 18.8982 21.5541L18.9607 21.5596C19.2055 21.5596 19.4191 21.4556 19.5649 21.2695C19.6014 21.2203 19.6326 21.171 19.6587 21.1218C20.2226 21.0994 20.6616 20.4573 20.2472 19.7317C20.5754 18.784 19.0356 17.6587 18.1951 17.187C18.5625 16.3196 17.5312 15.5792 16.7281 15.0026L16.6378 14.9378C16.5472 14.8768 16.474 14.8212 16.4078 14.7709L16.4078 14.7709L16.4077 14.7709C16.2214 14.6293 16.0906 14.53 15.7836 14.4726C16.9294 11.5776 15.7992 9 15.7992 9H27.2473C27.2473 9 26.1952 11.397 27.1483 14.1716C26.7338 15.0437 27.0529 15.9277 27.4647 17.0689L27.4817 17.1158C27.5861 17.4011 27.6613 17.6437 27.7285 17.8604L27.7285 17.8605L27.7285 17.8605ZM20.6536 20.3612L20.6744 20.3776L20.9088 20.4706C20.9015 20.4962 20.7707 20.6236 20.6989 20.692C20.6629 20.7255 20.6502 20.7375 20.6529 20.7352C20.654 20.7342 20.6578 20.7307 20.6637 20.7251C20.6719 20.7175 20.6842 20.706 20.6989 20.692C20.7429 20.651 20.8219 20.5778 20.9504 20.4596C21.0031 20.4847 20.7739 20.3753 20.7213 20.3502L21.065 20.0218L21.0754 20.0163C21.6165 20.1302 22.1484 19.6807 22.1484 19.0805C22.1484 18.5606 21.7369 18.1338 21.2421 18.1338C20.3574 18.1338 20.0065 19.3381 20.7317 19.8631L20.7213 19.8795C20.6904 19.8633 20.7653 19.9027 20.8424 19.9432C20.8957 19.9712 20.95 19.9997 20.9713 20.0109C20.9825 19.9985 20.9749 20.0069 20.9559 20.0278L20.8418 20.1537L20.6536 20.3612ZM21.4927 20.4651L21.5016 20.4632C21.5773 20.4474 21.7047 20.4207 21.7898 20.4049L21.769 20.5035C21.7403 20.5089 21.7116 20.5131 21.683 20.5172L21.6829 20.5172L21.6829 20.5172L21.6829 20.5172L21.6829 20.5172C21.6542 20.5213 21.6256 20.5254 21.597 20.5309L21.5868 20.6513L21.5855 20.6675L21.5853 20.6689L21.5847 20.6768C21.5813 20.7169 21.5792 20.7421 21.5813 20.7171C21.529 20.7262 21.0911 20.8029 21.1434 20.7938L21.0913 20.9855H21.0808L20.7941 21.0731L21.0652 20.9745L21.0965 20.7719L21.1017 20.7609C21.1538 20.7486 21.55 20.6555 21.4979 20.6678C21.4965 20.613 21.4913 20.4103 21.4927 20.4651ZM21.1851 22.0475L21.3154 22.0639C21.3109 22.0919 21.3218 22.0246 21.3336 21.9519L21.3391 21.9176L21.3416 21.9023L21.3491 21.8556L21.3571 21.8065C21.3909 21.8106 21.3086 21.8005 21.2323 21.7912L21.1329 21.7791L21.0808 21.4997L21.0756 21.4888H21.0652L20.8097 21.4066L20.8306 21.2587L20.7889 21.4121V21.423H20.7993L21.0339 21.5161L21.0599 21.8393C21.0302 21.8336 21.0735 21.8419 21.1259 21.8519C21.1652 21.8594 21.2096 21.8679 21.232 21.8722L21.1851 22.0475ZM13.5046 22.3836C13.4112 28.2614 13.593 29.1556 13.7896 30.1228L13.7896 30.1228C13.8416 30.3788 13.8947 30.64 13.944 31H20.7918C21.1511 30.4921 21.8857 30.4813 22.2559 31H29.1047C29.1611 30.6329 29.2154 30.3472 29.2659 30.082C29.4904 28.9015 29.6377 28.1271 29.5431 22.3836C24.197 23.39 18.8507 23.39 13.5046 22.3836ZM19.5909 19.7266C19.5674 19.7183 19.5453 19.7074 19.5231 19.6964C19.501 19.6855 19.4789 19.6746 19.4555 19.6664C19.4086 19.6664 19.3617 19.639 19.3253 19.6007C18.3332 19.1167 17.6839 18.763 17.2193 18.5099L17.2193 18.5099L17.2193 18.5099C16.9025 18.3374 16.6716 18.2116 16.4763 18.1231C17.2598 18.3693 18.5759 19.1034 19.2784 19.5405C19.2055 19.4256 19.1847 19.2669 19.2368 19.245C19.259 19.2333 19.2743 19.2173 19.2888 19.202C19.3354 19.1529 19.3747 19.1115 19.617 19.245C19.617 19.245 19.6795 19.6281 19.4816 19.6664C19.4997 19.6772 19.5178 19.6867 19.5358 19.6962C19.5542 19.7059 19.5726 19.7155 19.5909 19.7266ZM19.8513 20.449C20.018 20.1534 19.5909 19.7266 19.5909 19.7266C20.0719 19.4645 19.5057 18.8944 19.1295 18.5157C19.0658 18.4515 19.0075 18.3928 18.9607 18.342C18.7685 18.1304 18.3227 17.885 17.8019 17.5983L17.8019 17.5983L17.8019 17.5983L17.8018 17.5983L17.8018 17.5983L17.8017 17.5982L17.8016 17.5981C17.578 17.4751 17.3406 17.3444 17.1036 17.2055C18.6254 17.0323 17.112 15.9457 16.3471 15.3965L16.347 15.3965L16.347 15.3965L16.347 15.3965C16.2016 15.2921 16.0832 15.2071 16.0179 15.1515C15.6065 14.8013 14.2002 15.1132 14.2002 15.1132C12.7221 15.0708 12.4903 14.3703 12.1961 13.4812L12.1961 13.4812C12.1108 13.2236 12.0204 12.9503 11.8929 12.6725C11.3304 11.4357 12.9241 9.08244 12.9241 9.08244H9.53866C8.5126 9.79935 8.92928 13.8436 8.92928 13.8436C8.92928 13.8436 11.7887 17.4938 13.096 18.9933C14.4033 20.4928 16.8565 21.0729 17.419 21.1331C17.9247 21.1915 17.7381 20.7289 17.703 20.6419L17.7002 20.6351C17.7112 20.6389 17.7357 20.6485 17.7707 20.6622L17.7709 20.6623C17.9851 20.7462 18.5938 20.9845 18.9294 21.0127C19.3239 21.0389 19.2444 20.4967 19.2372 20.4519C19.5468 20.5975 19.7463 20.6318 19.8513 20.449ZM15.8707 16.2267C16.2087 16.4797 16.6801 16.8325 17.0103 17.1504C16.4301 16.8048 15.8633 16.4096 15.5179 15.956C15.5905 16.017 15.7168 16.1115 15.8707 16.2267ZM18.7514 20.1976C18.9132 20.2858 19.057 20.3641 19.1836 20.4262C18.932 20.3178 18.6779 20.2062 18.4277 20.0963C17.3053 19.603 16.2619 19.1445 15.8773 19.1794C16.1298 19.1199 16.3822 19.1942 16.6225 19.265C16.6698 19.2789 16.7165 19.2926 16.7627 19.3052C17.6084 19.5749 18.2625 19.9313 18.7513 20.1976L18.7514 20.1976ZM17.3151 16.4045C17.3829 16.3661 17.5602 16.5578 17.5966 16.6345C17.6245 16.6931 17.5187 16.7803 17.4253 16.8574C17.3964 16.8812 17.3686 16.9041 17.3464 16.9248C17.2526 17.018 16.9815 16.9303 16.9711 16.7441C16.9606 16.5578 17.3151 16.4045 17.3151 16.4045ZM18.9305 20.8714C19.1185 20.8056 18.9879 20.394 18.9879 20.394C18.7111 20.3227 18.6276 20.4325 18.5911 20.5532C18.5545 20.6739 18.7477 20.9318 18.9305 20.8714ZM17.446 21.0301C17.1709 21.0826 16.9058 20.4243 17.5296 20.6734C17.5296 20.6733 17.561 21.0081 17.446 21.0301ZM16.4543 20.0601C16.3865 20.0319 16.3208 20.0046 16.2576 19.978C16.2234 19.9626 16.1833 19.9406 16.1376 19.9155L16.1376 19.9155C15.9157 19.7938 15.5603 19.5987 15.0857 19.7262C15.4831 19.6891 15.6645 19.7804 16.0212 19.9598C16.3422 20.1213 16.8052 20.3542 17.6951 20.6292C17.2368 20.3854 16.8144 20.2098 16.4545 20.0602L16.4543 20.0601ZM19.5241 20.5212C19.1791 20.5842 19.0539 19.793 19.6286 20.0603L19.6286 20.0605C19.6316 20.0697 19.7616 20.4724 19.5241 20.5212ZM29.3566 15.5738L33.8456 13.7465V10.1128C33.0896 10.6458 32.238 11.2803 31.4197 11.89L31.4195 11.8902L31.4194 11.8902C29.812 13.0878 28.3333 14.1895 27.9607 14.2385C27.069 14.4259 27.584 15.8527 27.9693 16.92C28.0791 17.2243 28.1784 17.4993 28.2315 17.7081C28.4659 18.6439 28.919 19.0215 28.919 19.0215C28.919 19.0215 29.1117 20.8877 29.4607 21.4021C29.8005 21.9106 29.9558 18.6291 29.1638 16.3509C28.9451 15.7271 29.3566 15.5738 29.3566 15.5738Z" fill="#946DAE"/>
<path d="M28.315 19.1352L29.1188 18.5402L29.114 18.5338L29.1091 18.5274L28.315 19.1352ZM27.7285 17.8605L26.7638 18.1236L26.7683 18.1402L26.7734 18.1566L27.7285 17.8605ZM28.5245 19.9839L27.5385 20.1505V20.1506L28.5245 19.9839ZM29.3619 21.981L29.5461 22.9639L29.6626 21.0273L29.3619 21.981ZM13.5127 21.9537L12.5128 21.9386L12.5001 22.7795L13.3265 22.9362L13.5127 21.9537ZM13.5752 20.1368L14.1732 19.3353L12.6929 18.2307L12.5772 20.0741L13.5752 20.1368ZM18.143 21.379L18.4673 20.4331L17.7668 20.1929L17.3327 20.793L18.143 21.379ZM18.8982 21.5541L18.9855 20.5579L18.9669 20.5563L18.9482 20.5554L18.8982 21.5541ZM18.9607 21.5596L18.8735 22.5558L18.917 22.5596H18.9607V21.5596ZM19.5649 21.2695L20.352 21.8864L20.3605 21.8756L20.3687 21.8645L19.5649 21.2695ZM19.6587 21.1218L19.619 20.1226L19.0437 20.1454L18.7746 20.6544L19.6587 21.1218ZM20.2472 19.7317L19.3023 19.4045L19.1537 19.8335L19.3788 20.2276L20.2472 19.7317ZM18.1951 17.187L17.2743 16.797L16.9252 17.6211L17.7057 18.0591L18.1951 17.187ZM16.7281 15.0026L16.1445 15.8147L16.1449 15.815L16.7281 15.0026ZM16.6378 14.9378L17.2213 14.1257L17.2087 14.1166L17.1959 14.108L16.6378 14.9378ZM16.4078 14.7709L15.79 15.5572L15.7964 15.5623L15.8029 15.5672L16.4078 14.7709ZM16.4078 14.7709L17.0256 13.9846L17.0217 13.9815L16.4078 14.7709ZM16.4077 14.7709L17.0217 13.9815L17.0127 13.9746L16.4077 14.7709ZM15.7836 14.4726L14.8538 14.1046L14.4073 15.2327L15.5999 15.4556L15.7836 14.4726ZM15.7992 9V8H14.2688L14.8834 9.40157L15.7992 9ZM27.2473 9L28.163 9.40191L28.7783 8H27.2473V9ZM27.1483 14.1716L28.0515 14.6009L28.2266 14.2325L28.0941 13.8467L27.1483 14.1716ZM27.4647 17.0689L28.4054 16.7295L28.4054 16.7294L27.4647 17.0689ZM27.4817 17.1158L26.541 17.4553L26.5426 17.4596L27.4817 17.1158ZM27.7285 17.8604L28.6847 17.5677L28.6836 17.5643L27.7285 17.8604ZM27.7285 17.8605L28.6933 17.5974L28.6892 17.5825L28.6847 17.5678L27.7285 17.8605ZM20.6744 20.3776L20.0555 21.163L20.1701 21.2533L20.3057 21.3071L20.6744 20.3776ZM20.6536 20.3612L19.9129 19.6893L19.1927 20.4832L20.0347 21.1466L20.6536 20.3612ZM20.9088 20.4706L21.8703 20.7452L22.1189 19.8748L21.2775 19.541L20.9088 20.4706ZM20.6529 20.7352L19.9915 19.9852L19.9911 19.9855L20.6529 20.7352ZM20.6637 20.7251L21.3465 21.4558L21.3466 21.4557L20.6637 20.7251ZM20.9504 20.4596L21.381 19.5571L20.7711 19.2661L20.2736 19.7235L20.9504 20.4596ZM20.7213 20.3502L20.0306 19.627L18.9821 20.6285L20.2907 21.2527L20.7213 20.3502ZM21.065 20.0218L20.5998 19.1366L20.4757 19.2018L20.3743 19.2987L21.065 20.0218ZM21.0754 20.0163L21.2813 19.0378L20.929 18.9636L20.6102 19.1311L21.0754 20.0163ZM20.7317 19.8631L21.5761 20.3989L22.08 19.6047L21.3181 19.0531L20.7317 19.8631ZM20.7213 19.8795L20.2562 20.7648L21.0719 21.1934L21.5656 20.4153L20.7213 19.8795ZM20.8424 19.9432L20.3772 20.8284H20.3772L20.8424 19.9432ZM20.9713 20.0109L20.5063 20.8962L21.1917 21.2563L21.712 20.6828L20.9713 20.0109ZM20.9559 20.0278L20.2153 19.3559L20.2153 19.356L20.9559 20.0278ZM20.8418 20.1537L20.1011 19.4818L20.1011 19.4818L20.8418 20.1537ZM21.5016 20.4632L21.7067 21.442L21.7069 21.4419L21.5016 20.4632ZM21.4927 20.4651L20.493 20.4908L20.5238 21.6899L21.6978 21.4439L21.4927 20.4651ZM21.7898 20.4049L22.7682 20.6118L23.0776 19.1491L21.6075 19.4216L21.7898 20.4049ZM21.769 20.5035L21.9566 21.4857L22.6098 21.3609L22.7474 20.7104L21.769 20.5035ZM21.683 20.5172L21.807 21.5094L21.8159 21.5083L21.8248 21.507L21.683 20.5172ZM21.6829 20.5172L21.5589 19.5249L21.5121 19.5307L21.466 19.541L21.6829 20.5172ZM21.6829 20.5172L21.7933 21.5111L21.847 21.5051L21.8998 21.4934L21.6829 20.5172ZM21.6829 20.5172L21.5724 19.5233L21.5567 19.525L21.541 19.5273L21.6829 20.5172ZM21.597 20.5309L21.4093 19.5486L20.664 19.691L20.6005 20.4471L21.597 20.5309ZM21.5868 20.6513L22.5833 20.7351L22.5833 20.735L21.5868 20.6513ZM21.5855 20.6675L22.5819 20.7525L22.582 20.7513L21.5855 20.6675ZM21.5853 20.6689L20.589 20.5839L20.5889 20.5852L21.5853 20.6689ZM21.5847 20.6768L22.5812 20.7606L22.5812 20.7606L21.5847 20.6768ZM21.5813 20.7171L22.5777 20.8015L22.6872 19.5084L21.409 19.7321L21.5813 20.7171ZM21.1434 20.7938L22.1084 21.0562L22.5213 19.5375L20.9711 19.8087L21.1434 20.7938ZM21.0913 20.9855V21.9855H21.8556L22.0562 21.2479L21.0913 20.9855ZM21.0808 20.9855V19.9855H20.9314L20.7885 20.0292L21.0808 20.9855ZM20.7941 21.0731L20.4523 20.1334L21.0864 22.0295L20.7941 21.0731ZM21.0652 20.9745L21.407 21.9143L21.9632 21.712L22.0535 21.1271L21.0652 20.9745ZM21.0965 20.7719L20.1935 20.3421L20.1305 20.4745L20.1082 20.6194L21.0965 20.7719ZM21.1017 20.7609L20.8726 19.7875L20.4051 19.8975L20.1988 20.3311L21.1017 20.7609ZM21.4979 20.6678L20.4982 20.6935L20.5298 21.923L21.727 21.6412L21.4979 20.6678ZM21.3154 22.0639L22.3026 22.2233L22.4676 21.2013L21.4405 21.0718L21.3154 22.0639ZM21.1851 22.0475L20.2191 21.7889L19.9227 22.8962L21.06 23.0396L21.1851 22.0475ZM21.3336 21.9519L22.3207 22.1117L22.3207 22.1117L21.3336 21.9519ZM21.3391 21.9176L22.3263 22.0774L22.3263 22.0773L21.3391 21.9176ZM21.3416 21.9023L20.3544 21.7424L20.3544 21.7425L21.3416 21.9023ZM21.3491 21.8556L20.362 21.6957L20.362 21.6958L21.3491 21.8556ZM21.3571 21.8065L21.4781 20.8138L20.5237 20.6975L20.37 21.6465L21.3571 21.8065ZM21.2323 21.7912L21.3536 20.7986L21.3535 20.7986L21.2323 21.7912ZM21.1329 21.7791L20.1499 21.9625L20.2843 22.6829L21.0118 22.7717L21.1329 21.7791ZM21.0808 21.4997L22.0638 21.3163L22.0399 21.1879L21.9838 21.0701L21.0808 21.4997ZM21.0756 21.4888L21.9786 21.0591L21.7072 20.4888H21.0756V21.4888ZM21.0652 21.4888L20.759 22.4407L20.9083 22.4888H21.0652V21.4888ZM20.8097 21.4066L19.8195 21.267L19.7019 22.1007L20.5035 22.3586L20.8097 21.4066ZM20.8306 21.2587L21.8208 21.3983L19.8656 20.9963L20.8306 21.2587ZM20.7889 21.4121L19.8239 21.1497L19.7889 21.2785V21.4121H20.7889ZM20.7889 21.423H19.7889V22.423H20.7889V21.423ZM20.7993 21.423L21.1682 20.4936L20.9905 20.423H20.7993V21.423ZM21.0339 21.5161L22.0306 21.4357L21.9807 20.8161L21.4028 20.5867L21.0339 21.5161ZM21.0599 21.8393L20.8722 22.8215L22.1623 23.0682L22.0567 21.7589L21.0599 21.8393ZM21.1259 21.8519L20.9383 22.8342L20.9383 22.8342L21.1259 21.8519ZM21.232 21.8722L22.198 22.1308L22.476 21.092L21.4198 20.89L21.232 21.8722ZM13.7896 30.1228L14.776 29.9584L14.7731 29.941L14.7696 29.9236L13.7896 30.1228ZM13.5046 22.3836L13.6896 21.4008L12.5235 21.1813L12.5047 22.3677L13.5046 22.3836ZM13.7896 30.1228L12.8032 30.2872L12.8061 30.3047L12.8096 30.322L13.7896 30.1228ZM13.944 31L12.9532 31.1357L13.0716 32H13.944V31ZM20.7918 31V32H21.3092L21.6081 31.5776L20.7918 31ZM22.2559 31L21.4419 31.581L21.741 32H22.2559V31ZM29.1047 31V32H29.9629L30.0931 31.1518L29.1047 31ZM29.2659 30.082L30.2482 30.2689L29.2659 30.082ZM29.5431 22.3836L30.543 22.3671L30.5234 21.1815L29.3581 21.4008L29.5431 22.3836ZM19.5231 19.6964L19.9665 18.8001L19.9665 18.8001L19.5231 19.6964ZM19.4555 19.6664L19.7864 18.7227L19.6258 18.6664H19.4555V19.6664ZM19.3253 19.6007L20.0502 18.9118L19.9259 18.781L19.7638 18.7019L19.3253 19.6007ZM17.2193 18.5099L17.6977 17.6318L17.6623 17.6125L17.6255 17.5961L17.2193 18.5099ZM17.2193 18.5099L16.7404 19.3878L16.7761 19.4073L16.8132 19.4237L17.2193 18.5099ZM17.2193 18.5099L17.6981 17.632L17.6976 17.6318L17.2193 18.5099ZM16.4763 18.1231L16.7761 17.1691L16.0636 19.0339L16.4763 18.1231ZM19.2784 19.5405L18.7502 20.3896L20.1228 19.0047L19.2784 19.5405ZM19.2368 19.245L19.6242 20.1669L19.6638 20.1502L19.7019 20.1302L19.2368 19.245ZM19.2888 19.202L18.5637 18.5133L18.5637 18.5133L19.2888 19.202ZM19.617 19.245L20.6039 19.0839L20.5256 18.604L20.0997 18.3692L19.617 19.245ZM19.4816 19.6664L19.2915 18.6846L16.7296 19.1805L18.9668 20.5237L19.4816 19.6664ZM19.5358 19.6962L19.0709 20.5816L19.0709 20.5816L19.5358 19.6962ZM19.8513 20.449L20.7184 20.9472L20.7224 20.9401L19.8513 20.449ZM19.1295 18.5157L19.8391 17.811L19.8391 17.811L19.1295 18.5157ZM18.9607 18.342L18.2203 19.0142L18.2255 19.0198L18.9607 18.342ZM17.8019 17.5983L17.2207 18.4121L17.2684 18.4461L17.3197 18.4744L17.8019 17.5983ZM17.8019 17.5983L18.3832 16.7846L18.3253 16.7433L18.2622 16.7106L17.8019 17.5983ZM17.8019 17.5983L17.3313 18.4807L17.3416 18.486L17.8019 17.5983ZM17.8018 17.5983L18.2724 16.7159L18.2408 16.699L18.208 16.6845L17.8018 17.5983ZM17.8018 17.5983L17.3162 18.4724L17.3551 18.494L17.3957 18.5121L17.8018 17.5983ZM17.8017 17.5982L18.2874 16.724L18.2848 16.7226L17.8017 17.5982ZM17.8016 17.5981L18.2846 16.7225L18.2838 16.7221L17.8016 17.5981ZM17.1036 17.2055L16.9904 16.212L14.0086 16.5515L16.5981 18.0684L17.1036 17.2055ZM16.3471 15.3965L15.6399 16.1036L15.6976 16.1613L15.7638 16.2089L16.3471 15.3965ZM16.347 15.3965L17.0542 14.6894L16.9936 14.6289L16.9237 14.5796L16.347 15.3965ZM16.347 15.3965L15.755 16.2024L15.7626 16.208L15.7703 16.2135L16.347 15.3965ZM16.347 15.3965L16.9391 14.5906L16.9302 14.5842L16.347 15.3965ZM16.0179 15.1515L15.3697 15.913L15.3698 15.9131L16.0179 15.1515ZM14.2002 15.1132L14.1715 16.1128L14.2956 16.1164L14.4167 16.0895L14.2002 15.1132ZM12.1961 13.4812L11.2259 13.7237L11.235 13.7599L11.2467 13.7954L12.1961 13.4812ZM12.1961 13.4812L13.1662 13.2387L13.1572 13.2025L13.1454 13.167L12.1961 13.4812ZM11.8929 12.6725L10.9826 13.0865L10.984 13.0896L11.8929 12.6725ZM12.9241 9.08244L13.7521 9.64321L14.8092 8.08244H12.9241V9.08244ZM9.53866 9.08244V8.08244H9.22392L8.96591 8.26271L9.53866 9.08244ZM8.92928 13.8436L7.93454 13.9461L7.96411 14.2331L8.14206 14.4603L8.92928 13.8436ZM17.419 21.1331L17.5338 20.1396L17.5254 20.1388L17.419 21.1331ZM17.703 20.6419L16.775 21.0144L16.7756 21.0159L17.703 20.6419ZM17.7002 20.6351L18.0307 19.6913L15.9515 18.9631L16.7722 21.0076L17.7002 20.6351ZM17.7707 20.6622L17.4061 21.5934L17.4063 21.5935L17.7707 20.6622ZM17.7709 20.6623L18.1355 19.7311L18.1353 19.731L17.7709 20.6623ZM18.9294 21.0127L18.8457 22.0092L18.8544 22.0099L18.8631 22.0105L18.9294 21.0127ZM19.2372 20.4519L19.6627 19.547L17.948 18.7407L18.25 20.6113L19.2372 20.4519ZM17.0103 17.1504L16.4985 18.0095L17.7039 16.4301L17.0103 17.1504ZM15.8707 16.2267L15.2715 17.0273L15.2715 17.0273L15.8707 16.2267ZM15.5179 15.956L16.1614 15.1905L14.7223 16.5617L15.5179 15.956ZM19.1836 20.4262L18.7882 21.3447L19.6236 19.5282L19.1836 20.4262ZM18.7514 20.1976L19.2298 19.3195L19.2143 19.3111L19.1986 19.3032L18.7514 20.1976ZM18.4277 20.0963L18.83 19.1808V19.1808L18.4277 20.0963ZM15.8773 19.1794L15.6481 18.206L15.9674 20.1753L15.8773 19.1794ZM16.6225 19.265L16.3401 20.2243L16.3401 20.2243L16.6225 19.265ZM16.7627 19.3052L17.0666 18.3525L17.0462 18.346L17.0256 18.3404L16.7627 19.3052ZM18.7513 20.1976L18.2729 21.0758L18.2884 21.0842L18.3041 21.092L18.7513 20.1976ZM17.5966 16.6345L18.4996 16.2048L18.4996 16.2048L17.5966 16.6345ZM17.3151 16.4045L17.7122 17.3222L17.7611 17.3011L17.8076 17.2748L17.3151 16.4045ZM17.4253 16.8574L18.0615 17.6289L18.0615 17.6288L17.4253 16.8574ZM17.3464 16.9248L16.6639 16.194L16.6528 16.2043L16.642 16.215L17.3464 16.9248ZM18.9879 20.394L19.9411 20.0917L19.7737 19.5638L19.2375 19.4257L18.9879 20.394ZM18.9305 20.8714L19.2441 21.821L19.2526 21.8182L19.2611 21.8152L18.9305 20.8714ZM18.5911 20.5532L19.5481 20.843L19.5481 20.843L18.5911 20.5532ZM17.446 21.0301L17.6337 22.0123L17.634 22.0122L17.446 21.0301ZM17.5296 20.6734L17.1587 21.6021L17.7707 21.8465L18.2367 21.3805L17.5296 20.6734ZM16.2576 19.978L15.8475 20.89L15.8583 20.8949L15.8693 20.8995L16.2576 19.978ZM16.4543 20.0601L16.0705 20.9835L16.0753 20.9855L16.4543 20.0601ZM16.1376 19.9155L16.6187 19.0389L16.602 19.0297L16.5848 19.0211L16.1376 19.9155ZM16.1376 19.9155L15.6565 20.7922L15.6732 20.8014L15.6904 20.8099L16.1376 19.9155ZM15.0857 19.7262L14.8262 18.7605L15.1787 20.7219L15.0857 19.7262ZM16.0212 19.9598L16.4706 19.0665H16.4706L16.0212 19.9598ZM17.6951 20.6292L17.3999 21.5846L18.1647 19.7463L17.6951 20.6292ZM16.4545 20.0602L16.8384 19.1368L16.8336 19.1348L16.4545 20.0602ZM19.6286 20.0603L20.5839 19.7646L20.4527 19.3407L20.0503 19.1536L19.6286 20.0603ZM19.5241 20.5212L19.7037 21.505L19.7147 21.5029L19.7257 21.5007L19.5241 20.5212ZM19.6286 20.0605L18.6733 20.3562L18.677 20.3677L19.6286 20.0605ZM33.8456 13.7465L34.2226 14.6728L34.8456 14.4192V13.7465H33.8456ZM29.3566 15.5738L29.7057 16.5109L29.7197 16.5056L29.7336 16.5L29.3566 15.5738ZM33.8456 10.1128H34.8456V8.18401L33.2693 9.2955L33.8456 10.1128ZM31.4197 11.89L32.017 12.692L32.0172 12.6919L31.4197 11.89ZM31.4195 11.8902L30.8222 11.0881L30.7906 11.1116L30.761 11.1376L31.4195 11.8902ZM31.4194 11.8902L32.0169 12.6921L32.0484 12.6686L32.078 12.6428L31.4194 11.8902ZM27.9607 14.2385L27.8303 13.247L27.7924 13.252L27.755 13.2599L27.9607 14.2385ZM27.9693 16.92L27.0287 17.2595V17.2595L27.9693 16.92ZM28.2315 17.7081L29.2016 17.4651L29.2006 17.4614L28.2315 17.7081ZM28.919 19.0215L29.9137 18.9188L29.8719 18.5139L29.5592 18.2533L28.919 19.0215ZM29.4607 21.4021L30.2922 20.8465L30.2883 20.8407L29.4607 21.4021ZM29.1638 16.3509L30.1084 16.0225L30.1075 16.0201L29.1638 16.3509ZM39.8456 20C39.8456 30.4934 31.339 39 20.8456 39V41C32.4436 41 41.8456 31.598 41.8456 20H39.8456ZM20.8456 1C31.339 1 39.8456 9.50659 39.8456 20H41.8456C41.8456 8.40202 32.4436 -1 20.8456 -1V1ZM1.84558 20C1.84558 9.50659 10.3522 1 20.8456 1V-1C9.2476 -1 -0.154419 8.40202 -0.154419 20H1.84558ZM20.8456 39C10.3522 39 1.84558 30.4934 1.84558 20H-0.154419C-0.154419 31.598 9.2476 41 20.8456 41V39ZM29.1091 18.5274C28.907 18.2634 28.8378 18.0615 28.6837 17.5644L26.7734 18.1566C26.9264 18.6504 27.0798 19.1668 27.521 19.7431L29.1091 18.5274ZM29.5105 19.8172C29.4782 19.626 29.4425 19.413 29.4021 19.2334C29.3816 19.1423 29.3553 19.0385 29.3206 18.9368C29.2905 18.849 29.2313 18.6922 29.1188 18.5402L27.5113 19.7302C27.4717 19.6767 27.4499 19.6332 27.441 19.6143C27.4313 19.5936 27.4274 19.5818 27.4281 19.5838C27.4301 19.5895 27.4381 19.6156 27.4508 19.6722C27.4769 19.788 27.5032 19.9415 27.5385 20.1505L29.5105 19.8172ZM29.6626 21.0273C29.8119 21.0744 29.8644 21.1619 29.8482 21.1386C29.8312 21.1141 29.7918 21.0426 29.7437 20.8985C29.6461 20.6055 29.58 20.2285 29.5105 19.8172L27.5385 20.1506C27.6018 20.525 27.6905 21.0634 27.8464 21.5309C27.9251 21.7671 28.0371 22.0371 28.2059 22.2799C28.3754 22.5239 28.648 22.8045 29.0613 22.9347L29.6626 21.0273ZM21.5233 23.7143C24.1848 23.7143 26.8872 23.4622 29.5461 22.9639L29.1777 20.9981C26.6387 21.4739 24.0597 21.7143 21.5233 21.7143V23.7143ZM13.3265 22.9362C16.0427 23.451 18.803 23.7143 21.5233 23.7143V21.7143C18.9309 21.7143 16.2953 21.4633 13.699 20.9711L13.3265 22.9362ZM12.5772 20.0741C12.5446 20.5937 12.5234 21.2403 12.5128 21.9386L14.5126 21.9688C14.5229 21.288 14.5434 20.6758 14.5733 20.1994L12.5772 20.0741ZM17.3327 20.793C17.4713 20.6014 17.613 20.6925 17.3149 20.6746C17.0616 20.6594 16.6957 20.5698 16.2572 20.4075C15.3822 20.0837 14.4992 19.5785 14.1732 19.3353L12.9772 20.9383C13.4756 21.3101 14.5323 21.9017 15.5631 22.2832C16.0775 22.4735 16.656 22.6386 17.1949 22.671C17.6889 22.7007 18.4706 22.6324 18.9533 21.9651L17.3327 20.793ZM18.9482 20.5554C18.8765 20.5518 18.7057 20.5148 18.4673 20.4331L17.8187 22.325C18.0908 22.4183 18.4824 22.5346 18.8483 22.5529L18.9482 20.5554ZM19.048 20.5634L18.9855 20.5579L18.811 22.5503L18.8735 22.5558L19.048 20.5634ZM18.7778 20.6527C18.7967 20.6286 18.8264 20.6025 18.8658 20.5835C18.9051 20.5645 18.9397 20.5596 18.9607 20.5596V22.5596C19.5069 22.5596 20.0129 22.3189 20.352 21.8864L18.7778 20.6527ZM18.7746 20.6544C18.7743 20.655 18.7706 20.6618 18.7612 20.6746L20.3687 21.8645C20.4321 21.7788 20.4909 21.6871 20.5427 21.5892L18.7746 20.6544ZM19.3788 20.2276C19.4125 20.2865 19.4111 20.3117 19.4107 20.3029C19.4102 20.2942 19.4119 20.2698 19.4274 20.2392C19.4565 20.1817 19.5248 20.1263 19.619 20.1226L19.6983 22.121C20.3564 22.0949 20.9262 21.7073 21.2122 21.1417C21.5093 20.5541 21.4696 19.8557 21.1156 19.2358L19.3788 20.2276ZM17.7057 18.0591C18.077 18.2674 18.5849 18.6126 18.9447 18.9803C19.1253 19.1648 19.2271 19.3133 19.2721 19.4128C19.3126 19.5023 19.2767 19.4784 19.3023 19.4045L21.1921 20.059C21.3818 19.5112 21.2765 18.9912 21.0943 18.5885C20.9167 18.1957 20.6425 17.8556 20.3741 17.5814C19.836 17.0316 19.1537 16.5783 18.6845 16.3149L17.7057 18.0591ZM16.1449 15.815C16.5721 16.1217 16.9219 16.3797 17.1401 16.6352C17.2422 16.7547 17.2682 16.8216 17.2727 16.8369C17.2737 16.8406 17.271 16.8321 17.2718 16.8162C17.2727 16.7995 17.2765 16.7917 17.2743 16.797L19.1159 17.577C19.5167 16.6308 19.0775 15.824 18.6609 15.3362C18.2545 14.8606 17.6871 14.4601 17.3113 14.1903L16.1449 15.815ZM16.0542 15.7498L16.1445 15.8147L17.3116 14.1906L17.2213 14.1257L16.0542 15.7498ZM15.8029 15.5672C15.8688 15.6173 15.9626 15.6888 16.0797 15.7675L17.1959 14.108C17.1318 14.0649 17.0791 14.0251 17.0127 13.9746L15.8029 15.5672ZM15.7899 15.5572L15.79 15.5572L17.0256 13.9846L17.0256 13.9846L15.7899 15.5572ZM15.7938 15.5602L15.7938 15.5602L17.0217 13.9815L17.0217 13.9815L15.7938 15.5602ZM15.5999 15.4556C15.6379 15.4627 15.6579 15.4687 15.666 15.4715C15.673 15.4738 15.6746 15.4748 15.6749 15.4749C15.6762 15.4756 15.6838 15.4797 15.7034 15.4933C15.7266 15.5095 15.7528 15.5292 15.8028 15.5672L17.0127 13.9746C16.9301 13.9119 16.7864 13.7999 16.607 13.7054C16.4116 13.6025 16.2045 13.5339 15.9673 13.4896L15.5999 15.4556ZM15.7992 9C14.8834 9.40157 14.8832 9.40123 14.8831 9.4009C14.8831 9.4008 14.8829 9.40048 14.8828 9.40028C14.8827 9.39989 14.8825 9.39953 14.8824 9.39922C14.8821 9.39858 14.8819 9.3981 14.8817 9.39777C14.8815 9.3971 14.8814 9.39704 14.8816 9.39756C14.8821 9.39861 14.8835 9.40202 14.8859 9.40772C14.8905 9.41913 14.8987 9.43966 14.9097 9.46878C14.9316 9.52709 14.9645 9.6194 15.0019 9.74141C15.077 9.98611 15.1694 10.3461 15.2306 10.7878C15.3532 11.6739 15.3468 12.8591 14.8538 14.1046L16.7134 14.8406C17.3663 13.1911 17.3676 11.6399 17.2117 10.5135C17.1335 9.94896 17.0149 9.48362 16.9139 9.15456C16.8633 8.98969 16.8168 8.858 16.7814 8.76404C16.7637 8.71702 16.7488 8.67935 16.7374 8.65159C16.7317 8.6377 16.727 8.62629 16.7232 8.6174C16.7213 8.61296 16.7197 8.60916 16.7183 8.60599C16.7177 8.60441 16.717 8.60299 16.7165 8.60172C16.7162 8.60109 16.716 8.6005 16.7157 8.59995C16.7156 8.59968 16.7154 8.5993 16.7154 8.59916C16.7152 8.59879 16.715 8.59843 15.7992 9ZM27.2473 8H15.7992V10H27.2473V8ZM28.0941 13.8467C27.6835 12.6514 27.7023 11.5292 27.829 10.6957C27.8922 10.2804 27.9812 9.94387 28.0523 9.71606C28.0878 9.60245 28.1186 9.5168 28.139 9.46296C28.1492 9.43606 28.1568 9.41719 28.161 9.40684C28.1631 9.40166 28.1644 9.39862 28.1648 9.39778C28.165 9.39736 28.1649 9.39748 28.1646 9.39817C28.1645 9.39851 28.1643 9.399 28.164 9.39962C28.1639 9.39993 28.1637 9.40028 28.1635 9.40066C28.1635 9.40085 28.1633 9.40117 28.1633 9.40126C28.1631 9.40158 28.163 9.40191 27.2473 9C26.3316 8.59809 26.3315 8.59844 26.3313 8.59879C26.3313 8.59893 26.3311 8.59929 26.331 8.59956C26.3308 8.60009 26.3305 8.60065 26.3302 8.60125C26.3297 8.60246 26.3291 8.60382 26.3285 8.60532C26.3272 8.60834 26.3256 8.61195 26.3239 8.61614C26.3203 8.62454 26.3158 8.6353 26.3104 8.64836C26.2997 8.67447 26.2856 8.70981 26.2689 8.75387C26.2355 8.84195 26.1916 8.96525 26.1433 9.11971C26.047 9.42804 25.9325 9.86414 25.8518 10.395C25.6908 11.4536 25.6601 12.9172 26.2026 14.4965L28.0941 13.8467ZM28.4054 16.7294C27.9522 15.4739 27.8496 15.0255 28.0515 14.6009L26.2452 13.7423C25.618 15.0618 26.1535 16.3815 26.5241 17.4084L28.4054 16.7294ZM28.4223 16.7764L28.4054 16.7295L26.5241 17.4083L26.541 17.4553L28.4223 16.7764ZM28.6836 17.5643C28.6165 17.3477 28.5347 17.0834 28.4207 16.7721L26.5426 17.4596C26.6375 17.7187 26.7062 17.9398 26.7733 18.1565L28.6836 17.5643ZM28.6847 17.5678L28.6847 17.5677L26.7723 18.1531L26.7723 18.1532L28.6847 17.5678ZM28.6933 17.5974L28.6933 17.5974L26.7638 18.1236L26.7638 18.1236L28.6933 17.5974ZM21.2933 19.5921L21.2725 19.5757L20.0347 21.1466L20.0555 21.163L21.2933 19.5921ZM21.2775 19.541L21.0432 19.4481L20.3057 21.3071L20.54 21.4001L21.2775 19.541ZM21.3883 21.4164C21.4274 21.3792 21.4882 21.3205 21.5434 21.2639C21.5698 21.237 21.6049 21.2002 21.6385 21.1615C21.6544 21.1432 21.681 21.1118 21.7092 21.073C21.7101 21.0718 21.8152 20.9382 21.8703 20.7452L19.9472 20.196C19.9655 20.1319 19.9869 20.0818 20.0016 20.0503C20.0171 20.0172 20.0317 19.9906 20.0426 19.972C20.0636 19.936 20.0823 19.9096 20.092 19.8963C20.1114 19.8696 20.126 19.8529 20.1275 19.8512C20.1322 19.8458 20.1288 19.8499 20.1126 19.8666C20.0826 19.8973 20.0422 19.9365 20.0094 19.9676L21.3883 21.4164ZM20.0174 19.9601C19.9987 19.9775 19.985 19.9904 19.9756 19.9992C19.9716 20.003 19.966 20.0083 19.9606 20.0135C19.9591 20.0149 19.9565 20.0175 19.9532 20.0206C19.9531 20.0208 19.9417 20.0318 19.9284 20.0458C19.9245 20.0499 19.9161 20.0587 19.9058 20.0703C19.9046 20.0716 19.8685 20.1112 19.8306 20.1659C19.8191 20.1824 19.7983 20.2135 19.7757 20.2546C19.7607 20.282 19.7073 20.3798 19.6766 20.5176C19.6591 20.5958 19.5533 21.1172 20.0084 21.5004C20.3997 21.8298 20.8358 21.7193 20.8725 21.711C20.9854 21.6855 21.0672 21.6459 21.0941 21.6327C21.1311 21.6145 21.1595 21.5976 21.1754 21.5879C21.2072 21.5684 21.231 21.5513 21.2408 21.5441C21.2626 21.5283 21.2789 21.5151 21.284 21.5109C21.2913 21.5049 21.2971 21.5001 21.3004 21.4972C21.3071 21.4915 21.3123 21.487 21.3146 21.4849L19.9911 19.9855C19.9933 19.9836 19.9984 19.9791 20.0049 19.9735C20.0082 19.9707 20.014 19.9659 20.0212 19.9599C20.0263 19.9558 20.0426 19.9426 20.0643 19.9268C20.0741 19.9196 20.0979 19.9025 20.1297 19.883C20.1456 19.8733 20.174 19.8565 20.211 19.8382C20.2379 19.825 20.3197 19.7854 20.4326 19.76C20.4693 19.7517 20.9054 19.6411 21.2966 19.9705C21.7517 20.3537 21.646 20.8751 21.6285 20.9533C21.5977 21.0912 21.5444 21.1889 21.5294 21.2163C21.5068 21.2574 21.4859 21.2885 21.4745 21.305C21.4366 21.3597 21.4005 21.3992 21.3993 21.4005C21.389 21.4121 21.3807 21.4209 21.3768 21.425C21.3686 21.4336 21.3621 21.4402 21.3598 21.4424C21.3568 21.4455 21.3543 21.4479 21.3529 21.4492C21.3501 21.452 21.3479 21.4541 21.3472 21.4548C21.3445 21.4573 21.3438 21.458 21.3471 21.4549C21.3525 21.4498 21.363 21.4399 21.3803 21.4238L20.0174 19.9601ZM21.3143 21.4852C21.3288 21.4724 21.345 21.4572 21.3465 21.4558L19.981 19.9945C19.98 19.9954 19.9792 19.9962 19.9786 19.9967C19.978 19.9973 19.9777 19.9975 19.9777 19.9975C19.9777 19.9975 19.9779 19.9974 19.9782 19.9971C19.9784 19.9969 19.9789 19.9965 19.9796 19.9958C19.9802 19.9953 19.9814 19.9942 19.9829 19.9928C19.9841 19.9917 19.9873 19.9888 19.9915 19.9852L21.3143 21.4852ZM21.3466 21.4557C21.3571 21.4458 21.3716 21.4323 21.3882 21.4164L20.0095 19.9676C19.9968 19.9797 19.9868 19.9891 19.9809 19.9945L21.3466 21.4557ZM20.2736 19.7235C20.1441 19.8426 20.0635 19.9172 20.0174 19.9601L21.3803 21.4239C21.4223 21.3847 21.4996 21.3131 21.6273 21.1957L20.2736 19.7235ZM20.2907 21.2527C20.3168 21.2652 20.387 21.2987 20.4444 21.3261C20.473 21.3398 20.4983 21.3519 20.5131 21.3589C20.5168 21.3607 20.5198 21.3621 20.522 21.3632C20.5245 21.3644 20.5254 21.3648 20.5254 21.3648C20.5253 21.3648 20.5251 21.3647 20.5248 21.3645C20.5247 21.3644 20.5237 21.364 20.5224 21.3634C20.5221 21.3632 20.5199 21.3622 20.5172 21.3608C20.5153 21.3599 20.5095 21.357 20.5054 21.3549C20.4904 21.3471 20.0377 20.0726 21.2528 19.5077C21.3067 19.526 21.366 19.5503 21.3725 19.5532C21.3751 19.5543 21.379 19.5561 21.3803 19.5568C21.3825 19.5578 21.3842 19.5586 21.3845 19.5588C21.3867 19.5598 21.3886 19.5607 21.3871 19.56C21.3862 19.5595 21.3843 19.5586 21.381 19.5571L20.5199 21.3622C20.5232 21.3637 20.5256 21.3649 20.5272 21.3656C20.5275 21.3658 20.528 21.3661 20.5285 21.3663C20.5287 21.3664 20.5291 21.3666 20.5295 21.3668C20.5297 21.3669 20.5307 21.3673 20.5319 21.3679C20.5322 21.3681 20.534 21.3689 20.5362 21.3699C20.5375 21.3705 20.5414 21.3723 20.544 21.3735C20.5505 21.3764 20.6098 21.4007 20.6637 21.419C21.8788 20.854 21.4261 19.5795 21.411 19.5717C21.407 19.5697 21.4012 19.5668 21.3993 19.5659C21.3965 19.5645 21.3943 19.5634 21.394 19.5633C21.3927 19.5626 21.3916 19.5621 21.3914 19.562C21.391 19.5618 21.3906 19.5616 21.3904 19.5615C21.3882 19.5605 21.3824 19.5577 21.3754 19.5544C21.3604 19.5472 21.335 19.5351 21.3063 19.5214C21.2491 19.494 21.1784 19.4603 21.1518 19.4476L20.2907 21.2527ZM20.3743 19.2987L20.0306 19.627L21.412 21.0733L21.7558 20.7449L20.3743 19.2987ZM20.6102 19.1311L20.5998 19.1366L21.5302 20.907L21.5407 20.9015L20.6102 19.1311ZM21.1484 19.0805C21.1484 19.0813 21.1485 19.0776 21.1509 19.0725C21.1528 19.0685 21.1558 19.064 21.1614 19.0592C21.1668 19.0545 21.1788 19.046 21.2 19.0401C21.2228 19.0336 21.2519 19.0316 21.2813 19.0378L20.8696 20.9949C22.0943 21.2526 23.1484 20.2506 23.1484 19.0805H21.1484ZM21.2421 19.1338C21.1948 19.1338 21.167 19.1126 21.1592 19.1045C21.1515 19.0964 21.1484 19.0875 21.1484 19.0805H23.1484C23.1484 18.0479 22.3279 17.1338 21.2421 17.1338V19.1338ZM21.3181 19.0531C21.3176 19.0527 21.3228 19.0567 21.329 19.0656C21.3349 19.074 21.3383 19.0821 21.34 19.0877C21.3426 19.0964 21.3398 19.0933 21.3427 19.0833C21.3457 19.073 21.3466 19.0824 21.3257 19.0998C21.3143 19.1092 21.2986 19.1189 21.2799 19.1257C21.2607 19.1327 21.2466 19.1338 21.2421 19.1338V17.1338C20.2756 17.1338 19.6322 17.8098 19.4237 18.5199C19.2165 19.2257 19.3864 20.1237 20.1453 20.6731L21.3181 19.0531ZM21.5656 20.4153L21.5761 20.3989L19.8873 19.3273L19.8769 19.3438L21.5656 20.4153ZM21.3077 19.058C21.2691 19.0378 21.2311 19.0178 21.2066 19.0049C21.1944 18.9985 21.1856 18.9939 21.1818 18.9919C21.1813 18.9916 21.181 18.9914 21.1807 18.9913C21.1804 18.9911 21.1803 18.9911 21.1804 18.9911C21.1804 18.9911 21.1805 18.9912 21.1805 18.9912C21.1806 18.9912 21.1808 18.9913 21.1811 18.9915C21.1811 18.9915 21.182 18.992 21.1832 18.9926C21.1836 18.9928 21.1845 18.9933 21.1851 18.9936C21.186 18.9941 21.1888 18.9956 21.1907 18.9966C21.1962 18.9996 21.4863 19.2403 21.6648 19.5654C21.3695 20.6311 20.2667 20.7701 20.2606 20.767C20.2587 20.766 20.2557 20.7645 20.2547 20.764C20.2542 20.7637 20.2532 20.7632 20.2528 20.763C20.2521 20.7626 20.2515 20.7623 20.2513 20.7622C20.2508 20.7619 20.2504 20.7617 20.2503 20.7617C20.2501 20.7616 20.25 20.7616 20.25 20.7615C20.2499 20.7615 20.2499 20.7615 20.2499 20.7615C20.2499 20.7615 20.2499 20.7615 20.25 20.7616C20.2501 20.7616 20.2503 20.7617 20.2504 20.7618C20.2507 20.7619 20.2512 20.7622 20.2517 20.7624C20.2528 20.763 20.2543 20.7638 20.2562 20.7648L21.1864 18.9943C21.1826 18.9923 21.1801 18.991 21.179 18.9904C21.1788 18.9903 21.1785 18.9901 21.1782 18.99C21.178 18.9899 21.1776 18.9897 21.1771 18.9894C21.1769 18.9893 21.1763 18.989 21.1755 18.9886C21.1751 18.9884 21.1742 18.9879 21.1736 18.9876C21.1726 18.9871 21.1696 18.9855 21.1677 18.9845C21.1616 18.9815 20.0588 19.1205 19.7636 20.1862C19.942 20.5112 20.2321 20.7519 20.2376 20.7549C20.2395 20.7559 20.2423 20.7575 20.2432 20.758C20.2438 20.7583 20.2447 20.7588 20.2451 20.759C20.2463 20.7596 20.2473 20.7601 20.2473 20.7601C20.2478 20.7604 20.2483 20.7606 20.2484 20.7607C20.249 20.761 20.25 20.7615 20.2509 20.762C20.2549 20.7641 20.2638 20.7688 20.2761 20.7752C20.3006 20.7881 20.3386 20.8081 20.3772 20.8284L21.3077 19.058ZM21.4363 19.1256C21.4151 19.1145 21.361 19.086 21.3077 19.058L20.3772 20.8284C20.4304 20.8564 20.4848 20.885 20.5063 20.8962L21.4363 19.1256ZM21.6966 20.6997C21.7061 20.6893 21.7127 20.682 21.7155 20.6789C21.7163 20.678 21.7166 20.6776 21.7168 20.6775C21.7168 20.6774 21.7167 20.6775 21.7166 20.6777C21.7166 20.6777 21.7165 20.6778 21.7164 20.6779C21.7163 20.678 21.7161 20.6783 21.7158 20.6786C21.7156 20.6787 21.7153 20.6791 21.7148 20.6797C21.7145 20.6799 21.7139 20.6806 21.7135 20.681C21.7129 20.6817 21.7109 20.6839 21.7095 20.6853C21.7049 20.6903 20.3421 20.7781 20.1586 19.4298C20.1902 19.3873 20.2268 19.3434 20.2295 19.3403C20.2305 19.3392 20.232 19.3375 20.2326 19.3369C20.2329 19.3366 20.2334 19.336 20.2336 19.3357C20.235 19.3342 20.2365 19.3325 20.2355 19.3337C20.235 19.3342 20.2334 19.3359 20.2306 19.3391L21.712 20.6828C21.7147 20.6797 21.7165 20.6778 21.7171 20.6771C21.7172 20.677 21.7173 20.6768 21.7175 20.6767C21.7175 20.6767 21.7176 20.6765 21.7178 20.6764C21.7178 20.6763 21.718 20.6761 21.7181 20.676C21.7182 20.6759 21.7187 20.6753 21.7194 20.6746C21.7196 20.6743 21.7202 20.6737 21.7205 20.6734C21.721 20.6728 21.7225 20.6711 21.7235 20.6699C21.7263 20.6669 21.7628 20.623 21.7944 20.5805C21.611 19.2322 20.2481 19.32 20.2435 19.3249C20.2422 19.3264 20.2402 19.3286 20.2395 19.3293C20.2391 19.3297 20.2385 19.3304 20.2383 19.3306C20.2378 19.3311 20.2374 19.3315 20.2373 19.3317C20.237 19.332 20.2367 19.3323 20.2366 19.3324C20.2365 19.3325 20.2364 19.3326 20.2364 19.3327C20.2362 19.3329 20.236 19.3331 20.236 19.3331C20.2356 19.3335 20.2351 19.3341 20.2344 19.3349C20.2315 19.3381 20.2248 19.3455 20.2153 19.3559L21.6966 20.6997ZM21.5824 20.8256L21.6966 20.6997L20.2153 19.356L20.1011 19.4818L21.5824 20.8256ZM21.3942 21.033L21.5824 20.8256L20.1011 19.4818L19.9129 19.6893L21.3942 21.033ZM21.2965 19.4845L21.2876 19.4864L21.6978 21.4439L21.7067 21.442L21.2965 19.4845ZM21.6075 19.4216C21.5083 19.44 21.3679 19.4695 21.2963 19.4845L21.7069 21.4419C21.7866 21.4252 21.901 21.4013 21.9721 21.3881L21.6075 19.4216ZM22.7474 20.7104L22.7682 20.6118L20.8115 20.1979L20.7906 20.2965L22.7474 20.7104ZM21.8248 21.507C21.8498 21.5035 21.9014 21.4963 21.9566 21.4857L21.5813 19.5212C21.5818 19.5211 21.5795 19.5216 21.5726 19.5227C21.565 19.5238 21.5564 19.5251 21.5411 19.5273L21.8248 21.507ZM21.8069 21.5094L21.807 21.5094L21.5589 19.5249L21.5589 19.5249L21.8069 21.5094ZM21.8998 21.4934L21.8998 21.4934L21.466 19.541L21.466 19.541L21.8998 21.4934ZM21.8998 21.4934L21.8998 21.4934L21.466 19.541L21.4659 19.541L21.8998 21.4934ZM21.7933 21.5111L21.7933 21.5111L21.5724 19.5233L21.5724 19.5233L21.7933 21.5111ZM21.7847 21.5131C21.7841 21.5132 21.7864 21.5127 21.7933 21.5117C21.8009 21.5105 21.8094 21.5093 21.8247 21.5071L21.541 19.5273C21.5161 19.5309 21.4645 19.5381 21.4093 19.5486L21.7847 21.5131ZM22.5833 20.735L22.5934 20.6146L20.6005 20.4471L20.5903 20.5675L22.5833 20.735ZM22.582 20.7513L22.5833 20.7351L20.5904 20.5674L20.589 20.5837L22.582 20.7513ZM22.5817 20.7539L22.5819 20.7525L20.5891 20.5825L20.589 20.5839L22.5817 20.7539ZM22.5812 20.7606L22.5818 20.7527L20.5889 20.5852L20.5882 20.5931L22.5812 20.7606ZM20.5849 20.6327C20.5842 20.6406 20.5842 20.6409 20.5843 20.6391C20.5844 20.6387 20.5844 20.6381 20.5845 20.6374C20.5845 20.6369 20.5847 20.6352 20.5849 20.6331C20.585 20.6321 20.5852 20.6298 20.5855 20.6268C20.5857 20.6253 20.586 20.6217 20.5863 20.6195C20.5867 20.616 20.5878 20.6062 20.5886 20.5999C20.5907 20.5846 20.6112 20.4812 20.6372 20.3951C21.7052 19.7349 22.5799 20.6924 22.5803 20.746C22.58 20.7585 22.5792 20.7766 22.5789 20.7822C22.5788 20.7853 22.5785 20.7905 22.5783 20.7925C22.5781 20.7963 22.5779 20.7992 22.5778 20.8002C22.5777 20.8016 22.5776 20.8028 22.5775 20.8034C22.5774 20.8047 22.5774 20.8058 22.5773 20.8062C22.5773 20.8072 22.5772 20.8079 22.5772 20.8082C22.5771 20.809 22.5771 20.8095 22.5771 20.8089C22.5772 20.8082 22.5773 20.8069 22.5774 20.8049C22.5781 20.7969 22.5795 20.7807 22.5812 20.7606L20.5882 20.593C20.5865 20.613 20.5851 20.6295 20.5844 20.6378C20.5843 20.6399 20.5841 20.6417 20.584 20.6429C20.584 20.6434 20.5839 20.6445 20.5838 20.6457C20.5838 20.646 20.5837 20.6468 20.5836 20.6478C20.5836 20.6483 20.5835 20.6494 20.5834 20.6507C20.5833 20.6514 20.5832 20.6525 20.5831 20.6539C20.5831 20.655 20.5829 20.6579 20.5826 20.6617C20.5825 20.6637 20.5822 20.6688 20.582 20.672C20.5817 20.6775 20.581 20.6956 20.5806 20.7081C20.5811 20.7618 21.4557 21.7193 22.5237 21.0591C22.5498 20.973 22.5703 20.8696 22.5723 20.8543C22.5731 20.8479 22.5743 20.8381 22.5747 20.8347C22.5749 20.8325 22.5753 20.8288 22.5754 20.8273C22.5757 20.8244 22.5759 20.822 22.576 20.8211C22.5762 20.8189 22.5764 20.8172 22.5764 20.8167C22.5765 20.8159 22.5766 20.8153 22.5766 20.8149C22.5769 20.8121 22.5774 20.8061 22.5777 20.8015L20.5849 20.6327ZM20.9711 19.8087C20.9694 19.809 20.9684 19.8092 20.9678 19.8093C20.9674 19.8094 20.9675 19.8094 20.9677 19.8093C20.9678 19.8093 20.968 19.8093 20.9683 19.8092C20.9685 19.8092 20.969 19.8091 20.9693 19.8091C20.9698 19.809 20.9717 19.8087 20.9729 19.8084C20.9793 19.8074 22.1241 20.6222 21.3304 21.7761C21.3241 21.7773 21.3166 21.7787 21.3154 21.7789C21.3148 21.779 21.314 21.7791 21.3137 21.7792C21.3135 21.7792 21.3132 21.7793 21.3131 21.7793C21.3125 21.7794 21.3135 21.7792 21.3177 21.7785C21.3247 21.7772 21.3377 21.775 21.3549 21.772C21.3894 21.7659 21.4409 21.7569 21.4956 21.7473C21.6052 21.7281 21.7276 21.7067 21.7536 21.7021L21.409 19.7321C21.3827 19.7366 21.2601 19.7581 21.1506 19.7773C21.0959 19.7869 21.0444 19.7959 21.0099 19.8019C20.9926 19.805 20.9796 19.8073 20.9724 19.8085C20.9695 19.809 20.9664 19.8096 20.9652 19.8098C20.965 19.8098 20.9647 19.8099 20.9645 19.8099C20.9642 19.81 20.9633 19.8101 20.9628 19.8102C20.9615 19.8104 20.954 19.8118 20.9478 19.813C20.154 20.9669 21.2988 21.7817 21.3052 21.7806C21.3065 21.7804 21.3083 21.7801 21.3089 21.78C21.3092 21.78 21.3097 21.7799 21.3099 21.7798C21.3102 21.7798 21.3105 21.7797 21.3107 21.7797C21.3112 21.7796 21.3117 21.7795 21.312 21.7795C21.3128 21.7793 21.3141 21.7791 21.3157 21.7788L20.9711 19.8087ZM22.0562 21.2479L22.1084 21.0562L20.1784 20.5314L20.1263 20.7231L22.0562 21.2479ZM21.0808 21.9855H21.0913V19.9855H21.0808V21.9855ZM21.0864 22.0295L21.3731 21.9418L20.7885 20.0292L20.5018 20.1168L21.0864 22.0295ZM20.7234 20.0348L20.4523 20.1334L21.1359 22.0129L21.407 21.9143L20.7234 20.0348ZM20.1082 20.6194L20.0769 20.822L22.0535 21.1271L22.0848 20.9244L20.1082 20.6194ZM20.1988 20.3311L20.1935 20.3421L21.9994 21.2016L22.0046 21.1907L20.1988 20.3311ZM21.727 21.6412C21.7287 21.6408 21.73 21.6405 21.731 21.6403C21.7314 21.6402 21.7319 21.64 21.7325 21.6399C21.7326 21.6399 21.7333 21.6397 21.7342 21.6395C21.7343 21.6395 21.7359 21.6391 21.738 21.6386C21.7397 21.6382 21.7466 21.6365 21.7518 21.6352C22.5025 20.6548 21.5108 19.6667 21.2927 19.689C21.288 19.69 21.2818 19.6914 21.2802 19.6917C21.2794 19.6919 21.2781 19.6922 21.2777 19.6923C21.2768 19.6925 21.2761 19.6927 21.2759 19.6927C21.2753 19.6929 21.2748 19.693 21.2746 19.693C21.2741 19.6931 21.2736 19.6933 21.2732 19.6934C21.2722 19.6936 21.271 19.6939 21.2695 19.6942C21.2634 19.6957 21.2519 19.6984 21.2366 19.702C21.2059 19.7092 21.1596 19.72 21.1101 19.7317C21.0111 19.7549 20.8988 19.7813 20.8726 19.7875L21.3308 21.7343C21.3567 21.7282 21.4685 21.7019 21.5677 21.6786C21.6172 21.667 21.6634 21.6561 21.694 21.6489C21.7094 21.6453 21.7207 21.6427 21.7265 21.6413C21.7411 21.6379 21.7249 21.6417 21.7126 21.6444C21.4944 21.6667 20.5027 20.6786 21.2535 19.6982C21.2586 19.6969 21.2655 19.6952 21.2672 19.6948C21.2692 19.6943 21.2709 19.6939 21.2709 19.6939C21.2714 19.6938 21.2717 19.6937 21.2719 19.6937C21.272 19.6936 21.2722 19.6936 21.2722 19.6936C21.2724 19.6935 21.2724 19.6935 21.272 19.6936C21.2714 19.6938 21.2704 19.694 21.2688 19.6944L21.727 21.6412ZM22.4924 20.4395C22.4923 20.436 22.4922 20.4336 22.4922 20.4321C22.4922 20.4314 22.4921 20.4309 22.4921 20.4307C22.4921 20.4305 22.4921 20.4306 22.4921 20.4307C22.4921 20.4308 22.4921 20.431 22.4921 20.4313C22.4922 20.4315 22.4922 20.4321 22.4922 20.4324C22.4922 20.4335 22.4924 20.4547 22.4923 20.4749C21.4985 21.4558 20.4929 20.4856 20.4928 20.4841C20.4928 20.4837 20.4928 20.483 20.4928 20.4828C20.4928 20.4824 20.4928 20.4822 20.4928 20.4822C20.4928 20.482 20.4928 20.4826 20.4929 20.4845C20.4929 20.4862 20.493 20.4886 20.493 20.4917C20.4934 20.5038 20.4939 20.5257 20.4946 20.551C20.4959 20.6017 20.4975 20.6661 20.4982 20.6935L22.4976 20.6421C22.4969 20.6147 22.4952 20.5503 22.4939 20.4996C22.4933 20.4743 22.4927 20.4524 22.4924 20.4402C22.4922 20.4344 22.4921 20.4303 22.4921 20.4295C22.4921 20.4295 22.4921 20.4292 22.4921 20.4288C22.4921 20.4286 22.4921 20.4279 22.492 20.4275C22.492 20.426 21.4864 19.4558 20.4926 20.4367C20.4924 20.4569 20.4927 20.4781 20.4927 20.4792C20.4927 20.4795 20.4927 20.4801 20.4927 20.4803C20.4928 20.4806 20.4928 20.4809 20.4928 20.4809C20.4928 20.4812 20.4928 20.4815 20.4928 20.4817C20.4928 20.482 20.4928 20.4826 20.4928 20.4834C20.4929 20.4849 20.4929 20.4874 20.493 20.4908L22.4924 20.4395ZM21.4405 21.0718L21.3102 21.0553L21.06 23.0396L21.1903 23.0561L21.4405 21.0718ZM20.3464 21.792C20.3405 21.8284 20.3349 21.8633 20.3312 21.8857C20.3294 21.897 20.3281 21.9048 20.3276 21.908C20.3275 21.9091 20.3275 21.9089 20.3276 21.9084C20.3276 21.9083 20.3277 21.9074 20.3279 21.9061C20.328 21.9057 20.3281 21.905 20.3283 21.9042C20.3284 21.9036 20.3287 21.9019 20.329 21.8996C20.3292 21.8985 20.3298 21.8954 20.3301 21.8935C20.3307 21.8902 20.3327 21.8795 20.3342 21.872C20.3414 21.8395 21.4529 21.08 22.3143 22.082C22.3123 22.1344 22.3065 22.1956 22.3053 22.2046C22.3048 22.2084 22.304 22.2142 22.3037 22.2162C22.3035 22.2175 22.3032 22.2197 22.303 22.2205C22.3028 22.2223 22.3025 22.2236 22.3025 22.2242C22.3023 22.2255 22.3021 22.2264 22.3021 22.2267C22.3019 22.2275 22.3019 22.228 22.3018 22.2281C22.3018 22.2283 22.302 22.2271 22.3026 22.2233L20.3282 21.9046C20.3277 21.9077 20.3272 21.9106 20.327 21.9122C20.3269 21.9124 20.3268 21.9131 20.3267 21.9139C20.3266 21.9142 20.3265 21.9152 20.3263 21.9165C20.3262 21.9171 20.326 21.9185 20.3257 21.9202C20.3256 21.9211 20.3252 21.9233 20.325 21.9246C20.3247 21.9266 20.3239 21.9324 20.3234 21.9361C20.3222 21.9452 20.3164 22.0064 20.3144 22.0588C21.1758 23.0607 22.2873 22.3013 22.2945 22.2688C22.296 22.2613 22.298 22.2505 22.2986 22.2472C22.2989 22.2454 22.2995 22.2423 22.2997 22.2411C22.3001 22.2389 22.3004 22.2371 22.3005 22.2365C22.3006 22.2357 22.3007 22.235 22.3008 22.2346C22.301 22.2333 22.3012 22.2322 22.3012 22.232C22.3014 22.2309 22.3016 22.2296 22.3017 22.2288C22.3023 22.225 22.3037 22.2167 22.3055 22.2056C22.3091 22.1831 22.3148 22.1481 22.3207 22.1117L20.3464 21.792ZM20.352 21.7577L20.3464 21.792L22.3207 22.1117L22.3263 22.0774L20.352 21.7577ZM20.3544 21.7425L20.352 21.7578L22.3263 22.0773L22.3287 22.062L20.3544 21.7425ZM20.362 21.6958L20.3544 21.7424L22.3287 22.0621L22.3363 22.0155L20.362 21.6958ZM20.37 21.6465L20.362 21.6957L22.3363 22.0155L22.3442 21.9664L20.37 21.6465ZM21.1111 22.7838C21.1492 22.7885 21.1888 22.7933 21.2147 22.7965C21.2276 22.7981 21.237 22.7992 21.2409 22.7997C21.2421 22.7998 21.2423 22.7999 21.2421 22.7998C21.242 22.7998 21.2418 22.7998 21.2416 22.7998C21.2415 22.7998 21.2411 22.7997 21.2406 22.7997C21.2403 22.7996 21.2399 22.7996 21.2393 22.7995C21.2389 22.7994 21.2376 22.7993 21.2361 22.7991C21.2352 22.799 21.2329 22.7987 21.2316 22.7985C21.229 22.7981 21.2202 22.7969 21.214 22.796C21.1752 22.7893 20.3751 21.6652 21.4201 20.8089C21.4405 20.8103 21.4656 20.8125 21.4705 20.813C21.4726 20.8132 21.476 20.8136 21.4772 20.8137C21.478 20.8138 21.4794 20.814 21.4799 20.8141C21.481 20.8142 21.4819 20.8143 21.4822 20.8143C21.483 20.8144 21.4837 20.8145 21.4838 20.8145C21.4843 20.8146 21.4846 20.8146 21.4846 20.8146C21.4846 20.8146 21.4842 20.8146 21.4829 20.8144C21.4818 20.8143 21.4802 20.8141 21.4781 20.8138L21.2361 22.7991C21.2401 22.7996 21.2431 22.8 21.2445 22.8001C21.2447 22.8002 21.2452 22.8002 21.2458 22.8003C21.246 22.8003 21.2467 22.8004 21.2475 22.8005C21.2479 22.8005 21.2488 22.8006 21.2499 22.8008C21.2504 22.8008 21.2518 22.801 21.2526 22.8011C21.2538 22.8012 21.2572 22.8016 21.2593 22.8018C21.2642 22.8023 21.2894 22.8046 21.3098 22.8059C22.3547 21.9496 21.5546 20.8256 21.5158 20.8189C21.5096 20.8179 21.5008 20.8167 21.4983 20.8163C21.4969 20.8162 21.4946 20.8159 21.4937 20.8158C21.4922 20.8155 21.4909 20.8154 21.4905 20.8153C21.4899 20.8153 21.4894 20.8152 21.4892 20.8152C21.4882 20.815 21.4874 20.815 21.4873 20.8149C21.4864 20.8148 21.4852 20.8147 21.4843 20.8146C21.4799 20.814 21.4702 20.8128 21.4573 20.8113C21.4314 20.8081 21.3917 20.8032 21.3536 20.7986L21.1111 22.7838ZM21.0118 22.7717L21.1112 22.7838L21.3535 20.7986L21.2541 20.7864L21.0118 22.7717ZM20.0978 21.6832L20.1499 21.9625L22.116 21.5956L22.0638 21.3163L20.0978 21.6832ZM20.1726 21.9184L20.1778 21.9294L21.9838 21.0701L21.9786 21.0591L20.1726 21.9184ZM21.0652 22.4888H21.0756V20.4888H21.0652V22.4888ZM20.5035 22.3586L20.759 22.4407L21.3714 20.5368L21.1159 20.4546L20.5035 22.3586ZM19.8404 21.1191L19.8195 21.267L21.7999 21.5462L21.8208 21.3983L19.8404 21.1191ZM21.7538 21.6745L21.7955 21.5211L19.8656 20.9963L19.8239 21.1497L21.7538 21.6745ZM21.7889 21.423V21.4121H19.7889V21.423H21.7889ZM20.7993 20.423H20.7889V22.423H20.7993V20.423ZM21.4028 20.5867L21.1682 20.4936L20.4303 22.3525L20.6649 22.4456L21.4028 20.5867ZM22.0567 21.7589L22.0306 21.4357L20.0371 21.5965L20.0632 21.9197L22.0567 21.7589ZM21.3136 20.8697C21.2874 20.8647 21.2634 20.8601 21.2497 20.8575C21.2433 20.8563 21.2383 20.8553 21.2369 20.8551C21.2368 20.855 21.2366 20.855 21.2363 20.8549C21.2362 20.8549 21.2356 20.8548 21.2348 20.8547C21.2346 20.8546 21.2335 20.8544 21.2322 20.8542C21.2314 20.854 21.2292 20.8536 21.2279 20.8534C21.2248 20.8528 21.2093 20.8502 21.1968 20.8483C20.0714 21.6328 20.8155 22.8095 20.843 22.8158C20.8472 22.8166 20.853 22.8178 20.8547 22.8182C20.857 22.8186 20.8588 22.819 20.859 22.819C20.86 22.8192 20.8608 22.8194 20.8609 22.8194C20.8612 22.8194 20.8614 22.8195 20.8615 22.8195C20.8618 22.8196 20.862 22.8196 20.8622 22.8196C20.8627 22.8197 20.8634 22.8199 20.8642 22.82C20.8658 22.8203 20.8685 22.8208 20.8722 22.8215L21.2477 20.8571C21.244 20.8564 21.2415 20.8559 21.24 20.8556C21.2396 20.8556 21.2393 20.8555 21.2391 20.8555C21.2389 20.8554 21.2388 20.8554 21.2388 20.8554C21.2388 20.8554 21.2388 20.8554 21.2389 20.8554C21.2389 20.8554 21.239 20.8555 21.2391 20.8555C21.2392 20.8555 21.2394 20.8555 21.2396 20.8556C21.2397 20.8556 21.2405 20.8557 21.2415 20.8559C21.2416 20.856 21.2435 20.8563 21.2458 20.8568C21.2475 20.8571 21.2533 20.8583 21.2574 20.8592C21.2849 20.8654 22.0291 22.0421 20.9036 22.8267C20.8911 22.8247 20.8756 22.8221 20.8726 22.8216C20.8712 22.8213 20.8691 22.8209 20.8683 22.8208C20.8669 22.8205 20.8659 22.8203 20.8656 22.8203C20.8649 22.8202 20.8643 22.82 20.8642 22.82C20.864 22.82 20.8638 22.8199 20.8637 22.8199C20.8635 22.8199 20.8641 22.82 20.8664 22.8204C20.8684 22.8208 20.8711 22.8213 20.8745 22.822C20.8882 22.8246 20.9121 22.8292 20.9383 22.8342L21.3136 20.8697ZM21.4198 20.89C21.3974 20.8857 21.3529 20.8772 21.3136 20.8697L20.9383 22.8342C20.9776 22.8417 21.0219 22.8501 21.0441 22.8544L21.4198 20.89ZM22.1511 22.3061L22.198 22.1308L20.266 21.6136L20.2191 21.7889L22.1511 22.3061ZM14.7696 29.9236C14.5958 29.0686 14.4113 28.2655 14.5044 22.3995L12.5047 22.3677C12.4112 28.2573 12.5902 29.2425 12.8096 30.322L14.7696 29.9236ZM14.776 29.9584L14.776 29.9584L12.8032 30.2872L12.8032 30.2872L14.776 29.9584ZM14.9348 30.8644C14.8808 30.4702 14.8221 30.1821 14.7696 29.9236L12.8096 30.322C12.8612 30.5756 12.9086 30.8098 12.9532 31.1357L14.9348 30.8644ZM20.7918 30H13.944V32H20.7918V30ZM23.0699 30.4191C22.296 29.3348 20.7285 29.3582 19.9754 30.4224L21.6081 31.5776C21.6048 31.5823 21.5948 31.5932 21.5772 31.6022C21.5609 31.6106 21.5429 31.6149 21.5247 31.615C21.5064 31.6151 21.4874 31.6109 21.4702 31.6021C21.4616 31.5978 21.4546 31.5929 21.4493 31.5884C21.444 31.5838 21.4417 31.5807 21.4419 31.581L23.0699 30.4191ZM29.1047 30H22.2559V32H29.1047V30ZM28.2835 29.8951C28.2329 30.161 28.1756 30.462 28.1163 30.8483L30.0931 31.1518C30.1465 30.8038 30.1979 30.5333 30.2482 30.2689L28.2835 29.8951ZM28.5432 22.4C28.6377 28.1315 28.4879 28.8205 28.2835 29.8951L30.2482 30.2689C30.4929 28.9826 30.6378 28.1227 30.543 22.3671L28.5432 22.4ZM13.3196 23.3663C18.788 24.3957 24.2597 24.3957 29.7281 23.3663L29.3581 21.4008C24.1342 22.3842 18.9135 22.3842 13.6896 21.4008L13.3196 23.3663ZM19.0798 20.5928C19.0929 20.5993 19.1695 20.6385 19.2603 20.6703L19.9214 18.7828C19.9473 18.7918 19.9654 18.7999 19.9721 18.803C19.9756 18.8046 19.9774 18.8054 19.9762 18.8049C19.9747 18.8041 19.9726 18.8031 19.9665 18.8001L19.0798 20.5928ZM19.1246 20.61C19.0989 20.601 19.0808 20.5929 19.0741 20.5899C19.0706 20.5883 19.0689 20.5874 19.0701 20.588C19.0716 20.5887 19.0737 20.5898 19.0798 20.5928L19.9665 18.8001C19.9534 18.7936 19.877 18.7545 19.7864 18.7227L19.1246 20.61ZM18.6005 20.2896C18.7405 20.4369 19.0316 20.6664 19.4555 20.6664V18.6664C19.6271 18.6664 19.7626 18.7159 19.8515 18.7626C19.9405 18.8093 20.0052 18.8644 20.0502 18.9118L18.6005 20.2896ZM16.741 19.3881C17.21 19.6436 17.8746 20.0056 18.8869 20.4994L19.7638 18.7019C18.7918 18.2278 18.1579 17.8825 17.6977 17.6318L16.741 19.3881ZM16.8132 19.4237L16.8132 19.4237L17.6255 17.5961L17.6254 17.5961L16.8132 19.4237ZM16.7404 19.3878L16.7404 19.3878L17.6981 17.632L17.6981 17.632L16.7404 19.3878ZM16.0636 19.0339C16.2177 19.1038 16.4114 19.2086 16.7409 19.3881L17.6976 17.6318C17.3936 17.4662 17.1255 17.3194 16.8891 17.2122L16.0636 19.0339ZM19.8067 18.6914C19.1025 18.2533 17.692 17.4569 16.7761 17.1691L16.1765 19.0771C16.8276 19.2817 18.0494 19.9535 18.7502 20.3896L19.8067 18.6914ZM18.8493 18.3231C18.3864 18.5176 18.2633 18.9344 18.2332 19.0747C18.196 19.2486 18.2072 19.4004 18.2201 19.4942C18.2469 19.6892 18.3187 19.8945 18.4341 20.0762L20.1228 19.0047C20.1652 19.0716 20.1902 19.14 20.2014 19.2215C20.2065 19.2585 20.2177 19.3593 20.1889 19.4937C20.1673 19.5946 20.0611 19.9832 19.6242 20.1669L18.8493 18.3231ZM18.5637 18.5133C18.5414 18.5368 18.629 18.4347 18.7717 18.3597L19.7019 20.1302C19.889 20.0319 20.0071 19.8977 20.0139 19.8906L18.5637 18.5133ZM20.0997 18.3692C19.9721 18.2989 19.7056 18.1564 19.3837 18.155C19.1761 18.1541 18.9747 18.2102 18.7986 18.3194C18.7211 18.3674 18.6635 18.4166 18.6266 18.4508C18.5932 18.4817 18.5655 18.5114 18.5637 18.5133L20.0139 19.8906C20.0409 19.8622 19.9663 19.9486 19.8527 20.0191C19.7046 20.1109 19.5369 20.1557 19.3753 20.155C19.2399 20.1544 19.1477 20.1219 19.1255 20.1138C19.0993 20.1042 19.0987 20.1011 19.1343 20.1208L20.0997 18.3692ZM19.6716 20.6481C20.087 20.5677 20.3423 20.2923 20.4691 20.054C20.5805 19.8446 20.6094 19.6424 20.6194 19.5316C20.6306 19.4076 20.6261 19.2993 20.6208 19.2299C20.618 19.1929 20.6146 19.1614 20.6115 19.1371C20.61 19.1249 20.6085 19.1142 20.6072 19.1054C20.6066 19.1009 20.606 19.0969 20.6054 19.0933C20.6051 19.0915 20.6049 19.0899 20.6046 19.0883C20.6045 19.0875 20.6044 19.0868 20.6043 19.086C20.6042 19.0857 20.6042 19.0853 20.6041 19.085C20.6041 19.0848 20.604 19.0845 20.604 19.0845C20.604 19.0842 20.6039 19.0839 19.617 19.245C18.63 19.406 18.63 19.4058 18.63 19.4055C18.6299 19.4054 18.6299 19.4052 18.6299 19.405C18.6298 19.4047 18.6298 19.4044 18.6297 19.4041C18.6296 19.4034 18.6295 19.4028 18.6294 19.4022C18.6292 19.401 18.6291 19.3999 18.6289 19.3988C18.6286 19.3967 18.6283 19.3949 18.6281 19.3932C18.6276 19.39 18.6273 19.3876 18.6271 19.3859C18.6267 19.3827 18.6265 19.3814 18.6265 19.381C18.6265 19.3808 18.6264 19.3793 18.6264 19.3761C18.6263 19.3733 18.6263 19.3647 18.6276 19.351C18.6285 19.3408 18.6359 19.2415 18.7034 19.1147C18.7409 19.0442 18.8049 18.9503 18.9099 18.8642C19.0196 18.7742 19.1513 18.7117 19.2915 18.6846L19.6716 20.6481ZM20.0008 18.8109C19.996 18.8084 19.9931 18.8069 19.9905 18.8055C19.9881 18.8042 19.9869 18.8036 19.9866 18.8034C19.9858 18.803 19.9898 18.8051 19.9963 18.809L18.9668 20.5237C19.0133 20.5516 19.0564 20.5739 19.0709 20.5816L20.0008 18.8109ZM20.1071 18.8701C20.0596 18.8415 20.0155 18.8186 20.0008 18.8109L19.0709 20.5816C19.0758 20.5841 19.0787 20.5857 19.0813 20.5871C19.0838 20.5883 19.0848 20.5889 19.0851 20.5891C19.0857 20.5894 19.0815 20.5872 19.0746 20.583L20.1071 18.8701ZM19.5909 19.7266C18.884 20.4339 18.8838 20.4337 18.8836 20.4335C18.8836 20.4335 18.8834 20.4333 18.8833 20.4332C18.8831 20.4329 18.8828 20.4327 18.8826 20.4325C18.8821 20.432 18.8817 20.4316 18.8813 20.4312C18.8805 20.4304 18.8798 20.4296 18.8791 20.429C18.8778 20.4276 18.8768 20.4266 18.8762 20.426C18.8749 20.4246 18.8747 20.4244 18.8755 20.4253C18.8772 20.4271 18.8821 20.4325 18.8888 20.4405C18.9044 20.459 18.9179 20.4777 18.9254 20.4903C18.9368 20.5093 18.9153 20.4812 18.901 20.4108C18.8847 20.3307 18.8713 20.1512 18.9802 19.9579L20.7224 20.9401C20.9147 20.599 20.9104 20.2553 20.8609 20.012C20.8133 19.7784 20.7163 19.5882 20.6418 19.4635C20.5634 19.3325 20.4805 19.226 20.4212 19.1552C20.3905 19.1186 20.3633 19.0883 20.3423 19.0657C20.3318 19.0543 20.3226 19.0446 20.3151 19.0369C20.3114 19.033 20.308 19.0296 20.3051 19.0266C20.3037 19.0252 20.3023 19.0238 20.3011 19.0226C20.3005 19.022 20.2999 19.0214 20.2993 19.0208C20.2991 19.0205 20.2988 19.0203 20.2985 19.02C20.2984 19.0199 20.2982 19.0197 20.2981 19.0196C20.298 19.0194 20.2978 19.0192 19.5909 19.7266ZM18.42 19.2203C18.5169 19.318 18.6034 19.4053 18.6804 19.492C18.7606 19.5823 18.8006 19.6389 18.8154 19.6646C18.8418 19.7103 18.7598 19.599 18.7787 19.3902C18.7896 19.2685 18.8334 19.1412 18.9131 19.0305C18.9886 18.9257 19.0704 18.8713 19.1125 18.8484L20.0693 20.6047C20.4234 20.4118 20.7263 20.0611 20.7706 19.5699C20.8068 19.1687 20.6499 18.8421 20.5478 18.6651C20.3407 18.3062 19.9982 17.9712 19.8391 17.811L18.42 19.2203ZM18.2255 19.0198C18.2875 19.0872 18.3604 19.1604 18.42 19.2203L19.8391 17.811C19.7711 17.7426 19.7274 17.6984 19.6959 17.6642L18.2255 19.0198ZM17.3197 18.4744C17.5866 18.6213 17.8045 18.7415 17.9798 18.8495C18.1732 18.9688 18.2266 19.0211 18.2203 19.0142L19.7011 17.6698C19.5026 17.4513 19.237 17.2751 19.0293 17.147C18.8034 17.0078 18.538 16.862 18.2841 16.7223L17.3197 18.4744ZM17.2207 18.412L17.2207 18.4121L18.3832 16.7846L18.3832 16.7846L17.2207 18.412ZM17.3416 18.486L17.3416 18.4861L18.2622 16.7106L18.2622 16.7105L17.3416 18.486ZM17.3313 18.4806L17.3313 18.4806L18.2725 16.7159L18.2724 16.7159L17.3313 18.4806ZM17.3957 18.5121L17.3957 18.5121L18.208 16.6845L18.208 16.6845L17.3957 18.5121ZM17.3161 18.4724L17.3162 18.4724L18.2875 16.7241L18.2874 16.724L17.3161 18.4724ZM17.3185 18.4737L17.3186 18.4738L18.2848 16.7226L18.2846 16.7225L17.3185 18.4737ZM16.5981 18.0684C16.8485 18.2151 17.0974 18.352 17.3193 18.4742L18.2838 16.7221C18.0585 16.5981 17.8327 16.4737 17.609 16.3427L16.5981 18.0684ZM15.7638 16.2089C15.9579 16.3482 16.1738 16.5035 16.3746 16.6653C16.5852 16.8349 16.7262 16.9702 16.7958 17.059C16.8311 17.1039 16.8106 17.0904 16.7879 17.0238C16.7619 16.9473 16.719 16.7496 16.8218 16.5194C16.9219 16.2951 17.0855 16.2087 17.1208 16.1924C17.1517 16.1782 17.125 16.1966 16.9904 16.212L17.2167 18.1991C17.4626 18.1711 17.7215 18.1178 17.958 18.0088C18.1987 17.8978 18.4878 17.6938 18.6481 17.3346C18.811 16.9696 18.763 16.6199 18.6814 16.3798C18.6031 16.1497 18.4765 15.9611 18.3698 15.8251C17.9779 15.325 17.267 14.8259 16.9303 14.5842L15.7638 16.2089ZM15.6399 16.1036L15.6399 16.1036L17.0542 14.6894L17.0542 14.6894L15.6399 16.1036ZM15.7703 16.2135L15.7704 16.2135L16.9237 14.5796L16.9237 14.5795L15.7703 16.2135ZM15.7549 16.2024L15.755 16.2024L16.9391 14.5906L16.9391 14.5906L15.7549 16.2024ZM15.3698 15.9131C15.475 16.0026 15.6376 16.1182 15.7638 16.2088L16.9302 14.5842C16.8559 14.5308 16.7957 14.4875 16.7459 14.4509C16.7215 14.4329 16.7024 14.4185 16.6876 14.4071C16.6722 14.3952 16.666 14.39 16.666 14.39L15.3698 15.9131ZM14.2002 15.1132C14.4167 16.0895 14.4166 16.0895 14.4165 16.0896C14.4164 16.0896 14.4163 16.0896 14.4162 16.0896C14.4161 16.0896 14.416 16.0897 14.4158 16.0897C14.4156 16.0897 14.4155 16.0898 14.4154 16.0898C14.4153 16.0898 14.4156 16.0898 14.4161 16.0896C14.4172 16.0894 14.4195 16.0889 14.423 16.0882C14.43 16.0867 14.4416 16.0843 14.4574 16.0811C14.489 16.0748 14.5367 16.0657 14.5958 16.0555C14.7158 16.0349 14.8747 16.0114 15.0393 15.9975C15.21 15.983 15.3543 15.9816 15.4554 15.9923C15.5956 16.0071 15.5053 16.0284 15.3697 15.913L16.6661 14.3901C16.3248 14.0996 15.9044 14.0285 15.6652 14.0033C15.387 13.974 15.1025 13.9849 14.8702 14.0046C14.6318 14.0249 14.4134 14.0575 14.2569 14.0844C14.1778 14.098 14.1123 14.1105 14.0654 14.1199C14.042 14.1246 14.023 14.1285 14.0092 14.1314C14.0023 14.1329 13.9967 14.1341 13.9924 14.135C13.9902 14.1355 13.9884 14.1359 13.987 14.1362C13.9862 14.1364 13.9856 14.1365 13.985 14.1366C13.9848 14.1367 13.9845 14.1368 13.9843 14.1368C13.9842 14.1368 13.984 14.1369 13.9839 14.1369C13.9838 14.1369 13.9836 14.137 14.2002 15.1132ZM11.2467 13.7954C11.3764 14.1872 11.5672 14.8216 12.0323 15.3067C12.5552 15.8522 13.275 16.0871 14.1715 16.1128L14.2289 14.1136C13.6473 14.0969 13.5122 13.9604 13.4761 13.9227C13.3822 13.8247 13.31 13.6643 13.1454 13.167L11.2467 13.7954ZM11.2259 13.7237L11.2259 13.7237L13.1662 13.2387L13.1662 13.2387L11.2259 13.7237ZM10.984 13.0896C11.085 13.3097 11.1596 13.5321 11.2467 13.7954L13.1454 13.167C13.0621 12.9152 12.9557 12.5908 12.8017 12.2553L10.984 13.0896ZM12.9241 9.08244C12.0962 8.52168 12.096 8.52185 12.0959 8.52203C12.0959 8.52211 12.0957 8.5223 12.0956 8.52244C12.0954 8.52274 12.0952 8.52307 12.095 8.52343C12.0945 8.52417 12.0939 8.52504 12.0932 8.52606C12.0918 8.52811 12.0901 8.53072 12.0879 8.5339C12.0837 8.54026 12.078 8.54887 12.0709 8.55962C12.0568 8.58112 12.0372 8.61124 12.0131 8.64913C11.9649 8.7248 11.8984 8.83201 11.8211 8.96381C11.6678 9.22552 11.4667 9.59328 11.2828 10.0096C11.1013 10.4206 10.9218 10.9116 10.8322 11.4143C10.7452 11.9027 10.7226 12.5147 10.9826 13.0865L12.8031 12.2585C12.7819 12.2118 12.7476 12.0659 12.8012 11.7652C12.8522 11.4788 12.9657 11.1496 13.1123 10.8177C13.2565 10.4911 13.4188 10.1933 13.5466 9.97511C13.61 9.86697 13.6636 9.78067 13.7004 9.72282C13.7188 9.69394 13.7329 9.6723 13.7418 9.65872C13.7463 9.65194 13.7494 9.64718 13.7512 9.64456C13.7521 9.64325 13.7526 9.64247 13.7528 9.64224C13.7528 9.64213 13.7528 9.64215 13.7527 9.64231C13.7527 9.64239 13.7526 9.6425 13.7525 9.64265C13.7524 9.64273 13.7523 9.64287 13.7523 9.64291C13.7522 9.64305 13.7521 9.64321 12.9241 9.08244ZM9.53866 10.0824H12.9241V8.08244H9.53866V10.0824ZM8.92928 13.8436C9.92401 13.7411 9.92402 13.7412 9.92403 13.7413C9.92403 13.7413 9.92404 13.7414 9.92404 13.7414C9.92405 13.7415 9.92405 13.7415 9.92404 13.7414C9.92403 13.7413 9.92399 13.7409 9.92393 13.7403C9.9238 13.7391 9.92359 13.7369 9.92328 13.7338C9.92267 13.7276 9.92171 13.7177 9.92046 13.7044C9.91795 13.6777 9.91428 13.6373 9.90988 13.5849C9.90108 13.4799 9.88943 13.3274 9.87847 13.1416C9.85642 12.768 9.83769 12.2686 9.84896 11.7537C9.8604 11.2308 9.90219 10.7315 9.98738 10.343C10.0298 10.1492 10.0766 10.0139 10.1179 9.92881C10.1618 9.83811 10.1726 9.85941 10.1114 9.90217L8.96591 8.26271C8.64819 8.4847 8.44759 8.78921 8.31792 9.0569C8.18555 9.33016 8.09653 9.62842 8.03378 9.91467C7.90851 10.486 7.86208 11.1322 7.84944 11.71C7.83661 12.2958 7.85792 12.8523 7.88194 13.2594C7.894 13.4639 7.90689 13.633 7.91687 13.752C7.92187 13.8115 7.92614 13.8587 7.92924 13.8916C7.93079 13.9081 7.93204 13.921 7.93294 13.9301C7.93339 13.9347 7.93376 13.9384 7.93403 13.941C7.93416 13.9424 7.93427 13.9434 7.93436 13.9443C7.9344 13.9447 7.93444 13.9451 7.93447 13.9454C7.93448 13.9455 7.9345 13.9457 7.93451 13.9458C7.93453 13.9459 7.93454 13.9461 8.92928 13.8436ZM13.8498 18.3361C13.2125 17.6052 12.1838 16.3342 11.3039 15.2322C10.8662 14.6841 10.4692 14.1825 10.1815 13.8179C10.0377 13.6357 9.92134 13.4878 9.84095 13.3855C9.80076 13.3343 9.76957 13.2946 9.74847 13.2677C9.73792 13.2542 9.72989 13.244 9.72451 13.2371C9.72183 13.2337 9.7198 13.2311 9.71846 13.2294C9.71779 13.2286 9.71729 13.2279 9.71696 13.2275C9.7168 13.2273 9.71668 13.2271 9.7166 13.227C9.71656 13.227 9.71653 13.227 9.71651 13.2269C9.7165 13.2269 9.71649 13.2269 8.92928 13.8436C8.14206 14.4603 8.14207 14.4603 8.1421 14.4603C8.14213 14.4604 8.14217 14.4604 8.14221 14.4605C8.14231 14.4606 8.14245 14.4608 8.14263 14.461C8.143 14.4615 8.14354 14.4621 8.14424 14.4631C8.14566 14.4649 8.14776 14.4675 8.15052 14.4711C8.15605 14.4781 8.16423 14.4886 8.17494 14.5022C8.19637 14.5295 8.22789 14.5697 8.26844 14.6213C8.34953 14.7245 8.46674 14.8734 8.61143 15.0568C8.90077 15.4235 9.30029 15.9282 9.74093 16.4801C10.6175 17.578 11.6722 18.8819 12.3422 19.6504L13.8498 18.3361ZM17.5254 20.1388C17.3507 20.1201 16.6866 19.9869 15.9093 19.6749C15.13 19.3621 14.3552 18.9159 13.8498 18.3361L12.3422 19.6504C13.1441 20.5702 14.2495 21.1638 15.1643 21.5309C16.081 21.8989 16.9247 22.0859 17.3126 22.1274L17.5254 20.1388ZM16.7756 21.0159C16.7822 21.0323 16.7804 21.0292 16.778 21.0203C16.7766 21.0149 16.7726 20.9989 16.7695 20.9739C16.7665 20.9502 16.7625 20.9034 16.769 20.8404C16.7825 20.7074 16.8546 20.4484 17.1149 20.2693C17.2292 20.1907 17.3385 20.1584 17.4129 20.146C17.4842 20.1341 17.5291 20.1391 17.5338 20.1397L17.3042 22.1265C17.5489 22.1547 17.9141 22.1471 18.2484 21.9171C18.6148 21.665 18.7328 21.2959 18.7586 21.0436C18.7823 20.8113 18.7392 20.6131 18.711 20.5068C18.6796 20.3885 18.6413 20.2949 18.6304 20.2678L16.7756 21.0159ZM16.7722 21.0076L16.775 21.0144L18.631 20.2693L18.6282 20.2625L16.7722 21.0076ZM18.1353 19.731C18.1131 19.7223 18.064 19.7029 18.0307 19.6913L17.3697 21.5789C17.365 21.5772 17.3616 21.576 17.3603 21.5755C17.3587 21.5749 17.358 21.5746 17.3582 21.5747C17.3589 21.575 17.3611 21.5758 17.3658 21.5776C17.3753 21.5813 17.3879 21.5862 17.4061 21.5934L18.1353 19.731ZM18.1353 19.731L18.1351 19.731L17.4063 21.5935L17.4065 21.5935L18.1353 19.731ZM19.0132 20.0162C19.0151 20.0163 19.0046 20.0155 18.9794 20.0107C18.9552 20.006 18.9239 19.9991 18.8855 19.9892C18.8079 19.9693 18.7174 19.9418 18.6207 19.9096C18.4268 19.845 18.2424 19.773 18.1355 19.7311L17.4063 21.5934C17.5136 21.6355 17.7407 21.7245 17.9886 21.8071C18.2104 21.881 18.5471 21.9841 18.8457 22.0092L19.0132 20.0162ZM18.25 20.6113C18.2475 20.5961 18.2482 20.597 18.2485 20.6027C18.2489 20.6138 18.2465 20.5961 18.2547 20.5562C18.2609 20.5263 18.2936 20.3793 18.4384 20.2348C18.5164 20.1569 18.6147 20.0928 18.7269 20.0537C18.8364 20.0155 18.9315 20.0106 18.9958 20.0149L18.8631 22.0105C19.2137 22.0338 19.576 21.9252 19.8516 21.65C20.0921 21.4098 20.1785 21.1294 20.2132 20.9616C20.2807 20.6356 20.2316 20.3371 20.2244 20.2926L18.25 20.6113ZM18.9843 19.9508C19.0357 19.8612 19.1318 19.745 19.2878 19.6627C19.4397 19.5825 19.5787 19.5712 19.6594 19.5743C19.733 19.5772 19.772 19.5921 19.759 19.5879C19.7491 19.5846 19.7197 19.5738 19.6627 19.547L18.8117 21.3569C18.9766 21.4344 19.2627 21.5606 19.5825 21.5729C19.765 21.5799 19.9929 21.552 20.2214 21.4314C20.454 21.3086 20.6144 21.1282 20.7184 20.9472L18.9843 19.9508ZM17.7039 16.4301C17.32 16.0604 16.794 15.6687 16.4699 15.4261L15.2715 17.0273C15.6234 17.2907 16.0402 17.6045 16.3166 17.8707L17.7039 16.4301ZM14.7223 16.5617C15.1929 17.1799 15.9067 17.657 16.4985 18.0095L17.5221 16.2913C16.9536 15.9527 16.5336 15.6392 16.3136 15.3502L14.7223 16.5617ZM16.4699 15.4261C16.3033 15.3014 16.2066 15.2285 16.1614 15.1905L14.8744 16.7214C14.9745 16.8055 15.1303 16.9216 15.2715 17.0273L16.4699 15.4261ZM19.6236 19.5282C19.5205 19.4776 19.3974 19.4108 19.2298 19.3195L18.273 21.0758C18.429 21.1608 18.5935 21.2506 18.7435 21.3241L19.6236 19.5282ZM18.0254 21.0118C18.275 21.1214 18.5325 21.2346 18.7882 21.3447L19.579 19.5076C19.3314 19.4011 19.0808 19.2909 18.83 19.1808L18.0254 21.0118ZM15.9674 20.1753C15.8761 20.1836 15.8681 20.1631 16.0193 20.2039C16.1419 20.2371 16.3078 20.2931 16.5184 20.3737C16.9401 20.5351 17.457 20.762 18.0254 21.0118L18.83 19.1808C18.2761 18.9373 17.71 18.6883 17.2333 18.5059C16.9947 18.4145 16.7575 18.3317 16.5411 18.2732C16.3535 18.2225 16.0708 18.1577 15.7871 18.1834L15.9674 20.1753ZM16.9049 18.3057C16.7147 18.2497 16.2016 18.0756 15.6481 18.206L16.1065 20.1527C16.0673 20.162 16.0545 20.1541 16.0962 20.1607C16.1171 20.1641 16.1462 20.1702 16.1883 20.1811C16.2318 20.1925 16.2776 20.2058 16.3401 20.2243L16.9049 18.3057ZM17.0256 18.3404C16.9909 18.3309 16.9539 18.3201 16.9049 18.3057L16.3401 20.2243C16.3856 20.2377 16.4422 20.2543 16.4999 20.2701L17.0256 18.3404ZM19.2297 19.3195C18.7382 19.0517 18.0112 18.6538 17.0666 18.3525L16.4589 20.2579C17.2056 20.4961 17.7867 20.8109 18.2729 21.0758L19.2297 19.3195ZM19.1986 19.3032L19.1986 19.3032L18.3041 21.092L18.3042 21.0921L19.1986 19.3032ZM18.4996 16.2048C18.4031 16.002 18.2459 15.8334 18.1444 15.7402C18.0853 15.6858 17.9805 15.5966 17.841 15.5247C17.777 15.4917 17.3205 15.2524 16.8227 15.5341L17.8076 17.2748C17.5671 17.4108 17.3349 17.41 17.1958 17.389C17.0624 17.3688 16.9675 17.3245 16.9242 17.3022C16.8381 17.2578 16.7926 17.2142 16.7908 17.2125C16.7808 17.2033 16.7752 17.1971 16.7697 17.1902C16.7664 17.1862 16.7591 17.1768 16.7489 17.1619C16.7412 17.1505 16.7184 17.1162 16.6937 17.0642L18.4996 16.2048ZM18.0615 17.6288C18.0899 17.6054 18.2061 17.5128 18.302 17.4054C18.3495 17.3523 18.4458 17.238 18.5156 17.0732C18.5902 16.8971 18.671 16.565 18.4996 16.2048L16.6937 17.0642C16.5362 16.7333 16.6143 16.4341 16.674 16.2932C16.7288 16.1637 16.798 16.087 16.8109 16.0726C16.8375 16.0428 16.854 16.0323 16.789 16.0859L18.0615 17.6288ZM18.029 17.6557C18.0236 17.6607 18.0225 17.6614 18.0298 17.6552C18.0371 17.649 18.046 17.6417 18.0615 17.6289L16.7891 16.0858C16.7672 16.1039 16.7133 16.1479 16.6639 16.194L18.029 17.6557ZM15.9726 16.8C16.0069 17.4126 16.4551 17.7428 16.744 17.8628C16.9042 17.9293 17.0952 17.9712 17.3003 17.9608C17.497 17.9508 17.7986 17.885 18.0508 17.6347L16.642 16.215C16.8473 16.0113 17.0798 15.9694 17.1989 15.9634C17.3265 15.9569 17.4315 15.9827 17.5109 16.0157C17.6382 16.0685 17.9456 16.2617 17.9695 16.6882L15.9726 16.8ZM17.3151 16.4045C16.9181 15.4867 16.9178 15.4868 16.9176 15.4868C16.9176 15.4869 16.9174 15.487 16.9172 15.487C16.9169 15.4872 16.9166 15.4873 16.9164 15.4874C16.9158 15.4877 16.9151 15.4879 16.9145 15.4882C16.9132 15.4888 16.9118 15.4894 16.9104 15.49C16.9074 15.4913 16.904 15.4928 16.9003 15.4945C16.8929 15.4978 16.884 15.502 16.8737 15.5068C16.8533 15.5164 16.827 15.5292 16.7966 15.5451C16.7384 15.5756 16.6535 15.6233 16.5626 15.6874C16.4783 15.7469 16.3486 15.8484 16.2331 15.9959C16.1208 16.1392 15.9513 16.4186 15.9726 16.8L17.9695 16.6882C17.9856 16.9764 17.8565 17.1668 17.8077 17.229C17.7789 17.2658 17.7541 17.2893 17.7411 17.3009C17.7275 17.3131 17.7182 17.3197 17.7158 17.3215C17.7122 17.324 17.7153 17.3217 17.7232 17.3175C17.7259 17.3161 17.7272 17.3155 17.7261 17.316C17.7256 17.3163 17.7242 17.3169 17.722 17.3179C17.7208 17.3184 17.7195 17.319 17.7179 17.3198C17.7171 17.3201 17.7162 17.3205 17.7152 17.3209C17.7148 17.3211 17.7143 17.3213 17.7138 17.3216C17.7135 17.3217 17.7133 17.3218 17.713 17.3219C17.7129 17.3219 17.7127 17.322 17.7126 17.3221C17.7124 17.3221 17.7122 17.3222 17.3151 16.4045ZM18.9879 20.394C18.0348 20.6964 18.0347 20.6962 18.0346 20.696C18.0346 20.6959 18.0345 20.6957 18.0345 20.6956C18.0344 20.6953 18.0343 20.695 18.0342 20.6948C18.0341 20.6942 18.0339 20.6937 18.0338 20.6932C18.0335 20.6923 18.0332 20.6913 18.0329 20.6905C18.0324 20.6889 18.032 20.6875 18.0317 20.6864C18.031 20.6842 18.0307 20.683 18.0306 20.6827C18.0305 20.6823 18.0311 20.6844 18.0319 20.688C18.0345 20.6992 18.034 20.7006 18.0331 20.69C18.0326 20.6836 18.0312 20.6646 18.0329 20.6355C18.0344 20.6082 18.0395 20.5541 18.0601 20.4845C18.0808 20.415 18.1237 20.3074 18.2143 20.1972C18.3109 20.0795 18.443 19.9826 18.5999 19.9276L19.2611 21.8152C19.7074 21.6589 19.9054 21.2964 19.9775 21.0536C20.0429 20.8332 20.0352 20.6331 20.0264 20.5261C20.0163 20.4043 19.9949 20.2988 19.9789 20.2307C19.9705 20.1947 19.9623 20.1642 19.9558 20.141C19.9525 20.1293 19.9496 20.1192 19.9471 20.111C19.9458 20.1068 19.9447 20.1032 19.9437 20.0999C19.9432 20.0983 19.9428 20.0968 19.9423 20.0954C19.9421 20.0947 19.9419 20.0941 19.9417 20.0935C19.9416 20.0931 19.9415 20.0928 19.9414 20.0925C19.9414 20.0924 19.9413 20.0922 19.9413 20.0921C19.9412 20.0919 19.9411 20.0917 18.9879 20.394ZM19.5481 20.843C19.5346 20.8877 19.4565 21.1238 19.1878 21.2742C19.0616 21.3449 18.9426 21.3671 18.8595 21.3708C18.8196 21.3726 18.7888 21.3702 18.7694 21.3678C18.75 21.3654 18.7392 21.3626 18.7384 21.3624L19.2375 19.4257C18.9785 19.3589 18.5895 19.3171 18.211 19.529C17.8222 19.7466 17.6841 20.0979 17.634 20.2633L19.5481 20.843ZM18.6169 19.9218C19.0769 19.77 19.3711 20.0562 19.4128 20.1013C19.4561 20.1481 19.4999 20.2107 19.5335 20.296C19.5573 20.3565 19.6316 20.5676 19.5481 20.843L17.634 20.2633C17.5323 20.5991 17.617 20.8877 17.6725 21.0286C17.7377 21.1944 17.8344 21.3402 17.9443 21.4591C18.1191 21.6482 18.6013 22.0332 19.2441 21.821L18.6169 19.9218ZM17.2584 20.0478C17.6193 19.9789 17.8613 20.1588 17.9392 20.2319C18.0213 20.3089 18.1037 20.4264 18.1351 20.602C18.1518 20.6956 18.1633 20.8641 18.0863 21.0588C17.9994 21.2782 17.8289 21.4533 17.6187 21.5462C17.4337 21.6279 17.2802 21.6196 17.222 21.6129C17.1592 21.6057 17.1342 21.5923 17.1587 21.6021L17.9004 19.7447C17.6993 19.6644 17.2618 19.5174 16.8107 19.7167C16.5419 19.8354 16.3338 20.0521 16.2267 20.3225C16.1295 20.5682 16.1383 20.7971 16.1663 20.9541C16.2204 21.2565 16.3817 21.5132 16.5714 21.691C16.7569 21.865 17.1352 22.1075 17.6337 22.0123L17.2584 20.0478ZM18.2367 21.3805C17.2355 21.6292 16.5429 20.8363 16.5392 20.8118C16.5381 20.804 16.5367 20.7922 16.5362 20.7883C16.5355 20.7821 16.535 20.7773 16.5349 20.7763C16.5345 20.773 16.5343 20.7704 16.5342 20.7695C16.534 20.7673 16.5338 20.7656 16.5338 20.7647C16.5336 20.7626 16.5334 20.7611 16.5334 20.7601C16.5332 20.7581 16.5331 20.7571 16.5331 20.757C16.5331 20.7568 16.5332 20.7589 16.5334 20.7622C16.5337 20.7721 16.5333 20.7747 16.5338 20.7681C16.5341 20.7642 16.5352 20.7499 16.5392 20.728C16.5429 20.7082 16.552 20.6641 16.5739 20.6068C16.5983 20.5433 16.7636 20.1425 17.258 20.0479L17.634 22.0122C18.186 21.9066 18.3904 21.4557 18.4412 21.3232C18.506 21.1543 18.5222 20.9972 18.5281 20.9188C18.5351 20.8258 18.534 20.7434 18.5321 20.6898C18.531 20.6614 18.5296 20.6372 18.5283 20.6186C18.5277 20.6093 18.527 20.6011 18.5265 20.5942C18.5262 20.5907 18.5259 20.5874 18.5256 20.5841C18.5254 20.5825 18.5252 20.5803 18.525 20.5777C18.5249 20.5767 18.5246 20.574 18.5243 20.5706C18.5242 20.5695 18.5237 20.5647 18.523 20.5586C18.5225 20.5546 18.521 20.5428 18.52 20.535C18.5162 20.5105 17.8237 19.7176 16.8225 19.9663L18.2367 21.3805ZM15.8693 20.8995C15.9351 20.9272 16.003 20.9555 16.0705 20.9835L16.8382 19.1367C16.7699 19.1083 16.7065 19.082 16.6459 19.0565L15.8693 20.8995ZM15.6565 20.7922C15.6903 20.8107 15.7691 20.8548 15.8475 20.89L16.6676 19.0659C16.6734 19.0685 16.6765 19.0701 16.6761 19.0699C16.6758 19.0697 16.6735 19.0685 16.6685 19.0659C16.6572 19.0599 16.6433 19.0524 16.6187 19.0389L15.6565 20.7922ZM15.6904 20.8099L15.6904 20.81L16.5848 19.0211L16.5848 19.0211L15.6904 20.8099ZM15.3452 20.692C15.3858 20.6811 15.4109 20.6833 15.443 20.6921C15.4916 20.7054 15.5421 20.7294 15.6565 20.7922L16.6187 19.0389C16.3889 18.9127 15.7158 18.5214 14.8262 18.7605L15.3452 20.692ZM16.4706 19.0665C16.3146 18.988 16.0932 18.8729 15.848 18.8016C15.5666 18.7198 15.2928 18.7025 14.9927 18.7306L15.1787 20.7219C15.2333 20.7168 15.2608 20.718 15.2713 20.7188C15.2794 20.7194 15.2831 20.7202 15.2894 20.722C15.2989 20.7248 15.3209 20.7321 15.3681 20.7534C15.4191 20.7765 15.4778 20.8059 15.5718 20.8532L16.4706 19.0665ZM17.9903 19.6738C17.1726 19.4211 16.7639 19.214 16.4706 19.0665L15.5718 20.8532C15.9205 21.0286 16.4378 21.2873 17.3999 21.5846L17.9903 19.6738ZM16.0706 20.9836C16.432 21.1338 16.814 21.2932 17.2255 21.5121L18.1647 19.7463C17.6596 19.4777 17.1969 19.2859 16.8384 19.1368L16.0706 20.9836ZM16.0753 20.9855L16.0754 20.9856L16.8336 19.1348L16.8334 19.1348L16.0753 20.9855ZM20.0503 19.1536C19.7922 19.0335 19.3123 18.8878 18.8333 19.1555C18.3298 19.437 18.2268 19.9435 18.2316 20.2308C18.2365 20.5279 18.3427 20.8361 18.5479 21.0808C18.7704 21.3461 19.1809 21.6004 19.7037 21.505L19.3445 19.5375C19.6948 19.4735 19.9603 19.6525 20.0803 19.7956C20.1829 19.918 20.229 20.0569 20.2313 20.1975C20.2335 20.3282 20.1854 20.691 19.8092 20.9013C19.6362 20.998 19.4715 21.0113 19.3652 21.0028C19.2652 20.9948 19.2087 20.9679 19.2068 20.967L20.0503 19.1536ZM20.5839 19.7648L20.5839 19.7646L18.6733 20.356L18.6733 20.3562L20.5839 19.7648ZM19.7257 21.5007C20.1222 21.4191 20.4029 21.1582 20.5451 20.8573C20.6631 20.6077 20.6698 20.3709 20.6661 20.2465C20.6585 19.9897 20.587 19.7743 20.5802 19.7532L18.677 20.3677C18.677 20.3677 18.6769 20.3675 18.6768 20.3671C18.6767 20.3668 18.6765 20.3663 18.6764 20.3659C18.6761 20.365 18.6758 20.3641 18.6755 20.3632C18.675 20.3614 18.6745 20.3598 18.674 20.3583C18.6732 20.3555 18.6726 20.3534 18.6721 20.3519C18.6714 20.3493 18.6711 20.3481 18.671 20.3475C18.6709 20.3472 18.6704 20.3448 18.6697 20.34C18.6691 20.3357 18.6675 20.3239 18.667 20.3055C18.6665 20.289 18.6613 20.1626 18.737 20.0026C18.7794 19.9127 18.8504 19.8067 18.9631 19.7143C19.0781 19.62 19.2053 19.5659 19.3225 19.5417L19.7257 21.5007ZM33.4686 12.8203L28.9796 14.6476L29.7336 16.5L34.2226 14.6728L33.4686 12.8203ZM32.8456 10.1128V13.7465H34.8456V10.1128H32.8456ZM32.0172 12.6919C32.8382 12.0802 33.6787 11.4541 34.4219 10.93L33.2693 9.2955C32.5006 9.83757 31.6379 10.4804 30.8223 11.088L32.0172 12.6919ZM32.0167 12.6922L32.017 12.692L30.8225 11.0879L30.8222 11.0881L32.0167 12.6922ZM32.078 12.6428L32.078 12.6427L30.761 11.1376L30.7609 11.1376L32.078 12.6428ZM28.091 15.2299C28.2965 15.2029 28.4751 15.1248 28.5749 15.078C28.6956 15.0215 28.8214 14.9515 28.9444 14.8782C29.1914 14.7309 29.4845 14.5351 29.7998 14.3148C30.4322 13.8729 31.2175 13.2877 32.0169 12.6921L30.822 11.0883C30.014 11.6903 29.2562 12.2547 28.6542 12.6753C28.3524 12.8863 28.1054 13.0499 27.9201 13.1604C27.827 13.216 27.7636 13.2495 27.7258 13.2672C27.6671 13.2947 27.718 13.2618 27.8303 13.247L28.091 15.2299ZM28.9099 16.5805C28.7054 16.014 28.5267 15.5039 28.4781 15.1228C28.4534 14.929 28.4827 14.9018 28.4595 14.9595C28.4421 15.0026 28.4034 15.07 28.3312 15.1304C28.2592 15.1908 28.1927 15.2116 28.1663 15.2171L27.755 13.2599C27.2065 13.3751 26.7999 13.7258 26.6039 14.2133C26.4385 14.6246 26.4534 15.056 26.4942 15.3757C26.5765 16.0217 26.8479 16.7587 27.0287 17.2595L28.9099 16.5805ZM29.2006 17.4614C29.1327 17.1944 29.0129 16.866 28.9099 16.5805L27.0287 17.2595C27.1453 17.5825 27.2241 17.8042 27.2624 17.9548L29.2006 17.4614ZM28.919 19.0215C29.5592 18.2533 29.5596 18.2536 29.5599 18.2539C29.56 18.254 29.5604 18.2543 29.5606 18.2545C29.5611 18.2549 29.5616 18.2553 29.562 18.2556C29.5629 18.2564 29.5638 18.2572 29.5647 18.2579C29.5664 18.2593 29.568 18.2607 29.5695 18.262C29.5726 18.2646 29.5752 18.2669 29.5774 18.2689C29.5819 18.2728 29.5848 18.2756 29.5863 18.277C29.5893 18.2798 29.5867 18.2775 29.5796 18.2699C29.5655 18.2545 29.5334 18.2176 29.4922 18.1565C29.4109 18.036 29.2889 17.8139 29.2016 17.4651L27.2615 17.951C27.4085 18.5381 27.6303 18.9727 27.8341 19.2749C27.9355 19.4253 28.0314 19.5412 28.1095 19.6259C28.1486 19.6683 28.1832 19.7028 28.2119 19.7299C28.2263 19.7435 28.2391 19.7553 28.2504 19.7652C28.256 19.7702 28.2612 19.7747 28.2659 19.7788C28.2683 19.7808 28.2706 19.7828 28.2727 19.7846C28.2738 19.7855 28.2748 19.7864 28.2759 19.7872C28.2764 19.7877 28.2769 19.7881 28.2774 19.7885C28.2776 19.7887 28.278 19.789 28.2781 19.7891C28.2785 19.7894 28.2788 19.7897 28.919 19.0215ZM30.2883 20.8407C30.3016 20.8604 30.2583 20.7884 30.1939 20.5511C30.1382 20.346 30.0876 20.0984 30.0444 19.8485C30.0017 19.6014 29.9687 19.3671 29.9464 19.1937C29.9353 19.1073 29.927 19.0371 29.9215 18.9891C29.9188 18.9651 29.9167 18.9467 29.9154 18.9347C29.9148 18.9287 29.9143 18.9244 29.914 18.9217C29.9139 18.9203 29.9138 18.9194 29.9137 18.9189C29.9137 18.9187 29.9137 18.9185 29.9137 18.9185C29.9137 18.9185 29.9137 18.9185 29.9137 18.9186C29.9137 18.9186 29.9137 18.9187 29.9137 18.9187C29.9137 18.9187 29.9137 18.9188 28.919 19.0215C27.9243 19.1242 27.9243 19.1243 27.9243 19.1244C27.9243 19.1245 27.9243 19.1245 27.9244 19.1246C27.9244 19.1248 27.9244 19.125 27.9244 19.1252C27.9245 19.1256 27.9245 19.1262 27.9246 19.1268C27.9247 19.1281 27.9249 19.1299 27.9251 19.1321C27.9256 19.1365 27.9263 19.1427 27.9271 19.1505C27.9288 19.1661 27.9313 19.1883 27.9345 19.2163C27.9409 19.2724 27.9503 19.3519 27.9627 19.4486C27.9875 19.6411 28.0246 19.9055 28.0736 20.1893C28.1222 20.4702 28.1852 20.7856 28.2638 21.0751C28.3336 21.3324 28.4453 21.6866 28.6331 21.9635L30.2883 20.8407ZM28.2193 16.6793C28.5686 17.6842 28.7202 18.9599 28.7368 19.9385C28.7452 20.4319 28.7181 20.79 28.6855 20.9669C28.678 21.0077 28.6738 21.0186 28.677 21.0087C28.6789 21.003 28.6856 20.9833 28.6991 20.9546C28.7115 20.9283 28.7387 20.8751 28.7871 20.8125C28.8699 20.7055 29.18 20.3815 29.6901 20.4684C30.0943 20.5373 30.2765 20.823 30.2922 20.8465L28.6292 21.9577C28.6874 22.0447 28.9106 22.3644 29.354 22.44C29.9033 22.5336 30.2509 22.1889 30.3688 22.0365C30.49 21.88 30.5493 21.7179 30.5777 21.6313C30.6114 21.5283 30.6351 21.4237 30.6525 21.3286C30.72 20.9621 30.7459 20.4527 30.7365 19.9045C30.7178 18.8 30.551 17.2957 30.1084 16.0225L28.2193 16.6793ZM29.3566 15.5738C29.0075 14.6367 29.0068 14.637 29.0061 14.6372C29.0059 14.6373 29.0052 14.6376 29.0047 14.6377C29.0038 14.6381 29.0028 14.6385 29.0019 14.6388C29 14.6395 28.998 14.6403 28.996 14.6411C28.9921 14.6426 28.9879 14.6442 28.9837 14.6459C28.9752 14.6493 28.9661 14.6531 28.9564 14.6572C28.9372 14.6655 28.9157 14.6754 28.8923 14.6871C28.8457 14.7104 28.7902 14.7416 28.73 14.7829C28.6106 14.8648 28.4634 14.993 28.3395 15.1838C28.0621 15.611 28.0303 16.1403 28.2201 16.6817L30.1075 16.0201C30.0892 15.9678 30.1035 15.981 30.0988 16.0427C30.0936 16.1102 30.0688 16.1931 30.0169 16.2731C29.9685 16.3475 29.9106 16.3984 29.8614 16.4321C29.8364 16.4492 29.8113 16.4637 29.7864 16.4761C29.7738 16.4824 29.7609 16.4884 29.7476 16.4941C29.7409 16.497 29.7341 16.4998 29.7271 16.5026C29.7237 16.504 29.7201 16.5054 29.7166 16.5068C29.7148 16.5074 29.713 16.5081 29.7112 16.5088C29.7103 16.5092 29.7093 16.5095 29.7084 16.5098C29.708 16.51 29.7073 16.5103 29.7071 16.5104C29.7064 16.5106 29.7057 16.5109 29.3566 15.5738Z" fill="#946DAE" mask="url(#path-1-inside-1_131_5358)"/>
</g>
</g>
</svg>
