<svg width="41" height="40" viewBox="0 0 41 40" fill="none" xmlns="http://www.w3.org/2000/svg">
<mask id="path-1-inside-1_170_16055" fill="white">
<path fill-rule="evenodd" clip-rule="evenodd" d="M20.7717 40C31.8174 40 40.7717 31.0457 40.7717 20C40.7717 8.9543 31.8174 0 20.7717 0C9.72603 0 0.771729 8.9543 0.771729 20C0.771729 31.0457 9.72603 40 20.7717 40ZM17.4999 8.99999C17.1666 9.83333 15.8858 11.5228 13.4999 12C10.9999 12.5 9.9999 14 9.9999 15.5V25.5626C9.9999 26.0626 10.0001 27 10.4999 27.5L11.6163 28.6164L11.9999 29C12.2807 28.7877 12.545 28.594 12.7895 28.4147L12.7895 28.4147L12.7899 28.4144L12.7902 28.4142C14.1712 27.4018 14.9246 26.8495 14.4999 26C14.2367 25.4735 14.112 25.2242 14.053 24.9603C13.9999 24.7228 13.9999 24.4735 13.9999 24V18.5C14.3332 19 14.9999 20 15.4999 22C15.9999 24 16.2677 26.2322 14.4999 28C13.4999 29 13.4999 30.1667 13.4999 31H26.9999C26.9999 31 26.6766 28.765 25.4999 27C24.4999 25.5 24.4999 24.5 24.9999 23L26.4999 18.5V24.5C26.4999 26.1471 27.2911 27.9071 27.7566 28.9425C27.8563 29.1644 27.9411 29.3529 27.9999 29.5C27.9999 29.5 29.1957 29.9617 29.9999 30C30.9944 30.0474 32.4999 29.5 32.4999 29.5C32.1666 29 31.3999 27.8 30.9999 27C30.5999 26.2 30.4999 25.3333 30.4999 25V14.5C30.1666 13.8333 28.9999 12.4 26.9999 12C24.9999 11.6 23.4999 9.83333 22.9999 8.99999H17.4999ZM22.4001 17.5C22.4001 17.2791 22.2211 17.1 22.0001 17.1C21.7792 17.1 21.6001 17.2791 21.6001 17.5C21.6001 18.5083 21.673 19.1605 21.9387 19.7212C22.1936 20.2594 22.6132 20.6789 23.1773 21.2429L23.2173 21.2828C23.3735 21.439 23.6268 21.439 23.783 21.2828C23.9392 21.1266 23.9392 20.8734 23.783 20.7172C23.1673 20.1015 22.8507 19.778 22.6616 19.3788C22.4773 18.9895 22.4001 18.4917 22.4001 17.5ZM18.0001 17.1C17.7792 17.1 17.6001 17.2791 17.6001 17.5C17.6001 18.4917 17.523 18.9895 17.3387 19.3788C17.1495 19.778 16.833 20.1015 16.2173 20.7172C16.0611 20.8734 16.0611 21.1266 16.2173 21.2828C16.3735 21.439 16.6268 21.439 16.783 21.2828L16.823 21.2429C17.3871 20.6789 17.8067 20.2594 18.0616 19.7212C18.3273 19.1605 18.4001 18.5083 18.4001 17.5C18.4001 17.2791 18.2211 17.1 18.0001 17.1ZM22.1001 22C22.0449 22 22.0001 22.0448 22.0001 22.1V22.4C22.0001 22.4552 22.0449 22.5 22.1001 22.5H22.4001C22.4554 22.5 22.5001 22.4552 22.5001 22.4V22.1C22.5001 22.0448 22.4554 22 22.4001 22H22.1001ZM22.5001 24.1C22.5001 24.0448 22.5449 24 22.6001 24H22.9001C22.9554 24 23.0001 24.0448 23.0001 24.1V24.4C23.0001 24.4552 22.9554 24.5 22.9001 24.5H22.6001C22.5449 24.5 22.5001 24.4552 22.5001 24.4V24.1ZM22.1001 26C22.0449 26 22.0001 26.0448 22.0001 26.1V26.4C22.0001 26.4552 22.0449 26.5 22.1001 26.5H22.4001C22.4554 26.5 22.5001 26.4552 22.5001 26.4V26.1C22.5001 26.0448 22.4554 26 22.4001 26H22.1001ZM21.6001 28C21.5449 28 21.5001 28.0448 21.5001 28.1V28.4C21.5001 28.4552 21.5449 28.5 21.6001 28.5H21.9001C21.9554 28.5 22.0001 28.4552 22.0001 28.4V28.1C22.0001 28.0448 21.9554 28 21.9001 28H21.6001ZM18.0001 28.1C18.0001 28.0448 18.0449 28 18.1001 28H18.4001C18.4554 28 18.5001 28.0448 18.5001 28.1V28.4C18.5001 28.4552 18.4554 28.5 18.4001 28.5H18.1001C18.0449 28.5 18.0001 28.4552 18.0001 28.4V28.1ZM18.6001 26C18.5449 26 18.5001 26.0448 18.5001 26.1V26.4C18.5001 26.4552 18.5449 26.5 18.6001 26.5H18.9001C18.9554 26.5 19.0001 26.4552 19.0001 26.4V26.1C19.0001 26.0448 18.9554 26 18.9001 26H18.6001ZM19.0001 24.1C19.0001 24.0448 19.0449 24 19.1001 24H19.4001C19.4554 24 19.5001 24.0448 19.5001 24.1V24.4C19.5001 24.4552 19.4554 24.5 19.4001 24.5H19.1001C19.0449 24.5 19.0001 24.4552 19.0001 24.4V24.1ZM18.6001 22C18.5449 22 18.5001 22.0448 18.5001 22.1V22.4C18.5001 22.4552 18.5449 22.5 18.6001 22.5H18.9001C18.9554 22.5 19.0001 22.4552 19.0001 22.4V22.1C19.0001 22.0448 18.9554 22 18.9001 22H18.6001ZM20.0398 13.602C20.2596 13.624 20.42 13.82 20.398 14.0398L20.3813 14.2057C20.2103 15.9019 19.945 18.535 20.8714 20.8515C21.72 22.9734 21.384 25.1131 20.388 29.097C20.3345 29.3113 20.1173 29.4416 19.903 29.3881C19.6887 29.3345 19.5584 29.1173 19.6119 28.903C20.616 24.8869 20.8677 22.9967 20.1286 21.1485C19.1273 18.6448 19.4117 15.838 19.5817 14.1612L19.6019 13.9602C19.6239 13.7404 19.8199 13.58 20.0398 13.602Z"/>
</mask>
<path fill-rule="evenodd" clip-rule="evenodd" d="M20.7717 40C31.8174 40 40.7717 31.0457 40.7717 20C40.7717 8.9543 31.8174 0 20.7717 0C9.72603 0 0.771729 8.9543 0.771729 20C0.771729 31.0457 9.72603 40 20.7717 40ZM17.4999 8.99999C17.1666 9.83333 15.8858 11.5228 13.4999 12C10.9999 12.5 9.9999 14 9.9999 15.5V25.5626C9.9999 26.0626 10.0001 27 10.4999 27.5L11.6163 28.6164L11.9999 29C12.2807 28.7877 12.545 28.594 12.7895 28.4147L12.7895 28.4147L12.7899 28.4144L12.7902 28.4142C14.1712 27.4018 14.9246 26.8495 14.4999 26C14.2367 25.4735 14.112 25.2242 14.053 24.9603C13.9999 24.7228 13.9999 24.4735 13.9999 24V18.5C14.3332 19 14.9999 20 15.4999 22C15.9999 24 16.2677 26.2322 14.4999 28C13.4999 29 13.4999 30.1667 13.4999 31H26.9999C26.9999 31 26.6766 28.765 25.4999 27C24.4999 25.5 24.4999 24.5 24.9999 23L26.4999 18.5V24.5C26.4999 26.1471 27.2911 27.9071 27.7566 28.9425C27.8563 29.1644 27.9411 29.3529 27.9999 29.5C27.9999 29.5 29.1957 29.9617 29.9999 30C30.9944 30.0474 32.4999 29.5 32.4999 29.5C32.1666 29 31.3999 27.8 30.9999 27C30.5999 26.2 30.4999 25.3333 30.4999 25V14.5C30.1666 13.8333 28.9999 12.4 26.9999 12C24.9999 11.6 23.4999 9.83333 22.9999 8.99999H17.4999ZM22.4001 17.5C22.4001 17.2791 22.2211 17.1 22.0001 17.1C21.7792 17.1 21.6001 17.2791 21.6001 17.5C21.6001 18.5083 21.673 19.1605 21.9387 19.7212C22.1936 20.2594 22.6132 20.6789 23.1773 21.2429L23.2173 21.2828C23.3735 21.439 23.6268 21.439 23.783 21.2828C23.9392 21.1266 23.9392 20.8734 23.783 20.7172C23.1673 20.1015 22.8507 19.778 22.6616 19.3788C22.4773 18.9895 22.4001 18.4917 22.4001 17.5ZM18.0001 17.1C17.7792 17.1 17.6001 17.2791 17.6001 17.5C17.6001 18.4917 17.523 18.9895 17.3387 19.3788C17.1495 19.778 16.833 20.1015 16.2173 20.7172C16.0611 20.8734 16.0611 21.1266 16.2173 21.2828C16.3735 21.439 16.6268 21.439 16.783 21.2828L16.823 21.2429C17.3871 20.6789 17.8067 20.2594 18.0616 19.7212C18.3273 19.1605 18.4001 18.5083 18.4001 17.5C18.4001 17.2791 18.2211 17.1 18.0001 17.1ZM22.1001 22C22.0449 22 22.0001 22.0448 22.0001 22.1V22.4C22.0001 22.4552 22.0449 22.5 22.1001 22.5H22.4001C22.4554 22.5 22.5001 22.4552 22.5001 22.4V22.1C22.5001 22.0448 22.4554 22 22.4001 22H22.1001ZM22.5001 24.1C22.5001 24.0448 22.5449 24 22.6001 24H22.9001C22.9554 24 23.0001 24.0448 23.0001 24.1V24.4C23.0001 24.4552 22.9554 24.5 22.9001 24.5H22.6001C22.5449 24.5 22.5001 24.4552 22.5001 24.4V24.1ZM22.1001 26C22.0449 26 22.0001 26.0448 22.0001 26.1V26.4C22.0001 26.4552 22.0449 26.5 22.1001 26.5H22.4001C22.4554 26.5 22.5001 26.4552 22.5001 26.4V26.1C22.5001 26.0448 22.4554 26 22.4001 26H22.1001ZM21.6001 28C21.5449 28 21.5001 28.0448 21.5001 28.1V28.4C21.5001 28.4552 21.5449 28.5 21.6001 28.5H21.9001C21.9554 28.5 22.0001 28.4552 22.0001 28.4V28.1C22.0001 28.0448 21.9554 28 21.9001 28H21.6001ZM18.0001 28.1C18.0001 28.0448 18.0449 28 18.1001 28H18.4001C18.4554 28 18.5001 28.0448 18.5001 28.1V28.4C18.5001 28.4552 18.4554 28.5 18.4001 28.5H18.1001C18.0449 28.5 18.0001 28.4552 18.0001 28.4V28.1ZM18.6001 26C18.5449 26 18.5001 26.0448 18.5001 26.1V26.4C18.5001 26.4552 18.5449 26.5 18.6001 26.5H18.9001C18.9554 26.5 19.0001 26.4552 19.0001 26.4V26.1C19.0001 26.0448 18.9554 26 18.9001 26H18.6001ZM19.0001 24.1C19.0001 24.0448 19.0449 24 19.1001 24H19.4001C19.4554 24 19.5001 24.0448 19.5001 24.1V24.4C19.5001 24.4552 19.4554 24.5 19.4001 24.5H19.1001C19.0449 24.5 19.0001 24.4552 19.0001 24.4V24.1ZM18.6001 22C18.5449 22 18.5001 22.0448 18.5001 22.1V22.4C18.5001 22.4552 18.5449 22.5 18.6001 22.5H18.9001C18.9554 22.5 19.0001 22.4552 19.0001 22.4V22.1C19.0001 22.0448 18.9554 22 18.9001 22H18.6001ZM20.0398 13.602C20.2596 13.624 20.42 13.82 20.398 14.0398L20.3813 14.2057C20.2103 15.9019 19.945 18.535 20.8714 20.8515C21.72 22.9734 21.384 25.1131 20.388 29.097C20.3345 29.3113 20.1173 29.4416 19.903 29.3881C19.6887 29.3345 19.5584 29.1173 19.6119 28.903C20.616 24.8869 20.8677 22.9967 20.1286 21.1485C19.1273 18.6448 19.4117 15.838 19.5817 14.1612L19.6019 13.9602C19.6239 13.7404 19.8199 13.58 20.0398 13.602Z" fill="#946DAE"/>
<path d="M17.4999 8.99999V7.99999H16.8229L16.5714 8.6286L17.4999 8.99999ZM10.4999 27.5L9.79262 28.2069L9.79278 28.2071L10.4999 27.5ZM11.6163 28.6164L10.9092 29.3235L10.9092 29.3236L11.6163 28.6164ZM11.9999 29L11.2928 29.7071L11.9085 30.3228L12.603 29.7977L11.9999 29ZM12.7895 28.4147L12.2128 27.5977L12.2055 27.6029L12.1983 27.6082L12.7895 28.4147ZM12.7895 28.4147L13.3662 29.2316L13.3741 29.226L13.3819 29.2203L12.7895 28.4147ZM12.7899 28.4144L12.1991 27.6076L12.1975 27.6087L12.7899 28.4144ZM12.7902 28.4142L13.381 29.221L13.3814 29.2207L12.7902 28.4142ZM14.4999 26L15.3943 25.5528H15.3943L14.4999 26ZM14.053 24.9603L13.0771 25.1785L14.053 24.9603ZM13.9999 18.5L14.832 17.9453L12.9999 15.1972V18.5H13.9999ZM13.4999 31H12.4999V32H13.4999V31ZM26.9999 31V32H28.155L27.9896 30.8568L26.9999 31ZM26.4999 18.5H27.4999L25.5512 18.1838L26.4999 18.5ZM27.7566 28.9425L26.8445 29.3525L27.7566 28.9425ZM27.9999 29.5L27.0714 29.8714L27.2332 30.2759L27.6397 30.4329L27.9999 29.5ZM29.9999 30L29.9523 30.9989L29.9999 30ZM32.4999 29.5L32.8416 30.4398L34.0382 30.0047L33.332 28.9453L32.4999 29.5ZM30.4999 14.5H31.4999V14.2639L31.3943 14.0528L30.4999 14.5ZM22.9999 8.99999L23.8574 8.4855L23.5661 7.99999H22.9999V8.99999ZM21.9387 19.7212L22.8424 19.2931L21.9387 19.7212ZM23.1773 21.2429L23.8844 20.5357L23.8844 20.5357L23.1773 21.2429ZM23.2173 21.2828L23.9244 20.5757L23.9243 20.5757L23.2173 21.2828ZM22.6616 19.3788L23.5654 18.9507L23.5654 18.9507L22.6616 19.3788ZM17.3387 19.3788L16.4349 18.9507L16.4349 18.9507L17.3387 19.3788ZM16.2173 20.7172L16.9244 21.4243V21.4243L16.2173 20.7172ZM16.2173 21.2828L16.9244 20.5757L16.9244 20.5757L16.2173 21.2828ZM16.783 21.2828L16.076 20.5757L16.0759 20.5757L16.783 21.2828ZM16.823 21.2429L16.1159 20.5357L16.1159 20.5357L16.823 21.2429ZM18.0616 19.7212L18.9654 20.1493L18.9654 20.1493L18.0616 19.7212ZM20.398 14.0398L21.393 14.1398L21.393 14.1393L20.398 14.0398ZM20.0398 13.602L19.9403 14.597H19.9403L20.0398 13.602ZM20.3813 14.2057L21.3763 14.3059L21.3763 14.3057L20.3813 14.2057ZM20.8714 20.8515L21.7999 20.4801V20.4801L20.8714 20.8515ZM20.388 29.097L21.3582 29.3395V29.3395L20.388 29.097ZM19.903 29.3881L19.6604 30.3582L19.6604 30.3582L19.903 29.3881ZM19.6119 28.903L18.6418 28.6604V28.6604L19.6119 28.903ZM20.1286 21.1485L19.2001 21.5199L20.1286 21.1485ZM19.5817 14.1612L20.5766 14.2621L20.5766 14.2616L19.5817 14.1612ZM19.6019 13.9602L20.5969 14.0606L20.597 14.0597L19.6019 13.9602ZM39.7717 20C39.7717 30.4934 31.2651 39 20.7717 39V41C32.3697 41 41.7717 31.598 41.7717 20H39.7717ZM20.7717 1C31.2651 1 39.7717 9.50659 39.7717 20H41.7717C41.7717 8.40202 32.3697 -1 20.7717 -1V1ZM1.77173 20C1.77173 9.50659 10.2783 1 20.7717 1V-1C9.17375 -1 -0.228271 8.40202 -0.228271 20H1.77173ZM20.7717 39C10.2783 39 1.77173 30.4934 1.77173 20H-0.228271C-0.228271 31.598 9.17375 41 20.7717 41V39ZM13.696 12.9806C16.4599 12.4278 17.9883 10.4716 18.4284 9.37139L16.5714 8.6286C16.3449 9.19502 15.3117 10.6178 13.3038 11.0194L13.696 12.9806ZM10.9999 15.5C10.9999 14.979 11.1701 14.4724 11.5557 14.044C11.9445 13.612 12.6092 13.1979 13.696 12.9806L13.3038 11.0194C11.8906 11.302 10.8053 11.888 10.0691 12.706C9.32968 13.5276 8.9999 14.521 8.9999 15.5H10.9999ZM10.9999 25.5626V15.5H8.9999V25.5626H10.9999ZM11.2072 26.7931C11.1705 26.7564 11.0959 26.6372 11.0477 26.3599C11.0019 26.0969 10.9999 25.8191 10.9999 25.5626H8.9999C8.9999 25.8061 8.99799 26.247 9.0773 26.7027C9.1541 27.1441 9.32955 27.7436 9.79262 28.2069L11.2072 26.7931ZM12.3234 27.9093L11.207 26.7929L9.79278 28.2071L10.9092 29.3235L12.3234 27.9093ZM12.707 28.2929L12.3234 27.9093L10.9092 29.3236L11.2928 29.7071L12.707 28.2929ZM12.1983 27.6082C11.9543 27.7871 11.6844 27.9849 11.3968 28.2023L12.603 29.7977C12.8771 29.5904 13.1357 29.4009 13.3808 29.2212L12.1983 27.6082ZM12.2129 27.5977L12.2128 27.5977L13.3662 29.2316L13.3662 29.2316L12.2129 27.5977ZM12.1975 27.6087L12.1972 27.609L13.3819 29.2203L13.3823 29.22L12.1975 27.6087ZM12.1994 27.6074L12.1991 27.6076L13.3807 29.2212L13.381 29.221L12.1994 27.6074ZM13.6055 26.4472C13.6349 26.5061 13.6102 26.4835 13.6209 26.4221C13.6285 26.3785 13.6406 26.4014 13.5528 26.5072C13.3431 26.7598 12.9354 27.0678 12.1989 27.6077L13.3814 29.2207C14.026 28.7482 14.6855 28.2738 15.0916 27.7848C15.3116 27.5197 15.5188 27.1821 15.5914 26.7643C15.667 26.3288 15.5773 25.9186 15.3943 25.5528L13.6055 26.4472ZM13.0771 25.1785C13.1692 25.5902 13.3652 25.9667 13.6055 26.4472L15.3943 25.5528C15.1081 24.9804 15.0549 24.8583 15.0289 24.742L13.0771 25.1785ZM12.9999 24C12.9999 24.4317 12.9944 24.8088 13.0771 25.1785L15.0289 24.742C15.0054 24.6368 14.9999 24.5153 14.9999 24H12.9999ZM12.9999 18.5V24H14.9999V18.5H12.9999ZM16.47 21.7575C15.9327 19.6079 15.2024 18.501 14.832 17.9453L13.1679 19.0547C13.464 19.499 14.0672 20.3921 14.5298 22.2425L16.47 21.7575ZM15.207 28.7071C17.3873 26.5268 16.9774 23.7868 16.47 21.7575L14.5298 22.2425C15.0224 24.2132 15.1481 25.9376 13.7928 27.2929L15.207 28.7071ZM14.4999 31C14.4999 30.1631 14.5239 29.3902 15.207 28.7071L13.7928 27.2929C12.4759 28.6098 12.4999 30.1703 12.4999 31H14.4999ZM26.9999 30H13.4999V32H26.9999V30ZM24.6679 27.5547C25.1785 28.3207 25.5185 29.2146 25.7314 29.9426C25.8364 30.3016 25.9072 30.6091 25.9514 30.8244C25.9735 30.9318 25.9888 31.0155 25.9983 31.0705C26.003 31.098 26.0063 31.1182 26.0082 31.1306C26.0092 31.1367 26.0099 31.1409 26.0102 31.1431C26.0103 31.1441 26.0104 31.1447 26.0104 31.1447C26.0104 31.1447 26.0104 31.1446 26.0104 31.1443C26.0104 31.1442 26.0103 31.144 26.0103 31.1438C26.0103 31.1437 26.0103 31.1436 26.0103 31.1435C26.0102 31.1433 26.0102 31.1432 26.9999 31C27.9896 30.8568 27.9896 30.8566 27.9895 30.8564C27.9895 30.8563 27.9895 30.8561 27.9895 30.8559C27.9894 30.8556 27.9894 30.8552 27.9893 30.8549C27.9892 30.8541 27.9891 30.8531 27.9889 30.8521C27.9886 30.8499 27.9882 30.8472 27.9877 30.844C27.9867 30.8376 27.9854 30.829 27.9837 30.8184C27.9804 30.7971 27.9756 30.7676 27.9692 30.7305C27.9564 30.6564 27.9372 30.5517 27.9106 30.422C27.8574 30.1631 27.7739 29.8015 27.651 29.3812C27.408 28.5504 26.998 27.4444 26.332 26.4453L24.6679 27.5547ZM24.0512 22.6838C23.7829 23.4887 23.6094 24.2701 23.6924 25.0995C23.7763 25.9384 24.1107 26.719 24.6679 27.5547L26.332 26.4453C25.8891 25.781 25.7235 25.3115 25.6824 24.9005C25.6404 24.4799 25.7169 24.0113 25.9486 23.3162L24.0512 22.6838ZM25.5512 18.1838L24.0512 22.6838L25.9486 23.3162L27.4486 18.8162L25.5512 18.1838ZM27.4999 24.5V18.5H25.4999V24.5H27.4999ZM28.6686 28.5325C28.186 27.4588 27.4999 25.896 27.4999 24.5H25.4999C25.4999 26.3981 26.3963 28.3555 26.8445 29.3525L28.6686 28.5325ZM28.9284 29.1286C28.86 28.9575 28.765 28.7467 28.6686 28.5325L26.8445 29.3525C26.9477 29.582 27.0222 29.7483 27.0714 29.8714L28.9284 29.1286ZM30.0475 29.0011C29.7745 28.9881 29.3726 28.8942 28.9865 28.7781C28.8048 28.7234 28.6451 28.6695 28.5313 28.6295C28.4747 28.6095 28.43 28.5932 28.4003 28.5822C28.3855 28.5767 28.3745 28.5726 28.3677 28.57C28.3642 28.5687 28.3619 28.5678 28.3606 28.5673C28.3599 28.5671 28.3596 28.5669 28.3595 28.5669C28.3595 28.5669 28.3595 28.5669 28.3596 28.5669C28.3596 28.5669 28.3597 28.567 28.3598 28.567C28.3598 28.567 28.3599 28.567 28.3599 28.567C28.36 28.5671 28.3601 28.5671 27.9999 29.5C27.6397 30.4329 27.6398 30.4329 27.6399 30.433C27.64 30.433 27.6401 30.433 27.6401 30.433C27.6403 30.4331 27.6405 30.4332 27.6407 30.4332C27.6411 30.4334 27.6415 30.4336 27.642 30.4338C27.6431 30.4342 27.6445 30.4347 27.6461 30.4353C27.6494 30.4366 27.6539 30.4383 27.6594 30.4404C27.6705 30.4446 27.6859 30.4504 27.7054 30.4576C27.7442 30.472 27.7993 30.4921 27.8673 30.516C28.0029 30.5637 28.1924 30.6277 28.4102 30.6932C28.8231 30.8175 29.4212 30.9736 29.9523 30.9989L30.0475 29.0011ZM32.4999 29.5C32.1582 28.5602 32.1583 28.5601 32.1584 28.5601C32.1584 28.5601 32.1585 28.5601 32.1586 28.56C32.1587 28.56 32.1588 28.56 32.1588 28.56C32.1589 28.5599 32.159 28.5599 32.1589 28.5599C32.1588 28.56 32.1583 28.5602 32.1575 28.5604C32.1558 28.561 32.1528 28.5621 32.1484 28.5637C32.1398 28.5667 32.1258 28.5717 32.1071 28.5781C32.0696 28.591 32.0133 28.6101 31.9419 28.6331C31.7986 28.6794 31.5979 28.7407 31.3699 28.8003C30.8852 28.927 30.3841 29.0172 30.0475 29.0011L29.9523 30.9989C30.6102 31.0302 31.3591 30.8703 31.8758 30.7352C32.1485 30.6639 32.3863 30.5913 32.5563 30.5364C32.6416 30.5089 32.7107 30.4856 32.7594 30.4687C32.7838 30.4603 32.8032 30.4535 32.8171 30.4486C32.824 30.4461 32.8295 30.4442 32.8336 30.4427C32.8357 30.4419 32.8374 30.4413 32.8387 30.4408C32.8394 30.4406 32.84 30.4404 32.8404 30.4402C32.8407 30.4401 32.8409 30.4401 32.8411 30.44C32.8412 30.44 32.8413 30.4399 32.8414 30.4399C32.8415 30.4398 32.8416 30.4398 32.4999 29.5ZM30.1055 27.4472C30.5355 28.3073 31.3325 29.5517 31.6679 30.0547L33.332 28.9453C33.0006 28.4483 32.2643 27.2927 31.8943 26.5528L30.1055 27.4472ZM29.4999 25C29.4999 25.4518 29.6213 26.4788 30.1055 27.4472L31.8943 26.5528C31.5785 25.9212 31.4999 25.2149 31.4999 25H29.4999ZM29.4999 14.5V25H31.4999V14.5H29.4999ZM26.8038 12.9806C28.4347 13.3068 29.3767 14.4896 29.6055 14.9472L31.3943 14.0528C30.9564 13.177 29.5651 11.4932 27.196 11.0194L26.8038 12.9806ZM22.1424 9.51449C22.4459 10.0204 23.0139 10.7521 23.7825 11.4182C24.5505 12.0838 25.5788 12.7356 26.8038 12.9806L27.196 11.0194C26.421 10.8644 25.6993 10.4328 25.0923 9.90681C24.4859 9.3812 24.0539 8.81293 23.8574 8.4855L22.1424 9.51449ZM17.4999 9.99999H22.9999V7.99999H17.4999V9.99999ZM22.0001 18.1C21.6688 18.1 21.4001 17.8314 21.4001 17.5H23.4001C23.4001 16.7268 22.7733 16.1 22.0001 16.1V18.1ZM22.6001 17.5C22.6001 17.8314 22.3315 18.1 22.0001 18.1V16.1C21.2269 16.1 20.6001 16.7268 20.6001 17.5H22.6001ZM22.8424 19.2931C22.6782 18.9465 22.6001 18.487 22.6001 17.5H20.6001C20.6001 18.5296 20.6679 19.3744 21.0349 20.1493L22.8424 19.2931ZM23.8844 20.5357C23.2885 19.94 23.0089 19.6446 22.8424 19.2931L21.0349 20.1493C21.3783 20.8742 21.9379 21.4178 22.4703 21.9501L23.8844 20.5357ZM23.9243 20.5757L23.8844 20.5357L22.4703 21.9501L22.5103 21.99L23.9243 20.5757ZM23.0759 20.5757C23.3102 20.3414 23.6901 20.3414 23.9244 20.5757L22.5102 21.9899C23.0569 22.5367 23.9434 22.5367 24.4901 21.9899L23.0759 20.5757ZM23.0759 21.4243C22.8416 21.1899 22.8416 20.81 23.0759 20.5757L24.4901 21.9899C25.0368 21.4432 25.0368 20.5568 24.4901 20.01L23.0759 21.4243ZM21.7579 19.8068C22.0371 20.3962 22.5013 20.8497 23.0759 21.4243L24.4901 20.01C23.8333 19.3532 23.6644 19.1598 23.5654 18.9507L21.7579 19.8068ZM21.4001 17.5C21.4001 18.5117 21.4718 19.2029 21.7579 19.8068L23.5654 18.9507C23.4827 18.7761 23.4001 18.4717 23.4001 17.5H21.4001ZM18.6001 17.5C18.6001 17.8314 18.3315 18.1 18.0001 18.1V16.1C17.2269 16.1 16.6001 16.7268 16.6001 17.5H18.6001ZM18.2424 19.8068C18.5285 19.2029 18.6001 18.5117 18.6001 17.5H16.6001C16.6001 18.4717 16.5176 18.7761 16.4349 18.9507L18.2424 19.8068ZM16.9244 21.4243C17.499 20.8497 17.9632 20.3962 18.2424 19.8068L16.4349 18.9507C16.3358 19.1598 16.167 19.3532 15.5102 20.01L16.9244 21.4243ZM16.9244 20.5757C17.1587 20.81 17.1587 21.1899 16.9244 21.4243L15.5102 20.01C14.9635 20.5568 14.9635 21.4432 15.5102 21.9899L16.9244 20.5757ZM16.0759 20.5757C16.3102 20.3414 16.6901 20.3414 16.9244 20.5757L15.5102 21.9899C16.0569 22.5367 16.9434 22.5367 17.4901 21.9899L16.0759 20.5757ZM16.1159 20.5357L16.076 20.5757L17.49 21.99L17.53 21.9501L16.1159 20.5357ZM17.1579 19.2931C16.9914 19.6446 16.7118 19.94 16.1159 20.5357L17.53 21.9501C18.0624 21.4178 18.622 20.8742 18.9654 20.1493L17.1579 19.2931ZM17.4001 17.5C17.4001 18.487 17.3221 18.9465 17.1579 19.2931L18.9654 20.1493C19.3324 19.3744 19.4001 18.5296 19.4001 17.5H17.4001ZM18.0001 18.1C17.6688 18.1 17.4001 17.8314 17.4001 17.5H19.4001C19.4001 16.7268 18.7733 16.1 18.0001 16.1V18.1ZM23.0001 22.1C23.0001 22.597 22.5972 23 22.1001 23V21C21.4926 21 21.0001 21.4925 21.0001 22.1H23.0001ZM23.0001 22.4V22.1H21.0001V22.4H23.0001ZM22.1001 21.5C22.5972 21.5 23.0001 21.9029 23.0001 22.4H21.0001C21.0001 23.0075 21.4926 23.5 22.1001 23.5V21.5ZM22.4001 21.5H22.1001V23.5H22.4001V21.5ZM21.5001 22.4C21.5001 21.9029 21.9031 21.5 22.4001 21.5V23.5C23.0077 23.5 23.5001 23.0075 23.5001 22.4H21.5001ZM21.5001 22.1V22.4H23.5001V22.1H21.5001ZM22.4001 23C21.9031 23 21.5001 22.597 21.5001 22.1H23.5001C23.5001 21.4925 23.0077 21 22.4001 21V23ZM22.1001 23H22.4001V21H22.1001V23ZM22.6001 23C21.9926 23 21.5001 23.4925 21.5001 24.1H23.5001C23.5001 24.597 23.0972 25 22.6001 25V23ZM22.9001 23H22.6001V25H22.9001V23ZM24.0001 24.1C24.0001 23.4925 23.5077 23 22.9001 23V25C22.4031 25 22.0001 24.597 22.0001 24.1H24.0001ZM24.0001 24.4V24.1H22.0001V24.4H24.0001ZM22.9001 25.5C23.5077 25.5 24.0001 25.0075 24.0001 24.4H22.0001C22.0001 23.9029 22.4031 23.5 22.9001 23.5V25.5ZM22.6001 25.5H22.9001V23.5H22.6001V25.5ZM21.5001 24.4C21.5001 25.0075 21.9926 25.5 22.6001 25.5V23.5C23.0972 23.5 23.5001 23.9029 23.5001 24.4H21.5001ZM21.5001 24.1V24.4H23.5001V24.1H21.5001ZM23.0001 26.1C23.0001 26.597 22.5972 27 22.1001 27V25C21.4926 25 21.0001 25.4925 21.0001 26.1H23.0001ZM23.0001 26.4V26.1H21.0001V26.4H23.0001ZM22.1001 25.5C22.5972 25.5 23.0001 25.9029 23.0001 26.4H21.0001C21.0001 27.0075 21.4926 27.5 22.1001 27.5V25.5ZM22.4001 25.5H22.1001V27.5H22.4001V25.5ZM21.5001 26.4C21.5001 25.9029 21.9031 25.5 22.4001 25.5V27.5C23.0077 27.5 23.5001 27.0075 23.5001 26.4H21.5001ZM21.5001 26.1V26.4H23.5001V26.1H21.5001ZM22.4001 27C21.9031 27 21.5001 26.597 21.5001 26.1H23.5001C23.5001 25.4925 23.0077 25 22.4001 25V27ZM22.1001 27H22.4001V25H22.1001V27ZM22.5001 28.1C22.5001 28.597 22.0972 29 21.6001 29V27C20.9926 27 20.5001 27.4925 20.5001 28.1H22.5001ZM22.5001 28.4V28.1H20.5001V28.4H22.5001ZM21.6001 27.5C22.0972 27.5 22.5001 27.9029 22.5001 28.4H20.5001C20.5001 29.0075 20.9926 29.5 21.6001 29.5V27.5ZM21.9001 27.5H21.6001V29.5H21.9001V27.5ZM21.0001 28.4C21.0001 27.9029 21.4031 27.5 21.9001 27.5V29.5C22.5077 29.5 23.0001 29.0075 23.0001 28.4H21.0001ZM21.0001 28.1V28.4H23.0001V28.1H21.0001ZM21.9001 29C21.4031 29 21.0001 28.597 21.0001 28.1H23.0001C23.0001 27.4925 22.5077 27 21.9001 27V29ZM21.6001 29H21.9001V27H21.6001V29ZM18.1001 27C17.4926 27 17.0001 27.4925 17.0001 28.1H19.0001C19.0001 28.597 18.5972 29 18.1001 29V27ZM18.4001 27H18.1001V29H18.4001V27ZM19.5001 28.1C19.5001 27.4925 19.0077 27 18.4001 27V29C17.9031 29 17.5001 28.597 17.5001 28.1H19.5001ZM19.5001 28.4V28.1H17.5001V28.4H19.5001ZM18.4001 29.5C19.0077 29.5 19.5001 29.0075 19.5001 28.4H17.5001C17.5001 27.9029 17.9031 27.5 18.4001 27.5V29.5ZM18.1001 29.5H18.4001V27.5H18.1001V29.5ZM17.0001 28.4C17.0001 29.0075 17.4926 29.5 18.1001 29.5V27.5C18.5972 27.5 19.0001 27.9029 19.0001 28.4H17.0001ZM17.0001 28.1V28.4H19.0001V28.1H17.0001ZM19.5001 26.1C19.5001 26.597 19.0972 27 18.6001 27V25C17.9926 25 17.5001 25.4925 17.5001 26.1H19.5001ZM19.5001 26.4V26.1H17.5001V26.4H19.5001ZM18.6001 25.5C19.0972 25.5 19.5001 25.9029 19.5001 26.4H17.5001C17.5001 27.0075 17.9926 27.5 18.6001 27.5V25.5ZM18.9001 25.5H18.6001V27.5H18.9001V25.5ZM18.0001 26.4C18.0001 25.9029 18.4031 25.5 18.9001 25.5V27.5C19.5077 27.5 20.0001 27.0075 20.0001 26.4H18.0001ZM18.0001 26.1V26.4H20.0001V26.1H18.0001ZM18.9001 27C18.4031 27 18.0001 26.597 18.0001 26.1H20.0001C20.0001 25.4925 19.5077 25 18.9001 25V27ZM18.6001 27H18.9001V25H18.6001V27ZM19.1001 23C18.4926 23 18.0001 23.4925 18.0001 24.1H20.0001C20.0001 24.597 19.5972 25 19.1001 25V23ZM19.4001 23H19.1001V25H19.4001V23ZM20.5001 24.1C20.5001 23.4925 20.0077 23 19.4001 23V25C18.9031 25 18.5001 24.597 18.5001 24.1H20.5001ZM20.5001 24.4V24.1H18.5001V24.4H20.5001ZM19.4001 25.5C20.0077 25.5 20.5001 25.0075 20.5001 24.4H18.5001C18.5001 23.9029 18.9031 23.5 19.4001 23.5V25.5ZM19.1001 25.5H19.4001V23.5H19.1001V25.5ZM18.0001 24.4C18.0001 25.0075 18.4926 25.5 19.1001 25.5V23.5C19.5972 23.5 20.0001 23.9029 20.0001 24.4H18.0001ZM18.0001 24.1V24.4H20.0001V24.1H18.0001ZM19.5001 22.1C19.5001 22.597 19.0972 23 18.6001 23V21C17.9926 21 17.5001 21.4925 17.5001 22.1H19.5001ZM19.5001 22.4V22.1H17.5001V22.4H19.5001ZM18.6001 21.5C19.0972 21.5 19.5001 21.9029 19.5001 22.4H17.5001C17.5001 23.0075 17.9926 23.5 18.6001 23.5V21.5ZM18.9001 21.5H18.6001V23.5H18.9001V21.5ZM18.0001 22.4C18.0001 21.9029 18.4031 21.5 18.9001 21.5V23.5C19.5077 23.5 20.0001 23.0075 20.0001 22.4H18.0001ZM18.0001 22.1V22.4H20.0001V22.1H18.0001ZM18.9001 23C18.4031 23 18.0001 22.597 18.0001 22.1H20.0001C20.0001 21.4925 19.5077 21 18.9001 21V23ZM18.6001 23H18.9001V21H18.6001V23ZM21.393 14.1393C21.4699 13.3699 20.9086 12.6839 20.1393 12.6069L19.9403 14.597C19.6105 14.564 19.37 14.27 19.4029 13.9403L21.393 14.1393ZM21.3763 14.3057L21.393 14.1398L19.403 13.9398L19.3863 14.1056L21.3763 14.3057ZM21.7999 20.4801C20.9782 18.4257 21.2018 16.0371 21.3763 14.3059L19.3863 14.1054C19.2189 15.7668 18.9117 18.6444 19.9429 21.2228L21.7999 20.4801ZM21.3582 29.3395C22.3443 25.3951 22.7852 22.9441 21.7999 20.4801L19.9429 21.2228C20.6547 23.0028 20.4238 24.8311 19.4179 28.8545L21.3582 29.3395ZM19.6604 30.3582C20.4105 30.5457 21.1707 30.0897 21.3582 29.3395L19.4179 28.8545C19.4983 28.533 19.824 28.3375 20.1455 28.4179L19.6604 30.3582ZM18.6418 28.6604C18.4543 29.4106 18.9103 30.1707 19.6604 30.3582L20.1455 28.4179C20.467 28.4983 20.6624 28.824 20.5821 29.1455L18.6418 28.6604ZM19.2001 21.5199C19.8022 23.0256 19.6561 24.6033 18.6418 28.6604L20.5821 29.1455C21.5758 25.1704 21.9332 22.9679 21.0571 20.7772L19.2001 21.5199ZM18.5868 14.0604C18.4198 15.7082 18.0947 18.7559 19.2001 21.5199L21.0571 20.7772C20.1599 18.5338 20.4037 15.9678 20.5766 14.2621L18.5868 14.0604ZM18.607 13.8598L18.5867 14.0608L20.5766 14.2616L20.5969 14.0606L18.607 13.8598ZM20.1393 12.6069C19.3699 12.53 18.6838 13.0913 18.6069 13.8607L20.597 14.0597C20.564 14.3894 20.27 14.63 19.9403 14.597L20.1393 12.6069Z" fill="#946DAE" mask="url(#path-1-inside-1_170_16055)"/>
</svg>
