<svg width="41" height="40" viewBox="0 0 41 40" fill="none" xmlns="http://www.w3.org/2000/svg">
<circle cx="20.7719" cy="20" r="19.5" stroke="#946DAE"/>
<path fill-rule="evenodd" clip-rule="evenodd" d="M13.5 12C15.8859 11.5228 17.1667 9.83333 17.5 9H23C23.5 9.83333 25 11.6 27 12C29 12.4 30.1667 13.8333 30.5 14.5V25C30.5 25.3333 30.6 26.2 31 27C31.4 27.8 32.1667 29 32.5 29.5C32.5 29.5 30.9945 30.0474 30 30C29.1958 29.9617 28 29.5 28 29.5C27.9412 29.3529 27.8564 29.1644 27.7567 28.9425C27.2912 27.9072 26.5 26.1471 26.5 24.5V18.5L25 23C24.5 24.5 24.5 25.5 25.5 27C26.6767 28.765 27 31 27 31H13.5C13.5 30.1667 13.5 29 14.5 28C16.2678 26.2322 16 24 15.5 22C15 20 14.3333 19 14 18.5V24C14 24.4735 14 24.7228 14.0531 24.9603C14.1121 25.2242 14.2368 25.4735 14.5 26C14.9247 26.8495 14.1713 27.4018 12.7903 28.4142L12.79 28.4144L12.7896 28.4147L12.7896 28.4147C12.5451 28.594 12.2808 28.7877 12 29L11.6164 28.6164L10.5 27.5C10.0002 27 10 26.0626 10 25.5626V15.5C10 14 11 12.5 13.5 12ZM22.0002 17.1C22.2212 17.1 22.4002 17.2791 22.4002 17.5C22.4002 18.4917 22.4774 18.9895 22.6617 19.3788C22.8508 19.778 23.1674 20.1015 23.7831 20.7172C23.9393 20.8734 23.9393 21.1266 23.7831 21.2828C23.6269 21.4391 23.3736 21.4391 23.2174 21.2828L23.1774 21.2429C22.6133 20.6789 22.1937 20.2594 21.9387 19.7212C21.6731 19.1605 21.6002 18.5083 21.6002 17.5C21.6002 17.2791 21.7793 17.1 22.0002 17.1ZM17.6002 17.5C17.6002 17.2791 17.7793 17.1 18.0002 17.1C18.2212 17.1 18.4002 17.2791 18.4002 17.5C18.4002 18.5083 18.3274 19.1605 18.0617 19.7212C17.8068 20.2594 17.3872 20.6789 16.823 21.2429L16.7831 21.2828C16.6269 21.4391 16.3736 21.4391 16.2174 21.2828C16.0612 21.1266 16.0612 20.8734 16.2174 20.7172C16.8331 20.1015 17.1496 19.778 17.3387 19.3788C17.5231 18.9895 17.6002 18.4917 17.6002 17.5ZM22.0002 22.1C22.0002 22.0448 22.045 22 22.1002 22H22.4002C22.4555 22 22.5002 22.0448 22.5002 22.1V22.4C22.5002 22.4552 22.4555 22.5 22.4002 22.5H22.1002C22.045 22.5 22.0002 22.4552 22.0002 22.4V22.1ZM22.6002 24C22.545 24 22.5002 24.0448 22.5002 24.1V24.4C22.5002 24.4552 22.545 24.5 22.6002 24.5H22.9002C22.9555 24.5 23.0002 24.4552 23.0002 24.4V24.1C23.0002 24.0448 22.9555 24 22.9002 24H22.6002ZM22.0002 26.1C22.0002 26.0448 22.045 26 22.1002 26H22.4002C22.4555 26 22.5002 26.0448 22.5002 26.1V26.4C22.5002 26.4552 22.4555 26.5 22.4002 26.5H22.1002C22.045 26.5 22.0002 26.4552 22.0002 26.4V26.1ZM21.5002 28.1C21.5002 28.0448 21.545 28 21.6002 28H21.9002C21.9555 28 22.0002 28.0448 22.0002 28.1V28.4C22.0002 28.4552 21.9555 28.5 21.9002 28.5H21.6002C21.545 28.5 21.5002 28.4552 21.5002 28.4V28.1ZM18.1002 28C18.045 28 18.0002 28.0448 18.0002 28.1V28.4C18.0002 28.4552 18.045 28.5 18.1002 28.5H18.4002C18.4555 28.5 18.5002 28.4552 18.5002 28.4V28.1C18.5002 28.0448 18.4555 28 18.4002 28H18.1002ZM18.5002 26.1C18.5002 26.0448 18.545 26 18.6002 26H18.9002C18.9555 26 19.0002 26.0448 19.0002 26.1V26.4C19.0002 26.4552 18.9555 26.5 18.9002 26.5H18.6002C18.545 26.5 18.5002 26.4552 18.5002 26.4V26.1ZM19.1002 24C19.045 24 19.0002 24.0448 19.0002 24.1V24.4C19.0002 24.4552 19.045 24.5 19.1002 24.5H19.4002C19.4555 24.5 19.5002 24.4552 19.5002 24.4V24.1C19.5002 24.0448 19.4555 24 19.4002 24H19.1002ZM18.5002 22.1C18.5002 22.0448 18.545 22 18.6002 22H18.9002C18.9555 22 19.0002 22.0448 19.0002 22.1V22.4C19.0002 22.4552 18.9555 22.5 18.9002 22.5H18.6002C18.545 22.5 18.5002 22.4552 18.5002 22.4V22.1ZM20.3981 14.0398C20.42 13.82 20.2597 13.624 20.0399 13.602C19.82 13.58 19.624 13.7404 19.602 13.9602L19.5818 14.1612C19.4118 15.838 19.1274 18.6449 20.1287 21.1485C20.8678 22.9967 20.6161 24.8869 19.612 28.903C19.5584 29.1173 19.6888 29.3345 19.9031 29.3881C20.1174 29.4416 20.3346 29.3113 20.3881 29.097C21.3841 25.1131 21.7201 22.9734 20.8715 20.8515C19.9451 18.535 20.2104 15.902 20.3814 14.2057L20.3981 14.0398Z" fill="#946DAE"/>
</svg>
