<svg width="18" height="20" viewBox="0 0 18 20" fill="none" xmlns="http://www.w3.org/2000/svg">
<path d="M15.541 4.34539C15.541 3.72337 16.0526 3.21975 16.6841 3.21975C17.3156 3.21975 17.8271 3.72337 17.8271 4.34539L17.8271 18.7297C17.8271 19.3517 17.3156 19.8569 16.6841 19.8569C16.0526 19.8569 15.541 19.3517 15.541 18.7297L15.541 4.34539ZM7.84875 1.34539C7.80139 0.911239 8.00978 0.486557 8.38394 0.254482C8.76126 0.0224072 9.23804 0.0224071 9.61536 0.254482C9.98953 0.486557 10.1979 0.911239 10.1506 1.34539L10.1506 18.7297C10.0843 19.3075 9.5901 19.7448 8.99965 19.7448C8.4092 19.7448 7.91348 19.3075 7.84875 18.7297L7.84875 1.34539ZM0.172241 10.385C0.236969 9.80719 0.732695 9.36988 1.32315 9.36988C1.91202 9.36988 2.40774 9.80719 2.47247 10.385L2.47247 18.7155C2.40774 19.2949 1.91202 19.7322 1.32315 19.7322C0.732695 19.7322 0.23697 19.2949 0.172241 18.7155L0.172241 10.385Z" fill="black" fill-opacity="0.5"/>
</svg>
