<svg width="24" height="24" viewBox="0 0 24 24" fill="none" xmlns="http://www.w3.org/2000/svg">
<path d="M18.5412 6.34564C18.5412 5.72361 19.0527 5.21999 19.6842 5.21999C20.3157 5.21999 20.8272 5.72361 20.8272 6.34564L20.8272 20.73C20.8272 21.352 20.3157 21.8572 19.6842 21.8572C19.0527 21.8572 18.5412 21.352 18.5412 20.73L18.5412 6.34564ZM10.8489 3.34564C10.8015 2.91148 11.0099 2.4868 11.3841 2.25473C11.7614 2.02265 12.2382 2.02265 12.6155 2.25473C12.9896 2.4868 13.198 2.91148 13.1507 3.34564L13.1507 20.73C13.0844 21.3078 12.5902 21.7451 11.9998 21.7451C11.4093 21.7451 10.9136 21.3078 10.8489 20.73L10.8489 3.34564ZM3.17236 12.3853C3.23709 11.8074 3.73282 11.3701 4.32327 11.3701C4.91214 11.3701 5.40786 11.8074 5.47259 12.3853L5.47259 20.7157C5.40786 21.2951 4.91214 21.7325 4.32327 21.7325C3.73282 21.7325 3.23709 21.2951 3.17236 20.7157L3.17236 12.3853Z" fill="#C545A3"/>
</svg>
