<svg width="40" height="40" viewBox="0 0 40 40" fill="none" xmlns="http://www.w3.org/2000/svg">
<mask id="path-1-inside-1_170_15926" fill="white">
<path fill-rule="evenodd" clip-rule="evenodd" d="M20 40C31.0457 40 40 31.0457 40 20C40 8.9543 31.0457 0 20 0C8.9543 0 0 8.9543 0 20C0 31.0457 8.9543 40 20 40ZM23.6481 27.6665L27.6589 23.6556C27.9106 23.4039 27.9106 22.9958 27.6589 22.7441C27.4073 22.4923 26.9991 22.4923 26.7474 22.7441L22.7365 26.755C22.4848 27.0067 22.4848 27.4147 22.7365 27.6665C22.9882 27.9182 23.3964 27.9182 23.6481 27.6665ZM21.0995 21.0995C23.3614 18.8376 27.0417 18.8376 29.3036 21.0995C31.5655 23.3614 31.5655 27.0418 29.3036 29.3036C27.0417 31.5656 23.3612 31.5655 21.0995 29.3036C18.8376 27.0418 18.8376 23.3614 21.0995 21.0995ZM23.2105 10.4485C21.2794 8.51729 18.1533 8.51703 16.2219 10.4485L13.6616 13.0088L20.6503 19.9975L23.2105 17.4372C25.1373 15.5105 25.1373 12.3753 23.2105 10.4485ZM10.4485 16.2218L12.75 13.9204L19.7387 20.909L17.4372 23.2105C15.5058 25.142 12.3797 25.1418 10.4485 23.2105C8.51703 21.2791 8.51729 18.153 10.4485 16.2218Z"/>
</mask>
<path fill-rule="evenodd" clip-rule="evenodd" d="M20 40C31.0457 40 40 31.0457 40 20C40 8.9543 31.0457 0 20 0C8.9543 0 0 8.9543 0 20C0 31.0457 8.9543 40 20 40ZM23.6481 27.6665L27.6589 23.6556C27.9106 23.4039 27.9106 22.9958 27.6589 22.7441C27.4073 22.4923 26.9991 22.4923 26.7474 22.7441L22.7365 26.755C22.4848 27.0067 22.4848 27.4147 22.7365 27.6665C22.9882 27.9182 23.3964 27.9182 23.6481 27.6665ZM21.0995 21.0995C23.3614 18.8376 27.0417 18.8376 29.3036 21.0995C31.5655 23.3614 31.5655 27.0418 29.3036 29.3036C27.0417 31.5656 23.3612 31.5655 21.0995 29.3036C18.8376 27.0418 18.8376 23.3614 21.0995 21.0995ZM23.2105 10.4485C21.2794 8.51729 18.1533 8.51703 16.2219 10.4485L13.6616 13.0088L20.6503 19.9975L23.2105 17.4372C25.1373 15.5105 25.1373 12.3753 23.2105 10.4485ZM10.4485 16.2218L12.75 13.9204L19.7387 20.909L17.4372 23.2105C15.5058 25.142 12.3797 25.1418 10.4485 23.2105C8.51703 21.2791 8.51729 18.153 10.4485 16.2218Z" fill="#7EC4CF"/>
<path d="M27.6589 23.6556L28.366 24.3627L28.3661 24.3627L27.6589 23.6556ZM23.6481 27.6665L22.941 26.9594L22.9409 26.9594L23.6481 27.6665ZM27.6589 22.7441L26.9517 23.4511L26.9518 23.4511L27.6589 22.7441ZM26.7474 22.7441L27.4545 23.4512L27.4546 23.4511L26.7474 22.7441ZM22.7365 26.755L22.0294 26.0478L22.0293 26.0479L22.7365 26.755ZM22.7365 27.6665L22.0293 28.3735L22.0294 28.3736L22.7365 27.6665ZM29.3036 21.0995L28.5965 21.8066L28.5965 21.8066L29.3036 21.0995ZM21.0995 21.0995L21.8066 21.8066L21.8066 21.8066L21.0995 21.0995ZM29.3036 29.3036L28.5965 28.5965L28.5965 28.5965L29.3036 29.3036ZM21.0995 29.3036L21.8066 28.5965L21.8066 28.5965L21.0995 29.3036ZM16.2219 10.4485L16.929 11.1556L16.929 11.1556L16.2219 10.4485ZM23.2105 10.4485L22.5034 11.1556L22.5034 11.1556L23.2105 10.4485ZM13.6616 13.0088L12.9545 12.3017L12.2474 13.0088L12.9545 13.7159L13.6616 13.0088ZM20.6503 19.9975L19.9431 20.7046L20.6503 21.4117L21.3574 20.7046L20.6503 19.9975ZM23.2105 17.4372L22.5034 16.7301L22.5034 16.7301L23.2105 17.4372ZM12.75 13.9204L13.4571 13.2132L12.75 12.5061L12.0429 13.2132L12.75 13.9204ZM10.4485 16.2218L11.1556 16.929L11.1556 16.929L10.4485 16.2218ZM19.7387 20.909L20.4458 21.6162L21.1529 20.909L20.4458 20.2019L19.7387 20.909ZM17.4372 23.2105L16.7301 22.5034L16.7301 22.5034L17.4372 23.2105ZM10.4485 23.2105L11.1556 22.5034L11.1556 22.5034L10.4485 23.2105ZM39 20C39 30.4934 30.4934 39 20 39V41C31.598 41 41 31.598 41 20H39ZM20 1C30.4934 1 39 9.50659 39 20H41C41 8.40202 31.598 -1 20 -1V1ZM1 20C1 9.50659 9.50659 1 20 1V-1C8.40202 -1 -1 8.40202 -1 20H1ZM20 39C9.50659 39 1 30.4934 1 20H-1C-1 31.598 8.40202 41 20 41V39ZM26.9518 22.9485L22.941 26.9594L24.3552 28.3736L28.366 24.3627L26.9518 22.9485ZM26.9518 23.4511C26.813 23.3123 26.813 23.0874 26.9518 22.9486L28.3661 24.3627C29.0082 23.7204 29.0082 22.6793 28.3661 22.037L26.9518 23.4511ZM27.4546 23.4511C27.3158 23.5899 27.0906 23.59 26.9517 23.4511L28.3662 22.0371C27.7239 21.3946 26.6824 21.3947 26.0402 22.037L27.4546 23.4511ZM23.4436 27.4621L27.4545 23.4512L26.0403 22.037L22.0294 26.0478L23.4436 27.4621ZM23.4437 26.9595C23.5824 27.0982 23.5825 27.3232 23.4436 27.462L22.0293 26.0479C21.3872 26.6902 21.3873 27.7313 22.0293 28.3735L23.4437 26.9595ZM22.9409 26.9594C23.0798 26.8205 23.3049 26.8207 23.4436 26.9594L22.0294 28.3736C22.6715 29.0158 23.7129 29.016 24.3552 28.3735L22.9409 26.9594ZM30.0107 20.3924C27.3583 17.74 23.0448 17.74 20.3924 20.3924L21.8066 21.8066C23.6779 19.9352 26.7251 19.9352 28.5965 21.8066L30.0107 20.3924ZM30.0107 30.0108C32.6631 27.3584 32.6631 23.0448 30.0107 20.3924L28.5965 21.8066C30.4679 23.6779 30.4679 26.7252 28.5965 28.5965L30.0107 30.0108ZM20.3924 30.0107C23.0446 32.6631 27.3582 32.6633 30.0107 30.0107L28.5965 28.5965C26.7251 30.468 23.6778 30.4679 21.8066 28.5965L20.3924 30.0107ZM20.3924 20.3924C17.74 23.0448 17.74 27.3584 20.3924 30.0107L21.8066 28.5965C19.9352 26.7252 19.9352 23.6779 21.8066 21.8066L20.3924 20.3924ZM16.929 11.1556C18.4698 9.6147 20.9627 9.61489 22.5034 11.1556L23.9176 9.74143C21.596 7.41969 17.8367 7.41936 15.5147 9.74143L16.929 11.1556ZM14.3687 13.7159L16.929 11.1556L15.5147 9.74141L12.9545 12.3017L14.3687 13.7159ZM21.3574 19.2904L14.3687 12.3017L12.9545 13.7159L19.9431 20.7046L21.3574 19.2904ZM22.5034 16.7301L19.9431 19.2904L21.3574 20.7046L23.9176 18.1443L22.5034 16.7301ZM22.5034 11.1556C24.0397 12.6919 24.0397 15.1939 22.5034 16.7301L23.9176 18.1443C26.2349 15.827 26.2349 12.0587 23.9176 9.74141L22.5034 11.1556ZM12.0429 13.2132L9.74141 15.5147L11.1556 16.929L13.4571 14.6275L12.0429 13.2132ZM20.4458 20.2019L13.4571 13.2132L12.0429 14.6275L19.0316 21.6162L20.4458 20.2019ZM18.1443 23.9176L20.4458 21.6162L19.0316 20.2019L16.7301 22.5034L18.1443 23.9176ZM9.74141 23.9176C12.0631 26.2394 15.8223 26.2397 18.1443 23.9176L16.7301 22.5034C15.1892 24.0444 12.6963 24.0442 11.1556 22.5034L9.74141 23.9176ZM9.74142 15.5147C7.41969 17.8364 7.41936 21.5956 9.74142 23.9177L11.1556 22.5034C9.6147 20.9625 9.61489 18.4697 11.1556 16.929L9.74142 15.5147Z" fill="#7EC4CF" mask="url(#path-1-inside-1_170_15926)"/>
</svg>
