<svg width="40" height="40" viewBox="0 0 40 40" fill="none" xmlns="http://www.w3.org/2000/svg">
<circle cx="20" cy="20" r="19.5" stroke="#7EC4CF"/>
<path fill-rule="evenodd" clip-rule="evenodd" d="M27.6589 23.6556L23.6481 27.6665C23.3964 27.9182 22.9882 27.9182 22.7365 27.6665C22.4848 27.4147 22.4848 27.0067 22.7365 26.7549L26.7474 22.7441C26.9991 22.4923 27.4073 22.4923 27.6589 22.7441C27.9106 22.9958 27.9106 23.4039 27.6589 23.6556ZM29.3036 21.0995C27.0417 18.8376 23.3614 18.8376 21.0995 21.0995C18.8376 23.3613 18.8376 27.0418 21.0995 29.3036C23.3612 31.5655 27.0417 31.5656 29.3036 29.3036C31.5655 27.0418 31.5655 23.3613 29.3036 21.0995Z" fill="#7EC4CF"/>
<path fill-rule="evenodd" clip-rule="evenodd" d="M23.2105 10.4485C21.2794 8.51729 18.1533 8.51703 16.2219 10.4485L13.6616 13.0088L20.6503 19.9975L23.2105 17.4372C25.1373 15.5105 25.1373 12.3753 23.2105 10.4485Z" fill="#7EC4CF"/>
<path fill-rule="evenodd" clip-rule="evenodd" d="M12.75 13.9204L10.4485 16.2219C8.51729 18.1531 8.51703 21.2792 10.4485 23.2106C12.3797 25.1418 15.5058 25.1421 17.4372 23.2106L19.7387 20.9091L12.75 13.9204Z" fill="#7EC4CF"/>
</svg>
