<svg width="40" height="40" viewBox="0 0 40 40" fill="none" xmlns="http://www.w3.org/2000/svg">
<mask id="path-1-inside-1_1964_3341" fill="white">
<path fill-rule="evenodd" clip-rule="evenodd" d="M20 40C31.0457 40 40 31.0457 40 20C40 8.9543 31.0457 0 20 0C8.9543 0 0 8.9543 0 20C0 31.0457 8.9543 40 20 40ZM13.507 31.2887C13.7427 31.7256 14.2282 32.0015 14.7585 32H18.7372C18.9948 32 19.2037 31.8079 19.2037 31.571C19.2037 31.3342 18.9948 31.1421 18.7372 31.1421H17.3376C17.1189 31.1419 16.9296 31.0024 16.8822 30.8061L15.9492 26.9456C15.9216 26.8315 15.9457 26.7119 16.0164 26.6145L25.7761 13.1576C26.0171 12.8277 26.0774 12.4137 25.9394 12.0373L24.4753 8L18.4754 8.36758L20.1035 12.1093C20.1618 12.2436 20.1424 12.3959 20.0522 12.5142L18.0242 15.1783C17.223 16.2316 16.5558 17.3658 16.036 18.559L13.1056 25.295C13.05 25.4232 12.9309 25.5191 12.7851 25.5524L11.9796 25.7373C11.5636 25.8329 11.2721 26.1766 11.2727 26.5707V26.883C11.273 27.0784 11.3224 27.2713 11.4174 27.4462L13.507 31.2887ZM12.757 22.0549L11.5711 22.8985L11 22.2199L11.8911 21.5851L11.4194 20.6415C11.3289 20.4597 11.387 20.2446 11.5592 20.1229L12.4522 19.4875L11.9807 18.5439C11.8873 18.3573 11.951 18.1359 12.1326 18.0163L13.0807 17.3869L13.0228 16.3146C13.0119 16.1099 13.16 15.9265 13.3764 15.877L14.4759 15.6261L14.4616 14.5843C14.4589 14.3854 14.6053 14.2107 14.8151 14.1627L15.9172 13.9099L15.9035 12.866L16.8366 12.856L16.8544 14.2394C16.8569 14.4381 16.7106 14.6126 16.5008 14.6606L15.3992 14.913L15.4138 15.9552C15.4165 16.1543 15.2698 16.3288 15.0598 16.3768L13.9741 16.6248L14.0254 17.578C14.0331 17.7235 13.9602 17.8628 13.8313 17.9476L12.9916 18.5054L13.4581 19.4391C13.5484 19.6207 13.4903 19.8356 13.3181 19.9573L12.4258 20.5925L12.8969 21.5363C12.9873 21.7179 12.9292 21.933 12.757 22.0549ZM20.0501 32C20.1054 31.8626 20.1344 31.7175 20.136 31.5711C20.136 30.8602 19.5093 30.2842 18.7364 30.2842H18.2081L19.5911 28.3774C19.6348 28.3181 19.6619 28.2494 19.6694 28.178L20.2465 22.3284L24.9837 15.7956L22.9397 28.9364C22.9112 29.1193 23.0133 29.2986 23.193 29.3813L26.9252 31.0971C26.9901 31.1266 27.0614 31.1421 27.1339 31.1421H28.5334C28.7911 31.1421 29 31.3342 29 31.5711C29 31.8079 28.7911 32 28.5334 32H20.0501Z"/>
</mask>
<path fill-rule="evenodd" clip-rule="evenodd" d="M20 40C31.0457 40 40 31.0457 40 20C40 8.9543 31.0457 0 20 0C8.9543 0 0 8.9543 0 20C0 31.0457 8.9543 40 20 40ZM13.507 31.2887C13.7427 31.7256 14.2282 32.0015 14.7585 32H18.7372C18.9948 32 19.2037 31.8079 19.2037 31.571C19.2037 31.3342 18.9948 31.1421 18.7372 31.1421H17.3376C17.1189 31.1419 16.9296 31.0024 16.8822 30.8061L15.9492 26.9456C15.9216 26.8315 15.9457 26.7119 16.0164 26.6145L25.7761 13.1576C26.0171 12.8277 26.0774 12.4137 25.9394 12.0373L24.4753 8L18.4754 8.36758L20.1035 12.1093C20.1618 12.2436 20.1424 12.3959 20.0522 12.5142L18.0242 15.1783C17.223 16.2316 16.5558 17.3658 16.036 18.559L13.1056 25.295C13.05 25.4232 12.9309 25.5191 12.7851 25.5524L11.9796 25.7373C11.5636 25.8329 11.2721 26.1766 11.2727 26.5707V26.883C11.273 27.0784 11.3224 27.2713 11.4174 27.4462L13.507 31.2887ZM12.757 22.0549L11.5711 22.8985L11 22.2199L11.8911 21.5851L11.4194 20.6415C11.3289 20.4597 11.387 20.2446 11.5592 20.1229L12.4522 19.4875L11.9807 18.5439C11.8873 18.3573 11.951 18.1359 12.1326 18.0163L13.0807 17.3869L13.0228 16.3146C13.0119 16.1099 13.16 15.9265 13.3764 15.877L14.4759 15.6261L14.4616 14.5843C14.4589 14.3854 14.6053 14.2107 14.8151 14.1627L15.9172 13.9099L15.9035 12.866L16.8366 12.856L16.8544 14.2394C16.8569 14.4381 16.7106 14.6126 16.5008 14.6606L15.3992 14.913L15.4138 15.9552C15.4165 16.1543 15.2698 16.3288 15.0598 16.3768L13.9741 16.6248L14.0254 17.578C14.0331 17.7235 13.9602 17.8628 13.8313 17.9476L12.9916 18.5054L13.4581 19.4391C13.5484 19.6207 13.4903 19.8356 13.3181 19.9573L12.4258 20.5925L12.8969 21.5363C12.9873 21.7179 12.9292 21.933 12.757 22.0549ZM20.0501 32C20.1054 31.8626 20.1344 31.7175 20.136 31.5711C20.136 30.8602 19.5093 30.2842 18.7364 30.2842H18.2081L19.5911 28.3774C19.6348 28.3181 19.6619 28.2494 19.6694 28.178L20.2465 22.3284L24.9837 15.7956L22.9397 28.9364C22.9112 29.1193 23.0133 29.2986 23.193 29.3813L26.9252 31.0971C26.9901 31.1266 27.0614 31.1421 27.1339 31.1421H28.5334C28.7911 31.1421 29 31.3342 29 31.5711C29 31.8079 28.7911 32 28.5334 32H20.0501Z" fill="#946DAE"/>
<path d="M14.7585 32V31L14.7557 31L14.7585 32ZM13.507 31.2887L14.387 30.8138L14.3855 30.811L13.507 31.2887ZM17.3376 31.1421L17.3366 32.1421H17.3376V31.1421ZM16.8822 30.8061L17.8543 30.5715L17.8542 30.5712L16.8822 30.8061ZM15.9492 26.9456L14.9771 27.1804L14.9772 27.1806L15.9492 26.9456ZM16.0164 26.6145L15.2069 26.0274L15.2068 26.0275L16.0164 26.6145ZM25.7761 13.1576L24.9686 12.5677L24.9666 12.5705L25.7761 13.1576ZM25.9394 12.0373L24.9993 12.3782L25.0006 12.3816L25.9394 12.0373ZM24.4753 8L25.4154 7.65909L25.1605 6.95615L24.4142 7.00187L24.4753 8ZM18.4754 8.36758L18.4143 7.36945L16.9886 7.45679L17.5585 8.76655L18.4754 8.36758ZM20.1035 12.1093L21.0207 11.7109L21.0204 11.7104L20.1035 12.1093ZM20.0522 12.5142L19.2569 11.9079L19.2565 11.9085L20.0522 12.5142ZM18.0242 15.1783L17.2285 14.5726L17.2282 14.5729L18.0242 15.1783ZM16.036 18.559L15.1192 18.1596L15.119 18.1601L16.036 18.559ZM13.1056 25.295L12.1886 24.8961L12.1881 24.8972L13.1056 25.295ZM12.7851 25.5524L12.5624 24.5775L12.5613 24.5778L12.7851 25.5524ZM11.9796 25.7373L11.7558 24.7627L11.7558 24.7627L11.9796 25.7373ZM11.2727 26.5707H12.2727L12.2727 26.569L11.2727 26.5707ZM11.2727 26.883H10.2727L10.2727 26.8842L11.2727 26.883ZM11.4174 27.4462L10.5386 27.9235L10.5389 27.924L11.4174 27.4462ZM11.5711 22.8985L10.806 23.5424L11.3996 24.2478L12.1508 23.7134L11.5711 22.8985ZM12.757 22.0549L12.1793 21.2386L12.1773 21.24L12.757 22.0549ZM11 22.2199L10.4198 21.4054L9.5369 22.0344L10.2349 22.8638L11 22.2199ZM11.8911 21.5851L12.4713 22.3995L13.1682 21.9031L12.7856 21.1379L11.8911 21.5851ZM11.4194 20.6415L10.524 21.0869L10.5249 21.0887L11.4194 20.6415ZM11.5592 20.1229L12.1363 20.9396L12.139 20.9377L11.5592 20.1229ZM12.4522 19.4875L13.032 20.3022L13.7293 19.806L13.3467 19.0404L12.4522 19.4875ZM11.9807 18.5439L12.8752 18.0969L12.8749 18.0964L11.9807 18.5439ZM12.1326 18.0163L12.6827 18.8514L12.6857 18.8495L12.1326 18.0163ZM13.0807 17.3869L13.6338 18.2201L14.11 17.9039L14.0792 17.3331L13.0807 17.3869ZM13.0228 16.3146L12.0243 16.3679L12.0243 16.3685L13.0228 16.3146ZM13.3764 15.877L13.1539 14.9021L13.1537 14.9021L13.3764 15.877ZM14.4759 15.6261L14.6984 16.6011L15.487 16.4211L15.4758 15.6124L14.4759 15.6261ZM14.4616 14.5843L13.4617 14.5981V14.5981L14.4616 14.5843ZM14.8151 14.1627L15.038 15.1376L15.0387 15.1374L14.8151 14.1627ZM15.9172 13.9099L16.1408 14.8846L16.9277 14.7041L16.9171 13.8968L15.9172 13.9099ZM15.9035 12.866L15.8928 11.8661L14.8905 11.8769L14.9036 12.8791L15.9035 12.866ZM16.8366 12.856L17.8365 12.8432L17.8237 11.8453L16.8258 11.8561L16.8366 12.856ZM16.8544 14.2394L17.8543 14.2268L17.8543 14.2265L16.8544 14.2394ZM16.5008 14.6606L16.278 13.6857L16.2775 13.6858L16.5008 14.6606ZM15.3992 14.913L15.1759 13.9382L14.388 14.1187L14.3993 14.927L15.3992 14.913ZM15.4138 15.9552L16.4137 15.9414L16.4137 15.9412L15.4138 15.9552ZM15.0598 16.3768L14.8371 15.4019L14.8371 15.4019L15.0598 16.3768ZM13.9741 16.6248L13.7514 15.6499L12.9303 15.8374L12.9756 16.6785L13.9741 16.6248ZM14.0254 17.578L15.0239 17.5248L15.0239 17.5243L14.0254 17.578ZM13.8313 17.9476L13.2817 17.1122L13.278 17.1147L13.8313 17.9476ZM12.9916 18.5054L12.4383 17.6724L11.7019 18.1615L12.0971 18.9523L12.9916 18.5054ZM13.4581 19.4391L14.3537 18.9942L14.3527 18.9921L13.4581 19.4391ZM13.3181 19.9573L12.741 19.1406L12.7381 19.1426L13.3181 19.9573ZM12.4258 20.5925L11.8458 19.7779L11.1491 20.2739L11.531 21.0391L12.4258 20.5925ZM12.8969 21.5363L13.792 21.0905L13.7916 21.0897L12.8969 21.5363ZM20.136 31.5711L21.136 31.5819V31.5711H20.136ZM20.0501 32L19.1225 31.6263L18.5691 33H20.0501V32ZM18.2081 30.2842L17.3986 29.6971L16.2475 31.2842H18.2081V30.2842ZM19.5911 28.3774L18.7864 27.7836L18.7816 27.7903L19.5911 28.3774ZM19.6694 28.178L20.664 28.2827L20.6646 28.2762L19.6694 28.178ZM20.2465 22.3284L19.4369 21.7414L19.2779 21.9607L19.2513 22.2302L20.2465 22.3284ZM24.9837 15.7956L25.9718 15.9493L24.1741 15.2085L24.9837 15.7956ZM22.9397 28.9364L23.9278 29.0903L23.9278 29.0901L22.9397 28.9364ZM23.193 29.3813L22.7749 30.2897L22.7753 30.2899L23.193 29.3813ZM26.9252 31.0971L26.5075 32.0057L26.5112 32.0073L26.9252 31.0971ZM39 20C39 30.4934 30.4934 39 20 39V41C31.598 41 41 31.598 41 20H39ZM20 1C30.4934 1 39 9.50659 39 20H41C41 8.40202 31.598 -1 20 -1V1ZM1 20C1 9.50659 9.50659 1 20 1V-1C8.40202 -1 -1 8.40202 -1 20H1ZM20 39C9.50659 39 1 30.4934 1 20H-1C-1 31.598 8.40202 41 20 41V39ZM14.7557 31C14.5627 31.0005 14.4334 30.8998 14.387 30.8138L12.6269 31.7636C13.0521 32.5515 13.8937 33.0024 14.7612 33L14.7557 31ZM18.7372 31H14.7585V33H18.7372V31ZM18.2037 31.571C18.2037 31.1782 18.5232 31 18.7372 31V33C19.4664 33 20.2037 32.4376 20.2037 31.571H18.2037ZM18.7372 32.1421C18.5232 32.1421 18.2037 31.9639 18.2037 31.571H20.2037C20.2037 30.7045 19.4664 30.1421 18.7372 30.1421V32.1421ZM17.3376 32.1421H18.7372V30.1421H17.3376V32.1421ZM15.9101 31.0408C16.0783 31.7374 16.7117 32.1415 17.3366 32.1421L17.3385 30.1421C17.5261 30.1423 17.7809 30.2674 17.8543 30.5715L15.9101 31.0408ZM14.9772 27.1806L15.9102 31.0411L17.8542 30.5712L16.9212 26.7107L14.9772 27.1806ZM15.2068 26.0275C14.9685 26.3562 14.8792 26.775 14.9771 27.1804L16.9212 26.7109C16.964 26.888 16.923 27.0676 16.8259 27.2015L15.2068 26.0275ZM24.9666 12.5705L15.2069 26.0274L16.8259 27.2016L26.5856 13.7447L24.9666 12.5705ZM25.0006 12.3816C25.0209 12.437 25.017 12.5015 24.9686 12.5677L26.5835 13.7475C27.0172 13.154 27.134 12.3903 26.8782 11.6929L25.0006 12.3816ZM23.5353 8.34091L24.9993 12.3782L26.8795 11.6964L25.4154 7.65909L23.5353 8.34091ZM18.5366 9.36571L24.5365 8.99813L24.4142 7.00187L18.4143 7.36945L18.5366 9.36571ZM21.0204 11.7104L19.3924 7.9686L17.5585 8.76655L19.1865 12.5083L21.0204 11.7104ZM20.8475 13.1204C21.1523 12.7206 21.2266 12.1849 21.0207 11.7109L19.1863 12.5077C19.097 12.3022 19.1326 12.0711 19.2569 11.9079L20.8475 13.1204ZM18.8198 15.7841L20.8479 13.1199L19.2565 11.9085L17.2285 14.5726L18.8198 15.7841ZM16.9527 18.9584C17.4401 17.8398 18.0664 16.7746 18.8201 15.7837L17.2282 14.5729C16.3796 15.6887 15.6715 16.8918 15.1192 18.1596L16.9527 18.9584ZM14.0226 25.6939L16.9529 18.9579L15.119 18.1601L12.1886 24.8961L14.0226 25.6939ZM13.0078 26.5273C13.4399 26.4286 13.8314 26.1347 14.023 25.6928L12.1881 24.8972C12.2686 24.7117 12.4218 24.6096 12.5624 24.5775L13.0078 26.5273ZM12.2034 26.712L13.0089 26.527L12.5613 24.5778L11.7558 24.7627L12.2034 26.712ZM12.2727 26.569C12.2728 26.6248 12.2512 26.6669 12.2325 26.6889C12.2148 26.7099 12.201 26.7125 12.2034 26.712L11.7558 24.7627C10.9388 24.9503 10.2712 25.6585 10.2727 26.5725L12.2727 26.569ZM12.2727 26.883V26.5707H10.2727V26.883H12.2727ZM12.2961 26.9689C12.2793 26.9379 12.2728 26.9083 12.2727 26.8818L10.2727 26.8842C10.2732 27.2485 10.3655 27.6048 10.5386 27.9235L12.2961 26.9689ZM14.3855 30.811L12.2959 26.9685L10.5389 27.924L12.6285 31.7664L14.3855 30.811ZM12.1508 23.7134L13.3367 22.8697L12.1773 21.24L10.9914 22.0837L12.1508 23.7134ZM10.2349 22.8638L10.806 23.5424L12.3362 22.2546L11.7651 21.576L10.2349 22.8638ZM11.3109 20.7706L10.4198 21.4054L11.5802 23.0344L12.4713 22.3995L11.3109 20.7706ZM10.5249 21.0887L10.9967 22.0323L12.7856 21.1379L12.3138 20.1943L10.5249 21.0887ZM10.9822 19.3062C10.431 19.6957 10.2011 20.4378 10.524 21.0869L12.3147 20.1961C12.4567 20.4817 12.343 20.7936 12.1363 20.9396L10.9822 19.3062ZM11.8724 18.6727L10.9794 19.3082L12.139 20.9377L13.032 20.3022L11.8724 18.6727ZM11.0861 18.991L11.5577 19.9345L13.3467 19.0404L12.8752 18.0969L11.0861 18.991ZM11.5825 17.1812C11.0054 17.5614 10.7518 18.323 11.0864 18.9915L12.8749 18.0964C13.0227 18.3916 12.8967 18.7105 12.6827 18.8514L11.5825 17.1812ZM12.5276 16.5538L11.5795 17.1832L12.6857 18.8495L13.6338 18.2201L12.5276 16.5538ZM12.0243 16.3685L12.0821 17.4408L14.0792 17.3331L14.0214 16.2607L12.0243 16.3685ZM13.1537 14.9021C12.5201 15.0469 11.9843 15.6211 12.0243 16.3679L14.0214 16.2612C14.0394 16.5988 13.7998 16.8061 13.599 16.8519L13.1537 14.9021ZM14.2535 14.6512L13.1539 14.9021L13.5988 16.852L14.6984 16.6011L14.2535 14.6512ZM13.4617 14.5981L13.476 15.6399L15.4758 15.6124L15.4615 14.5706L13.4617 14.5981ZM14.5923 13.1879C13.9767 13.3286 13.4517 13.8744 13.4617 14.5981L15.4615 14.5706C15.466 14.8963 15.234 15.0928 15.038 15.1376L14.5923 13.1879ZM15.6936 12.9352L14.5916 13.188L15.0387 15.1374L16.1408 14.8846L15.6936 12.9352ZM14.9036 12.8791L14.9173 13.923L16.9171 13.8968L16.9035 12.853L14.9036 12.8791ZM16.8258 11.8561L15.8928 11.8661L15.9143 13.866L16.8474 13.8559L16.8258 11.8561ZM17.8543 14.2265L17.8365 12.8432L15.8367 12.8688L15.8544 14.2522L17.8543 14.2265ZM16.7237 15.6354C17.3394 15.4947 17.8634 14.9494 17.8543 14.2268L15.8544 14.252C15.8503 13.9269 16.0819 13.7306 16.278 13.6857L16.7237 15.6354ZM15.6225 15.8877L16.7241 15.6353L16.2775 13.6858L15.1759 13.9382L15.6225 15.8877ZM16.4137 15.9412L16.3991 14.899L14.3993 14.927L14.4139 15.9692L16.4137 15.9412ZM15.2824 17.3517C15.8971 17.2113 16.4236 16.6666 16.4137 15.9414L14.4139 15.9689C14.4094 15.6421 14.6425 15.4463 14.8371 15.4019L15.2824 17.3517ZM14.1968 17.5997L15.2825 17.3517L14.8371 15.4019L13.7514 15.6499L14.1968 17.5997ZM15.0239 17.5243L14.9727 16.5711L12.9756 16.6785L13.0268 17.6316L15.0239 17.5243ZM14.3809 18.783C14.7869 18.5159 15.0518 18.0484 15.0239 17.5248L13.0268 17.6311C13.0144 17.3986 13.1335 17.2097 13.2817 17.1122L14.3809 18.783ZM13.5449 19.3384L14.3846 18.7806L13.278 17.1147L12.4383 17.6724L13.5449 19.3384ZM14.3527 18.9921L13.8862 18.0584L12.0971 18.9523L12.5636 19.8861L14.3527 18.9921ZM13.8951 20.7739C14.4458 20.3849 14.6762 19.6434 14.3537 18.9942L12.5626 19.884C12.4205 19.598 12.5348 19.2863 12.741 19.1406L13.8951 20.7739ZM13.0057 21.4071L13.898 20.7719L12.7381 19.1426L11.8458 19.7779L13.0057 21.4071ZM13.7916 21.0897L13.3205 20.1459L11.531 21.0391L12.0021 21.9829L13.7916 21.0897ZM13.3347 22.8711C13.8846 22.4819 14.1155 21.7401 13.792 21.0905L12.0017 21.9821C11.8591 21.6956 11.9738 21.3841 12.1793 21.2386L13.3347 22.8711ZM19.136 31.5602C19.1358 31.5816 19.1316 31.6037 19.1225 31.6263L20.9776 32.3737C21.0793 32.1215 21.133 31.8533 21.1359 31.5819L19.136 31.5602ZM18.7364 31.2842C18.8734 31.2842 18.9814 31.3349 19.0492 31.3972C19.1156 31.4583 19.136 31.5203 19.136 31.5711H21.136C21.136 30.2304 19.9808 29.2842 18.7364 29.2842V31.2842ZM18.2081 31.2842H18.7364V29.2842H18.2081V31.2842ZM18.7816 27.7903L17.3986 29.6971L19.0176 30.8713L20.4006 28.9645L18.7816 27.7903ZM18.6749 28.0734C18.6867 27.9616 18.7282 27.8625 18.7864 27.7837L20.3957 28.9712C20.5414 28.7738 20.6372 28.5373 20.6639 28.2827L18.6749 28.0734ZM19.2513 22.2302L18.6743 28.0799L20.6646 28.2762L21.2416 22.4266L19.2513 22.2302ZM24.1741 15.2085L19.4369 21.7414L21.056 22.9155L25.7933 16.3826L24.1741 15.2085ZM23.9278 29.0901L25.9718 15.9493L23.9956 15.6419L21.9516 28.7827L23.9278 29.0901ZM23.6111 28.4729C23.7987 28.5592 23.9744 28.7907 23.9278 29.0903L21.9516 28.7826C21.848 29.4479 22.2278 30.0379 22.7749 30.2897L23.6111 28.4729ZM27.3429 30.1885L23.6107 28.4727L22.7753 30.2899L26.5075 32.0057L27.3429 30.1885ZM27.1339 30.1421C27.2036 30.1421 27.2735 30.1569 27.3393 30.1868L26.5112 32.0073C26.7067 32.0963 26.9193 32.1421 27.1339 32.1421V30.1421ZM28.5334 30.1421H27.1339V32.1421H28.5334V30.1421ZM30 31.5711C30 30.7045 29.2626 30.1421 28.5334 30.1421V32.1421C28.3195 32.1421 28 31.9639 28 31.5711H30ZM28.5334 33C29.2626 33 30 32.4376 30 31.5711H28C28 31.1782 28.3195 31 28.5334 31V33ZM20.0501 33H28.5334V31H20.0501V33Z" fill="#946DAE" mask="url(#path-1-inside-1_1964_3341)"/>
</svg>
