<svg width="40" height="40" viewBox="0 0 40 40" fill="none" xmlns="http://www.w3.org/2000/svg">
<g id="Cramps">
<circle id="Oval Copy 6" cx="20" cy="20" r="19.5" stroke="#946DAE"/>
<path id="Combined Shape" fill-rule="evenodd" clip-rule="evenodd" d="M14.7585 32C14.2282 32.0015 13.7427 31.7256 13.507 31.2887L11.4174 27.4462C11.3224 27.2713 11.273 27.0784 11.2727 26.883V26.5707C11.2721 26.1766 11.5636 25.8329 11.9796 25.7373L12.7851 25.5524C12.9309 25.5191 13.05 25.4232 13.1056 25.295L16.036 18.559C16.5558 17.3658 17.223 16.2316 18.0242 15.1783L20.0522 12.5142C20.1424 12.3959 20.1618 12.2436 20.1035 12.1093L18.4754 8.36758L24.4753 8L25.9394 12.0373C26.0774 12.4137 26.0171 12.8277 25.7761 13.1576L16.0164 26.6145C15.9457 26.7119 15.9216 26.8315 15.9492 26.9456L16.8822 30.8061C16.9296 31.0024 17.1189 31.1419 17.3376 31.1421H18.7372C18.9948 31.1421 19.2037 31.3342 19.2037 31.571C19.2037 31.8079 18.9948 32 18.7372 32H14.7585ZM11.5711 22.8985L12.757 22.0549C12.9292 21.933 12.9873 21.7179 12.8969 21.5363L12.4258 20.5925L13.3181 19.9573C13.4903 19.8356 13.5484 19.6207 13.4581 19.4391L12.9916 18.5054L13.8313 17.9476C13.9602 17.8628 14.0331 17.7235 14.0254 17.578L13.9741 16.6248L15.0598 16.3768C15.2698 16.3288 15.4165 16.1543 15.4138 15.9552L15.3992 14.913L16.5008 14.6606C16.7106 14.6126 16.8569 14.4381 16.8544 14.2394L16.8366 12.856L15.9035 12.866L15.9172 13.9099L14.8151 14.1627C14.6053 14.2107 14.4589 14.3854 14.4616 14.5843L14.4759 15.6261L13.3764 15.877C13.16 15.9265 13.0119 16.1099 13.0228 16.3146L13.0807 17.3869L12.1326 18.0163C11.951 18.1359 11.8873 18.3573 11.9807 18.5439L12.4522 19.4875L11.5592 20.1229C11.387 20.2446 11.3289 20.4597 11.4194 20.6415L11.8911 21.5851L11 22.2199L11.5711 22.8985ZM20.136 31.5711C20.1344 31.7175 20.1054 31.8626 20.0501 32H28.5334C28.7911 32 29 31.8079 29 31.5711C29 31.3342 28.7911 31.1421 28.5334 31.1421H27.1339C27.0614 31.1421 26.9901 31.1266 26.9252 31.0971L23.193 29.3813C23.0133 29.2986 22.9112 29.1193 22.9397 28.9364L24.9837 15.7956L20.2465 22.3284L19.6694 28.178C19.6619 28.2494 19.6348 28.3181 19.5911 28.3774L18.2081 30.2842H18.7364C19.5093 30.2842 20.136 30.8602 20.136 31.5711Z" fill="#946DAE"/>
</g>
</svg>
