<svg width="40" height="40" viewBox="0 0 40 40" fill="none" xmlns="http://www.w3.org/2000/svg">
<mask id="path-1-inside-1_1964_3516" fill="white">
<path fill-rule="evenodd" clip-rule="evenodd" d="M20 40C31.0457 40 40 31.0457 40 20C40 8.9543 31.0457 0 20 0C8.9543 0 0 8.9543 0 20C0 31.0457 8.9543 40 20 40ZM30.0192 19.9999C30.0192 25.8321 25.375 30.5599 19.6461 30.5599C13.9171 30.5599 9.27295 25.8321 9.27295 19.9999C9.27295 14.1678 13.9171 9.43994 19.6461 9.43994C25.375 9.43994 30.0192 14.1678 30.0192 19.9999Z"/>
</mask>
<path fill-rule="evenodd" clip-rule="evenodd" d="M20 40C31.0457 40 40 31.0457 40 20C40 8.9543 31.0457 0 20 0C8.9543 0 0 8.9543 0 20C0 31.0457 8.9543 40 20 40ZM30.0192 19.9999C30.0192 25.8321 25.375 30.5599 19.6461 30.5599C13.9171 30.5599 9.27295 25.8321 9.27295 19.9999C9.27295 14.1678 13.9171 9.43994 19.6461 9.43994C25.375 9.43994 30.0192 14.1678 30.0192 19.9999Z" fill="#874C48"/>
<path d="M39 20C39 30.4934 30.4934 39 20 39V41C31.598 41 41 31.598 41 20H39ZM20 1C30.4934 1 39 9.50659 39 20H41C41 8.40202 31.598 -1 20 -1V1ZM1 20C1 9.50659 9.50659 1 20 1V-1C8.40202 -1 -1 8.40202 -1 20H1ZM20 39C9.50659 39 1 30.4934 1 20H-1C-1 31.598 8.40202 41 20 41V39ZM19.6461 31.5599C25.944 31.5599 31.0192 26.3674 31.0192 19.9999H29.0192C29.0192 25.2967 24.8059 29.5599 19.6461 29.5599V31.5599ZM8.27295 19.9999C8.27295 26.3674 13.3481 31.5599 19.6461 31.5599V29.5599C14.4862 29.5599 10.2729 25.2967 10.2729 19.9999H8.27295ZM19.6461 8.43994C13.3481 8.43994 8.27295 13.6324 8.27295 19.9999H10.2729C10.2729 14.7032 14.4862 10.4399 19.6461 10.4399V8.43994ZM31.0192 19.9999C31.0192 13.6324 25.944 8.43994 19.6461 8.43994V10.4399C24.8059 10.4399 29.0192 14.7032 29.0192 19.9999H31.0192Z" fill="#874C48" mask="url(#path-1-inside-1_1964_3516)"/>
<path d="M22.352 24.606V25.2823C22.3525 25.3473 22.294 25.4067 22.2014 25.4352C22.1089 25.4637 21.9986 25.4562 21.9178 25.4159L21.347 25.1251C21.1512 25.0262 20.8728 25.0262 20.677 25.1251L20.0071 25.4633C19.8113 25.5622 19.5329 25.5622 19.3371 25.4633L18.6671 25.1251C18.4713 25.0262 18.193 25.0262 17.9971 25.1251L17.4263 25.4159C17.3459 25.456 17.2363 25.4636 17.1439 25.4356C17.0516 25.4075 16.9927 25.3487 16.9922 25.284V24.6077C16.993 24.5042 17.0666 24.4063 17.1932 24.3405L17.9971 23.9297C18.193 23.8307 18.4713 23.8307 18.6671 23.9297L19.3371 24.2678C19.5329 24.3667 19.8113 24.3667 20.0071 24.2678L20.677 23.9297C20.8728 23.8307 21.1512 23.8307 21.347 23.9297L22.151 24.3405C22.2768 24.4059 22.3504 24.5031 22.352 24.606Z" fill="#874C48"/>
<path d="M16.2634 19.5411C17.3843 19.5411 18.2929 18.6161 18.2929 17.475C18.2929 16.334 17.3843 15.4089 16.2634 15.4089C15.1425 15.4089 14.2339 16.334 14.2339 17.475C14.2339 18.6161 15.1425 19.5411 16.2634 19.5411Z" fill="#874C48"/>
<path d="M23.0285 19.5409C24.1494 19.5409 25.0581 18.6158 25.0581 17.4748C25.0581 16.3337 24.1494 15.4087 23.0285 15.4087C21.9077 15.4087 20.999 16.3337 20.999 17.4748C20.999 18.6158 21.9077 19.5409 23.0285 19.5409Z" fill="#874C48"/>
<path d="M16.2634 18.6225C16.637 18.6225 16.9399 18.3142 16.9399 17.9338C16.9399 17.5535 16.637 17.2451 16.2634 17.2451C15.8898 17.2451 15.5869 17.5535 15.5869 17.9338C15.5869 18.3142 15.8898 18.6225 16.2634 18.6225Z" fill="white"/>
<path d="M23.0286 18.6225C23.4022 18.6225 23.7051 18.3142 23.7051 17.9338C23.7051 17.5535 23.4022 17.2451 23.0286 17.2451C22.6549 17.2451 22.3521 17.5535 22.3521 17.9338C22.3521 18.3142 22.6549 18.6225 23.0286 18.6225Z" fill="white"/>
</svg>
