<svg width="40" height="40" viewBox="0 0 40 40" fill="none" xmlns="http://www.w3.org/2000/svg">
<path d="M19.6461 30.5599C25.375 30.5599 30.0192 25.8321 30.0192 19.9999C30.0192 14.1678 25.375 9.43994 19.6461 9.43994C13.9171 9.43994 9.27295 14.1678 9.27295 19.9999C9.27295 25.8321 13.9171 30.5599 19.6461 30.5599Z" fill="#874C48"/>
<path d="M22.3522 24.6057V25.2821C22.3528 25.3471 22.2943 25.4065 22.2017 25.435C22.1091 25.4635 21.9989 25.456 21.9181 25.4157L21.3473 25.1248C21.1514 25.0259 20.8731 25.0259 20.6773 25.1248L20.0073 25.463C19.8115 25.5619 19.5331 25.5619 19.3373 25.463L18.6674 25.1248C18.4716 25.0259 18.1932 25.0259 17.9974 25.1248L17.4266 25.4157C17.3461 25.4558 17.2365 25.4634 17.1442 25.4353C17.0518 25.4073 16.9929 25.3485 16.9924 25.2838V24.6074C16.9932 24.504 17.0669 24.4061 17.1934 24.3403L17.9974 23.9294C18.1932 23.8305 18.4716 23.8305 18.6674 23.9294L19.3373 24.2676C19.5331 24.3665 19.8115 24.3665 20.0073 24.2676L20.6773 23.9294C20.8731 23.8305 21.1514 23.8305 21.3473 23.9294L22.1512 24.3403C22.2771 24.4057 22.3506 24.5029 22.3522 24.6057Z" fill="white"/>
<path d="M16.2635 19.5411C17.3844 19.5411 18.2931 18.6161 18.2931 17.475C18.2931 16.334 17.3844 15.4089 16.2635 15.4089C15.1427 15.4089 14.234 16.334 14.234 17.475C14.234 18.6161 15.1427 19.5411 16.2635 19.5411Z" fill="white"/>
<path d="M23.0287 19.5409C24.1495 19.5409 25.0582 18.6158 25.0582 17.4748C25.0582 16.3337 24.1495 15.4087 23.0287 15.4087C21.9078 15.4087 20.9991 16.3337 20.9991 17.4748C20.9991 18.6158 21.9078 19.5409 23.0287 19.5409Z" fill="white"/>
<path d="M16.2635 18.6225C16.6372 18.6225 16.9401 18.3142 16.9401 17.9338C16.9401 17.5535 16.6372 17.2451 16.2635 17.2451C15.8899 17.2451 15.587 17.5535 15.587 17.9338C15.587 18.3142 15.8899 18.6225 16.2635 18.6225Z" fill="#F6D061" fill-opacity="0.24"/>
<path d="M23.0287 18.6225C23.4023 18.6225 23.7052 18.3142 23.7052 17.9338C23.7052 17.5535 23.4023 17.2451 23.0287 17.2451C22.6551 17.2451 22.3522 17.5535 22.3522 17.9338C22.3522 18.3142 22.6551 18.6225 23.0287 18.6225Z" fill="#F6D061" fill-opacity="0.24"/>
<circle cx="20" cy="20" r="19.5" stroke="#874C48"/>
</svg>
