<svg width="41" height="40" viewBox="0 0 41 40" fill="none" xmlns="http://www.w3.org/2000/svg">
<mask id="path-1-inside-1_1964_3556" fill="white">
<path fill-rule="evenodd" clip-rule="evenodd" d="M20.7207 40C31.7664 40 40.7207 31.0457 40.7207 20C40.7207 8.9543 31.7664 0 20.7207 0C9.67501 0 0.720703 8.9543 0.720703 20C0.720703 31.0457 9.67501 40 20.7207 40ZM15.1211 10.5299C11.8882 12.4456 9.7207 15.9697 9.7207 20C9.7207 26.0751 14.6456 31 20.7207 31C26.7958 31 31.7207 26.0751 31.7207 20C31.7207 16.1045 29.6958 12.6819 26.6411 10.7275V12.48H24.7211V10.5601H26.6411V8.64014H24.7211V9.75002L24.721 9.75001V10.56H22.8011V12.48H20.8811V10.56H22.801V9.60018H24.721V7.68018H22.801V9.19644C22.1781 9.07721 21.5365 9.01051 20.8811 9.00115V7.68018H18.9611V9.13999C18.2995 9.24635 17.6576 9.41171 17.0411 9.6305V8.64014H15.1211V10.5299ZM17.041 10.5601V12.48H15.1211V14.4H17.0411V12.48H18.961V10.56H17.0411V10.5601H17.041ZM15.001 16.5107C14.9967 16.2678 15.1903 16.0674 15.4332 16.0631L18.0728 16.017C18.3158 16.0128 18.5162 16.2063 18.5205 16.4493C18.5247 16.6923 18.3312 16.8927 18.0882 16.8969L17.0271 16.9154C16.9754 17.1248 16.7864 17.28 16.5611 17.28C16.3416 17.28 16.1565 17.1327 16.0993 16.9316L15.4486 16.943C15.2056 16.9472 15.0052 16.7537 15.001 16.5107ZM15.986 23.5C15.986 23.2239 16.2098 23 16.486 23H25.2761C25.5522 23 25.7761 23.2239 25.7761 23.5C25.7761 23.7761 25.5522 24 25.2761 24H16.486C16.2098 24 15.986 23.7761 15.986 23.5ZM23.2118 16.5138C23.2076 16.2708 23.4011 16.0704 23.6441 16.0662L26.2837 16.0201C26.5266 16.0159 26.727 16.2094 26.7313 16.4523C26.7355 16.6953 26.542 16.8957 26.299 16.9L25.6682 16.911C25.6181 17.1226 25.428 17.28 25.2011 17.28C24.98 17.28 24.7939 17.1306 24.7381 16.9272L23.6594 16.946C23.4164 16.9503 23.216 16.7567 23.2118 16.5138ZM20.8811 12.48H18.9611V14.4H20.8811V12.48ZM17.041 5.75977H18.961V7.67977H17.041V5.75977ZM21.841 4.7998H19.921V6.7198H21.841V4.7998ZM23.7611 3.83984H25.6811V5.75984H23.7611V3.83984ZM31.441 7.68018H29.521V9.60018H31.441V7.68018ZM11.281 6.72021H13.201V8.64021H11.281V6.72021ZM14.161 3.83984H16.081V5.75984H14.161V3.83984Z"/>
</mask>
<path fill-rule="evenodd" clip-rule="evenodd" d="M20.7207 40C31.7664 40 40.7207 31.0457 40.7207 20C40.7207 8.9543 31.7664 0 20.7207 0C9.67501 0 0.720703 8.9543 0.720703 20C0.720703 31.0457 9.67501 40 20.7207 40ZM15.1211 10.5299C11.8882 12.4456 9.7207 15.9697 9.7207 20C9.7207 26.0751 14.6456 31 20.7207 31C26.7958 31 31.7207 26.0751 31.7207 20C31.7207 16.1045 29.6958 12.6819 26.6411 10.7275V12.48H24.7211V10.5601H26.6411V8.64014H24.7211V9.75002L24.721 9.75001V10.56H22.8011V12.48H20.8811V10.56H22.801V9.60018H24.721V7.68018H22.801V9.19644C22.1781 9.07721 21.5365 9.01051 20.8811 9.00115V7.68018H18.9611V9.13999C18.2995 9.24635 17.6576 9.41171 17.0411 9.6305V8.64014H15.1211V10.5299ZM17.041 10.5601V12.48H15.1211V14.4H17.0411V12.48H18.961V10.56H17.0411V10.5601H17.041ZM15.001 16.5107C14.9967 16.2678 15.1903 16.0674 15.4332 16.0631L18.0728 16.017C18.3158 16.0128 18.5162 16.2063 18.5205 16.4493C18.5247 16.6923 18.3312 16.8927 18.0882 16.8969L17.0271 16.9154C16.9754 17.1248 16.7864 17.28 16.5611 17.28C16.3416 17.28 16.1565 17.1327 16.0993 16.9316L15.4486 16.943C15.2056 16.9472 15.0052 16.7537 15.001 16.5107ZM15.986 23.5C15.986 23.2239 16.2098 23 16.486 23H25.2761C25.5522 23 25.7761 23.2239 25.7761 23.5C25.7761 23.7761 25.5522 24 25.2761 24H16.486C16.2098 24 15.986 23.7761 15.986 23.5ZM23.2118 16.5138C23.2076 16.2708 23.4011 16.0704 23.6441 16.0662L26.2837 16.0201C26.5266 16.0159 26.727 16.2094 26.7313 16.4523C26.7355 16.6953 26.542 16.8957 26.299 16.9L25.6682 16.911C25.6181 17.1226 25.428 17.28 25.2011 17.28C24.98 17.28 24.7939 17.1306 24.7381 16.9272L23.6594 16.946C23.4164 16.9503 23.216 16.7567 23.2118 16.5138ZM20.8811 12.48H18.9611V14.4H20.8811V12.48ZM17.041 5.75977H18.961V7.67977H17.041V5.75977ZM21.841 4.7998H19.921V6.7198H21.841V4.7998ZM23.7611 3.83984H25.6811V5.75984H23.7611V3.83984ZM31.441 7.68018H29.521V9.60018H31.441V7.68018ZM11.281 6.72021H13.201V8.64021H11.281V6.72021ZM14.161 3.83984H16.081V5.75984H14.161V3.83984Z" fill="#874C48"/>
<path d="M15.1211 10.5299L15.6309 11.3902L16.1211 11.0997V10.5299H15.1211ZM26.6411 10.7275L27.18 9.88515L25.6411 8.90051V10.7275H26.6411ZM26.6411 12.48V13.48H27.6411V12.48H26.6411ZM24.7211 12.48H23.7211V13.48H24.7211V12.48ZM24.7211 10.5601V9.56014H23.7211V10.5601H24.7211ZM26.6411 10.5601V11.5601H27.6411V10.5601H26.6411ZM26.6411 8.64014H27.6411V7.64014H26.6411V8.64014ZM24.7211 8.64014V7.64014H23.7211V8.64014H24.7211ZM24.7211 9.75002L24.3567 10.6813L25.7211 11.2152V9.75002H24.7211ZM24.721 9.75001L25.0854 8.81876L23.721 8.28487V9.75001H24.721ZM24.721 10.56V11.56H25.721V10.56H24.721ZM22.8011 10.56V9.56H21.8011V10.56H22.8011ZM22.8011 12.48V13.48H23.8011V12.48H22.8011ZM20.8811 12.48H19.8811V13.48H20.8811V12.48ZM20.8811 10.56V9.56H19.8811V10.56H20.8811ZM22.801 10.56V11.56H23.801V10.56H22.801ZM22.801 9.60018V8.60018H21.801V9.60018H22.801ZM24.721 9.60018V10.6002H25.721V9.60018H24.721ZM24.721 7.68018H25.721V6.68018H24.721V7.68018ZM22.801 7.68018V6.68018H21.801V7.68018H22.801ZM22.801 9.19644L22.613 10.1786L23.801 10.406V9.19644H22.801ZM20.8811 9.00115H19.8811V9.98696L20.8668 10.001L20.8811 9.00115ZM20.8811 7.68018H21.8811V6.68018H20.8811V7.68018ZM18.9611 7.68018V6.68018H17.9611V7.68018H18.9611ZM18.9611 9.13999L19.1198 10.1273L19.9611 9.99205V9.13999H18.9611ZM17.0411 9.6305H16.0411V11.0465L17.3755 10.5729L17.0411 9.6305ZM17.0411 8.64014H18.0411V7.64014H17.0411V8.64014ZM15.1211 8.64014V7.64014H14.1211V8.64014H15.1211ZM17.041 10.5601V9.56014H16.041V10.5601H17.041ZM17.041 12.48V13.48H18.041V12.48H17.041ZM15.1211 12.48V11.48H14.1211V12.48H15.1211ZM15.1211 14.4H14.1211V15.4H15.1211V14.4ZM17.0411 14.4V15.4H18.0411V14.4H17.0411ZM17.0411 12.48V11.48H16.0411V12.48H17.0411ZM18.961 12.48V13.48H19.961V12.48H18.961ZM18.961 10.56H19.961V9.56H18.961V10.56ZM17.0411 10.56V9.56H16.0411V10.56H17.0411ZM17.0411 10.5601V11.5601H18.0411V10.5601H17.0411ZM15.4332 16.0631L15.4158 15.0633H15.4158L15.4332 16.0631ZM15.001 16.5107L14.0011 16.5282L15.001 16.5107ZM18.0728 16.017L18.0903 17.0169H18.0903L18.0728 16.017ZM18.5205 16.4493L19.5203 16.4318V16.4318L18.5205 16.4493ZM18.0882 16.8969L18.1056 17.8968H18.1057L18.0882 16.8969ZM17.0271 16.9154L17.0096 15.9156L16.2406 15.929L16.0562 16.6758L17.0271 16.9154ZM16.0993 16.9316L17.0612 16.658L16.8507 15.9184L16.0819 15.9318L16.0993 16.9316ZM15.4486 16.943L15.466 17.9428H15.466L15.4486 16.943ZM23.6441 16.0662L23.6266 15.0663H23.6266L23.6441 16.0662ZM23.2118 16.5138L22.212 16.5312V16.5312L23.2118 16.5138ZM26.2837 16.0201L26.2662 15.0202H26.2662L26.2837 16.0201ZM26.7313 16.4523L25.7314 16.4698V16.4698L26.7313 16.4523ZM26.299 16.9L26.2816 15.9001H26.2816L26.299 16.9ZM25.6682 16.911L25.6507 15.9111L24.874 15.9247L24.6951 16.6807L25.6682 16.911ZM24.7381 16.9272L25.7025 16.6628L25.4972 15.9138L24.7207 15.9274L24.7381 16.9272ZM23.6594 16.946L23.642 15.9462H23.642L23.6594 16.946ZM18.9611 12.48V11.48H17.9611V12.48H18.9611ZM20.8811 12.48H21.8811V11.48H20.8811V12.48ZM18.9611 14.4H17.9611V15.4H18.9611V14.4ZM20.8811 14.4V15.4H21.8811V14.4H20.8811ZM18.961 5.75977H19.961V4.75977H18.961V5.75977ZM17.041 5.75977V4.75977H16.041V5.75977H17.041ZM18.961 7.67977V8.67977H19.961V7.67977H18.961ZM17.041 7.67977H16.041V8.67977H17.041V7.67977ZM19.921 4.7998V3.7998H18.921V4.7998H19.921ZM21.841 4.7998H22.841V3.7998H21.841V4.7998ZM19.921 6.7198H18.921V7.7198H19.921V6.7198ZM21.841 6.7198V7.7198H22.841V6.7198H21.841ZM25.6811 3.83984H26.6811V2.83984H25.6811V3.83984ZM23.7611 3.83984V2.83984H22.7611V3.83984H23.7611ZM25.6811 5.75984V6.75984H26.6811V5.75984H25.6811ZM23.7611 5.75984H22.7611V6.75984H23.7611V5.75984ZM29.521 7.68018V6.68018H28.521V7.68018H29.521ZM31.441 7.68018H32.441V6.68018H31.441V7.68018ZM29.521 9.60018H28.521V10.6002H29.521V9.60018ZM31.441 9.60018V10.6002H32.441V9.60018H31.441ZM13.201 6.72021H14.201V5.72021H13.201V6.72021ZM11.281 6.72021V5.72021H10.281V6.72021H11.281ZM13.201 8.64021V9.64021H14.201V8.64021H13.201ZM11.281 8.64021H10.281V9.64021H11.281V8.64021ZM16.081 3.83984H17.081V2.83984H16.081V3.83984ZM14.161 3.83984V2.83984H13.161V3.83984H14.161ZM16.081 5.75984V6.75984H17.081V5.75984H16.081ZM14.161 5.75984H13.161V6.75984H14.161V5.75984ZM39.7207 20C39.7207 30.4934 31.2141 39 20.7207 39V41C32.3187 41 41.7207 31.598 41.7207 20H39.7207ZM20.7207 1C31.2141 1 39.7207 9.50659 39.7207 20H41.7207C41.7207 8.40202 32.3187 -1 20.7207 -1V1ZM1.7207 20C1.7207 9.50659 10.2273 1 20.7207 1V-1C9.12272 -1 -0.279297 8.40202 -0.279297 20H1.7207ZM20.7207 39C10.2273 39 1.7207 30.4934 1.7207 20H-0.279297C-0.279297 31.598 9.12272 41 20.7207 41V39ZM10.7207 20C10.7207 16.3373 12.6893 13.1333 15.6309 11.3902L14.6113 9.66963C11.0871 11.758 8.7207 15.6021 8.7207 20H10.7207ZM20.7207 30C15.1979 30 10.7207 25.5228 10.7207 20H8.7207C8.7207 26.6274 14.0933 32 20.7207 32V30ZM30.7207 20C30.7207 25.5228 26.2436 30 20.7207 30V32C27.3481 32 32.7207 26.6274 32.7207 20H30.7207ZM26.1021 11.5698C28.8817 13.3483 30.7207 16.4597 30.7207 20H32.7207C32.7207 15.7493 30.5098 12.0156 27.18 9.88515L26.1021 11.5698ZM27.6411 12.48V10.7275H25.6411V12.48H27.6411ZM24.7211 13.48H26.6411V11.48H24.7211V13.48ZM23.7211 10.5601V12.48H25.7211V10.5601H23.7211ZM26.6411 9.56014H24.7211V11.5601H26.6411V9.56014ZM25.6411 8.64014V10.5601H27.6411V8.64014H25.6411ZM24.7211 9.64014H26.6411V7.64014H24.7211V9.64014ZM25.7211 9.75002V8.64014H23.7211V9.75002H25.7211ZM24.3566 10.6812L24.3567 10.6813L25.0855 8.81878L25.0854 8.81876L24.3566 10.6812ZM25.721 10.56V9.75001H23.721V10.56H25.721ZM22.8011 11.56H24.721V9.56H22.8011V11.56ZM23.8011 12.48V10.56H21.8011V12.48H23.8011ZM20.8811 13.48H22.8011V11.48H20.8811V13.48ZM19.8811 10.56V12.48H21.8811V10.56H19.8811ZM22.801 9.56H20.8811V11.56H22.801V9.56ZM21.801 9.60018V10.56H23.801V9.60018H21.801ZM24.721 8.60018H22.801V10.6002H24.721V8.60018ZM23.721 7.68018V9.60018H25.721V7.68018H23.721ZM22.801 8.68018H24.721V6.68018H22.801V8.68018ZM23.801 9.19644V7.68018H21.801V9.19644H23.801ZM20.8668 10.001C21.4636 10.0096 22.0471 10.0703 22.613 10.1786L22.989 8.21427C22.3091 8.08413 21.6094 8.01145 20.8953 8.00125L20.8668 10.001ZM19.8811 7.68018V9.00115H21.8811V7.68018H19.8811ZM18.9611 8.68018H20.8811V6.68018H18.9611V8.68018ZM19.9611 9.13999V7.68018H17.9611V9.13999H19.9611ZM17.3755 10.5729C17.9355 10.3742 18.5186 10.224 19.1198 10.1273L18.8023 8.15266C18.0804 8.26874 17.3797 8.44923 16.7067 8.68808L17.3755 10.5729ZM16.0411 8.64014V9.6305H18.0411V8.64014H16.0411ZM15.1211 9.64014H17.0411V7.64014H15.1211V9.64014ZM16.1211 10.5299V8.64014H14.1211V10.5299H16.1211ZM16.041 10.5601V12.48H18.041V10.5601H16.041ZM17.041 11.48H15.1211V13.48H17.041V11.48ZM14.1211 12.48V14.4H16.1211V12.48H14.1211ZM15.1211 15.4H17.0411V13.4H15.1211V15.4ZM18.0411 14.4V12.48H16.0411V14.4H18.0411ZM17.0411 13.48H18.961V11.48H17.0411V13.48ZM19.961 12.48V10.56H17.961V12.48H19.961ZM18.961 9.56H17.0411V11.56H18.961V9.56ZM16.0411 10.56V10.5601H18.0411V10.56H16.0411ZM17.0411 9.56014H17.041V11.5601H17.0411V9.56014ZM15.4158 15.0633C14.6206 15.0772 13.9873 15.733 14.0011 16.5282L16.0008 16.4933C16.0062 16.8025 15.7599 17.0576 15.4507 17.063L15.4158 15.0633ZM18.0554 15.0172L15.4158 15.0633L15.4507 17.063L18.0903 17.0169L18.0554 15.0172ZM19.5203 16.4318C19.5064 15.6367 18.8506 15.0033 18.0554 15.0172L18.0903 17.0169C17.7811 17.0223 17.526 16.776 17.5206 16.4668L19.5203 16.4318ZM18.1057 17.8968C18.9008 17.8829 19.5342 17.227 19.5203 16.4318L17.5206 16.4667C17.5152 16.1575 17.7615 15.9025 18.0707 15.8971L18.1057 17.8968ZM17.0445 17.9153L18.1056 17.8968L18.0707 15.8971L17.0096 15.9156L17.0445 17.9153ZM16.5611 18.28C17.2571 18.28 17.8386 17.8005 17.9979 17.1551L16.0562 16.6758C16.1122 16.4491 16.3156 16.28 16.5611 16.28V18.28ZM15.1375 17.2053C15.3138 17.8248 15.883 18.28 16.5611 18.28V16.28C16.8002 16.28 16.9993 16.4406 17.0612 16.658L15.1375 17.2053ZM15.466 17.9428L16.1168 17.9315L16.0819 15.9318L15.4311 15.9431L15.466 17.9428ZM14.0011 16.5282C14.015 17.3234 14.6709 17.9567 15.466 17.9428L15.4311 15.9431C15.7404 15.9377 15.9954 16.184 16.0008 16.4933L14.0011 16.5282ZM16.486 22C15.6575 22 14.986 22.6716 14.986 23.5H16.986C16.986 23.7761 16.7621 24 16.486 24V22ZM25.2761 22H16.486V24H25.2761V22ZM26.7761 23.5C26.7761 22.6716 26.1045 22 25.2761 22V24C24.9999 24 24.7761 23.7761 24.7761 23.5H26.7761ZM25.2761 25C26.1045 25 26.7761 24.3284 26.7761 23.5H24.7761C24.7761 23.2239 24.9999 23 25.2761 23V25ZM16.486 25H25.2761V23H16.486V25ZM14.986 23.5C14.986 24.3284 15.6575 25 16.486 25V23C16.7621 23 16.986 23.2239 16.986 23.5H14.986ZM23.6266 15.0663C22.8314 15.0802 22.1981 15.7361 22.212 16.5312L24.2116 16.4963C24.217 16.8056 23.9707 17.0606 23.6615 17.066L23.6266 15.0663ZM26.2662 15.0202L23.6266 15.0663L23.6615 17.066L26.3011 17.0199L26.2662 15.0202ZM27.7311 16.4349C27.7172 15.6397 27.0614 15.0064 26.2662 15.0202L26.3011 17.0199C25.9919 17.0253 25.7368 16.779 25.7314 16.4698L27.7311 16.4349ZM26.3165 17.8998C27.1116 17.8859 27.745 17.2301 27.7311 16.4349L25.7314 16.4698C25.726 16.1606 25.9723 15.9055 26.2816 15.9001L26.3165 17.8998ZM25.6856 17.9108L26.3165 17.8998L26.2816 15.9001L25.6507 15.9111L25.6856 17.9108ZM25.2011 18.28C25.902 18.28 26.4869 17.7937 26.6413 17.1413L24.6951 16.6807C24.7493 16.4514 24.954 16.28 25.2011 16.28V18.28ZM23.7737 17.1916C23.9455 17.8182 24.5181 18.28 25.2011 18.28V16.28C25.442 16.28 25.6422 16.4429 25.7025 16.6628L23.7737 17.1916ZM23.6769 17.9459L24.7556 17.927L24.7207 15.9274L23.642 15.9462L23.6769 17.9459ZM22.212 16.5312C22.2258 17.3264 22.8817 17.9598 23.6769 17.9459L23.642 15.9462C23.9512 15.9408 24.2062 16.1871 24.2116 16.4963L22.212 16.5312ZM18.9611 13.48H20.8811V11.48H18.9611V13.48ZM19.9611 14.4V12.48H17.9611V14.4H19.9611ZM20.8811 13.4H18.9611V15.4H20.8811V13.4ZM19.8811 12.48V14.4H21.8811V12.48H19.8811ZM18.961 4.75977H17.041V6.75977H18.961V4.75977ZM19.961 7.67977V5.75977H17.961V7.67977H19.961ZM17.041 8.67977H18.961V6.67977H17.041V8.67977ZM16.041 5.75977V7.67977H18.041V5.75977H16.041ZM19.921 5.7998H21.841V3.7998H19.921V5.7998ZM20.921 6.7198V4.7998H18.921V6.7198H20.921ZM21.841 5.7198H19.921V7.7198H21.841V5.7198ZM20.841 4.7998V6.7198H22.841V4.7998H20.841ZM25.6811 2.83984H23.7611V4.83984H25.6811V2.83984ZM26.6811 5.75984V3.83984H24.6811V5.75984H26.6811ZM23.7611 6.75984H25.6811V4.75984H23.7611V6.75984ZM22.7611 3.83984V5.75984H24.7611V3.83984H22.7611ZM29.521 8.68018H31.441V6.68018H29.521V8.68018ZM30.521 9.60018V7.68018H28.521V9.60018H30.521ZM31.441 8.60018H29.521V10.6002H31.441V8.60018ZM30.441 7.68018V9.60018H32.441V7.68018H30.441ZM13.201 5.72021H11.281V7.72021H13.201V5.72021ZM14.201 8.64021V6.72021H12.201V8.64021H14.201ZM11.281 9.64021H13.201V7.64021H11.281V9.64021ZM10.281 6.72021V8.64021H12.281V6.72021H10.281ZM16.081 2.83984H14.161V4.83984H16.081V2.83984ZM17.081 5.75984V3.83984H15.081V5.75984H17.081ZM14.161 6.75984H16.081V4.75984H14.161V6.75984ZM13.161 3.83984V5.75984H15.161V3.83984H13.161Z" fill="#874C48" mask="url(#path-1-inside-1_1964_3556)"/>
</svg>
