<svg width="41" height="40" viewBox="0 0 41 40" fill="none" xmlns="http://www.w3.org/2000/svg">
<circle cx="20.7207" cy="20" r="19.5" stroke="#874C48"/>
<path fill-rule="evenodd" clip-rule="evenodd" d="M9.7207 20C9.7207 15.9697 11.8882 12.4456 15.1211 10.5299V10.56H17.041V12.48H15.1211V14.4H17.0411V12.48H18.961V10.56H17.0411V9.6305C18.1916 9.22223 19.4302 9 20.7207 9C21.4319 9 22.1274 9.0675 22.801 9.19644V10.56H20.8811V12.48H22.8011V10.56H24.721V9.75001C25.296 9.97459 25.8475 10.2462 26.3708 10.56H24.7211V12.48H26.6411V10.7275C29.6958 12.6819 31.7207 16.1045 31.7207 20C31.7207 26.0751 26.7958 31 20.7207 31C14.6456 31 9.7207 26.0751 9.7207 20ZM15.4332 16.0631C15.1903 16.0674 14.9967 16.2678 15.001 16.5107C15.0052 16.7537 15.2056 16.9472 15.4486 16.943L16.0993 16.9316C16.1565 17.1327 16.3416 17.28 16.5611 17.28C16.7864 17.28 16.9754 17.1248 17.0271 16.9154L18.0882 16.8969C18.3312 16.8927 18.5247 16.6923 18.5204 16.4493C18.5162 16.2063 18.3158 16.0128 18.0728 16.017L15.4332 16.0631ZM16.486 23C16.2098 23 15.986 23.2239 15.986 23.5C15.986 23.7761 16.2098 24 16.486 24H25.2761C25.5522 24 25.7761 23.7761 25.7761 23.5C25.7761 23.2239 25.5522 23 25.2761 23H16.486ZM23.6441 16.0662C23.4011 16.0704 23.2076 16.2708 23.2118 16.5138C23.216 16.7567 23.4164 16.9503 23.6594 16.946L24.7381 16.9272C24.7939 17.1306 24.98 17.28 25.2011 17.28C25.428 17.28 25.6181 17.1226 25.6682 16.911L26.299 16.9C26.542 16.8957 26.7355 16.6953 26.7313 16.4523C26.727 16.2094 26.5266 16.0158 26.2837 16.0201L23.6441 16.0662ZM18.9611 12.48H20.8811V14.4H18.9611V12.48Z" fill="#874C48"/>
<rect x="17.041" y="5.76001" width="1.92" height="1.92" fill="#874C48"/>
<path d="M18.9611 7.67993H20.8811V9.59993H18.9611V7.67993Z" fill="#874C48"/>
<rect x="22.801" y="7.67993" width="1.92" height="1.92" fill="#874C48"/>
<rect x="19.921" y="4.80005" width="1.92" height="1.92" fill="#874C48"/>
<rect x="23.7611" y="3.84009" width="1.92" height="1.92" fill="#874C48"/>
<rect x="29.521" y="7.67993" width="1.92" height="1.92" fill="#874C48"/>
<rect x="11.281" y="6.71997" width="1.92" height="1.92" fill="#874C48"/>
<rect x="24.7211" y="8.63989" width="1.92" height="1.92" fill="#874C48"/>
<rect x="14.161" y="3.84009" width="1.92" height="1.92" fill="#874C48"/>
<rect x="15.1211" y="8.63989" width="1.92" height="1.92" fill="#874C48"/>
</svg>
