<svg width="457" height="310" viewBox="0 0 457 310" fill="none" xmlns="http://www.w3.org/2000/svg">
<path opacity="0.25" d="M170.617 290.343C188.094 298.432 206.654 305.632 226.054 308.618C263.834 314.421 294.015 301.774 329.962 273.151C372.608 237.743 391.466 176.209 381.301 124.027C374.679 89.9843 352.471 60.9609 327.259 38.8276C302.514 17.1223 272.647 2.0248 238.502 0.212797C178.138 -3.00894 114.127 30.5426 87.5202 87.9065C60.4465 146.265 71.6333 216.499 117.732 257.295C133.243 271.042 151.712 281.584 170.617 290.343Z" fill="#EBDBCD"/>
<path d="M145.529 90.8966C144.135 90.9188 142.796 91.4528 141.77 92.397C141.328 84.7405 136.673 78.7168 130.971 78.7168C124.983 78.7168 120.133 85.3363 120.133 93.5444C120.133 94.3899 120.188 95.2345 120.296 96.073C119.164 94.9148 117.622 94.2476 116.002 94.2152C112.723 94.2152 109.948 97.088 108.99 101.055H152.497C152.497 100.861 152.497 100.663 152.497 100.464C152.528 95.1728 149.4 90.8966 145.529 90.8966Z" fill="#F9E4F8"/>
<path d="M191.455 240.342C190.396 236.785 188.119 234.327 185.476 234.327C184.814 234.348 184.163 234.499 183.561 234.774C182.959 235.048 182.417 235.439 181.967 235.925C181.354 231.141 178.688 227.54 175.489 227.54C172.069 227.54 169.253 231.662 168.914 236.953C168.305 236.728 167.661 236.613 167.012 236.613C164.633 236.613 162.568 238.122 161.509 240.342H191.455Z" fill="#F9E4F8"/>
<path d="M143.389 200.202C142.501 200.215 141.65 200.558 141.002 201.164C140.499 197.109 138.68 194.104 136.505 194.104C133.945 194.104 131.871 198.274 131.871 203.415V203.441C131.252 202.85 130.433 202.514 129.576 202.501C127.705 202.501 126.134 204.165 125.711 206.402H147.564C147.592 206.161 147.607 205.918 147.608 205.674C147.608 202.651 145.719 200.202 143.389 200.202Z" fill="#F9E4F8"/>
<path d="M324.577 92.6358C324.171 88.2228 320.641 84.7719 316.347 84.7719C314.667 84.7738 313.031 85.3084 311.674 86.2988C311.351 78.3554 306.378 72.0537 300.332 72.0537C294.057 72.0537 288.973 78.8011 288.973 87.124C288.972 88.0795 289.042 89.0338 289.181 89.9792C287.979 89.0915 286.526 88.6079 285.032 88.5979C282.314 88.5979 279.918 90.2043 278.51 92.6358H324.577Z" fill="#F9E4F8"/>
<path d="M358.676 153.081C357.908 149.422 355.243 146.695 352.057 146.695C351.674 146.698 351.292 146.739 350.918 146.819C349.682 144.383 347.56 142.767 345.141 142.767C343.261 142.767 341.554 143.747 340.287 145.331C339.766 136.841 336.157 129.833 331.779 129.833C327.401 129.833 323.703 136.995 323.249 145.631C321.638 142.882 319.22 141.13 316.514 141.13C313.081 141.13 310.107 143.955 308.664 148.072C307.427 147.125 305.914 146.611 304.357 146.607C300.738 146.607 297.715 149.369 296.938 153.063L358.676 153.081Z" fill="#F9E4F8"/>
<path d="M355.168 192.294C354.104 192.311 353.087 192.734 352.326 193.477C351.885 188.693 349.237 185.004 345.998 185.004C342.467 185.004 339.612 189.39 339.612 194.801C339.612 194.836 339.612 194.867 339.612 194.902C338.936 194.278 338.052 193.926 337.132 193.914C335.018 193.914 333.244 195.851 332.719 198.472H360C360 198.45 360 198.433 360 198.411C360 195.03 357.829 192.294 355.168 192.294Z" fill="#F9E4F8"/>
<path d="M172.912 175.843C173.668 173.036 174.048 170.14 174.042 167.233C174.042 153.849 166.257 142.997 156.65 142.997C149.656 142.997 143.627 148.734 140.865 157.052C138.023 153.482 134.245 151.316 130.093 151.316C122.185 151.316 115.623 159.228 114.352 169.607C112.556 168.114 110.302 167.282 107.966 167.251C103.288 167.251 99.2065 170.711 97 175.86L172.912 175.843Z" fill="#F9E4F8"/>
<path d="M104.709 97.2955C104.709 97.066 104.074 96.8542 103.218 96.8189C103.169 95.8172 102.971 95.0537 102.737 95.0537C102.503 95.0537 102.295 95.7995 102.251 96.8189C101.395 96.8719 100.76 97.066 100.76 97.2955C100.76 97.525 101.395 97.7368 102.251 97.7765C102.3 98.7738 102.498 99.5417 102.737 99.5417C102.975 99.5417 103.178 98.7915 103.218 97.7765C104.074 97.7103 104.709 97.5294 104.709 97.2955Z" fill="#DDB6DC"/>
<path d="M295.482 61.2418C295.482 61.0123 294.847 60.8005 293.991 60.7652C293.942 59.7634 293.744 59 293.505 59C293.267 59 293.064 59.7458 293.024 60.7652C292.168 60.8181 291.533 61.0123 291.533 61.2418C291.533 61.4713 292.168 61.6831 293.024 61.7228C293.073 62.7201 293.271 63.488 293.505 63.488C293.739 63.488 293.947 62.7378 293.991 61.7228C294.847 61.6699 295.482 61.4757 295.482 61.2418Z" fill="#DDB6DC"/>
<path d="M333.76 123.209C333.76 122.979 333.125 122.767 332.269 122.732C332.22 121.73 332.022 120.967 331.783 120.967C331.545 120.967 331.342 121.713 331.302 122.732C330.446 122.785 329.811 122.979 329.811 123.209C329.811 123.438 330.446 123.65 331.302 123.69C331.351 124.687 331.549 125.455 331.783 125.455C332.017 125.455 332.225 124.705 332.269 123.69C333.125 123.632 333.76 123.442 333.76 123.209Z" fill="#DDB6DC"/>
<path d="M358.124 102.697C358.124 102.467 357.489 102.256 356.628 102.22C356.58 101.219 356.386 100.455 356.147 100.455C355.909 100.455 355.706 101.201 355.666 102.22C354.806 102.273 354.17 102.467 354.17 102.697C354.17 102.926 354.806 103.138 355.666 103.178C355.715 104.175 355.909 104.943 356.147 104.943C356.386 104.943 356.589 104.193 356.628 103.178C357.489 103.125 358.124 102.931 358.124 102.697Z" fill="#DDB6DC"/>
<path d="M102.724 194.187C102.724 193.958 102.088 193.746 101.228 193.711C101.179 192.709 100.985 191.945 100.747 191.945C100.508 191.945 100.305 192.691 100.266 193.711C99.405 193.763 98.7695 193.958 98.7695 194.187C98.7695 194.417 99.405 194.628 100.266 194.668C100.314 195.665 100.508 196.433 100.747 196.433C100.985 196.433 101.188 195.683 101.228 194.668C102.101 194.615 102.724 194.421 102.724 194.187Z" fill="#DDB6DC"/>
<path d="M153.071 67.6668C153.071 67.2696 151.986 66.9387 150.516 66.846C150.437 65.1382 150.075 63.8584 149.691 63.8584C149.307 63.8584 148.95 65.1382 148.866 66.846C147.401 66.9387 146.315 67.2873 146.315 67.6668C146.315 68.0463 147.401 68.3905 148.866 68.4832C148.95 70.191 149.307 71.4708 149.691 71.4708C150.075 71.4708 150.437 70.191 150.516 68.4832C151.986 68.3905 153.071 68.0595 153.071 67.6668Z" fill="#DDB6DC"/>
<path d="M259.87 72.177C259.87 71.7843 258.78 71.4489 257.315 71.3606C257.231 69.6528 256.895 68.373 256.489 68.373C256.083 68.373 255.748 69.6528 255.664 71.3606C254.199 71.4489 253.113 71.8019 253.113 72.177C253.113 72.5521 254.199 72.9052 255.664 72.9978C255.748 74.7057 256.105 75.9854 256.489 75.9854C256.873 75.9854 257.231 74.7057 257.315 72.9978C258.78 72.9052 259.87 72.5565 259.87 72.177Z" fill="#DDB6DC"/>
<path d="M338.654 176.972C338.654 176.579 337.569 176.248 336.104 176.156C336.02 174.448 335.662 173.168 335.279 173.168C334.895 173.168 334.533 174.448 334.453 176.156C332.984 176.248 331.898 176.597 331.898 176.972C331.898 177.347 332.984 177.7 334.453 177.793C334.533 179.501 334.873 180.78 335.279 180.78C335.685 180.78 336.02 179.501 336.104 177.793C337.569 177.7 338.654 177.369 338.654 176.972Z" fill="#DDB6DC"/>
<path d="M126.611 132.604C126.611 132.207 125.526 131.876 124.06 131.783C123.977 130.076 123.619 128.796 123.235 128.796C122.851 128.796 122.494 130.076 122.41 131.783C120.945 131.876 119.855 132.225 119.855 132.604C119.855 132.984 120.945 133.328 122.41 133.421C122.494 135.129 122.829 136.408 123.235 136.408C123.641 136.408 123.977 135.129 124.06 133.421C125.526 133.328 126.611 133.015 126.611 132.604Z" fill="#DDB6DC"/>
<path d="M273.333 202.819C279.017 201.936 284.366 199.681 289.979 198.547C293.24 197.889 296.912 197.223 300.173 198.225C304.251 199.496 306.14 203.816 302.993 207.232C307.455 204.994 313.121 205.06 317.269 207.836C318.202 208.428 319.003 209.206 319.621 210.122C322.468 214.592 319.299 217.876 315.314 219.8C318.793 220.985 321.893 223.074 324.298 225.854C326.702 228.633 328.323 232.003 328.994 235.616C329.347 237.681 329.352 239.927 328.262 241.719C326.527 244.583 322.569 245.302 319.299 244.565C316.029 243.828 313.086 241.944 310.663 239.614C308.24 237.284 306.294 234.508 304.485 231.671C304.822 232.881 304.752 234.169 304.287 235.336C303.821 236.503 302.985 237.485 301.907 238.131C298.333 240.17 295.398 237.791 293.748 234.76C291.802 231.188 290.445 227.325 289.728 223.321C288.585 225.554 285.098 225.598 283.108 224.623C280.46 223.343 279.022 219.517 278.307 216.905C277.424 213.705 277.133 210.352 276.047 207.218C275.527 205.718 274.626 204.107 273.073 203.789" fill="#8F78EA"/>
<path d="M312.989 237.072C312.547 234.235 312.177 231.636 311.788 229.028C311.532 227.368 311.347 226.225 311.237 225.846C311.647 226.256 312.044 226.662 312.424 227.051C314.277 228.953 315.742 230.532 316.753 231.627C317.251 232.219 317.794 232.773 318.377 233.282C317.964 232.623 317.494 232.001 316.974 231.424C316.029 230.272 314.621 228.635 312.808 226.675L312.168 225.991C312.697 225.991 313.567 226.013 314.692 226.027C316.607 226.027 319.246 226.08 322.163 226.208C323.046 226.247 323.893 226.296 324.705 226.344C324.564 226.168 324.423 225.996 324.264 225.824C323.589 225.78 322.891 225.74 322.176 225.709C319.251 225.581 316.594 225.594 314.674 225.669C313.448 225.718 312.521 225.784 312.027 225.841C308.445 222.038 304.565 218.525 300.425 215.338H300.637C301.356 215.272 302.402 215.153 303.673 214.99C306.232 214.668 309.758 214.16 313.637 213.498C316.157 213.057 318.492 212.616 320.539 212.223C320.504 212.086 320.464 211.945 320.416 211.804C318.39 212.166 316.051 212.58 313.553 213.004C309.679 213.666 306.166 214.231 303.62 214.641L300.61 215.144L300.24 215.215C299.233 214.451 298.201 213.697 297.124 212.955C293.959 210.78 290.62 208.869 287.142 207.241L286.701 207.038C287.208 206.817 288.152 206.367 289.406 205.754L296.855 202.069L302.345 199.355C302.217 199.258 302.084 199.161 301.947 199.072C300.376 199.805 298.563 200.67 296.652 201.623C293.739 203.062 291.131 204.421 289.26 205.44C288.325 205.948 287.57 206.367 287.054 206.671C286.851 206.791 286.687 206.892 286.564 206.971C283.91 205.755 281.168 204.743 278.36 203.944C276.414 203.406 274.724 203.062 273.378 202.814H273.342L273.241 203.145C274.565 203.437 276.264 203.856 278.21 204.469C281.016 205.335 283.758 206.398 286.414 207.651C286.36 207.943 286.322 208.238 286.299 208.534C286.233 209.147 286.171 210.034 286.109 211.137C285.99 213.344 285.928 216.38 286.034 219.738C286.1 221.728 286.22 223.6 286.361 225.254L286.802 225.206C286.701 223.555 286.599 221.676 286.537 219.725C286.427 216.376 286.436 213.344 286.462 211.146C286.489 209.297 286.511 208.057 286.462 207.691L286.855 207.876C290.281 209.522 293.576 211.43 296.709 213.582C297.709 214.276 298.68 214.977 299.622 215.683C299.591 215.837 299.542 216.181 299.489 216.684C299.41 217.395 299.335 218.428 299.273 219.703C298.982 226.077 299.416 232.464 300.566 238.74C300.685 238.705 300.809 238.657 300.932 238.608C300.562 236.194 300.16 233.079 299.909 229.654C299.626 225.78 299.586 222.262 299.626 219.716C299.626 218.675 299.666 217.673 299.684 216.698C299.684 216.23 299.684 215.903 299.684 215.731C303.739 218.814 307.573 222.178 311.157 225.797C311.193 226.902 311.286 228.003 311.435 229.098C311.665 231.172 312.031 234.023 312.49 237.169C312.728 238.807 312.971 240.356 313.2 241.755C313.368 241.874 313.531 241.997 313.704 242.112C313.474 240.462 313.222 238.815 312.989 237.072Z" fill="#6858C6"/>
<path d="M339.912 221.177C340.614 220.295 339.259 218.388 338.813 217.819C336.316 214.598 332.269 213.062 328.121 212.02C325.861 210.225 323.486 208.58 321.011 207.096C323.047 207.316 325.098 207.356 327.141 207.215C329.063 207.08 330.954 206.662 332.754 205.975C333.407 205.705 335.843 204.527 335.733 203.649C335.587 202.594 333.019 202.413 332.203 202.382C327.79 202.21 323.266 203.803 319.211 206.067C316.47 204.532 313.629 203.181 310.707 202.025C313.152 202.063 315.595 201.893 318.011 201.518C319.948 201.209 321.835 200.641 323.619 199.827C324.255 199.514 326.629 198.19 326.413 197.396C326.153 196.443 323.505 196.513 322.68 196.579C317.966 196.866 313.381 198.905 309.379 201.509C308.456 201.164 307.53 200.829 306.577 200.516C304.758 199.929 302.949 199.426 301.166 198.998C302.976 198.846 304.769 198.533 306.524 198.062C308.166 197.626 309.729 196.935 311.157 196.015C311.66 195.67 313.514 194.214 313.178 193.459C312.777 192.577 310.46 192.837 309.745 192.948C305.72 193.565 302.111 195.798 299.088 198.539C296.881 198.097 294.767 197.762 292.715 197.55C291.961 197.471 291.224 197.409 290.509 197.356C292.242 196.947 293.936 196.386 295.571 195.679C297.13 195.01 298.576 194.102 299.856 192.987C300.297 192.546 301.925 190.86 301.488 190.163C300.959 189.329 298.708 189.938 298.015 190.163C294.123 191.354 290.875 194.086 288.28 197.224C285.907 197.136 283.531 197.175 281.162 197.343C280.469 197.391 279.838 197.453 279.181 197.519C280.959 196.942 282.682 196.203 284.326 195.313C285.821 194.506 287.181 193.473 288.36 192.25C288.77 191.809 290.235 189.951 289.732 189.294C289.132 188.512 286.948 189.316 286.277 189.589C282.398 191.165 279.344 194.298 277.01 197.78C275.602 197.978 274.397 198.195 273.435 198.398C272.473 198.601 271.846 198.773 271.374 198.892C271.131 198.937 270.894 199.015 270.673 199.126C270.673 199.192 271.688 199.015 273.497 198.724C274.503 198.57 275.77 198.398 277.252 198.243C278.792 200.269 280.341 202.303 282.257 203.98C283.507 205.127 284.929 206.073 286.471 206.782C287.036 207.021 289.26 207.802 289.715 207.113C290.257 206.292 288.779 204.487 288.302 203.945C285.743 201.028 282.151 199.214 278.409 198.124C279.291 198.049 280.205 197.978 281.198 197.93C283.303 197.833 285.681 197.811 288.258 197.93C289.618 200.088 290.99 202.254 292.742 204.108C293.886 205.363 295.219 206.431 296.691 207.276C297.234 207.563 299.379 208.534 299.895 207.89C300.509 207.118 299.194 205.194 298.766 204.607C296.519 201.518 293.183 199.43 289.626 198.014C290.612 198.084 291.618 198.178 292.645 198.296C294.697 198.526 296.833 198.892 299.026 199.338C300.045 201.632 301.078 203.936 302.521 205.988C303.472 207.395 304.636 208.646 305.972 209.695C306.466 210.057 308.448 211.328 309.061 210.767C309.78 210.092 308.757 207.996 308.421 207.356C306.7 204.104 303.849 201.619 300.672 199.708C302.534 200.15 304.427 200.679 306.338 201.292C307.384 201.637 308.408 202.007 309.427 202.387C310.067 204.743 310.751 207.104 311.89 209.253C312.67 210.784 313.716 212.163 314.979 213.327C315.455 213.737 317.406 215.207 318.196 214.681C319.14 214.055 318.434 211.831 318.196 211.151C317.102 208.106 314.908 205.582 312.247 203.517C314.454 204.448 316.51 205.445 318.425 206.491C319.061 208.896 319.718 211.31 320.879 213.512C321.649 215.046 322.686 216.432 323.942 217.603C324.414 218.022 326.356 219.5 327.15 218.984C328.099 218.362 327.41 216.133 327.15 215.454C326.267 212.96 322.472 209.452 320.469 207.612C322.56 208.936 326.603 211.619 328.231 212.877C329.375 214.704 330.715 216.399 332.229 217.934C333.444 219.147 334.865 220.135 336.426 220.851C337.013 221.124 339.321 221.919 339.912 221.177Z" fill="#FCEBFC"/>
<path d="M269.159 199.779C270.006 191.703 271.913 183.707 276.22 176.769C283.805 164.545 297.605 153.959 312.406 153.553C314.648 153.439 316.892 153.738 319.025 154.435C320.015 154.743 320.909 155.297 321.625 156.046C323.434 158.12 323.416 162.224 323.231 164.779C322.057 180.962 307.371 187.541 294.154 192.66C287.173 195.364 280.112 197.847 272.972 200.11" fill="#E28EDC"/>
<path d="M280.16 190.745C278.479 190.096 277.451 189.659 277.42 189.725C277.389 189.792 278.373 190.334 280.028 191.049C282.193 191.993 284.425 192.777 286.705 193.393C287.883 193.71 289.022 193.966 290.081 194.174L290.88 193.874C289.64 193.618 288.272 193.304 286.833 192.92C284.185 192.214 281.842 191.389 280.16 190.745Z" fill="#C472C2"/>
<path d="M307.486 177.431C305.504 176.738 303.646 176.006 301.974 175.3C300.301 174.593 298.819 173.892 297.587 173.278C296.965 172.983 296.413 172.691 295.928 172.444C295.443 172.197 295.019 171.981 294.679 171.8C294.238 171.575 293.933 171.416 293.757 171.359C294.136 171.054 294.511 170.75 294.882 170.476C296.263 169.452 297.561 168.451 298.854 167.621C299.489 167.18 300.089 166.765 300.694 166.39L302.459 165.326C303.554 164.62 304.608 164.086 305.509 163.561C305.95 163.309 306.391 163.067 306.775 162.864L307.861 162.317C308.556 162.011 309.223 161.646 309.855 161.227C309.127 161.446 308.419 161.725 307.737 162.061L306.616 162.546C306.215 162.736 305.787 162.961 305.319 163.195L304.405 163.636C304.6 163.27 304.886 162.687 305.257 161.933C305.906 160.609 306.81 158.782 307.878 156.8C308.47 155.702 309.048 154.673 309.573 153.751L309.008 153.826C308.509 154.66 307.975 155.591 307.446 156.566C306.374 158.561 305.509 160.423 304.939 161.791C304.564 162.674 304.313 163.371 304.198 163.742C303.562 164.064 302.874 164.413 302.194 164.836L300.429 165.869C299.811 166.231 299.198 166.659 298.549 167.074C297.225 167.89 295.902 168.879 294.511 169.898C294.225 170.114 293.942 170.339 293.655 170.564C293.717 170 293.797 169.17 293.898 168.151C294.101 166.125 294.428 163.332 294.926 160.269C295.023 159.669 295.12 159.091 295.226 158.504L294.675 158.821C294.595 159.263 294.516 159.704 294.441 160.176C294.013 162.807 293.718 165.459 293.558 168.12C293.496 169.143 293.47 169.969 293.47 170.538V170.71C290.86 172.775 288.382 175.002 286.052 177.378C285.377 178.08 284.728 178.79 284.092 179.501C284.062 179.059 283.969 178.287 283.859 177.268C283.678 175.644 283.457 173.398 283.32 170.909C283.258 169.836 283.223 168.817 283.197 167.859L282.755 168.345C282.755 169.165 282.795 170.035 282.844 170.935C282.958 173.071 283.186 175.2 283.528 177.312C283.713 178.428 283.881 179.231 283.969 179.629C282.139 181.689 280.414 183.841 278.801 186.076C278.073 187.148 277.358 188.177 276.723 189.165C276.657 188.697 276.484 187.797 276.281 186.579C275.973 184.77 275.615 182.254 275.399 179.465C275.372 179.055 275.346 178.653 275.324 178.261C275.174 178.525 275.028 178.799 274.883 179.068C274.883 179.214 274.883 179.355 274.913 179.509C275.092 181.912 275.436 184.299 275.942 186.654C276.126 187.548 276.357 188.432 276.635 189.302C276.454 189.598 276.273 189.889 276.105 190.184C275.712 190.846 275.306 191.473 274.962 192.1L273.996 193.913C273.351 195.061 272.879 196.151 272.429 197.091C272.213 197.563 271.988 198 271.824 198.415L271.383 199.549C271.069 200.241 270.813 200.958 270.62 201.694C271.019 201.047 271.363 200.368 271.648 199.664L272.155 198.56C272.35 198.159 272.597 197.735 272.813 197.272C273.294 196.354 273.797 195.286 274.463 194.183L275.474 192.417C275.827 191.8 276.242 191.186 276.648 190.538C277.433 189.214 278.413 187.89 279.375 186.482C280.884 184.426 282.592 182.281 284.494 180.141L285.134 180.502C285.747 180.842 286.652 181.306 287.782 181.848C290.732 183.262 293.751 184.528 296.828 185.639C299.75 186.694 302.481 187.523 304.714 188.124L305.231 187.868C302.953 187.197 300.081 186.292 296.996 185.18C293.404 183.878 290.218 182.532 287.927 181.535L285.218 180.33C284.953 180.211 284.737 180.123 284.573 180.052C285.213 179.337 285.875 178.618 286.559 177.908C288.816 175.606 291.203 173.435 293.708 171.407C293.854 171.518 294.15 171.716 294.591 171.99C294.917 172.193 295.323 172.431 295.8 172.709C296.277 172.987 296.819 173.296 297.433 173.592C298.646 174.249 300.129 174.973 301.797 175.719C303.465 176.465 305.328 177.202 307.331 177.899C309.335 178.596 311.259 179.148 313.028 179.602C314.118 179.876 315.142 180.11 316.091 180.304C316.197 180.198 316.303 180.083 316.409 179.973C315.407 179.743 314.312 179.479 313.143 179.165C311.391 178.684 309.48 178.111 307.486 177.431Z" fill="#C472C2"/>
<path d="M315.566 168.883C312.477 167.7 309.692 166.518 307.702 165.631C305.712 164.744 304.485 164.174 304.449 164.241C304.696 164.444 304.967 164.614 305.257 164.748C305.791 165.048 306.581 165.459 307.556 165.944C309.511 166.915 312.274 168.15 315.394 169.342C317.746 170.225 319.961 170.957 321.815 171.509L321.947 171.125C320.111 170.525 317.913 169.77 315.566 168.883Z" fill="#C472C2"/>
<path d="M165.15 197.002C164.736 194.788 164.748 192.514 165.185 190.304C161.654 189.315 158.177 188.128 154.594 187.404C151.328 186.747 147.657 186.08 144.395 187.082C140.322 188.353 138.433 192.673 141.58 196.089C137.118 193.852 131.452 193.918 127.304 196.694C126.369 197.284 125.568 198.062 124.952 198.979C122.105 203.445 125.274 206.733 129.259 208.657C125.78 209.842 122.68 211.932 120.275 214.711C117.871 217.491 116.25 220.86 115.579 224.473C115.221 226.539 115.221 228.785 116.307 230.576C118.045 233.44 122.004 234.16 125.27 233.423C128.535 232.686 131.487 230.801 133.91 228.471C136.333 226.141 138.279 223.366 140.088 220.528C139.747 221.744 139.817 223.038 140.286 224.21C140.755 225.382 141.598 226.366 142.683 227.011C146.253 229.049 149.192 226.671 150.843 223.639C152.788 220.067 154.145 216.205 154.863 212.201C156.006 214.434 159.492 214.478 161.482 213.503C164.13 212.218 165.569 208.397 166.279 205.784C166.473 205.074 166.637 204.359 166.791 203.64C166.765 203.595 166.734 203.56 166.707 203.516C165.626 201.519 165.089 199.273 165.15 197.002Z" fill="#8F78EA"/>
<path d="M158.274 197.369C158.226 196.928 158.186 196.632 158.155 196.487C160.333 195.464 162.566 194.564 164.845 193.79C164.845 193.593 164.845 193.395 164.845 193.194C162.51 193.92 160.222 194.791 157.996 195.803C157.872 195.719 157.705 195.622 157.506 195.502C156.99 195.198 156.24 194.779 155.3 194.271C153.429 193.252 150.816 191.893 147.904 190.45C145.98 189.501 144.166 188.636 142.608 187.903C142.471 187.992 142.339 188.089 142.211 188.186L147.696 190.9L155.15 194.585C156.403 195.198 157.356 195.648 157.855 195.869L157.414 196.072C153.935 197.7 150.597 199.611 147.431 201.787C146.355 202.528 145.316 203.281 144.316 204.046L143.945 203.975L140.931 203.472C138.389 203.062 134.876 202.497 131.002 201.835C128.504 201.394 126.148 200.997 124.135 200.635C124.091 200.776 124.051 200.917 124.016 201.054C126.046 201.46 128.398 201.901 130.918 202.329C134.797 202.991 138.323 203.499 140.883 203.821C142.162 203.984 143.199 204.103 143.919 204.17H144.126C139.989 207.359 136.114 210.874 132.538 214.681C132.035 214.624 131.108 214.558 129.89 214.509C127.97 214.434 125.318 214.421 122.388 214.549C121.673 214.58 120.971 214.619 120.3 214.664C120.15 214.837 120.003 215.009 119.859 215.18C120.674 215.13 121.523 215.086 122.405 215.048C125.318 214.92 127.961 214.88 129.877 214.862C131.002 214.862 131.871 214.862 132.401 214.831C132.18 215.061 131.96 215.273 131.761 215.515C129.947 217.475 128.539 219.112 127.595 220.264C127.07 220.834 126.6 221.454 126.192 222.113C126.773 221.603 127.314 221.05 127.811 220.458C128.826 219.363 130.287 217.784 132.145 215.882C132.52 215.493 132.922 215.087 133.332 214.677C133.23 215.052 133.036 216.199 132.776 217.859C132.388 220.467 132.004 223.066 131.58 225.903C131.328 227.642 131.09 229.293 130.861 230.917L131.364 230.559C131.593 229.16 131.836 227.611 132.074 225.974C132.516 222.828 132.899 219.972 133.129 217.903C133.332 216.089 133.429 214.88 133.407 214.602C136.99 210.981 140.824 207.617 144.881 204.536C144.881 204.708 144.881 205.034 144.881 205.502C144.903 206.478 144.92 207.475 144.942 208.521C144.978 211.067 144.942 214.584 144.66 218.459C144.408 221.883 144.007 224.999 143.636 227.413C143.756 227.463 143.878 227.508 144.003 227.545C144.548 224.552 144.934 221.532 145.159 218.498C145.402 215.174 145.448 211.838 145.296 208.507C145.234 207.232 145.154 206.2 145.075 205.489C145.022 204.982 144.978 204.642 144.942 204.487C145.887 203.781 146.853 203.08 147.859 202.387C150.993 200.235 154.287 198.327 157.714 196.681L158.106 196.495C158.071 196.848 158.106 198.102 158.106 199.951C158.137 202.157 158.142 205.18 158.036 208.525C157.97 210.502 157.872 212.36 157.767 214.006C157.912 214.006 158.062 214.046 158.208 214.055C158.345 212.404 158.464 210.524 158.53 208.543C158.64 205.185 158.574 202.14 158.455 199.942C158.402 198.87 158.327 197.983 158.274 197.369Z" fill="#6858C6"/>
<path d="M163.366 186.814C164.306 186.862 165.185 186.924 166.014 186.995C166.194 186.424 166.388 185.859 166.597 185.3C164.39 182.374 161.663 179.832 158.296 178.464C157.625 178.191 155.436 177.383 154.836 178.169C154.338 178.822 155.803 180.671 156.213 181.125C157.391 182.349 158.752 183.382 160.247 184.188C161.889 185.084 163.61 185.828 165.388 186.412C164.757 186.346 164.099 186.284 163.406 186.231C161.039 186.067 158.664 186.029 156.292 186.116C153.698 182.965 150.445 180.234 146.557 179.056C145.865 178.844 143.614 178.235 143.084 179.056C142.643 179.753 144.267 181.461 144.717 181.875C145.996 182.993 147.442 183.903 149.002 184.572C150.635 185.278 152.328 185.838 154.06 186.244C153.327 186.297 152.59 186.359 151.853 186.439C149.801 186.646 147.67 186.995 145.476 187.427C142.44 184.647 138.826 182.44 134.806 181.809C134.091 181.699 131.774 181.421 131.372 182.321C131.037 183.076 132.89 184.528 133.394 184.876C134.822 185.797 136.385 186.488 138.027 186.924C139.781 187.395 141.574 187.708 143.385 187.859C141.619 188.301 139.792 188.791 137.974 189.378C137.021 189.691 136.09 190.026 135.172 190.37C131.169 187.767 126.584 185.728 121.871 185.437C121.046 185.388 118.398 185.304 118.138 186.258C117.922 187.052 120.296 188.376 120.931 188.689C122.72 189.505 124.611 190.075 126.553 190.384C128.969 190.757 131.413 190.927 133.857 190.891C130.935 192.047 128.094 193.397 125.353 194.933C121.298 192.67 116.792 191.077 112.357 191.249C111.558 191.28 108.985 191.46 108.827 192.515C108.703 193.398 111.152 194.572 111.801 194.841C113.601 195.527 115.492 195.945 117.414 196.081C119.458 196.222 121.511 196.183 123.548 195.962C121.073 197.446 118.698 199.091 116.439 200.887C112.291 201.928 108.24 203.464 105.746 206.685C105.305 207.255 103.941 209.152 104.647 210.039C105.239 210.78 107.547 209.991 108.129 209.748C109.689 209.03 111.109 208.042 112.326 206.831C113.832 205.296 115.164 203.6 116.298 201.774C117.931 200.516 121.973 197.828 124.065 196.509C122.057 198.349 118.257 201.857 117.379 204.351C117.141 205.035 116.448 207.263 117.379 207.881C118.173 208.402 120.115 206.919 120.587 206.504C121.843 205.333 122.88 203.948 123.65 202.413C124.806 200.207 125.468 197.798 126.103 195.392C128.032 194.347 130.101 193.349 132.282 192.418C129.634 194.483 127.427 197.008 126.333 200.053C126.086 200.732 125.38 202.956 126.333 203.583C127.123 204.108 129.073 202.639 129.55 202.228C130.813 201.064 131.859 199.685 132.639 198.155C133.791 196.006 134.462 193.645 135.101 191.288C136.108 190.909 137.136 190.538 138.19 190.194C140.097 189.576 141.994 189.055 143.857 188.61C140.679 190.503 137.824 193.023 136.108 196.253C135.768 196.897 134.748 198.989 135.468 199.664C136.068 200.229 138.049 198.958 138.557 198.596C139.896 197.549 141.062 196.298 142.012 194.889C143.455 192.837 144.488 190.534 145.507 188.239C147.714 187.798 149.832 187.427 151.884 187.198C152.917 187.08 153.923 186.986 154.902 186.915C151.372 188.332 148.014 190.445 145.763 193.508C145.322 194.095 144.024 196.019 144.638 196.791C145.15 197.436 147.286 196.465 147.837 196.178C149.318 195.335 150.658 194.266 151.809 193.009C153.574 191.156 154.933 188.989 156.292 186.831C158.883 186.694 161.262 186.717 163.366 186.814Z" fill="#FCEBFC"/>
<path d="M165.992 187.056C162.299 188.177 158.768 189.942 156.262 192.828C155.785 193.371 154.307 195.176 154.85 195.996C155.291 196.685 157.528 195.904 158.093 195.665C159.635 194.956 161.057 194.011 162.308 192.863C163.39 191.883 164.394 190.82 165.308 189.681C165.489 188.799 165.723 187.921 165.992 187.056Z" fill="#FCEBFC"/>
<path d="M169.302 179.316C169.639 178.569 170.207 177.952 170.922 177.554C171.638 177.157 172.462 177.001 173.274 177.109C172.18 173.07 170.519 169.207 168.34 165.635C160.754 153.411 146.955 142.825 132.154 142.419C129.903 142.301 127.65 142.6 125.508 143.301C124.519 143.611 123.625 144.165 122.909 144.912C121.104 146.982 121.117 151.09 121.307 153.641C122.48 169.828 137.162 176.407 150.384 181.526C155.529 183.521 160.72 185.392 165.957 187.14C166.831 184.435 167.95 181.816 169.302 179.316Z" fill="#E28EDC"/>
<path d="M164.404 179.603C166.081 178.958 167.109 178.521 167.144 178.588C167.179 178.654 166.191 179.192 164.532 179.912C162.367 180.856 160.135 181.64 157.855 182.255C156.677 182.573 155.542 182.829 154.483 183.036L153.685 182.736C154.925 182.48 156.293 182.167 157.727 181.783C159.988 181.169 162.216 180.441 164.404 179.603Z" fill="#C472C2"/>
<path d="M167.93 179.382C168.177 179.788 168.428 180.172 168.667 180.555C168.773 180.348 168.874 180.141 168.98 179.938C168.803 179.651 168.627 179.36 168.45 179.055C168.274 178.751 168.102 178.477 167.916 178.172C168.196 177.303 168.429 176.419 168.614 175.525C169.12 173.17 169.463 170.782 169.642 168.38C169.642 168.234 169.642 168.093 169.668 167.939C169.527 167.67 169.382 167.396 169.227 167.131C169.205 167.524 169.179 167.926 169.148 168.332C168.936 171.125 168.578 173.627 168.265 175.45C168.058 176.668 167.89 177.568 167.824 178.036C167.184 177.03 166.473 176.001 165.741 174.947C164.142 172.712 162.429 170.561 160.609 168.504C160.719 168.106 160.891 167.303 161.076 166.187C161.415 164.075 161.644 161.946 161.76 159.81C161.809 158.928 161.835 158.045 161.849 157.22L161.407 156.734C161.381 157.687 161.341 158.711 161.284 159.784C161.143 162.273 160.922 164.514 160.745 166.143C160.631 167.158 160.542 167.934 160.507 168.376C159.876 167.665 159.223 166.955 158.548 166.253C156.219 163.875 153.742 161.648 151.13 159.585C151.13 159.532 151.13 159.475 151.13 159.413C151.13 158.844 151.103 158.014 151.046 156.995C150.886 154.334 150.591 151.682 150.163 149.051C150.088 148.61 150.009 148.142 149.929 147.696L149.378 147.379C149.479 147.952 149.581 148.531 149.678 149.144C150.176 152.207 150.498 155 150.706 157.026C150.807 158.045 150.887 158.87 150.949 159.439L150.092 158.773C148.685 157.754 147.365 156.765 146.055 155.949C145.401 155.534 144.788 155.106 144.17 154.744L142.405 153.711C141.708 153.27 141.037 152.939 140.402 152.617C140.287 152.246 140.035 151.567 139.66 150.662C139.087 149.294 138.226 147.436 137.154 145.441C136.62 144.457 136.09 143.535 135.587 142.701L135.027 142.626C135.552 143.544 136.125 144.572 136.721 145.675C137.785 147.657 138.694 149.479 139.342 150.808C139.713 151.562 140 152.132 140.194 152.511C139.876 152.352 139.568 152.198 139.281 152.07C138.813 151.836 138.398 151.628 137.979 151.421L136.862 150.936C136.179 150.599 135.469 150.32 134.74 150.102C135.374 150.521 136.043 150.885 136.739 151.192L137.824 151.734C138.217 151.942 138.636 152.176 139.087 152.436C139.991 152.944 141.041 153.477 142.14 154.201L143.883 155.265C144.492 155.64 145.093 156.072 145.728 156.496C147.017 157.326 148.31 158.327 149.7 159.351C150.07 159.645 150.445 159.94 150.825 160.234C150.648 160.309 150.335 160.463 149.898 160.675C149.558 160.856 149.144 161.077 148.654 161.319C148.164 161.562 147.617 161.858 146.995 162.153C145.763 162.767 144.276 163.455 142.608 164.175C140.94 164.894 139.078 165.613 137.096 166.306C135.115 166.999 133.173 167.546 131.408 168.023C130.234 168.336 129.144 168.601 128.142 168.83C128.248 168.941 128.35 169.055 128.46 169.161C129.407 168.967 130.428 168.733 131.523 168.46C133.288 168.018 135.225 167.44 137.22 166.756C139.214 166.072 141.081 165.309 142.754 164.576C144.426 163.844 145.9 163.107 147.118 162.449C147.732 162.131 148.27 161.818 148.751 161.566C149.232 161.315 149.634 161.05 149.96 160.847C150.401 160.569 150.697 160.375 150.843 160.265C153.352 162.296 155.743 164.47 158.005 166.774C158.689 167.484 159.329 168.204 159.991 168.918C159.823 168.989 159.611 169.077 159.346 169.196L156.637 170.401C154.355 171.407 151.169 172.731 147.581 174.029C144.492 175.141 141.624 176.045 139.347 176.716L139.863 176.972C142.092 176.372 144.828 175.542 147.749 174.488C150.826 173.376 153.846 172.111 156.796 170.697C157.925 170.15 158.83 169.691 159.444 169.351C159.713 169.201 159.925 169.082 160.079 168.989C161.981 171.129 163.689 173.274 165.202 175.331C166.182 176.743 167.153 178.071 167.93 179.382Z" fill="#C472C2"/>
<path d="M128.994 157.727C132.105 156.549 134.872 155.366 136.863 154.479C138.853 153.592 140.08 153.023 140.11 153.089C139.867 153.294 139.597 153.465 139.307 153.597C138.773 153.897 137.983 154.307 137.008 154.793C135.049 155.763 132.291 156.999 129.171 158.186C126.819 159.069 124.603 159.806 122.75 160.357C122.701 160.229 122.662 160.097 122.617 159.973C124.449 159.387 126.651 158.632 128.994 157.727Z" fill="#C472C2"/>
<path d="M277.248 172.568C303.063 172.568 323.99 151.641 323.99 125.826C323.99 100.011 303.063 79.084 277.248 79.084C251.433 79.084 230.506 100.011 230.506 125.826C230.506 151.641 251.433 172.568 277.248 172.568Z" fill="#BF47A9"/>
<path d="M280.75 161.691C300.568 159.758 315.067 142.126 313.134 122.308C311.202 102.49 293.569 87.9907 273.751 89.9234C253.933 91.8561 239.434 109.489 241.367 129.307C243.299 149.125 260.932 163.624 280.75 161.691Z" fill="#F3F7FA"/>
<path d="M277.243 101.025C277.099 101.025 276.956 100.996 276.822 100.94C276.689 100.884 276.568 100.803 276.466 100.699C276.365 100.596 276.285 100.474 276.231 100.34C276.178 100.206 276.151 100.062 276.153 99.9173V94.6217C276.153 94.3338 276.268 94.0577 276.471 93.8541C276.675 93.6505 276.951 93.5361 277.239 93.5361C277.527 93.5361 277.804 93.6504 278.008 93.8538C278.213 94.0573 278.328 94.3334 278.329 94.6217V99.9173C278.331 100.061 278.304 100.204 278.25 100.338C278.197 100.472 278.117 100.594 278.016 100.697C277.915 100.8 277.795 100.882 277.663 100.938C277.53 100.994 277.388 101.024 277.243 101.025Z" fill="#8F78EA"/>
<path d="M277.243 158.076C276.956 158.076 276.679 157.961 276.476 157.758C276.272 157.554 276.158 157.278 276.158 156.99V151.694C276.158 151.406 276.272 151.13 276.476 150.925C276.679 150.721 276.955 150.606 277.243 150.604C277.532 150.606 277.809 150.721 278.013 150.925C278.217 151.129 278.332 151.406 278.333 151.694V156.99C278.332 157.278 278.217 157.555 278.013 157.758C277.808 157.961 277.532 158.076 277.243 158.076Z" fill="#8F78EA"/>
<path d="M252.442 125.825C252.442 126.113 252.328 126.389 252.124 126.593C251.921 126.797 251.645 126.911 251.357 126.911H246.061C245.773 126.911 245.497 126.797 245.294 126.593C245.09 126.389 244.976 126.113 244.976 125.825C244.975 125.682 245.003 125.541 245.057 125.409C245.111 125.276 245.191 125.156 245.292 125.055C245.393 124.954 245.513 124.873 245.645 124.818C245.777 124.764 245.918 124.735 246.061 124.735H251.357C251.5 124.735 251.641 124.764 251.773 124.818C251.905 124.873 252.025 124.954 252.126 125.055C252.227 125.156 252.307 125.276 252.361 125.409C252.415 125.541 252.443 125.682 252.442 125.825Z" fill="#8F78EA"/>
<path d="M309.498 125.825C309.497 126.114 309.381 126.39 309.177 126.593C308.973 126.797 308.696 126.911 308.408 126.911H303.112C302.969 126.912 302.828 126.884 302.696 126.83C302.563 126.775 302.443 126.695 302.342 126.595C302.241 126.494 302.16 126.374 302.105 126.242C302.051 126.11 302.022 125.968 302.022 125.825C302.022 125.682 302.05 125.54 302.104 125.408C302.159 125.275 302.239 125.155 302.34 125.053C302.442 124.952 302.562 124.872 302.695 124.817C302.827 124.763 302.969 124.735 303.112 124.735H308.408C308.551 124.735 308.693 124.764 308.825 124.818C308.957 124.873 309.077 124.953 309.179 125.055C309.28 125.156 309.36 125.276 309.415 125.408C309.47 125.54 309.498 125.682 309.498 125.825Z" fill="#8F78EA"/>
<path d="M259.706 143.358C259.808 143.459 259.888 143.579 259.943 143.711C259.998 143.843 260.027 143.985 260.027 144.128C260.027 144.271 259.998 144.413 259.943 144.545C259.888 144.677 259.808 144.797 259.706 144.898L255.977 148.632C255.773 148.836 255.496 148.95 255.207 148.95C254.919 148.95 254.642 148.836 254.437 148.632C254.233 148.427 254.119 148.15 254.119 147.862C254.119 147.573 254.233 147.296 254.437 147.092L258.171 143.358C258.271 143.257 258.391 143.177 258.523 143.123C258.655 143.068 258.796 143.04 258.938 143.04C259.081 143.04 259.222 143.068 259.354 143.123C259.486 143.177 259.605 143.257 259.706 143.358Z" fill="#8F78EA"/>
<path d="M300.05 103.006C300.152 103.106 300.233 103.226 300.288 103.358C300.343 103.49 300.372 103.631 300.372 103.774C300.372 103.917 300.343 104.058 300.288 104.19C300.233 104.322 300.152 104.442 300.05 104.542L296.321 108.302C296.116 108.506 295.839 108.62 295.551 108.62C295.262 108.62 294.985 108.506 294.781 108.302C294.577 108.097 294.462 107.82 294.462 107.532C294.462 107.243 294.577 106.966 294.781 106.762L298.514 103.033C298.612 102.929 298.731 102.846 298.861 102.788C298.992 102.731 299.133 102.7 299.276 102.697C299.419 102.695 299.561 102.721 299.694 102.774C299.827 102.827 299.948 102.906 300.05 103.006Z" fill="#8F78EA"/>
<path d="M294.781 143.359C294.985 143.155 295.262 143.04 295.551 143.04C295.839 143.04 296.116 143.155 296.321 143.359L300.05 147.092C300.151 147.193 300.232 147.313 300.287 147.445C300.342 147.577 300.37 147.719 300.37 147.862C300.37 148.005 300.342 148.147 300.287 148.279C300.232 148.411 300.151 148.531 300.05 148.632C299.949 148.733 299.829 148.813 299.697 148.868C299.566 148.922 299.424 148.95 299.282 148.95C299.139 148.95 298.998 148.922 298.866 148.868C298.735 148.813 298.615 148.733 298.514 148.632L294.781 144.899C294.577 144.694 294.462 144.417 294.462 144.129C294.462 143.84 294.577 143.563 294.781 143.359Z" fill="#8F78EA"/>
<path d="M254.437 103.006C254.538 102.904 254.658 102.824 254.79 102.769C254.923 102.714 255.064 102.686 255.207 102.686C255.351 102.686 255.492 102.714 255.624 102.769C255.757 102.824 255.877 102.904 255.977 103.006L259.706 106.735C259.808 106.836 259.889 106.956 259.944 107.088C259.999 107.22 260.027 107.362 260.027 107.505C260.027 107.648 259.999 107.79 259.944 107.922C259.889 108.054 259.808 108.174 259.706 108.275C259.606 108.376 259.486 108.456 259.354 108.511C259.222 108.565 259.081 108.593 258.939 108.593C258.796 108.593 258.655 108.565 258.523 108.511C258.391 108.456 258.272 108.376 258.171 108.275L254.437 104.542C254.336 104.441 254.256 104.321 254.202 104.189C254.147 104.058 254.119 103.916 254.119 103.774C254.119 103.631 254.147 103.49 254.202 103.358C254.256 103.226 254.336 103.107 254.437 103.006Z" fill="#8F78EA"/>
<path d="M277.243 124.581C277.009 124.581 276.785 124.488 276.619 124.323C276.454 124.157 276.361 123.933 276.361 123.699V109.71C276.361 109.476 276.454 109.251 276.619 109.086C276.785 108.92 277.009 108.827 277.243 108.827C277.478 108.827 277.702 108.92 277.868 109.086C278.033 109.251 278.126 109.476 278.126 109.71V123.699C278.126 123.933 278.033 124.157 277.868 124.323C277.702 124.488 277.478 124.581 277.243 124.581Z" fill="#BF47A9"/>
<path d="M296.868 133.817C296.688 134.272 296.335 134.636 295.887 134.831C295.438 135.025 294.931 135.034 294.476 134.855L279.066 128.787C278.841 128.698 278.635 128.566 278.461 128.398C278.287 128.229 278.147 128.028 278.051 127.806C277.955 127.584 277.903 127.345 277.899 127.103C277.896 126.861 277.94 126.62 278.029 126.395C278.117 126.17 278.249 125.964 278.417 125.79C278.585 125.615 278.785 125.476 279.007 125.379C279.229 125.282 279.467 125.23 279.709 125.226C279.951 125.221 280.191 125.265 280.417 125.353L295.831 131.426C296.286 131.606 296.65 131.959 296.844 132.407C297.039 132.855 297.047 133.363 296.868 133.817Z" fill="#BF47A9"/>
<path d="M281.551 106.977C291.374 107.026 298.81 115.755 297.623 125.437C297.557 125.988 298.421 125.984 298.505 125.437C298.8 123.027 298.582 120.582 297.867 118.262C297.152 115.942 295.955 113.799 294.354 111.973C292.754 110.148 290.786 108.68 288.58 107.667C286.374 106.654 283.978 106.118 281.551 106.095C281.434 106.095 281.321 106.141 281.239 106.224C281.156 106.307 281.109 106.419 281.109 106.536C281.109 106.653 281.156 106.765 281.239 106.848C281.321 106.931 281.434 106.977 281.551 106.977Z" fill="#6D0892"/>
<path d="M294.405 123.351C294.767 124.577 295.21 125.779 295.729 126.947C296.096 127.768 296.563 129.184 297.556 129.458C298.474 129.71 298.84 128.439 299.176 127.83C299.857 126.58 300.415 125.266 300.84 123.907C301.012 123.373 300.178 123.148 300.005 123.677C299.72 124.564 299.382 125.433 298.995 126.281C298.84 126.616 297.909 128.778 297.499 128.421C296.934 127.927 296.616 126.801 296.307 126.131C295.88 125.152 295.518 124.147 295.222 123.121C295.176 123.03 295.1 122.958 295.007 122.917C294.914 122.875 294.809 122.868 294.711 122.895C294.613 122.922 294.527 122.982 294.468 123.065C294.409 123.148 294.381 123.249 294.388 123.351H294.405Z" fill="#6D0892"/>
<path d="M281.524 125.826C281.524 124.979 281.273 124.151 280.803 123.447C280.332 122.743 279.664 122.195 278.882 121.871C278.099 121.547 277.239 121.462 276.408 121.627C275.578 121.792 274.815 122.2 274.217 122.799C273.618 123.397 273.21 124.16 273.045 124.99C272.88 125.821 272.965 126.681 273.289 127.464C273.613 128.246 274.161 128.914 274.865 129.385C275.569 129.855 276.397 130.106 277.243 130.106C278.379 130.106 279.468 129.655 280.27 128.852C281.073 128.05 281.524 126.961 281.524 125.826Z" fill="#6D0892"/>
<path d="M207.88 80.4072H140.803C137.362 80.4072 134.572 83.197 134.572 86.6383V170.564C134.572 174.006 137.362 176.795 140.803 176.795H207.88C211.322 176.795 214.112 174.006 214.112 170.564V86.6383C214.112 83.197 211.322 80.4072 207.88 80.4072Z" fill="#F3F7FA"/>
<path d="M203.984 87.2256H144.7C142.545 87.2256 140.799 88.9722 140.799 91.1267V166.072C140.799 168.227 142.545 169.973 144.7 169.973H203.984C206.138 169.973 207.885 168.227 207.885 166.072V91.1267C207.885 88.9722 206.138 87.2256 203.984 87.2256Z" fill="#F2D1F0"/>
<path d="M207.977 166.073V141.664C206.742 140.054 204.496 139.378 202.426 139.074C195.537 138.063 188.529 139.427 181.575 139.162C180.083 139.105 178.538 138.955 177.254 138.196C175.97 137.437 175.048 135.91 175.396 134.467L174.479 136.828L173.565 134.467C173.927 135.91 172.987 137.437 171.703 138.196C170.419 138.955 168.874 139.105 167.387 139.162C160.432 139.427 153.42 138.063 146.531 139.074C144.413 139.383 142.118 140.089 140.891 141.788V166.059C140.891 167.094 141.302 168.086 142.034 168.818C142.766 169.549 143.758 169.96 144.792 169.96H204.076C205.109 169.96 206.099 169.551 206.83 168.822C207.561 168.094 207.974 167.105 207.977 166.073Z" fill="#E85DBA"/>
<path d="M176.638 163.536C182.068 162.268 185.441 156.837 184.173 151.407C182.904 145.977 177.474 142.603 172.043 143.872C166.613 145.141 163.24 150.571 164.508 156.001C165.777 161.431 171.207 164.805 176.638 163.536Z" fill="#BF47A9"/>
<path d="M171.888 158.491C171.752 158.491 171.617 158.464 171.491 158.412C171.365 158.359 171.251 158.283 171.155 158.187C171.059 158.09 170.982 157.976 170.93 157.85C170.878 157.725 170.851 157.59 170.851 157.453V150.927C170.851 150.652 170.96 150.388 171.155 150.193C171.349 149.999 171.613 149.89 171.888 149.89C172.163 149.89 172.427 149.999 172.621 150.193C172.816 150.388 172.925 150.652 172.925 150.927V157.453C172.925 157.59 172.898 157.725 172.846 157.85C172.794 157.976 172.718 158.09 172.621 158.187C172.525 158.283 172.411 158.359 172.285 158.412C172.159 158.464 172.024 158.491 171.888 158.491Z" fill="#E54885"/>
<path d="M176.791 158.491C176.655 158.491 176.52 158.464 176.394 158.412C176.268 158.359 176.154 158.283 176.058 158.187C175.961 158.09 175.885 157.976 175.833 157.85C175.781 157.725 175.754 157.59 175.754 157.453V150.927C175.754 150.652 175.863 150.388 176.058 150.193C176.252 149.999 176.516 149.89 176.791 149.89C177.066 149.89 177.33 149.999 177.524 150.193C177.719 150.388 177.828 150.652 177.828 150.927V157.453C177.828 157.59 177.801 157.725 177.749 157.85C177.697 157.976 177.62 158.09 177.524 158.187C177.428 158.283 177.314 158.359 177.188 158.412C177.062 158.464 176.927 158.491 176.791 158.491Z" fill="#E54885"/>
<path d="M155.3 115.394C154.241 113.664 151.187 112.746 149.4 113.84C149.032 114.066 148.716 114.367 148.473 114.723C148.158 115.221 147.986 115.797 147.979 116.387C147.96 116.966 148.059 117.543 148.268 118.084C148.478 118.625 148.794 119.118 149.198 119.533C149.602 119.949 150.085 120.28 150.619 120.505C151.154 120.73 151.728 120.845 152.308 120.844C152.864 120.858 153.416 120.742 153.92 120.506C154.424 120.271 154.866 119.921 155.211 119.484C155.481 119.111 155.671 118.686 155.768 118.236C155.984 117.263 155.817 116.245 155.3 115.394Z" fill="#F3F7FA"/>
<path d="M193.088 115.394C194.151 113.664 197.201 112.746 198.988 113.84C199.357 114.066 199.674 114.367 199.919 114.723C200.231 115.222 200.401 115.798 200.409 116.387C200.427 116.966 200.329 117.543 200.12 118.083C199.911 118.623 199.595 119.116 199.192 119.532C198.788 119.948 198.305 120.278 197.771 120.504C197.237 120.729 196.664 120.845 196.084 120.844C195.527 120.858 194.975 120.742 194.47 120.507C193.966 120.271 193.523 119.921 193.176 119.484C192.908 119.11 192.719 118.685 192.62 118.236C192.403 117.263 192.571 116.245 193.088 115.394Z" fill="#F3F7FA"/>
<path d="M204.059 108.602C202.929 105.588 200.144 103.491 197.196 102.423C195.652 101.863 193.975 101.823 192.373 101.356C191.271 101.094 190.194 100.735 189.156 100.283C188.238 99.8419 187.506 99.0784 186.667 98.4606C183.19 95.8967 179.081 94.2418 174.695 94.2021C169.929 94.158 165.767 95.6672 161.981 98.4606C161.138 99.0784 160.41 99.8198 159.488 100.283C158.449 100.736 157.373 101.095 156.27 101.356C154.673 101.823 152.992 101.863 151.447 102.423C148.499 103.491 145.71 105.588 144.589 108.602C143.954 110.267 143.87 112.093 144.351 113.809C144.638 114.749 145.388 115.358 146.063 116.015C146.43 116.33 146.74 116.704 146.981 117.123C147.224 117.613 147.268 118.191 147.643 118.624C147.803 118.829 148.029 118.971 148.283 119.025C148.848 119.109 149.126 118.584 149.166 118.107C149.189 117.753 149.132 117.397 148.997 117.068C148.863 116.739 148.655 116.446 148.389 116.21C148.814 116.665 149.358 116.992 149.96 117.154C150.262 117.226 150.579 117.186 150.853 117.042C151.128 116.897 151.34 116.658 151.452 116.368C151.49 116.159 151.476 115.944 151.41 115.742C151.343 115.54 151.227 115.358 151.072 115.212C150.769 114.923 150.416 114.69 150.031 114.524C150.648 114.864 151.677 114.837 152.122 114.215C153.098 112.851 150.75 112.715 150.11 112.339C148.786 111.567 149.753 109.405 150.485 108.615C151.492 107.599 152.759 106.878 154.148 106.532C156.676 105.848 159.607 105.371 161.65 107.392C163.247 108.972 162.409 111.395 162.122 113.31C161.553 117.128 163.649 121.514 166.014 124.449C167.038 125.72 168.291 126.889 168.777 128.447C169.139 129.599 169.033 130.839 169.218 132.035C169.385 133.321 169.961 134.52 170.86 135.455C171.759 136.39 172.935 137.012 174.214 137.229C176.981 137.718 179.094 134.488 179.452 132.039C179.628 130.843 179.527 129.603 179.893 128.451C180.379 126.893 181.632 125.724 182.656 124.453C185.021 121.518 187.117 117.132 186.548 113.315C186.265 111.399 185.423 108.977 187.025 107.397C189.063 105.376 191.998 105.852 194.527 106.536C195.915 106.882 197.182 107.603 198.189 108.619C198.922 109.409 199.866 111.572 198.564 112.344C197.925 112.719 195.577 112.856 196.552 114.219C196.993 114.842 198.03 114.868 198.648 114.528C198.261 114.692 197.906 114.926 197.602 115.217C197.448 115.362 197.333 115.545 197.267 115.747C197.202 115.949 197.188 116.164 197.227 116.373C197.339 116.662 197.551 116.901 197.825 117.046C198.1 117.19 198.417 117.23 198.719 117.158C199.32 116.997 199.863 116.67 200.285 116.214C200.02 116.45 199.812 116.744 199.677 117.073C199.543 117.402 199.485 117.757 199.509 118.112C199.544 118.579 199.822 119.113 200.391 119.03C200.645 118.975 200.872 118.833 201.031 118.628C201.411 118.187 201.451 117.617 201.693 117.128C201.935 116.71 202.246 116.335 202.611 116.02C203.291 115.358 204.037 114.749 204.323 113.813C204.795 112.092 204.702 110.266 204.059 108.602Z" fill="#E79FE1"/>
<g style="mix-blend-mode:multiply">
<path d="M183.013 114.634C183.062 113.499 183.286 112.378 183.675 111.311C184.116 109.859 184.62 108.575 184.5 107.039C184.398 105.637 183.97 104.277 183.252 103.068C181.619 100.38 177.784 99.736 174.342 99.9037C170.9 99.736 167.065 100.38 165.428 103.068C164.709 104.277 164.281 105.637 164.179 107.039C164.06 108.575 164.558 109.859 165.008 111.311C165.394 112.379 165.616 113.5 165.666 114.634C165.666 115.517 165.454 116.342 165.419 117.203C165.335 119.237 167.157 121.024 168.596 122.286C169.479 123.045 170.397 123.756 171.028 124.718C172.93 127.608 172.007 131.576 172.409 134.841C172.482 135.507 172.612 136.165 172.797 136.809C173.246 137.01 173.717 137.158 174.201 137.251C174.732 137.345 175.279 137.301 175.789 137.123C176.03 136.389 176.191 135.631 176.27 134.863C176.672 131.598 175.749 127.63 177.651 124.74C178.283 123.778 179.218 123.067 180.083 122.308C181.522 121.046 183.349 119.259 183.26 117.225C183.225 116.342 183.04 115.495 183.013 114.634Z" fill="#E79FE1"/>
</g>
<g style="mix-blend-mode:multiply">
<path d="M184.5 107.039C184.398 105.637 183.97 104.277 183.252 103.068C181.619 100.38 177.784 99.736 174.342 99.9037C170.9 99.736 167.065 100.38 165.428 103.068C164.709 104.277 164.281 105.637 164.179 107.039C164.06 108.575 164.558 109.859 165.008 111.311C165.394 112.379 165.616 113.5 165.666 114.634C165.666 115.517 165.454 116.342 165.419 117.203C165.335 119.237 167.157 121.024 168.596 122.286C169.479 123.045 170.397 123.756 171.028 124.718C171.067 124.775 171.098 124.837 171.134 124.899C173.237 125.26 175.385 125.288 177.497 124.983C177.55 124.894 177.594 124.802 177.651 124.718C178.283 123.756 179.218 123.045 180.083 122.286C181.522 121.024 183.349 119.237 183.26 117.203C183.225 116.342 183.022 115.495 183.013 114.634C183.062 113.499 183.286 112.378 183.675 111.311C184.121 109.859 184.62 108.575 184.5 107.039Z" fill="#E79FE1"/>
</g>
<g style="mix-blend-mode:color-burn" opacity="0.21">
<path d="M185.542 141.046C180.917 140.331 176.182 139.691 172.007 137.577C164.382 133.712 159.876 125.534 157.445 117.339C155.013 109.145 154.21 100.517 151.536 92.3973C150.167 88.0635 148.046 84.0047 145.269 80.4072H140.803C139.151 80.4072 137.566 81.0637 136.397 82.2323C135.229 83.4008 134.572 84.9858 134.572 86.6383V170.56C134.572 172.213 135.228 173.798 136.397 174.967C137.565 176.137 139.15 176.794 140.803 176.795H207.88C209.534 176.795 211.12 176.138 212.29 174.969C213.459 173.8 214.116 172.214 214.116 170.56V148.111C204.994 144.545 195.251 142.546 185.542 141.046Z" fill="#5B6878"/>
</g>
<path d="M213.869 102.944C225.999 102.944 235.832 93.111 235.832 80.9809C235.832 68.8509 225.999 59.0176 213.869 59.0176C201.739 59.0176 191.905 68.8509 191.905 80.9809C191.905 93.111 201.739 102.944 213.869 102.944Z" fill="#BF47A9"/>
<path d="M227.068 70.2969H200.674C199.68 70.2969 198.873 71.103 198.873 72.0974V90.6936C198.873 91.688 199.68 92.4941 200.674 92.4941H227.068C228.062 92.4941 228.868 91.688 228.868 90.6936V72.0974C228.868 71.103 228.062 70.2969 227.068 70.2969Z" fill="#F3F7FA"/>
<path d="M206.601 84.1299V83.219L210.022 79.4745C210.423 79.036 210.754 78.6548 211.013 78.3309C211.273 78.0037 211.465 77.6967 211.59 77.41C211.718 77.1198 211.782 76.8162 211.782 76.4991C211.782 76.1348 211.695 75.8194 211.519 75.5529C211.347 75.2864 211.111 75.0806 210.811 74.9355C210.511 74.7905 210.173 74.7179 209.799 74.7179C209.401 74.7179 209.053 74.8006 208.756 74.9659C208.463 75.1278 208.235 75.3555 208.073 75.649C207.915 75.9425 207.836 76.2866 207.836 76.6813H206.641C206.641 76.0741 206.781 75.5411 207.061 75.0823C207.341 74.6235 207.723 74.2659 208.205 74.0095C208.691 73.7531 209.236 73.6249 209.839 73.6249C210.447 73.6249 210.985 73.7531 211.454 74.0095C211.922 74.2659 212.29 74.6117 212.557 75.0468C212.823 75.482 212.956 75.9661 212.956 76.4991C212.956 76.8803 212.887 77.2531 212.749 77.6174C212.614 77.9784 212.378 78.3815 212.041 78.8268C211.707 79.2687 211.243 79.8085 210.649 80.4461L208.321 82.9357V83.0166H213.139V84.1299H206.601ZM218.872 73.7666V84.1299H217.617V75.0823H217.556L215.026 76.7622V75.4871L217.617 73.7666H218.872Z" fill="#6D0892"/>
<path d="M205.664 88.3438V86.3098H205.966V86.6276H205.992C206.035 86.519 206.103 86.4347 206.198 86.3747C206.292 86.3137 206.406 86.2833 206.538 86.2833C206.672 86.2833 206.784 86.3137 206.873 86.3747C206.963 86.4347 207.033 86.519 207.084 86.6276H207.105C207.157 86.5225 207.235 86.4391 207.339 86.3773C207.443 86.3146 207.568 86.2833 207.714 86.2833C207.896 86.2833 208.045 86.3402 208.16 86.4541C208.276 86.5671 208.334 86.7432 208.334 86.9825V88.3438H208.021V86.9825C208.021 86.8324 207.98 86.7251 207.898 86.6607C207.816 86.5962 207.719 86.564 207.608 86.564C207.465 86.564 207.354 86.6073 207.276 86.6938C207.197 86.7794 207.158 86.888 207.158 87.0195V88.3438H206.84V86.9507C206.84 86.835 206.802 86.7419 206.727 86.6713C206.652 86.5998 206.556 86.564 206.437 86.564C206.356 86.564 206.28 86.5856 206.21 86.6289C206.14 86.6722 206.083 86.7322 206.04 86.809C205.998 86.8849 205.977 86.9728 205.977 87.0725V88.3438H205.664ZM209.731 88.3861C209.548 88.3861 209.387 88.3424 209.248 88.255C209.11 88.1676 209.003 88.0454 208.925 87.8882C208.848 87.7311 208.81 87.5475 208.81 87.3374C208.81 87.1255 208.848 86.9405 208.925 86.7825C209.003 86.6245 209.11 86.5018 209.248 86.4144C209.387 86.327 209.548 86.2833 209.731 86.2833C209.915 86.2833 210.076 86.327 210.213 86.4144C210.352 86.5018 210.46 86.6245 210.536 86.7825C210.614 86.9405 210.653 87.1255 210.653 87.3374C210.653 87.5475 210.614 87.7311 210.536 87.8882C210.46 88.0454 210.352 88.1676 210.213 88.255C210.076 88.3424 209.915 88.3861 209.731 88.3861ZM209.731 88.1054C209.871 88.1054 209.986 88.0696 210.076 87.9981C210.166 87.9266 210.232 87.8326 210.276 87.7161C210.319 87.5995 210.341 87.4733 210.341 87.3374C210.341 87.2014 210.319 87.0747 210.276 86.9573C210.232 86.8399 210.166 86.745 210.076 86.6726C209.986 86.6002 209.871 86.564 209.731 86.564C209.592 86.564 209.477 86.6002 209.387 86.6726C209.297 86.745 209.23 86.8399 209.187 86.9573C209.144 87.0747 209.122 87.2014 209.122 87.3374C209.122 87.4733 209.144 87.5995 209.187 87.7161C209.23 87.8326 209.297 87.9266 209.387 87.9981C209.477 88.0696 209.592 88.1054 209.731 88.1054ZM211.443 87.1202V88.3438H211.13V86.3098H211.432V86.6276H211.458C211.506 86.5243 211.579 86.4413 211.676 86.3786C211.773 86.3151 211.898 86.2833 212.052 86.2833C212.189 86.2833 212.31 86.3115 212.413 86.368C212.517 86.4237 212.597 86.5084 212.654 86.6223C212.712 86.7353 212.74 86.8783 212.74 87.0513V88.3438H212.428V87.0725C212.428 86.9127 212.386 86.7883 212.303 86.6991C212.22 86.609 212.106 86.564 211.962 86.564C211.862 86.564 211.773 86.5856 211.694 86.6289C211.616 86.6722 211.555 86.7353 211.51 86.8183C211.465 86.9012 211.443 87.0019 211.443 87.1202ZM214.196 86.3098V86.5746H213.142V86.3098H214.196ZM213.449 85.8225H213.762V87.7611C213.762 87.8494 213.774 87.9156 213.8 87.9597C213.826 88.003 213.86 88.0321 213.901 88.0471C213.942 88.0613 213.986 88.0683 214.032 88.0683C214.066 88.0683 214.094 88.0665 214.116 88.063C214.139 88.0586 214.156 88.0551 214.169 88.0524L214.233 88.3332C214.212 88.3411 214.182 88.349 214.144 88.357C214.106 88.3658 214.058 88.3702 214 88.3702C213.912 88.3702 213.825 88.3513 213.74 88.3133C213.657 88.2753 213.587 88.2175 213.531 88.1398C213.476 88.0621 213.449 87.9641 213.449 87.8458V85.8225ZM215.022 87.1202V88.3438H214.71V85.6318H215.022V86.6276H215.049C215.096 86.5225 215.168 86.4391 215.263 86.3773C215.359 86.3146 215.487 86.2833 215.647 86.2833C215.786 86.2833 215.907 86.3111 216.011 86.3667C216.116 86.4214 216.196 86.5058 216.254 86.6196C216.312 86.7326 216.341 86.8765 216.341 87.0513V88.3438H216.029V87.0725C216.029 86.911 215.987 86.786 215.903 86.6978C215.82 86.6086 215.705 86.564 215.557 86.564C215.455 86.564 215.363 86.5856 215.282 86.6289C215.201 86.6722 215.138 86.7353 215.091 86.8183C215.045 86.9012 215.022 87.0019 215.022 87.1202Z" fill="#BF47A9"/>
<path d="M202.898 72.1778C202.733 72.1778 202.574 72.1123 202.457 71.9958C202.339 71.8792 202.273 71.721 202.272 71.5555V68.9386C202.273 68.7732 202.339 68.6149 202.457 68.4984C202.574 68.3818 202.733 68.3164 202.898 68.3164C203.063 68.3176 203.221 68.3835 203.337 68.4999C203.453 68.6164 203.519 68.774 203.52 68.9386V71.5555C203.52 71.6372 203.504 71.7182 203.473 71.7936C203.442 71.8691 203.396 71.9377 203.338 71.9955C203.28 72.0533 203.212 72.0991 203.136 72.1304C203.061 72.1617 202.98 72.1778 202.898 72.1778Z" fill="#BF47A9"/>
<path d="M207.276 72.1778C207.194 72.1778 207.113 72.1617 207.038 72.1304C206.962 72.0991 206.893 72.0533 206.836 71.9955C206.778 71.9377 206.732 71.8691 206.701 71.7936C206.67 71.7182 206.653 71.6372 206.653 71.5555V68.9386C206.653 68.8569 206.67 68.776 206.701 68.7005C206.732 68.625 206.778 68.5564 206.836 68.4987C206.893 68.4409 206.962 68.395 207.038 68.3638C207.113 68.3325 207.194 68.3164 207.276 68.3164C207.441 68.3164 207.599 68.382 207.716 68.4987C207.832 68.6153 207.898 68.7736 207.898 68.9386V71.5555C207.898 71.6372 207.882 71.7182 207.851 71.7936C207.819 71.8691 207.773 71.9377 207.716 71.9955C207.658 72.0533 207.589 72.0991 207.514 72.1304C207.438 72.1617 207.357 72.1778 207.276 72.1778Z" fill="#BF47A9"/>
<path d="M211.671 72.1778C211.506 72.1778 211.348 72.1122 211.231 71.9955C211.114 71.8788 211.049 71.7206 211.049 71.5555V68.9386C211.049 68.7736 211.114 68.6153 211.231 68.4987C211.348 68.382 211.506 68.3164 211.671 68.3164C211.836 68.3164 211.994 68.382 212.111 68.4987C212.228 68.6153 212.293 68.7736 212.293 68.9386V71.5555C212.293 71.6372 212.277 71.7182 212.246 71.7936C212.215 71.8691 212.169 71.9377 212.111 71.9955C212.053 72.0533 211.985 72.0991 211.909 72.1304C211.834 72.1617 211.753 72.1778 211.671 72.1778Z" fill="#BF47A9"/>
<path d="M216.066 72.1778C215.985 72.1778 215.904 72.1617 215.828 72.1304C215.753 72.0991 215.684 72.0533 215.626 71.9955C215.569 71.9377 215.523 71.8691 215.492 71.7936C215.46 71.7182 215.444 71.6372 215.444 71.5555V68.9386C215.444 68.8569 215.46 68.776 215.492 68.7005C215.523 68.625 215.569 68.5564 215.626 68.4987C215.684 68.4409 215.753 68.395 215.828 68.3638C215.904 68.3325 215.985 68.3164 216.066 68.3164C216.231 68.3164 216.39 68.382 216.506 68.4987C216.623 68.6153 216.689 68.7736 216.689 68.9386V71.5555C216.689 71.6372 216.673 71.7182 216.641 71.7936C216.61 71.8691 216.564 71.9377 216.506 71.9955C216.449 72.0533 216.38 72.0991 216.305 72.1304C216.229 72.1617 216.148 72.1778 216.066 72.1778Z" fill="#BF47A9"/>
<path d="M220.462 72.1778C220.38 72.1778 220.299 72.1617 220.224 72.1304C220.148 72.0991 220.08 72.0533 220.022 71.9955C219.964 71.9377 219.918 71.8691 219.887 71.7936C219.856 71.7182 219.84 71.6372 219.84 71.5555V68.9386C219.84 68.8569 219.856 68.776 219.887 68.7005C219.918 68.625 219.964 68.5564 220.022 68.4987C220.08 68.4409 220.148 68.395 220.224 68.3638C220.299 68.3325 220.38 68.3164 220.462 68.3164C220.544 68.3164 220.624 68.3325 220.7 68.3638C220.775 68.395 220.844 68.4409 220.902 68.4987C220.96 68.5564 221.005 68.625 221.037 68.7005C221.068 68.776 221.084 68.8569 221.084 68.9386V71.5555C221.084 71.6372 221.068 71.7182 221.037 71.7936C221.005 71.8691 220.96 71.9377 220.902 71.9955C220.844 72.0533 220.775 72.0991 220.7 72.1304C220.624 72.1617 220.544 72.1778 220.462 72.1778Z" fill="#BF47A9"/>
<path d="M224.862 72.1778C224.696 72.1778 224.537 72.1123 224.42 71.9958C224.303 71.8792 224.236 71.721 224.235 71.5555V68.9386C224.236 68.7732 224.303 68.6149 224.42 68.4984C224.537 68.3818 224.696 68.3164 224.862 68.3164C225.026 68.3176 225.184 68.3835 225.3 68.4999C225.417 68.6164 225.483 68.774 225.484 68.9386V71.5555C225.484 71.6372 225.468 71.7182 225.436 71.7936C225.405 71.8691 225.359 71.9377 225.302 71.9955C225.244 72.0533 225.175 72.0991 225.1 72.1304C225.024 72.1617 224.943 72.1778 224.862 72.1778Z" fill="#BF47A9"/>
<g style="mix-blend-mode:color-burn" opacity="0.21">
<path d="M235.519 84.6881C229.239 83.5187 222.549 84.5072 216.071 84.8117C212.54 84.975 208.763 84.847 205.921 82.7861C204.553 81.7478 203.434 80.4164 202.647 78.8895C200.44 74.8428 199.902 70.0194 200.515 65.4475C200.612 64.7194 200.74 63.9957 200.89 63.2764C197.992 65.4043 195.66 68.2112 194.1 71.4508C192.54 74.6903 191.799 78.2633 191.942 81.8561C192.086 85.4488 193.109 88.9515 194.922 92.0564C196.735 95.1614 199.283 97.7737 202.342 99.664C205.4 101.554 208.876 102.665 212.464 102.898C216.053 103.131 219.643 102.479 222.92 101.001C226.198 99.5222 229.062 97.2615 231.262 94.4172C233.462 91.573 234.93 88.2321 235.536 84.6881H235.519Z" fill="#5B6878"/>
</g>
<path d="M152.409 220.33L157.555 224.09C156.099 226.129 154.62 228.181 153.12 230.171C152.802 230.544 152.563 230.979 152.419 231.448C152.275 231.917 152.228 232.41 152.282 232.898C152.335 233.386 152.488 233.857 152.73 234.284C152.973 234.711 153.299 235.083 153.691 235.379C154.082 235.675 154.53 235.887 155.007 236.004C155.483 236.12 155.979 236.138 156.462 236.056C156.946 235.974 157.408 235.794 157.82 235.527C158.232 235.261 158.584 234.912 158.857 234.504C160.388 232.474 161.888 230.396 163.358 228.326L168.512 232.09C169.284 232.627 170.235 232.84 171.162 232.684C172.089 232.529 172.919 232.017 173.473 231.258C174.028 230.5 174.264 229.554 174.131 228.624C173.999 227.693 173.507 226.852 172.762 226.279L167.533 222.457C168.857 220.59 170.22 218.728 171.597 216.897C177.494 221.013 184.736 222.73 191.854 221.699C198.971 220.667 205.428 216.965 209.913 211.343C214.398 205.722 216.575 198.603 216 191.435C215.426 184.266 212.143 177.586 206.82 172.75C201.497 167.915 194.532 165.288 187.342 165.403C180.151 165.518 173.274 168.367 168.109 173.37C162.943 178.374 159.876 185.156 159.531 192.339C159.187 199.522 161.59 206.567 166.253 212.042C164.704 214.085 163.195 216.16 161.716 218.22L156.646 214.518C156.265 214.225 155.83 214.012 155.365 213.89C154.901 213.768 154.417 213.74 153.941 213.808C153.466 213.876 153.009 214.038 152.597 214.285C152.185 214.532 151.827 214.859 151.544 215.247C151.26 215.635 151.057 216.075 150.946 216.542C150.836 217.01 150.82 217.494 150.899 217.968C150.979 218.442 151.152 218.895 151.409 219.3C151.666 219.706 152.002 220.056 152.396 220.33H152.409ZM187.784 214.818C183.623 214.818 179.556 213.584 176.096 211.272C172.636 208.961 169.94 205.675 168.348 201.831C166.756 197.987 166.34 193.757 167.152 189.676C167.964 185.595 169.968 181.847 172.91 178.905C175.853 175.963 179.601 173.96 183.682 173.148C187.763 172.337 191.993 172.754 195.837 174.347C199.681 175.94 202.966 178.637 205.277 182.097C207.588 185.557 208.821 189.625 208.82 193.786C208.815 199.363 206.596 204.71 202.652 208.653C198.708 212.596 193.361 214.813 187.784 214.818Z" fill="#7D65B7"/>
<path d="M183.344 203.101C183.388 203.3 192.929 202.28 193.825 202.218C195.021 202.117 197.925 202.413 198.887 201.702C199.686 201.115 199.328 199.871 200.427 199.363C201.221 199.085 202.076 199.032 202.898 199.209C208.772 199.968 214.504 201.618 220.387 202.342C226.269 203.066 232.509 202.783 237.69 199.902C240.581 198.3 242.986 195.978 245.377 193.697C247.769 191.415 250.21 189.116 253.131 187.581C256.052 186.045 259.574 185.339 262.698 186.411C265.823 187.483 268.325 190.643 267.959 193.913L288.069 192.704C287.427 189.574 287.2 186.374 287.393 183.185C288.478 185.172 289.325 187.28 289.918 189.465C293.541 189.159 297.13 188.539 300.646 187.611C300.5 185.039 300.169 181.853 298.973 179.549C297.883 177.444 295.813 175.688 293.444 175.621C291.542 175.564 289.472 176.539 287.835 175.573C287.106 175.067 286.534 174.367 286.184 173.552C284.587 170.427 284.807 167.029 282.093 164.545C280.024 162.652 277.239 161.659 275.222 159.691C269.971 154.616 273.17 147.043 269.402 141.509C268.003 139.461 265.708 138.217 264.031 136.394C261.088 133.199 260.395 128.72 260.117 124.554C259.826 120.133 259.044 116.245 256.295 112.56C254.446 110.115 250.302 107.264 247.363 106.492C246.013 106.13 244.627 105.883 243.268 105.57C239.473 104.687 235.413 105.61 231.525 105.883C227.913 106.066 224.322 106.556 220.793 107.348C213.653 109.113 208.264 114.996 208.242 122.666C208.242 128.76 210.634 138.394 203.692 141.827C202.108 142.608 200.303 142.882 198.759 143.738C195.44 145.587 193.401 149.514 193.335 153.252C193.278 156.579 194.589 161.089 192.585 164.121C191.632 165.569 189.937 166.27 188.34 166.976C185.886 168.075 183.485 169.421 181.72 171.447C178.631 174.977 178.578 178.838 178.918 183.476C179.064 185.467 179.192 187.889 177.55 189.015C176.456 189.769 174.999 189.615 173.689 189.827C171.217 190.228 169.126 192.033 167.952 194.266C166.778 196.499 166.5 199.068 166.628 201.565C170.938 202.339 175.307 202.746 179.686 202.783C180.41 200.615 181.132 198.45 181.853 196.287C182.35 198.559 182.847 200.83 183.344 203.101Z" fill="#6D0892"/>
<path d="M229.482 166.363C229.482 166.363 205.347 167.488 199.588 178.057C193.829 188.626 187.629 208.701 190.484 219.923C193.34 231.145 199.403 231.092 208.644 230.704C208.644 230.704 204.84 239.292 204.782 246.097C204.782 246.097 253.277 257.156 276.012 243.215C276.012 243.215 274.119 233.149 271.979 230.704C271.979 230.704 286.449 227.756 283.285 211.062C280.121 194.368 267.27 169.849 259.772 168.406C252.275 166.963 239.813 165.847 239.813 165.847" fill="#F3F7FA"/>
<path d="M247.239 250.165L248.793 166.795C243.894 166.213 239.812 165.847 239.812 165.847L229.482 166.363C226.486 166.544 223.503 166.902 220.55 167.435C222.805 181.755 230.903 233.017 233.859 249.993C238.202 250.254 242.721 250.342 247.239 250.165Z" fill="#E28EDC"/>
<path d="M229.482 166.363C226.486 166.544 223.503 166.902 220.55 167.435C221.057 170.644 221.874 175.71 222.822 181.826L234.671 169.748L248.541 180.537L248.797 166.795C243.899 166.213 239.817 165.847 239.817 165.847L229.482 166.363Z" fill="#CC79CA"/>
<path d="M260.579 138.392C261.753 134.289 260.031 130.197 256.732 129.253C253.432 128.309 249.806 130.87 248.632 134.972C247.458 139.075 249.18 143.167 252.48 144.111C255.779 145.055 259.405 142.494 260.579 138.392Z" fill="#FCB58A"/>
<path d="M226.609 152.749H242.641V164.134C242.641 166.26 241.797 168.298 240.294 169.801C238.791 171.304 236.753 172.148 234.627 172.148C232.502 172.148 230.464 171.304 228.961 169.801C227.458 168.298 226.613 166.26 226.613 164.134V152.749H226.609Z" fill="#FFB384"/>
<path d="M255.818 123.037L255.858 123.893C252.544 123.991 248.722 122.874 245.223 120.531C242.484 118.741 240.242 116.288 238.705 113.399C237.054 117.636 233.749 122.071 229.129 125.756C224.182 129.688 218.723 131.956 213.992 132.411C213.787 132.714 213.521 132.971 213.211 133.166C212.901 133.362 212.554 133.49 212.192 133.545C211.299 133.672 210.451 134.011 209.716 134.533C206.68 136.74 206.42 141.554 209.138 145.336C211.225 148.24 214.46 149.665 217.222 149.189C218.946 152.359 221.526 154.979 224.669 156.752C227.811 158.524 231.389 159.376 234.994 159.21L241.728 158.88C250.642 158.469 257.103 150.91 256.692 142L255.818 123.037Z" fill="#FCB58A"/>
<path d="M233.427 141.589C233.723 143.175 234.604 144.592 235.895 145.559C237.186 146.526 238.793 146.974 240.398 146.813C242.003 146.652 243.49 145.894 244.563 144.69C245.636 143.486 246.218 141.923 246.194 140.31L233.427 141.589Z" fill="white"/>
<path d="M217.307 146.178C217.351 146.178 217.664 145.454 217.629 144.179C217.536 142.528 217.011 140.93 216.106 139.545C215.631 138.765 215.027 138.071 214.319 137.493C213.732 137.023 213.052 136.683 212.324 136.496C211.835 136.369 211.325 136.34 210.824 136.408C210.471 136.461 210.29 136.544 210.299 136.575C210.308 136.606 211.084 136.469 212.227 136.836C212.889 137.054 213.502 137.398 214.032 137.851C214.68 138.417 215.238 139.08 215.687 139.814C216.547 141.145 217.091 142.654 217.28 144.227C217.399 145.406 217.218 146.16 217.307 146.178Z" fill="#A54959"/>
<path d="M214.456 144.612C214.522 144.585 214.456 144.219 214.328 143.636C214.15 142.896 214.047 142.139 214.023 141.377C214.017 140.627 214.167 139.885 214.464 139.197C214.694 138.667 214.906 138.376 214.87 138.314C214.835 138.253 214.491 138.486 214.151 139.025C213.734 139.736 213.523 140.549 213.542 141.373C213.559 142.179 213.716 142.976 214.005 143.729C214.204 144.307 214.394 144.634 214.456 144.612Z" fill="#A54959"/>
<path d="M243.364 175.242L227.568 176.029C226.64 176.075 225.926 176.864 225.972 177.792L226.141 181.19C226.187 182.117 226.977 182.832 227.904 182.785L243.7 181.999C244.628 181.953 245.342 181.164 245.296 180.236L245.127 176.838C245.081 175.911 244.292 175.196 243.364 175.242Z" fill="#BF47A9"/>
<path d="M255.73 121.05C255.412 114.188 250.029 108.884 243.166 109.184L237.43 109.453L226.556 109.97C223.104 110.129 219.857 111.652 217.528 114.205C215.199 116.758 213.98 120.132 214.138 123.584L214.469 130.79C214.498 131.352 214.343 131.908 214.028 132.374C218.758 131.933 224.217 129.651 229.164 125.719C233.784 122.052 237.107 117.617 238.74 113.363C240.277 116.251 242.519 118.704 245.258 120.494C248.758 122.838 252.579 123.954 255.893 123.857L255.73 121.05Z" fill="#6D0892"/>
<g style="mix-blend-mode:multiply" opacity="0.2">
<path d="M254.945 124.511C255.254 124.511 255.567 124.48 255.885 124.449L255.841 123.461V123.902C252.526 123.999 248.705 122.883 245.205 120.54C242.467 118.75 240.225 116.297 238.687 113.408C237.037 117.645 233.732 122.08 229.111 125.765C224.35 129.551 219.111 131.788 214.509 132.358L214.469 132.631C219.456 132.388 224.478 131.431 228.926 129.167C233.374 126.903 237.231 123.249 239.115 118.624C243.43 122.563 249.105 124.674 254.945 124.511Z" fill="#A54959"/>
</g>
<path d="M253.41 178.291L217.872 180.06C216.492 180.129 215.429 181.303 215.498 182.684L217.87 230.329C217.938 231.709 219.113 232.772 220.493 232.704L256.031 230.934C257.411 230.866 258.474 229.691 258.406 228.311L256.034 180.666C255.965 179.285 254.79 178.222 253.41 178.291Z" fill="#6D0892"/>
<path d="M232.743 205.11C241.163 205.661 248.956 200.3 257.381 199.946C258.126 199.916 260.496 199.664 260.47 200.909C260.47 202.007 257.584 202.069 256.842 202.166C253.989 202.545 251.257 203.557 248.846 205.127C251.427 204.686 254.013 204.218 256.617 203.878C257.837 203.709 259.066 203.625 260.298 203.627C260.862 203.627 263.625 203.561 263.788 204.192C264.049 205.189 260.999 205.476 260.443 205.591C257.01 206.297 253.25 206.363 250.262 208.411C253.28 207.51 256.404 207.016 259.552 206.941C260.05 206.941 261.723 207.078 262.001 207.546C262.676 208.684 259.794 208.79 259.062 208.927C255.946 209.518 252.72 210.154 250.13 211.981C253.53 211.191 257.044 211.019 260.505 211.473C261.149 211.557 261.988 211.976 261.763 212.581C261.683 212.764 261.549 212.918 261.379 213.022C258.771 214.946 255.156 214.5 252.063 215.449C249.79 216.147 247.826 217.585 245.664 218.565C242.516 219.976 239.012 220.393 235.62 219.761" fill="#FCB58A"/>
<path d="M241.317 202.572C231.609 203.349 221.959 204.602 212.368 206.332C214.432 200.589 215.428 194.517 215.307 188.415C215.224 184.272 214.557 179.978 212.218 176.544C210.974 174.713 209.001 173.089 206.795 173.279L192.656 209.58C191.142 212.612 191.371 216.274 192.506 219.465C193.64 222.656 195.595 225.475 197.55 228.251C199.315 230.784 200.639 230.93 203.516 230.82C206.265 230.718 209.01 230.568 211.75 230.339C217.328 229.871 222.911 229.085 228.299 227.545C234.42 225.802 240.245 223.984 245.563 220.723C244.702 214.556 243.281 208.481 241.317 202.572Z" fill="#F3F7FA"/>
<path d="M221.543 204.606C221.543 204.509 220.281 204.606 218.286 204.95C213.097 205.867 208.021 207.332 203.141 209.319C201.274 210.096 200.162 210.669 200.202 210.762C200.286 210.965 204.915 209.138 210.793 207.452C216.671 205.767 221.578 204.822 221.543 204.606Z" fill="#D0D8DD"/>
<path d="M211.57 206.397C211.839 205.986 212.053 205.541 212.205 205.074C212.554 204.191 213.044 202.902 213.56 201.278C214.172 199.377 214.674 197.443 215.065 195.484C215.55 193.078 215.798 190.631 215.806 188.176C215.834 185.707 215.51 183.246 214.844 180.868C214.304 178.908 213.363 177.081 212.082 175.502C211.206 174.449 210.129 173.582 208.913 172.952C208.588 172.775 208.249 172.627 207.898 172.51C207.66 172.431 207.527 172.4 207.519 172.422C207.51 172.444 207.62 172.523 207.836 172.651C208.053 172.779 208.379 172.934 208.767 173.199C209.883 173.905 210.866 174.801 211.671 175.846C212.84 177.408 213.693 179.183 214.182 181.071C214.789 183.395 215.085 185.788 215.065 188.19C215.065 193.322 213.939 197.898 213.057 201.146C212.174 204.394 211.464 206.358 211.57 206.397Z" fill="#D0D8DD"/>
<path d="M234.345 220.192C229.857 221.34 225.519 223.008 221.106 224.274C216.861 225.492 212.545 226.212 208.635 228.401C207.615 228.906 206.724 229.638 206.031 230.541C206.526 230.938 207.249 230.638 207.797 230.351C211.299 228.557 215.119 227.467 219.041 227.143C215.277 228.546 211.398 230.024 208.498 232.809C207.568 233.627 206.873 234.678 206.486 235.854C207.766 235.929 208.878 235.046 209.91 234.283C212.751 232.186 215.974 230.664 219.398 229.804C216.965 231.169 214.622 232.687 212.382 234.349C211.133 235.316 209.888 236.472 209.5 238.003C209.449 238.136 209.43 238.279 209.444 238.421C209.458 238.562 209.504 238.699 209.579 238.82C209.919 239.226 210.568 238.899 210.978 238.568C213.944 236.136 217.112 233.736 220.846 232.831C217.757 234.994 214.597 237.284 212.849 240.607C212.616 241.048 212.554 241.803 213.057 241.865C213.214 241.866 213.368 241.82 213.498 241.732C215.131 240.85 216.415 239.393 218.043 238.489C220.325 237.218 223.065 237.116 225.669 237.257C228.273 237.399 230.912 237.743 233.48 237.257C236.048 236.772 238.643 235.289 239.526 232.831" fill="#FCB58A"/>
<path d="M207.24 188.618C206.495 186.442 204.346 185.348 202.126 185.657C197.386 186.323 195.458 194.28 199.738 196.751C200.415 197.136 201.17 197.365 201.946 197.42C202.723 197.475 203.502 197.355 204.226 197.069C204.618 196.916 204.985 196.706 205.316 196.447C206.077 195.791 206.648 194.944 206.971 193.993C207.684 192.287 207.779 190.386 207.24 188.618Z" fill="#CC79CA"/>
<path d="M282.725 214.341L266.291 208.11L247.858 213.883C240.488 216.191 233.096 218.507 226.022 221.583C226.657 227.564 228.143 233.423 230.435 238.984C238.959 239.037 247.462 238.129 255.783 236.278C259.865 235.338 263.599 233.714 267.548 232.395C273.466 230.418 279.022 227.951 281.696 221.932C282.773 219.557 283.131 216.918 282.725 214.341Z" fill="#F3F7FA"/>
<path d="M260.871 188.878C261.604 190.913 262.579 193.066 263.29 195.405C263.976 197.599 264.375 199.873 264.477 202.17C264.567 204.043 264.396 205.918 263.969 207.744C263.832 208.309 263.682 208.825 263.528 209.293L264.102 209.05C264.234 208.684 264.362 208.295 264.481 207.876C264.997 206.009 265.228 204.075 265.165 202.139C265.103 199.776 264.714 197.432 264.009 195.176C263.272 192.77 262.275 190.621 261.516 188.631C260.804 186.89 260.289 185.076 259.98 183.221C259.781 181.974 259.754 180.706 259.9 179.452C259.995 178.992 260.057 178.526 260.086 178.058C260.042 178.058 259.817 178.499 259.614 179.382C259.35 180.662 259.296 181.976 259.455 183.274C259.691 185.194 260.167 187.076 260.871 188.878Z" fill="#D0D8DD"/>
<path d="M260.995 187.842C261.207 187.842 261.436 186.24 261.838 184.28C262.239 182.321 262.597 180.75 262.394 180.662C262.191 180.574 261.489 182.114 261.101 184.135C260.712 186.156 260.792 187.833 260.995 187.842Z" fill="#D0D8DD"/>
<path d="M278.594 205.78C277.891 205.804 277.192 205.894 276.506 206.049C275.183 206.27 273.25 206.641 270.884 207.135C268.519 207.629 265.712 208.274 262.606 209.046C259.499 209.818 256.11 210.745 252.571 211.791C249.031 212.837 245.686 213.927 242.659 214.959C239.632 215.992 236.922 216.998 234.68 217.876C232.439 218.754 230.616 219.487 229.385 220.034C228.727 220.279 228.092 220.582 227.487 220.939C228.173 220.79 228.844 220.577 229.491 220.303L234.874 218.37C237.147 217.559 239.861 216.605 242.888 215.617C245.916 214.628 249.265 213.556 252.791 212.506C256.317 211.455 259.702 210.529 262.787 209.712C265.871 208.896 268.66 208.207 271.008 207.651L276.577 206.327C277.265 206.207 277.94 206.024 278.594 205.78Z" fill="#D0D8DD"/>
<path d="M249.57 62.7558C251.525 62.7558 251.525 59.7285 249.57 59.7285C247.615 59.7285 247.619 62.7558 249.57 62.7558Z" fill="#F3F7FA"/>
<path d="M340.265 106.237C343.61 106.237 343.61 101.047 340.265 101.047C336.92 101.047 336.916 106.237 340.265 106.237Z" fill="#F3F7FA"/>
<path d="M104.453 149.66C107.798 149.66 107.798 144.475 104.453 144.475C101.108 144.475 101.108 149.66 104.453 149.66Z" fill="#F3F7FA"/>
<path d="M325.305 192.206C328.65 192.206 328.65 187.017 325.305 187.017C321.96 187.017 321.96 192.206 325.305 192.206Z" fill="#F3F7FA"/>
<path d="M122.617 118.231C124.568 118.231 124.568 115.204 122.617 115.204C120.667 115.204 120.667 118.231 122.617 118.231Z" fill="#F3F7FA"/>
<path d="M172.307 67.9804C174.258 67.9804 174.258 64.9531 172.307 64.9531C170.357 64.9531 170.357 67.9804 172.307 67.9804Z" fill="#F3F7FA"/>
<path d="M353.522 133.284C355.472 133.284 355.472 130.261 353.522 130.261C351.571 130.261 351.571 133.284 353.522 133.284Z" fill="#F3F7FA"/>
<path d="M353.522 212.501C355.472 212.501 355.472 209.474 353.522 209.474C351.571 209.474 351.571 212.501 353.522 212.501Z" fill="#F3F7FA"/>
<path d="M142.167 184.174C144.117 184.174 144.117 181.146 142.167 181.146C140.216 181.146 140.216 184.174 142.167 184.174Z" fill="#F3F7FA"/>
</svg>
