<svg width="40" height="40" viewBox="0 0 40 40" fill="none" xmlns="http://www.w3.org/2000/svg">
<mask id="path-1-inside-1_1964_3496" fill="white">
<path fill-rule="evenodd" clip-rule="evenodd" d="M20 40C31.0457 40 40 31.0457 40 20C40 8.9543 31.0457 0 20 0C8.9543 0 0 8.9543 0 20C0 31.0457 8.9543 40 20 40ZM19.989 9C13.917 9 9 13.928 9 20C9 26.072 13.917 31 19.989 31C26.072 31 31 26.072 31 20C31 13.928 26.072 9 19.989 9ZM13.7144 16.8571C13.7144 15.9896 14.4184 15.2856 15.2858 15.2856C16.1532 15.2856 16.8572 15.9896 16.8572 16.8571C16.8572 17.7245 16.1532 18.4285 15.2858 18.4285C14.4184 18.4285 13.7144 17.7245 13.7144 16.8571ZM15.1814 23.4315C16.3203 24.5946 18.2732 26.2857 20.0001 26.2857C21.727 26.2857 23.6806 24.5945 24.82 23.4314C25.2278 23.0151 24.9251 22.3571 24.3424 22.3571C24.1561 22.3571 23.9787 22.4312 23.843 22.5588C23.2365 23.1294 21.4239 24.7142 20.0001 24.7142C18.5764 24.7142 16.7652 23.1298 16.1588 22.559C16.0231 22.4313 15.8455 22.3571 15.6592 22.3571C15.0764 22.3571 14.7737 23.0151 15.1814 23.4315ZM24.7144 18.4285C23.8469 18.4285 23.1429 17.7245 23.1429 16.8571C23.1429 15.9896 23.8469 15.2856 24.7144 15.2856C25.5818 15.2856 26.2858 15.9896 26.2858 16.8571C26.2858 17.7245 25.5818 18.4285 24.7144 18.4285Z"/>
</mask>
<path fill-rule="evenodd" clip-rule="evenodd" d="M20 40C31.0457 40 40 31.0457 40 20C40 8.9543 31.0457 0 20 0C8.9543 0 0 8.9543 0 20C0 31.0457 8.9543 40 20 40ZM19.989 9C13.917 9 9 13.928 9 20C9 26.072 13.917 31 19.989 31C26.072 31 31 26.072 31 20C31 13.928 26.072 9 19.989 9ZM13.7144 16.8571C13.7144 15.9896 14.4184 15.2856 15.2858 15.2856C16.1532 15.2856 16.8572 15.9896 16.8572 16.8571C16.8572 17.7245 16.1532 18.4285 15.2858 18.4285C14.4184 18.4285 13.7144 17.7245 13.7144 16.8571ZM15.1814 23.4315C16.3203 24.5946 18.2732 26.2857 20.0001 26.2857C21.727 26.2857 23.6806 24.5945 24.82 23.4314C25.2278 23.0151 24.9251 22.3571 24.3424 22.3571C24.1561 22.3571 23.9787 22.4312 23.843 22.5588C23.2365 23.1294 21.4239 24.7142 20.0001 24.7142C18.5764 24.7142 16.7652 23.1298 16.1588 22.559C16.0231 22.4313 15.8455 22.3571 15.6592 22.3571C15.0764 22.3571 14.7737 23.0151 15.1814 23.4315ZM24.7144 18.4285C23.8469 18.4285 23.1429 17.7245 23.1429 16.8571C23.1429 15.9896 23.8469 15.2856 24.7144 15.2856C25.5818 15.2856 26.2858 15.9896 26.2858 16.8571C26.2858 17.7245 25.5818 18.4285 24.7144 18.4285Z" fill="#874C48"/>
<path d="M15.1814 23.4315L15.8959 22.7318H15.8959L15.1814 23.4315ZM24.82 23.4314L25.5344 24.1312L25.5344 24.1312L24.82 23.4314ZM23.843 22.5588L23.1578 21.8305L23.1578 21.8305L23.843 22.5588ZM16.1588 22.559L16.8442 21.8309L16.8442 21.8309L16.1588 22.559ZM39 20C39 30.4934 30.4934 39 20 39V41C31.598 41 41 31.598 41 20H39ZM20 1C30.4934 1 39 9.50659 39 20H41C41 8.40202 31.598 -1 20 -1V1ZM1 20C1 9.50659 9.50659 1 20 1V-1C8.40202 -1 -1 8.40202 -1 20H1ZM20 39C9.50659 39 1 30.4934 1 20H-1C-1 31.598 8.40202 41 20 41V39ZM10 20C10 14.479 14.4706 10 19.989 10V8C13.3634 8 8 13.377 8 20H10ZM19.989 30C14.4706 30 10 25.521 10 20H8C8 26.623 13.3634 32 19.989 32V30ZM30 20C30 25.5191 25.5204 30 19.989 30V32C26.6236 32 32 26.6249 32 20H30ZM19.989 10C25.5204 10 30 14.4809 30 20H32C32 13.3751 26.6236 8 19.989 8V10ZM15.2858 14.2856C13.8661 14.2856 12.7144 15.4374 12.7144 16.8571H14.7144C14.7144 16.5419 14.9706 16.2856 15.2858 16.2856V14.2856ZM17.8572 16.8571C17.8572 15.4374 16.7055 14.2856 15.2858 14.2856V16.2856C15.6009 16.2856 15.8572 16.5419 15.8572 16.8571H17.8572ZM15.2858 19.4285C16.7055 19.4285 17.8572 18.2768 17.8572 16.8571H15.8572C15.8572 17.1722 15.6009 17.4285 15.2858 17.4285V19.4285ZM12.7144 16.8571C12.7144 18.2768 13.8661 19.4285 15.2858 19.4285V17.4285C14.9706 17.4285 14.7144 17.1722 14.7144 16.8571H12.7144ZM20.0001 25.2857C19.4353 25.2857 18.7188 24.9956 17.9276 24.4644C17.1601 23.9493 16.4409 23.2885 15.8959 22.7318L14.4669 24.1311C15.0608 24.7376 15.8875 25.5039 16.8129 26.125C17.7145 26.7302 18.8379 27.2857 20.0001 27.2857V25.2857ZM24.1056 22.7316C23.5603 23.2883 22.8409 23.9492 22.0731 24.4643C21.2816 24.9955 20.5649 25.2857 20.0001 25.2857V27.2857C21.1622 27.2857 22.2858 26.7302 23.1876 26.1251C24.1132 25.5039 24.9402 24.7377 25.5344 24.1312L24.1056 22.7316ZM24.3424 23.3571C24.2295 23.3571 24.1004 23.281 24.0408 23.1488C24.0124 23.0857 23.999 23.0079 24.0127 22.925C24.0272 22.8373 24.0676 22.7705 24.1056 22.7316L25.5344 24.1312C26.6228 23.02 25.7233 21.3571 24.3424 21.3571V23.3571ZM24.5283 23.2871C24.4884 23.3246 24.4242 23.3571 24.3424 23.3571V21.3571C23.8881 21.3571 23.4689 21.5377 23.1578 21.8305L24.5283 23.2871ZM20.0001 25.7142C21.025 25.7142 22.046 25.1698 22.7797 24.6846C23.5538 24.1726 24.2053 23.591 24.5283 23.2871L23.1578 21.8305C22.8742 22.0973 22.3162 22.5933 21.6764 23.0164C20.9962 23.4663 20.3989 23.7142 20.0001 23.7142V25.7142ZM15.4733 23.2871C15.7962 23.5911 16.4474 24.1728 17.2212 24.6847C17.9546 25.1698 18.9752 25.7142 20.0001 25.7142V23.7142C19.6014 23.7142 19.0045 23.4664 18.3247 23.0167C17.6854 22.5937 17.1277 22.0977 16.8442 21.8309L15.4733 23.2871ZM15.6592 23.3571C15.5773 23.3571 15.5131 23.3246 15.4733 23.2871L16.8442 21.8309C16.5331 21.5379 16.1137 21.3571 15.6592 21.3571V23.3571ZM15.8959 22.7318C15.9339 22.7707 15.9743 22.8375 15.9887 22.9251C16.0024 23.008 15.989 23.0858 15.9606 23.1489C15.9011 23.2811 15.7719 23.3571 15.6592 23.3571V21.3571C14.2784 21.3571 13.3786 23.0198 14.4669 24.1311L15.8959 22.7318ZM22.1429 16.8571C22.1429 18.2768 23.2947 19.4285 24.7144 19.4285V17.4285C24.3992 17.4285 24.1429 17.1722 24.1429 16.8571H22.1429ZM24.7144 14.2856C23.2947 14.2856 22.1429 15.4374 22.1429 16.8571H24.1429C24.1429 16.5419 24.3992 16.2856 24.7144 16.2856V14.2856ZM27.2858 16.8571C27.2858 15.4374 26.1341 14.2856 24.7144 14.2856V16.2856C25.0295 16.2856 25.2858 16.5419 25.2858 16.8571H27.2858ZM24.7144 19.4285C26.1341 19.4285 27.2858 18.2768 27.2858 16.8571H25.2858C25.2858 17.1722 25.0295 17.4285 24.7144 17.4285V19.4285Z" fill="#874C48" mask="url(#path-1-inside-1_1964_3496)"/>
</svg>
