<svg width="40" height="40" viewBox="0 0 40 40" fill="none" xmlns="http://www.w3.org/2000/svg">
<g id="Happy">
<circle id="Oval Copy 18" cx="20" cy="20" r="19.5" stroke="#874C48"/>
<path id="Combined Shape" fill-rule="evenodd" clip-rule="evenodd" d="M9 20C9 13.928 13.917 9 19.989 9C26.072 9 31 13.928 31 20C31 26.072 26.072 31 19.989 31C13.917 31 9 26.072 9 20ZM15.2858 15.2856C14.4184 15.2856 13.7144 15.9896 13.7144 16.8571C13.7144 17.7245 14.4184 18.4285 15.2858 18.4285C16.1532 18.4285 16.8572 17.7245 16.8572 16.8571C16.8572 15.9896 16.1532 15.2856 15.2858 15.2856ZM20.0001 26.2857C18.2732 26.2857 16.3203 24.5946 15.1814 23.4315C14.7737 23.0151 15.0764 22.3571 15.6592 22.3571C15.8455 22.3571 16.0231 22.4313 16.1588 22.559C16.7652 23.1298 18.5764 24.7142 20.0001 24.7142C21.4239 24.7142 23.2365 23.1294 23.843 22.5588C23.9787 22.4312 24.1561 22.3571 24.3424 22.3571C24.9251 22.3571 25.2278 23.0151 24.82 23.4314C23.6806 24.5945 21.727 26.2857 20.0001 26.2857ZM23.1429 16.8571C23.1429 17.7245 23.8469 18.4285 24.7144 18.4285C25.5818 18.4285 26.2858 17.7245 26.2858 16.8571C26.2858 15.9896 25.5818 15.2856 24.7144 15.2856C23.8469 15.2856 23.1429 15.9896 23.1429 16.8571Z" fill="#874C48"/>
</g>
</svg>
