<svg width="41" height="40" viewBox="0 0 41 40" fill="none" xmlns="http://www.w3.org/2000/svg">
<circle cx="20.6116" cy="20" r="19.5" stroke="#946DAE"/>
<path d="M16.1565 31.6145L28.5242 32C28.5242 32 28.339 31.7606 28.046 31.3816C28.046 31.3816 28.9502 19.2494 27.6894 14.4153C26.6761 10.5319 23.2889 9.45674 21.9942 9.18401C21.974 9.1692 21.961 9.16016 21.961 9.16016C21.8771 9.14783 21.7982 9.1417 21.7151 9.13123C21.5675 9.10627 21.4829 9.09797 21.4829 9.09797L21.485 9.10336C17.0914 8.59377 14.0673 10.0899 12.9682 10.943C11.0016 12.577 11.5563 15.6557 11.9238 16.6025C11.9335 16.6394 11.9415 16.678 11.9506 16.7157C11.7437 16.758 11.42 16.758 11.1608 16.3913C11.0519 16.9186 11.6638 16.9964 11.9972 17.0017C12.0333 17.3526 11.9889 17.7327 11.7506 18.0917C11.249 18.8451 10.6891 19.1886 10.5083 19.6938C10.2515 20.3983 11.6037 20.5206 11.6037 20.5206L11.6066 20.7882C11.6066 20.7882 11.1733 21.2077 11.2652 21.536C11.3881 21.9751 12.2594 21.8195 12.2594 21.8195C12.2594 21.8195 11.4228 22.1284 11.4623 22.5357C11.5017 22.9436 11.851 23.1201 11.851 23.1201C11.851 23.1201 11.041 24.7113 12.2326 25.0629C13.4235 25.4129 15.8419 23.9591 16.1565 25.6589C16.461 26.8306 17.8178 29.7093 17.3474 30.2475C16.8773 30.787 16.1565 31.6145 16.1565 31.6145Z" fill="#946DAE"/>
<path d="M26.249 11.523L24.4048 14.1377L23.2757 12.2757L21.6198 14.9301L20.453 13.702L18.5336 15.8413L20.3778 12.2361L21.3187 13.5038L23.0876 10.9287L24.3296 12.6323L25.6468 10.6118C25.8726 10.8495 25.9479 11.008 25.9479 11.008C26.0609 11.2061 26.1738 11.3646 26.249 11.523Z" fill="white"/>
</svg>
