<svg width="41" height="40" viewBox="0 0 41 40" fill="none" xmlns="http://www.w3.org/2000/svg">
<mask id="path-1-inside-1_1964_3395" fill="white">
<path fill-rule="evenodd" clip-rule="evenodd" d="M20.6116 40C31.6573 40 40.6116 31.0457 40.6116 20C40.6116 8.9543 31.6573 0 20.6116 0C9.56588 0 0.611572 8.9543 0.611572 20C0.611572 31.0457 9.56588 40 20.6116 40ZM28.5242 32L16.1565 31.6145L17.3474 30.2475C17.6745 29.8733 17.1181 28.3673 16.6463 27.0905C16.4396 26.5312 16.2492 26.0158 16.1565 25.6589C15.9561 24.5765 14.9027 24.7729 13.8564 24.9679C13.2596 25.0792 12.6651 25.19 12.2326 25.0629C11.041 24.7113 11.851 23.1201 11.851 23.1201C11.851 23.1201 11.5017 22.9436 11.4623 22.5357C11.4228 22.1284 12.2594 21.8195 12.2594 21.8195C12.2594 21.8195 11.3881 21.9751 11.2652 21.536C11.1733 21.2077 11.6066 20.7882 11.6066 20.7882L11.6037 20.5206C11.6037 20.5206 10.2515 20.3983 10.5083 19.6938C10.6071 19.4178 10.8191 19.19 11.0728 18.9173C11.2835 18.6909 11.523 18.4335 11.7506 18.0917C11.9889 17.7327 12.0333 17.3526 11.9972 17.0017C11.6638 16.9964 11.0519 16.9186 11.1608 16.3913C11.42 16.758 11.7437 16.758 11.9506 16.7157C11.9472 16.7016 11.9439 16.6873 11.9407 16.673C11.9353 16.6493 11.9299 16.6255 11.9238 16.6025C11.5563 15.6557 11.0016 12.577 12.9682 10.943C14.0673 10.0899 17.0914 8.59377 21.485 9.10336L21.4829 9.09797C21.4829 9.09797 21.5675 9.10627 21.7151 9.13123C21.7489 9.13549 21.782 9.13903 21.8151 9.14257C21.8632 9.14772 21.9112 9.15285 21.961 9.16016C21.961 9.16016 21.974 9.1692 21.9942 9.18401C23.2889 9.45674 26.6761 10.5319 27.6894 14.4153C28.9502 19.2494 28.046 31.3816 28.046 31.3816L28.5242 32Z"/>
</mask>
<path fill-rule="evenodd" clip-rule="evenodd" d="M20.6116 40C31.6573 40 40.6116 31.0457 40.6116 20C40.6116 8.9543 31.6573 0 20.6116 0C9.56588 0 0.611572 8.9543 0.611572 20C0.611572 31.0457 9.56588 40 20.6116 40ZM28.5242 32L16.1565 31.6145L17.3474 30.2475C17.6745 29.8733 17.1181 28.3673 16.6463 27.0905C16.4396 26.5312 16.2492 26.0158 16.1565 25.6589C15.9561 24.5765 14.9027 24.7729 13.8564 24.9679C13.2596 25.0792 12.6651 25.19 12.2326 25.0629C11.041 24.7113 11.851 23.1201 11.851 23.1201C11.851 23.1201 11.5017 22.9436 11.4623 22.5357C11.4228 22.1284 12.2594 21.8195 12.2594 21.8195C12.2594 21.8195 11.3881 21.9751 11.2652 21.536C11.1733 21.2077 11.6066 20.7882 11.6066 20.7882L11.6037 20.5206C11.6037 20.5206 10.2515 20.3983 10.5083 19.6938C10.6071 19.4178 10.8191 19.19 11.0728 18.9173C11.2835 18.6909 11.523 18.4335 11.7506 18.0917C11.9889 17.7327 12.0333 17.3526 11.9972 17.0017C11.6638 16.9964 11.0519 16.9186 11.1608 16.3913C11.42 16.758 11.7437 16.758 11.9506 16.7157C11.9472 16.7016 11.9439 16.6873 11.9407 16.673C11.9353 16.6493 11.9299 16.6255 11.9238 16.6025C11.5563 15.6557 11.0016 12.577 12.9682 10.943C14.0673 10.0899 17.0914 8.59377 21.485 9.10336L21.4829 9.09797C21.4829 9.09797 21.5675 9.10627 21.7151 9.13123C21.7489 9.13549 21.782 9.13903 21.8151 9.14257C21.8632 9.14772 21.9112 9.15285 21.961 9.16016C21.961 9.16016 21.974 9.1692 21.9942 9.18401C23.2889 9.45674 26.6761 10.5319 27.6894 14.4153C28.9502 19.2494 28.046 31.3816 28.046 31.3816L28.5242 32Z" fill="#946DAE"/>
<path d="M16.1565 31.6145L15.4025 30.9576L14.0168 32.5482L16.1254 32.614L16.1565 31.6145ZM28.5242 32L28.493 32.9995L30.612 33.0655L29.3153 31.3883L28.5242 32ZM17.3474 30.2475L16.5945 29.5893L16.5934 29.5906L17.3474 30.2475ZM16.6463 27.0905L17.5843 26.7439L16.6463 27.0905ZM16.1565 25.6589L15.1732 25.8409L15.1796 25.8759L15.1886 25.9104L16.1565 25.6589ZM13.8564 24.9679L14.0396 25.951L14.0396 25.951L13.8564 24.9679ZM12.2326 25.0629L11.9497 26.022L11.9506 26.0223L12.2326 25.0629ZM11.851 23.1201L12.7422 23.5738L13.1972 22.68L12.302 22.2276L11.851 23.1201ZM11.4623 22.5357L12.4577 22.4395L12.4576 22.4392L11.4623 22.5357ZM12.2594 21.8195L12.6057 22.7577L12.0835 20.8351L12.2594 21.8195ZM11.2652 21.536L10.3022 21.8055L10.3022 21.8057L11.2652 21.536ZM11.6066 20.7882L12.3022 21.5066L12.6112 21.2074L12.6066 20.7773L11.6066 20.7882ZM11.6037 20.5206L12.6036 20.5097L12.5938 19.606L11.6938 19.5246L11.6037 20.5206ZM10.5083 19.6938L11.4478 20.0364L11.4498 20.0309L10.5083 19.6938ZM11.0728 18.9173L11.8049 19.5985L11.0728 18.9173ZM11.7506 18.0917L12.5829 18.646L12.5837 18.6448L11.7506 18.0917ZM11.9972 17.0017L12.992 16.8994L12.9011 16.0162L12.0134 16.0019L11.9972 17.0017ZM11.1608 16.3913L11.9773 15.814L10.6473 13.9331L10.1814 16.1891L11.1608 16.3913ZM11.9506 16.7157L12.1509 17.6954L13.1645 17.4882L12.9229 16.4822L11.9506 16.7157ZM11.9407 16.673L10.9656 16.8948L10.9656 16.8948L11.9407 16.673ZM11.9238 16.6025L12.8908 16.3477L12.8765 16.2932L12.8561 16.2406L11.9238 16.6025ZM12.9682 10.943L12.355 10.1531L12.3419 10.1632L12.3292 10.1739L12.9682 10.943ZM21.485 9.10336L21.3698 10.0967L23.0407 10.2905L22.4127 8.73005L21.485 9.10336ZM21.4829 9.09797L21.5805 8.10275L19.9397 7.94178L20.5551 9.47129L21.4829 9.09797ZM21.7151 9.13123L21.5483 10.1172L21.5692 10.1208L21.5901 10.1234L21.7151 9.13123ZM21.8151 9.14257L21.7088 10.1369L21.7088 10.1369L21.8151 9.14257ZM21.961 9.16016L22.5319 8.33913L22.3389 8.20496L22.1064 8.17079L21.961 9.16016ZM21.9942 9.18401L21.4042 9.99137L21.5778 10.1182L21.7881 10.1625L21.9942 9.18401ZM27.6894 14.4153L28.6571 14.1629L28.657 14.1628L27.6894 14.4153ZM28.046 31.3816L27.0488 31.3072L27.0203 31.6897L27.2549 31.9932L28.046 31.3816ZM39.6116 20C39.6116 30.4934 31.105 39 20.6116 39V41C32.2096 41 41.6116 31.598 41.6116 20H39.6116ZM20.6116 1C31.105 1 39.6116 9.50659 39.6116 20H41.6116C41.6116 8.40202 32.2096 -1 20.6116 -1V1ZM1.61157 20C1.61157 9.50659 10.1182 1 20.6116 1V-1C9.01359 -1 -0.388428 8.40202 -0.388428 20H1.61157ZM20.6116 39C10.1182 39 1.61157 30.4934 1.61157 20H-0.388428C-0.388428 31.598 9.01359 41 20.6116 41V39ZM16.1254 32.614L28.493 32.9995L28.5553 31.0005L16.1877 30.6149L16.1254 32.614ZM16.5934 29.5906L15.4025 30.9576L16.9105 32.2713L18.1014 30.9043L16.5934 29.5906ZM15.7083 27.4371C15.9489 28.0882 16.188 28.7377 16.3309 29.2678C16.4031 29.5354 16.4369 29.7238 16.4442 29.8391C16.4558 30.0225 16.3933 29.8194 16.5945 29.5893L18.1003 30.9056C18.465 30.4884 18.4557 29.9568 18.4402 29.7127C18.4204 29.4004 18.347 29.0624 18.262 28.7471C18.0905 28.1115 17.8155 27.3697 17.5843 26.7439L15.7083 27.4371ZM15.1886 25.9104C15.297 26.3276 15.5097 26.8996 15.7083 27.4371L17.5843 26.7439C17.3696 26.1627 17.2014 25.704 17.1243 25.4073L15.1886 25.9104ZM14.0396 25.951C14.3084 25.9009 14.5357 25.8589 14.7444 25.8347C14.9555 25.8102 15.0927 25.8111 15.1778 25.8236C15.2552 25.8351 15.2315 25.8474 15.1856 25.8055C15.134 25.7584 15.1535 25.7345 15.1732 25.8409L17.1398 25.4769C17.0593 25.042 16.8719 24.6368 16.5338 24.3282C16.2013 24.0248 15.8113 23.8954 15.4696 23.845C14.8494 23.7536 14.1394 23.8979 13.6731 23.9849L14.0396 25.951ZM11.9506 26.0223C12.3458 26.1384 12.7502 26.1307 13.0753 26.1005C13.4068 26.0697 13.7517 26.0047 14.0396 25.951L13.6731 23.9849C13.3643 24.0424 13.1135 24.0884 12.8905 24.1091C12.6611 24.1303 12.5519 24.1144 12.5146 24.1034L11.9506 26.0223ZM11.851 23.1201C10.9599 22.6664 10.9597 22.6668 10.9596 22.6671C10.9595 22.6672 10.9593 22.6675 10.9592 22.6677C10.959 22.6682 10.9588 22.6686 10.9585 22.6691C10.958 22.6701 10.9574 22.6712 10.9568 22.6725C10.9556 22.6749 10.9542 22.6777 10.9526 22.6809C10.9494 22.6873 10.9455 22.6954 10.9409 22.7049C10.9317 22.724 10.9199 22.7493 10.9061 22.7799C10.8787 22.841 10.843 22.9253 10.8054 23.0267C10.7326 23.2231 10.6418 23.5133 10.6022 23.8393C10.564 24.1548 10.5622 24.5964 10.7622 25.0299C10.9832 25.509 11.3956 25.8586 11.9497 26.022L12.5155 24.1037C12.4737 24.0914 12.5405 24.1103 12.5783 24.1921C12.595 24.2284 12.5724 24.2063 12.5877 24.08C12.6017 23.9643 12.6389 23.8347 12.6808 23.7218C12.7005 23.6685 12.7187 23.6257 12.731 23.5984C12.737 23.5849 12.7414 23.5757 12.7435 23.5712C12.7446 23.5691 12.7451 23.5681 12.7449 23.5685C12.7448 23.5687 12.7445 23.5692 12.7441 23.5701C12.7438 23.5706 12.7436 23.5711 12.7433 23.5717C12.7431 23.572 12.7429 23.5723 12.7428 23.5727C12.7427 23.5729 12.7425 23.5731 12.7425 23.5732C12.7423 23.5735 12.7422 23.5738 11.851 23.1201ZM10.4669 22.6318C10.5141 23.1204 10.7503 23.4675 10.9536 23.6771C11.0547 23.7813 11.1531 23.8579 11.2296 23.9104C11.2683 23.937 11.303 23.9585 11.3316 23.9753C11.346 23.9837 11.359 23.9909 11.3705 23.9971C11.3762 24.0002 11.3815 24.0031 11.3864 24.0057C11.3889 24.007 11.3913 24.0082 11.3935 24.0093C11.3947 24.0099 11.3958 24.0105 11.3969 24.011C11.3974 24.0113 11.3979 24.0116 11.3985 24.0119C11.3987 24.012 11.3991 24.0122 11.3993 24.0123C11.3996 24.0125 11.4 24.0126 11.851 23.1201C12.302 22.2276 12.3024 22.2278 12.3028 22.228C12.3029 22.2281 12.3033 22.2283 12.3036 22.2284C12.3041 22.2286 12.3046 22.2289 12.3051 22.2291C12.3061 22.2297 12.3071 22.2302 12.308 22.2307C12.3099 22.2316 12.3118 22.2326 12.3136 22.2336C12.3172 22.2354 12.3206 22.2372 12.3238 22.239C12.33 22.2424 12.3355 22.2455 12.3403 22.2482C12.3497 22.2537 12.3567 22.2582 12.3621 22.2619C12.3718 22.2686 12.3804 22.2755 12.3893 22.2847C12.408 22.304 12.4499 22.3589 12.4577 22.4395L10.4669 22.6318ZM12.2594 21.8195C11.913 20.8814 11.9128 20.8815 11.9126 20.8816C11.9125 20.8816 11.9123 20.8817 11.9122 20.8818C11.9119 20.8819 11.9115 20.882 11.9112 20.8821C11.9106 20.8823 11.9099 20.8826 11.9091 20.8829C11.9076 20.8835 11.9059 20.8841 11.9039 20.8848C11.9 20.8863 11.8953 20.8881 11.8898 20.8902C11.8789 20.8944 11.8647 20.9 11.8478 20.9069C11.8142 20.9205 11.769 20.9395 11.7159 20.9636C11.6127 21.0104 11.4666 21.0824 11.3146 21.1778C11.1709 21.2679 10.9736 21.4087 10.8064 21.6064C10.6415 21.8015 10.421 22.1573 10.467 22.6321L12.4576 22.4392C12.4839 22.7103 12.3531 22.8748 12.3339 22.8974C12.3125 22.9228 12.3169 22.91 12.3775 22.8719C12.4297 22.8392 12.4902 22.8085 12.5426 22.7847C12.5674 22.7735 12.5872 22.7652 12.5991 22.7604C12.6051 22.758 12.6088 22.7565 12.6101 22.756C12.6107 22.7558 12.6107 22.7558 12.61 22.7561C12.6096 22.7562 12.6091 22.7564 12.6084 22.7567C12.608 22.7568 12.6076 22.7569 12.6072 22.7571C12.607 22.7572 12.6067 22.7573 12.6065 22.7574C12.6064 22.7574 12.6062 22.7575 12.6061 22.7575C12.6059 22.7576 12.6057 22.7577 12.2594 21.8195ZM10.3022 21.8057C10.4316 22.2678 10.7613 22.5345 11.0422 22.6683C11.3022 22.7922 11.5641 22.8281 11.74 22.8401C11.9275 22.853 12.0973 22.8435 12.2133 22.8328C12.2733 22.8272 12.3239 22.8209 12.3615 22.8156C12.3803 22.8129 12.3962 22.8105 12.4085 22.8085C12.4147 22.8075 12.4201 22.8066 12.4245 22.8058C12.4268 22.8054 12.4288 22.8051 12.4305 22.8048C12.4314 22.8046 12.4323 22.8045 12.433 22.8043C12.4334 22.8043 12.4338 22.8042 12.4341 22.8042C12.4343 22.8041 12.4346 22.8041 12.4347 22.8041C12.4349 22.804 12.4352 22.804 12.2594 21.8195C12.0835 20.8351 12.0838 20.8351 12.084 20.835C12.0841 20.835 12.0843 20.835 12.0845 20.835C12.0848 20.8349 12.0851 20.8348 12.0854 20.8348C12.0859 20.8347 12.0864 20.8346 12.0869 20.8345C12.0878 20.8344 12.0886 20.8342 12.0892 20.8341C12.0903 20.8339 12.0908 20.8339 12.0905 20.8339C12.0901 20.834 12.0871 20.8345 12.0819 20.8352C12.0713 20.8367 12.0529 20.8391 12.0293 20.8412C11.9781 20.846 11.9224 20.8479 11.8768 20.8448C11.8195 20.8409 11.8405 20.8333 11.9026 20.8628C11.9398 20.8806 12.0045 20.9179 12.071 20.9885C12.1416 21.0635 12.1981 21.1592 12.2282 21.2664L10.3022 21.8057ZM11.6066 20.7882C10.911 20.0697 10.9108 20.0699 10.9106 20.0701C10.9106 20.0701 10.9104 20.0703 10.9103 20.0704C10.91 20.0707 10.9098 20.0709 10.9095 20.0712C10.909 20.0717 10.9084 20.0722 10.9079 20.0728C10.9067 20.0739 10.9054 20.0752 10.904 20.0765C10.9013 20.0793 10.8981 20.0824 10.8945 20.0861C10.8872 20.0933 10.8783 20.1023 10.868 20.1131C10.8474 20.1344 10.8207 20.163 10.7901 20.1977C10.7306 20.2652 10.6488 20.3646 10.5682 20.486C10.4904 20.6033 10.3939 20.7706 10.3285 20.9725C10.2638 21.1721 10.2087 21.4714 10.3022 21.8055L12.2282 21.2666C12.2757 21.4365 12.2404 21.5602 12.2311 21.5889C12.2211 21.6198 12.2157 21.6206 12.2347 21.5919C12.2509 21.5674 12.2717 21.5414 12.2906 21.52C12.2992 21.5102 12.3056 21.5035 12.3084 21.5006C12.3097 21.4992 12.31 21.4989 12.3091 21.4998C12.3086 21.5003 12.3078 21.5011 12.3067 21.5022C12.3061 21.5028 12.3055 21.5034 12.3047 21.5041C12.3044 21.5045 12.304 21.5049 12.3036 21.5053C12.3033 21.5055 12.3031 21.5057 12.3029 21.5059C12.3028 21.506 12.3026 21.5062 12.3026 21.5062C12.3024 21.5064 12.3022 21.5066 11.6066 20.7882ZM10.6038 20.5315L10.6067 20.799L12.6066 20.7773L12.6036 20.5097L10.6038 20.5315ZM9.56875 19.3513C9.381 19.8664 9.48774 20.3763 9.79791 20.7544C10.0506 21.0624 10.3858 21.2214 10.5982 21.3038C10.8318 21.3943 11.0601 21.4455 11.2164 21.4741C11.2976 21.489 11.367 21.4991 11.4178 21.5057C11.4433 21.509 11.4646 21.5114 11.4807 21.5132C11.4888 21.5141 11.4957 21.5148 11.5012 21.5153C11.5039 21.5156 11.5064 21.5158 11.5084 21.516C11.5095 21.5161 11.5104 21.5162 11.5113 21.5163C11.5117 21.5163 11.5122 21.5164 11.5125 21.5164C11.5127 21.5164 11.513 21.5165 11.5131 21.5165C11.5134 21.5165 11.5136 21.5165 11.6037 20.5206C11.6938 19.5246 11.694 19.5247 11.6943 19.5247C11.6943 19.5247 11.6946 19.5247 11.6947 19.5247C11.695 19.5248 11.6953 19.5248 11.6956 19.5248C11.6961 19.5249 11.6966 19.5249 11.697 19.5249C11.6978 19.525 11.6983 19.5251 11.6985 19.5251C11.6989 19.5251 11.6982 19.5251 11.6964 19.5249C11.6929 19.5245 11.6853 19.5236 11.6744 19.5222C11.6523 19.5194 11.618 19.5144 11.5765 19.5068C11.4872 19.4905 11.3935 19.4671 11.3212 19.439C11.3048 19.4327 11.2923 19.4271 11.2832 19.4227C11.274 19.4182 11.2702 19.4159 11.2709 19.4163C11.2715 19.4167 11.279 19.4214 11.2911 19.4315C11.3033 19.4417 11.3224 19.4594 11.3443 19.486C11.3904 19.5422 11.4448 19.6347 11.4666 19.759C11.4885 19.8843 11.4671 19.9834 11.4478 20.0363L9.56875 19.3513ZM10.3407 18.2361C10.1258 18.4671 9.74854 18.8491 9.56678 19.3568L11.4498 20.0309C11.4657 19.9865 11.5123 19.9129 11.8049 19.5985L10.3407 18.2361ZM10.9182 17.5375C10.7407 17.8041 10.5525 18.0085 10.3407 18.2361L11.8049 19.5985C12.0145 19.3732 12.3054 19.0628 12.5829 18.646L10.9182 17.5375ZM11.0025 17.1041C11.022 17.2937 10.9937 17.4238 10.9174 17.5387L12.5837 18.6448C12.9842 18.0415 13.0447 17.4114 12.992 16.8994L11.0025 17.1041ZM10.1814 16.1891C10.1133 16.5191 10.1428 16.8811 10.3335 17.21C10.5136 17.5205 10.777 17.6972 10.984 17.7955C11.3684 17.9782 11.7865 17.9985 11.9811 18.0016L12.0134 16.0019C11.9611 16.001 11.9098 15.9974 11.8674 15.9906C11.8198 15.9831 11.8167 15.9769 11.8423 15.989C11.8681 16.0013 11.9782 16.0593 12.0638 16.2068C12.1599 16.3727 12.1538 16.5272 12.1401 16.5936L10.1814 16.1891ZM11.7502 15.736C11.741 15.7379 11.7849 15.7264 11.855 15.7468C11.8921 15.7576 11.9259 15.7745 11.9524 15.7937C11.9783 15.8126 11.9847 15.8245 11.9773 15.814L10.3443 16.9687C10.5969 17.326 10.9272 17.5596 11.2956 17.667C11.6441 17.7685 11.9532 17.7359 12.1509 17.6954L11.7502 15.736ZM10.9656 16.8948C10.9686 16.908 10.9732 16.9282 10.9782 16.9492L12.9229 16.4822C12.9212 16.475 12.9193 16.4666 12.9158 16.4513L10.9656 16.8948ZM10.9568 16.8572C10.9578 16.861 10.9595 16.868 10.9656 16.8948L12.9158 16.4513C12.9111 16.4306 12.902 16.3901 12.8908 16.3477L10.9568 16.8572ZM12.3292 10.1739C11.0534 11.2338 10.6422 12.727 10.5723 13.9745C10.5028 15.2153 10.7585 16.3638 10.9916 16.9643L12.8561 16.2406C12.7216 15.8943 12.5163 15.0301 12.5691 14.0864C12.6217 13.1493 12.9163 12.2862 13.6073 11.7122L12.3292 10.1739ZM21.6002 8.11002C16.9337 7.56878 13.6505 9.14752 12.355 10.1531L13.5814 11.733C14.4841 11.0323 17.2491 9.61876 21.3698 10.0967L21.6002 8.11002ZM20.5551 9.47129L20.5573 9.47668L22.4127 8.73005L22.4106 8.72466L20.5551 9.47129ZM21.8818 8.14523C21.795 8.13056 21.7247 8.12043 21.6737 8.11374C21.6481 8.11039 21.6274 8.10789 21.6117 8.1061C21.6039 8.10521 21.5974 8.1045 21.5922 8.10394C21.5895 8.10367 21.5873 8.10343 21.5853 8.10323C21.5843 8.10313 21.5835 8.10304 21.5827 8.10296C21.5822 8.10292 21.5819 8.10288 21.5815 8.10285C21.5813 8.10283 21.5812 8.10281 21.581 8.1028C21.5809 8.10279 21.5808 8.10278 21.5807 8.10277C21.5807 8.10277 21.5806 8.10276 21.5806 8.10276C21.5805 8.10275 21.5805 8.10275 21.4829 9.09797C21.3852 10.0932 21.3852 10.0932 21.3851 10.0932C21.3851 10.0932 21.385 10.0932 21.385 10.0932C21.3849 10.0932 21.3848 10.0932 21.3848 10.0931C21.3846 10.0931 21.3845 10.0931 21.3843 10.0931C21.384 10.0931 21.3838 10.0931 21.3836 10.093C21.3831 10.093 21.3827 10.0929 21.3824 10.0929C21.3817 10.0928 21.3814 10.0928 21.3814 10.0928C21.3814 10.0928 21.3826 10.0929 21.385 10.0932C21.3899 10.0938 21.3995 10.0949 21.4135 10.0967C21.4417 10.1004 21.4875 10.1069 21.5483 10.1172L21.8818 8.14523ZM21.9214 8.14824C21.8869 8.14455 21.863 8.14197 21.84 8.13907L21.5901 10.1234C21.6348 10.129 21.6771 10.1335 21.7088 10.1369L21.9214 8.14824ZM22.1064 8.17079C22.0341 8.16016 21.9669 8.1531 21.9214 8.14823L21.7088 10.1369C21.7596 10.1423 21.7884 10.1455 21.8156 10.1495L22.1064 8.17079ZM22.5843 8.37664C22.5702 8.36635 22.5583 8.35781 22.5494 8.35149C22.5449 8.34831 22.5412 8.34566 22.5382 8.34359C22.5368 8.34256 22.5355 8.34166 22.5344 8.34092C22.5339 8.34055 22.5334 8.34021 22.533 8.33991C22.5328 8.33976 22.5326 8.33962 22.5324 8.33949C22.5323 8.33943 22.5322 8.33937 22.5321 8.33931C22.5321 8.33928 22.532 8.33925 22.532 8.33922C22.532 8.3392 22.5319 8.33919 22.5319 8.33918C22.5319 8.33917 22.5319 8.33916 22.5319 8.33915C22.5319 8.33914 22.5319 8.33913 21.961 9.16016C21.3901 9.98119 21.3901 9.98118 21.3901 9.98117C21.3901 9.98116 21.39 9.98115 21.39 9.98115C21.39 9.98113 21.39 9.98112 21.39 9.9811C21.3899 9.98108 21.3899 9.98105 21.3899 9.98103C21.3898 9.98098 21.3897 9.98093 21.3896 9.98088C21.3895 9.98078 21.3894 9.9807 21.3893 9.98062C21.389 9.98046 21.3889 9.98033 21.3887 9.98024C21.3885 9.98004 21.3883 9.97997 21.3884 9.98002C21.3885 9.9801 21.3893 9.98064 21.3906 9.98158C21.3933 9.98347 21.398 9.98686 21.4042 9.99137L22.5843 8.37664ZM28.657 14.1628C27.4947 9.70824 23.6 8.50033 22.2004 8.20548L21.7881 10.1625C22.9778 10.4131 25.8576 11.3556 26.7218 14.6677L28.657 14.1628ZM28.046 31.3816C29.0433 31.4559 29.0433 31.4558 29.0433 31.4556C29.0433 31.4555 29.0433 31.4553 29.0433 31.4551C29.0434 31.4546 29.0434 31.454 29.0435 31.4531C29.0436 31.4515 29.0438 31.4491 29.044 31.446C29.0445 31.4398 29.0451 31.4307 29.046 31.4188C29.0477 31.395 29.0502 31.3599 29.0534 31.3141C29.0599 31.2225 29.0691 31.0882 29.0803 30.9159C29.1028 30.5714 29.1334 30.0747 29.1662 29.4639C29.2317 28.243 29.3058 26.5634 29.3403 24.73C29.4084 21.1138 29.3278 16.7347 28.6571 14.1629L26.7218 14.6676C27.3118 16.93 27.4095 21.034 27.3407 24.6924C27.3067 26.4964 27.2337 28.1519 27.169 29.3568C27.1367 29.959 27.1066 30.4479 27.0845 30.7857C27.0735 30.9546 27.0645 31.0857 27.0583 31.1742C27.0552 31.2184 27.0528 31.252 27.0512 31.2744C27.0504 31.2856 27.0498 31.294 27.0494 31.2995C27.0492 31.3022 27.049 31.3042 27.0489 31.3055C27.0489 31.3062 27.0488 31.3067 27.0488 31.3069C27.0488 31.3071 27.0488 31.3072 27.0488 31.3072C27.0488 31.3073 27.0488 31.3072 28.046 31.3816ZM29.3153 31.3883L28.8372 30.7699L27.2549 31.9932L27.733 32.6116L29.3153 31.3883Z" fill="#946DAE" mask="url(#path-1-inside-1_1964_3395)"/>
<path d="M26.2491 11.523L24.405 14.1377L23.2759 12.2757L21.6199 14.9301L20.4531 13.702L18.5337 15.8413L20.3779 12.2361L21.3188 13.5038L23.0877 10.9287L24.3297 12.6323L25.647 10.6118C25.8728 10.8495 25.948 11.008 25.948 11.008C26.061 11.2061 26.1739 11.3646 26.2491 11.523Z" fill="#946DAE"/>
</svg>
