<svg width="40" height="40" viewBox="0 0 40 40" fill="none" xmlns="http://www.w3.org/2000/svg">
<g id="Heavy">
<circle id="Oval Copy 4" cx="20" cy="20" r="19.5" stroke="#DB4D46"/>
<g id="Group 2 Copy">
<path id="Path Copy" d="M22.4327 13.827C21.2738 12.3913 20.0768 10.9075 19.1106 9.31487C18.8556 8.89504 18.1444 8.89504 17.8908 9.31487C16.9233 10.9075 15.7262 12.3913 14.5673 13.827C12.2185 16.7382 10 19.4885 10 22.7411C10 27.2959 13.8123 31 18.5 31C23.1878 31 27 27.2959 27 22.7411C27 19.4885 24.7815 16.7382 22.4327 13.827Z" fill="#DB4D46"/>
<path id="Path Copy_2" d="M14.9117 12.0717C14.1743 11.1581 13.4125 10.2138 12.7976 9.20037C12.6354 8.93321 12.1828 8.93321 12.0214 9.20037C11.4057 10.2138 10.6439 11.1581 9.90648 12.0717C8.41177 13.9243 7 15.6745 7 17.7443C7 20.6428 9.42598 23 12.4091 23C15.3922 23 17.8182 20.6428 17.8182 17.7443C17.8182 15.6745 16.4064 13.9243 14.9117 12.0717Z" fill="#DB4D46"/>
<path id="Path Copy 2" d="M29.9117 20.0717C29.1743 19.1581 28.4125 18.2138 27.7976 17.2004C27.6354 16.9332 27.1828 16.9332 27.0214 17.2004C26.4057 18.2138 25.6439 19.1581 24.9065 20.0717C23.4118 21.9243 22 23.6745 22 25.7443C22 28.6428 24.426 31 27.4091 31C30.3922 31 32.8182 28.6428 32.8182 25.7443C32.8182 23.6745 31.4064 21.9243 29.9117 20.0717Z" fill="#DB4D46"/>
</g>
</g>
</svg>
