<svg width="40" height="40" viewBox="0 0 40 40" fill="none" xmlns="http://www.w3.org/2000/svg">
<mask id="path-1-inside-1_1964_3243" fill="white">
<path fill-rule="evenodd" clip-rule="evenodd" d="M20 40C31.0457 40 40 31.0457 40 20C40 8.9543 31.0457 0 20 0C8.9543 0 0 8.9543 0 20C0 31.0457 8.9543 40 20 40ZM19.1105 9.31487C20.0767 10.9075 21.2738 12.3913 22.4326 13.827C23.7715 15.4865 25.0681 17.0936 25.9355 18.7714C26.3218 18.2635 26.6925 17.7419 27.0214 17.2004C27.1828 16.9332 27.6354 16.9332 27.7976 17.2004C28.4125 18.2139 29.1743 19.1581 29.9117 20.0718C31.4064 21.9244 32.8182 23.6745 32.8182 25.7444C32.8182 28.6429 30.3922 31 27.4091 31C25.8864 31 24.5088 30.3859 23.525 29.399C22.1166 30.4051 20.3786 31 18.5 31C13.8122 31 9.99996 27.2959 9.99996 22.7411C9.99996 22.6444 10.0019 22.5482 10.0058 22.4524C8.22562 21.5912 7 19.8045 7 17.7443C7 15.6745 8.41177 13.9243 9.90648 12.0717C10.6439 11.1581 11.4057 10.2138 12.0214 9.20037C12.1828 8.93321 12.6354 8.93321 12.7976 9.20037C13.4125 10.2138 14.1743 11.1581 14.9117 12.0717C15.091 12.294 15.2691 12.5147 15.4438 12.7348C16.3132 11.6388 17.1663 10.5073 17.8908 9.31487C18.1444 8.89504 18.8555 8.89504 19.1105 9.31487Z"/>
</mask>
<path fill-rule="evenodd" clip-rule="evenodd" d="M20 40C31.0457 40 40 31.0457 40 20C40 8.9543 31.0457 0 20 0C8.9543 0 0 8.9543 0 20C0 31.0457 8.9543 40 20 40ZM19.1105 9.31487C20.0767 10.9075 21.2738 12.3913 22.4326 13.827C23.7715 15.4865 25.0681 17.0936 25.9355 18.7714C26.3218 18.2635 26.6925 17.7419 27.0214 17.2004C27.1828 16.9332 27.6354 16.9332 27.7976 17.2004C28.4125 18.2139 29.1743 19.1581 29.9117 20.0718C31.4064 21.9244 32.8182 23.6745 32.8182 25.7444C32.8182 28.6429 30.3922 31 27.4091 31C25.8864 31 24.5088 30.3859 23.525 29.399C22.1166 30.4051 20.3786 31 18.5 31C13.8122 31 9.99996 27.2959 9.99996 22.7411C9.99996 22.6444 10.0019 22.5482 10.0058 22.4524C8.22562 21.5912 7 19.8045 7 17.7443C7 15.6745 8.41177 13.9243 9.90648 12.0717C10.6439 11.1581 11.4057 10.2138 12.0214 9.20037C12.1828 8.93321 12.6354 8.93321 12.7976 9.20037C13.4125 10.2138 14.1743 11.1581 14.9117 12.0717C15.091 12.294 15.2691 12.5147 15.4438 12.7348C16.3132 11.6388 17.1663 10.5073 17.8908 9.31487C18.1444 8.89504 18.8555 8.89504 19.1105 9.31487Z" fill="#DB4D46"/>
<path d="M22.4326 13.827L23.2109 13.1991L23.2108 13.1989L22.4326 13.827ZM19.1105 9.31487L19.9655 8.79619L19.9652 8.79574L19.1105 9.31487ZM25.9355 18.7714L25.0472 19.2306L25.7737 20.6357L26.7314 19.3768L25.9355 18.7714ZM27.0214 17.2004L27.8761 17.7196L27.8774 17.7174L27.0214 17.2004ZM27.7976 17.2004L28.6526 16.6817L28.6523 16.6813L27.7976 17.2004ZM29.9117 20.0718L30.69 19.4438L30.6898 19.4437L29.9117 20.0718ZM23.525 29.399L24.2332 28.693L23.6341 28.0921L22.9437 28.5853L23.525 29.399ZM10.0058 22.4524L11.005 22.4927L11.0314 21.8377L10.4413 21.5522L10.0058 22.4524ZM9.90648 12.0717L9.12835 11.4436L9.12821 11.4438L9.90648 12.0717ZM12.0214 9.20037L12.8761 9.71961L12.8774 9.71739L12.0214 9.20037ZM12.7976 9.20037L13.6526 8.68169L13.6523 8.68124L12.7976 9.20037ZM14.9117 12.0717L15.69 11.4438L15.6898 11.4436L14.9117 12.0717ZM15.4438 12.7348L14.6605 13.3564L15.4439 14.3436L16.2272 13.3563L15.4438 12.7348ZM17.8908 9.31487L18.7454 9.83411L18.7468 9.83189L17.8908 9.31487ZM39 20C39 30.4934 30.4934 39 20 39V41C31.598 41 41 31.598 41 20H39ZM20 1C30.4934 1 39 9.50659 39 20H41C41 8.40202 31.598 -1 20 -1V1ZM1 20C1 9.50659 9.50659 1 20 1V-1C8.40202 -1 -1 8.40202 -1 20H1ZM20 39C9.50659 39 1 30.4934 1 20H-1C-1 31.598 8.40202 41 20 41V39ZM23.2108 13.1989C22.0446 11.7541 20.8911 10.3218 19.9655 8.79619L18.2556 9.83355C19.2624 11.4931 20.503 13.0285 21.6545 14.4551L23.2108 13.1989ZM26.8238 18.3121C25.901 16.5274 24.5342 14.8393 23.2109 13.1991L21.6544 14.4549C23.0088 16.1337 24.2351 17.6599 25.0472 19.2306L26.8238 18.3121ZM26.1668 16.6812C25.8621 17.1826 25.5137 17.6742 25.1396 18.1659L26.7314 19.3768C27.13 18.8528 27.5228 18.3011 27.8761 17.7196L26.1668 16.6812ZM28.6523 16.6813C28.3486 16.1812 27.8246 16 27.4092 16C26.994 16 26.4687 16.1813 26.1655 16.6834L27.8774 17.7174C27.7355 17.9524 27.5172 18 27.4092 18C27.301 18 27.0844 17.9525 26.9429 17.7195L28.6523 16.6813ZM30.6898 19.4437C29.9451 18.521 29.2268 17.6283 28.6526 16.6817L26.9427 17.7191C27.5981 18.7995 28.4034 19.7953 29.1336 20.6999L30.6898 19.4437ZM33.8182 25.7444C33.8182 24.4727 33.3824 23.3423 32.7898 22.3237C32.2046 21.3178 31.4263 20.3564 30.69 19.4438L29.1334 20.6997C29.8918 21.6397 30.5667 22.4797 31.0611 23.3295C31.5481 24.1666 31.8182 24.9462 31.8182 25.7444H33.8182ZM27.4091 32C30.9172 32 33.8182 29.2221 33.8182 25.7444H31.8182C31.8182 28.0637 29.8672 30 27.4091 30V32ZM22.8168 30.105C23.9831 31.2749 25.6134 32 27.4091 32V30C26.1593 30 25.0345 29.4968 24.2332 28.693L22.8168 30.105ZM18.5 32C20.5923 32 22.5326 31.3369 24.1063 30.2127L22.9437 28.5853C21.7006 29.4734 20.1648 30 18.5 30V32ZM8.99996 22.7411C8.99996 27.8751 13.2872 32 18.5 32V30C14.3372 30 11 26.7167 11 22.7411H8.99996ZM9.0066 22.4121C9.0022 22.5212 8.99996 22.6309 8.99996 22.7411H11C11 22.658 11.0016 22.5752 11.005 22.4927L9.0066 22.4121ZM6 17.7443C6 20.2149 7.46981 22.3365 9.57031 23.3526L10.4413 21.5522C8.98144 20.846 8 19.3942 8 17.7443H6ZM9.12821 11.4438C8.39192 12.3564 7.61357 13.3178 7.02836 14.3237C6.43582 15.3422 6 16.4727 6 17.7443H8C8 16.9461 8.27007 16.1666 8.7571 15.3294C9.25144 14.4797 9.92633 13.6397 10.6848 12.6996L9.12821 11.4438ZM11.1668 8.68114C10.5915 9.62803 9.87306 10.521 9.12835 11.4436L10.6846 12.6998C11.4148 11.7952 12.2199 10.7997 12.8761 9.71961L11.1668 8.68114ZM13.6523 8.68124C13.3486 8.18117 12.8246 8 12.4092 8C11.994 8 11.4688 8.18124 11.1655 8.68335L12.8774 9.71739C12.7355 9.95234 12.5172 10 12.4092 10C12.301 10 12.0844 9.95241 11.943 9.71951L13.6523 8.68124ZM15.6898 11.4436C14.9451 10.5209 14.2268 9.62822 13.6526 8.68169L11.9427 9.71905C12.5981 10.7995 13.4034 11.7953 14.1336 12.6998L15.6898 11.4436ZM16.227 12.1131C16.0495 11.8894 15.8689 11.6655 15.69 11.4438L14.1334 12.6996C14.3132 12.9224 14.4888 13.1401 14.6605 13.3564L16.227 12.1131ZM17.0362 8.79564C16.3445 9.93411 15.5222 11.0269 14.6603 12.1133L16.2272 13.3563C17.1042 12.2507 17.9882 11.0805 18.7454 9.8341L17.0362 8.79564ZM19.9652 8.79574C19.6151 8.21933 19.0033 8 18.5001 8C17.9972 8 17.3842 8.21941 17.0348 8.79785L18.7468 9.83189C18.651 9.99051 18.5204 10 18.5001 10C18.4797 10 18.351 9.99058 18.2559 9.83401L19.9652 8.79574Z" fill="#DB4D46" mask="url(#path-1-inside-1_1964_3243)"/>
</svg>
