<svg width="40" height="41" viewBox="0 0 40 41" fill="none" xmlns="http://www.w3.org/2000/svg">
<g id="High Sex Drive">
<circle id="Oval Copy 30" cx="20" cy="20.7085" r="19.5" stroke="#9CADCE"/>
<g id="Group 10">
<path id="Combined Shape Copy 6" d="M18.8765 30.3239C18.8765 30.3239 8.00027 25.8938 8.00027 17.8167C7.97779 14.4382 10.5845 11.7085 13.7979 11.7085C16.0676 11.7085 18.0451 13.0957 18.9889 15.1094C19.9327 13.0957 21.9102 11.7085 24.1798 11.7085C27.3933 11.7085 30 14.4382 30 17.8167C30 25.849 18.8765 30.3239 18.8765 30.3239Z" fill="#9CADCE"/>
<path id="Combined Shape Copy 7" d="M19.1252 20.646L19.1252 20.6452C19.1113 18.5299 20.7207 16.8335 22.6897 16.8335C24.0802 16.8335 25.2972 17.6946 25.8796 18.9533L25.993 19.1985L26.1065 18.9533C26.6888 17.6946 27.9058 16.8335 29.2964 16.8335C31.2652 16.8335 32.8751 18.5299 32.8751 20.646C32.8751 23.1753 31.145 25.1586 29.3844 26.5201C28.5067 27.1987 27.6284 27.7173 26.9691 28.0664C26.6396 28.2408 26.3652 28.3727 26.1735 28.4609C26.0776 28.5049 26.0025 28.5381 25.9515 28.5601C25.9404 28.5648 25.9306 28.5691 25.9218 28.5728C25.9136 28.5692 25.9042 28.5652 25.8939 28.5606C25.8441 28.5388 25.7706 28.506 25.6769 28.4623C25.4896 28.375 25.2214 28.2441 24.8993 28.0708C24.2548 27.7241 23.3962 27.2083 22.5383 26.5316C20.8177 25.1745 19.1252 23.1911 19.1252 20.646Z" fill="#9CADCE" stroke="white" stroke-width="0.25"/>
</g>
</g>
</svg>
