<svg width="40" height="41" viewBox="0 0 40 41" fill="none" xmlns="http://www.w3.org/2000/svg">
<mask id="path-1-inside-1_1964_3696" fill="white">
<path fill-rule="evenodd" clip-rule="evenodd" d="M20 40.417C31.0457 40.417 40 31.4627 40 20.417C40 9.3713 31.0457 0.416992 20 0.416992C8.9543 0.416992 0 9.3713 0 20.417C0 31.4627 8.9543 40.417 20 40.417ZM8.00033 17.5252C8.00033 25.6023 18.8766 30.0324 18.8766 30.0324C18.8766 30.0324 30 25.5575 30 17.5252C30 14.1467 27.3933 11.417 24.1799 11.417C21.9103 11.417 19.9328 12.8042 18.9889 14.8179C18.0451 12.8042 16.0676 11.417 13.798 11.417C10.5846 11.417 7.97786 14.1467 8.00033 17.5252Z"/>
</mask>
<path fill-rule="evenodd" clip-rule="evenodd" d="M20 40.417C31.0457 40.417 40 31.4627 40 20.417C40 9.3713 31.0457 0.416992 20 0.416992C8.9543 0.416992 0 9.3713 0 20.417C0 31.4627 8.9543 40.417 20 40.417ZM8.00033 17.5252C8.00033 25.6023 18.8766 30.0324 18.8766 30.0324C18.8766 30.0324 30 25.5575 30 17.5252C30 14.1467 27.3933 11.417 24.1799 11.417C21.9103 11.417 19.9328 12.8042 18.9889 14.8179C18.0451 12.8042 16.0676 11.417 13.798 11.417C10.5846 11.417 7.97786 14.1467 8.00033 17.5252Z" fill="#9CADCE"/>
<path d="M18.8766 30.0324L18.4994 30.9585L18.8743 31.1112L19.2498 30.9601L18.8766 30.0324ZM8.00033 17.5252H9.00035L9.00031 17.5185L8.00033 17.5252ZM18.9889 14.8179L18.0835 15.2423L18.9889 17.1742L19.8944 15.2423L18.9889 14.8179ZM39 20.417C39 30.9104 30.4934 39.417 20 39.417V41.417C31.598 41.417 41 32.015 41 20.417H39ZM20 1.41699C30.4934 1.41699 39 9.92358 39 20.417H41C41 8.81901 31.598 -0.583008 20 -0.583008V1.41699ZM1 20.417C1 9.92358 9.50659 1.41699 20 1.41699V-0.583008C8.40202 -0.583008 -1 8.81901 -1 20.417H1ZM20 39.417C9.50659 39.417 1 30.9104 1 20.417H-1C-1 32.015 8.40202 41.417 20 41.417V39.417ZM18.8766 30.0324C19.2538 29.1063 19.2541 29.1064 19.2543 29.1064C19.2543 29.1064 19.2544 29.1065 19.2545 29.1065C19.2545 29.1065 19.2544 29.1065 19.2542 29.1064C19.2536 29.1062 19.2524 29.1057 19.2506 29.1049C19.2469 29.1034 19.2407 29.1008 19.2321 29.0972C19.2147 29.0899 19.1875 29.0784 19.1511 29.0627C19.0782 29.0312 18.9686 28.9829 18.8274 28.9179C18.545 28.7879 18.1373 28.5916 17.6462 28.3308C16.6616 27.8079 15.3544 27.0321 14.0528 26.0187C11.4096 23.9606 9.00033 21.0919 9.00033 17.5252H7.00033C7.00033 22.0355 10.0292 25.4205 12.8241 27.5967C14.2416 28.7004 15.6534 29.537 16.7081 30.0971C17.2367 30.3779 17.6787 30.5908 17.9911 30.7346C18.1473 30.8065 18.2714 30.8613 18.3578 30.8986C18.401 30.9173 18.4349 30.9317 18.4587 30.9416C18.4706 30.9466 18.48 30.9505 18.4868 30.9533C18.4902 30.9547 18.493 30.9559 18.4951 30.9567C18.4961 30.9572 18.497 30.9575 18.4977 30.9578C18.4981 30.958 18.4985 30.9581 18.4987 30.9582C18.499 30.9584 18.4994 30.9585 18.8766 30.0324ZM29 17.5252C29 21.0588 26.5427 23.9265 23.8315 25.996C22.4987 27.0135 21.1599 27.7944 20.1514 28.3214C19.6484 28.5843 19.2308 28.7824 18.9413 28.9138C18.7966 28.9795 18.6841 29.0284 18.6093 29.0603C18.5719 29.0762 18.5439 29.0879 18.526 29.0953C18.5171 29.099 18.5107 29.1017 18.5069 29.1032C18.505 29.104 18.5037 29.1045 18.5031 29.1047C18.5028 29.1049 18.5027 29.1049 18.5027 29.1049C18.5028 29.1049 18.5029 29.1048 18.5029 29.1048C18.5031 29.1047 18.5034 29.1046 18.8766 30.0324C19.2498 30.9601 19.2501 30.96 19.2505 30.9598C19.2507 30.9598 19.2511 30.9596 19.2514 30.9595C19.2522 30.9592 19.2531 30.9588 19.2541 30.9584C19.2562 30.9575 19.259 30.9564 19.2624 30.955C19.2693 30.9522 19.2789 30.9483 19.291 30.9433C19.3152 30.9332 19.3496 30.9188 19.3937 30.9C19.4818 30.8625 19.6084 30.8074 19.7678 30.735C20.0866 30.5903 20.538 30.3761 21.0778 30.0939C22.155 29.531 23.5971 28.6911 25.0451 27.5858C27.8957 25.4098 31 22.0239 31 17.5252H29ZM24.1799 12.417C26.7967 12.417 29 14.6535 29 17.5252H31C31 13.6398 27.99 10.417 24.1799 10.417V12.417ZM19.8944 15.2423C20.689 13.5469 22.3333 12.417 24.1799 12.417V10.417C21.4872 10.417 19.1765 12.0615 18.0835 14.3935L19.8944 15.2423ZM13.798 12.417C15.6446 12.417 17.2889 13.5469 18.0835 15.2423L19.8944 14.3935C18.8014 12.0615 16.4907 10.417 13.798 10.417V12.417ZM9.00031 17.5185C8.98125 14.6532 11.1803 12.417 13.798 12.417V10.417C9.98887 10.417 6.97446 13.6401 7.00035 17.5318L9.00031 17.5185Z" fill="#9CADCE" mask="url(#path-1-inside-1_1964_3696)"/>
<path d="M19.1251 20.3545L19.1251 20.3537C19.1112 18.2384 20.7206 16.542 22.6895 16.542C24.0801 16.542 25.2971 17.4031 25.8795 18.6618L25.9929 18.907L26.1063 18.6618C26.6887 17.4031 27.9057 16.542 29.2962 16.542C31.2651 16.542 32.875 18.2384 32.875 20.3545C32.875 22.8838 31.1449 24.8671 29.3842 26.2286C28.5066 26.9072 27.6282 27.4258 26.9689 27.7749C26.6394 27.9493 26.3651 28.0812 26.1733 28.1694C26.0775 28.2134 26.0023 28.2465 25.9513 28.2686C25.9403 28.2733 25.9304 28.2776 25.9217 28.2813C25.9134 28.2777 25.9041 28.2737 25.8938 28.2691C25.8439 28.2473 25.7705 28.2145 25.6768 28.1708C25.4895 28.0834 25.2212 27.9526 24.8992 27.7793C24.2547 27.4326 23.3961 26.9168 22.5382 26.2401C20.8176 24.883 19.1251 22.8996 19.1251 20.3545Z" fill="white" stroke="#9CADCE" stroke-width="0.25"/>
</svg>
