<svg width="40" height="41" viewBox="0 0 40 41" fill="none" xmlns="http://www.w3.org/2000/svg">
<mask id="path-1-inside-1_1964_3656" fill="white">
<path fill-rule="evenodd" clip-rule="evenodd" d="M20 40.7085C31.0457 40.7085 40 31.7542 40 20.7085C40 9.6628 31.0457 0.708496 20 0.708496C8.9543 0.708496 0 9.6628 0 20.7085C0 31.7542 8.9543 40.7085 20 40.7085ZM30.4426 22.0092C30.0389 21.7783 29.5483 21.8649 29.2023 22.1824C27.5588 23.8567 25.2518 24.665 22.9157 24.4051C19.4552 24.001 16.6582 21.2009 16.283 17.7657C16.0238 15.3986 16.8312 13.1182 18.5038 11.4727C18.8499 11.1552 18.9076 10.6356 18.6769 10.2315C18.4459 9.82732 17.9848 9.62525 17.5522 9.74072C12.3037 10.9531 8.72788 15.7739 9.01626 21.1432C9.30463 26.7434 13.9187 31.391 19.542 31.6796C19.6427 31.6796 19.7436 31.6868 19.8446 31.6941C19.9456 31.7013 20.0466 31.7085 20.1476 31.7085C25.2807 31.7085 29.7791 28.1867 30.9902 23.1639C31.0482 22.6731 30.846 22.2401 30.4426 22.0092ZM20.4846 18.3016H21.0261L20.1837 19.2326C20.0978 19.3223 20.0892 19.4464 20.1493 19.543C20.2095 19.6464 20.3384 19.7085 20.4846 19.7085H21.7567C21.9629 19.7085 22.1263 19.5774 22.1263 19.4119C22.1263 19.2464 21.9629 19.1154 21.7567 19.1154H21.2152L22.0575 18.1843C22.1434 18.0947 22.152 17.9705 22.0919 17.874C22.0317 17.7705 21.9028 17.7085 21.7567 17.7085H20.4846C20.2783 17.7085 20.115 17.8395 20.115 18.005C20.115 18.1705 20.2783 18.3016 20.4846 18.3016ZM22.0362 13.3016H21.4947C21.2884 13.3016 21.1251 13.1706 21.1251 13.005C21.1251 12.8395 21.2884 12.7085 21.4947 12.7085H22.7668C22.9129 12.7085 23.0419 12.7706 23.102 12.874C23.1622 12.9706 23.1536 13.0947 23.0676 13.1844L22.2253 14.1154H22.7668C22.9731 14.1154 23.1364 14.2464 23.1364 14.4119C23.1364 14.5775 22.9731 14.7085 22.7668 14.7085H21.4947C21.3486 14.7085 21.2197 14.6464 21.1595 14.543C21.0993 14.4464 21.1079 14.3223 21.1939 14.2326L22.0362 13.3016ZM27.23 17.3286H26.2223L27.7898 15.5947C27.9497 15.4277 27.9657 15.1965 27.8536 15.0167C27.7258 14.8369 27.4859 14.7085 27.23 14.7085H24.8468C24.4629 14.7085 24.159 14.9654 24.159 15.2736C24.159 15.5818 24.4629 15.8259 24.8468 15.8259H25.8543L24.287 17.5598C24.127 17.7267 24.111 17.9579 24.223 18.1377C24.3348 18.3304 24.5747 18.446 24.8468 18.446H27.2138C27.5979 18.446 27.9018 18.202 27.9018 17.8937C27.9177 17.5855 27.6137 17.3286 27.23 17.3286ZM19.199 16.1105H19.7382C19.9435 16.1105 20.1062 16.248 20.0977 16.4129C20.0977 16.5779 19.935 16.7085 19.7295 16.7085H18.4629C18.3173 16.7085 18.1889 16.6466 18.1291 16.5435C18.0692 16.4473 18.0777 16.3236 18.1633 16.2343L19.002 15.3064H18.4629C18.2575 15.3064 18.0949 15.1758 18.0949 15.0109C18.0949 14.8459 18.2575 14.7085 18.4629 14.7085H19.7382C19.8751 14.7085 20.0035 14.7772 20.0719 14.8734C20.1319 14.9696 20.1233 15.0934 20.0377 15.1827L19.199 16.1105ZM25.6123 21.8116H24.8035L26.0617 20.4198C26.1901 20.2858 26.2029 20.1002 26.1129 19.9559C26.0103 19.8116 25.8178 19.7085 25.6123 19.7085H23.6994C23.3913 19.7085 23.1474 19.9146 23.1474 20.1621C23.1474 20.4095 23.3913 20.6054 23.6994 20.6054H24.5081L23.2501 21.9971C23.1217 22.1311 23.1089 22.3167 23.1987 22.461C23.2885 22.6157 23.481 22.7085 23.6994 22.7085H25.5994C25.9076 22.7085 26.1516 22.5126 26.1516 22.2652C26.1644 22.0177 25.9203 21.8116 25.6123 21.8116Z"/>
</mask>
<path fill-rule="evenodd" clip-rule="evenodd" d="M20 40.7085C31.0457 40.7085 40 31.7542 40 20.7085C40 9.6628 31.0457 0.708496 20 0.708496C8.9543 0.708496 0 9.6628 0 20.7085C0 31.7542 8.9543 40.7085 20 40.7085ZM30.4426 22.0092C30.0389 21.7783 29.5483 21.8649 29.2023 22.1824C27.5588 23.8567 25.2518 24.665 22.9157 24.4051C19.4552 24.001 16.6582 21.2009 16.283 17.7657C16.0238 15.3986 16.8312 13.1182 18.5038 11.4727C18.8499 11.1552 18.9076 10.6356 18.6769 10.2315C18.4459 9.82732 17.9848 9.62525 17.5522 9.74072C12.3037 10.9531 8.72788 15.7739 9.01626 21.1432C9.30463 26.7434 13.9187 31.391 19.542 31.6796C19.6427 31.6796 19.7436 31.6868 19.8446 31.6941C19.9456 31.7013 20.0466 31.7085 20.1476 31.7085C25.2807 31.7085 29.7791 28.1867 30.9902 23.1639C31.0482 22.6731 30.846 22.2401 30.4426 22.0092ZM20.4846 18.3016H21.0261L20.1837 19.2326C20.0978 19.3223 20.0892 19.4464 20.1493 19.543C20.2095 19.6464 20.3384 19.7085 20.4846 19.7085H21.7567C21.9629 19.7085 22.1263 19.5774 22.1263 19.4119C22.1263 19.2464 21.9629 19.1154 21.7567 19.1154H21.2152L22.0575 18.1843C22.1434 18.0947 22.152 17.9705 22.0919 17.874C22.0317 17.7705 21.9028 17.7085 21.7567 17.7085H20.4846C20.2783 17.7085 20.115 17.8395 20.115 18.005C20.115 18.1705 20.2783 18.3016 20.4846 18.3016ZM22.0362 13.3016H21.4947C21.2884 13.3016 21.1251 13.1706 21.1251 13.005C21.1251 12.8395 21.2884 12.7085 21.4947 12.7085H22.7668C22.9129 12.7085 23.0419 12.7706 23.102 12.874C23.1622 12.9706 23.1536 13.0947 23.0676 13.1844L22.2253 14.1154H22.7668C22.9731 14.1154 23.1364 14.2464 23.1364 14.4119C23.1364 14.5775 22.9731 14.7085 22.7668 14.7085H21.4947C21.3486 14.7085 21.2197 14.6464 21.1595 14.543C21.0993 14.4464 21.1079 14.3223 21.1939 14.2326L22.0362 13.3016ZM27.23 17.3286H26.2223L27.7898 15.5947C27.9497 15.4277 27.9657 15.1965 27.8536 15.0167C27.7258 14.8369 27.4859 14.7085 27.23 14.7085H24.8468C24.4629 14.7085 24.159 14.9654 24.159 15.2736C24.159 15.5818 24.4629 15.8259 24.8468 15.8259H25.8543L24.287 17.5598C24.127 17.7267 24.111 17.9579 24.223 18.1377C24.3348 18.3304 24.5747 18.446 24.8468 18.446H27.2138C27.5979 18.446 27.9018 18.202 27.9018 17.8937C27.9177 17.5855 27.6137 17.3286 27.23 17.3286ZM19.199 16.1105H19.7382C19.9435 16.1105 20.1062 16.248 20.0977 16.4129C20.0977 16.5779 19.935 16.7085 19.7295 16.7085H18.4629C18.3173 16.7085 18.1889 16.6466 18.1291 16.5435C18.0692 16.4473 18.0777 16.3236 18.1633 16.2343L19.002 15.3064H18.4629C18.2575 15.3064 18.0949 15.1758 18.0949 15.0109C18.0949 14.8459 18.2575 14.7085 18.4629 14.7085H19.7382C19.8751 14.7085 20.0035 14.7772 20.0719 14.8734C20.1319 14.9696 20.1233 15.0934 20.0377 15.1827L19.199 16.1105ZM25.6123 21.8116H24.8035L26.0617 20.4198C26.1901 20.2858 26.2029 20.1002 26.1129 19.9559C26.0103 19.8116 25.8178 19.7085 25.6123 19.7085H23.6994C23.3913 19.7085 23.1474 19.9146 23.1474 20.1621C23.1474 20.4095 23.3913 20.6054 23.6994 20.6054H24.5081L23.2501 21.9971C23.1217 22.1311 23.1089 22.3167 23.1987 22.461C23.2885 22.6157 23.481 22.7085 23.6994 22.7085H25.5994C25.9076 22.7085 26.1516 22.5126 26.1516 22.2652C26.1644 22.0177 25.9203 21.8116 25.6123 21.8116Z" fill="#C545A3"/>
<path d="M29.2023 22.1824L28.5262 21.4456L28.507 21.4632L28.4887 21.4819L29.2023 22.1824ZM30.4426 22.0092L30.9394 21.1413L30.9391 21.1412L30.4426 22.0092ZM22.9157 24.4051L22.7997 25.3984L22.8052 25.399L22.9157 24.4051ZM16.283 17.7657L17.2771 17.6572L17.2771 17.6569L16.283 17.7657ZM18.5038 11.4727L17.8277 10.7359L17.8149 10.7477L17.8025 10.7599L18.5038 11.4727ZM18.6769 10.2315L19.5453 9.7357L19.5451 9.73523L18.6769 10.2315ZM17.5522 9.74072L17.7773 10.7151L17.7938 10.7113L17.8101 10.7069L17.5522 9.74072ZM9.01626 21.1432L10.0149 21.0918L10.0148 21.0895L9.01626 21.1432ZM19.542 31.6796L19.4907 32.6783L19.5163 32.6796H19.542V31.6796ZM19.8446 31.6941L19.7733 32.6915L19.7733 32.6915L19.8446 31.6941ZM30.9902 23.1639L31.9624 23.3983L31.9763 23.3404L31.9833 23.2812L30.9902 23.1639ZM21.0261 18.3016L21.7676 18.9725L23.2793 17.3016H21.0261V18.3016ZM20.1837 19.2326L20.9056 19.9247L20.9156 19.9142L20.9253 19.9035L20.1837 19.2326ZM20.1493 19.543L21.0138 19.0402L21.0061 19.027L20.998 19.0141L20.1493 19.543ZM21.2152 19.1154L20.4736 18.4445L18.9619 20.1154H21.2152V19.1154ZM22.0575 18.1843L21.3356 17.4923L21.3256 17.5027L21.3159 17.5134L22.0575 18.1843ZM22.0919 17.874L21.2274 18.3767L21.2351 18.3899L21.2432 18.4029L22.0919 17.874ZM22.0362 13.3016L22.7778 13.9725L24.2895 12.3016H22.0362V13.3016ZM23.102 12.874L22.2376 13.3768L22.2453 13.3899L22.2533 13.4029L23.102 12.874ZM23.0676 13.1844L22.3458 12.4923L22.3358 12.5027L22.3261 12.5135L23.0676 13.1844ZM22.2253 14.1154L21.4838 13.4445L19.9721 15.1154H22.2253V14.1154ZM21.1595 14.543L22.0239 14.0402L22.0163 14.027L22.0082 14.0141L21.1595 14.543ZM21.1939 14.2326L21.9157 14.9247L21.9257 14.9142L21.9354 14.9035L21.1939 14.2326ZM26.2223 17.3286L25.4805 16.658L23.9703 18.3286H26.2223V17.3286ZM27.7898 15.5947L27.0677 14.9029L27.0577 14.9134L27.048 14.9241L27.7898 15.5947ZM27.8536 15.0167L28.7022 14.4876L28.6862 14.462L28.6687 14.4374L27.8536 15.0167ZM25.8543 15.8259L26.5961 16.4964L28.1062 14.8259H25.8543V15.8259ZM24.287 17.5598L25.0091 18.2515L25.0191 18.2411L25.0288 18.2303L24.287 17.5598ZM24.223 18.1377L25.0879 17.6358L25.0801 17.6224L25.0719 17.6092L24.223 18.1377ZM27.9018 17.8937L26.9031 17.8419L26.9018 17.8678V17.8937H27.9018ZM19.199 16.1105L18.4572 15.4399L16.9469 17.1105H19.199V16.1105ZM20.0977 16.4129L19.099 16.3611L19.0977 16.387V16.4129H20.0977ZM18.1291 16.5435L18.994 16.0416L18.9862 16.0282L18.978 16.015L18.1291 16.5435ZM18.1633 16.2343L18.8855 16.926L18.8955 16.9156L18.9052 16.9048L18.1633 16.2343ZM19.002 15.3064L19.7439 15.977L21.2539 14.3064H19.002V15.3064ZM20.0719 14.8734L20.9204 14.3443L20.9045 14.3187L20.887 14.2941L20.0719 14.8734ZM20.0377 15.1827L19.3156 14.491L19.3056 14.5014L19.2959 14.5121L20.0377 15.1827ZM24.8035 21.8116L24.0617 21.1409L22.5515 22.8116H24.8035V21.8116ZM26.0617 20.4198L25.3396 19.728L25.3296 19.7385L25.3199 19.7492L26.0617 20.4198ZM26.1129 19.9559L26.9615 19.4268L26.9455 19.4012L26.928 19.3766L26.1129 19.9559ZM24.5081 20.6054L25.25 21.2759L26.76 19.6054H24.5081V20.6054ZM23.2501 21.9971L23.9722 22.6889L23.9822 22.6784L23.9919 22.6677L23.2501 21.9971ZM23.1987 22.461L24.0636 21.9591L24.0558 21.9457L24.0476 21.9325L23.1987 22.461ZM26.1516 22.2652L25.1529 22.2133L25.1516 22.2392V22.2652H26.1516ZM39 20.7085C39 31.2019 30.4934 39.7085 20 39.7085V41.7085C31.598 41.7085 41 32.3065 41 20.7085H39ZM20 1.7085C30.4934 1.7085 39 10.2151 39 20.7085H41C41 9.11052 31.598 -0.291504 20 -0.291504V1.7085ZM1 20.7085C1 10.2151 9.50659 1.7085 20 1.7085V-0.291504C8.40202 -0.291504 -1 9.11052 -1 20.7085H1ZM20 39.7085C9.50659 39.7085 1 31.2019 1 20.7085H-1C-1 32.3065 8.40202 41.7085 20 41.7085V39.7085ZM29.8784 22.9192C29.9123 22.8881 29.9401 22.8804 29.9493 22.879C29.9534 22.8784 29.9536 22.879 29.9507 22.8785C29.9473 22.8779 29.9453 22.8767 29.9461 22.8772L30.9391 21.1412C30.1052 20.6641 29.1461 20.8768 28.5262 21.4456L29.8784 22.9192ZM22.8052 25.399C25.4422 25.6923 28.0544 24.7794 29.9159 22.8829L28.4887 21.4819C27.0633 22.934 25.0614 23.6376 23.0262 23.4113L22.8052 25.399ZM15.289 17.8743C15.7154 21.7785 18.8815 24.9408 22.7997 25.3984L23.0317 23.4119C20.0289 23.0612 17.6011 20.6234 17.2771 17.6572L15.289 17.8743ZM17.8025 10.7599C15.9089 12.6228 14.9969 15.2072 15.289 17.8746L17.2771 17.6569C17.0507 15.59 17.7536 13.6135 19.2051 12.1856L17.8025 10.7599ZM17.8084 10.7272C17.8114 10.7325 17.8134 10.738 17.8144 10.7433C17.8155 10.7488 17.8153 10.7529 17.8151 10.7547C17.8149 10.7563 17.8149 10.7544 17.8171 10.75C17.8183 10.7477 17.8198 10.7452 17.8218 10.7425C17.8238 10.7398 17.8259 10.7376 17.8277 10.7359L19.1799 12.2095C19.9003 11.5485 19.9864 10.5083 19.5453 9.7357L17.8084 10.7272ZM17.8101 10.7069C17.8046 10.7084 17.7989 10.7087 17.7944 10.7084C17.7903 10.708 17.7889 10.7072 17.7898 10.7076C17.7917 10.7084 17.8003 10.7131 17.8087 10.7277L19.5451 9.73523C19.1028 8.96148 18.192 8.53492 17.2943 8.77455L17.8101 10.7069ZM10.0148 21.0895C9.75214 16.1988 13.0085 11.8167 17.7773 10.7151L17.3271 8.76638C11.599 10.0896 7.70362 15.3491 8.0177 21.1968L10.0148 21.0895ZM19.5933 30.6809C14.4846 30.4187 10.2771 26.1828 10.0149 21.0918L8.01758 21.1946C8.33217 27.3039 13.3527 32.3632 19.4907 32.6783L19.5933 30.6809ZM19.9159 30.6966C19.821 30.6898 19.6844 30.6796 19.542 30.6796V32.6796C19.6011 32.6796 19.6663 32.6839 19.7733 32.6915L19.9159 30.6966ZM20.1476 30.7085C20.0883 30.7085 20.0229 30.7043 19.9159 30.6966L19.7733 32.6915C19.8682 32.6983 20.0049 32.7085 20.1476 32.7085V30.7085ZM30.0181 22.9295C28.9155 27.5022 24.8197 30.7085 20.1476 30.7085V32.7085C25.7416 32.7085 30.6426 28.8713 31.9624 23.3983L30.0181 22.9295ZM29.9458 22.8771C29.9711 22.8915 29.9796 22.9042 29.9852 22.9161C29.992 22.9305 30.0061 22.9707 29.9971 23.0466L31.9833 23.2812C32.0835 22.4334 31.7255 21.5913 30.9394 21.1413L29.9458 22.8771ZM21.0261 17.3016H20.4846V19.3016H21.0261V17.3016ZM20.9253 19.9035L21.7676 18.9725L20.2845 17.6307L19.4422 18.5617L20.9253 19.9035ZM20.998 19.0141C21.1753 19.2985 21.1418 19.6782 20.9056 19.9247L19.4619 18.5406C19.0537 18.9663 19.0031 19.5943 19.3006 20.0718L20.998 19.0141ZM20.4846 18.7085C20.5871 18.7085 20.8467 18.753 21.0138 19.0402L19.2849 20.0457C19.5723 20.5398 20.0898 20.7085 20.4846 20.7085V18.7085ZM21.7567 18.7085H20.4846V20.7085H21.7567V18.7085ZM21.1263 19.4119C21.1263 19.1441 21.2626 18.9469 21.393 18.8423C21.5194 18.7409 21.6529 18.7085 21.7567 18.7085V20.7085C22.2985 20.7085 23.1263 20.324 23.1263 19.4119H21.1263ZM21.7567 20.1154C21.6529 20.1154 21.5194 20.083 21.393 19.9815C21.2626 19.8769 21.1263 19.6798 21.1263 19.4119H23.1263C23.1263 18.4998 22.2985 18.1154 21.7567 18.1154V20.1154ZM21.2152 20.1154H21.7567V18.1154H21.2152V20.1154ZM21.3159 17.5134L20.4736 18.4445L21.9567 19.7863L22.799 18.8552L21.3159 17.5134ZM21.2432 18.4029C21.0659 18.1184 21.0994 17.7387 21.3356 17.4923L22.7793 18.8764C23.1875 18.4506 23.2382 17.8227 22.9406 17.3451L21.2432 18.4029ZM21.7567 18.7085C21.6541 18.7085 21.3945 18.6639 21.2274 18.3767L22.9563 17.3712C22.6689 16.8771 22.1514 16.7085 21.7567 16.7085V18.7085ZM20.4846 18.7085H21.7567V16.7085H20.4846V18.7085ZM21.115 18.005C21.115 18.2729 20.9786 18.47 20.8482 18.5747C20.7218 18.6761 20.5883 18.7085 20.4846 18.7085V16.7085C19.9428 16.7085 19.115 17.0929 19.115 18.005H21.115ZM20.4846 17.3016C20.5883 17.3016 20.7218 17.334 20.8482 17.4354C20.9786 17.54 21.115 17.7372 21.115 18.005H19.115C19.115 18.9171 19.9428 19.3016 20.4846 19.3016V17.3016ZM21.4947 14.3016H22.0362V12.3016H21.4947V14.3016ZM20.1251 13.005C20.1251 13.9171 20.9529 14.3016 21.4947 14.3016V12.3016C21.5984 12.3016 21.732 12.334 21.8584 12.4354C21.9888 12.54 22.1251 12.7372 22.1251 13.005H20.1251ZM21.4947 11.7085C20.9529 11.7085 20.1251 12.093 20.1251 13.005H22.1251C22.1251 13.2729 21.9888 13.47 21.8584 13.5747C21.732 13.6761 21.5984 13.7085 21.4947 13.7085V11.7085ZM22.7668 11.7085H21.4947V13.7085H22.7668V11.7085ZM23.9665 12.3712C23.6791 11.8772 23.1616 11.7085 22.7668 11.7085V13.7085C22.6643 13.7085 22.4046 13.664 22.2376 13.3768L23.9665 12.3712ZM23.7895 13.8764C24.1977 13.4507 24.2483 12.8227 23.9507 12.3452L22.2533 13.4029C22.0761 13.1184 22.1095 12.7388 22.3458 12.4923L23.7895 13.8764ZM22.9669 14.7863L23.8092 13.8553L22.3261 12.5135L21.4838 13.4445L22.9669 14.7863ZM22.7668 13.1154H22.2253V15.1154H22.7668V13.1154ZM24.1364 14.4119C24.1364 13.4998 23.3086 13.1154 22.7668 13.1154V15.1154C22.6631 15.1154 22.5295 15.083 22.4032 14.9816C22.2728 14.8769 22.1364 14.6798 22.1364 14.4119H24.1364ZM22.7668 15.7085C23.3086 15.7085 24.1364 15.324 24.1364 14.4119H22.1364C22.1364 14.1441 22.2728 13.9469 22.4032 13.8423C22.5295 13.7409 22.6631 13.7085 22.7668 13.7085V15.7085ZM21.4947 15.7085H22.7668V13.7085H21.4947V15.7085ZM20.2951 15.0458C20.5824 15.5398 21.0999 15.7085 21.4947 15.7085V13.7085C21.5973 13.7085 21.8569 13.753 22.0239 14.0402L20.2951 15.0458ZM20.472 13.5406C20.0639 13.9663 20.0132 14.5943 20.3108 15.0718L22.0082 14.0141C22.1855 14.2986 22.152 14.6782 21.9157 14.9247L20.472 13.5406ZM21.2947 12.6307L20.4523 13.5617L21.9354 14.9035L22.7778 13.9725L21.2947 12.6307ZM26.2223 18.3286H27.23V16.3286H26.2223V18.3286ZM27.048 14.9241L25.4805 16.658L26.9641 17.9992L28.5316 16.2653L27.048 14.9241ZM27.0051 15.5458C26.947 15.4527 26.9164 15.3356 26.9286 15.2124C26.941 15.0864 26.9957 14.978 27.0677 14.9029L28.5119 16.2865C28.9938 15.7834 29.0519 15.0484 28.7022 14.4876L27.0051 15.5458ZM27.23 15.7085C27.1921 15.7085 27.1622 15.6995 27.1386 15.6876C27.1169 15.6766 27.0781 15.6518 27.0385 15.596L28.6687 14.4374C28.3462 13.9837 27.7972 13.7085 27.23 13.7085V15.7085ZM24.8468 15.7085H27.23V13.7085H24.8468V15.7085ZM25.159 15.2736C25.159 15.4647 25.0631 15.5907 24.9971 15.6453C24.932 15.6994 24.8749 15.7085 24.8468 15.7085V13.7085C24.0945 13.7085 23.159 14.2456 23.159 15.2736H25.159ZM24.8468 14.8259C24.8619 14.8259 24.916 14.8302 24.9851 14.8856C25.0581 14.9443 25.159 15.0775 25.159 15.2736H23.159C23.159 16.3278 24.1266 16.8259 24.8468 16.8259V14.8259ZM25.8543 14.8259H24.8468V16.8259H25.8543V14.8259ZM25.0288 18.2303L26.5961 16.4964L25.1124 15.1553L23.5451 16.8892L25.0288 18.2303ZM25.0719 17.6092C25.1298 17.7022 25.1603 17.8192 25.1482 17.9423C25.1357 18.0681 25.0811 18.1764 25.0091 18.2515L23.5649 16.868C23.083 17.3711 23.0251 18.1057 23.3741 18.6663L25.0719 17.6092ZM24.8468 17.446C24.8494 17.446 24.8741 17.4461 24.9153 17.4664C24.9569 17.4868 25.0301 17.5361 25.0879 17.6358L23.3581 18.6397C23.697 19.2237 24.326 19.446 24.8468 19.446V17.446ZM27.2138 17.446H24.8468V19.446H27.2138V17.446ZM26.9018 17.8937C26.9018 17.6976 27.0027 17.5643 27.0757 17.5057C27.1448 17.4502 27.1989 17.446 27.2138 17.446V19.446C27.934 19.446 28.9018 18.948 28.9018 17.8937H26.9018ZM27.23 18.3286C27.2034 18.3286 27.1427 18.3203 27.0715 18.2604C26.9973 18.1979 26.8921 18.053 26.9031 17.8419L28.9004 17.9455C28.9566 16.862 27.9599 16.3286 27.23 16.3286V18.3286ZM19.7382 15.1105H19.199V17.1105H19.7382V15.1105ZM21.0963 16.4648C21.1451 15.5245 20.2897 15.1105 19.7382 15.1105V17.1105C19.6224 17.1105 19.4817 17.0724 19.3539 16.9647C19.223 16.8544 19.0843 16.6439 19.099 16.3611L21.0963 16.4648ZM19.7295 17.7085C20.2712 17.7085 21.0977 17.324 21.0977 16.4129H19.0977C19.0977 16.1451 19.2339 15.9477 19.3646 15.8428C19.4913 15.7411 19.6253 15.7085 19.7295 15.7085V17.7085ZM18.4629 17.7085H19.7295V15.7085H18.4629V17.7085ZM17.2642 17.0455C17.5512 17.5399 18.0686 17.7085 18.4629 17.7085V15.7085C18.566 15.7085 18.8267 15.7533 18.994 16.0416L17.2642 17.0455ZM17.4412 15.5425C17.0337 15.9679 16.9832 16.5951 17.2802 17.0721L18.978 16.015C19.1552 16.2995 19.1218 16.6793 18.8855 16.926L17.4412 15.5425ZM18.2602 14.6358L17.4215 15.5637L18.9052 16.9048L19.7439 15.977L18.2602 14.6358ZM18.4629 16.3064H19.002V14.3064H18.4629V16.3064ZM17.0949 15.0109C17.0949 15.9218 17.9212 16.3064 18.4629 16.3064V14.3064C18.5672 14.3064 18.7013 14.3391 18.828 14.4408C18.9586 14.5457 19.0949 14.7431 19.0949 15.0109H17.0949ZM18.4629 13.7085C17.889 13.7085 17.0949 14.1262 17.0949 15.0109H19.0949C19.0949 15.2736 18.9636 15.4653 18.84 15.5677C18.7172 15.6695 18.5803 15.7085 18.4629 15.7085V13.7085ZM19.7382 13.7085H18.4629V15.7085H19.7382V13.7085ZM20.887 14.2941C20.6239 13.9239 20.1864 13.7085 19.7382 13.7085V15.7085C19.6408 15.7085 19.5533 15.6846 19.4795 15.6473C19.4076 15.6109 19.3261 15.5503 19.2568 15.4527L20.887 14.2941ZM20.7599 15.8744C21.1674 15.449 21.218 14.8216 20.9204 14.3443L19.2233 15.4025C19.0458 15.1177 19.0792 14.7377 19.3156 14.491L20.7599 15.8744ZM19.9408 16.7811L20.7796 15.8533L19.2959 14.5121L18.4572 15.4399L19.9408 16.7811ZM24.8035 22.8116H25.6123V20.8116H24.8035V22.8116ZM25.3199 19.7492L24.0617 21.1409L25.5453 22.4822L26.8035 21.0904L25.3199 19.7492ZM25.2644 20.485C25.1168 20.2483 25.146 19.9301 25.3396 19.728L26.7838 21.1116C27.2342 20.6414 27.289 19.9521 26.9615 19.4268L25.2644 20.485ZM25.6123 20.7085C25.5492 20.7085 25.4949 20.6932 25.4499 20.6704C25.4069 20.6487 25.35 20.6087 25.2978 20.5352L26.928 19.3766C26.6307 18.9583 26.129 18.7085 25.6123 18.7085V20.7085ZM23.6994 20.7085H25.6123V18.7085H23.6994V20.7085ZM24.1474 20.1621C24.1474 20.3836 24.0364 20.5374 23.946 20.6124C23.8564 20.6867 23.7654 20.7085 23.6994 20.7085V18.7085C23.0228 18.7085 22.1474 19.1949 22.1474 20.1621H24.1474ZM23.6994 19.6054C23.7524 19.6054 23.8405 19.6217 23.934 19.6968C24.0315 19.7751 24.1474 19.9355 24.1474 20.1621H22.1474C22.1474 21.1554 23.055 21.6054 23.6994 21.6054V19.6054ZM24.5081 19.6054H23.6994V21.6054H24.5081V19.6054ZM23.9919 22.6677L25.25 21.2759L23.7663 19.9348L22.5082 21.3265L23.9919 22.6677ZM24.0476 21.9325C24.1948 22.1689 24.1658 22.4868 23.9722 22.6889L22.528 21.3054C22.0776 21.7755 22.0229 22.4645 22.3498 22.9896L24.0476 21.9325ZM23.6994 21.7085C23.7289 21.7085 23.7788 21.7143 23.8414 21.745C23.9043 21.7759 23.9947 21.8404 24.0636 21.9591L22.3338 22.963C22.6507 23.509 23.2324 23.7085 23.6994 23.7085V21.7085ZM25.5994 21.7085H23.6994V23.7085H25.5994V21.7085ZM25.1516 22.2652C25.1516 22.0386 25.2675 21.8781 25.365 21.7998C25.4585 21.7247 25.5465 21.7085 25.5994 21.7085V23.7085C26.2438 23.7085 27.1516 23.2586 27.1516 22.2652H25.1516ZM25.6123 22.8116C25.5479 22.8116 25.4532 22.7906 25.358 22.7104C25.2598 22.6276 25.1404 22.4548 25.1529 22.2133L27.1502 22.317C27.2033 21.2943 26.2666 20.8116 25.6123 20.8116V22.8116Z" fill="#C545A3" mask="url(#path-1-inside-1_1964_3656)"/>
</svg>
