<svg width="40" height="41" viewBox="0 0 40 41" fill="none" xmlns="http://www.w3.org/2000/svg">
<mask id="path-1-inside-1_1964_3626" fill="white">
<path fill-rule="evenodd" clip-rule="evenodd" d="M20 40.7085C31.0457 40.7085 40 31.7542 40 20.7085C40 9.6628 31.0457 0.708496 20 0.708496C8.9543 0.708496 0 9.6628 0 20.7085C0 31.7542 8.9543 40.7085 20 40.7085ZM29.2023 22.1824C29.5483 21.8649 30.0389 21.7783 30.4426 22.0092C30.846 22.2401 31.0482 22.6731 30.9902 23.1639C29.7791 28.1867 25.2807 31.7085 20.1476 31.7085C20.0466 31.7085 19.9456 31.7013 19.8446 31.6941C19.7436 31.6868 19.6427 31.6796 19.542 31.6796C13.9187 31.391 9.30463 26.7434 9.01626 21.1432C8.72788 15.7739 12.3037 10.9531 17.5522 9.74072C17.9848 9.62525 18.4459 9.82732 18.6769 10.2315C18.9076 10.6356 18.8499 11.1552 18.5038 11.4727C16.8312 13.1182 16.0238 15.3986 16.283 17.7657C16.6582 21.2009 19.4552 24.001 22.9157 24.4051C25.2518 24.665 27.5588 23.8567 29.2023 22.1824ZM20.7777 17.8668H19.7658C19.3803 17.8668 19.0751 17.6219 19.0751 17.3126C19.0751 17.0033 19.3803 16.7584 19.7658 16.7584H22.1431C22.4161 16.7584 22.6571 16.8744 22.7695 17.0678C22.8819 17.2482 22.8659 17.4802 22.7052 17.6477L21.1311 19.3876H22.1431C22.5286 19.3876 22.8337 19.6325 22.8337 19.9418C22.8337 20.2511 22.5286 20.496 22.1431 20.496H19.7658C19.4927 20.496 19.2518 20.38 19.1394 20.1866C19.0269 20.0062 19.043 19.7742 19.2036 19.6067L20.7777 17.8668ZM27.1795 15.641H26.1718L27.7393 13.9071C27.8992 13.7402 27.9152 13.509 27.8031 13.3292C27.6753 13.1494 27.4354 13.0209 27.1795 13.0209H24.7963C24.4124 13.0209 24.1085 13.2778 24.1085 13.586C24.1085 13.8943 24.4124 14.1383 24.7963 14.1383H25.8038L24.2365 15.8722C24.0765 16.0392 24.0605 16.2704 24.1725 16.4502C24.2843 16.6428 24.5242 16.7584 24.7963 16.7584H27.1633C27.5473 16.7584 27.8512 16.5144 27.8512 16.2062C27.8672 15.8979 27.5632 15.641 27.1795 15.641Z"/>
</mask>
<path fill-rule="evenodd" clip-rule="evenodd" d="M20 40.7085C31.0457 40.7085 40 31.7542 40 20.7085C40 9.6628 31.0457 0.708496 20 0.708496C8.9543 0.708496 0 9.6628 0 20.7085C0 31.7542 8.9543 40.7085 20 40.7085ZM29.2023 22.1824C29.5483 21.8649 30.0389 21.7783 30.4426 22.0092C30.846 22.2401 31.0482 22.6731 30.9902 23.1639C29.7791 28.1867 25.2807 31.7085 20.1476 31.7085C20.0466 31.7085 19.9456 31.7013 19.8446 31.6941C19.7436 31.6868 19.6427 31.6796 19.542 31.6796C13.9187 31.391 9.30463 26.7434 9.01626 21.1432C8.72788 15.7739 12.3037 10.9531 17.5522 9.74072C17.9848 9.62525 18.4459 9.82732 18.6769 10.2315C18.9076 10.6356 18.8499 11.1552 18.5038 11.4727C16.8312 13.1182 16.0238 15.3986 16.283 17.7657C16.6582 21.2009 19.4552 24.001 22.9157 24.4051C25.2518 24.665 27.5588 23.8567 29.2023 22.1824ZM20.7777 17.8668H19.7658C19.3803 17.8668 19.0751 17.6219 19.0751 17.3126C19.0751 17.0033 19.3803 16.7584 19.7658 16.7584H22.1431C22.4161 16.7584 22.6571 16.8744 22.7695 17.0678C22.8819 17.2482 22.8659 17.4802 22.7052 17.6477L21.1311 19.3876H22.1431C22.5286 19.3876 22.8337 19.6325 22.8337 19.9418C22.8337 20.2511 22.5286 20.496 22.1431 20.496H19.7658C19.4927 20.496 19.2518 20.38 19.1394 20.1866C19.0269 20.0062 19.043 19.7742 19.2036 19.6067L20.7777 17.8668ZM27.1795 15.641H26.1718L27.7393 13.9071C27.8992 13.7402 27.9152 13.509 27.8031 13.3292C27.6753 13.1494 27.4354 13.0209 27.1795 13.0209H24.7963C24.4124 13.0209 24.1085 13.2778 24.1085 13.586C24.1085 13.8943 24.4124 14.1383 24.7963 14.1383H25.8038L24.2365 15.8722C24.0765 16.0392 24.0605 16.2704 24.1725 16.4502C24.2843 16.6428 24.5242 16.7584 24.7963 16.7584H27.1633C27.5473 16.7584 27.8512 16.5144 27.8512 16.2062C27.8672 15.8979 27.5632 15.641 27.1795 15.641Z" fill="#C545A3"/>
<path d="M30.4426 22.0092L30.9394 21.1413L30.9391 21.1412L30.4426 22.0092ZM29.2023 22.1824L28.5262 21.4456L28.507 21.4632L28.4887 21.4819L29.2023 22.1824ZM30.9902 23.1639L31.9624 23.3983L31.9763 23.3404L31.9833 23.2812L30.9902 23.1639ZM19.8446 31.6941L19.7733 32.6915L19.7733 32.6915L19.8446 31.6941ZM19.542 31.6796L19.4907 32.6783L19.5163 32.6796H19.542V31.6796ZM9.01626 21.1432L10.0149 21.0918L10.0148 21.0895L9.01626 21.1432ZM17.5522 9.74072L17.7773 10.7151L17.7938 10.7113L17.8101 10.7069L17.5522 9.74072ZM18.6769 10.2315L19.5453 9.7357L19.5451 9.73523L18.6769 10.2315ZM18.5038 11.4727L17.8277 10.7359L17.8149 10.7477L17.8025 10.7599L18.5038 11.4727ZM16.283 17.7657L17.2771 17.6572L17.2771 17.6569L16.283 17.7657ZM22.9157 24.4051L22.7997 25.3984L22.8052 25.399L22.9157 24.4051ZM20.7777 17.8668L21.5193 18.5377L23.031 16.8668H20.7777V17.8668ZM22.7695 17.0678L21.9051 17.5705L21.9127 17.5837L21.9208 17.5966L22.7695 17.0678ZM22.7052 17.6477L21.9834 16.9557L21.9734 16.9661L21.9637 16.9768L22.7052 17.6477ZM21.1311 19.3876L20.3896 18.7167L18.8779 20.3876H21.1311V19.3876ZM19.1394 20.1866L20.0038 19.6839L19.9961 19.6707L19.9881 19.6578L19.1394 20.1866ZM19.2036 19.6067L19.9255 20.2987L19.9355 20.2883L19.9452 20.2776L19.2036 19.6067ZM26.1718 15.641L25.43 14.9704L23.9198 16.641H26.1718V15.641ZM27.7393 13.9071L27.0172 13.2154L27.0072 13.2258L26.9975 13.2365L27.7393 13.9071ZM27.8031 13.3292L28.6517 12.8001L28.6357 12.7744L28.6182 12.7499L27.8031 13.3292ZM25.8038 14.1383L26.5456 14.8089L28.0557 13.1383H25.8038V14.1383ZM24.2365 15.8722L24.9586 16.564L24.9686 16.5535L24.9783 16.5428L24.2365 15.8722ZM24.1725 16.4502L25.0374 15.9483L25.0296 15.9348L25.0214 15.9216L24.1725 16.4502ZM27.8512 16.2062L26.8526 16.1543L26.8512 16.1802V16.2062H27.8512ZM39 20.7085C39 31.2019 30.4934 39.7085 20 39.7085V41.7085C31.598 41.7085 41 32.3065 41 20.7085H39ZM20 1.7085C30.4934 1.7085 39 10.2151 39 20.7085H41C41 9.11052 31.598 -0.291504 20 -0.291504V1.7085ZM1 20.7085C1 10.2151 9.50659 1.7085 20 1.7085V-0.291504C8.40202 -0.291504 -1 9.11052 -1 20.7085H1ZM20 39.7085C9.50659 39.7085 1 31.2019 1 20.7085H-1C-1 32.3065 8.40202 41.7085 20 41.7085V39.7085ZM30.9391 21.1412C30.1052 20.6641 29.1461 20.8768 28.5262 21.4456L29.8784 22.9192C29.9123 22.8881 29.9401 22.8804 29.9493 22.879C29.9534 22.8784 29.9536 22.879 29.9507 22.8785C29.9473 22.8779 29.9453 22.8767 29.9461 22.8772L30.9391 21.1412ZM31.9833 23.2812C32.0835 22.4334 31.7255 21.5913 30.9394 21.1413L29.9458 22.8771C29.9711 22.8915 29.9796 22.9042 29.9852 22.9161C29.992 22.9305 30.0061 22.9707 29.9971 23.0466L31.9833 23.2812ZM20.1476 32.7085C25.7416 32.7085 30.6426 28.8713 31.9624 23.3983L30.0181 22.9295C28.9155 27.5022 24.8197 30.7085 20.1476 30.7085V32.7085ZM19.7733 32.6915C19.8682 32.6983 20.0049 32.7085 20.1476 32.7085V30.7085C20.0883 30.7085 20.0229 30.7043 19.9159 30.6966L19.7733 32.6915ZM19.542 32.6796C19.6011 32.6796 19.6663 32.6839 19.7733 32.6915L19.9159 30.6966C19.821 30.6898 19.6844 30.6796 19.542 30.6796V32.6796ZM8.01758 21.1946C8.33217 27.3039 13.3527 32.3632 19.4907 32.6783L19.5933 30.6809C14.4846 30.4187 10.2771 26.1828 10.0149 21.0918L8.01758 21.1946ZM17.3271 8.76638C11.599 10.0896 7.70362 15.3491 8.0177 21.1968L10.0148 21.0895C9.75214 16.1988 13.0085 11.8167 17.7773 10.7151L17.3271 8.76638ZM19.5451 9.73523C19.1028 8.96148 18.192 8.53492 17.2943 8.77455L17.8101 10.7069C17.8046 10.7084 17.7989 10.7087 17.7944 10.7084C17.7903 10.708 17.7889 10.7072 17.7898 10.7076C17.7917 10.7084 17.8003 10.7131 17.8087 10.7277L19.5451 9.73523ZM19.1799 12.2095C19.9003 11.5485 19.9864 10.5083 19.5453 9.7357L17.8084 10.7272C17.8114 10.7325 17.8134 10.738 17.8144 10.7433C17.8155 10.7488 17.8153 10.7529 17.8151 10.7547C17.8149 10.7563 17.8149 10.7544 17.8171 10.75C17.8183 10.7477 17.8198 10.7452 17.8218 10.7425C17.8238 10.7398 17.8259 10.7376 17.8277 10.7359L19.1799 12.2095ZM17.2771 17.6569C17.0507 15.59 17.7536 13.6135 19.2051 12.1856L17.8025 10.7599C15.9089 12.6228 14.9969 15.2072 15.289 17.8746L17.2771 17.6569ZM23.0317 23.4119C20.0289 23.0612 17.6011 20.6234 17.2771 17.6572L15.289 17.8743C15.7154 21.7785 18.8815 24.9408 22.7997 25.3984L23.0317 23.4119ZM28.4887 21.4819C27.0633 22.934 25.0614 23.6376 23.0262 23.4113L22.8052 25.399C25.4422 25.6923 28.0544 24.7794 29.9159 22.8829L28.4887 21.4819ZM19.7658 18.8668H20.7777V16.8668H19.7658V18.8668ZM18.0751 17.3126C18.0751 18.3685 19.0448 18.8668 19.7658 18.8668V16.8668C19.7799 16.8668 19.8332 16.8708 19.9017 16.9257C19.9742 16.9839 20.0751 17.1167 20.0751 17.3126H18.0751ZM19.7658 15.7584C19.0448 15.7584 18.0751 16.2567 18.0751 17.3126H20.0751C20.0751 17.5086 19.9742 17.6413 19.9017 17.6995C19.8332 17.7545 19.7799 17.7584 19.7658 17.7584V15.7584ZM22.1431 15.7584H19.7658V17.7584H22.1431V15.7584ZM23.6339 16.565C23.2943 15.981 22.6648 15.7584 22.1431 15.7584V17.7584C22.141 17.7584 22.1169 17.7584 22.0762 17.7385C22.0353 17.7184 21.9627 17.6696 21.9051 17.5705L23.6339 16.565ZM23.4271 18.3398C23.9099 17.8361 23.9681 17.1003 23.6182 16.5389L21.9208 17.5966C21.863 17.5038 21.8325 17.3871 21.8446 17.2641C21.8571 17.1384 21.9117 17.0304 21.9834 16.9557L23.4271 18.3398ZM21.8727 20.0585L23.4468 18.3186L21.9637 16.9768L20.3896 18.7167L21.8727 20.0585ZM22.1431 18.3876H21.1311V20.3876H22.1431V18.3876ZM23.8337 19.9418C23.8337 18.8859 22.8641 18.3876 22.1431 18.3876V20.3876C22.1289 20.3876 22.0757 20.3836 22.0071 20.3287C21.9346 20.2705 21.8337 20.1377 21.8337 19.9418H23.8337ZM22.1431 21.496C22.8641 21.496 23.8337 20.9977 23.8337 19.9418H21.8337C21.8337 19.7458 21.9346 19.6131 22.0071 19.5549C22.0757 19.4999 22.1289 19.496 22.1431 19.496V21.496ZM19.7658 21.496H22.1431V19.496H19.7658V21.496ZM18.2749 20.6894C18.6146 21.2734 19.2441 21.496 19.7658 21.496V19.496C19.7679 19.496 19.792 19.496 19.8326 19.5159C19.8736 19.536 19.9462 19.5848 20.0038 19.6839L18.2749 20.6894ZM18.4818 18.9146C17.9989 19.4183 17.9408 20.1541 18.2907 20.7155L19.9881 19.6578C20.0459 19.7506 20.0764 19.8673 20.0642 19.9903C20.0518 20.116 19.9972 20.224 19.9255 20.2987L18.4818 18.9146ZM20.0362 17.1959L18.4621 18.9358L19.9452 20.2776L21.5193 18.5377L20.0362 17.1959ZM26.1718 16.641H27.1795V14.641H26.1718V16.641ZM26.9975 13.2365L25.43 14.9704L26.9136 16.3116L28.4811 14.5777L26.9975 13.2365ZM26.9546 13.8583C26.8965 13.7652 26.8659 13.6481 26.878 13.5248C26.8905 13.3988 26.9452 13.2905 27.0172 13.2154L28.4614 14.5989C28.9433 14.0958 29.0014 13.3609 28.6517 12.8001L26.9546 13.8583ZM27.1795 14.0209C27.1416 14.0209 27.1117 14.012 27.0881 14C27.0664 13.989 27.0276 13.9642 26.988 13.9085L28.6182 12.7499C28.2957 12.2961 27.7467 12.0209 27.1795 12.0209V14.0209ZM24.7963 14.0209H27.1795V12.0209H24.7963V14.0209ZM25.1085 13.586C25.1085 13.7771 25.0126 13.9031 24.9466 13.9578C24.8814 14.0118 24.8244 14.0209 24.7963 14.0209V12.0209C24.044 12.0209 23.1085 12.5581 23.1085 13.586H25.1085ZM24.7963 13.1383C24.8114 13.1383 24.8655 13.1426 24.9346 13.1981C25.0076 13.2567 25.1085 13.3899 25.1085 13.586H23.1085C23.1085 14.6402 24.0761 15.1383 24.7963 15.1383V13.1383ZM25.8038 13.1383H24.7963V15.1383H25.8038V13.1383ZM24.9783 16.5428L26.5456 14.8089L25.0619 13.4678L23.4946 15.2016L24.9783 16.5428ZM25.0214 15.9216C25.0793 16.0147 25.1098 16.1317 25.0977 16.2547C25.0852 16.3806 25.0306 16.4889 24.9586 16.564L23.5144 15.1805C23.0325 15.6835 22.9746 16.4182 23.3236 16.9788L25.0214 15.9216ZM24.7963 15.7584C24.7989 15.7584 24.8236 15.7586 24.8648 15.7788C24.9064 15.7992 24.9795 15.8486 25.0374 15.9483L23.3076 16.9521C23.6465 17.5362 24.2755 17.7584 24.7963 17.7584V15.7584ZM27.1633 15.7584H24.7963V17.7584H27.1633V15.7584ZM26.8512 16.2062C26.8512 16.01 26.9522 15.8768 27.0252 15.8181C27.0943 15.7627 27.1484 15.7584 27.1633 15.7584V17.7584C27.8835 17.7584 28.8512 17.2605 28.8512 16.2062H26.8512ZM27.1795 16.641C27.1529 16.641 27.0922 16.6328 27.021 16.5728C26.9468 16.5103 26.8416 16.3654 26.8526 16.1543L28.8499 16.258C28.9061 15.1745 27.9094 14.641 27.1795 14.641V16.641Z" fill="#C545A3" mask="url(#path-1-inside-1_1964_3626)"/>
</svg>
