<svg width="40" height="40" viewBox="0 0 40 40" fill="none" xmlns="http://www.w3.org/2000/svg">
<circle cx="20" cy="20" r="19.5" stroke="#C545A3"/>
<path fill-rule="evenodd" clip-rule="evenodd" d="M29.2023 21.4739C29.5483 21.1564 30.0389 21.0698 30.4426 21.3007C30.846 21.5316 31.0482 21.9646 30.9902 22.4554C29.7791 27.4782 25.2807 31 20.1476 31C20.0466 31 19.9456 30.9928 19.8446 30.9856C19.7436 30.9783 19.6427 30.9711 19.542 30.9711C13.9187 30.6825 9.30463 26.0349 9.01626 20.4347C8.72788 15.0654 12.3037 10.2446 17.5522 9.03222C17.9848 8.91675 18.4459 9.11882 18.6769 9.52296C18.9076 9.9271 18.8499 10.4467 18.5038 10.7642C16.8312 12.4097 16.0238 14.6902 16.283 17.0572C16.6582 20.4924 19.4552 23.2925 22.9157 23.6967C25.2518 23.9565 27.5588 23.1482 29.2023 21.4739ZM21.0261 17.5931H20.4846C20.2783 17.5931 20.115 17.4621 20.115 17.2965C20.115 17.131 20.2783 17 20.4846 17H21.7567C21.9028 17 22.0317 17.0621 22.0919 17.1655C22.152 17.2621 22.1434 17.3862 22.0575 17.4758L21.2152 18.4069H21.7567C21.9629 18.4069 22.1263 18.5379 22.1263 18.7034C22.1263 18.8689 21.9629 19 21.7567 19H20.4846C20.3384 19 20.2095 18.9379 20.1493 18.8345C20.0892 18.7379 20.0978 18.6138 20.1837 18.5241L21.0261 17.5931ZM21.4947 12.5931H22.0362L21.1939 13.5241C21.1079 13.6138 21.0993 13.7379 21.1595 13.8345C21.2197 13.9379 21.3486 14 21.4947 14H22.7668C22.9731 14 23.1364 13.869 23.1364 13.7034C23.1364 13.5379 22.9731 13.4069 22.7668 13.4069H22.2253L23.0676 12.4759C23.1536 12.3862 23.1622 12.2621 23.102 12.1655C23.0419 12.0621 22.9129 12 22.7668 12H21.4947C21.2884 12 21.1251 12.131 21.1251 12.2966C21.1251 12.4621 21.2884 12.5931 21.4947 12.5931ZM26.2223 16.6201H27.23C27.6137 16.6201 27.9177 16.877 27.9018 17.1852C27.9018 17.4935 27.5979 17.7375 27.2138 17.7375H24.8468C24.5747 17.7375 24.3348 17.6219 24.223 17.4292C24.111 17.2494 24.127 17.0183 24.287 16.8513L25.8543 15.1174H24.8468C24.4629 15.1174 24.159 14.8734 24.159 14.5651C24.159 14.2569 24.4629 14 24.8468 14H27.23C27.4859 14 27.7258 14.1284 27.8536 14.3082C27.9657 14.488 27.9497 14.7192 27.7898 14.8862L26.2223 16.6201ZM19.7382 15.402H19.199L20.0377 14.4742C20.1233 14.3849 20.1319 14.2611 20.0719 14.1649C20.0035 14.0687 19.8751 14 19.7382 14H18.4629C18.2575 14 18.0949 14.1374 18.0949 14.3024C18.0949 14.4673 18.2575 14.5979 18.4629 14.5979H19.002L18.1633 15.5258C18.0777 15.6151 18.0692 15.7388 18.1291 15.835C18.1889 15.9381 18.3173 16 18.4629 16H19.7295C19.935 16 20.0977 15.8694 20.0977 15.7044C20.1062 15.5395 19.9435 15.402 19.7382 15.402ZM24.8035 21.1031H25.6123C25.9203 21.1031 26.1644 21.3092 26.1516 21.5567C26.1516 21.8041 25.9076 22 25.5994 22H23.6994C23.481 22 23.2885 21.9072 23.1987 21.7525C23.1089 21.6082 23.1217 21.4226 23.2501 21.2886L24.5081 19.8969H23.6994C23.3913 19.8969 23.1474 19.701 23.1474 19.4536C23.1474 19.2061 23.3913 19 23.6994 19H25.6123C25.8178 19 26.0103 19.1031 26.1129 19.2474C26.2029 19.3917 26.1901 19.5773 26.0617 19.7113L24.8035 21.1031Z" fill="#C545A3"/>
</svg>
