<svg width="40" height="40" viewBox="0 0 40 40" fill="none" xmlns="http://www.w3.org/2000/svg">
<circle cx="20" cy="20" r="19.5" stroke="#C545A3"/>
<path fill-rule="evenodd" clip-rule="evenodd" d="M30.4426 21.3007C30.0389 21.0698 29.5483 21.1564 29.2023 21.4739C27.5588 23.1482 25.2518 23.9565 22.9157 23.6967C19.4552 23.2925 16.6582 20.4924 16.283 17.0572C16.0238 14.6902 16.8312 12.4097 18.5038 10.7642C18.8499 10.4467 18.9076 9.9271 18.6769 9.52296C18.4459 9.11882 17.9848 8.91675 17.5522 9.03222C12.3037 10.2446 8.72788 15.0654 9.01626 20.4347C9.30463 26.0349 13.9187 30.6825 19.542 30.9711C19.6427 30.9711 19.7436 30.9783 19.8446 30.9856C19.9456 30.9928 20.0466 31 20.1476 31C25.2807 31 29.7791 27.4782 30.9902 22.4554C31.0482 21.9646 30.846 21.5316 30.4426 21.3007ZM19.7658 17.1583H20.7777L19.2036 18.8982C19.043 19.0657 19.0269 19.2977 19.1394 19.4781C19.2518 19.6715 19.4927 19.7875 19.7658 19.7875H22.1431C22.5286 19.7875 22.8337 19.5426 22.8337 19.2333C22.8337 18.924 22.5286 18.6791 22.1431 18.6791H21.1311L22.7052 16.9392C22.8659 16.7717 22.8819 16.5397 22.7695 16.3593C22.6571 16.1659 22.4161 16.0499 22.1431 16.0499H19.7658C19.3803 16.0499 19.0751 16.2948 19.0751 16.6041C19.0751 16.9134 19.3803 17.1583 19.7658 17.1583ZM26.1718 14.9325H27.1795C27.5632 14.9325 27.8672 15.1894 27.8512 15.4977C27.8512 15.8059 27.5473 16.0499 27.1633 16.0499H24.7963C24.5242 16.0499 24.2843 15.9343 24.1725 15.7417C24.0605 15.5619 24.0765 15.3307 24.2365 15.1637L25.8038 13.4298H24.7963C24.4124 13.4298 24.1085 13.1858 24.1085 12.8775C24.1085 12.5693 24.4124 12.3124 24.7963 12.3124H27.1795C27.4354 12.3124 27.6753 12.4409 27.8031 12.6207C27.9152 12.8005 27.8992 13.0317 27.7393 13.1986L26.1718 14.9325Z" fill="#C545A3"/>
</svg>
