<svg width="40" height="41" viewBox="0 0 40 41" fill="none" xmlns="http://www.w3.org/2000/svg">
<mask id="path-1-inside-1_1964_3646" fill="white">
<path fill-rule="evenodd" clip-rule="evenodd" d="M20 40.7085C31.0457 40.7085 40 31.7542 40 20.7085C40 9.6628 31.0457 0.708496 20 0.708496C8.9543 0.708496 0 9.6628 0 20.7085C0 31.7542 8.9543 40.7085 20 40.7085ZM30.4426 22.0092C30.0389 21.7783 29.5483 21.8649 29.2023 22.1824C27.5588 23.8567 25.2518 24.665 22.9157 24.4051C19.4552 24.001 16.6582 21.2009 16.283 17.7657C16.0238 15.3986 16.8312 13.1182 18.5038 11.4727C18.8499 11.1552 18.9076 10.6356 18.6769 10.2315C18.4459 9.82732 17.9848 9.62525 17.5522 9.74072C12.3037 10.9531 8.72788 15.7739 9.01626 21.1432C9.30463 26.7434 13.9187 31.391 19.542 31.6796C19.6427 31.6796 19.7436 31.6868 19.8446 31.6941C19.9456 31.7013 20.0466 31.7085 20.1476 31.7085C25.2807 31.7085 29.7791 28.1867 30.9902 23.1639C31.0482 22.6731 30.846 22.2401 30.4426 22.0092ZM18.4645 16.3016H19.006L18.1636 17.2326C18.0777 17.3223 18.0691 17.4464 18.1293 17.543C18.1894 17.6464 18.3184 17.7085 18.4645 17.7085H19.7366C19.9429 17.7085 20.1062 17.5775 20.1062 17.4119C20.1062 17.2464 19.9429 17.1154 19.7366 17.1154H19.1951L20.0374 16.1844C20.1234 16.0947 20.132 15.9706 20.0718 15.874C20.0116 15.7706 19.8827 15.7085 19.7366 15.7085H18.4645C18.2582 15.7085 18.0949 15.8395 18.0949 16.005C18.0949 16.1706 18.2582 16.3016 18.4645 16.3016ZM25.2123 16.3286H26.2199C26.6037 16.3286 26.9077 16.5854 26.8917 16.8937C26.8917 17.2019 26.5878 17.446 26.2038 17.446H23.8368C23.5647 17.446 23.3248 17.3304 23.213 17.1377C23.101 16.9579 23.117 16.7267 23.2769 16.5598L24.8443 14.8259H23.8368C23.4529 14.8259 23.149 14.5818 23.149 14.2736C23.149 13.9653 23.4529 13.7085 23.8368 13.7085H26.2199C26.4759 13.7085 26.7158 13.8369 26.8436 14.0167C26.9557 14.1965 26.9397 14.4277 26.7798 14.5947L25.2123 16.3286ZM25.6123 21.8116H24.8035L26.0617 20.4198C26.1901 20.2858 26.2029 20.1002 26.1129 19.9559C26.0103 19.8116 25.8178 19.7085 25.6123 19.7085H23.6994C23.3913 19.7085 23.1474 19.9146 23.1474 20.1621C23.1474 20.4095 23.3913 20.6054 23.6994 20.6054H24.5081L23.2501 21.9971C23.1217 22.1311 23.1089 22.3167 23.1987 22.461C23.2885 22.6157 23.481 22.7085 23.6994 22.7085H25.5994C25.9076 22.7085 26.1516 22.5126 26.1516 22.2652C26.1644 22.0177 25.9203 21.8116 25.6123 21.8116Z"/>
</mask>
<path fill-rule="evenodd" clip-rule="evenodd" d="M20 40.7085C31.0457 40.7085 40 31.7542 40 20.7085C40 9.6628 31.0457 0.708496 20 0.708496C8.9543 0.708496 0 9.6628 0 20.7085C0 31.7542 8.9543 40.7085 20 40.7085ZM30.4426 22.0092C30.0389 21.7783 29.5483 21.8649 29.2023 22.1824C27.5588 23.8567 25.2518 24.665 22.9157 24.4051C19.4552 24.001 16.6582 21.2009 16.283 17.7657C16.0238 15.3986 16.8312 13.1182 18.5038 11.4727C18.8499 11.1552 18.9076 10.6356 18.6769 10.2315C18.4459 9.82732 17.9848 9.62525 17.5522 9.74072C12.3037 10.9531 8.72788 15.7739 9.01626 21.1432C9.30463 26.7434 13.9187 31.391 19.542 31.6796C19.6427 31.6796 19.7436 31.6868 19.8446 31.6941C19.9456 31.7013 20.0466 31.7085 20.1476 31.7085C25.2807 31.7085 29.7791 28.1867 30.9902 23.1639C31.0482 22.6731 30.846 22.2401 30.4426 22.0092ZM18.4645 16.3016H19.006L18.1636 17.2326C18.0777 17.3223 18.0691 17.4464 18.1293 17.543C18.1894 17.6464 18.3184 17.7085 18.4645 17.7085H19.7366C19.9429 17.7085 20.1062 17.5775 20.1062 17.4119C20.1062 17.2464 19.9429 17.1154 19.7366 17.1154H19.1951L20.0374 16.1844C20.1234 16.0947 20.132 15.9706 20.0718 15.874C20.0116 15.7706 19.8827 15.7085 19.7366 15.7085H18.4645C18.2582 15.7085 18.0949 15.8395 18.0949 16.005C18.0949 16.1706 18.2582 16.3016 18.4645 16.3016ZM25.2123 16.3286H26.2199C26.6037 16.3286 26.9077 16.5854 26.8917 16.8937C26.8917 17.2019 26.5878 17.446 26.2038 17.446H23.8368C23.5647 17.446 23.3248 17.3304 23.213 17.1377C23.101 16.9579 23.117 16.7267 23.2769 16.5598L24.8443 14.8259H23.8368C23.4529 14.8259 23.149 14.5818 23.149 14.2736C23.149 13.9653 23.4529 13.7085 23.8368 13.7085H26.2199C26.4759 13.7085 26.7158 13.8369 26.8436 14.0167C26.9557 14.1965 26.9397 14.4277 26.7798 14.5947L25.2123 16.3286ZM25.6123 21.8116H24.8035L26.0617 20.4198C26.1901 20.2858 26.2029 20.1002 26.1129 19.9559C26.0103 19.8116 25.8178 19.7085 25.6123 19.7085H23.6994C23.3913 19.7085 23.1474 19.9146 23.1474 20.1621C23.1474 20.4095 23.3913 20.6054 23.6994 20.6054H24.5081L23.2501 21.9971C23.1217 22.1311 23.1089 22.3167 23.1987 22.461C23.2885 22.6157 23.481 22.7085 23.6994 22.7085H25.5994C25.9076 22.7085 26.1516 22.5126 26.1516 22.2652C26.1644 22.0177 25.9203 21.8116 25.6123 21.8116Z" fill="#C545A3"/>
<path d="M29.2023 22.1824L28.5262 21.4456L28.507 21.4632L28.4887 21.4819L29.2023 22.1824ZM30.4426 22.0092L30.9394 21.1413L30.9391 21.1412L30.4426 22.0092ZM22.9157 24.4051L22.7997 25.3984L22.8052 25.399L22.9157 24.4051ZM16.283 17.7657L17.2771 17.6572L17.2771 17.6569L16.283 17.7657ZM18.5038 11.4727L17.8277 10.7359L17.8149 10.7477L17.8025 10.7599L18.5038 11.4727ZM18.6769 10.2315L19.5453 9.7357L19.5451 9.73523L18.6769 10.2315ZM17.5522 9.74072L17.7773 10.7151L17.7938 10.7113L17.8101 10.7069L17.5522 9.74072ZM9.01626 21.1432L10.0149 21.0918L10.0148 21.0895L9.01626 21.1432ZM19.542 31.6796L19.4907 32.6783L19.5163 32.6796H19.542V31.6796ZM19.8446 31.6941L19.7733 32.6915L19.7733 32.6915L19.8446 31.6941ZM30.9902 23.1639L31.9624 23.3983L31.9763 23.3404L31.9833 23.2812L30.9902 23.1639ZM19.006 16.3016L19.7475 16.9725L21.2592 15.3016H19.006V16.3016ZM18.1636 17.2326L18.8855 17.9247L18.8955 17.9143L18.9052 17.9035L18.1636 17.2326ZM18.1293 17.543L18.9937 17.0402L18.986 17.027L18.978 17.0141L18.1293 17.543ZM19.1951 17.1154L18.4535 16.4445L16.9418 18.1154H19.1951V17.1154ZM20.0374 16.1844L19.3156 15.4923L19.3056 15.5027L19.2959 15.5135L20.0374 16.1844ZM20.0718 15.874L19.2074 16.3768L19.215 16.3899L19.2231 16.4029L20.0718 15.874ZM25.2123 16.3286L24.4705 15.658L22.9602 17.3286H25.2123V16.3286ZM26.8917 16.8937L25.8931 16.8419L25.8917 16.8678V16.8937H26.8917ZM23.213 17.1377L24.0779 16.6358L24.0701 16.6224L24.0619 16.6092L23.213 17.1377ZM23.2769 16.5598L23.9991 17.2515L24.0091 17.2411L24.0188 17.2303L23.2769 16.5598ZM24.8443 14.8259L25.5861 15.4964L27.0962 13.8259H24.8443V14.8259ZM26.8436 14.0167L27.6921 13.4876L27.6762 13.462L27.6587 13.4374L26.8436 14.0167ZM26.7798 14.5947L26.0576 13.9029L26.0476 13.9133L26.0379 13.9241L26.7798 14.5947ZM24.8035 21.8116L24.0617 21.1409L22.5515 22.8116H24.8035V21.8116ZM26.0617 20.4198L25.3396 19.728L25.3296 19.7385L25.3199 19.7492L26.0617 20.4198ZM26.1129 19.9559L26.9615 19.4268L26.9455 19.4012L26.928 19.3766L26.1129 19.9559ZM24.5081 20.6054L25.25 21.2759L26.76 19.6054H24.5081V20.6054ZM23.2501 21.9971L23.9722 22.6889L23.9822 22.6784L23.9919 22.6677L23.2501 21.9971ZM23.1987 22.461L24.0636 21.9591L24.0558 21.9457L24.0476 21.9325L23.1987 22.461ZM26.1516 22.2652L25.1529 22.2133L25.1516 22.2392V22.2652H26.1516ZM39 20.7085C39 31.2019 30.4934 39.7085 20 39.7085V41.7085C31.598 41.7085 41 32.3065 41 20.7085H39ZM20 1.7085C30.4934 1.7085 39 10.2151 39 20.7085H41C41 9.11052 31.598 -0.291504 20 -0.291504V1.7085ZM1 20.7085C1 10.2151 9.50659 1.7085 20 1.7085V-0.291504C8.40202 -0.291504 -1 9.11052 -1 20.7085H1ZM20 39.7085C9.50659 39.7085 1 31.2019 1 20.7085H-1C-1 32.3065 8.40202 41.7085 20 41.7085V39.7085ZM29.8784 22.9192C29.9123 22.8881 29.9401 22.8804 29.9493 22.879C29.9534 22.8784 29.9536 22.879 29.9507 22.8785C29.9473 22.8779 29.9453 22.8767 29.9461 22.8772L30.9391 21.1412C30.1052 20.6641 29.1461 20.8768 28.5262 21.4456L29.8784 22.9192ZM22.8052 25.399C25.4422 25.6923 28.0544 24.7794 29.9159 22.8829L28.4887 21.4819C27.0633 22.934 25.0614 23.6376 23.0262 23.4113L22.8052 25.399ZM15.289 17.8743C15.7154 21.7785 18.8815 24.9408 22.7997 25.3984L23.0317 23.4119C20.0289 23.0612 17.6011 20.6234 17.2771 17.6572L15.289 17.8743ZM17.8025 10.7599C15.9089 12.6228 14.9969 15.2072 15.289 17.8746L17.2771 17.6569C17.0507 15.59 17.7536 13.6135 19.2051 12.1856L17.8025 10.7599ZM17.8084 10.7272C17.8114 10.7325 17.8134 10.738 17.8144 10.7433C17.8155 10.7488 17.8153 10.7529 17.8151 10.7547C17.8149 10.7563 17.8149 10.7544 17.8171 10.75C17.8183 10.7477 17.8198 10.7452 17.8218 10.7425C17.8238 10.7398 17.8259 10.7376 17.8277 10.7359L19.1799 12.2095C19.9003 11.5485 19.9864 10.5083 19.5453 9.7357L17.8084 10.7272ZM17.8101 10.7069C17.8046 10.7084 17.7989 10.7087 17.7944 10.7084C17.7903 10.708 17.7889 10.7072 17.7898 10.7076C17.7917 10.7084 17.8003 10.7131 17.8087 10.7277L19.5451 9.73523C19.1028 8.96148 18.192 8.53492 17.2943 8.77455L17.8101 10.7069ZM10.0148 21.0895C9.75214 16.1988 13.0085 11.8167 17.7773 10.7151L17.3271 8.76638C11.599 10.0896 7.70362 15.3491 8.0177 21.1968L10.0148 21.0895ZM19.5933 30.6809C14.4846 30.4187 10.2771 26.1828 10.0149 21.0918L8.01758 21.1946C8.33217 27.3039 13.3527 32.3632 19.4907 32.6783L19.5933 30.6809ZM19.9159 30.6966C19.821 30.6898 19.6844 30.6796 19.542 30.6796V32.6796C19.6011 32.6796 19.6663 32.6839 19.7733 32.6915L19.9159 30.6966ZM20.1476 30.7085C20.0883 30.7085 20.0229 30.7043 19.9159 30.6966L19.7733 32.6915C19.8682 32.6983 20.0049 32.7085 20.1476 32.7085V30.7085ZM30.0181 22.9295C28.9155 27.5022 24.8197 30.7085 20.1476 30.7085V32.7085C25.7416 32.7085 30.6426 28.8713 31.9624 23.3983L30.0181 22.9295ZM29.9458 22.8771C29.9711 22.8915 29.9796 22.9042 29.9852 22.9161C29.992 22.9305 30.0061 22.9707 29.9971 23.0466L31.9833 23.2812C32.0835 22.4334 31.7255 21.5913 30.9394 21.1413L29.9458 22.8771ZM19.006 15.3016H18.4645V17.3016H19.006V15.3016ZM18.9052 17.9035L19.7475 16.9725L18.2644 15.6307L17.4221 16.5617L18.9052 17.9035ZM18.978 17.0141C19.1552 17.2986 19.1218 17.6782 18.8855 17.9247L17.4418 16.5406C17.0336 16.9663 16.983 17.5943 17.2806 18.0719L18.978 17.0141ZM18.4645 16.7085C18.567 16.7085 18.8266 16.753 18.9937 17.0402L17.2648 18.0457C17.5522 18.5398 18.0697 18.7085 18.4645 18.7085V16.7085ZM19.7366 16.7085H18.4645V18.7085H19.7366V16.7085ZM19.1062 17.4119C19.1062 17.1441 19.2425 16.9469 19.3729 16.8423C19.4993 16.7409 19.6329 16.7085 19.7366 16.7085V18.7085C20.2784 18.7085 21.1062 18.324 21.1062 17.4119H19.1062ZM19.7366 18.1154C19.6329 18.1154 19.4993 18.083 19.3729 17.9816C19.2425 17.877 19.1062 17.6798 19.1062 17.4119H21.1062C21.1062 16.4998 20.2784 16.1154 19.7366 16.1154V18.1154ZM19.1951 18.1154H19.7366V16.1154H19.1951V18.1154ZM19.2959 15.5135L18.4535 16.4445L19.9366 17.7863L20.779 16.8553L19.2959 15.5135ZM19.2231 16.4029C19.0458 16.1184 19.0793 15.7387 19.3156 15.4923L20.7593 16.8764C21.1674 16.4507 21.2181 15.8227 20.9205 15.3451L19.2231 16.4029ZM19.7366 16.7085C19.634 16.7085 19.3744 16.664 19.2074 16.3768L20.9362 15.3713C20.6489 14.8772 20.1313 14.7085 19.7366 14.7085V16.7085ZM18.4645 16.7085H19.7366V14.7085H18.4645V16.7085ZM19.0949 16.005C19.0949 16.2729 18.9585 16.47 18.8281 16.5747C18.7018 16.6761 18.5682 16.7085 18.4645 16.7085V14.7085C17.9227 14.7085 17.0949 15.093 17.0949 16.005H19.0949ZM18.4645 15.3016C18.5682 15.3016 18.7018 15.334 18.8281 15.4354C18.9585 15.54 19.0949 15.7372 19.0949 16.005H17.0949C17.0949 16.9171 17.9227 17.3016 18.4645 17.3016V15.3016ZM26.2199 15.3286H25.2123V17.3286H26.2199V15.3286ZM27.8904 16.9455C27.9466 15.862 26.9499 15.3286 26.2199 15.3286V17.3286C26.1934 17.3286 26.1326 17.3203 26.0615 17.2604C25.9873 17.1979 25.8821 17.053 25.8931 16.8419L27.8904 16.9455ZM26.2038 18.446C26.924 18.446 27.8917 17.948 27.8917 16.8937H25.8917C25.8917 16.6975 25.9926 16.5643 26.0657 16.5057C26.1348 16.4502 26.1888 16.446 26.2038 16.446V18.446ZM23.8368 18.446H26.2038V16.446H23.8368V18.446ZM22.3481 17.6397C22.687 18.2237 23.316 18.446 23.8368 18.446V16.446C23.8394 16.446 23.8641 16.4461 23.9053 16.4664C23.9469 16.4868 24.02 16.5361 24.0779 16.6358L22.3481 17.6397ZM22.5548 15.868C22.0729 16.3711 22.015 17.1057 22.3641 17.6663L24.0619 16.6092C24.1198 16.7022 24.1503 16.8192 24.1381 16.9423C24.1257 17.0681 24.071 17.1764 23.9991 17.2515L22.5548 15.868ZM24.1024 14.1553L22.5351 15.8892L24.0188 17.2303L25.5861 15.4964L24.1024 14.1553ZM23.8368 15.8259H24.8443V13.8259H23.8368V15.8259ZM22.149 14.2736C22.149 15.3278 23.1166 15.8259 23.8368 15.8259V13.8259C23.8519 13.8259 23.906 13.8301 23.975 13.8856C24.0481 13.9442 24.149 14.0774 24.149 14.2736H22.149ZM23.8368 12.7085C23.0844 12.7085 22.149 13.2456 22.149 14.2736H24.149C24.149 14.4647 24.0531 14.5906 23.9871 14.6453C23.9219 14.6994 23.8649 14.7085 23.8368 14.7085V12.7085ZM26.2199 12.7085H23.8368V14.7085H26.2199V12.7085ZM27.6587 13.4374C27.3362 12.9836 26.7871 12.7085 26.2199 12.7085V14.7085C26.1821 14.7085 26.1522 14.6995 26.1285 14.6875C26.1069 14.6766 26.0681 14.6518 26.0285 14.596L27.6587 13.4374ZM27.5019 15.2864C27.9838 14.7834 28.0418 14.0484 27.6921 13.4876L25.995 14.5458C25.937 14.4527 25.9064 14.3356 25.9185 14.2123C25.9309 14.0864 25.9857 13.978 26.0576 13.9029L27.5019 15.2864ZM25.9541 16.9992L27.5216 15.2653L26.0379 13.9241L24.4705 15.658L25.9541 16.9992ZM24.8035 22.8116H25.6123V20.8116H24.8035V22.8116ZM25.3199 19.7492L24.0617 21.1409L25.5453 22.4822L26.8035 21.0904L25.3199 19.7492ZM25.2644 20.485C25.1168 20.2483 25.146 19.9301 25.3396 19.728L26.7838 21.1116C27.2342 20.6414 27.289 19.9521 26.9615 19.4268L25.2644 20.485ZM25.6123 20.7085C25.5492 20.7085 25.4949 20.6932 25.4499 20.6704C25.4069 20.6487 25.35 20.6087 25.2978 20.5352L26.928 19.3766C26.6307 18.9583 26.129 18.7085 25.6123 18.7085V20.7085ZM23.6994 20.7085H25.6123V18.7085H23.6994V20.7085ZM24.1474 20.1621C24.1474 20.3836 24.0364 20.5374 23.946 20.6124C23.8564 20.6867 23.7654 20.7085 23.6994 20.7085V18.7085C23.0228 18.7085 22.1474 19.1949 22.1474 20.1621H24.1474ZM23.6994 19.6054C23.7524 19.6054 23.8405 19.6217 23.934 19.6968C24.0315 19.7751 24.1474 19.9355 24.1474 20.1621H22.1474C22.1474 21.1554 23.055 21.6054 23.6994 21.6054V19.6054ZM24.5081 19.6054H23.6994V21.6054H24.5081V19.6054ZM23.9919 22.6677L25.25 21.2759L23.7663 19.9348L22.5082 21.3265L23.9919 22.6677ZM24.0476 21.9325C24.1948 22.1689 24.1658 22.4868 23.9722 22.6889L22.528 21.3054C22.0776 21.7755 22.0229 22.4645 22.3498 22.9896L24.0476 21.9325ZM23.6994 21.7085C23.7289 21.7085 23.7788 21.7143 23.8414 21.745C23.9043 21.7759 23.9947 21.8404 24.0636 21.9591L22.3338 22.963C22.6507 23.509 23.2324 23.7085 23.6994 23.7085V21.7085ZM25.5994 21.7085H23.6994V23.7085H25.5994V21.7085ZM25.1516 22.2652C25.1516 22.0386 25.2675 21.8781 25.365 21.7998C25.4585 21.7247 25.5465 21.7085 25.5994 21.7085V23.7085C26.2438 23.7085 27.1516 23.2586 27.1516 22.2652H25.1516ZM25.6123 22.8116C25.5479 22.8116 25.4532 22.7906 25.358 22.7104C25.2598 22.6276 25.1404 22.4548 25.1529 22.2133L27.1502 22.317C27.2033 21.2943 26.2666 20.8116 25.6123 20.8116V22.8116Z" fill="#C545A3" mask="url(#path-1-inside-1_1964_3646)"/>
</svg>
