<svg width="40" height="40" viewBox="0 0 40 40" fill="none" xmlns="http://www.w3.org/2000/svg">
<circle cx="20" cy="20" r="19.5" stroke="#C545A3"/>
<path fill-rule="evenodd" clip-rule="evenodd" d="M29.2023 21.4739C29.5483 21.1564 30.0389 21.0698 30.4426 21.3007C30.846 21.5316 31.0482 21.9646 30.9902 22.4554C29.7791 27.4782 25.2807 31 20.1476 31C20.0466 31 19.9456 30.9928 19.8446 30.9856C19.7436 30.9783 19.6427 30.9711 19.542 30.9711C13.9187 30.6825 9.30463 26.0349 9.01626 20.4347C8.72788 15.0654 12.3037 10.2446 17.5522 9.03222C17.9848 8.91675 18.4459 9.11882 18.6769 9.52296C18.9076 9.9271 18.8499 10.4467 18.5038 10.7642C16.8312 12.4097 16.0238 14.6902 16.283 17.0572C16.6582 20.4924 19.4552 23.2925 22.9157 23.6967C25.2518 23.9565 27.5588 23.1482 29.2023 21.4739ZM19.006 15.5931H18.4645C18.2582 15.5931 18.0949 15.4621 18.0949 15.2966C18.0949 15.131 18.2582 15 18.4645 15H19.7366C19.8827 15 20.0116 15.0621 20.0718 15.1655C20.132 15.2621 20.1234 15.3862 20.0374 15.4759L19.1951 16.4069H19.7366C19.9429 16.4069 20.1062 16.5379 20.1062 16.7034C20.1062 16.869 19.9429 17 19.7366 17H18.4645C18.3184 17 18.1894 16.9379 18.1293 16.8345C18.0691 16.7379 18.0777 16.6138 18.1636 16.5241L19.006 15.5931ZM26.2199 15.6201H25.2123L26.7798 13.8862C26.9397 13.7192 26.9557 13.488 26.8436 13.3082C26.7158 13.1284 26.4759 13 26.2199 13H23.8368C23.4529 13 23.149 13.2568 23.149 13.5651C23.149 13.8733 23.4529 14.1174 23.8368 14.1174H24.8443L23.2769 15.8513C23.117 16.0182 23.101 16.2494 23.213 16.4292C23.3248 16.6219 23.5647 16.7375 23.8368 16.7375H26.2038C26.5878 16.7375 26.8917 16.4934 26.8917 16.1852C26.9077 15.8769 26.6037 15.6201 26.2199 15.6201ZM24.8035 21.1031H25.6123C25.9203 21.1031 26.1644 21.3092 26.1516 21.5567C26.1516 21.8041 25.9076 22 25.5994 22H23.6994C23.481 22 23.2885 21.9072 23.1987 21.7525C23.1089 21.6082 23.1217 21.4226 23.2501 21.2886L24.5081 19.8969H23.6994C23.3913 19.8969 23.1474 19.701 23.1474 19.4536C23.1474 19.2061 23.3913 19 23.6994 19H25.6123C25.8178 19 26.0103 19.1031 26.1129 19.2474C26.2029 19.3917 26.1901 19.5773 26.0617 19.7113L24.8035 21.1031Z" fill="#C545A3"/>
</svg>
