<svg width="40" height="40" viewBox="0 0 40 40" fill="none" xmlns="http://www.w3.org/2000/svg">
<circle cx="20" cy="20" r="19.5" stroke="#C545A3"/>
<path fill-rule="evenodd" clip-rule="evenodd" d="M30.4426 21.3007C30.0389 21.0698 29.5483 21.1564 29.2023 21.4739C27.5588 23.1482 25.2518 23.9565 22.9157 23.6967C19.4552 23.2925 16.6582 20.4924 16.283 17.0572C16.0238 14.6902 16.8312 12.4097 18.5038 10.7642C18.8499 10.4467 18.9076 9.9271 18.6769 9.52296C18.4459 9.11882 17.9848 8.91675 17.5522 9.03222C12.3037 10.2446 8.72788 15.0654 9.01626 20.4347C9.30463 26.0349 13.9187 30.6825 19.542 30.9711C19.6427 30.9711 19.7436 30.9783 19.8446 30.9856C19.9456 30.9928 20.0466 31 20.1476 31C25.2807 31 29.7791 27.4782 30.9902 22.4554C31.0482 21.9646 30.846 21.5316 30.4426 21.3007ZM19.4408 18.3806H19.9823L19.1399 19.3116C19.054 19.4012 19.0454 19.5254 19.1056 19.6219C19.1657 19.7254 19.2946 19.7875 19.4408 19.7875H20.7129C20.9192 19.7875 21.0825 19.6564 21.0825 19.4909C21.0825 19.3254 20.9192 19.1943 20.7129 19.1943H20.1714L21.0137 18.2633C21.0997 18.1737 21.1082 18.0495 21.0481 17.953C20.9879 17.8495 20.859 17.7875 20.7129 17.7875H19.4408C19.2345 17.7875 19.0712 17.9185 19.0712 18.084C19.0712 18.2495 19.2345 18.3806 19.4408 18.3806ZM21.0261 14.5931H20.4846C20.2783 14.5931 20.115 14.4621 20.115 14.2965C20.115 14.131 20.2783 14 20.4846 14H21.7567C21.9028 14 22.0317 14.0621 22.0919 14.1655C22.152 14.2621 22.1434 14.3862 22.0575 14.4758L21.2152 15.4069H21.7567C21.9629 15.4069 22.1263 15.5379 22.1263 15.7034C22.1263 15.8689 21.9629 16 21.7567 16H20.4846C20.3384 16 20.2095 15.9379 20.1493 15.8345C20.0892 15.7379 20.0978 15.6138 20.1837 15.5241L21.0261 14.5931ZM27.1795 14.9325H26.1718L27.7393 13.1986C27.8992 13.0317 27.9152 12.8005 27.8031 12.6207C27.6753 12.4409 27.4354 12.3124 27.1795 12.3124H24.7963C24.4124 12.3124 24.1085 12.5693 24.1085 12.8775C24.1085 13.1858 24.4124 13.4298 24.7963 13.4298H25.8038L24.2365 15.1637C24.0765 15.3307 24.0605 15.5619 24.1725 15.7417C24.2843 15.9343 24.5242 16.0499 24.7963 16.0499H27.1633C27.5473 16.0499 27.8512 15.8059 27.8512 15.4977C27.8672 15.1894 27.5632 14.9325 27.1795 14.9325ZM24.8035 20.1031H25.6123C25.9203 20.1031 26.1644 20.3093 26.1516 20.5567C26.1516 20.8041 25.9076 21 25.5994 21H23.6994C23.481 21 23.2885 20.9072 23.1987 20.7526C23.1089 20.6082 23.1217 20.4227 23.2501 20.2887L24.5081 18.8969H23.6994C23.3913 18.8969 23.1474 18.701 23.1474 18.4536C23.1474 18.2062 23.3913 18 23.6994 18H25.6123C25.8178 18 26.0103 18.1031 26.1129 18.2474C26.2029 18.3918 26.1901 18.5773 26.0617 18.7113L24.8035 20.1031Z" fill="#C545A3"/>
</svg>
