<svg width="40" height="41" viewBox="0 0 40 41" fill="none" xmlns="http://www.w3.org/2000/svg">
<mask id="path-1-inside-1_1964_3635" fill="white">
<path fill-rule="evenodd" clip-rule="evenodd" d="M20 40.7085C31.0457 40.7085 40 31.7542 40 20.7085C40 9.6628 31.0457 0.708496 20 0.708496C8.9543 0.708496 0 9.6628 0 20.7085C0 31.7542 8.9543 40.7085 20 40.7085ZM29.2023 22.1824C29.5483 21.8649 30.0389 21.7783 30.4426 22.0092C30.846 22.2401 31.0482 22.6731 30.9902 23.1639C29.7791 28.1867 25.2807 31.7085 20.1476 31.7085C20.0466 31.7085 19.9456 31.7013 19.8446 31.6941C19.7436 31.6868 19.6427 31.6796 19.542 31.6796C13.9187 31.391 9.30463 26.7434 9.01626 21.1432C8.72788 15.7739 12.3037 10.9531 17.5522 9.74072C17.9848 9.62525 18.4459 9.82732 18.6769 10.2315C18.9076 10.6356 18.8499 11.1552 18.5038 11.4727C16.8312 13.1182 16.0238 15.3986 16.283 17.7657C16.6582 21.2009 19.4552 24.001 22.9157 24.4051C25.2518 24.665 27.5588 23.8567 29.2023 22.1824ZM19.9823 19.0891H19.4408C19.2345 19.0891 19.0712 18.958 19.0712 18.7925C19.0712 18.627 19.2345 18.4959 19.4408 18.4959H20.7129C20.859 18.4959 20.9879 18.558 21.0481 18.6615C21.1082 18.758 21.0997 18.8822 21.0137 18.9718L20.1714 19.9028H20.7129C20.9192 19.9028 21.0825 20.0339 21.0825 20.1994C21.0825 20.3649 20.9192 20.4959 20.7129 20.4959H19.4408C19.2946 20.4959 19.1657 20.4339 19.1056 20.3304C19.0454 20.2339 19.054 20.1097 19.1399 20.0201L19.9823 19.0891ZM20.4846 15.3016H21.0261L20.1837 16.2326C20.0978 16.3223 20.0892 16.4464 20.1493 16.543C20.2095 16.6464 20.3384 16.7085 20.4846 16.7085H21.7567C21.9629 16.7085 22.1263 16.5774 22.1263 16.4119C22.1263 16.2464 21.9629 16.1154 21.7567 16.1154H21.2152L22.0575 15.1843C22.1434 15.0947 22.152 14.9705 22.0919 14.874C22.0317 14.7705 21.9028 14.7085 21.7567 14.7085H20.4846C20.2783 14.7085 20.115 14.8395 20.115 15.005C20.115 15.1705 20.2783 15.3016 20.4846 15.3016ZM26.1718 15.641H27.1795C27.5632 15.641 27.8672 15.8979 27.8512 16.2062C27.8512 16.5144 27.5473 16.7584 27.1633 16.7584H24.7963C24.5242 16.7584 24.2843 16.6428 24.1725 16.4502C24.0605 16.2704 24.0765 16.0392 24.2365 15.8722L25.8038 14.1383H24.7963C24.4124 14.1383 24.1085 13.8943 24.1085 13.586C24.1085 13.2778 24.4124 13.0209 24.7963 13.0209H27.1795C27.4354 13.0209 27.6753 13.1494 27.8031 13.3292C27.9152 13.509 27.8992 13.7402 27.7393 13.9071L26.1718 15.641ZM25.6123 20.8116H24.8035L26.0617 19.4198C26.1901 19.2858 26.2029 19.1003 26.1129 18.9559C26.0103 18.8116 25.8178 18.7085 25.6123 18.7085H23.6994C23.3913 18.7085 23.1474 18.9147 23.1474 19.1621C23.1474 19.4095 23.3913 19.6054 23.6994 19.6054H24.5081L23.2501 20.9972C23.1217 21.1312 23.1089 21.3167 23.1987 21.4611C23.2885 21.6157 23.481 21.7085 23.6994 21.7085H25.5994C25.9076 21.7085 26.1516 21.5126 26.1516 21.2652C26.1644 21.0178 25.9203 20.8116 25.6123 20.8116Z"/>
</mask>
<path fill-rule="evenodd" clip-rule="evenodd" d="M20 40.7085C31.0457 40.7085 40 31.7542 40 20.7085C40 9.6628 31.0457 0.708496 20 0.708496C8.9543 0.708496 0 9.6628 0 20.7085C0 31.7542 8.9543 40.7085 20 40.7085ZM29.2023 22.1824C29.5483 21.8649 30.0389 21.7783 30.4426 22.0092C30.846 22.2401 31.0482 22.6731 30.9902 23.1639C29.7791 28.1867 25.2807 31.7085 20.1476 31.7085C20.0466 31.7085 19.9456 31.7013 19.8446 31.6941C19.7436 31.6868 19.6427 31.6796 19.542 31.6796C13.9187 31.391 9.30463 26.7434 9.01626 21.1432C8.72788 15.7739 12.3037 10.9531 17.5522 9.74072C17.9848 9.62525 18.4459 9.82732 18.6769 10.2315C18.9076 10.6356 18.8499 11.1552 18.5038 11.4727C16.8312 13.1182 16.0238 15.3986 16.283 17.7657C16.6582 21.2009 19.4552 24.001 22.9157 24.4051C25.2518 24.665 27.5588 23.8567 29.2023 22.1824ZM19.9823 19.0891H19.4408C19.2345 19.0891 19.0712 18.958 19.0712 18.7925C19.0712 18.627 19.2345 18.4959 19.4408 18.4959H20.7129C20.859 18.4959 20.9879 18.558 21.0481 18.6615C21.1082 18.758 21.0997 18.8822 21.0137 18.9718L20.1714 19.9028H20.7129C20.9192 19.9028 21.0825 20.0339 21.0825 20.1994C21.0825 20.3649 20.9192 20.4959 20.7129 20.4959H19.4408C19.2946 20.4959 19.1657 20.4339 19.1056 20.3304C19.0454 20.2339 19.054 20.1097 19.1399 20.0201L19.9823 19.0891ZM20.4846 15.3016H21.0261L20.1837 16.2326C20.0978 16.3223 20.0892 16.4464 20.1493 16.543C20.2095 16.6464 20.3384 16.7085 20.4846 16.7085H21.7567C21.9629 16.7085 22.1263 16.5774 22.1263 16.4119C22.1263 16.2464 21.9629 16.1154 21.7567 16.1154H21.2152L22.0575 15.1843C22.1434 15.0947 22.152 14.9705 22.0919 14.874C22.0317 14.7705 21.9028 14.7085 21.7567 14.7085H20.4846C20.2783 14.7085 20.115 14.8395 20.115 15.005C20.115 15.1705 20.2783 15.3016 20.4846 15.3016ZM26.1718 15.641H27.1795C27.5632 15.641 27.8672 15.8979 27.8512 16.2062C27.8512 16.5144 27.5473 16.7584 27.1633 16.7584H24.7963C24.5242 16.7584 24.2843 16.6428 24.1725 16.4502C24.0605 16.2704 24.0765 16.0392 24.2365 15.8722L25.8038 14.1383H24.7963C24.4124 14.1383 24.1085 13.8943 24.1085 13.586C24.1085 13.2778 24.4124 13.0209 24.7963 13.0209H27.1795C27.4354 13.0209 27.6753 13.1494 27.8031 13.3292C27.9152 13.509 27.8992 13.7402 27.7393 13.9071L26.1718 15.641ZM25.6123 20.8116H24.8035L26.0617 19.4198C26.1901 19.2858 26.2029 19.1003 26.1129 18.9559C26.0103 18.8116 25.8178 18.7085 25.6123 18.7085H23.6994C23.3913 18.7085 23.1474 18.9147 23.1474 19.1621C23.1474 19.4095 23.3913 19.6054 23.6994 19.6054H24.5081L23.2501 20.9972C23.1217 21.1312 23.1089 21.3167 23.1987 21.4611C23.2885 21.6157 23.481 21.7085 23.6994 21.7085H25.5994C25.9076 21.7085 26.1516 21.5126 26.1516 21.2652C26.1644 21.0178 25.9203 20.8116 25.6123 20.8116Z" fill="#C545A3"/>
<path d="M30.4426 22.0092L30.9394 21.1413L30.9391 21.1412L30.4426 22.0092ZM29.2023 22.1824L28.5262 21.4456L28.507 21.4632L28.4887 21.4819L29.2023 22.1824ZM30.9902 23.1639L31.9624 23.3983L31.9763 23.3404L31.9833 23.2812L30.9902 23.1639ZM19.8446 31.6941L19.7733 32.6915L19.7733 32.6915L19.8446 31.6941ZM19.542 31.6796L19.4907 32.6783L19.5163 32.6796H19.542V31.6796ZM9.01626 21.1432L10.0149 21.0918L10.0148 21.0895L9.01626 21.1432ZM17.5522 9.74072L17.7773 10.7151L17.7938 10.7113L17.8101 10.7069L17.5522 9.74072ZM18.6769 10.2315L19.5453 9.7357L19.5451 9.73523L18.6769 10.2315ZM18.5038 11.4727L17.8277 10.7359L17.8149 10.7477L17.8025 10.7599L18.5038 11.4727ZM16.283 17.7657L17.2771 17.6572L17.2771 17.6569L16.283 17.7657ZM22.9157 24.4051L22.7997 25.3984L22.8052 25.399L22.9157 24.4051ZM19.9823 19.0891L20.7238 19.76L22.2355 18.0891H19.9823V19.0891ZM21.0481 18.6615L20.1837 19.1642L20.1913 19.1774L20.1994 19.1903L21.0481 18.6615ZM21.0137 18.9718L20.2918 18.2798L20.2818 18.2902L20.2722 18.3009L21.0137 18.9718ZM20.1714 19.9028L19.4298 19.2319L17.9181 20.9028H20.1714V19.9028ZM19.1056 20.3304L19.97 19.8277L19.9623 19.8145L19.9543 19.8016L19.1056 20.3304ZM19.1399 20.0201L19.8618 20.7121L19.8718 20.7017L19.8815 20.691L19.1399 20.0201ZM21.0261 15.3016L21.7676 15.9725L23.2793 14.3016H21.0261V15.3016ZM20.1837 16.2326L20.9056 16.9247L20.9156 16.9142L20.9253 16.9035L20.1837 16.2326ZM20.1493 16.543L21.0138 16.0402L21.0061 16.027L20.998 16.0141L20.1493 16.543ZM21.2152 16.1154L20.4736 15.4445L18.9619 17.1154H21.2152V16.1154ZM22.0575 15.1843L21.3356 14.4923L21.3256 14.5027L21.3159 14.5134L22.0575 15.1843ZM22.0919 14.874L21.2274 15.3767L21.2351 15.3899L21.2432 15.4029L22.0919 14.874ZM26.1718 15.641L25.43 14.9704L23.9198 16.641H26.1718V15.641ZM27.8512 16.2062L26.8526 16.1543L26.8512 16.1802V16.2062H27.8512ZM24.1725 16.4502L25.0374 15.9483L25.0296 15.9348L25.0214 15.9216L24.1725 16.4502ZM24.2365 15.8722L24.9586 16.564L24.9686 16.5535L24.9783 16.5428L24.2365 15.8722ZM25.8038 14.1383L26.5456 14.8089L28.0557 13.1383H25.8038V14.1383ZM27.8031 13.3292L28.6517 12.8001L28.6357 12.7744L28.6182 12.7499L27.8031 13.3292ZM27.7393 13.9071L27.0172 13.2154L27.0072 13.2258L26.9975 13.2365L27.7393 13.9071ZM24.8035 20.8116L24.0617 20.141L22.5515 21.8116H24.8035V20.8116ZM26.0617 19.4198L25.3396 18.7281L25.3296 18.7385L25.3199 18.7492L26.0617 19.4198ZM26.1129 18.9559L26.9615 18.4268L26.9455 18.4012L26.928 18.3766L26.1129 18.9559ZM24.5081 19.6054L25.25 20.276L26.76 18.6054H24.5081V19.6054ZM23.2501 20.9972L23.9722 21.6889L23.9822 21.6785L23.9919 21.6677L23.2501 20.9972ZM23.1987 21.4611L24.0636 20.9592L24.0558 20.9457L24.0476 20.9325L23.1987 21.4611ZM26.1516 21.2652L25.1529 21.2134L25.1516 21.2393V21.2652H26.1516ZM39 20.7085C39 31.2019 30.4934 39.7085 20 39.7085V41.7085C31.598 41.7085 41 32.3065 41 20.7085H39ZM20 1.7085C30.4934 1.7085 39 10.2151 39 20.7085H41C41 9.11052 31.598 -0.291504 20 -0.291504V1.7085ZM1 20.7085C1 10.2151 9.50659 1.7085 20 1.7085V-0.291504C8.40202 -0.291504 -1 9.11052 -1 20.7085H1ZM20 39.7085C9.50659 39.7085 1 31.2019 1 20.7085H-1C-1 32.3065 8.40202 41.7085 20 41.7085V39.7085ZM30.9391 21.1412C30.1052 20.6641 29.1461 20.8768 28.5262 21.4456L29.8784 22.9192C29.9123 22.8881 29.9401 22.8804 29.9493 22.879C29.9534 22.8784 29.9536 22.879 29.9507 22.8785C29.9473 22.8779 29.9453 22.8767 29.9461 22.8772L30.9391 21.1412ZM31.9833 23.2812C32.0835 22.4334 31.7255 21.5913 30.9394 21.1413L29.9458 22.8771C29.9711 22.8915 29.9796 22.9042 29.9852 22.9161C29.992 22.9305 30.0061 22.9707 29.9971 23.0466L31.9833 23.2812ZM20.1476 32.7085C25.7416 32.7085 30.6426 28.8713 31.9624 23.3983L30.0181 22.9295C28.9155 27.5022 24.8197 30.7085 20.1476 30.7085V32.7085ZM19.7733 32.6915C19.8682 32.6983 20.0049 32.7085 20.1476 32.7085V30.7085C20.0883 30.7085 20.0229 30.7043 19.9159 30.6966L19.7733 32.6915ZM19.542 32.6796C19.6011 32.6796 19.6663 32.6839 19.7733 32.6915L19.9159 30.6966C19.821 30.6898 19.6844 30.6796 19.542 30.6796V32.6796ZM8.01758 21.1946C8.33217 27.3039 13.3527 32.3632 19.4907 32.6783L19.5933 30.6809C14.4846 30.4187 10.2771 26.1828 10.0149 21.0918L8.01758 21.1946ZM17.3271 8.76638C11.599 10.0896 7.70362 15.3491 8.0177 21.1968L10.0148 21.0895C9.75214 16.1988 13.0085 11.8167 17.7773 10.7151L17.3271 8.76638ZM19.5451 9.73523C19.1028 8.96148 18.192 8.53492 17.2943 8.77455L17.8101 10.7069C17.8046 10.7084 17.7989 10.7087 17.7944 10.7084C17.7903 10.708 17.7889 10.7072 17.7898 10.7076C17.7917 10.7084 17.8003 10.7131 17.8087 10.7277L19.5451 9.73523ZM19.1799 12.2095C19.9003 11.5485 19.9864 10.5083 19.5453 9.7357L17.8084 10.7272C17.8114 10.7325 17.8134 10.738 17.8144 10.7433C17.8155 10.7488 17.8153 10.7529 17.8151 10.7547C17.8149 10.7563 17.8149 10.7544 17.8171 10.75C17.8183 10.7477 17.8198 10.7452 17.8218 10.7425C17.8238 10.7398 17.8259 10.7376 17.8277 10.7359L19.1799 12.2095ZM17.2771 17.6569C17.0507 15.59 17.7536 13.6135 19.2051 12.1856L17.8025 10.7599C15.9089 12.6228 14.9969 15.2072 15.289 17.8746L17.2771 17.6569ZM23.0317 23.4119C20.0289 23.0612 17.6011 20.6234 17.2771 17.6572L15.289 17.8743C15.7154 21.7785 18.8815 24.9408 22.7997 25.3984L23.0317 23.4119ZM28.4887 21.4819C27.0633 22.934 25.0614 23.6376 23.0262 23.4113L22.8052 25.399C25.4422 25.6923 28.0544 24.7794 29.9159 22.8829L28.4887 21.4819ZM19.4408 20.0891H19.9823V18.0891H19.4408V20.0891ZM18.0712 18.7925C18.0712 19.7046 18.899 20.0891 19.4408 20.0891V18.0891C19.5445 18.0891 19.678 18.1215 19.8044 18.2229C19.9348 18.3275 20.0712 18.5247 20.0712 18.7925H18.0712ZM19.4408 17.4959C18.899 17.4959 18.0712 17.8804 18.0712 18.7925H20.0712C20.0712 19.0603 19.9348 19.2575 19.8044 19.3621C19.678 19.4635 19.5445 19.4959 19.4408 19.4959V17.4959ZM20.7129 17.4959H19.4408V19.4959H20.7129V17.4959ZM21.9125 18.1587C21.6251 17.6646 21.1076 17.4959 20.7129 17.4959V19.4959C20.6103 19.4959 20.3507 19.4514 20.1837 19.1642L21.9125 18.1587ZM21.7356 19.6639C22.1437 19.2381 22.1944 18.6102 21.8968 18.1326L20.1994 19.1903C20.0221 18.9059 20.0556 18.5262 20.2918 18.2798L21.7356 19.6639ZM20.9129 20.5737L21.7552 19.6427L20.2722 18.3009L19.4298 19.2319L20.9129 20.5737ZM20.7129 18.9028H20.1714V20.9028H20.7129V18.9028ZM22.0825 20.1994C22.0825 19.2873 21.2547 18.9028 20.7129 18.9028V20.9028C20.6092 20.9028 20.4756 20.8704 20.3492 20.769C20.2188 20.6644 20.0825 20.4672 20.0825 20.1994H22.0825ZM20.7129 21.4959C21.2547 21.4959 22.0825 21.1115 22.0825 20.1994H20.0825C20.0825 19.9316 20.2188 19.7344 20.3492 19.6298C20.4756 19.5284 20.6092 19.4959 20.7129 19.4959V21.4959ZM19.4408 21.4959H20.7129V19.4959H19.4408V21.4959ZM18.2411 20.8332C18.5285 21.3273 19.046 21.4959 19.4408 21.4959V19.4959C19.5433 19.4959 19.8029 19.5405 19.97 19.8277L18.2411 20.8332ZM18.4181 19.328C18.0099 19.7538 17.9593 20.3817 18.2568 20.8593L19.9543 19.8016C20.1315 20.086 20.0981 20.4657 19.8618 20.7121L18.4181 19.328ZM19.2407 18.4182L18.3984 19.3492L19.8815 20.691L20.7238 19.76L19.2407 18.4182ZM21.0261 14.3016H20.4846V16.3016H21.0261V14.3016ZM20.9253 16.9035L21.7676 15.9725L20.2845 14.6307L19.4422 15.5617L20.9253 16.9035ZM20.998 16.0141C21.1753 16.2985 21.1418 16.6782 20.9056 16.9247L19.4619 15.5406C19.0537 15.9663 19.003 16.5943 19.3006 17.0718L20.998 16.0141ZM20.4846 15.7085C20.5871 15.7085 20.8467 15.753 21.0138 16.0402L19.2849 17.0457C19.5723 17.5398 20.0898 17.7085 20.4846 17.7085V15.7085ZM21.7567 15.7085H20.4846V17.7085H21.7567V15.7085ZM21.1263 16.4119C21.1263 16.1441 21.2626 15.9469 21.393 15.8423C21.5194 15.7409 21.6529 15.7085 21.7567 15.7085V17.7085C22.2985 17.7085 23.1263 17.324 23.1263 16.4119H21.1263ZM21.7567 17.1154C21.6529 17.1154 21.5194 17.083 21.393 16.9815C21.2626 16.8769 21.1263 16.6798 21.1263 16.4119H23.1263C23.1263 15.4998 22.2985 15.1154 21.7567 15.1154V17.1154ZM21.2152 17.1154H21.7567V15.1154H21.2152V17.1154ZM21.3159 14.5134L20.4736 15.4445L21.9567 16.7863L22.799 15.8552L21.3159 14.5134ZM21.2432 15.4029C21.0659 15.1184 21.0994 14.7387 21.3356 14.4923L22.7793 15.8764C23.1875 15.4506 23.2382 14.8227 22.9406 14.3451L21.2432 15.4029ZM21.7567 15.7085C21.6541 15.7085 21.3945 15.6639 21.2274 15.3767L22.9563 14.3712C22.6689 13.8771 22.1514 13.7085 21.7567 13.7085V15.7085ZM20.4846 15.7085H21.7567V13.7085H20.4846V15.7085ZM21.115 15.005C21.115 15.2729 20.9786 15.47 20.8482 15.5747C20.7218 15.6761 20.5883 15.7085 20.4846 15.7085V13.7085C19.9428 13.7085 19.115 14.0929 19.115 15.005H21.115ZM20.4846 14.3016C20.5883 14.3016 20.7218 14.334 20.8482 14.4354C20.9786 14.54 21.115 14.7372 21.115 15.005H19.115C19.115 15.9171 19.9428 16.3016 20.4846 16.3016V14.3016ZM27.1795 14.641H26.1718V16.641H27.1795V14.641ZM28.8499 16.258C28.9061 15.1745 27.9094 14.641 27.1795 14.641V16.641C27.1529 16.641 27.0922 16.6328 27.021 16.5728C26.9468 16.5103 26.8416 16.3654 26.8526 16.1543L28.8499 16.258ZM27.1633 17.7584C27.8835 17.7584 28.8512 17.2605 28.8512 16.2062H26.8512C26.8512 16.01 26.9522 15.8768 27.0252 15.8181C27.0943 15.7627 27.1484 15.7584 27.1633 15.7584V17.7584ZM24.7963 17.7584H27.1633V15.7584H24.7963V17.7584ZM23.3076 16.9521C23.6465 17.5362 24.2755 17.7584 24.7963 17.7584V15.7584C24.7989 15.7584 24.8236 15.7586 24.8648 15.7788C24.9064 15.7992 24.9795 15.8486 25.0374 15.9483L23.3076 16.9521ZM23.5144 15.1805C23.0325 15.6835 22.9746 16.4182 23.3236 16.9788L25.0214 15.9216C25.0793 16.0147 25.1098 16.1317 25.0977 16.2547C25.0852 16.3806 25.0306 16.4889 24.9586 16.564L23.5144 15.1805ZM25.0619 13.4678L23.4946 15.2016L24.9783 16.5428L26.5456 14.8089L25.0619 13.4678ZM24.7963 15.1383H25.8038V13.1383H24.7963V15.1383ZM23.1085 13.586C23.1085 14.6402 24.0761 15.1383 24.7963 15.1383V13.1383C24.8114 13.1383 24.8655 13.1426 24.9346 13.1981C25.0076 13.2567 25.1085 13.3899 25.1085 13.586H23.1085ZM24.7963 12.0209C24.044 12.0209 23.1085 12.5581 23.1085 13.586H25.1085C25.1085 13.7771 25.0126 13.9031 24.9466 13.9578C24.8814 14.0118 24.8244 14.0209 24.7963 14.0209V12.0209ZM27.1795 12.0209H24.7963V14.0209H27.1795V12.0209ZM28.6182 12.7499C28.2957 12.2961 27.7467 12.0209 27.1795 12.0209V14.0209C27.1416 14.0209 27.1117 14.012 27.0881 14C27.0664 13.989 27.0276 13.9642 26.988 13.9085L28.6182 12.7499ZM28.4614 14.5989C28.9433 14.0958 29.0014 13.3609 28.6517 12.8001L26.9546 13.8583C26.8965 13.7652 26.8659 13.6481 26.878 13.5248C26.8905 13.3988 26.9452 13.2905 27.0172 13.2154L28.4614 14.5989ZM26.9136 16.3116L28.4811 14.5777L26.9975 13.2365L25.43 14.9704L26.9136 16.3116ZM24.8035 21.8116H25.6123V19.8116H24.8035V21.8116ZM25.3199 18.7492L24.0617 20.141L25.5453 21.4822L26.8035 20.0904L25.3199 18.7492ZM25.2644 19.485C25.1168 19.2484 25.146 18.9302 25.3396 18.7281L26.7838 20.1116C27.2342 19.6415 27.289 18.9521 26.9615 18.4268L25.2644 19.485ZM25.6123 19.7085C25.5492 19.7085 25.4949 19.6932 25.4499 19.6705C25.4069 19.6487 25.35 19.6087 25.2978 19.5352L26.928 18.3766C26.6307 17.9583 26.129 17.7085 25.6123 17.7085V19.7085ZM23.6994 19.7085H25.6123V17.7085H23.6994V19.7085ZM24.1474 19.1621C24.1474 19.3836 24.0364 19.5375 23.946 19.6124C23.8564 19.6867 23.7654 19.7085 23.6994 19.7085V17.7085C23.0228 17.7085 22.1474 18.195 22.1474 19.1621H24.1474ZM23.6994 18.6054C23.7524 18.6054 23.8405 18.6217 23.934 18.6968C24.0315 18.7751 24.1474 18.9355 24.1474 19.1621H22.1474C22.1474 20.1555 23.055 20.6054 23.6994 20.6054V18.6054ZM24.5081 18.6054H23.6994V20.6054H24.5081V18.6054ZM23.9919 21.6677L25.25 20.276L23.7663 18.9348L22.5082 20.3266L23.9919 21.6677ZM24.0476 20.9325C24.1949 21.169 24.1658 21.4869 23.9722 21.6889L22.528 20.3054C22.0776 20.7755 22.0229 21.4645 22.3498 21.9897L24.0476 20.9325ZM23.6994 20.7085C23.7289 20.7085 23.7788 20.7143 23.8414 20.745C23.9043 20.7759 23.9947 20.8404 24.0636 20.9592L22.3338 21.963C22.6507 22.509 23.2324 22.7085 23.6994 22.7085V20.7085ZM25.5994 20.7085H23.6994V22.7085H25.5994V20.7085ZM25.1516 21.2652C25.1516 21.0386 25.2675 20.8782 25.365 20.7999C25.4585 20.7248 25.5465 20.7085 25.5994 20.7085V22.7085C26.2438 22.7085 27.1516 22.2587 27.1516 21.2652H25.1516ZM25.6123 21.8116C25.5479 21.8116 25.4532 21.7906 25.358 21.7104C25.2598 21.6277 25.1404 21.4549 25.1529 21.2134L27.1502 21.317C27.2033 20.2943 26.2666 19.8116 25.6123 19.8116V21.8116Z" fill="#C545A3" mask="url(#path-1-inside-1_1964_3635)"/>
</svg>
