<svg width="311" height="310" viewBox="0 0 311 310" fill="none" xmlns="http://www.w3.org/2000/svg">
<path opacity="0.25" d="M97.6166 290.343C115.094 298.432 133.654 305.632 153.054 308.618C190.834 314.421 221.015 301.774 256.962 273.151C299.608 237.743 318.466 176.209 308.301 124.027C301.679 89.9843 279.471 60.9609 254.259 38.8276C229.514 17.1223 199.647 2.0248 165.502 0.212797C105.138 -3.00894 41.1274 30.5426 14.5202 87.9065C-12.5535 146.265 -1.36675 216.499 44.7317 257.295C60.2429 271.042 78.7122 281.584 97.6166 290.343Z" fill="#EBDBCD"/>
<g clip-path="url(#clip0_131_6034)">
<path d="M221.778 137.803L214.472 137.782C211.988 137.761 209.952 136.235 209.921 134.405V133.767C209.9 131.938 211.894 130.453 214.347 130.484L221.653 130.505C224.137 130.526 226.172 132.053 226.204 133.882V134.52C226.224 136.35 224.241 137.824 221.778 137.803Z" fill="#FCB58A"/>
<path d="M94.9729 137.385L87.6666 137.364C85.1825 137.343 83.1472 135.816 83.1159 133.987V133.349C83.095 131.519 85.0886 130.035 87.5414 130.066L94.8476 130.087C97.3318 130.108 99.3671 131.634 99.3984 133.464V134.102C99.4297 135.931 97.4361 137.405 94.9729 137.385Z" fill="#FCB58A"/>
<path d="M134.604 246.139C134.322 249.872 134.04 253.604 133.738 257.337C133.55 259.825 136.451 261.822 138.873 261.707C141.775 261.571 143.351 259.334 143.538 256.824C143.82 253.092 144.102 249.359 144.405 245.627C144.593 243.139 141.691 241.142 139.27 241.257C136.357 241.393 134.813 243.62 134.604 246.139Z" fill="#FCB58A"/>
<path d="M170.29 247.311C170.875 250.991 171.459 254.702 172.044 258.393C172.44 260.86 175.718 262.125 178.045 261.446C180.832 260.62 181.844 258.111 181.448 255.622C180.863 251.942 180.279 248.231 179.694 244.54C179.298 242.072 176.02 240.807 173.693 241.487C170.906 242.313 169.893 244.822 170.29 247.311Z" fill="#FCB58A"/>
<path d="M95.1609 241.748C86.0907 241.748 78.7114 240.901 78.4504 239.866L79.7864 255.706C79.7864 263.213 86.6961 269.371 95.1609 269.371C103.626 269.371 110.535 263.223 110.535 255.706L111.871 239.835C111.683 240.901 104.283 241.748 95.1609 241.748Z" fill="#DEC7B2"/>
<path d="M95.1609 241.748C85.955 241.748 78.4713 240.881 78.4504 239.825V239.804C78.5235 238.748 85.9759 237.88 95.1609 237.88C104.346 237.88 111.798 238.748 111.871 239.804V239.825C111.819 240.881 104.367 241.748 95.1609 241.748Z" fill="#E8D4C1"/>
<path d="M95.1608 241.414C87.4057 241.414 81.1014 240.682 81.0806 239.772V239.751C81.1536 238.863 87.4266 238.131 95.1608 238.131C102.916 238.131 109.199 238.863 109.241 239.751V239.772C109.22 240.692 102.916 241.414 95.1608 241.414Z" fill="#BA9C7E"/>
<path d="M79.0142 246.652C80.0892 246.673 81.1434 247.101 82.0619 247.99C83.7737 249.652 84.8487 252.214 86.2369 254.159C86.7483 253.103 87.218 252.026 87.6147 250.918C88.1052 249.6 89.8692 248.387 91.2469 249.443C92.7186 250.593 93.825 251.879 94.7852 253.479C95.6098 254.859 96.2882 256.511 97.572 257.536C98.8141 258.55 100.223 258.822 100.735 257.044C101.183 255.476 101.016 253.803 101.528 252.235C101.945 250.918 102.603 249.579 103.939 248.994C105.505 248.314 107.028 249.161 108.437 249.862C109.283 250.28 110.097 250.729 110.901 251.221L110.619 254.556C109.189 253.667 107.435 252.559 105.953 252.35C105.014 252.214 105.087 252.841 105.014 253.709C104.972 254.483 104.972 255.277 104.92 256.062C104.826 257.661 104.596 259.25 103.657 260.568C101.643 263.412 97.8643 263.265 95.2236 261.456C93.7937 260.495 92.7603 259.229 91.8523 257.776C91.5496 257.306 91.2678 256.814 90.9651 256.323C89.817 258.979 88.0843 261.373 85.2036 260.359C83.4188 259.721 82.2498 257.776 81.1956 256.323C80.872 255.873 80.2562 254.776 79.6508 253.793L79.0142 246.652Z" fill="#EBDBCD"/>
<path d="M72.4801 187.59C72.835 186.231 74.4215 186.022 75.3609 186.817C77.1457 188.322 78.0746 190.382 79.0662 192.431C80.0995 194.595 81.3624 196.561 82.8341 198.422C85.8297 202.248 89.1593 205.793 91.3407 210.184C95.5783 218.684 96.6116 228.679 93.6891 237.765C93.5952 238.047 94.1588 236.615 93.2403 239.124C92.4158 241.403 89.1906 240.18 89.2114 237.524C89.2323 234.921 88.5539 232.506 87.4058 230.206C85.1304 225.626 82.2705 221.361 80.0473 216.76C77.7928 212.108 75.8306 207.319 74.2336 202.416C72.6889 197.638 71.2172 192.588 72.4801 187.59Z" fill="#4C7378"/>
<path d="M93.3342 160.951C94.4823 158.86 97.8328 160.271 97.1752 162.571C95.2025 169.283 96.6116 176.393 97.8328 183.116C99.0748 189.974 100.526 196.781 101.371 203.702C102.874 215.976 102.384 229.777 94.618 240.065C93.7726 241.173 92.0191 240.253 92.7184 238.936C93.4908 237.483 91.5494 227.906 90.6831 224.853C89.8168 221.685 88.9296 218.538 88.1572 215.349C86.6125 209.128 85.3495 202.792 85.0155 196.383C84.3162 183.91 87.3849 171.845 93.3342 160.951Z" fill="#57848A"/>
<path d="M97.0396 229.233C97.9581 225.051 97.2692 220.618 98.1668 216.468C99.0331 212.38 100.233 208.25 102.123 204.517C103.928 200.973 106.694 198.464 109.93 196.258C112.978 194.188 116.589 192.149 117.664 188.374C118.301 186.116 122.121 186.451 121.881 188.939C121.369 194.01 119.23 198.474 116.746 202.855C114.094 207.507 111.777 211.961 110.493 217.199C108.27 226.17 106.35 237.786 96.1524 240.535C94.8999 240.859 95.0669 238.183 97.0396 229.233Z" fill="#689399"/>
<path d="M94.8582 138.388C102.29 142.194 109.805 144.379 118.217 144.212C126.087 144.045 133.759 141.933 138.184 134.865C141.117 130.171 133.707 125.853 130.784 130.526C127.788 135.315 121.808 135.67 116.704 135.618C110.379 135.576 104.774 133.83 99.2002 130.965C94.2946 128.466 89.9317 135.879 94.8582 138.388Z" fill="#FCB58A"/>
<path d="M209.19 130.976C203.585 133.841 198.012 135.576 191.687 135.628C186.301 135.67 181.427 135.064 178.379 130.139C175.477 125.445 168.067 129.763 170.979 134.478C172.878 137.552 175.456 140.25 178.692 141.87C182.324 143.7 186.144 144.128 190.152 144.223C198.565 144.39 206.09 142.205 213.512 138.399C218.428 135.879 214.086 128.467 209.19 130.976Z" fill="#FCB58A"/>
<path d="M235.159 165.927L232.226 181.913L219.409 171.301L235.159 165.927Z" fill="#D4BFA9"/>
<path d="M119.585 50.6276C124.335 50.6276 128.185 46.7705 128.185 42.0125C128.185 37.2546 124.335 33.3975 119.585 33.3975C114.835 33.3975 110.984 37.2546 110.984 42.0125C110.984 46.7705 114.835 50.6276 119.585 50.6276Z" fill="#EBDBCD"/>
<path d="M127.757 59.3052C127.684 59.3052 127.621 59.2634 127.569 59.1902C127.527 59.0961 127.569 58.9811 127.663 58.9288L128.55 58.5315L128.154 57.6428C128.112 57.5487 128.154 57.4337 128.248 57.3814C128.342 57.3396 128.456 57.3814 128.509 57.4755L129.051 58.7406L127.788 59.2843C127.809 59.3052 127.778 59.3052 127.757 59.3052Z" fill="#110580"/>
<path d="M109.481 67.314C109.408 67.314 109.345 67.2722 109.293 67.199C109.251 67.1049 109.293 66.9899 109.387 66.9376L111.683 65.9234C111.777 65.8816 111.892 65.9234 111.944 66.0175C111.986 66.1116 111.944 66.2266 111.85 66.2789L109.554 67.2931C109.523 67.314 109.502 67.314 109.481 67.314ZM114.053 65.317C113.979 65.317 113.917 65.2752 113.865 65.202C113.823 65.1079 113.865 64.9929 113.959 64.9407L116.255 63.9265C116.349 63.8847 116.464 63.9265 116.516 64.0206C116.558 64.1147 116.516 64.2297 116.422 64.282L114.126 65.2961C114.094 65.317 114.073 65.317 114.053 65.317ZM118.624 63.3201C118.551 63.3201 118.488 63.2783 118.436 63.2051C118.395 63.111 118.436 62.996 118.53 62.9437L120.826 61.9296C120.92 61.8877 121.035 61.9296 121.087 62.0237C121.14 62.1178 121.087 62.2328 120.993 62.285L118.697 63.2992C118.666 63.3201 118.645 63.3201 118.624 63.3201ZM123.185 61.3023C123.112 61.3023 123.05 61.2604 122.997 61.1873C122.956 61.0932 122.997 60.9781 123.091 60.9259L125.388 59.9117C125.482 59.8699 125.596 59.9117 125.649 60.0058C125.69 60.0999 125.649 60.2149 125.555 60.2672L123.258 61.2813C123.238 61.3023 123.217 61.3023 123.185 61.3023Z" fill="#110580"/>
<path d="M106.016 68.861L105.473 67.596C105.431 67.5019 105.473 67.3868 105.567 67.3346C105.661 67.2927 105.776 67.3346 105.828 67.4287L106.224 68.3174L107.112 67.9201C107.206 67.8782 107.32 67.9201 107.373 68.0142C107.414 68.1083 107.373 68.2233 107.279 68.2755L106.016 68.861Z" fill="#110580"/>
<path d="M104.721 65.5992C104.648 65.5992 104.586 65.5573 104.534 65.4842L103.594 63.3513C103.552 63.2572 103.594 63.1422 103.688 63.0899C103.782 63.0481 103.897 63.0899 103.949 63.184L104.888 65.3169C104.93 65.411 104.888 65.526 104.794 65.5782C104.774 65.5782 104.742 65.5992 104.721 65.5992ZM102.853 61.323C102.78 61.323 102.717 61.2812 102.665 61.208L101.726 59.0751C101.684 58.981 101.726 58.866 101.82 58.8137C101.914 58.7719 102.029 58.8137 102.081 58.9078L103.02 61.0407C103.062 61.1348 103.02 61.2498 102.926 61.3021C102.916 61.323 102.874 61.323 102.853 61.323ZM100.995 57.0782C100.922 57.0782 100.86 57.0364 100.807 56.9632L99.868 54.8303C99.8262 54.7362 99.868 54.6212 99.9619 54.5689C100.056 54.5271 100.171 54.5689 100.223 54.663L101.162 56.7959C101.204 56.89 101.162 57.005 101.068 57.0573C101.047 57.0782 101.016 57.0782 100.995 57.0782Z" fill="#110580"/>
<path d="M99.1479 52.8335C99.0748 52.8335 99.0122 52.7917 98.96 52.7185L98.4172 51.4534L99.6802 50.9098C99.7741 50.8679 99.8889 50.9098 99.9411 51.0039C99.9829 51.098 99.9411 51.213 99.8472 51.2652L98.96 51.6625L99.3566 52.5512C99.3984 52.6453 99.3566 52.7603 99.2627 52.8126C99.1896 52.8335 99.1687 52.8335 99.1479 52.8335Z" fill="#110580"/>
<path d="M102.029 50.293C101.955 50.293 101.893 50.2512 101.841 50.178C101.799 50.0839 101.841 49.9689 101.935 49.9166L104.231 48.9025C104.325 48.8606 104.44 48.9025 104.492 48.9965C104.544 49.0906 104.492 49.2057 104.398 49.2579L102.102 50.2721C102.102 50.2721 102.049 50.293 102.029 50.293ZM106.6 48.2751C106.527 48.2751 106.464 48.2333 106.412 48.1601C106.371 48.066 106.412 47.951 106.506 47.8988L108.802 46.8846C108.896 46.8428 109.011 46.8846 109.063 46.9787C109.105 47.0728 109.063 47.1878 108.969 47.2401L106.673 48.2542C106.673 48.2751 106.621 48.2751 106.6 48.2751ZM111.172 46.2782C111.099 46.2782 111.036 46.2364 110.984 46.1632C110.942 46.0691 110.984 45.9541 111.078 45.9018L113.374 44.8877C113.468 44.8458 113.583 44.8877 113.635 44.9818C113.677 45.0759 113.635 45.1909 113.541 45.2431L111.245 46.2573C111.234 46.2782 111.214 46.2782 111.172 46.2782ZM115.764 44.2813C115.691 44.2813 115.629 44.2394 115.576 44.1663C115.535 44.0722 115.576 43.9572 115.67 43.9049L117.967 42.8907C118.061 42.8489 118.175 42.8907 118.228 42.9848C118.269 43.0789 118.228 43.1939 118.134 43.2462L115.837 44.2604C115.806 44.2604 115.785 44.2813 115.764 44.2813Z" fill="#110580"/>
<path d="M121.881 42.8801C121.808 42.8801 121.745 42.8382 121.693 42.765L121.296 41.8764L120.409 42.2737C120.315 42.3155 120.2 42.2737 120.148 42.1796C120.096 42.0855 120.148 41.9705 120.242 41.9182L121.505 41.3745L122.048 42.6396C122.09 42.7337 122.048 42.8487 121.954 42.901C121.923 42.8801 121.902 42.8801 121.881 42.8801Z" fill="#110580"/>
<path d="M127.433 55.646C127.36 55.646 127.298 55.6042 127.246 55.531L126.306 53.3982C126.264 53.3041 126.306 53.1891 126.4 53.1368C126.494 53.095 126.609 53.1368 126.661 53.2309L127.6 55.3637C127.642 55.4578 127.6 55.5729 127.507 55.6251C127.496 55.6251 127.454 55.646 127.433 55.646ZM125.576 51.3803C125.503 51.3803 125.44 51.3385 125.388 51.2653L124.448 49.1325C124.407 49.0384 124.448 48.9234 124.542 48.8711C124.636 48.8293 124.751 48.8711 124.803 48.9652L125.743 51.098C125.784 51.1921 125.743 51.3071 125.649 51.3594C125.628 51.3803 125.607 51.3803 125.576 51.3803ZM123.728 47.1251C123.655 47.1251 123.592 47.0832 123.54 47.0101L122.601 44.8772C122.559 44.7831 122.601 44.6681 122.695 44.6158C122.789 44.574 122.904 44.6158 122.956 44.7099L123.895 46.8428C123.937 46.9369 123.895 47.0519 123.801 47.1042C123.77 47.1251 123.749 47.1251 123.728 47.1251Z" fill="#110580"/>
<path d="M223.187 186.723L222.133 186.325C222.039 186.304 222.018 186.21 222.039 186.116C222.06 186.022 222.154 185.98 222.248 186.022L222.999 186.304L223.281 185.552C223.302 185.458 223.396 185.437 223.49 185.458C223.584 185.479 223.605 185.573 223.584 185.667L223.187 186.723Z" fill="#110580"/>
<path d="M220.515 185.719C220.494 185.719 220.473 185.719 220.473 185.719L218.835 185.113C218.741 185.092 218.72 184.998 218.741 184.904C218.762 184.809 218.856 184.768 218.95 184.809L220.588 185.416C220.682 185.437 220.703 185.531 220.682 185.625C220.651 185.688 220.578 185.719 220.515 185.719ZM217.227 184.496C217.207 184.496 217.186 184.496 217.186 184.496L215.547 183.889C215.453 183.868 215.432 183.774 215.453 183.68C215.474 183.586 215.568 183.565 215.662 183.586L217.3 184.193C217.394 184.213 217.415 184.308 217.394 184.402C217.342 184.444 217.3 184.496 217.227 184.496ZM213.929 183.273C213.908 183.273 213.887 183.273 213.887 183.273L212.249 182.666C212.155 182.645 212.134 182.551 212.155 182.457C212.176 182.363 212.27 182.321 212.363 182.363L214.002 182.969C214.096 182.99 214.117 183.084 214.096 183.178C214.065 183.231 213.992 183.273 213.929 183.273ZM210.62 182.028C210.6 182.028 210.579 182.028 210.579 182.028L208.94 181.422C208.846 181.401 208.825 181.307 208.846 181.213C208.867 181.119 208.961 181.077 209.055 181.119L210.693 181.725C210.787 181.746 210.808 181.84 210.787 181.934C210.767 181.987 210.693 182.028 210.62 182.028Z" fill="#110580"/>
<path d="M207.343 180.805C207.322 180.805 207.301 180.805 207.301 180.805L206.247 180.407L206.644 179.352C206.665 179.257 206.758 179.216 206.852 179.257C206.946 179.278 206.967 179.372 206.946 179.467L206.665 180.219L207.416 180.502C207.51 180.522 207.531 180.617 207.51 180.711C207.458 180.763 207.416 180.805 207.343 180.805Z" fill="#110580"/>
<path d="M207.385 177.899C207.364 177.899 207.343 177.899 207.343 177.899C207.249 177.878 207.228 177.784 207.249 177.689L207.854 176.048C207.875 175.954 207.969 175.912 208.063 175.954C208.157 175.975 208.178 176.069 208.157 176.163L207.552 177.804C207.5 177.846 207.437 177.899 207.385 177.899ZM208.606 174.616C208.585 174.616 208.564 174.616 208.564 174.616C208.47 174.595 208.449 174.501 208.47 174.407L209.076 172.765C209.097 172.671 209.19 172.629 209.284 172.671C209.378 172.692 209.399 172.786 209.378 172.88L208.773 174.522C208.742 174.563 208.679 174.616 208.606 174.616ZM209.827 171.301C209.806 171.301 209.785 171.301 209.785 171.301C209.691 171.28 209.671 171.186 209.691 171.092L210.297 169.451C210.318 169.357 210.412 169.315 210.506 169.357C210.6 169.378 210.62 169.472 210.6 169.566L209.994 171.207C209.963 171.26 209.89 171.301 209.827 171.301ZM211.069 167.997C211.048 167.997 211.027 167.997 211.027 167.997C210.934 167.977 210.913 167.882 210.934 167.788L211.539 166.147C211.56 166.053 211.654 166.011 211.748 166.053C211.842 166.074 211.862 166.168 211.842 166.262L211.236 167.903C211.184 167.966 211.132 167.997 211.069 167.997Z" fill="#110580"/>
<path d="M212.291 164.704C212.27 164.704 212.249 164.704 212.249 164.704C212.155 164.683 212.134 164.589 212.155 164.495L212.551 163.439L213.606 163.836C213.7 163.857 213.72 163.951 213.7 164.045C213.679 164.139 213.585 164.16 213.491 164.139L212.739 163.857L212.458 164.61C212.426 164.662 212.353 164.704 212.291 164.704Z" fill="#110580"/>
<path d="M226.726 169.053C226.705 169.053 226.684 169.053 226.684 169.053L225.045 168.447C224.951 168.426 224.93 168.332 224.951 168.238C224.972 168.144 225.066 168.102 225.16 168.144L226.799 168.75C226.893 168.771 226.913 168.865 226.893 168.959C226.861 169.001 226.788 169.053 226.726 169.053ZM223.417 167.83C223.396 167.83 223.375 167.83 223.375 167.83L221.736 167.224C221.643 167.203 221.622 167.109 221.643 167.015C221.663 166.921 221.757 166.9 221.851 166.921L223.49 167.527C223.584 167.548 223.605 167.642 223.584 167.736C223.553 167.778 223.49 167.83 223.417 167.83ZM220.14 166.586C220.119 166.586 220.098 166.586 220.098 166.586L218.459 165.98C218.365 165.959 218.344 165.865 218.365 165.771C218.386 165.676 218.48 165.635 218.574 165.676L220.213 166.283C220.307 166.304 220.327 166.398 220.307 166.492C220.254 166.534 220.202 166.586 220.14 166.586ZM216.831 165.363C216.81 165.363 216.789 165.363 216.789 165.363L215.15 164.756C215.056 164.736 215.036 164.641 215.056 164.547C215.077 164.453 215.171 164.411 215.265 164.453L216.904 165.06C216.998 165.081 217.019 165.175 216.998 165.269C216.977 165.321 216.904 165.363 216.831 165.363Z" fill="#110580"/>
<path d="M228.949 170.904C228.928 170.904 228.907 170.904 228.907 170.904C228.813 170.883 228.792 170.789 228.813 170.695L229.095 169.942L228.343 169.66C228.249 169.639 228.228 169.545 228.249 169.451C228.27 169.357 228.364 169.315 228.458 169.357L229.512 169.754L229.116 170.81C229.063 170.883 229.022 170.904 228.949 170.904Z" fill="#110580"/>
<path d="M224.022 184.119C224.001 184.119 223.98 184.119 223.98 184.119C223.887 184.099 223.866 184.004 223.887 183.91L224.492 182.269C224.513 182.175 224.607 182.133 224.701 182.175C224.795 182.196 224.815 182.29 224.795 182.384L224.189 184.025C224.168 184.067 224.095 184.119 224.022 184.119ZM225.243 180.805C225.223 180.805 225.202 180.805 225.202 180.805C225.108 180.784 225.087 180.69 225.108 180.596L225.713 178.955C225.734 178.861 225.828 178.819 225.922 178.86C226.016 178.881 226.037 178.976 226.016 179.07L225.41 180.711C225.39 180.784 225.316 180.805 225.243 180.805ZM226.485 177.522C226.465 177.522 226.444 177.522 226.444 177.522C226.35 177.501 226.329 177.407 226.35 177.313L226.955 175.672C226.976 175.578 227.07 175.536 227.164 175.578C227.258 175.598 227.279 175.693 227.258 175.787L226.652 177.428C226.6 177.48 226.559 177.522 226.485 177.522ZM227.707 174.208C227.686 174.208 227.665 174.208 227.665 174.208C227.571 174.187 227.55 174.093 227.571 173.999L228.176 172.357C228.197 172.263 228.291 172.221 228.385 172.263C228.479 172.284 228.5 172.378 228.479 172.472L227.874 174.114C227.842 174.166 227.78 174.208 227.707 174.208Z" fill="#110580"/>
<path d="M178.379 108.372C178.379 108.372 174.235 95.1564 172.847 89.5733C170.686 80.9582 164.831 75.7725 156.565 75.7725C148.173 75.7725 142.265 81.0523 139.948 89.6256C137.579 98.4497 134.468 107.682 134.468 107.682C134.093 108.853 134.677 110.097 135.804 110.567C138.476 111.623 144.05 113.505 156.544 113.359C167.701 113.223 173.463 111.644 176.364 111.341C177.815 111.163 178.755 109.752 178.379 108.372Z" fill="#110580"/>
<path d="M161.314 104.189H151.774V120.458C151.774 121.817 152.88 122.925 154.237 122.925H158.851C160.207 122.925 161.314 121.817 161.314 120.458V104.189Z" fill="#FCB58A"/>
<path d="M156.419 74.4965C159.704 74.4965 162.368 71.8284 162.368 68.5371C162.368 65.2458 159.704 62.5776 156.419 62.5776C153.133 62.5776 150.469 65.2458 150.469 68.5371C150.469 71.8284 153.133 74.4965 156.419 74.4965Z" fill="#110580"/>
<path d="M142.401 106.113C140.856 106.113 140.804 100.906 140.804 100.31C140.804 99.7145 140.846 94.5078 142.401 94.5078C143.946 94.5078 143.998 99.7145 143.998 100.31C143.977 100.906 143.925 106.113 142.401 106.113ZM142.401 95.407C142.119 95.7833 141.67 97.4457 141.67 100.29C141.67 103.133 142.119 104.796 142.401 105.172C142.683 104.796 143.132 103.133 143.132 100.29C143.132 97.4562 142.683 95.8147 142.401 95.407Z" fill="white"/>
<path d="M170.405 106.113C168.86 106.113 168.808 100.906 168.808 100.31C168.808 99.7145 168.85 94.5078 170.405 94.5078C171.95 94.5078 172.002 99.7145 172.002 100.31C171.981 100.906 171.929 106.113 170.405 106.113ZM170.405 95.407C170.123 95.7833 169.674 97.4457 169.674 100.29C169.674 103.133 170.123 104.796 170.405 105.172C170.687 104.796 171.135 103.133 171.135 100.29C171.135 97.4562 170.687 95.8147 170.405 95.407Z" fill="white"/>
<path d="M156.554 107.734C165.264 107.734 172.325 100.661 172.325 91.9359C172.325 83.2111 165.264 76.1382 156.554 76.1382C147.844 76.1382 140.783 83.2111 140.783 91.9359C140.783 100.661 147.844 107.734 156.554 107.734Z" fill="#FCB58A"/>
<path d="M140.46 93.0859C140.48 93.3473 140.501 93.5982 140.533 93.8387C140.533 93.8596 140.533 93.9119 140.533 93.9328C140.554 94.2151 140.606 94.4764 140.647 94.7587V94.7796C140.689 95.0619 140.762 95.3442 140.814 95.6474C141.869 91.2772 145.783 88.0674 150.469 88.0674C151.054 88.0674 151.617 88.1092 152.181 88.2033C152.598 88.2974 153.026 88.3392 153.465 88.3392C156.398 88.3392 158.83 86.1123 159.132 83.2476C159.132 83.2476 159.153 83.2476 159.153 83.2267C159.111 83.5299 159.08 83.8331 159.08 84.1467C159.08 87.5028 161.794 90.2212 165.144 90.2212H165.165C168.443 90.8799 171.073 93.3159 172.033 96.4838C172.242 95.7833 172.388 95.0515 172.503 94.3196C172.503 94.2987 172.503 94.2778 172.503 94.2255C172.544 93.9223 172.576 93.6191 172.597 93.2845C172.597 93.2114 172.618 93.1173 172.618 93.0545C172.638 92.6991 172.659 92.354 172.659 91.9986C172.659 91.6954 172.659 91.4131 172.638 91.1308C172.638 91.0367 172.618 90.9635 172.618 90.8694C172.597 90.6603 172.597 90.4512 172.576 90.263C172.576 90.1689 172.555 90.0748 172.534 89.9807C172.513 89.7925 172.492 89.5834 172.461 89.3952C172.44 89.3011 172.44 89.207 172.419 89.1129C172.377 88.9247 172.346 88.7156 172.304 88.5274C172.284 88.4333 172.263 88.3602 172.263 88.2661C172.221 88.057 172.169 87.8688 172.096 87.6597C172.075 87.5865 172.054 87.5237 172.023 87.4506C171.95 87.2415 171.887 87.0323 171.814 86.8128C171.793 86.771 171.772 86.6978 171.772 86.6455C171.699 86.4155 171.605 86.175 171.511 85.9659C171.49 85.945 171.49 85.8927 171.469 85.8718C171.375 85.6104 171.261 85.3595 171.146 85.0981C169.768 82.1393 167.493 79.651 164.675 78.0095C163.787 77.4972 162.848 77.0476 161.867 76.7235C161.846 76.7235 161.794 76.7026 161.773 76.7026C161.491 76.6085 161.209 76.5144 160.907 76.4412C160.865 76.4203 160.813 76.4203 160.771 76.3994C160.134 76.2321 159.487 76.0962 158.83 76.0021C158.736 75.9812 158.663 75.9812 158.569 75.9812C158.308 75.9603 158.078 75.9394 157.817 75.908C157.723 75.908 157.629 75.8871 157.535 75.8871C157.212 75.8662 156.878 75.8662 156.523 75.8662C147.62 75.8662 140.397 83.1012 140.397 92.0195C140.397 92.3227 140.397 92.605 140.418 92.9082C140.46 92.9918 140.46 93.0441 140.46 93.0859Z" fill="#110580"/>
<path d="M171.929 118.21C167.921 115.815 163.328 114.989 161.314 114.686C160.677 117.311 159.341 118.774 156.398 118.774C153.402 118.774 152.369 117.269 151.805 114.571C151.2 114.592 149.342 114.969 148.924 115.063C143.487 116.119 141.284 117.53 138.539 119.569C134.343 122.716 130.241 129.24 129.354 130.714C129.239 130.902 129.239 131.132 129.354 131.32C129.845 132.073 131.202 134.018 133.153 135.283C135.867 137.092 139.103 138.075 139.103 138.075C139.103 138.075 140.418 135.68 140.794 134.76C141.305 133.558 142.672 129.522 142.672 129.522C142.672 129.522 141.43 132.22 141.336 135.011C141.263 137.573 142.13 140.458 142.067 142.152C141.879 146.02 140.731 149.356 140.334 150.861C140.24 151.217 140.449 151.593 140.825 151.656C142.912 152.126 149.144 153.538 155.469 153.506C163.694 153.506 169.34 152.618 171.334 152.304C171.71 152.231 171.939 151.886 171.845 151.509C171.522 150.192 170.958 147.944 170.394 142.915C169.946 138.974 170.415 138.221 170.394 135.45C170.394 133.412 169.549 129.324 169.549 129.324L170.342 137.113C170.342 137.113 173.223 137.249 177.346 135.45C178.776 134.813 180.581 133.192 181.333 132.471C181.542 132.261 181.615 131.927 181.469 131.676C180.435 129.543 175.874 120.552 171.929 118.21Z" fill="white"/>
<path d="M156.554 107.734C154.895 107.734 153.298 107.472 151.795 107.002V109.961C153.298 110.431 154.936 110.452 156.627 110.285C158.85 110.076 159.811 109.647 161.314 108.999V107.002C159.821 107.472 158.224 107.734 156.554 107.734Z" fill="#E3996D"/>
<path d="M143.017 152.2C143.017 152.2 150.793 153.517 156.231 153.517C161.992 153.517 169.121 152.691 169.121 152.691C169.121 152.691 169.758 156.8 170.008 157.689C170.269 158.577 165.301 160.365 156.439 160.177C144.843 159.968 142.077 158.295 142.077 157.825C142.057 157.5 143.017 152.2 143.017 152.2Z" fill="#FCB58A"/>
<path d="M172.847 160.386C180.039 174.71 183.42 183.691 185.341 202.897C186.959 219.05 184.923 240.619 184.589 252.946C184.589 253.322 184.495 253.699 184.287 254.023C183.702 254.964 179.955 255.737 178.922 255.811C173.724 256.166 168.891 255.413 168.422 253.584C165.75 242.742 163.662 231.304 162.19 219.97C160.969 210.582 159.518 200.116 158.694 192.39C158.621 191.752 157.681 191.731 157.619 192.39C157.483 193.676 157.316 200.89 157.128 203.022C156.617 209.076 155.604 215.046 154.623 221.047C153.078 230.582 149.394 244.028 146.607 253.092C146.419 253.699 145.783 254.546 145.083 254.661C143.841 254.849 140.867 255.11 139.291 254.985C136.973 254.797 132.099 254.117 131.838 252.967C128.321 238.298 128.206 210.007 133.289 180.596C134.51 173.602 137.318 165.781 139.896 161.087C139.896 161.087 148.215 162.728 155.855 162.707C165.061 162.665 172.847 160.386 172.847 160.386Z" fill="#BF47A9"/>
<path d="M108.75 73.4197L98.4173 70.0845C97.8119 69.8754 97.457 69.2167 97.6449 68.5789L99.8263 61.8144C100.035 61.208 100.693 60.8525 101.329 61.0407L111.662 64.3759C112.268 64.585 112.623 65.2437 112.435 65.8815L110.253 72.646C110.045 73.2733 109.366 73.6288 108.75 73.4197Z" fill="url(#paint0_linear_131_6034)"/>
<path d="M113.562 67.7633C113.145 67.7633 112.769 68.0456 112.644 68.4429L112.268 69.5721L111.892 70.7012C111.777 71.0985 111.892 71.5481 112.247 71.7781L115.034 73.8901C115.576 74.3083 116.37 74.0573 116.558 73.3987L117.288 71.1717L118.019 68.9448C118.228 68.2861 117.737 67.6274 117.059 67.6588L113.562 67.7633Z" fill="url(#paint1_linear_131_6034)"/>
<path d="M142.057 157.856C142.057 157.856 141.138 158.065 140.606 159.006C140.073 159.947 139.927 161.076 139.927 161.076C139.927 161.076 145.95 162.864 157.337 163.167C168.369 163.449 172.847 160.396 172.847 160.396C172.847 160.396 172.451 159.152 171.511 158.609C170.572 158.065 169.966 157.688 169.966 157.688C169.966 157.688 166.522 160.762 156.001 160.01C145.501 159.236 142.057 157.856 142.057 157.856Z" fill="#FF7F87"/>
<path d="M94.1302 89.9799L90.5286 90.2432L92.1199 112.088L95.7216 111.824L94.1302 89.9799Z" fill="#DADAED"/>
<path d="M91.9653 93.0799L90.7266 93.1704L90.7456 93.4311L91.9843 93.3405L91.9653 93.0799Z" fill="url(#paint2_linear_131_6034)"/>
<path d="M92.1535 95.5262L90.9148 95.6167L90.9338 95.8774L92.1725 95.7868L92.1535 95.5262Z" fill="url(#paint3_linear_131_6034)"/>
<path d="M92.341 97.9622L91.1023 98.0527L91.1213 98.3134L92.36 98.2229L92.341 97.9622Z" fill="url(#paint4_linear_131_6034)"/>
<path d="M92.498 100.409L91.2593 100.5L91.2783 100.76L92.517 100.67L92.498 100.409Z" fill="url(#paint5_linear_131_6034)"/>
<path d="M92.686 102.876L91.4473 102.967L91.4663 103.227L92.705 103.137L92.686 102.876Z" fill="url(#paint6_linear_131_6034)"/>
<path d="M92.8525 105.312L91.6138 105.403L91.6328 105.664L92.8715 105.573L92.8525 105.312Z" fill="url(#paint7_linear_131_6034)"/>
<path d="M93.0407 107.759L91.802 107.849L91.821 108.11L93.0597 108.019L93.0407 107.759Z" fill="url(#paint8_linear_131_6034)"/>
<path d="M90.4523 97.5002L88.1699 97.9004L91.184 115.15L93.4663 114.75L90.4523 97.5002Z" fill="#FFADB2"/>
<path d="M90.4535 97.4983L88.1572 97.8956L88.533 94.6126L89.0027 94.5186L90.4535 97.4983Z" fill="#EBDBCD"/>
<path d="M88.6687 96.1182L89.0027 95.9091L89.2532 95.93L89.608 95.7627L89.0027 94.5186L88.533 94.6126L88.366 95.93L88.6687 96.1182Z" fill="#FF7A82"/>
<path d="M95.7766 111.539C95.3799 111.466 95.119 111.09 95.1712 110.693L96.9456 99.171C96.9664 99.0769 96.9873 98.9828 97.0186 98.8887L98.0519 95.9822C98.1876 95.658 98.5425 95.4385 98.8974 95.5117L99.0644 95.5326C99.4192 95.6058 99.6697 95.9299 99.6697 96.2854L99.4401 99.3592C99.4401 99.4533 99.4192 99.5474 99.3984 99.6624L96.6533 110.975C96.5489 111.372 96.1732 111.634 95.7766 111.539Z" fill="#2B31BA"/>
<path d="M109.241 119.423H94.3154V124.421H109.241V119.423Z" fill="#F8D7BC"/>
<path d="M109.878 119.078V119.455H94.2945V124.452H109.878V124.828H77.845V119.078H109.878Z" fill="#FF7A82"/>
<path d="M89.629 133.391H111.683V125.319H89.629C88.5227 125.319 87.6564 126.208 87.6564 127.295V131.404C87.6355 132.502 88.5331 133.391 89.629 133.391Z" fill="#F8ECE2"/>
<path d="M76.5821 124.828H112.675C112.811 124.828 112.936 124.943 112.936 125.09C112.936 125.225 112.821 125.351 112.675 125.351H108.249H91.6956C89.4724 125.351 87.6667 127.16 87.6667 129.387C87.6667 131.614 89.4724 133.422 91.6956 133.422H112.132H112.675C112.811 133.422 112.936 133.537 112.936 133.684C112.936 133.82 112.821 133.945 112.675 133.945H76.5821C74.3589 133.945 72.5532 132.136 72.5532 129.909V128.895C72.5532 126.637 74.3485 124.828 76.5821 124.828Z" fill="#2B31BA"/>
<path d="M111.683 126.637H90.7561V126.919H111.683V126.637Z" fill="#EBD0BE"/>
<path d="M111.683 129.941H89.2532V130.223H111.683V129.941Z" fill="#EBD0BE"/>
<path d="M111.683 131.676H91.9983V131.959H111.683V131.676Z" fill="#EBD0BE"/>
<path d="M111.704 128.394H89.9316V128.676H111.704V128.394Z" fill="#EBD0BE"/>
<path d="M94.5763 118.858H80.8406V115.973H94.5763C94.973 115.973 95.2756 116.276 95.2756 116.673V118.126C95.2756 118.534 94.973 118.858 94.5763 118.858Z" fill="#F8E7D8"/>
<path d="M103.104 115.764H80.256C80.2143 115.764 80.1621 115.805 80.1621 115.858C80.1621 115.9 80.2039 115.952 80.256 115.952H93.8039C94.5972 115.952 95.2339 116.611 95.2339 117.384C95.2339 118.179 94.5763 118.817 93.8039 118.817H80.256C80.2143 118.817 80.1621 118.858 80.1621 118.911C80.1621 118.953 80.2039 119.005 80.256 119.005H103.104C103.897 119.005 104.534 118.346 104.534 117.572V117.154C104.555 116.401 103.907 115.764 103.104 115.764Z" fill="#FF5856"/>
<path d="M88.8565 103.677H98.8869C99.1479 103.677 99.3566 103.907 99.3044 104.169L97.8536 115.763H89.8168L88.4077 104.169C88.3868 103.907 88.5956 103.677 88.8565 103.677Z" fill="url(#paint9_linear_131_6034)"/>
<path d="M99.0749 95.4594L98.9079 95.4385C98.5322 95.3653 98.1773 95.5535 98.0416 95.909L96.9874 98.8678C96.9666 98.9096 96.9666 98.941 96.9666 98.9828C97.2901 99.2651 97.7181 99.4742 98.2086 99.5474C98.6574 99.6206 99.0749 99.5892 99.4298 99.4742C99.4298 99.4324 99.4507 99.401 99.4507 99.3592L99.6803 96.2331C99.7116 95.8567 99.4507 95.5535 99.0749 95.4594Z" fill="#D7D7E6"/>
<path d="M99.1272 90.9951C99.2211 90.807 99.5029 90.807 99.5969 90.9951C99.7639 91.3193 99.9726 91.727 100.14 92.0093C100.421 92.5007 100.557 93.6508 100.421 94.1944C100.254 94.8531 99.7847 95.5327 99.649 95.7418C99.6282 95.7836 99.576 95.815 99.5342 95.8359C99.3985 95.8777 99.1376 95.93 98.7827 95.8568C98.2922 95.7418 98.24 95.4072 98.24 95.4072C98.24 95.4072 97.9582 94.3304 98.0104 93.6717C98.0521 93.013 98.407 92.1661 98.574 92.0302C98.6262 91.9152 98.908 91.4029 99.1272 90.9951Z" fill="#C7645D"/>
<path d="M137.955 258.863C141.232 258.905 143.372 257.881 143.372 257.881C143.372 257.881 144.708 260.724 144.969 262.199C145.229 263.673 146.002 268.681 144.854 269.611C143.612 270.646 143.841 270.364 142.255 271.044C140.032 271.985 139.071 271.535 136.044 273.083C134.917 273.668 130.043 278.195 125.127 278.624C120.983 278.979 119.877 276.982 119.386 275.874C118.896 274.766 119.783 272.633 122.716 270.448C126.275 267.792 129.845 263.997 130.565 263.035C132.767 260.076 133.748 257.358 133.748 257.358C133.748 257.358 134.583 258.79 137.955 258.863Z" fill="#C7645D"/>
<path d="M177.252 259.187C173.975 259.229 172.002 258.152 172.002 258.152C172.002 258.152 170.53 260.316 170.008 263.077C169.747 264.551 169.215 268.994 170.363 269.956C171.605 270.991 171.376 270.709 172.962 271.389C175.185 272.329 176.146 271.88 179.172 273.427C180.3 274.013 185.153 278.592 190.09 278.969C193.086 279.199 195.34 277.327 195.831 276.219C196.321 275.111 196.373 272.863 192.668 270.395C188.963 267.928 184.61 264.007 184.047 262.93C183.18 261.289 181.448 257.65 181.448 257.65C181.448 257.65 180.623 259.114 177.252 259.187Z" fill="#C7645D"/>
<path d="M219.805 97.8956C217.457 98.5333 215.046 97.1428 214.42 94.8217L213.292 90.6919C212.656 88.3395 214.044 85.9244 216.361 85.2971C218.709 84.6593 221.121 86.0498 221.747 88.3709L222.874 92.5007C223.511 94.8217 222.154 97.2473 219.805 97.8956Z" fill="url(#paint10_linear_131_6034)"/>
<path d="M220.484 100.436C216.643 101.492 212.677 99.213 211.622 95.3655L211.487 94.8532C211.372 94.4036 211.622 93.9331 212.071 93.8181C212.52 93.7031 212.99 93.954 213.105 94.4036L213.24 94.9159C214.033 97.8538 217.081 99.6103 220.035 98.7843C222.968 97.9897 224.721 94.9368 223.897 91.978L223.761 91.4657C223.646 91.0161 223.897 90.5456 224.346 90.4306C224.795 90.3156 225.264 90.5665 225.379 91.0161L225.515 91.5284C226.6 95.4073 224.335 99.3803 220.484 100.436Z" fill="url(#paint11_linear_131_6034)"/>
<path d="M225.525 101.534C225.943 101.419 226.089 100.928 225.807 100.593C224.429 99.0249 222.216 98.2721 220.087 98.8576C217.927 99.4431 216.434 101.21 216.037 103.27C215.964 103.688 216.34 104.043 216.768 103.949L225.525 101.534Z" fill="url(#paint12_linear_131_6034)"/>
<path d="M198.502 122.476C199.348 120.688 201.665 119.161 203.418 119.308C205.172 119.444 204.619 119.496 205.172 119.444C205.736 119.402 206.602 118.806 207.771 119.161C209.086 119.559 211.852 121.012 211.894 124.253C211.935 127.024 209.921 130.192 206.268 130.924C202.615 131.655 200.152 130.286 199.045 128.717C197.803 126.909 197.688 124.19 198.502 122.476Z" fill="#FF5856"/>
<path d="M204.201 121.608C204.201 121.608 203.92 117.457 205.611 115.69C207.489 113.746 209.942 111.916 209.754 113.108C209.712 113.39 210.109 117.405 208.982 118.911C207.27 121.211 204.201 121.608 204.201 121.608Z" fill="#4C7378"/>
<path d="M203.753 121.44C203.753 121.44 203.429 119.653 203.116 118.649C202.458 116.579 202.041 115.596 202.041 115.596L203.867 115.199C203.867 115.199 204.546 117.635 204.661 118.576C204.89 120.238 204.755 121.346 204.755 121.346C204.755 121.346 204.525 121.723 204.191 121.67C203.826 121.681 203.753 121.44 203.753 121.44Z" fill="#6B4D3A"/>
<path d="M203.038 115.852C203.549 115.763 203.929 115.493 203.886 115.248C203.844 115.003 203.395 114.877 202.884 114.967C202.373 115.056 201.993 115.326 202.035 115.571C202.078 115.815 202.527 115.941 203.038 115.852Z" fill="#8A634B"/>
<path d="M238.342 133.882H195.695C195.319 133.882 195.016 133.579 195.016 133.202V131.509C195.016 131.132 195.319 130.829 195.695 130.829H238.322C238.697 130.829 239 131.132 239 131.509V133.202C239 133.579 238.697 133.882 238.342 133.882Z" fill="#C5C6E3"/>
<path d="M216.695 130.338H207.364V127.055H216.695C216.956 127.055 217.144 127.264 217.144 127.505V129.878C217.165 130.129 216.946 130.338 216.695 130.338Z" fill="#F8D0B3"/>
<path d="M233.489 126.543H214.973H206.852H206.592C206.456 126.543 206.331 126.658 206.331 126.804C206.331 126.94 206.445 127.066 206.592 127.066H207.364H216.225C216.737 127.066 217.144 127.484 217.144 127.986V129.439C217.144 129.951 216.726 130.359 216.225 130.359H214.211H206.665C206.529 130.359 206.404 130.474 206.404 130.62C206.404 130.756 206.518 130.882 206.665 130.882H206.852H215.035H233.499C234.011 130.882 234.418 130.464 234.418 129.962V127.494C234.407 126.94 234.011 126.543 233.489 126.543Z" fill="#FF7A82"/>
<path d="M221.235 126.302H206.164V123.134H221.235C221.684 123.134 222.029 123.49 222.029 123.929V125.497C222.029 125.947 221.684 126.302 221.235 126.302Z" fill="#F8E7D8"/>
<path d="M230.66 122.904H205.516C205.443 122.904 205.402 122.946 205.402 123.019C205.402 123.092 205.443 123.134 205.516 123.134H220.421C221.287 123.134 222.018 123.835 222.018 124.734C222.018 125.602 221.319 126.334 220.421 126.334H205.516C205.443 126.334 205.402 126.375 205.402 126.449C205.402 126.522 205.443 126.564 205.516 126.564H230.639C231.506 126.564 232.236 125.863 232.236 124.964V124.493C232.226 123.605 231.527 122.904 230.66 122.904Z" fill="#4E53BA"/>
<path d="M217.624 125.361H206.143V125.225H217.624C217.666 125.225 217.697 125.246 217.697 125.298C217.718 125.34 217.676 125.361 217.624 125.361Z" fill="#DEBCA7"/>
<path d="M220.275 124.326H206.164V124.19H220.275C220.317 124.19 220.348 124.211 220.348 124.264C220.348 124.285 220.327 124.326 220.275 124.326Z" fill="#DEBCA7"/>
<path d="M199.556 76.3157C200.03 75.391 198.464 73.639 196.059 72.4024C193.653 71.1659 191.319 70.9131 190.846 71.8379C190.372 72.7626 191.938 74.5146 194.343 75.7511C196.748 76.9877 199.082 77.2404 199.556 76.3157Z" fill="#D4BFA9"/>
<path d="M191.708 70.3147C192.595 68.6942 193.346 67.0318 193.701 65.2231C194.474 61.3233 193.42 56.7962 195.904 53.7223C197.688 51.4954 200.872 50.8158 203.68 51.2131C207.124 51.7045 210.401 53.7223 211.977 56.8275C213.543 59.9223 213.146 64.0625 210.662 66.4777C208.575 68.5164 205.464 69.1751 203.283 71.0989C202.062 72.1758 201.195 73.6081 200.287 74.9673L199.985 75.3855C193.326 74.6641 191.708 70.3147 191.708 70.3147Z" fill="#EBDBCD"/>
<path d="M203.471 64.282C203.189 63.2469 202.302 63.2992 201.498 63.6442C201.31 63.0796 201.008 62.3582 200.423 62.1177C199.766 61.8564 199.014 62.3059 198.503 62.7032C197.375 63.571 196.509 64.8361 195.998 66.1534C195.486 67.4708 195.225 68.8718 194.756 70.2101C194.568 70.7537 195.434 70.9837 195.622 70.4401C196.206 68.7463 196.446 66.8958 197.375 65.3484C197.887 64.4806 198.638 63.4665 199.598 63.0692C199.901 62.9332 200.11 62.9019 200.329 63.2051C200.496 63.4351 200.611 63.7174 200.684 63.9788C200.684 63.9997 200.705 64.0206 200.705 64.0519C200.59 64.1251 200.496 64.1879 200.402 64.261C199.484 64.9406 198.273 66.1639 198.294 67.4081C198.294 67.9726 198.649 68.4431 199.233 68.4849C199.87 68.5268 200.496 68.0354 200.893 67.5649C201.644 66.6971 201.874 65.5679 201.717 64.4702C201.926 64.3551 202.114 64.282 202.302 64.261C202.865 64.2192 202.604 65.1288 202.531 65.432C202.25 66.4462 201.665 67.3349 201.102 68.2027C200.684 68.8613 200.308 69.5618 199.786 70.1473C199.223 70.806 198.471 71.2556 197.772 71.7156C197.281 72.0188 197.73 72.7925 198.221 72.4893C199.066 71.9456 199.933 71.4124 200.569 70.6387C201.248 69.8128 201.811 68.8822 202.354 67.9622C202.938 66.9899 203.805 65.4843 203.471 64.282ZM200.799 65.8084C200.684 66.2789 200.475 66.7285 200.141 67.0735C199.953 67.2826 199.087 67.9936 199.16 67.3349C199.202 66.9376 199.515 66.5089 199.745 66.1848C200.047 65.7666 200.444 65.3902 200.872 65.0556C200.872 65.2961 200.872 65.5575 200.799 65.8084Z" fill="#BFA990"/>
<path d="M194.338 75.762C192.157 74.6538 190.685 73.1064 190.747 72.1445L189.641 76.0443C189.265 76.7971 190.528 78.2086 192.48 79.2123C194.421 80.2264 196.321 80.4355 196.697 79.6827C196.718 79.6409 196.718 79.6096 196.739 79.5677L199.338 76.588C198.628 77.1944 196.519 76.8912 194.338 75.762Z" fill="#BFA990"/>
<path d="M170.123 45.8391C170.102 45.8391 170.081 45.8391 170.05 45.8182C169.956 45.7764 169.914 45.6509 169.956 45.5568C170.123 45.1805 170.311 44.825 170.561 44.5009C170.634 44.4068 170.749 44.3859 170.843 44.459C170.937 44.5322 170.958 44.6472 170.885 44.7413C170.655 45.0445 170.467 45.3791 170.321 45.7241C170.29 45.7869 170.217 45.8391 170.123 45.8391Z" fill="#110580"/>
<path d="M201.79 57.9251C201.769 57.9251 201.749 57.9251 201.717 57.9042L201.435 57.8101C200.799 57.5801 200.152 57.3187 199.442 57.0364C199.348 56.9946 199.306 56.8692 199.327 56.7751C199.369 56.681 199.494 56.6392 199.588 56.6601C200.266 56.9424 200.924 57.2037 201.561 57.4337L201.843 57.5278C201.936 57.5697 202.01 57.6951 201.957 57.7892C201.947 57.8729 201.884 57.9251 201.79 57.9251ZM197.334 56.0432C197.313 56.0432 197.26 56.0432 197.24 56.0223C196.467 55.625 195.789 55.1963 195.131 54.7572C195.037 54.684 195.016 54.569 195.09 54.4749C195.163 54.3808 195.277 54.3599 195.371 54.4331C196.008 54.8827 196.655 55.28 197.438 55.6564C197.532 55.6982 197.574 55.8236 197.532 55.9177C197.48 56.0014 197.407 56.0432 197.334 56.0432ZM193.399 53.2517C193.357 53.2517 193.305 53.2308 193.263 53.1785C192.678 52.593 192.157 51.9343 191.718 51.2547C191.645 51.1606 191.697 51.0456 191.791 50.9724C191.885 50.8993 192 50.9515 192.073 51.0456C192.491 51.7043 192.992 52.3107 193.576 52.8962C193.649 52.9694 193.649 53.1053 193.576 53.1785C193.493 53.2308 193.44 53.2517 193.399 53.2517ZM190.8 49.1951C190.727 49.1951 190.633 49.1532 190.612 49.0591C190.33 48.2855 190.121 47.4909 190.006 46.6649C189.986 46.5499 190.079 46.4558 190.173 46.4349C190.288 46.414 190.382 46.5081 190.403 46.6022C190.518 47.3759 190.706 48.1495 190.988 48.9023C191.029 48.9964 190.967 49.1114 190.873 49.1637C190.841 49.1951 190.821 49.1951 190.8 49.1951ZM192.104 46.6335C191.656 46.6335 191.217 46.6126 190.768 46.5394C190.654 46.5185 190.581 46.4244 190.601 46.3094C190.622 46.1944 190.716 46.1212 190.831 46.1421C191.248 46.2153 191.697 46.2362 192.115 46.2362C192.491 46.2362 192.845 46.2153 193.19 46.1631C193.305 46.1421 193.399 46.2362 193.42 46.3303C193.44 46.4244 193.346 46.5394 193.252 46.5604C192.856 46.6126 192.48 46.6335 192.104 46.6335ZM188.451 45.933C188.43 45.933 188.409 45.933 188.378 45.933C187.7 45.703 187.021 45.3894 186.124 44.9921C186.03 44.9503 185.988 44.8248 186.03 44.7307C186.071 44.6366 186.197 44.5948 186.291 44.6366C187.157 45.0339 187.835 45.3371 188.514 45.5776C188.608 45.6194 188.681 45.7135 188.629 45.8389C188.618 45.8808 188.524 45.933 188.451 45.933ZM195.507 45.8389C195.434 45.8389 195.371 45.7971 195.34 45.7448C195.298 45.6508 195.319 45.5357 195.413 45.4626C195.789 45.2535 196.112 45.013 196.425 44.7307C196.686 44.5007 196.916 44.2184 197.104 43.8838C197.146 43.7897 197.292 43.7688 197.386 43.8106C197.48 43.8525 197.501 43.9988 197.459 44.0929C197.25 44.4484 196.989 44.7516 196.707 45.013C196.384 45.3162 196.029 45.5776 195.632 45.7867C195.58 45.8389 195.528 45.8389 195.507 45.8389ZM190.163 44.4275C190.027 44.4066 189.954 44.3125 189.975 44.2184C190.069 43.3506 190.299 42.556 190.654 41.8242C190.695 41.7301 190.821 41.6882 190.915 41.7301C191.008 41.7719 191.05 41.8973 191.008 41.9914C190.685 42.671 190.445 43.4238 190.351 44.2498C190.351 44.3543 190.257 44.4275 190.163 44.4275ZM184.026 43.957C184.005 43.957 183.984 43.957 183.932 43.9361C183.671 43.8211 183.42 43.7061 183.159 43.5806C182.648 43.3506 182.178 43.1624 181.73 42.9742C181.636 42.9324 181.562 42.8069 181.615 42.7128C181.656 42.6187 181.782 42.5456 181.876 42.5978C182.345 42.786 182.815 42.9742 183.326 43.2042C183.587 43.3192 183.838 43.4343 184.099 43.5597C184.193 43.6015 184.234 43.727 184.193 43.8211C184.161 43.9152 184.099 43.957 184.026 43.957ZM172.471 43.1833C172.398 43.1833 172.336 43.1624 172.304 43.0892C172.231 42.9951 172.284 42.8801 172.377 42.8069C173.056 42.3574 173.828 42.0333 174.653 41.8242C174.768 41.8032 174.862 41.866 174.882 41.9601C174.903 42.0751 174.841 42.1692 174.747 42.1901C173.974 42.3992 173.244 42.7024 172.586 43.1311C172.565 43.1833 172.513 43.1833 172.471 43.1833ZM179.506 42.2633C179.485 42.2633 179.485 42.2633 179.465 42.2633C178.64 42.0751 177.847 41.981 177.095 41.9601C176.98 41.9601 176.907 41.866 176.907 41.751C176.907 41.636 177.001 41.5628 177.095 41.5628C177.868 41.5837 178.692 41.6778 179.527 41.866C179.642 41.8869 179.694 42.0019 179.663 42.096C179.663 42.2214 179.59 42.2633 179.506 42.2633ZM197.876 41.8869C197.761 41.8869 197.688 41.7928 197.688 41.6987C197.668 41.0191 197.407 40.4336 197.01 40.0049C196.916 39.9109 196.822 39.8168 196.728 39.7436C196.634 39.6704 196.634 39.5554 196.686 39.4613C196.759 39.3672 196.874 39.3672 196.968 39.4195C197.083 39.5136 197.198 39.6077 197.292 39.7227C197.782 40.235 198.064 40.8936 198.085 41.6673C198.085 41.7928 197.991 41.8869 197.876 41.8869C197.897 41.8869 197.876 41.8869 197.876 41.8869ZM192.324 40.2245C192.25 40.2245 192.209 40.2036 192.157 40.1513C192.083 40.0572 192.115 39.9422 192.198 39.869C192.877 39.3567 193.701 39.0013 194.495 38.8862C194.609 38.8653 194.703 38.9594 194.724 39.0535C194.745 39.1685 194.651 39.2626 194.557 39.2835C193.806 39.3776 193.054 39.7017 192.449 40.2036C192.417 40.2245 192.365 40.2245 192.324 40.2245Z" fill="#110580"/>
<path d="M205.026 59.4935C204.984 59.4935 204.932 59.4726 204.89 59.4517C204.682 59.2635 204.379 59.0544 203.951 58.8453C203.857 58.8035 203.815 58.678 203.857 58.5839C203.899 58.4898 204.024 58.448 204.118 58.4898C204.567 58.7199 204.89 58.9394 205.151 59.1485C205.224 59.2217 205.245 59.3576 205.172 59.4308C205.141 59.4726 205.068 59.4935 205.026 59.4935Z" fill="#110580"/>
<path d="M203.262 34.2652C204.577 38.7296 204.462 42.8594 204.337 47.4387C204.316 48.7038 208.439 48.3065 208.721 47.2087C209.827 42.7966 209.044 38.0291 207.646 33.7843C207.197 32.3833 202.907 33.0629 203.262 34.2652Z" fill="#F3E9E1"/>
<path d="M220.86 43.0372C218.866 46.6337 216.361 49.6135 213.804 52.7605C212.677 54.1406 216.612 53.9105 217.342 53.2519C220.484 50.4812 222.916 46.7487 224.795 43.0372C225.358 41.9603 221.444 41.9603 220.86 43.0372Z" fill="#F3E9E1"/>
<path d="M220.16 61.7518C222.968 61.825 225.786 61.9609 228.573 62.1282C229.585 62.2014 231.151 61.8041 231.454 60.6749C231.756 59.5458 230.42 58.9394 229.533 58.8871C226.726 58.7198 223.928 58.6048 221.121 58.5107C220.108 58.4898 218.563 58.8139 218.24 59.964C217.937 61.0931 219.242 61.7309 220.16 61.7518Z" fill="#F3E9E1"/>
<path d="M169.706 129.261C169.706 129.261 170.311 132.732 170.363 134.426C170.384 135.461 170.363 137.103 170.363 137.103C170.363 137.103 171.136 137.103 171.532 137.061C171.929 137.04 172.398 136.946 172.398 136.946C172.398 136.946 171.929 135.398 171.438 133.851C170.969 132.481 169.706 129.261 169.706 129.261Z" fill="#E0E0E0"/>
<path d="M142.777 129.073C142.777 129.073 141.931 131.488 141.555 133.035C141.274 134.206 141.388 135.241 141.326 135.524C141.232 136.015 140.741 137.374 140.501 138.012C140.428 138.2 140.219 138.315 140.032 138.273C139.708 138.2 139.207 138.085 138.831 137.97C138.226 137.782 137.798 137.594 137.892 137.646C137.892 137.646 139.207 135.764 140.146 134.175C140.95 132.805 142.777 129.073 142.777 129.073Z" fill="#E0E0E0"/>
<path d="M170.196 160.971C175.519 171.531 178.776 183.032 180.529 194.7C182.408 207.047 182.564 219.604 181.98 232.067C181.656 239.27 181.04 246.453 180.362 253.636C180.289 254.462 181.562 254.43 181.625 253.636C182.846 240.744 183.806 227.811 183.472 214.878C183.17 202.792 181.74 190.675 178.483 179.038C176.678 172.608 174.287 166.314 171.292 160.334C170.927 159.612 169.82 160.25 170.196 160.971Z" fill="white"/>
<path d="M141.19 161.233C136.545 171.96 133.967 183.419 132.569 194.993C131.118 206.891 130.763 218.956 130.909 230.927C131.003 238.037 131.358 245.125 132.172 252.193C132.266 252.988 133.529 253.019 133.435 252.193C132.005 239.845 131.932 227.383 132.381 214.962C132.778 203.388 133.759 191.772 136.337 180.429C137.767 174.093 139.708 167.82 142.286 161.86C142.589 161.139 141.514 160.48 141.19 161.233Z" fill="white"/>
<path d="M112.644 133.391H112.101H110.347C110.233 133.579 110.086 133.746 109.93 133.882H112.623C112.759 133.882 112.884 133.767 112.884 133.621C112.905 133.506 112.79 133.391 112.644 133.391Z" fill="#2B31BA"/>
<path d="M112.644 125.32C112.779 125.32 112.905 125.205 112.905 125.058C112.905 124.922 112.79 124.797 112.644 124.797H110.817V125.288L112.644 125.32Z" fill="#2B31BA"/>
<path d="M109.335 134.781C108.26 134.551 107.174 134.238 106.12 133.893H83.095V133.966C83.095 134.509 83.2828 135.001 83.6064 135.471H107.999C108.5 135.461 108.938 135.22 109.335 134.781Z" fill="#E3996D"/>
<path d="M199.118 134.75C199.515 135.2 199.985 135.451 200.475 135.451H226.016C226.131 135.147 226.204 134.844 226.183 134.489V133.882H202.229C201.206 134.217 200.173 134.52 199.118 134.75Z" fill="#E3996D"/>
<path d="M156.231 153.507C150.793 153.507 143.017 152.189 143.017 152.189C143.017 152.189 142.902 152.796 142.756 153.622C146.273 154.73 151.033 155.284 156.252 155.096C161.168 154.908 165.624 154.04 168.996 152.796C169.037 152.775 169.069 152.754 169.111 152.723C169.111 152.702 169.111 152.681 169.111 152.681C169.111 152.681 161.971 153.528 156.231 153.507Z" fill="#F0A173"/>
</g>
<defs>
<linearGradient id="paint0_linear_131_6034" x1="105.04" y1="60.9902" x2="105.04" y2="73.4798" gradientUnits="userSpaceOnUse">
<stop stop-color="#DC3D8E"/>
<stop offset="1" stop-color="#AC4DBA"/>
</linearGradient>
<linearGradient id="paint1_linear_131_6034" x1="114.958" y1="67.6577" x2="114.958" y2="74.0949" gradientUnits="userSpaceOnUse">
<stop stop-color="#DC3D8E"/>
<stop offset="1" stop-color="#AC4DBA"/>
</linearGradient>
<linearGradient id="paint2_linear_131_6034" x1="91.3459" y1="93.1251" x2="91.365" y2="93.3858" gradientUnits="userSpaceOnUse">
<stop stop-color="#DC3D8E"/>
<stop offset="1" stop-color="#AC4DBA"/>
</linearGradient>
<linearGradient id="paint3_linear_131_6034" x1="91.5341" y1="95.5714" x2="91.5532" y2="95.8321" gradientUnits="userSpaceOnUse">
<stop stop-color="#DC3D8E"/>
<stop offset="1" stop-color="#AC4DBA"/>
</linearGradient>
<linearGradient id="paint4_linear_131_6034" x1="91.7216" y1="98.0075" x2="91.7407" y2="98.2681" gradientUnits="userSpaceOnUse">
<stop stop-color="#DC3D8E"/>
<stop offset="1" stop-color="#AC4DBA"/>
</linearGradient>
<linearGradient id="paint5_linear_131_6034" x1="91.8786" y1="100.454" x2="91.8977" y2="100.715" gradientUnits="userSpaceOnUse">
<stop stop-color="#DC3D8E"/>
<stop offset="1" stop-color="#AC4DBA"/>
</linearGradient>
<linearGradient id="paint6_linear_131_6034" x1="92.0666" y1="102.922" x2="92.0857" y2="103.182" gradientUnits="userSpaceOnUse">
<stop stop-color="#DC3D8E"/>
<stop offset="1" stop-color="#AC4DBA"/>
</linearGradient>
<linearGradient id="paint7_linear_131_6034" x1="92.2331" y1="105.358" x2="92.2522" y2="105.618" gradientUnits="userSpaceOnUse">
<stop stop-color="#DC3D8E"/>
<stop offset="1" stop-color="#AC4DBA"/>
</linearGradient>
<linearGradient id="paint8_linear_131_6034" x1="92.4214" y1="107.804" x2="92.4404" y2="108.065" gradientUnits="userSpaceOnUse">
<stop stop-color="#DC3D8E"/>
<stop offset="1" stop-color="#AC4DBA"/>
</linearGradient>
<linearGradient id="paint9_linear_131_6034" x1="93.8594" y1="103.677" x2="93.8594" y2="115.763" gradientUnits="userSpaceOnUse">
<stop stop-color="#DC3D8E"/>
<stop offset="1" stop-color="#AC4DBA"/>
</linearGradient>
<linearGradient id="paint10_linear_131_6034" x1="218.084" y1="85.1421" x2="218.084" y2="98.0505" gradientUnits="userSpaceOnUse">
<stop stop-color="#DC3D8E"/>
<stop offset="1" stop-color="#AC4DBA"/>
</linearGradient>
<linearGradient id="paint11_linear_131_6034" x1="218.623" y1="90.4028" x2="218.623" y2="100.694" gradientUnits="userSpaceOnUse">
<stop stop-color="#DC3D8E"/>
<stop offset="1" stop-color="#AC4DBA"/>
</linearGradient>
<linearGradient id="paint12_linear_131_6034" x1="220.99" y1="98.6597" x2="220.99" y2="103.965" gradientUnits="userSpaceOnUse">
<stop stop-color="#DC3D8E"/>
<stop offset="1" stop-color="#AC4DBA"/>
</linearGradient>
<clipPath id="clip0_131_6034">
<rect width="167" height="246" fill="white" transform="translate(72 33)"/>
</clipPath>
</defs>
</svg>
