<svg width="40" height="40" viewBox="0 0 40 40" fill="none" xmlns="http://www.w3.org/2000/svg">
<circle cx="20" cy="20" r="19.5" stroke="#7EC4CF"/>
<path fill-rule="evenodd" clip-rule="evenodd" d="M26.9457 16.5211L29.2492 18.8244C29.4779 19.0533 29.4779 19.4243 29.2492 19.6531C29.0203 19.8819 28.6493 19.8819 28.4205 19.6531L25.7029 16.9354L23.0645 14.2972L20.3469 11.5794C20.118 11.3506 20.118 10.9796 20.3469 10.7507C20.5756 10.522 20.9467 10.522 21.1754 10.7507L23.4789 13.0542L24.6055 11.9276L23.678 11.0002C23.4492 10.7715 23.4492 10.4004 23.678 10.1717C23.9069 9.94278 24.2779 9.94278 24.5067 10.1717L29.8284 15.4933C30.0571 15.722 30.0571 16.0931 29.8284 16.3219C29.5995 16.5507 29.2286 16.5507 28.9997 16.3219L28.0723 15.3946L26.9457 16.5211ZM14.1684 20.3697C12.9816 21.5565 12.9816 23.4875 14.1684 24.6743L15.3257 25.8317C16.5125 27.0186 18.4435 27.0186 19.6303 25.8317L20.1598 25.3022L17.4288 22.5712C17.2001 22.3425 17.2001 21.9714 17.4288 21.7427C17.6577 21.5138 18.0286 21.5138 18.2575 21.7427L20.9883 24.4737L22.1723 23.2898L19.4413 20.5588C19.2125 20.33 19.2125 19.9589 19.4413 19.7302C19.6701 19.5013 20.0411 19.5013 20.27 19.7302L23.001 22.4611L24.1847 21.2773L21.4537 18.5463C21.225 18.3174 21.225 17.9465 21.4537 17.7177C21.6826 17.4888 22.0536 17.4888 22.2824 17.7177L25.0135 20.4486L26.286 19.176L20.8242 13.714L14.1684 20.3697ZM12.623 24.5474C12.8107 24.8905 13.0493 25.2129 13.3395 25.5031L14.4969 26.6605C14.787 26.9505 15.1094 27.1893 15.4526 27.377L14.0889 28.7405C13.86 28.9694 13.4891 28.9694 13.2602 28.7405L11.2593 26.7397C11.0304 26.5108 11.0304 26.1398 11.2593 25.9111L12.623 24.5474ZM10.1717 29.8285C9.94278 29.5996 9.94278 29.2287 10.1717 28.9998L11.017 28.1545L11.8455 28.983L11.0002 29.8285C10.7715 30.0572 10.4004 30.0572 10.1717 29.8285Z" fill="#7EC4CF"/>
</svg>
