<svg width="40" height="40" viewBox="0 0 40 40" fill="none" xmlns="http://www.w3.org/2000/svg">
<mask id="path-1-inside-1_1964_3194" fill="white">
<path fill-rule="evenodd" clip-rule="evenodd" d="M20 40C31.0457 40 40 31.0457 40 20C40 8.9543 31.0457 0 20 0C8.9543 0 0 8.9543 0 20C0 31.0457 8.9543 40 20 40ZM29.2492 18.8244L26.9457 16.5211L28.0723 15.3946L28.9997 16.3219C29.2286 16.5507 29.5995 16.5507 29.8284 16.3219C30.0571 16.0931 30.0571 15.722 29.8284 15.4933L24.5067 10.1717C24.2779 9.94278 23.9069 9.94278 23.678 10.1717C23.4492 10.4004 23.4492 10.7715 23.678 11.0002L24.6055 11.9276L23.4789 13.0542L21.1754 10.7507C20.9467 10.522 20.5756 10.522 20.3469 10.7507C20.118 10.9796 20.118 11.3506 20.3469 11.5794L23.0645 14.2972L25.7029 16.9354L28.4205 19.6532C28.6493 19.8819 29.0203 19.8819 29.2492 19.6532C29.4779 19.4243 29.4779 19.0533 29.2492 18.8244ZM14.1684 24.6743C12.9816 23.4875 12.9816 21.5565 14.1684 20.3697L20.8242 13.714L26.286 19.176L25.0135 20.4486L22.2824 17.7177C22.0536 17.4888 21.6826 17.4888 21.4537 17.7177C21.225 17.9465 21.225 18.3174 21.4537 18.5463L24.1847 21.2773L23.001 22.4611L20.27 19.7302C20.0411 19.5013 19.6701 19.5013 19.4413 19.7302C19.2125 19.9589 19.2125 20.33 19.4413 20.5588L22.1723 23.2898L20.9883 24.4737L18.2575 21.7427C18.0286 21.5138 17.6577 21.5138 17.4288 21.7427C17.2001 21.9714 17.2001 22.3425 17.4288 22.5712L20.1598 25.3022L19.6303 25.8317C18.4435 27.0186 16.5125 27.0186 15.3257 25.8317L14.1684 24.6743ZM13.3395 25.5031C13.0493 25.2129 12.8107 24.8905 12.623 24.5474L11.2593 25.9111C11.0304 26.1398 11.0304 26.5108 11.2593 26.7397L13.2602 28.7405C13.4891 28.9694 13.86 28.9694 14.0889 28.7405L15.4526 27.377C15.1094 27.1893 14.787 26.9505 14.4969 26.6605L13.3395 25.5031ZM10.1717 28.9998C9.94278 29.2287 9.94278 29.5996 10.1717 29.8285C10.4004 30.0572 10.7715 30.0572 11.0002 29.8285L11.8455 28.983L11.017 28.1545L10.1717 28.9998Z"/>
</mask>
<path fill-rule="evenodd" clip-rule="evenodd" d="M20 40C31.0457 40 40 31.0457 40 20C40 8.9543 31.0457 0 20 0C8.9543 0 0 8.9543 0 20C0 31.0457 8.9543 40 20 40ZM29.2492 18.8244L26.9457 16.5211L28.0723 15.3946L28.9997 16.3219C29.2286 16.5507 29.5995 16.5507 29.8284 16.3219C30.0571 16.0931 30.0571 15.722 29.8284 15.4933L24.5067 10.1717C24.2779 9.94278 23.9069 9.94278 23.678 10.1717C23.4492 10.4004 23.4492 10.7715 23.678 11.0002L24.6055 11.9276L23.4789 13.0542L21.1754 10.7507C20.9467 10.522 20.5756 10.522 20.3469 10.7507C20.118 10.9796 20.118 11.3506 20.3469 11.5794L23.0645 14.2972L25.7029 16.9354L28.4205 19.6532C28.6493 19.8819 29.0203 19.8819 29.2492 19.6532C29.4779 19.4243 29.4779 19.0533 29.2492 18.8244ZM14.1684 24.6743C12.9816 23.4875 12.9816 21.5565 14.1684 20.3697L20.8242 13.714L26.286 19.176L25.0135 20.4486L22.2824 17.7177C22.0536 17.4888 21.6826 17.4888 21.4537 17.7177C21.225 17.9465 21.225 18.3174 21.4537 18.5463L24.1847 21.2773L23.001 22.4611L20.27 19.7302C20.0411 19.5013 19.6701 19.5013 19.4413 19.7302C19.2125 19.9589 19.2125 20.33 19.4413 20.5588L22.1723 23.2898L20.9883 24.4737L18.2575 21.7427C18.0286 21.5138 17.6577 21.5138 17.4288 21.7427C17.2001 21.9714 17.2001 22.3425 17.4288 22.5712L20.1598 25.3022L19.6303 25.8317C18.4435 27.0186 16.5125 27.0186 15.3257 25.8317L14.1684 24.6743ZM13.3395 25.5031C13.0493 25.2129 12.8107 24.8905 12.623 24.5474L11.2593 25.9111C11.0304 26.1398 11.0304 26.5108 11.2593 26.7397L13.2602 28.7405C13.4891 28.9694 13.86 28.9694 14.0889 28.7405L15.4526 27.377C15.1094 27.1893 14.787 26.9505 14.4969 26.6605L13.3395 25.5031ZM10.1717 28.9998C9.94278 29.2287 9.94278 29.5996 10.1717 29.8285C10.4004 30.0572 10.7715 30.0572 11.0002 29.8285L11.8455 28.983L11.017 28.1545L10.1717 28.9998Z" fill="#7EC4CF"/>
<path d="M26.9457 16.5211L26.2386 15.814L25.5315 16.5212L26.2386 17.2283L26.9457 16.5211ZM29.2492 18.8244L29.9565 18.1176L29.9562 18.1173L29.2492 18.8244ZM28.0723 15.3946L28.7793 14.6874L28.0722 13.9804L27.3651 14.6875L28.0723 15.3946ZM28.9997 16.3219L29.7068 15.6148L29.7067 15.6147L28.9997 16.3219ZM29.8284 16.3219L29.1213 15.6148L29.1213 15.6148L29.8284 16.3219ZM29.8284 15.4933L29.1213 16.2004L29.8284 15.4933ZM24.5067 10.1717L25.2138 9.46455L24.5067 10.1717ZM23.678 10.1717L24.3849 10.879L24.3851 10.8788L23.678 10.1717ZM23.678 11.0002L24.3851 10.2931L24.3849 10.2929L23.678 11.0002ZM24.6055 11.9276L25.3126 12.6347L26.0197 11.9276L25.3126 11.2205L24.6055 11.9276ZM23.4789 13.0542L22.7718 13.7613L23.4789 14.4684L24.186 13.7613L23.4789 13.0542ZM21.1754 10.7507L20.4683 11.4578L21.1754 10.7507ZM20.3469 10.7507L21.054 11.4578L21.054 11.4578L20.3469 10.7507ZM20.3469 11.5794L21.054 10.8723L21.054 10.8723L20.3469 11.5794ZM23.0645 14.2972L22.3574 15.0043L22.3574 15.0043L23.0645 14.2972ZM25.7029 16.9354L26.41 16.2283L26.41 16.2283L25.7029 16.9354ZM28.4205 19.6532L27.7133 20.3602L27.7136 20.3605L28.4205 19.6532ZM29.2492 19.6532L29.956 20.3605L29.9565 20.36L29.2492 19.6532ZM14.1684 20.3697L13.4613 19.6626V19.6626L14.1684 20.3697ZM14.1684 24.6743L14.8756 23.9673L14.8755 23.9672L14.1684 24.6743ZM20.8242 13.714L21.5313 13.0069L20.8242 12.2998L20.1171 13.0069L20.8242 13.714ZM26.286 19.176L26.9931 19.8831L27.7002 19.176L26.9931 18.4689L26.286 19.176ZM25.0135 20.4486L24.3064 21.1557L25.0135 21.8628L25.7206 21.1557L25.0135 20.4486ZM22.2824 17.7177L21.5753 18.4248L21.5754 18.4249L22.2824 17.7177ZM21.4537 17.7177L22.1608 18.4248L22.1608 18.4248L21.4537 17.7177ZM21.4537 18.5463L20.7464 19.2531L20.7466 19.2534L21.4537 18.5463ZM24.1847 21.2773L24.8919 21.9844L25.599 21.2773L24.8919 20.5702L24.1847 21.2773ZM23.001 22.4611L22.2939 23.1682L23.001 23.8753L23.7081 23.1682L23.001 22.4611ZM20.27 19.7302L19.5629 20.4373L19.5629 20.4373L20.27 19.7302ZM19.4413 19.7302L20.1484 20.4373L20.1484 20.4373L19.4413 19.7302ZM22.1723 23.2898L22.8794 23.9969L23.5865 23.2898L22.8794 22.5827L22.1723 23.2898ZM20.9883 24.4737L20.2812 25.1808L20.9883 25.8879L21.6954 25.1808L20.9883 24.4737ZM18.2575 21.7427L18.9646 21.0356L18.9646 21.0356L18.2575 21.7427ZM17.4288 21.7427L18.1359 22.4498L18.1359 22.4498L17.4288 21.7427ZM20.1598 25.3022L20.8669 26.0094L21.574 25.3022L20.8669 24.5951L20.1598 25.3022ZM19.6303 25.8317L20.3374 26.5388L20.3374 26.5388L19.6303 25.8317ZM15.3257 25.8317L14.6185 26.5388L14.6186 26.5388L15.3257 25.8317ZM12.623 24.5474L13.5003 24.0674L12.8596 22.8966L11.9159 23.8403L12.623 24.5474ZM13.3395 25.5031L14.0466 24.796L14.0466 24.796L13.3395 25.5031ZM11.2593 25.9111L11.9662 26.6185L11.9664 26.6182L11.2593 25.9111ZM11.2593 26.7397L10.5522 27.4468L11.2593 26.7397ZM13.2602 28.7405L13.9673 28.0334L13.2602 28.7405ZM14.0889 28.7405L13.3818 28.0334L13.3818 28.0334L14.0889 28.7405ZM15.4526 27.377L16.1596 28.0842L17.1037 27.1402L15.9324 26.4997L15.4526 27.377ZM14.4969 26.6605L13.7898 27.3676H13.7898L14.4969 26.6605ZM10.1717 29.8285L10.8788 29.1214L10.8788 29.1214L10.1717 29.8285ZM11.0002 29.8285L11.7073 30.5356L11.7074 30.5356L11.0002 29.8285ZM11.8455 28.983L12.5527 29.6901L13.2597 28.983L12.5527 28.2759L11.8455 28.983ZM11.017 28.1545L11.7241 27.4474L11.017 26.7403L10.3099 27.4474L11.017 28.1545ZM39 20C39 30.4934 30.4934 39 20 39V41C31.598 41 41 31.598 41 20H39ZM20 1C30.4934 1 39 9.50659 39 20H41C41 8.40202 31.598 -1 20 -1V1ZM1 20C1 9.50659 9.50659 1 20 1V-1C8.40202 -1 -1 8.40202 -1 20H1ZM20 39C9.50659 39 1 30.4934 1 20H-1C-1 31.598 8.40202 41 20 41V39ZM26.2386 17.2283L28.5421 19.5316L29.9562 18.1173L27.6528 15.814L26.2386 17.2283ZM27.3651 14.6875L26.2386 15.814L27.6528 17.2282L28.7794 16.1017L27.3651 14.6875ZM29.7067 15.6147L28.7793 14.6874L27.3652 16.1017L28.2926 17.029L29.7067 15.6147ZM29.1213 15.6148C29.2829 15.4531 29.5451 15.4531 29.7068 15.6148L28.2926 17.029C28.912 17.6484 29.9161 17.6484 30.5355 17.029L29.1213 15.6148ZM29.1213 16.2004C28.9595 16.0386 28.9595 15.7765 29.1213 15.6148L30.5355 17.029C31.1547 16.4097 31.1547 15.4055 30.5355 14.7862L29.1213 16.2004ZM23.7996 10.8788L29.1213 16.2004L30.5355 14.7862L25.2138 9.46455L23.7996 10.8788ZM24.3851 10.8788C24.2235 11.0404 23.9613 11.0404 23.7996 10.8788L25.2138 9.46455C24.5944 8.84515 23.5903 8.84515 22.9709 9.46455L24.3851 10.8788ZM24.3849 10.2929C24.5469 10.4547 24.5469 10.7172 24.3849 10.879L22.9712 9.46432C22.3514 10.0836 22.3514 11.0882 22.9712 11.7076L24.3849 10.2929ZM25.3126 11.2205L24.3851 10.2931L22.9709 11.7073L23.8984 12.6347L25.3126 11.2205ZM24.186 13.7613L25.3126 12.6347L23.8984 11.2205L22.7718 12.3471L24.186 13.7613ZM20.4683 11.4578L22.7718 13.7613L24.186 12.3471L21.8826 10.0436L20.4683 11.4578ZM21.054 11.4578C20.8922 11.6196 20.6301 11.6196 20.4683 11.4578L21.8826 10.0436C21.2633 9.42437 20.259 9.42437 19.6398 10.0436L21.054 11.4578ZM21.054 10.8723C21.2156 11.034 21.2156 11.2962 21.054 11.4578L19.6398 10.0436C19.0204 10.663 19.0204 11.6671 19.6398 12.2865L21.054 10.8723ZM23.7716 13.5901L21.054 10.8723L19.6398 12.2865L22.3574 15.0043L23.7716 13.5901ZM26.41 16.2283L23.7716 13.59L22.3574 15.0043L24.9958 17.6425L26.41 16.2283ZM29.1276 18.9461L26.41 16.2283L24.9957 17.6425L27.7133 20.3602L29.1276 18.9461ZM28.5423 18.9458C28.7039 18.7843 28.9657 18.7843 29.1273 18.9458L27.7136 20.3605C28.3329 20.9794 29.3367 20.9794 29.956 20.3605L28.5423 18.9458ZM28.5418 19.5313C28.3803 19.3697 28.3803 19.1079 28.5418 18.9463L29.9565 20.36C30.5754 19.7407 30.5754 18.7369 29.9565 18.1176L28.5418 19.5313ZM13.4613 19.6626C11.884 21.2399 11.884 23.8041 13.4613 25.3815L14.8755 23.9672C14.0792 23.1709 14.0792 21.8731 14.8755 21.0768L13.4613 19.6626ZM20.1171 13.0069L13.4613 19.6626L14.8755 21.0768L21.5313 14.4211L20.1171 13.0069ZM26.9931 18.4689L21.5313 13.0069L20.117 14.4211L25.5789 19.8831L26.9931 18.4689ZM25.7206 21.1557L26.9931 19.8831L25.5789 18.4689L24.3063 19.7415L25.7206 21.1557ZM21.5754 18.4249L24.3064 21.1557L25.7205 19.7415L22.9895 17.0106L21.5754 18.4249ZM22.1608 18.4248C21.9992 18.5865 21.737 18.5865 21.5753 18.4248L22.9895 17.0106C22.3701 16.3912 21.366 16.3912 20.7466 17.0106L22.1608 18.4248ZM22.1611 17.8394C22.3224 18.0009 22.3228 18.2629 22.1608 18.4248L20.7466 17.0106C20.1272 17.63 20.1276 18.6339 20.7464 19.2531L22.1611 17.8394ZM24.8919 20.5702L22.1608 17.8392L20.7466 19.2534L23.4776 21.9844L24.8919 20.5702ZM23.7081 23.1682L24.8919 21.9844L23.4776 20.5702L22.2939 21.754L23.7081 23.1682ZM19.5629 20.4373L22.2939 23.1682L23.7081 21.7539L20.977 19.0231L19.5629 20.4373ZM20.1484 20.4373C19.9867 20.599 19.7245 20.599 19.5629 20.4373L20.9771 19.0231C20.3577 18.4037 19.3536 18.4037 18.7341 19.0231L20.1484 20.4373ZM20.1484 19.8516C20.3102 20.0134 20.3102 20.2755 20.1484 20.4373L18.7342 19.0231C18.1149 19.6423 18.1149 20.6466 18.7341 21.2659L20.1484 19.8516ZM22.8794 22.5827L20.1484 19.8516L18.7341 21.2659L21.4652 23.9969L22.8794 22.5827ZM21.6954 25.1808L22.8794 23.9969L21.4652 22.5827L20.2812 23.7666L21.6954 25.1808ZM17.5504 22.4498L20.2812 25.1808L21.6955 23.7666L18.9646 21.0356L17.5504 22.4498ZM18.1359 22.4498C17.9742 22.6114 17.712 22.6114 17.5504 22.4498L18.9646 21.0356C18.3452 20.4162 17.3411 20.4162 16.7217 21.0356L18.1359 22.4498ZM18.1359 21.8641C18.2977 22.0259 18.2977 22.288 18.1359 22.4498L16.7217 21.0356C16.1024 21.6548 16.1024 22.6591 16.7217 23.2783L18.1359 21.8641ZM20.8669 24.5951L18.1359 21.8641L16.7217 23.2783L19.4527 26.0094L20.8669 24.5951ZM20.3374 26.5388L20.8669 26.0094L19.4527 24.5951L18.9232 25.1246L20.3374 26.5388ZM14.6186 26.5388C16.1959 28.1162 18.7601 28.1162 20.3374 26.5388L18.9232 25.1246C18.1269 25.9209 16.8291 25.9209 16.0328 25.1246L14.6186 26.5388ZM13.4613 25.3814L14.6185 26.5388L16.0328 25.1247L14.8756 23.9673L13.4613 25.3814ZM11.7457 25.0274C11.9782 25.4524 12.2738 25.8516 12.6324 26.2102L14.0466 24.796C13.8248 24.5741 13.6431 24.3285 13.5003 24.0674L11.7457 25.0274ZM11.9664 26.6182L13.3301 25.2545L11.9159 23.8403L10.5522 25.204L11.9664 26.6182ZM11.9664 26.0326C12.1279 26.1941 12.1283 26.4565 11.9662 26.6185L10.5524 25.2038C9.93258 25.8232 9.93293 26.8275 10.5522 27.4468L11.9664 26.0326ZM13.9673 28.0334L11.9664 26.0326L10.5522 27.4468L12.5531 29.4477L13.9673 28.0334ZM13.3818 28.0334C13.5434 27.8718 13.8057 27.8718 13.9673 28.0334L12.5531 29.4477C13.1725 30.0671 14.1766 30.0671 14.796 29.4477L13.3818 28.0334ZM14.7455 26.6699L13.3818 28.0334L14.796 29.4477L16.1596 28.0842L14.7455 26.6699ZM13.7898 27.3676C14.1481 27.7259 14.5473 28.0217 14.9727 28.2544L15.9324 26.4997C15.6715 26.357 15.4258 26.1752 15.204 25.9534L13.7898 27.3676ZM12.6324 26.2102L13.7898 27.3676L15.204 25.9534L14.0466 24.796L12.6324 26.2102ZM10.8788 29.1214C11.0404 29.283 11.0404 29.5453 10.8788 29.7069L9.46455 28.2927C8.84515 28.9121 8.84515 29.9162 9.46456 30.5356L10.8788 29.1214ZM10.2931 29.1214C10.4549 28.9596 10.717 28.9596 10.8788 29.1214L9.46455 30.5356C10.0838 31.1549 11.0881 31.1549 11.7073 30.5356L10.2931 29.1214ZM11.1384 28.276L10.293 29.1215L11.7074 30.5356L12.5527 29.6901L11.1384 28.276ZM10.3099 28.8616L11.1384 29.6901L12.5527 28.2759L11.7241 27.4474L10.3099 28.8616ZM10.8788 29.7069L11.7241 28.8616L10.3099 27.4474L9.46455 28.2927L10.8788 29.7069Z" fill="#7EC4CF" mask="url(#path-1-inside-1_1964_3194)"/>
</svg>
