<svg width="40" height="40" viewBox="0 0 40 40" fill="none" xmlns="http://www.w3.org/2000/svg">
<circle cx="20" cy="20" r="19.5" stroke="#7EC4CF"/>
<path d="M30.9925 12.7486C30.9564 12.5107 30.8022 12.3099 30.5786 12.2112C30.5453 12.1969 26.983 10.6338 25.184 9.81094C23.6419 9.1053 22.8703 9 22.5478 9C22.507 9 22.4737 9.00175 22.4734 9.00245C21.5033 9.00875 20.887 9.43241 20.5003 9.90925C20.1154 9.43241 19.5037 9.00875 18.5524 9.0035C18.5265 9.00175 18.4932 9 18.4525 9C18.1296 9 17.358 9.1053 15.8163 9.81094C14.1895 10.5547 11.0586 11.9314 10.4203 12.2116C10.1966 12.3106 10.0424 12.5117 10.0074 12.7507C9.97262 12.9893 10.0623 13.2251 10.248 13.3825C10.494 13.5907 10.8466 13.7149 11.1911 13.7149C11.4931 13.7149 11.9496 13.6208 12.405 13.1719C12.5138 13.0652 12.5829 12.9274 12.6052 12.7818C13.6504 12.32 15.3446 11.5686 16.4121 11.0802C17.7582 10.4645 18.3412 10.4043 18.4365 10.3983C18.4599 10.4008 18.4833 10.4018 18.5067 10.4018C19.7177 10.4018 19.7876 11.7823 19.7915 11.931V12.5887C19.4105 12.6003 19.1042 12.9095 19.1042 13.288C19.1042 13.4157 19.1393 13.5357 19.2003 13.6389C19.1393 13.7421 19.1042 13.8621 19.1042 13.9898C19.1042 14.1179 19.1393 14.2375 19.2003 14.3407C19.1393 14.4439 19.1042 14.5639 19.1042 14.6916C19.1042 14.8193 19.1393 14.9393 19.2003 15.0425C19.1393 15.1457 19.1042 15.2657 19.1042 15.3934C19.1042 15.5211 19.1393 15.6411 19.2003 15.7443C19.1393 15.8475 19.1042 15.9675 19.1042 16.0952C19.1042 16.2232 19.1393 16.3429 19.2003 16.4461C19.1393 16.5493 19.1042 16.6693 19.1042 16.797C19.1042 16.925 19.1393 17.045 19.2003 17.1482C19.1393 17.2514 19.1042 17.3714 19.1042 17.4991C19.1042 17.6268 19.1393 17.7468 19.2003 17.85C19.1393 17.9532 19.1042 18.0732 19.1042 18.2009C19.1042 18.3286 19.1393 18.4486 19.2003 18.5518C19.1393 18.655 19.1042 18.775 19.1042 18.9027C19.1042 19.0308 19.1393 19.1504 19.2003 19.2536C19.1393 19.3568 19.1042 19.4768 19.1042 19.6045C19.1042 19.7322 19.1393 19.8522 19.2003 19.9554C19.1393 20.0589 19.1042 20.1786 19.1042 20.3066C19.1042 20.4343 19.1393 20.5543 19.2003 20.6572C19.1393 20.7604 19.1042 20.8804 19.1042 21.0081C19.1042 21.1361 19.1393 21.2558 19.2003 21.359C19.1393 21.4622 19.1042 21.5822 19.1042 21.7099C19.1042 21.8376 19.1393 21.9576 19.2003 22.0608C19.1393 22.164 19.1042 22.284 19.1042 22.4117C19.1042 22.5393 19.1393 22.6593 19.2003 22.7626C19.1393 22.8658 19.1042 22.9858 19.1042 23.1134C19.1042 23.2411 19.1393 23.3611 19.2003 23.4643C19.1393 23.5675 19.1042 23.6875 19.1042 23.8152C19.1042 23.9429 19.1393 24.0633 19.2003 24.1665C19.1393 24.2697 19.1042 24.3897 19.1042 24.5177C19.1042 24.6454 19.1393 24.7654 19.2003 24.8686C19.1393 24.9715 19.1042 25.0915 19.1042 25.2192C19.1042 25.3472 19.1393 25.4669 19.2003 25.5701C19.1393 25.6733 19.1042 25.7933 19.1042 25.921C19.1042 26.049 19.1393 26.1686 19.2003 26.2718C19.1393 26.375 19.1042 26.495 19.1042 26.6227C19.1042 27.0013 19.4105 27.3109 19.7915 27.3221V28.4202C19.7915 28.6819 19.6096 29.0136 19.5136 29.1525L19.498 29.1752C19.3711 29.3676 19.3041 29.5901 19.3041 29.8193C19.3041 30.4703 19.8404 31 20.5003 31C21.1599 31 21.6965 30.4703 21.6965 29.8193C21.6965 29.6902 21.6748 29.5628 21.6327 29.4414L21.6756 29.3991L21.4937 29.1567C21.4317 29.0738 21.2499 28.7844 21.2091 28.5252V27.321C21.5898 27.3098 21.896 27.0002 21.896 26.6217C21.896 26.494 21.8609 26.374 21.8 26.2708C21.8609 26.1676 21.896 26.0479 21.896 25.9199C21.896 25.7922 21.8609 25.6722 21.8 25.569C21.8609 25.4662 21.896 25.3462 21.896 25.2185C21.896 25.0904 21.8609 24.9708 21.8 24.8676C21.8609 24.764 21.896 24.644 21.896 24.5163C21.896 24.3883 21.8609 24.2686 21.8 24.1654C21.8609 24.0622 21.896 23.9422 21.896 23.8145C21.896 23.6868 21.8609 23.5668 21.8 23.4636C21.8609 23.3604 21.896 23.2404 21.896 23.1127C21.896 22.9851 21.8609 22.8651 21.8 22.7619C21.8609 22.6586 21.896 22.5386 21.896 22.411C21.896 22.2833 21.8609 22.1633 21.8 22.0601C21.8609 21.9569 21.896 21.8372 21.896 21.7092C21.896 21.5815 21.8609 21.4615 21.8 21.3583C21.8609 21.2551 21.896 21.1354 21.896 21.0074C21.896 20.8797 21.8609 20.7597 21.8 20.6565C21.8609 20.5536 21.896 20.4336 21.896 20.3059C21.896 20.1779 21.8609 20.0582 21.8 19.9547C21.8609 19.8515 21.896 19.7315 21.896 19.6038C21.896 19.4761 21.8609 19.3561 21.8 19.2529C21.8609 19.1497 21.896 19.0301 21.896 18.902C21.896 18.7743 21.8609 18.6543 21.8 18.5511C21.8609 18.4479 21.896 18.3279 21.896 18.2002C21.896 18.0725 21.8609 17.9525 21.8 17.8493C21.8609 17.7461 21.896 17.6261 21.896 17.4984C21.896 17.3707 21.8609 17.2507 21.8 17.1475C21.8609 17.0443 21.896 16.9247 21.896 16.7966C21.896 16.669 21.8609 16.549 21.8 16.4458C21.8609 16.3425 21.896 16.2225 21.896 16.0949C21.896 15.9672 21.8609 15.8472 21.8 15.744C21.8609 15.6408 21.896 15.5208 21.896 15.3931C21.896 15.2654 21.8609 15.1454 21.8 15.0422C21.8609 14.939 21.896 14.819 21.896 14.6913C21.896 14.5636 21.8609 14.4436 21.8 14.3404C21.8609 14.2372 21.896 14.1175 21.896 13.9895C21.896 13.8618 21.8609 13.7418 21.8 13.6386C21.8609 13.5354 21.896 13.4154 21.896 13.2877C21.896 12.9092 21.5898 12.5999 21.2091 12.5884V11.9439C21.2116 11.7862 21.2719 10.4015 22.4939 10.4015C22.5088 10.4015 22.5435 10.3997 22.5432 10.3994C22.5659 10.3994 23.1166 10.4071 24.5882 11.0802C25.5951 11.5409 27.1722 12.2417 28.3946 12.7818C28.417 12.9274 28.4857 13.0648 28.5942 13.1712C29.051 13.6204 29.5072 13.7145 29.8091 13.7145H29.8095C30.1533 13.7145 30.5056 13.5903 30.7522 13.3822C30.9376 13.2247 31.0276 12.9889 30.9925 12.7486Z" fill="#7EC4CF"/>
</svg>
