<svg width="40" height="40" viewBox="0 0 40 40" fill="none" xmlns="http://www.w3.org/2000/svg">
<mask id="path-1-inside-1_1964_3237" fill="white">
<path fill-rule="evenodd" clip-rule="evenodd" d="M20 40C31.0457 40 40 31.0457 40 20C40 8.9543 31.0457 0 20 0C8.9543 0 0 8.9543 0 20C0 31.0457 8.9543 40 20 40ZM20.9508 8.83489C21.917 10.4275 23.114 11.9113 24.2729 13.347C26.6217 16.2583 28.8402 19.0085 28.8402 22.2611C28.8402 26.8159 25.028 30.52 20.3402 30.52C15.6525 30.52 11.8402 26.8159 11.8402 22.2611C11.8402 19.0085 14.0587 16.2583 16.4075 13.347C17.5664 11.9113 18.7635 10.4275 19.731 8.83489C19.9846 8.41506 20.6958 8.41506 20.9508 8.83489Z"/>
</mask>
<path fill-rule="evenodd" clip-rule="evenodd" d="M20 40C31.0457 40 40 31.0457 40 20C40 8.9543 31.0457 0 20 0C8.9543 0 0 8.9543 0 20C0 31.0457 8.9543 40 20 40ZM20.9508 8.83489C21.917 10.4275 23.114 11.9113 24.2729 13.347C26.6217 16.2583 28.8402 19.0085 28.8402 22.2611C28.8402 26.8159 25.028 30.52 20.3402 30.52C15.6525 30.52 11.8402 26.8159 11.8402 22.2611C11.8402 19.0085 14.0587 16.2583 16.4075 13.347C17.5664 11.9113 18.7635 10.4275 19.731 8.83489C19.9846 8.41506 20.6958 8.41506 20.9508 8.83489Z" fill="#DB4D46"/>
<path d="M24.2729 13.347L25.0512 12.7191L25.051 12.7189L24.2729 13.347ZM20.9508 8.83489L21.8058 8.31621L21.8055 8.31576L20.9508 8.83489ZM16.4075 13.347L15.6294 12.7189L15.6293 12.7191L16.4075 13.347ZM19.731 8.83489L20.5857 9.35413L20.587 9.35191L19.731 8.83489ZM39 20C39 30.4934 30.4934 39 20 39V41C31.598 41 41 31.598 41 20H39ZM20 1C30.4934 1 39 9.50659 39 20H41C41 8.40202 31.598 -1 20 -1V1ZM1 20C1 9.50659 9.50659 1 20 1V-1C8.40202 -1 -1 8.40202 -1 20H1ZM20 39C9.50659 39 1 30.4934 1 20H-1C-1 31.598 8.40202 41 20 41V39ZM25.051 12.7189C23.8849 11.2742 22.7313 9.84187 21.8058 8.31621L20.0958 9.35357C21.1026 11.0131 22.3432 12.5485 23.4947 13.9751L25.051 12.7189ZM29.8402 22.2611C29.8402 20.3981 29.2027 18.7219 28.3017 17.1732C27.4081 15.6371 26.2145 14.161 25.0512 12.7191L23.4946 13.9749C24.6801 15.4443 25.7702 16.799 26.573 18.1789C27.3685 19.5463 27.8402 20.8715 27.8402 22.2611H29.8402ZM20.3402 31.52C25.5529 31.52 29.8402 27.3951 29.8402 22.2611H27.8402C27.8402 26.2367 24.503 29.52 20.3402 29.52V31.52ZM10.8402 22.2611C10.8402 27.3951 15.1275 31.52 20.3402 31.52V29.52C16.1774 29.52 12.8402 26.2367 12.8402 22.2611H10.8402ZM15.6293 12.7191C14.4659 14.161 13.2724 15.6371 12.3787 17.1732C11.4777 18.7219 10.8402 20.3981 10.8402 22.2611H12.8402C12.8402 20.8715 13.312 19.5463 14.1074 18.1789C14.9102 16.799 16.0003 15.4443 17.1858 13.9749L15.6293 12.7191ZM18.8764 8.31566C17.9493 9.84167 16.7955 11.2742 15.6294 12.7189L17.1857 13.9751C18.3372 12.5484 19.5776 11.0133 20.5857 9.35412L18.8764 8.31566ZM21.8055 8.31576C21.4554 7.73935 20.8435 7.52002 20.3404 7.52002C19.8374 7.52002 19.2245 7.73943 18.8751 8.31787L20.587 9.35191C20.4912 9.51053 20.3606 9.52002 20.3404 9.52002C20.32 9.52002 20.1912 9.5106 20.0961 9.35402L21.8055 8.31576Z" fill="#DB4D46" mask="url(#path-1-inside-1_1964_3237)"/>
</svg>
