<svg width="40" height="40" viewBox="0 0 40 40" fill="none" xmlns="http://www.w3.org/2000/svg">
<circle cx="20" cy="20" r="19.5" stroke="#DB4D46"/>
<path d="M25.4327 13.827C24.2738 12.3913 23.0768 10.9075 22.1106 9.31487C21.8556 8.89504 21.1444 8.89504 20.8908 9.31487C19.9233 10.9075 18.7262 12.3913 17.5673 13.827C15.2185 16.7382 13 19.4885 13 22.7411C13 27.2959 16.8123 31 21.5 31C26.1878 31 30 27.2959 30 22.7411C30 19.4885 27.7815 16.7382 25.4327 13.827Z" fill="#DB4D46"/>
<path d="M17.9117 12.0717C17.1743 11.1581 16.4125 10.2138 15.7976 9.20037C15.6354 8.93321 15.1828 8.93321 15.0214 9.20037C14.4057 10.2138 13.6439 11.1581 12.9065 12.0717C11.4118 13.9243 10 15.6745 10 17.7443C10 20.6428 12.426 23 15.4091 23C18.3922 23 20.8182 20.6428 20.8182 17.7443C20.8182 15.6745 19.4064 13.9243 17.9117 12.0717Z" fill="#DB4D46"/>
</svg>
