<svg width="40" height="40" viewBox="0 0 40 40" fill="none" xmlns="http://www.w3.org/2000/svg">
<mask id="path-1-inside-1_1964_3252" fill="white">
<path fill-rule="evenodd" clip-rule="evenodd" d="M40 20C40 31.0457 31.0457 40 20 40C8.9543 40 0 31.0457 0 20C0 8.9543 8.9543 0 20 0C31.0457 0 40 8.9543 40 20ZM25.4326 13.827C24.2738 12.3913 23.0767 10.9075 22.1105 9.31487C21.8555 8.89504 21.1444 8.89504 20.8908 9.31487C20.1663 10.5073 19.3132 11.6388 18.4438 12.7348C18.2691 12.5147 18.091 12.294 17.9117 12.0717C17.1743 11.1581 16.4125 10.2138 15.7976 9.20037C15.6354 8.93321 15.1828 8.93321 15.0214 9.20037C14.4057 10.2138 13.6439 11.1581 12.9065 12.0717C11.4118 13.9243 10 15.6745 10 17.7443C10 19.8045 11.2256 21.5912 13.0058 22.4524C13.0019 22.5482 13 22.6444 13 22.7411C13 27.2959 16.8122 31 21.5 31C26.1877 31 30 27.2959 30 22.7411C30 19.4885 27.7815 16.7382 25.4326 13.827Z"/>
</mask>
<path fill-rule="evenodd" clip-rule="evenodd" d="M40 20C40 31.0457 31.0457 40 20 40C8.9543 40 0 31.0457 0 20C0 8.9543 8.9543 0 20 0C31.0457 0 40 8.9543 40 20ZM25.4326 13.827C24.2738 12.3913 23.0767 10.9075 22.1105 9.31487C21.8555 8.89504 21.1444 8.89504 20.8908 9.31487C20.1663 10.5073 19.3132 11.6388 18.4438 12.7348C18.2691 12.5147 18.091 12.294 17.9117 12.0717C17.1743 11.1581 16.4125 10.2138 15.7976 9.20037C15.6354 8.93321 15.1828 8.93321 15.0214 9.20037C14.4057 10.2138 13.6439 11.1581 12.9065 12.0717C11.4118 13.9243 10 15.6745 10 17.7443C10 19.8045 11.2256 21.5912 13.0058 22.4524C13.0019 22.5482 13 22.6444 13 22.7411C13 27.2959 16.8122 31 21.5 31C26.1877 31 30 27.2959 30 22.7411C30 19.4885 27.7815 16.7382 25.4326 13.827Z" fill="#DB4D46"/>
<path d="M22.1105 9.31487L22.9655 8.79619L22.9652 8.79574L22.1105 9.31487ZM25.4326 13.827L26.2109 13.1991L26.2108 13.1989L25.4326 13.827ZM20.8908 9.31487L21.7454 9.83411L21.7468 9.83189L20.8908 9.31487ZM18.4438 12.7348L17.6605 13.3564L18.4439 14.3436L19.2272 13.3563L18.4438 12.7348ZM17.9117 12.0717L18.69 11.4438L18.6898 11.4436L17.9117 12.0717ZM15.7976 9.20037L16.6526 8.68169L16.6523 8.68124L15.7976 9.20037ZM15.0214 9.20037L15.8761 9.71961L15.8774 9.71739L15.0214 9.20037ZM12.9065 12.0717L12.1283 11.4436L12.1282 11.4438L12.9065 12.0717ZM13.0058 22.4524L14.005 22.4927L14.0314 21.8377L13.4413 21.5522L13.0058 22.4524ZM20 41C31.598 41 41 31.598 41 20H39C39 30.4934 30.4934 39 20 39V41ZM-1 20C-1 31.598 8.40202 41 20 41V39C9.50659 39 1 30.4934 1 20H-1ZM20 -1C8.40202 -1 -1 8.40202 -1 20H1C1 9.50659 9.50659 1 20 1V-1ZM41 20C41 8.40202 31.598 -1 20 -1V1C30.4934 1 39 9.50659 39 20H41ZM21.2556 9.83355C22.2624 11.4931 23.503 13.0285 24.6545 14.4551L26.2108 13.1989C25.0446 11.7541 23.8911 10.3218 22.9655 8.79619L21.2556 9.83355ZM21.7468 9.83189C21.651 9.99051 21.5204 10 21.5001 10C21.4797 10 21.351 9.99058 21.2559 9.83401L22.9652 8.79574C22.6151 8.21933 22.0033 8 21.5001 8C20.9972 8 20.3842 8.21941 20.0348 8.79785L21.7468 9.83189ZM19.2272 13.3563C20.1042 12.2507 20.9882 11.0805 21.7454 9.8341L20.0362 8.79564C19.3445 9.93411 18.5222 11.0269 17.6603 12.1133L19.2272 13.3563ZM19.227 12.1131C19.0495 11.8894 18.8689 11.6655 18.69 11.4438L17.1334 12.6996C17.3132 12.9224 17.4888 13.1401 17.6605 13.3564L19.227 12.1131ZM18.6898 11.4436C17.9451 10.5209 17.2268 9.62822 16.6526 8.68169L14.9427 9.71905C15.5981 10.7995 16.4034 11.7953 17.1336 12.6998L18.6898 11.4436ZM16.6523 8.68124C16.3486 8.18117 15.8246 8 15.4092 8C14.994 8 14.4688 8.18124 14.1655 8.68335L15.8774 9.71739C15.7355 9.95234 15.5172 10 15.4092 10C15.301 10 15.0844 9.95241 14.943 9.71951L16.6523 8.68124ZM14.1668 8.68114C13.5915 9.62803 12.8731 10.521 12.1283 11.4436L13.6846 12.6998C14.4148 11.7952 15.2199 10.7997 15.8761 9.71961L14.1668 8.68114ZM12.1282 11.4438C11.3919 12.3564 10.6136 13.3178 10.0284 14.3237C9.43582 15.3422 9 16.4727 9 17.7443H11C11 16.9461 11.2701 16.1666 11.7571 15.3294C12.2514 14.4797 12.9263 13.6397 13.6848 12.6996L12.1282 11.4438ZM9 17.7443C9 20.2149 10.4698 22.3365 12.5703 23.3526L13.4413 21.5522C11.9814 20.846 11 19.3942 11 17.7443H9ZM14 22.7411C14 22.658 14.0016 22.5752 14.005 22.4927L12.0066 22.4121C12.0022 22.5212 12 22.6309 12 22.7411H14ZM21.5 30C17.3372 30 14 26.7167 14 22.7411H12C12 27.8751 16.2872 32 21.5 32V30ZM29 22.7411C29 26.7167 25.6627 30 21.5 30V32C26.7127 32 31 27.8751 31 22.7411H29ZM24.6544 14.4549C25.8398 15.9243 26.9299 17.2789 27.7327 18.6589C28.5282 20.0262 29 21.3515 29 22.7411H31C31 20.878 30.3625 19.2019 29.4615 17.6532C28.5678 16.117 27.3743 14.641 26.2109 13.1991L24.6544 14.4549Z" fill="#DB4D46" mask="url(#path-1-inside-1_1964_3252)"/>
</svg>
