<svg width="40" height="40" viewBox="0 0 40 40" fill="none" xmlns="http://www.w3.org/2000/svg">
<path fill-rule="evenodd" clip-rule="evenodd" d="M40 20C40 31.0457 31.0457 40 20 40C8.9543 40 0 31.0457 0 20C0 8.9543 8.9543 0 20 0C31.0457 0 40 8.9543 40 20ZM27.763 11.8106C25.3491 9.39661 21.4415 9.39629 19.0272 11.8106L15.8269 15.011L24.5627 23.7468L27.763 20.5465C30.1715 18.1381 30.1715 14.2192 27.763 11.8106ZM11.8106 19.3512L14.6875 16.4744L23.4234 25.2102L20.5465 28.0871C18.1322 30.5015 14.2246 30.5011 11.8106 28.0871C9.39629 25.6728 9.39661 21.7652 11.8106 19.3512Z" fill="#7EC4CF"/>
</svg>
