<svg width="27" height="21" viewBox="0 0 27 21" fill="none" xmlns="http://www.w3.org/2000/svg">
<path d="M21.1279 16.8094L20.7324 16.1722C20.395 16.3815 20.2793 16.8175 20.4684 17.1666L21.1279 16.8094ZM17.9662 18.2192L18.2776 17.5369C18.1121 17.4614 17.9247 17.4486 17.7505 17.5009L17.9662 18.2192ZM23.4635 19.8476L23.3736 20.5922C23.6911 20.6306 23.998 20.4634 24.1379 20.1758C24.2779 19.8882 24.22 19.5435 23.9939 19.3173L23.4635 19.8476ZM24.6975 9.92785C24.6975 12.3701 23.2147 14.6315 20.7324 16.1722L21.5234 17.4467C24.3181 15.7122 26.1975 13.0241 26.1975 9.92785H24.6975ZM13.5437 1.75C16.6842 1.75 19.4986 2.70566 21.5109 4.21491C23.523 5.72398 24.6975 7.75149 24.6975 9.92785H26.1975C26.1975 7.17349 24.7072 4.73708 22.4109 3.01491C20.1149 1.2929 16.9774 0.25 13.5437 0.25V1.75ZM2.38989 9.92785C2.38989 7.75149 3.56434 5.72398 5.57643 4.21491C7.58876 2.70566 10.4031 1.75 13.5437 1.75V0.25C10.11 0.25 6.97244 1.2929 4.67643 3.01491C2.3802 4.73708 0.889893 7.17349 0.889893 9.92785H2.38989ZM13.5437 18.1057C10.4031 18.1057 7.58876 17.15 5.57643 15.6408C3.56434 14.1317 2.38989 12.1042 2.38989 9.92785H0.889893C0.889893 12.6822 2.3802 15.1186 4.67643 16.8408C6.97244 18.5628 10.11 19.6057 13.5437 19.6057V18.1057ZM17.7505 17.5009C16.4543 17.8902 15.0345 18.1057 13.5437 18.1057V19.6057C15.1784 19.6057 16.7436 19.3695 18.1819 18.9376L17.7505 17.5009ZM23.5535 19.103C22.5239 18.9786 20.4457 18.5265 18.2776 17.5369L17.6548 18.9015C19.9747 19.9603 22.2039 20.4509 23.3736 20.5922L23.5535 19.103ZM20.4684 17.1666C21.0002 18.1484 21.8245 19.2693 22.9332 20.378L23.9939 19.3173C22.9751 18.2986 22.2423 17.2921 21.7873 16.4522L20.4684 17.1666ZM10.8097 8.93589C10.8097 9.61739 10.2573 10.1699 9.57578 10.1699V11.6699C11.0857 11.6699 12.3097 10.4458 12.3097 8.93589H10.8097ZM9.57578 7.70193C10.2573 7.70193 10.8097 8.25439 10.8097 8.93589H12.3097C12.3097 7.42596 11.0857 6.20193 9.57578 6.20193V7.70193ZM8.34181 8.93589C8.34181 8.25439 8.89428 7.70193 9.57578 7.70193V6.20193C8.06585 6.20193 6.84181 7.42596 6.84181 8.93589H8.34181ZM9.57578 10.1699C8.89428 10.1699 8.34181 9.61739 8.34181 8.93589H6.84181C6.84181 10.4458 8.06585 11.6699 9.57578 11.6699V10.1699ZM17.5117 11.6699C19.0216 11.6699 20.2456 10.4458 20.2456 8.93589H18.7456C18.7456 9.61739 18.1932 10.1699 17.5117 10.1699V11.6699ZM14.7777 8.93589C14.7777 10.4458 16.0017 11.6699 17.5117 11.6699V10.1699C16.8302 10.1699 16.2777 9.61739 16.2777 8.93589H14.7777ZM17.5117 6.20193C16.0017 6.20193 14.7777 7.42596 14.7777 8.93589H16.2777C16.2777 8.25439 16.8302 7.70193 17.5117 7.70193V6.20193ZM20.2456 8.93589C20.2456 7.42596 19.0216 6.20193 17.5117 6.20193V7.70193C18.1932 7.70193 18.7456 8.25439 18.7456 8.93589H20.2456Z" fill="black" fill-opacity="0.5"/>
</svg>
