<svg width="24" height="24" viewBox="0 0 24 24" fill="none" xmlns="http://www.w3.org/2000/svg">
<path d="M19.0085 18.0049L18.613 17.3676C18.2756 17.577 18.1599 18.013 18.349 18.3621L19.0085 18.0049ZM16.0868 19.3077L16.3982 18.6254C16.2327 18.5499 16.0453 18.5371 15.8711 18.5894L16.0868 19.3077ZM21.1668 20.8125L21.0769 21.5571C21.3944 21.5955 21.7013 21.4282 21.8412 21.1406C21.9812 20.853 21.9233 20.5083 21.6972 20.2822L21.1668 20.8125ZM22.25 11.6459C22.25 13.8778 20.8949 15.9513 18.613 17.3676L19.404 18.6421C21.9983 17.032 23.75 14.5318 23.75 11.6459H22.25ZM12 4.14587C14.891 4.14587 17.4794 5.02567 19.3282 6.41224C21.1767 7.79865 22.25 9.65669 22.25 11.6459H23.75C23.75 9.0787 22.3609 6.81175 20.2282 5.21224C18.0957 3.61291 15.1842 2.64587 12 2.64587V4.14587ZM1.75 11.6459C1.75 9.65669 2.82329 7.79865 4.67183 6.41224C6.5206 5.02567 9.10902 4.14587 12 4.14587V2.64587C8.81585 2.64587 5.90427 3.61291 3.77183 5.21224C1.63915 6.81175 0.25 9.0787 0.25 11.6459H1.75ZM12 19.1459C9.10902 19.1459 6.5206 18.2661 4.67183 16.8795C2.82329 15.4931 1.75 13.6351 1.75 11.6459H0.25C0.25 14.213 1.63915 16.48 3.77183 18.0795C5.90427 19.6788 8.81585 20.6459 12 20.6459V19.1459ZM15.8711 18.5894C14.6787 18.9475 13.3722 19.1459 12 19.1459V20.6459C13.5161 20.6459 14.968 20.4268 16.3025 20.026L15.8711 18.5894ZM21.2568 20.0679C20.3107 19.9536 18.3959 19.5372 16.3982 18.6254L15.7754 19.99C17.9249 20.9711 19.9907 21.4258 21.0769 21.5571L21.2568 20.0679ZM18.349 18.3621C18.8434 19.2747 19.6086 20.3149 20.6365 21.3428L21.6972 20.2822C20.7591 19.3442 20.0855 18.4184 19.6679 17.6477L18.349 18.3621ZM9.41667 10.7292C9.41667 11.3275 8.93164 11.8125 8.33333 11.8125V13.3125C9.76007 13.3125 10.9167 12.1559 10.9167 10.7292H9.41667ZM8.33333 9.64583C8.93164 9.64583 9.41667 10.1309 9.41667 10.7292H10.9167C10.9167 9.30243 9.76007 8.14583 8.33333 8.14583V9.64583ZM7.25 10.7292C7.25 10.1309 7.73502 9.64583 8.33333 9.64583V8.14583C6.9066 8.14583 5.75 9.30243 5.75 10.7292H7.25ZM8.33333 11.8125C7.73502 11.8125 7.25 11.3275 7.25 10.7292H5.75C5.75 12.1559 6.9066 13.3125 8.33333 13.3125V11.8125ZM15.6665 13.3125C17.0932 13.3125 18.2498 12.1559 18.2498 10.7292H16.7498C16.7498 11.3275 16.2648 11.8125 15.6665 11.8125V13.3125ZM13.0832 10.7292C13.0832 12.1559 14.2398 13.3125 15.6665 13.3125V11.8125C15.0682 11.8125 14.5832 11.3275 14.5832 10.7292H13.0832ZM15.6665 8.14583C14.2398 8.14583 13.0832 9.30243 13.0832 10.7292H14.5832C14.5832 10.1309 15.0682 9.64583 15.6665 9.64583V8.14583ZM18.2498 10.7292C18.2498 9.30243 17.0932 8.14583 15.6665 8.14583V9.64583C16.2648 9.64583 16.7498 10.1309 16.7498 10.7292H18.2498Z" fill="#C545A3"/>
</svg>
