<svg width="41" height="40" viewBox="0 0 41 40" fill="none" xmlns="http://www.w3.org/2000/svg">
<g id="Ovulation">
<path id="Oval Copy 7 (Stroke)" fill-rule="evenodd" clip-rule="evenodd" d="M20.5344 39C31.0278 39 39.5344 30.4934 39.5344 20C39.5344 9.50659 31.0278 1 20.5344 1C10.041 1 1.53442 9.50659 1.53442 20C1.53442 30.4934 10.041 39 20.5344 39ZM20.5344 40C31.5801 40 40.5344 31.0457 40.5344 20C40.5344 8.9543 31.5801 0 20.5344 0C9.48873 0 0.534424 8.9543 0.534424 20C0.534424 31.0457 9.48873 40 20.5344 40Z" fill="#946DAE"/>
<g id="Group 132">
<path id="Oval Copy 8 (Stroke)" fill-rule="evenodd" clip-rule="evenodd" d="M20.4799 30.2402C25.8702 30.2402 30.2399 25.8705 30.2399 20.4802C30.2399 15.0899 25.8702 10.7202 20.4799 10.7202C15.0896 10.7202 10.7199 15.0899 10.7199 20.4802C10.7199 25.8705 15.0896 30.2402 20.4799 30.2402ZM20.4799 31.0402C26.312 31.0402 31.0399 26.3123 31.0399 20.4802C31.0399 14.648 26.312 9.92017 20.4799 9.92017C14.6478 9.92017 9.91992 14.648 9.91992 20.4802C9.91992 26.3123 14.6478 31.0402 20.4799 31.0402Z" fill="#946DAE"/>
<path id="Oval Copy 9 (Stroke)" fill-rule="evenodd" clip-rule="evenodd" d="M32.7619 22.7066C32.7855 22.5758 32.807 22.4442 32.8265 22.3119C32.9145 21.714 32.96 21.1023 32.96 20.48C32.96 19.8577 32.9145 19.246 32.8265 18.6481C32.807 18.5158 32.7855 18.3842 32.7619 18.2534C32.7382 18.1218 32.7125 17.9909 32.6847 17.8608C32.2613 17.9368 31.972 18.3359 32.035 18.7645C32.1173 19.324 32.16 19.8968 32.16 20.48C32.16 21.0632 32.1173 21.636 32.035 22.1955C31.972 22.6241 32.2613 23.0232 32.6847 23.0992C32.7125 22.9691 32.7382 22.8382 32.7619 22.7066ZM30.9611 27.2575C30.6078 27.012 30.1209 27.0898 29.8626 27.4376C29.1775 28.3598 28.3598 29.1775 27.4376 29.8626C27.0898 30.1209 27.012 30.6078 27.2575 30.9611C27.3695 30.8885 27.4803 30.8142 27.5898 30.7381C27.6994 30.662 27.8077 30.5842 27.9146 30.5048C28.8996 29.7731 29.7731 28.8996 30.5048 27.9146C30.5842 27.8077 30.662 27.6994 30.7381 27.5898C30.8142 27.4803 30.8885 27.3695 30.9611 27.2575ZM23.0992 32.6847C23.0232 32.2613 22.6241 31.972 22.1955 32.035C21.636 32.1173 21.0632 32.16 20.48 32.16C19.8968 32.16 19.324 32.1173 18.7645 32.035C18.3359 31.972 17.9368 32.2613 17.8608 32.6847C17.9909 32.7125 18.1218 32.7382 18.2534 32.7619C18.3842 32.7855 18.5158 32.807 18.6481 32.8265C19.246 32.9145 19.8577 32.96 20.48 32.96C21.1023 32.96 21.714 32.9145 22.3119 32.8265C22.4442 32.807 22.5758 32.7855 22.7066 32.7619C22.8382 32.7382 22.9691 32.7125 23.0992 32.6847ZM13.7025 30.9611C13.9481 30.6078 13.8702 30.1209 13.5224 29.8626C12.6002 29.1775 11.7825 28.3598 11.0974 27.4376C10.8391 27.0898 10.3522 27.012 9.99894 27.2575C10.0715 27.3695 10.1458 27.4803 10.2219 27.5898C10.298 27.6994 10.3758 27.8077 10.4552 27.9146C11.1869 28.8996 12.0604 29.7731 13.0454 30.5048C13.1523 30.5842 13.2606 30.662 13.3702 30.7381C13.4797 30.8142 13.5905 30.8885 13.7025 30.9611ZM8.27531 23.0992C8.69868 23.0232 8.98803 22.6241 8.92498 22.1955C8.84268 21.636 8.8 21.0632 8.8 20.48C8.8 19.8968 8.84268 19.324 8.92498 18.7645C8.98803 18.3359 8.69868 17.9368 8.27531 17.8608C8.24752 17.9909 8.22176 18.1218 8.19806 18.2534C8.17449 18.3842 8.15295 18.5158 8.1335 18.6481C8.04555 19.246 8 19.8577 8 20.48C8 21.1023 8.04555 21.714 8.1335 22.3119C8.15295 22.4442 8.17449 22.5758 8.19806 22.7066C8.22176 22.8382 8.24752 22.9691 8.27531 23.0992ZM9.99894 13.7025C10.3522 13.9481 10.8391 13.8702 11.0974 13.5224C11.7825 12.6002 12.6002 11.7825 13.5224 11.0974C13.8702 10.8391 13.9481 10.3522 13.7025 9.99894C13.5905 10.0715 13.4797 10.1458 13.3702 10.2219C13.2606 10.298 13.1523 10.3758 13.0454 10.4552C12.0604 11.1869 11.1869 12.0604 10.4552 13.0454C10.3758 13.1523 10.298 13.2606 10.2219 13.3702C10.1458 13.4797 10.0715 13.5905 9.99894 13.7025ZM17.8608 8.27531C17.9368 8.69868 18.3359 8.98803 18.7645 8.92498C19.324 8.84268 19.8968 8.8 20.48 8.8C21.0632 8.8 21.636 8.84268 22.1955 8.92498C22.6241 8.98803 23.0232 8.69868 23.0992 8.27531C22.9691 8.24752 22.8382 8.22176 22.7066 8.19806C22.5758 8.17449 22.4442 8.15295 22.3119 8.1335C21.714 8.04555 21.1023 8 20.48 8C19.8577 8 19.246 8.04555 18.6481 8.1335C18.5158 8.15295 18.3842 8.17449 18.2534 8.19806C18.1218 8.22176 17.9909 8.24752 17.8608 8.27531ZM27.2575 9.99894C27.012 10.3522 27.0898 10.8391 27.4376 11.0974C28.3598 11.7825 29.1775 12.6002 29.8626 13.5224C30.1209 13.8702 30.6078 13.9481 30.9611 13.7025C30.8885 13.5905 30.8142 13.4797 30.7381 13.3702C30.662 13.2606 30.5842 13.1523 30.5048 13.0454C29.7731 12.0604 28.8996 11.1869 27.9147 10.4552C27.8077 10.3758 27.6994 10.298 27.5898 10.2219C27.4803 10.1458 27.3695 10.0715 27.2575 9.99894Z" fill="#946DAE"/>
<path id="Subtract" fill-rule="evenodd" clip-rule="evenodd" d="M20.4799 31.0402C26.312 31.0402 31.0399 26.3123 31.0399 20.4802C31.0399 14.648 26.312 9.92017 20.4799 9.92017C14.6478 9.92017 9.91992 14.648 9.91992 20.4802C9.91992 26.3123 14.6478 31.0402 20.4799 31.0402ZM24.9866 17.3202C26.0911 17.3202 26.9866 16.4248 26.9866 15.3202C26.9866 14.2156 26.0911 13.3202 24.9866 13.3202C23.882 13.3202 22.9866 14.2156 22.9866 15.3202C22.9866 16.4248 23.882 17.3202 24.9866 17.3202Z" fill="#946DAE"/>
</g>
</g>
</svg>
