<svg width="40" height="40" viewBox="0 0 40 40" fill="none" xmlns="http://www.w3.org/2000/svg">
<mask id="path-1-inside-1_1964_3176" fill="white">
<path fill-rule="evenodd" clip-rule="evenodd" d="M20 40C31.0457 40 40 31.0457 40 20C40 8.9543 31.0457 0 20 0C8.9543 0 0 8.9543 0 20C0 31.0457 8.9543 40 20 40ZM15.3806 9.04004L19.0884 12.7479L12.7079 19.1285L9 15.4206C9.00536 15.403 9.01098 15.359 9.01955 15.2918C9.08675 14.7652 9.33518 12.8187 11.0569 11.0969C12.8189 9.33499 14.541 9.14163 15.1647 9.07159C15.269 9.05988 15.3426 9.05161 15.3806 9.04004ZM20.9115 27.3321L24.6194 31.0401C24.6371 31.0357 24.682 31.0327 24.7506 31.0283C25.2948 30.9928 27.3301 30.8601 29.075 29.1151C30.8259 27.3643 30.9558 25.3115 30.9893 24.782C30.9934 24.7174 30.996 24.6754 31 24.6595L27.2921 20.9517L20.9115 27.3321ZM31 15.4206L15.3806 31.04C15.3629 31.0356 15.318 31.0327 15.2494 31.0282C14.7052 30.9927 12.6699 30.8601 10.925 29.1151C9.17396 27.3641 9.04418 25.3112 9.01072 24.7819L9.01071 24.7818C9.00663 24.7172 9.00399 24.6754 9 24.6595L24.6194 9.04004C24.6574 9.05161 24.731 9.05988 24.8353 9.07159C25.459 9.14163 27.1811 9.33499 28.9431 11.0969C30.6648 12.8187 30.9132 14.7652 30.9804 15.2918L30.9805 15.2919L30.9805 15.292C30.989 15.359 30.9946 15.4031 31 15.4206ZM26.3995 14.5521L25.488 13.6406L24.5764 14.5521L25.488 15.4637L26.3995 14.5521ZM25.488 17.2867L24.5764 18.1982L23.6649 17.2867L24.5764 16.3752L25.488 17.2867ZM23.665 15.4636L22.7535 14.552L21.842 15.4636L22.7535 16.3751L23.665 15.4636ZM20.0189 17.2866L22.7534 20.0211L21.842 20.9326L19.1074 18.1981L20.0189 17.2866ZM20.9305 21.8442L18.196 19.1098L17.2844 20.0213L20.019 22.7558L20.9305 21.8442ZM18.1959 24.5786L17.2843 25.4901L16.3728 24.5786L17.2843 23.6671L18.1959 24.5786ZM16.373 22.7557L15.4615 21.8441L14.55 22.7557L15.4615 23.6672L16.373 22.7557ZM14.55 24.5786L15.4615 25.4901L14.55 26.4017L13.6384 25.4901L14.55 24.5786Z"/>
</mask>
<path fill-rule="evenodd" clip-rule="evenodd" d="M20 40C31.0457 40 40 31.0457 40 20C40 8.9543 31.0457 0 20 0C8.9543 0 0 8.9543 0 20C0 31.0457 8.9543 40 20 40ZM15.3806 9.04004L19.0884 12.7479L12.7079 19.1285L9 15.4206C9.00536 15.403 9.01098 15.359 9.01955 15.2918C9.08675 14.7652 9.33518 12.8187 11.0569 11.0969C12.8189 9.33499 14.541 9.14163 15.1647 9.07159C15.269 9.05988 15.3426 9.05161 15.3806 9.04004ZM20.9115 27.3321L24.6194 31.0401C24.6371 31.0357 24.682 31.0327 24.7506 31.0283C25.2948 30.9928 27.3301 30.8601 29.075 29.1151C30.8259 27.3643 30.9558 25.3115 30.9893 24.782C30.9934 24.7174 30.996 24.6754 31 24.6595L27.2921 20.9517L20.9115 27.3321ZM31 15.4206L15.3806 31.04C15.3629 31.0356 15.318 31.0327 15.2494 31.0282C14.7052 30.9927 12.6699 30.8601 10.925 29.1151C9.17396 27.3641 9.04418 25.3112 9.01072 24.7819L9.01071 24.7818C9.00663 24.7172 9.00399 24.6754 9 24.6595L24.6194 9.04004C24.6574 9.05161 24.731 9.05988 24.8353 9.07159C25.459 9.14163 27.1811 9.33499 28.9431 11.0969C30.6648 12.8187 30.9132 14.7652 30.9804 15.2918L30.9805 15.2919L30.9805 15.292C30.989 15.359 30.9946 15.4031 31 15.4206ZM26.3995 14.5521L25.488 13.6406L24.5764 14.5521L25.488 15.4637L26.3995 14.5521ZM25.488 17.2867L24.5764 18.1982L23.6649 17.2867L24.5764 16.3752L25.488 17.2867ZM23.665 15.4636L22.7535 14.552L21.842 15.4636L22.7535 16.3751L23.665 15.4636ZM20.0189 17.2866L22.7534 20.0211L21.842 20.9326L19.1074 18.1981L20.0189 17.2866ZM20.9305 21.8442L18.196 19.1098L17.2844 20.0213L20.019 22.7558L20.9305 21.8442ZM18.1959 24.5786L17.2843 25.4901L16.3728 24.5786L17.2843 23.6671L18.1959 24.5786ZM16.373 22.7557L15.4615 21.8441L14.55 22.7557L15.4615 23.6672L16.373 22.7557ZM14.55 24.5786L15.4615 25.4901L14.55 26.4017L13.6384 25.4901L14.55 24.5786Z" fill="#7EC4CF"/>
<path d="M19.0884 12.7479L19.7955 13.455L20.5026 12.7479L19.7955 12.0408L19.0884 12.7479ZM15.3806 9.04004L16.0877 8.33293L15.663 7.90832L15.0887 8.08358L15.3806 9.04004ZM12.7079 19.1285L12.0008 19.8357L12.708 20.5428L13.4151 19.8356L12.7079 19.1285ZM9 15.4206L8.04356 15.1287L7.86825 15.7031L8.29289 16.1277L9 15.4206ZM9.01955 15.2918L10.0115 15.4184L10.0115 15.4184L9.01955 15.2918ZM11.0569 11.0969L10.3498 10.3898L10.3497 10.3898L11.0569 11.0969ZM15.1647 9.07159L15.0531 8.07783H15.0531L15.1647 9.07159ZM24.6194 31.0401L23.9123 31.7472L24.3132 32.1481L24.8631 32.0099L24.6194 31.0401ZM20.9115 27.3321L20.2044 26.625L19.4973 27.3321L20.2044 28.0392L20.9115 27.3321ZM24.7506 31.0283L24.8157 32.0261H24.8157L24.7506 31.0283ZM29.075 29.1151L28.3679 28.408L28.3679 28.408L29.075 29.1151ZM30.9893 24.782L31.9873 24.8452V24.8452L30.9893 24.782ZM31 24.6595L31.9699 24.9031L32.108 24.3533L31.7071 23.9524L31 24.6595ZM27.2921 20.9517L27.9993 20.2446L27.2922 19.5375L26.585 20.2445L27.2921 20.9517ZM15.3806 31.04L15.1369 32.0099L15.6868 32.148L16.0877 31.7471L15.3806 31.04ZM31 15.4206L31.7071 16.1277L32.1317 15.7031L31.9565 15.1287L31 15.4206ZM15.2494 31.0282L15.1843 32.0261H15.1843L15.2494 31.0282ZM10.925 29.1151L11.6321 28.408L11.6321 28.408L10.925 29.1151ZM9.01072 24.7819L10.0088 24.7188L10.0082 24.7106L9.01072 24.7819ZM9.01071 24.7818L8.01267 24.8449L8.01326 24.853L9.01071 24.7818ZM9 24.6595L8.29289 23.9524L7.89213 24.3531L8.03007 24.9029L9 24.6595ZM24.6194 9.04004L24.9113 8.08358L24.337 7.90831L23.9123 8.33293L24.6194 9.04004ZM24.8353 9.07159L24.9469 8.07783H24.9469L24.8353 9.07159ZM28.9431 11.0969L29.6503 10.3898L29.6502 10.3898L28.9431 11.0969ZM30.9804 15.2918L31.9734 15.1727L31.9724 15.1652L30.9804 15.2918ZM30.9805 15.2919L29.9876 15.411L29.9879 15.4134L30.9805 15.2919ZM30.9805 15.292L29.9879 15.4135L29.9885 15.4186L30.9805 15.292ZM25.488 13.6406L26.1951 12.9335L25.488 12.2264L24.7809 12.9335L25.488 13.6406ZM26.3995 14.5521L27.1066 15.2592L27.8137 14.5521L27.1066 13.845L26.3995 14.5521ZM24.5764 14.5521L23.8693 13.845L23.1622 14.5521L23.8693 15.2592L24.5764 14.5521ZM25.488 15.4637L24.7809 16.1708L25.488 16.878L26.1951 16.1708L25.488 15.4637ZM24.5764 18.1982L23.8693 18.9053L24.5764 19.6124L25.2835 18.9053L24.5764 18.1982ZM25.488 17.2867L26.1951 17.9938L26.9023 17.2867L26.1951 16.5796L25.488 17.2867ZM23.6649 17.2867L22.9578 16.5796L22.2507 17.2867L22.9578 17.9938L23.6649 17.2867ZM24.5764 16.3752L25.2835 15.6681L24.5764 14.961L23.8693 15.6681L24.5764 16.3752ZM22.7535 14.552L23.4607 13.8449L22.7535 13.1377L22.0464 13.8449L22.7535 14.552ZM23.665 15.4636L24.3721 16.1707L25.0792 15.4636L24.3722 14.7565L23.665 15.4636ZM21.842 15.4636L21.1349 14.7565L20.4279 15.4636L21.1349 16.1707L21.842 15.4636ZM22.7535 16.3751L22.0464 17.0822L22.7535 17.7893L23.4606 17.0822L22.7535 16.3751ZM22.7534 20.0211L23.4606 20.7282L24.1677 20.0211L23.4606 19.314L22.7534 20.0211ZM20.0189 17.2866L20.726 16.5795L20.0189 15.8724L19.3118 16.5795L20.0189 17.2866ZM21.842 20.9326L21.1348 21.6397L21.842 22.3468L22.5491 21.6397L21.842 20.9326ZM19.1074 18.1981L18.4003 17.491L17.6932 18.1981L18.4003 18.9052L19.1074 18.1981ZM18.196 19.1098L18.9031 18.4027L18.196 17.6956L17.4889 18.4026L18.196 19.1098ZM20.9305 21.8442L21.6376 22.5513L22.3446 21.8442L21.6376 21.1371L20.9305 21.8442ZM17.2844 20.0213L16.5774 19.3141L15.8702 20.0212L16.5773 20.7284L17.2844 20.0213ZM20.019 22.7558L19.3118 23.4629L20.019 24.17L20.7261 23.4629L20.019 22.7558ZM17.2843 25.4901L16.5772 26.1972L17.2843 26.9043L17.9914 26.1973L17.2843 25.4901ZM18.1959 24.5786L18.903 25.2858L19.6102 24.5786L18.903 23.8715L18.1959 24.5786ZM16.3728 24.5786L15.6657 23.8715L14.9586 24.5786L15.6657 25.2857L16.3728 24.5786ZM17.2843 23.6671L17.9914 22.96L17.2843 22.2529L16.5772 22.96L17.2843 23.6671ZM15.4615 21.8441L16.1687 21.137L15.4615 20.4298L14.7544 21.137L15.4615 21.8441ZM16.373 22.7557L17.0801 23.4628L17.7872 22.7557L17.0802 22.0486L16.373 22.7557ZM14.55 22.7557L13.8429 22.0486L13.1359 22.7557L13.8429 23.4628L14.55 22.7557ZM15.4615 23.6672L14.7544 24.3743L15.4615 25.0814L16.1687 24.3743L15.4615 23.6672ZM15.4615 25.4901L16.1686 26.1972L16.8757 25.4901L16.1686 24.783L15.4615 25.4901ZM14.55 24.5786L15.2571 23.8715L14.55 23.1644L13.8429 23.8715L14.55 24.5786ZM14.55 26.4017L13.8429 27.1088L14.55 27.8159L15.2571 27.1088L14.55 26.4017ZM13.6384 25.4901L12.9314 24.783L12.2242 25.4901L12.9313 26.1972L13.6384 25.4901ZM39 20C39 30.4934 30.4934 39 20 39V41C31.598 41 41 31.598 41 20H39ZM20 1C30.4934 1 39 9.50659 39 20H41C41 8.40202 31.598 -1 20 -1V1ZM1 20C1 9.50659 9.50659 1 20 1V-1C8.40202 -1 -1 8.40202 -1 20H1ZM20 39C9.50659 39 1 30.4934 1 20H-1C-1 31.598 8.40202 41 20 41V39ZM19.7955 12.0408L16.0877 8.33293L14.6735 9.74715L18.3813 13.455L19.7955 12.0408ZM13.4151 19.8356L19.7955 13.455L18.3813 12.0408L12.0008 18.4214L13.4151 19.8356ZM8.29289 16.1277L12.0008 19.8357L13.4151 18.4214L9.70711 14.7135L8.29289 16.1277ZM8.0276 15.1652C8.0254 15.1825 8.02367 15.196 8.02212 15.2078C8.02056 15.2197 8.01959 15.2267 8.01901 15.2307C8.01875 15.2325 8.01873 15.2326 8.01893 15.2313C8.01911 15.2302 8.01972 15.2264 8.02078 15.2207C8.02178 15.2153 8.02373 15.2051 8.02674 15.1918C8.02829 15.185 8.03034 15.1764 8.03295 15.1663C8.03553 15.1563 8.03902 15.1435 8.04356 15.1287L9.95644 15.7125C9.98491 15.6192 9.99672 15.5286 9.99813 15.519C10.0028 15.4866 10.0077 15.4485 10.0115 15.4184L8.0276 15.1652ZM10.3497 10.3898C8.38665 12.353 8.10246 14.5787 8.0276 15.1652L10.0115 15.4184C10.0711 14.9518 10.2837 13.2844 11.764 11.804L10.3497 10.3898ZM15.0531 8.07783C14.3377 8.15816 12.3465 8.39312 10.3498 10.3898L11.764 11.804C13.2912 10.2769 14.7442 10.1251 15.2763 10.0653L15.0531 8.07783ZM15.0887 8.08358C15.1104 8.07695 15.1278 8.07264 15.1386 8.07012C15.1498 8.06752 15.158 8.06593 15.1622 8.06515C15.1665 8.06435 15.1686 8.06402 15.1681 8.06411C15.1675 8.06419 15.1654 8.06452 15.1613 8.06509C15.1525 8.0663 15.1397 8.06792 15.1205 8.07017C15.1013 8.07242 15.0799 8.07483 15.0531 8.07783L15.2763 10.0653C15.3197 10.0605 15.5209 10.0427 15.6724 9.9965L15.0887 8.08358ZM25.3266 30.333L21.6186 26.625L20.2044 28.0392L23.9123 31.7472L25.3266 30.333ZM24.6856 30.0304C24.6549 30.0324 24.6158 30.0349 24.5824 30.0377C24.5747 30.0383 24.477 30.0448 24.3758 30.0702L24.8631 32.0099C24.8465 32.0141 24.8323 32.0172 24.8213 32.0194C24.8101 32.0217 24.8005 32.0234 24.793 32.0247C24.7784 32.0271 24.7673 32.0286 24.7613 32.0293C24.7501 32.0307 24.7445 32.0311 24.7494 32.0307C24.7532 32.0304 24.7602 32.0298 24.7723 32.029C24.7843 32.0282 24.798 32.0273 24.8157 32.0261L24.6856 30.0304ZM28.3679 28.408C26.8918 29.8841 25.1738 29.9985 24.6856 30.0304L24.8157 32.0261C25.4158 31.987 27.7683 31.8361 29.7822 29.8222L28.3679 28.408ZM29.9913 24.7189C29.9613 25.1927 29.849 26.927 28.3679 28.408L29.7822 29.8222C31.8027 27.8016 31.9502 25.4304 31.9873 24.8452L29.9913 24.7189ZM30.0301 24.4159C30.0045 24.5181 29.9983 24.6171 29.998 24.6213C29.9954 24.653 29.9931 24.6902 29.9913 24.7189L31.9873 24.8452C31.9883 24.8285 31.9891 24.8157 31.9899 24.8045C31.9906 24.7932 31.9911 24.7869 31.9914 24.7837C31.9917 24.7794 31.9913 24.7855 31.9899 24.7972C31.9891 24.8034 31.9876 24.815 31.9851 24.8301C31.9838 24.8378 31.9821 24.8477 31.9798 24.8593C31.9775 24.8708 31.9743 24.8857 31.9699 24.9031L30.0301 24.4159ZM26.585 21.6588L30.2929 25.3666L31.7071 23.9524L27.9993 20.2446L26.585 21.6588ZM21.6186 28.0392L27.9992 21.6588L26.585 20.2445L20.2044 26.625L21.6186 28.0392ZM16.0877 31.7471L31.7071 16.1277L30.2929 14.7135L14.6735 30.3329L16.0877 31.7471ZM15.1843 32.0261C15.202 32.0272 15.2157 32.0281 15.2277 32.029C15.2398 32.0298 15.2468 32.0303 15.2506 32.0307C15.2555 32.0311 15.2499 32.0307 15.2387 32.0293C15.2327 32.0285 15.2216 32.0271 15.207 32.0246C15.1995 32.0234 15.1899 32.0216 15.1787 32.0194C15.1677 32.0172 15.1535 32.0141 15.1369 32.0099L15.6242 30.0702C15.523 30.0448 15.4253 30.0383 15.4176 30.0376C15.3842 30.0348 15.3451 30.0323 15.3144 30.0303L15.1843 32.0261ZM10.2178 29.8222C12.2317 31.8361 14.5842 31.987 15.1843 32.0261L15.3144 30.0303C14.8262 29.9985 13.1082 29.8841 11.6321 28.408L10.2178 29.8222ZM8.01271 24.845C8.0497 25.43 8.19707 27.8015 10.2179 29.8222L11.6321 28.408C10.1509 26.9268 10.0387 25.1924 10.0087 24.7188L8.01271 24.845ZM8.01326 24.853L8.01326 24.8531L10.0082 24.7106L10.0082 24.7106L8.01326 24.853ZM8.03007 24.9029C8.0257 24.8855 8.02249 24.8706 8.0202 24.8591C8.01788 24.8476 8.01613 24.8376 8.01485 24.8299C8.01236 24.8148 8.01086 24.8033 8.01011 24.797C8.00868 24.7853 8.00827 24.7792 8.00862 24.7835C8.00888 24.7867 8.00935 24.793 8.0101 24.8043C8.01084 24.8154 8.01166 24.8283 8.01271 24.8449L10.0087 24.7187C10.0069 24.69 10.0046 24.6529 10.002 24.6213C10.0017 24.6171 9.99554 24.5182 9.96993 24.4161L8.03007 24.9029ZM23.9123 8.33293L8.29289 23.9524L9.70711 25.3666L25.3265 9.74715L23.9123 8.33293ZM24.9469 8.07783C24.9201 8.07483 24.8987 8.07242 24.8795 8.07017C24.8603 8.06792 24.8475 8.0663 24.8387 8.06509C24.8346 8.06452 24.8325 8.06419 24.8319 8.06411C24.8314 8.06402 24.8335 8.06435 24.8378 8.06515C24.842 8.06593 24.8502 8.06752 24.8614 8.07012C24.8722 8.07264 24.8896 8.07695 24.9113 8.08358L24.3276 9.9965C24.4791 10.0427 24.6803 10.0605 24.7237 10.0653L24.9469 8.07783ZM29.6502 10.3898C27.6535 8.39312 25.6623 8.15816 24.9469 8.07783L24.7237 10.0653C25.2558 10.1251 26.7088 10.2769 28.236 11.804L29.6502 10.3898ZM31.9724 15.1652C31.8975 14.5787 31.6133 12.353 29.6503 10.3898L28.236 11.804C29.7163 13.2844 29.9289 14.9518 29.9885 15.4184L31.9724 15.1652ZM31.9733 15.1727L31.9733 15.1727L29.9876 15.411L29.9876 15.411L31.9733 15.1727ZM31.9731 15.1704L31.973 15.1703L29.9879 15.4134L29.9879 15.4135L31.9731 15.1704ZM31.9565 15.1287C31.961 15.1436 31.9645 15.1563 31.9671 15.1663C31.9697 15.1764 31.9717 15.185 31.9733 15.1918C31.9763 15.2051 31.9782 15.2152 31.9792 15.2207C31.9803 15.2264 31.9809 15.2302 31.9811 15.2313C31.9813 15.2326 31.9813 15.2325 31.981 15.2307C31.9804 15.2267 31.9794 15.2197 31.9779 15.2079C31.9763 15.1961 31.9746 15.1826 31.9724 15.1654L29.9885 15.4186C29.9924 15.4487 29.9972 15.4866 30.0019 15.519C30.0033 15.5287 30.0151 15.6192 30.0435 15.7125L31.9565 15.1287ZM24.7809 14.3477L25.6924 15.2592L27.1066 13.845L26.1951 12.9335L24.7809 14.3477ZM25.2835 15.2593L26.1951 14.3478L24.7809 12.9335L23.8693 13.845L25.2835 15.2593ZM26.1951 14.7566L25.2835 13.845L23.8693 15.2592L24.7809 16.1708L26.1951 14.7566ZM25.6924 13.845L24.7809 14.7566L26.1951 16.1708L27.1066 15.2592L25.6924 13.845ZM25.2835 18.9053L26.1951 17.9938L24.7809 16.5796L23.8693 17.491L25.2835 18.9053ZM22.9578 17.9938L23.8693 18.9053L25.2835 17.4911L24.372 16.5796L22.9578 17.9938ZM23.8693 15.6681L22.9578 16.5796L24.372 17.9938L25.2835 17.0823L23.8693 15.6681ZM26.1951 16.5796L25.2835 15.6681L23.8693 17.0823L24.7809 17.9938L26.1951 16.5796ZM22.0464 15.2591L22.9579 16.1706L24.3722 14.7565L23.4607 13.8449L22.0464 15.2591ZM22.5492 16.1706L23.4607 15.2591L22.0464 13.8449L21.1349 14.7565L22.5492 16.1706ZM23.4606 15.668L22.5491 14.7565L21.1349 16.1707L22.0464 17.0822L23.4606 15.668ZM22.9579 14.7565L22.0464 15.668L23.4606 17.0822L24.3721 16.1707L22.9579 14.7565ZM23.4606 19.314L20.726 16.5795L19.3118 17.9937L22.0463 20.7282L23.4606 19.314ZM22.5491 21.6397L23.4606 20.7282L22.0463 19.314L21.1348 20.2255L22.5491 21.6397ZM18.4003 18.9052L21.1348 21.6397L22.5491 20.2255L19.8145 17.491L18.4003 18.9052ZM19.3118 16.5795L18.4003 17.491L19.8145 18.9052L20.726 17.9937L19.3118 16.5795ZM17.4889 19.8169L20.2233 22.5513L21.6376 21.1371L18.9031 18.4027L17.4889 19.8169ZM17.9915 20.7284L18.9031 19.8169L17.4889 18.4026L16.5774 19.3141L17.9915 20.7284ZM20.7261 22.0487L17.9915 19.3142L16.5773 20.7284L19.3118 23.4629L20.7261 22.0487ZM20.2233 21.1371L19.3118 22.0487L20.7261 23.4629L21.6376 22.5513L20.2233 21.1371ZM17.9914 26.1973L18.903 25.2858L17.4888 23.8715L16.5772 24.783L17.9914 26.1973ZM15.6657 25.2857L16.5772 26.1972L17.9914 24.783L17.0799 23.8715L15.6657 25.2857ZM16.5772 22.96L15.6657 23.8715L17.0799 25.2857L17.9914 24.3742L16.5772 22.96ZM18.903 23.8715L17.9914 22.96L16.5772 24.3743L17.4888 25.2858L18.903 23.8715ZM14.7544 22.5512L15.6659 23.4628L17.0802 22.0486L16.1687 21.137L14.7544 22.5512ZM15.2572 23.4628L16.1687 22.5512L14.7544 21.137L13.8429 22.0486L15.2572 23.4628ZM16.1687 22.9601L15.2572 22.0486L13.8429 23.4628L14.7544 24.3743L16.1687 22.9601ZM15.6659 22.0486L14.7544 22.9601L16.1687 24.3743L17.0801 23.4628L15.6659 22.0486ZM16.1686 24.783L15.2571 23.8715L13.8429 25.2857L14.7544 26.1972L16.1686 24.783ZM15.2571 27.1088L16.1686 26.1972L14.7544 24.783L13.8429 25.6946L15.2571 27.1088ZM12.9313 26.1972L13.8429 27.1088L15.2571 25.6946L14.3455 24.783L12.9313 26.1972ZM13.8429 23.8715L12.9314 24.783L14.3455 26.1973L15.2571 25.2858L13.8429 23.8715Z" fill="#7EC4CF" mask="url(#path-1-inside-1_1964_3176)"/>
</svg>
