<svg width="40" height="40" viewBox="0 0 40 40" fill="none" xmlns="http://www.w3.org/2000/svg">
<circle cx="20" cy="20" r="19.5" stroke="#7EC4CF"/>
<path d="M19.0884 12.7479L15.3806 9.04004C15.1158 9.12082 13.1135 9.04034 11.0569 11.0969C9.11559 13.0383 9.04735 15.2654 9 15.4206L12.7079 19.1285L19.0884 12.7479Z" fill="#7EC4CF"/>
<path d="M20.9115 27.3321L24.6194 31.0401C24.7766 31.0006 27.1099 31.0803 29.075 29.1151C31.0397 27.1505 30.9633 24.8056 31 24.6595L27.2921 20.9517L20.9115 27.3321Z" fill="#7EC4CF"/>
<path fill-rule="evenodd" clip-rule="evenodd" d="M15.3806 31.04L31 15.4206C30.9946 15.4031 30.989 15.359 30.9805 15.292L30.9805 15.2919L30.9804 15.2918C30.9132 14.7652 30.6648 12.8187 28.9431 11.0969C27.1811 9.33499 25.459 9.14163 24.8353 9.07159C24.731 9.05988 24.6574 9.05161 24.6194 9.04004L9 24.6595C9.00399 24.6754 9.00664 24.7173 9.01072 24.7819C9.04418 25.3112 9.17396 27.3641 10.925 29.1151C12.6699 30.8601 14.7052 30.9927 15.2494 31.0282C15.318 31.0327 15.3629 31.0356 15.3806 31.04ZM25.488 13.6406L26.3995 14.5521L25.488 15.4637L24.5764 14.5521L25.488 13.6406ZM24.5764 18.1982L25.488 17.2867L24.5764 16.3752L23.6649 17.2867L24.5764 18.1982ZM22.7535 14.552L23.665 15.4636L22.7535 16.3751L21.842 15.4636L22.7535 14.552ZM22.7534 20.0211L20.0189 17.2866L19.1074 18.1981L21.842 20.9326L22.7534 20.0211ZM18.196 19.1098L20.9305 21.8442L20.019 22.7558L17.2844 20.0213L18.196 19.1098ZM17.2843 25.4901L18.1959 24.5786L17.2843 23.6671L16.3728 24.5786L17.2843 25.4901ZM15.4615 21.8441L16.373 22.7557L15.4615 23.6672L14.55 22.7557L15.4615 21.8441ZM15.4615 25.4901L14.55 24.5786L13.6384 25.4901L14.55 26.4017L15.4615 25.4901Z" fill="#7EC4CF"/>
</svg>
