<svg width="41" height="40" viewBox="0 0 41 40" fill="none" xmlns="http://www.w3.org/2000/svg">
<circle cx="20.3333" cy="20" r="19.5" stroke="#874C48"/>
<mask id="mask0_1964_3448" style="mask-type:luminance" maskUnits="userSpaceOnUse" x="12" y="18" width="18" height="14">
<path fill-rule="evenodd" clip-rule="evenodd" d="M12.3333 18.9624H29.333V31.0001H12.3333V18.9624Z" fill="white"/>
</mask>
<g mask="url(#mask0_1964_3448)">
<path fill-rule="evenodd" clip-rule="evenodd" d="M25.2642 23.1133C23.8921 23.1133 22.7764 21.9963 22.7764 20.6228H23.6056C23.6056 21.5385 24.3499 22.2832 25.2642 22.2832C26.1789 22.2832 26.9227 21.5385 26.9227 20.6228H27.752C27.752 21.9963 26.6366 23.1133 25.2642 23.1133ZM16.8164 23.1133C15.4444 23.1133 14.3286 21.9963 14.3286 20.6228H15.1579C15.1579 21.5385 15.9017 22.2832 16.8164 22.2832C17.7315 22.2832 18.475 21.5385 18.475 20.6228H19.3042C19.3042 21.9963 18.1889 23.1133 16.8164 23.1133ZM29.333 18.9624H12.333V22.4907C12.333 27.1904 16.1389 31.0001 20.833 31.0001C25.5279 31.0001 29.333 27.1904 29.333 22.4907V18.9624Z" fill="#874C48"/>
</g>
<mask id="mask1_1964_3448" style="mask-type:luminance" maskUnits="userSpaceOnUse" x="13" y="9" width="16" height="10">
<path fill-rule="evenodd" clip-rule="evenodd" d="M13.1631 9H28.9192V18.132H13.1631V9Z" fill="white"/>
</mask>
<g mask="url(#mask1_1964_3448)">
<path fill-rule="evenodd" clip-rule="evenodd" d="M23.3806 15.695L21.6478 13.9603L23.3628 12.2435C23.7256 12.7283 23.9428 13.3286 23.9428 13.9811C23.9428 14.6228 23.733 15.2143 23.3806 15.695ZM21.0404 16.8867C20.389 16.8867 19.789 16.6692 19.3043 16.306L21.0611 14.5472L22.8005 16.2882C22.3121 16.6622 21.703 16.8867 21.0404 16.8867ZM18.1379 13.9811C18.1379 13.3178 18.3623 12.7084 18.7363 12.2194L20.4756 13.9603L18.7184 15.7191C18.3552 15.2339 18.1379 14.6336 18.1379 13.9811ZM21.0404 11.0755C21.6926 11.0755 22.2918 11.293 22.7765 11.6562L21.0616 13.3731L19.3292 11.6384C19.8085 11.286 20.3998 11.0755 21.0404 11.0755ZM23.5289 9.41509C22.9609 9.41509 22.4302 9.55623 21.9616 9.80943C21.3811 9.30717 20.6265 9 19.7972 9C18.3833 9 17.1809 9.8883 16.7041 11.1336C15.1616 11.42 13.9924 12.7691 13.9924 14.3962C13.9924 14.5369 14.0065 14.6748 14.0235 14.8113H14.407C15.5501 14.8113 16.4802 15.7424 16.4802 16.8868H15.6509C15.6509 16.2002 15.0928 15.6415 14.407 15.6415H13.8949C13.4388 16.2106 13.1631 16.9312 13.1631 17.717C13.1631 17.8581 13.1714 17.9951 13.1884 18.1321H25.6021V17.3019C25.6021 16.1575 26.5326 15.2264 27.6753 15.2264V16.0566C26.9895 16.0566 26.4314 16.6153 26.4314 17.3019V18.1321H28.4714C28.7579 17.6464 28.9192 17.0777 28.9192 16.4717C28.9192 15.0562 28.0323 13.8483 26.7838 13.3709C26.8257 13.1675 26.846 12.9517 26.846 12.7358C26.846 10.9011 25.3616 9.41509 23.5289 9.41509Z" fill="#874C48"/>
</g>
</svg>
