<svg width="41" height="41" viewBox="0 0 41 41" fill="none" xmlns="http://www.w3.org/2000/svg">
<mask id="path-1-inside-1_1964_3704" fill="white">
<path fill-rule="evenodd" clip-rule="evenodd" d="M20.3333 40.417C31.3789 40.417 40.3333 31.4627 40.3333 20.417C40.3333 9.3713 31.3789 0.416992 20.3333 0.416992C9.28756 0.416992 0.333252 9.3713 0.333252 20.417C0.333252 31.4627 9.28756 40.417 20.3333 40.417ZM20.3339 8.41699C20.0953 8.41722 19.8685 8.51063 19.7115 8.67331C17.5245 10.9279 14.3405 12.3568 10.7801 12.3568C10.6907 12.3568 10.5879 12.3506 10.4693 12.3434L10.469 12.3434C10.3888 12.3385 10.3015 12.3332 10.2062 12.3291C9.98006 12.3191 9.75929 12.3935 9.59528 12.5349C9.43127 12.6763 9.33833 12.8724 9.3381 13.0775C9.33704 15.3213 9.33448 17.5581 9.33358 18.3508L9.33357 18.3546L9.33325 18.6504C9.34107 24.8182 13.6405 30.3188 20.0591 32.3739C20.2379 32.4313 20.4331 32.4313 20.6119 32.3739C27.0288 30.3176 31.3254 24.8172 31.3329 18.6504C31.333 18.6416 31.333 18.6328 31.3329 18.624C31.3341 18.6562 31.334 18.6549 31.3336 18.6361C31.3329 18.6102 31.3315 18.5511 31.3313 18.501C31.3312 18.4793 31.3311 18.4552 31.3312 18.4288C31.3312 18.4068 31.3312 18.3833 31.3313 18.3583C31.3314 18.2941 31.3315 18.2198 31.3313 18.1363L31.3305 17.8577L31.3305 17.8561C31.3297 17.5826 31.3287 17.2482 31.328 16.8694L31.3269 16.3017L31.3269 16.299C31.3251 15.3513 31.3228 14.2143 31.3216 13.0775C31.3213 12.8726 31.2286 12.6768 31.0649 12.5354C30.9013 12.3941 30.6809 12.3195 30.4551 12.3291C30.3588 12.3332 30.2709 12.3387 30.1907 12.3436L30.1906 12.3436C30.0748 12.3507 29.9751 12.3568 29.8893 12.3568C26.3289 12.3568 23.1415 10.9277 20.9546 8.67331V8.67185C20.7977 8.51009 20.5716 8.41726 20.3339 8.41699ZM20.0887 26.0876C20.0887 26.0876 12.9455 23.4401 12.9455 18.6129C12.9308 16.5938 14.6428 14.9625 16.7533 14.9625C18.2439 14.9625 19.5426 15.7915 20.1625 16.9949C20.7824 15.7915 22.0811 14.9625 23.5718 14.9625C25.6822 14.9625 27.3942 16.5938 27.3942 18.6129C27.3942 23.4133 20.0887 26.0876 20.0887 26.0876Z"/>
</mask>
<path fill-rule="evenodd" clip-rule="evenodd" d="M20.3333 40.417C31.3789 40.417 40.3333 31.4627 40.3333 20.417C40.3333 9.3713 31.3789 0.416992 20.3333 0.416992C9.28756 0.416992 0.333252 9.3713 0.333252 20.417C0.333252 31.4627 9.28756 40.417 20.3333 40.417ZM20.3339 8.41699C20.0953 8.41722 19.8685 8.51063 19.7115 8.67331C17.5245 10.9279 14.3405 12.3568 10.7801 12.3568C10.6907 12.3568 10.5879 12.3506 10.4693 12.3434L10.469 12.3434C10.3888 12.3385 10.3015 12.3332 10.2062 12.3291C9.98006 12.3191 9.75929 12.3935 9.59528 12.5349C9.43127 12.6763 9.33833 12.8724 9.3381 13.0775C9.33704 15.3213 9.33448 17.5581 9.33358 18.3508L9.33357 18.3546L9.33325 18.6504C9.34107 24.8182 13.6405 30.3188 20.0591 32.3739C20.2379 32.4313 20.4331 32.4313 20.6119 32.3739C27.0288 30.3176 31.3254 24.8172 31.3329 18.6504C31.333 18.6416 31.333 18.6328 31.3329 18.624C31.3341 18.6562 31.334 18.6549 31.3336 18.6361C31.3329 18.6102 31.3315 18.5511 31.3313 18.501C31.3312 18.4793 31.3311 18.4552 31.3312 18.4288C31.3312 18.4068 31.3312 18.3833 31.3313 18.3583C31.3314 18.2941 31.3315 18.2198 31.3313 18.1363L31.3305 17.8577L31.3305 17.8561C31.3297 17.5826 31.3287 17.2482 31.328 16.8694L31.3269 16.3017L31.3269 16.299C31.3251 15.3513 31.3228 14.2143 31.3216 13.0775C31.3213 12.8726 31.2286 12.6768 31.0649 12.5354C30.9013 12.3941 30.6809 12.3195 30.4551 12.3291C30.3588 12.3332 30.2709 12.3387 30.1907 12.3436L30.1906 12.3436C30.0748 12.3507 29.9751 12.3568 29.8893 12.3568C26.3289 12.3568 23.1415 10.9277 20.9546 8.67331V8.67185C20.7977 8.51009 20.5716 8.41726 20.3339 8.41699ZM20.0887 26.0876C20.0887 26.0876 12.9455 23.4401 12.9455 18.6129C12.9308 16.5938 14.6428 14.9625 16.7533 14.9625C18.2439 14.9625 19.5426 15.7915 20.1625 16.9949C20.7824 15.7915 22.0811 14.9625 23.5718 14.9625C25.6822 14.9625 27.3942 16.5938 27.3942 18.6129C27.3942 23.4133 20.0887 26.0876 20.0887 26.0876Z" fill="#9CADCE"/>
<path d="M19.7115 8.67331L20.4293 9.36958L20.431 9.36779L19.7115 8.67331ZM20.3339 8.41699L20.335 7.41699L20.3329 7.41699L20.3339 8.41699ZM10.4693 12.3434L10.4069 13.3414L10.4086 13.3415L10.4693 12.3434ZM10.469 12.3434L10.5314 11.3453L10.5296 11.3452L10.469 12.3434ZM10.2062 12.3291L10.1622 13.3281L10.1631 13.3281L10.2062 12.3291ZM9.59528 12.5349L8.94231 11.7775V11.7775L9.59528 12.5349ZM9.3381 13.0775L8.3381 13.0764V13.077L9.3381 13.0775ZM9.33358 18.3508L10.3336 18.3523V18.3519L9.33358 18.3508ZM9.33357 18.3546L8.33357 18.3531V18.3535L9.33357 18.3546ZM9.33325 18.6504L8.33325 18.6493L8.33325 18.6517L9.33325 18.6504ZM20.0591 32.3739L20.3646 31.4218L20.364 31.4216L20.0591 32.3739ZM20.6119 32.3739L20.3067 31.4217L20.3063 31.4218L20.6119 32.3739ZM31.3329 18.6504L30.3331 18.6311L30.3329 18.6401L30.3329 18.6492L31.3329 18.6504ZM31.3329 18.624L32.3322 18.5873L30.3331 18.6434L31.3329 18.624ZM31.3336 18.6361L32.3333 18.6115V18.6114L31.3336 18.6361ZM31.3313 18.501L32.3312 18.4969L32.3312 18.4964L31.3313 18.501ZM31.3312 18.4288L30.3312 18.4281V18.4281L31.3312 18.4288ZM31.3313 18.3583L32.3313 18.3601V18.3601L31.3313 18.3583ZM31.3313 18.1363L30.3313 18.1392V18.1394L31.3313 18.1363ZM31.3305 17.8577L32.3305 17.8548L32.3305 17.854L31.3305 17.8577ZM31.3305 17.8561L30.3305 17.859L30.3305 17.8598L31.3305 17.8561ZM31.328 16.8694L32.328 16.8677V16.8675L31.328 16.8694ZM31.3269 16.3017L32.3269 16.2997V16.2995L31.3269 16.3017ZM31.3269 16.299L30.3269 16.301V16.3012L31.3269 16.299ZM31.3216 13.0775L32.3216 13.0764V13.0763L31.3216 13.0775ZM30.4551 12.3291L30.4128 11.33L30.4118 11.33L30.4551 12.3291ZM30.1907 12.3436L30.1293 11.3455L30.1283 11.3455L30.1907 12.3436ZM30.1906 12.3436L30.252 13.3417L30.253 13.3416L30.1906 12.3436ZM20.9546 8.67331H19.9546V9.07864L20.2368 9.36958L20.9546 8.67331ZM20.9546 8.67185H21.9546V8.26645L21.6723 7.9755L20.9546 8.67185ZM12.9455 18.6129H13.9456L13.9455 18.6056L12.9455 18.6129ZM20.0887 26.0876L19.7412 27.0253L20.0866 27.1533L20.4325 27.0267L20.0887 26.0876ZM20.1625 16.9949L19.2735 17.4528L20.1625 19.1788L21.0515 17.4528L20.1625 16.9949ZM39.3333 20.417C39.3333 30.9104 30.8267 39.417 20.3333 39.417V41.417C31.9312 41.417 41.3333 32.015 41.3333 20.417H39.3333ZM20.3333 1.41699C30.8267 1.41699 39.3333 9.92358 39.3333 20.417H41.3333C41.3333 8.81901 31.9312 -0.583008 20.3333 -0.583008V1.41699ZM1.33325 20.417C1.33325 9.92358 9.83984 1.41699 20.3333 1.41699V-0.583008C8.73527 -0.583008 -0.666748 8.81901 -0.666748 20.417H1.33325ZM20.3333 39.417C9.83984 39.417 1.33325 30.9104 1.33325 20.417H-0.666748C-0.666748 32.015 8.73527 41.417 20.3333 41.417V39.417ZM20.431 9.36779C20.4089 9.39069 20.3878 9.40276 20.3729 9.40889C20.358 9.41503 20.3453 9.41698 20.3348 9.41699L20.3329 7.41699C19.84 7.41746 19.3485 7.60947 18.992 7.97883L20.431 9.36779ZM10.7801 13.3568C14.6095 13.3568 18.053 11.8193 20.4293 9.36958L18.9937 7.97704C16.9961 10.0364 14.0714 11.3568 10.7801 11.3568V13.3568ZM10.4086 13.3415C10.5179 13.3482 10.654 13.3568 10.7801 13.3568V11.3568C10.7274 11.3568 10.6579 11.353 10.53 11.3452L10.4086 13.3415ZM10.4066 13.3414L10.4069 13.3414L10.5316 11.3453L10.5314 11.3453L10.4066 13.3414ZM10.1631 13.3281C10.2484 13.3318 10.3274 13.3366 10.4083 13.3415L10.5296 11.3452C10.4502 11.3404 10.3546 11.3345 10.2493 11.33L10.1631 13.3281ZM10.2483 13.2923C10.228 13.3097 10.2097 13.3185 10.1967 13.3229C10.1837 13.3273 10.1722 13.3285 10.1622 13.3281L10.2502 11.33C9.78215 11.3094 9.30879 11.4615 8.94231 11.7775L10.2483 13.2923ZM10.3381 13.0786C10.338 13.182 10.2903 13.256 10.2483 13.2923L8.94231 11.7775C8.57222 12.0966 8.33869 12.5628 8.3381 13.0764L10.3381 13.0786ZM10.3336 18.3519C10.3345 17.5593 10.337 15.3221 10.3381 13.078L8.3381 13.077C8.33704 15.3204 8.33448 17.557 8.33358 18.3497L10.3336 18.3519ZM10.3336 18.3561L10.3336 18.3523L8.33358 18.3493L8.33357 18.3531L10.3336 18.3561ZM10.3333 18.6515L10.3336 18.3557L8.33357 18.3535L8.33325 18.6493L10.3333 18.6515ZM20.364 31.4216C14.3072 29.4823 10.3405 24.3304 10.3333 18.6491L8.33325 18.6517C8.34169 25.3059 12.9738 31.1554 19.7541 33.3263L20.364 31.4216ZM20.3063 31.4218C20.3174 31.4182 20.3271 31.417 20.3355 31.417C20.3439 31.417 20.3536 31.4182 20.3646 31.4218L19.7535 33.3261C20.131 33.4473 20.5399 33.4473 20.9175 33.3261L20.3063 31.4218ZM30.3329 18.6492C30.326 24.3297 26.3618 29.4812 20.3067 31.4217L20.9171 33.3262C27.6958 31.1539 32.3248 25.3047 32.3329 18.6516L30.3329 18.6492ZM30.3331 18.6434C30.333 18.6393 30.333 18.6352 30.3331 18.6311L32.3327 18.6697C32.3331 18.6481 32.3331 18.6264 32.3327 18.6047L30.3331 18.6434ZM30.3339 18.6607C30.3339 18.6631 30.334 18.665 30.334 18.6665C30.334 18.6681 30.3341 18.6686 30.3341 18.6685C30.3341 18.6685 30.334 18.6678 30.334 18.6666C30.334 18.6661 30.3339 18.6624 30.3339 18.6575C30.3339 18.6556 30.3338 18.6491 30.3339 18.6406C30.3339 18.6368 30.334 18.6275 30.3344 18.6155C30.3346 18.6096 30.335 18.5988 30.3359 18.5853C30.3364 18.5769 30.3385 18.5443 30.3446 18.5029C30.3472 18.4857 30.355 18.4347 30.3733 18.3714C30.3837 18.3375 30.4157 18.2532 30.4387 18.2036C30.4833 18.1234 30.6456 17.9239 30.7751 17.8201C31.0201 17.6999 31.5642 17.6763 31.8223 17.7768C31.9634 17.8724 32.1448 18.0643 32.1963 18.1431C32.2692 18.2674 32.2968 18.3794 32.3002 18.3922C32.3166 18.4539 32.3233 18.5041 32.3242 18.5105C32.3265 18.5274 32.328 18.5409 32.3287 18.5476C32.3309 18.57 32.332 18.5881 32.332 18.5881C32.3329 18.6029 32.3333 18.6163 32.3322 18.5873L30.3335 18.6608C30.3337 18.6639 30.3346 18.6928 30.3357 18.7102C30.3357 18.7104 30.3367 18.7286 30.339 18.7511C30.3397 18.7578 30.3412 18.7713 30.3435 18.7883C30.3444 18.7946 30.3511 18.8448 30.3675 18.9065C30.3709 18.9193 30.3985 19.0313 30.4714 19.1556C30.5229 19.2345 30.7043 19.4263 30.8454 19.522C31.1035 19.6225 31.6476 19.5989 31.8926 19.4787C32.0221 19.3748 32.1844 19.1753 32.229 19.0952C32.252 19.0456 32.284 18.9613 32.2944 18.9274C32.3128 18.8641 32.3205 18.8131 32.3231 18.7959C32.3292 18.7545 32.3313 18.7218 32.3318 18.7134C32.3327 18.6998 32.3331 18.689 32.3333 18.6831C32.3337 18.6711 32.3338 18.6617 32.3338 18.6579C32.3339 18.6493 32.3338 18.6426 32.3338 18.6405C32.3337 18.6323 32.3336 18.6248 32.3336 18.6248C32.3335 18.6208 32.3334 18.6154 32.3333 18.6115L30.3339 18.6607ZM30.3313 18.5051C30.3315 18.5671 30.3333 18.6362 30.3339 18.6608L32.3333 18.6114C32.3326 18.5842 32.3314 18.5351 32.3312 18.4969L30.3313 18.5051ZM30.3312 18.4281C30.3311 18.4552 30.3312 18.4813 30.3313 18.5056L32.3312 18.4964C32.3312 18.4772 32.3311 18.4551 32.3312 18.4294L30.3312 18.4281ZM30.3313 18.3565C30.3312 18.3814 30.3312 18.4055 30.3312 18.4281L32.3312 18.4295C32.3312 18.4082 32.3312 18.3853 32.3313 18.3601L30.3313 18.3565ZM30.3313 18.1394C30.3315 18.2201 30.3314 18.2921 30.3313 18.3565L32.3313 18.3601C32.3314 18.296 32.3315 18.2195 32.3313 18.1333L30.3313 18.1394ZM30.3305 17.8605L30.3313 18.1392L32.3313 18.1335L32.3305 17.8548L30.3305 17.8605ZM30.3305 17.8598L30.3305 17.8614L32.3305 17.854L32.3305 17.8524L30.3305 17.8598ZM30.328 16.8711C30.3287 17.2506 30.3297 17.5855 30.3305 17.859L32.3305 17.8532C32.3297 17.5797 32.3287 17.2458 32.328 16.8677L30.328 16.8711ZM30.3269 16.3036L30.328 16.8714L32.328 16.8675L32.3269 16.2997L30.3269 16.3036ZM30.3269 16.3012L30.3269 16.3039L32.3269 16.2995L32.3269 16.2969L30.3269 16.3012ZM30.3216 13.0786C30.3229 14.2159 30.3251 15.3533 30.3269 16.301L32.3269 16.2971C32.3251 15.3493 32.3228 14.2127 32.3216 13.0764L30.3216 13.0786ZM30.4113 13.2922C30.3692 13.2559 30.3217 13.1819 30.3216 13.0787L32.3216 13.0763C32.3209 12.5634 32.0879 12.0977 31.7186 11.7787L30.4113 13.2922ZM30.4973 13.3282C30.4873 13.3286 30.4758 13.3273 30.4628 13.3229C30.4498 13.3185 30.4315 13.3097 30.4113 13.2922L31.7186 11.7787C31.3529 11.4627 30.8803 11.3102 30.4128 11.33L30.4973 13.3282ZM30.2521 13.3417C30.3329 13.3367 30.4123 13.3319 30.4984 13.3281L30.4118 11.33C30.3052 11.3346 30.2088 11.3406 30.1293 11.3455L30.2521 13.3417ZM30.253 13.3416L30.253 13.3416L30.1283 11.3455L30.1282 11.3455L30.253 13.3416ZM29.8893 13.3568C30.0123 13.3568 30.1459 13.3482 30.252 13.3417L30.1292 11.3455C30.0037 11.3532 29.9379 11.3568 29.8893 11.3568V13.3568ZM20.2368 9.36958C22.6132 11.8194 26.0601 13.3568 29.8893 13.3568V11.3568C26.5977 11.3568 23.6697 10.0361 21.6724 7.97704L20.2368 9.36958ZM19.9546 8.67185V8.67331H21.9546V8.67185H19.9546ZM20.3327 9.41699C20.3223 9.41698 20.3096 9.41503 20.2947 9.40893C20.2799 9.40285 20.2589 9.39088 20.2369 9.3682L21.6723 7.9755C21.3162 7.6084 20.8263 7.41755 20.335 7.41699L20.3327 9.41699ZM11.9455 18.6129C11.9455 21.5408 14.0957 23.6704 15.939 24.9764C16.8899 25.6502 17.8343 26.1591 18.5375 26.4989C18.8904 26.6695 19.1858 26.799 19.3954 26.8868C19.5003 26.9307 19.5838 26.9643 19.6426 26.9874C19.672 26.9989 19.6952 27.0079 19.7117 27.0142C19.72 27.0174 19.7267 27.0199 19.7316 27.0217C19.7341 27.0227 19.7361 27.0234 19.7377 27.024C19.7385 27.0243 19.7392 27.0246 19.7398 27.0248C19.74 27.0249 19.7404 27.025 19.7405 27.0251C19.7409 27.0252 19.7412 27.0253 20.0887 26.0876C20.4363 25.15 20.4365 25.1501 20.4367 25.1502C20.4368 25.1502 20.4369 25.1502 20.437 25.1503C20.4372 25.1503 20.4372 25.1503 20.4371 25.1503C20.437 25.1503 20.4365 25.1501 20.4355 25.1497C20.4335 25.149 20.4299 25.1476 20.4247 25.1456C20.4142 25.1416 20.3973 25.1351 20.3744 25.1261C20.3285 25.108 20.2586 25.08 20.1682 25.0421C19.9871 24.9663 19.7245 24.8513 19.4077 24.6982C18.7715 24.3907 17.9301 23.936 17.0952 23.3445C15.3669 22.1199 13.9455 20.5122 13.9455 18.6129H11.9455ZM16.7533 13.9625C14.1369 13.9625 11.9264 15.998 11.9456 18.6202L13.9455 18.6056C13.9352 17.1896 15.1487 15.9625 16.7533 15.9625V13.9625ZM21.0515 16.537C20.2592 14.9987 18.6161 13.9625 16.7533 13.9625V15.9625C17.8717 15.9625 18.8261 16.5843 19.2735 17.4528L21.0515 16.537ZM23.5718 13.9625C21.7089 13.9625 20.0659 14.9987 19.2735 16.537L21.0515 17.4528C21.4989 16.5843 22.4533 15.9625 23.5718 15.9625V13.9625ZM28.3942 18.6129C28.3942 15.998 26.19 13.9625 23.5718 13.9625V15.9625C25.1745 15.9625 26.3942 17.1896 26.3942 18.6129H28.3942ZM20.0887 26.0876C20.4325 27.0267 20.4328 27.0266 20.4331 27.0265C20.4332 27.0264 20.4336 27.0263 20.4339 27.0262C20.4345 27.026 20.4351 27.0257 20.4359 27.0254C20.4375 27.0248 20.4396 27.0241 20.4421 27.0232C20.447 27.0213 20.4538 27.0188 20.4622 27.0156C20.479 27.0093 20.5026 27.0003 20.5325 26.9887C20.5923 26.9655 20.6774 26.9318 20.7844 26.8876C20.998 26.7994 21.2995 26.6691 21.6597 26.4979C22.3773 26.1565 23.3413 25.646 24.312 24.9717C26.1881 23.6685 28.3942 21.5386 28.3942 18.6129H26.3942C26.3942 20.4876 24.9476 22.0951 23.171 23.3291C22.3153 23.9235 21.4529 24.3816 20.8007 24.6917C20.476 24.8461 20.2067 24.9623 20.0209 25.0391C19.9281 25.0774 19.8563 25.1058 19.8091 25.1241C19.7855 25.1333 19.768 25.1399 19.7572 25.144C19.7518 25.1461 19.748 25.1475 19.7459 25.1482C19.7449 25.1486 19.7443 25.1488 19.7441 25.1489C19.7441 25.1489 19.7441 25.1489 19.7442 25.1489C19.7443 25.1488 19.7445 25.1488 19.7445 25.1488C19.7447 25.1487 19.745 25.1486 20.0887 26.0876Z" fill="#9CADCE" mask="url(#path-1-inside-1_1964_3704)"/>
</svg>
