<svg width="41" height="41" viewBox="0 0 41 41" fill="none" xmlns="http://www.w3.org/2000/svg">
<g id="Protected">
<circle id="Oval Copy 31" cx="20.3333" cy="20.7085" r="19.5" stroke="#9CADCE"/>
<path id="Combined Shape Copy 4" fill-rule="evenodd" clip-rule="evenodd" d="M19.7115 8.96481C19.8685 8.80214 20.0953 8.70872 20.3339 8.7085L20.3339 8.7085C20.5716 8.70877 20.7977 8.8016 20.9546 8.96335V8.96481C23.1415 11.2192 26.3289 12.6483 29.8893 12.6483C29.9751 12.6483 30.0748 12.6422 30.1907 12.6351C30.2709 12.6302 30.3588 12.6247 30.4551 12.6206C30.6809 12.611 30.9013 12.6856 31.0649 12.8269C31.2286 12.9683 31.3213 13.1641 31.3216 13.369C31.3229 14.5069 31.3251 15.6449 31.3269 16.5932C31.3273 16.7913 31.3277 16.9811 31.328 17.1609C31.3287 17.5404 31.3297 17.8754 31.3305 18.1492C31.3308 18.2508 31.331 18.3439 31.3313 18.4278C31.3315 18.5113 31.3314 18.5856 31.3313 18.6498C31.3312 18.7049 31.3311 18.7527 31.3313 18.7925C31.3315 18.8426 31.3329 18.9017 31.3336 18.9276C31.334 18.9464 31.3341 18.9477 31.3329 18.9155C31.333 18.9243 31.333 18.9331 31.3329 18.9419C31.3254 25.1087 27.0288 30.6091 20.6119 32.6655C20.4331 32.7228 20.2379 32.7228 20.0591 32.6655C13.6405 30.6103 9.34107 25.1097 9.33325 18.9419C9.33325 18.9271 9.33337 18.8231 9.33357 18.6461C9.33447 17.8569 9.33704 15.6164 9.3381 13.369C9.33833 13.1639 9.43127 12.9678 9.59528 12.8264C9.75929 12.685 9.98006 12.6106 10.2062 12.6206C10.3016 12.6247 10.389 12.63 10.4693 12.6349C10.5879 12.6421 10.6907 12.6483 10.7801 12.6483C14.3405 12.6483 17.5245 11.2194 19.7115 8.96481ZM12.9455 18.9044C12.9455 23.7316 20.0887 26.3792 20.0887 26.3792C20.0887 26.3792 27.3942 23.7048 27.3942 18.9044C27.3942 16.8853 25.6822 15.254 23.5718 15.254C22.0811 15.254 20.7824 16.083 20.1625 17.2864C19.5426 16.083 18.2439 15.254 16.7533 15.254C14.6428 15.254 12.9308 16.8853 12.9455 18.9044Z" fill="#9CADCE"/>
</g>
</svg>
