<svg width="343" height="310" viewBox="0 0 343 310" fill="none" xmlns="http://www.w3.org/2000/svg">
<path opacity="0.25" d="M113.617 290.343C131.094 298.432 149.654 305.632 169.054 308.618C206.834 314.421 237.015 301.774 272.962 273.151C315.608 237.743 334.466 176.209 324.301 124.027C317.679 89.9843 295.471 60.9609 270.259 38.8276C245.514 17.1223 215.647 2.0248 181.502 0.212797C121.138 -3.00894 57.1274 30.5426 30.5202 87.9065C3.4465 146.265 14.6333 216.499 60.7317 257.295C76.2429 271.042 94.7122 281.584 113.617 290.343Z" fill="#EBDBCD"/>
    <defs>
        <linearGradient id="paint0_linear_2006_1575" x1="107.346" y1="93.1246" x2="107.365" y2="93.3853" gradientUnits="userSpaceOnUse">
            <stop stop-color="#DC3D8E"/>
            <stop offset="1" stop-color="#AC4DBA"/>
        </linearGradient>
        <linearGradient id="paint1_linear_2006_1575" x1="107.534" y1="95.5709" x2="107.553" y2="95.8316" gradientUnits="userSpaceOnUse">
            <stop stop-color="#DC3D8E"/>
            <stop offset="1" stop-color="#AC4DBA"/>
        </linearGradient>
        <linearGradient id="paint2_linear_2006_1575" x1="107.722" y1="98.0075" x2="107.741" y2="98.2681" gradientUnits="userSpaceOnUse">
            <stop stop-color="#DC3D8E"/>
            <stop offset="1" stop-color="#AC4DBA"/>
        </linearGradient>
        <linearGradient id="paint3_linear_2006_1575" x1="107.879" y1="100.454" x2="107.898" y2="100.714" gradientUnits="userSpaceOnUse">
            <stop stop-color="#DC3D8E"/>
            <stop offset="1" stop-color="#AC4DBA"/>
        </linearGradient>
        <linearGradient id="paint4_linear_2006_1575" x1="108.067" y1="102.922" x2="108.086" y2="103.182" gradientUnits="userSpaceOnUse">
            <stop stop-color="#DC3D8E"/>
            <stop offset="1" stop-color="#AC4DBA"/>
        </linearGradient>
        <linearGradient id="paint5_linear_2006_1575" x1="108.233" y1="105.357" x2="108.252" y2="105.618" gradientUnits="userSpaceOnUse">
            <stop stop-color="#DC3D8E"/>
            <stop offset="1" stop-color="#AC4DBA"/>
        </linearGradient>
        <linearGradient id="paint6_linear_2006_1575" x1="108.421" y1="107.803" x2="108.44" y2="108.064" gradientUnits="userSpaceOnUse">
            <stop stop-color="#DC3D8E"/>
            <stop offset="1" stop-color="#AC4DBA"/>
        </linearGradient>
        <clipPath id="clip0_2006_1575">
            <rect width="167" height="246" fill="white" transform="translate(88 33)"/>
        </clipPath>
    </defs>
<g clip-path="url(#clip0_2006_1575)">
<path d="M237.778 137.803L230.472 137.782C227.988 137.761 225.952 136.234 225.921 134.405V133.767C225.9 131.937 227.894 130.453 230.347 130.484L237.653 130.505C240.137 130.526 242.172 132.052 242.204 133.882V134.52C242.224 136.349 240.241 137.823 237.778 137.803Z" fill="#FCB58A"/>
<path d="M110.973 137.385L103.667 137.364C101.183 137.343 99.1472 135.816 99.1159 133.987V133.349C99.095 131.519 101.089 130.035 103.541 130.066L110.848 130.087C113.332 130.108 115.367 131.634 115.398 133.464V134.102C115.43 135.931 113.436 137.405 110.973 137.385Z" fill="#FCB58A"/>
<path d="M150.604 246.139C150.322 249.872 150.04 253.604 149.738 257.337C149.55 259.825 152.451 261.822 154.873 261.707C157.775 261.571 159.351 259.334 159.538 256.824C159.82 253.092 160.102 249.359 160.405 245.627C160.593 243.139 157.691 241.142 155.27 241.257C152.357 241.393 150.813 243.62 150.604 246.139Z" fill="#FCB58A"/>
<path d="M186.29 247.311C186.875 250.991 187.459 254.702 188.044 258.393C188.44 260.86 191.718 262.126 194.045 261.446C196.832 260.62 197.844 258.111 197.448 255.622C196.863 251.942 196.279 248.231 195.694 244.54C195.298 242.072 192.02 240.807 189.693 241.487C186.906 242.313 185.893 244.822 186.29 247.311Z" fill="#FCB58A"/>
<path d="M111.161 241.748C102.091 241.748 94.7114 240.901 94.4504 239.866L95.7864 255.706C95.7864 263.213 102.696 269.371 111.161 269.371C119.626 269.371 126.535 263.223 126.535 255.706L127.871 239.835C127.683 240.901 120.283 241.748 111.161 241.748Z" fill="#DEC7B2"/>
<path d="M111.161 241.748C101.955 241.748 94.4713 240.881 94.4504 239.825V239.804C94.5235 238.748 101.976 237.88 111.161 237.88C120.346 237.88 127.798 238.748 127.871 239.804V239.825C127.819 240.881 120.367 241.748 111.161 241.748Z" fill="#E8D4C1"/>
<path d="M111.161 241.414C103.406 241.414 97.1014 240.682 97.0806 239.772V239.751C97.1536 238.863 103.427 238.131 111.161 238.131C118.916 238.131 125.199 238.863 125.241 239.751V239.772C125.22 240.692 118.916 241.414 111.161 241.414Z" fill="#BA9C7E"/>
<path d="M95.0142 246.651C96.0892 246.672 97.1434 247.101 98.0619 247.99C99.7737 249.652 100.849 252.214 102.237 254.158C102.748 253.102 103.218 252.025 103.615 250.917C104.105 249.6 105.869 248.387 107.247 249.443C108.719 250.593 109.825 251.879 110.785 253.479C111.61 254.859 112.288 256.511 113.572 257.535C114.814 258.549 116.223 258.821 116.735 257.044C117.183 255.476 117.016 253.803 117.528 252.234C117.945 250.917 118.603 249.579 119.939 248.993C121.505 248.314 123.028 249.161 124.437 249.861C125.283 250.279 126.097 250.729 126.901 251.22L126.619 254.555C125.189 253.667 123.435 252.559 121.953 252.349C121.014 252.214 121.087 252.841 121.014 253.709C120.972 254.482 120.972 255.277 120.92 256.061C120.826 257.661 120.596 259.25 119.657 260.567C117.643 263.411 113.864 263.265 111.224 261.456C109.794 260.494 108.76 259.229 107.852 257.776C107.55 257.305 107.268 256.814 106.965 256.322C105.817 258.978 104.084 261.372 101.204 260.358C99.4188 259.72 98.2498 257.776 97.1956 256.322C96.872 255.873 96.2562 254.775 95.6508 253.792L95.0142 246.651Z" fill="#EBDBCD"/>
<path d="M88.4801 187.59C88.835 186.231 90.4215 186.022 91.3609 186.817C93.1457 188.322 94.0746 190.382 95.0662 192.431C96.0995 194.595 97.3624 196.561 98.8341 198.422C101.83 202.248 105.159 205.793 107.341 210.184C111.578 218.684 112.612 228.679 109.689 237.765C109.595 238.047 110.159 236.615 109.24 239.124C108.416 241.403 105.191 240.18 105.211 237.524C105.232 234.921 104.554 232.506 103.406 230.206C101.13 225.626 98.2705 221.361 96.0473 216.76C93.7928 212.108 91.8306 207.319 90.2336 202.416C88.6889 197.638 87.2172 192.588 88.4801 187.59Z" fill="#4C7378"/>
<path d="M109.334 160.951C110.482 158.86 113.833 160.271 113.175 162.571C111.203 169.283 112.612 176.393 113.833 183.116C115.075 189.974 116.526 196.781 117.371 203.702C118.874 215.976 118.384 229.777 110.618 240.065C109.773 241.173 108.019 240.253 108.718 238.936C109.491 237.483 107.549 227.906 106.683 224.853C105.817 221.685 104.93 218.538 104.157 215.349C102.612 209.128 101.35 202.792 101.016 196.383C100.316 183.91 103.385 171.845 109.334 160.951Z" fill="#57848A"/>
<path d="M113.04 229.234C113.958 225.052 113.269 220.619 114.167 216.468C115.033 212.38 116.233 208.25 118.123 204.518C119.928 200.973 122.694 198.464 125.93 196.258C128.978 194.188 132.589 192.149 133.664 188.375C134.301 186.117 138.121 186.451 137.881 188.94C137.369 194.01 135.23 198.475 132.746 202.855C130.094 207.508 127.777 211.962 126.493 217.2C124.27 226.17 122.35 237.786 112.152 240.536C110.9 240.86 111.067 238.183 113.04 229.234Z" fill="#689399"/>
<path d="M110.858 138.388C118.29 142.194 125.805 144.379 134.217 144.212C142.087 144.045 149.759 141.933 154.184 134.865C157.117 130.171 149.707 125.853 146.784 130.526C143.788 135.315 137.808 135.67 132.704 135.618C126.379 135.576 120.774 133.83 115.2 130.965C110.295 128.466 105.932 135.879 110.858 138.388Z" fill="#FCB58A"/>
<path d="M225.19 130.975C219.585 133.84 214.012 135.576 207.687 135.628C202.301 135.67 197.427 135.063 194.379 130.139C191.477 125.445 184.067 129.763 186.979 134.478C188.878 137.552 191.456 140.249 194.692 141.87C198.324 143.699 202.144 144.128 206.152 144.222C214.565 144.389 222.091 142.204 229.512 138.399C234.428 135.879 230.086 128.466 225.19 130.975Z" fill="#FCB58A"/>
<path d="M251.159 165.928L248.226 181.914L235.409 171.302L251.159 165.928Z" fill="#D4BFA9"/>
<path d="M135.585 50.6276C140.335 50.6276 144.185 46.7705 144.185 42.0125C144.185 37.2546 140.335 33.3975 135.585 33.3975C130.835 33.3975 126.984 37.2546 126.984 42.0125C126.984 46.7705 130.835 50.6276 135.585 50.6276Z" fill="#EBDBCD"/>
<path d="M143.757 59.3052C143.684 59.3052 143.621 59.2634 143.569 59.1902C143.527 59.0961 143.569 58.9811 143.663 58.9288L144.55 58.5315L144.154 57.6428C144.112 57.5487 144.154 57.4337 144.248 57.3814C144.342 57.3396 144.456 57.3814 144.509 57.4755L145.051 58.7406L143.788 59.2843C143.809 59.3052 143.778 59.3052 143.757 59.3052Z" fill="#110580"/>
<path d="M125.481 67.314C125.408 67.314 125.345 67.2722 125.293 67.199C125.251 67.1049 125.293 66.9899 125.387 66.9376L127.683 65.9234C127.777 65.8816 127.892 65.9234 127.944 66.0175C127.986 66.1116 127.944 66.2266 127.85 66.2789L125.554 67.2931C125.523 67.314 125.502 67.314 125.481 67.314ZM130.053 65.317C129.979 65.317 129.917 65.2752 129.865 65.202C129.823 65.1079 129.865 64.9929 129.959 64.9407L132.255 63.9265C132.349 63.8847 132.464 63.9265 132.516 64.0206C132.558 64.1147 132.516 64.2297 132.422 64.282L130.126 65.2961C130.094 65.317 130.073 65.317 130.053 65.317ZM134.624 63.3201C134.551 63.3201 134.488 63.2783 134.436 63.2051C134.395 63.111 134.436 62.996 134.53 62.9437L136.826 61.9296C136.92 61.8877 137.035 61.9296 137.087 62.0237C137.14 62.1178 137.087 62.2328 136.993 62.285L134.697 63.2992C134.666 63.3201 134.645 63.3201 134.624 63.3201ZM139.185 61.3023C139.112 61.3023 139.05 61.2604 138.997 61.1873C138.956 61.0932 138.997 60.9781 139.091 60.9259L141.388 59.9117C141.482 59.8699 141.596 59.9117 141.649 60.0058C141.69 60.0999 141.649 60.2149 141.555 60.2672L139.258 61.2813C139.238 61.3023 139.217 61.3023 139.185 61.3023Z" fill="#110580"/>
<path d="M122.016 68.862L121.473 67.5969C121.431 67.5028 121.473 67.3878 121.567 67.3355C121.661 67.2937 121.776 67.3355 121.828 67.4296L122.224 68.3183L123.112 67.921C123.206 67.8792 123.32 67.921 123.373 68.0151C123.414 68.1092 123.373 68.2242 123.279 68.2765L122.016 68.862Z" fill="#110580"/>
<path d="M120.721 65.6001C120.648 65.6001 120.586 65.5583 120.534 65.4851L119.594 63.3523C119.552 63.2582 119.594 63.1432 119.688 63.0909C119.782 63.0491 119.897 63.0909 119.949 63.185L120.888 65.3178C120.93 65.4119 120.888 65.5269 120.794 65.5792C120.774 65.5792 120.742 65.6001 120.721 65.6001ZM118.853 61.324C118.78 61.324 118.717 61.2821 118.665 61.209L117.726 59.0761C117.684 58.982 117.726 58.867 117.82 58.8147C117.914 58.7729 118.029 58.8147 118.081 58.9088L119.02 61.0417C119.062 61.1358 119.02 61.2508 118.926 61.3031C118.916 61.324 118.874 61.324 118.853 61.324ZM116.995 57.0792C116.922 57.0792 116.86 57.0373 116.807 56.9642L115.868 54.8313C115.826 54.7372 115.868 54.6222 115.962 54.5699C116.056 54.5281 116.171 54.5699 116.223 54.664L117.162 56.7969C117.204 56.891 117.162 57.006 117.068 57.0583C117.047 57.0792 117.016 57.0792 116.995 57.0792Z" fill="#110580"/>
<path d="M115.148 52.8335C115.075 52.8335 115.012 52.7917 114.96 52.7185L114.417 51.4534L115.68 50.9098C115.774 50.8679 115.889 50.9098 115.941 51.0039C115.983 51.098 115.941 51.213 115.847 51.2652L114.96 51.6625L115.357 52.5512C115.398 52.6453 115.357 52.7603 115.263 52.8126C115.19 52.8335 115.169 52.8335 115.148 52.8335Z" fill="#110580"/>
<path d="M118.029 50.2935C117.955 50.2935 117.893 50.2517 117.841 50.1785C117.799 50.0844 117.841 49.9694 117.935 49.9171L120.231 48.9029C120.325 48.8611 120.44 48.9029 120.492 48.997C120.544 49.0911 120.492 49.2061 120.398 49.2584L118.102 50.2726C118.102 50.2726 118.049 50.2935 118.029 50.2935ZM122.6 48.2756C122.527 48.2756 122.464 48.2338 122.412 48.1606C122.371 48.0665 122.412 47.9515 122.506 47.8992L124.802 46.8851C124.896 46.8433 125.011 46.8851 125.063 46.9792C125.105 47.0733 125.063 47.1883 124.969 47.2406L122.673 48.2547C122.673 48.2756 122.621 48.2756 122.6 48.2756ZM127.172 46.2787C127.099 46.2787 127.036 46.2369 126.984 46.1637C126.942 46.0696 126.984 45.9546 127.078 45.9023L129.374 44.8881C129.468 44.8463 129.583 44.8882 129.635 44.9822C129.677 45.0763 129.635 45.1914 129.541 45.2436L127.245 46.2578C127.234 46.2787 127.214 46.2787 127.172 46.2787ZM131.764 44.2817C131.691 44.2817 131.629 44.2399 131.576 44.1667C131.535 44.0726 131.576 43.9576 131.67 43.9054L133.967 42.8912C134.061 42.8494 134.175 42.8912 134.228 42.9853C134.269 43.0794 134.228 43.1944 134.134 43.2467L131.837 44.2608C131.806 44.2608 131.785 44.2817 131.764 44.2817Z" fill="#110580"/>
<path d="M137.881 42.8805C137.808 42.8805 137.745 42.8387 137.693 42.7655L137.296 41.8768L136.409 42.2741C136.315 42.316 136.2 42.2741 136.148 42.18C136.096 42.086 136.148 41.9709 136.242 41.9187L137.505 41.375L138.048 42.6401C138.09 42.7342 138.048 42.8492 137.954 42.9015C137.923 42.8805 137.902 42.8805 137.881 42.8805Z" fill="#110580"/>
<path d="M143.433 55.646C143.36 55.646 143.298 55.6042 143.246 55.531L142.306 53.3982C142.264 53.3041 142.306 53.1891 142.4 53.1368C142.494 53.095 142.609 53.1368 142.661 53.2309L143.6 55.3637C143.642 55.4578 143.6 55.5729 143.507 55.6251C143.496 55.6251 143.454 55.646 143.433 55.646ZM141.576 51.3803C141.503 51.3803 141.44 51.3385 141.388 51.2653L140.448 49.1325C140.407 49.0384 140.448 48.9234 140.542 48.8711C140.636 48.8293 140.751 48.8711 140.803 48.9652L141.743 51.098C141.784 51.1921 141.743 51.3071 141.649 51.3594C141.628 51.3803 141.607 51.3803 141.576 51.3803ZM139.728 47.1251C139.655 47.1251 139.592 47.0832 139.54 47.0101L138.601 44.8772C138.559 44.7831 138.601 44.6681 138.695 44.6158C138.789 44.574 138.904 44.6158 138.956 44.7099L139.895 46.8428C139.937 46.9369 139.895 47.0519 139.801 47.1042C139.77 47.1251 139.749 47.1251 139.728 47.1251Z" fill="#110580"/>
<path d="M239.187 186.723L238.133 186.325C238.039 186.304 238.018 186.21 238.039 186.116C238.06 186.022 238.154 185.98 238.248 186.022L238.999 186.304L239.281 185.552C239.302 185.458 239.396 185.437 239.49 185.458C239.584 185.479 239.605 185.573 239.584 185.667L239.187 186.723Z" fill="#110580"/>
<path d="M236.515 185.719C236.494 185.719 236.473 185.719 236.473 185.719L234.835 185.113C234.741 185.092 234.72 184.998 234.741 184.904C234.762 184.809 234.856 184.768 234.95 184.809L236.588 185.416C236.682 185.437 236.703 185.531 236.682 185.625C236.651 185.688 236.578 185.719 236.515 185.719ZM233.227 184.496C233.207 184.496 233.186 184.496 233.186 184.496L231.547 183.889C231.453 183.868 231.432 183.774 231.453 183.68C231.474 183.586 231.568 183.565 231.662 183.586L233.3 184.193C233.394 184.213 233.415 184.308 233.394 184.402C233.342 184.444 233.3 184.496 233.227 184.496ZM229.929 183.273C229.908 183.273 229.887 183.273 229.887 183.273L228.249 182.666C228.155 182.645 228.134 182.551 228.155 182.457C228.176 182.363 228.27 182.321 228.363 182.363L230.002 182.969C230.096 182.99 230.117 183.084 230.096 183.178C230.065 183.231 229.992 183.273 229.929 183.273ZM226.62 182.028C226.6 182.028 226.579 182.028 226.579 182.028L224.94 181.422C224.846 181.401 224.825 181.307 224.846 181.213C224.867 181.119 224.961 181.077 225.055 181.119L226.693 181.725C226.787 181.746 226.808 181.84 226.787 181.934C226.767 181.987 226.693 182.028 226.62 182.028Z" fill="#110580"/>
<path d="M223.343 180.806C223.322 180.806 223.301 180.806 223.301 180.806L222.247 180.408L222.644 179.352C222.665 179.258 222.758 179.217 222.852 179.258C222.946 179.279 222.967 179.373 222.946 179.467L222.665 180.22L223.416 180.503C223.51 180.523 223.531 180.618 223.51 180.712C223.458 180.764 223.416 180.806 223.343 180.806Z" fill="#110580"/>
<path d="M223.385 177.899C223.364 177.899 223.343 177.899 223.343 177.899C223.249 177.878 223.228 177.784 223.249 177.69L223.854 176.048C223.875 175.954 223.969 175.913 224.063 175.954C224.157 175.975 224.178 176.069 224.157 176.163L223.552 177.805C223.5 177.847 223.437 177.899 223.385 177.899ZM224.606 174.616C224.585 174.616 224.564 174.616 224.564 174.616C224.47 174.595 224.449 174.501 224.47 174.407L225.076 172.766C225.097 172.671 225.19 172.63 225.284 172.671C225.378 172.692 225.399 172.786 225.378 172.881L224.773 174.522C224.742 174.564 224.679 174.616 224.606 174.616ZM225.827 171.302C225.806 171.302 225.785 171.302 225.785 171.302C225.691 171.281 225.671 171.187 225.691 171.093L226.297 169.451C226.318 169.357 226.412 169.315 226.506 169.357C226.6 169.378 226.62 169.472 226.6 169.566L225.994 171.208C225.963 171.26 225.89 171.302 225.827 171.302ZM227.069 167.998C227.048 167.998 227.027 167.998 227.027 167.998C226.934 167.977 226.913 167.883 226.934 167.789L227.539 166.147C227.56 166.053 227.654 166.011 227.748 166.053C227.842 166.074 227.862 166.168 227.842 166.262L227.236 167.904C227.184 167.967 227.132 167.998 227.069 167.998Z" fill="#110580"/>
<path d="M228.291 164.704C228.27 164.704 228.249 164.704 228.249 164.704C228.155 164.684 228.134 164.589 228.155 164.495L228.551 163.439L229.606 163.837C229.7 163.858 229.72 163.952 229.7 164.046C229.679 164.14 229.585 164.161 229.491 164.14L228.739 163.858L228.458 164.61C228.426 164.663 228.353 164.704 228.291 164.704Z" fill="#110580"/>
<path d="M242.726 169.054C242.705 169.054 242.684 169.054 242.684 169.054L241.045 168.448C240.951 168.427 240.93 168.333 240.951 168.238C240.972 168.144 241.066 168.103 241.16 168.144L242.799 168.751C242.893 168.772 242.913 168.866 242.893 168.96C242.861 169.002 242.788 169.054 242.726 169.054ZM239.417 167.831C239.396 167.831 239.375 167.831 239.375 167.831L237.736 167.224C237.643 167.203 237.622 167.109 237.643 167.015C237.663 166.921 237.757 166.9 237.851 166.921L239.49 167.527C239.584 167.548 239.605 167.642 239.584 167.737C239.553 167.778 239.49 167.831 239.417 167.831ZM236.14 166.587C236.119 166.587 236.098 166.587 236.098 166.587L234.459 165.98C234.365 165.959 234.344 165.865 234.365 165.771C234.386 165.677 234.48 165.635 234.574 165.677L236.213 166.283C236.307 166.304 236.327 166.398 236.307 166.492C236.254 166.534 236.202 166.587 236.14 166.587ZM232.831 165.363C232.81 165.363 232.789 165.363 232.789 165.363L231.15 164.757C231.056 164.736 231.036 164.642 231.056 164.548C231.077 164.454 231.171 164.412 231.265 164.454L232.904 165.06C232.998 165.081 233.019 165.175 232.998 165.269C232.977 165.321 232.904 165.363 232.831 165.363Z" fill="#110580"/>
<path d="M244.949 170.904C244.928 170.904 244.907 170.904 244.907 170.904C244.813 170.883 244.792 170.789 244.813 170.695L245.095 169.943L244.343 169.66C244.249 169.639 244.228 169.545 244.249 169.451C244.27 169.357 244.364 169.315 244.458 169.357L245.512 169.754L245.116 170.81C245.063 170.883 245.022 170.904 244.949 170.904Z" fill="#110580"/>
<path d="M240.022 184.119C240.001 184.119 239.98 184.119 239.98 184.119C239.887 184.099 239.866 184.004 239.887 183.91L240.492 182.269C240.513 182.175 240.607 182.133 240.701 182.175C240.795 182.196 240.815 182.29 240.795 182.384L240.189 184.025C240.168 184.067 240.095 184.119 240.022 184.119ZM241.243 180.805C241.223 180.805 241.202 180.805 241.202 180.805C241.108 180.784 241.087 180.69 241.108 180.596L241.713 178.955C241.734 178.861 241.828 178.819 241.922 178.86C242.016 178.881 242.037 178.976 242.016 179.07L241.41 180.711C241.39 180.784 241.316 180.805 241.243 180.805ZM242.485 177.522C242.465 177.522 242.444 177.522 242.444 177.522C242.35 177.501 242.329 177.407 242.35 177.313L242.955 175.672C242.976 175.578 243.07 175.536 243.164 175.578C243.258 175.598 243.279 175.693 243.258 175.787L242.652 177.428C242.6 177.48 242.559 177.522 242.485 177.522ZM243.707 174.208C243.686 174.208 243.665 174.208 243.665 174.208C243.571 174.187 243.55 174.093 243.571 173.999L244.176 172.357C244.197 172.263 244.291 172.221 244.385 172.263C244.479 172.284 244.5 172.378 244.479 172.472L243.874 174.114C243.842 174.166 243.78 174.208 243.707 174.208Z" fill="#110580"/>
<path d="M194.379 108.372C194.379 108.372 190.235 95.1564 188.847 89.5733C186.686 80.9582 180.831 75.7725 172.565 75.7725C164.173 75.7725 158.265 81.0523 155.948 89.6256C153.579 98.4497 150.468 107.682 150.468 107.682C150.093 108.853 150.677 110.097 151.804 110.567C154.476 111.623 160.05 113.505 172.544 113.359C183.701 113.223 189.463 111.644 192.364 111.341C193.815 111.163 194.755 109.752 194.379 108.372Z" fill="#110580"/>
<path d="M177.314 104.189H167.774V120.458C167.774 121.817 168.88 122.925 170.237 122.925H174.851C176.207 122.925 177.314 121.817 177.314 120.458V104.189V104.189Z" fill="#FCB58A"/>
<path d="M172.419 74.497C175.704 74.497 178.368 71.8289 178.368 68.5376C178.368 65.2463 175.704 62.5781 172.419 62.5781C169.133 62.5781 166.469 65.2463 166.469 68.5376C166.469 71.8289 169.133 74.497 172.419 74.497Z" fill="#110580"/>
<path d="M158.401 106.113C156.856 106.113 156.804 100.906 156.804 100.31C156.804 99.7145 156.846 94.5078 158.401 94.5078C159.946 94.5078 159.998 99.7145 159.998 100.31C159.977 100.906 159.925 106.113 158.401 106.113ZM158.401 95.407C158.119 95.7833 157.67 97.4457 157.67 100.29C157.67 103.133 158.119 104.796 158.401 105.172C158.683 104.796 159.132 103.133 159.132 100.29C159.132 97.4562 158.683 95.8147 158.401 95.407Z" fill="white"/>
<path d="M186.405 106.113C184.86 106.113 184.808 100.906 184.808 100.31C184.808 99.7145 184.85 94.5078 186.405 94.5078C187.95 94.5078 188.002 99.7145 188.002 100.31C187.981 100.906 187.929 106.113 186.405 106.113ZM186.405 95.407C186.123 95.7833 185.674 97.4457 185.674 100.29C185.674 103.133 186.123 104.796 186.405 105.172C186.687 104.796 187.135 103.133 187.135 100.29C187.135 97.4562 186.687 95.8147 186.405 95.407Z" fill="white"/>
<path d="M172.554 107.734C181.264 107.734 188.325 100.661 188.325 91.9364C188.325 83.2116 181.264 76.1387 172.554 76.1387C163.844 76.1387 156.783 83.2116 156.783 91.9364C156.783 100.661 163.844 107.734 172.554 107.734Z" fill="#FCB58A"/>
<path d="M156.46 93.0859C156.48 93.3473 156.501 93.5982 156.533 93.8387C156.533 93.8596 156.533 93.9119 156.533 93.9328C156.554 94.2151 156.606 94.4764 156.647 94.7587V94.7796C156.689 95.0619 156.762 95.3442 156.814 95.6474C157.869 91.2772 161.783 88.0674 166.469 88.0674C167.054 88.0674 167.617 88.1092 168.181 88.2033C168.598 88.2974 169.026 88.3392 169.465 88.3392C172.398 88.3392 174.83 86.1123 175.132 83.2476C175.132 83.2476 175.153 83.2476 175.153 83.2267C175.111 83.5299 175.08 83.8331 175.08 84.1467C175.08 87.5028 177.794 90.2212 181.144 90.2212H181.165C184.443 90.8799 187.073 93.3159 188.033 96.4838C188.242 95.7833 188.388 95.0515 188.503 94.3196C188.503 94.2987 188.503 94.2778 188.503 94.2255C188.544 93.9223 188.576 93.6191 188.597 93.2845C188.597 93.2114 188.618 93.1173 188.618 93.0545C188.638 92.6991 188.659 92.354 188.659 91.9986C188.659 91.6954 188.659 91.4131 188.638 91.1308C188.638 91.0367 188.618 90.9635 188.618 90.8694C188.597 90.6603 188.597 90.4512 188.576 90.263C188.576 90.1689 188.555 90.0748 188.534 89.9807C188.513 89.7925 188.492 89.5834 188.461 89.3952C188.44 89.3011 188.44 89.207 188.419 89.1129C188.377 88.9247 188.346 88.7156 188.304 88.5274C188.284 88.4333 188.263 88.3602 188.263 88.2661C188.221 88.057 188.169 87.8688 188.096 87.6597C188.075 87.5865 188.054 87.5237 188.023 87.4506C187.95 87.2415 187.887 87.0323 187.814 86.8128C187.793 86.771 187.772 86.6978 187.772 86.6455C187.699 86.4155 187.605 86.175 187.511 85.9659C187.49 85.945 187.49 85.8927 187.469 85.8718C187.375 85.6104 187.261 85.3595 187.146 85.0981C185.768 82.1393 183.493 79.651 180.675 78.0095C179.787 77.4972 178.848 77.0476 177.867 76.7235C177.846 76.7235 177.794 76.7026 177.773 76.7026C177.491 76.6085 177.209 76.5144 176.907 76.4412C176.865 76.4203 176.813 76.4203 176.771 76.3994C176.134 76.2321 175.487 76.0962 174.83 76.0021C174.736 75.9812 174.663 75.9812 174.569 75.9812C174.308 75.9603 174.078 75.9394 173.817 75.908C173.723 75.908 173.629 75.8871 173.535 75.8871C173.212 75.8662 172.878 75.8662 172.523 75.8662C163.62 75.8662 156.397 83.1012 156.397 92.0195C156.397 92.3227 156.397 92.605 156.418 92.9082C156.46 92.9918 156.46 93.0441 156.46 93.0859Z" fill="#110580"/>
<path d="M187.929 118.21C183.921 115.815 179.328 114.989 177.314 114.686C176.677 117.311 175.341 118.774 172.398 118.774C169.402 118.774 168.369 117.269 167.805 114.571C167.2 114.592 165.342 114.969 164.925 115.063C159.487 116.119 157.284 117.53 154.539 119.569C150.343 122.716 146.241 129.24 145.354 130.714C145.239 130.902 145.239 131.132 145.354 131.32C145.845 132.073 147.202 134.018 149.153 135.283C151.867 137.092 155.103 138.075 155.103 138.075C155.103 138.075 156.418 135.68 156.794 134.76C157.305 133.558 158.672 129.522 158.672 129.522C158.672 129.522 157.43 132.22 157.336 135.011C157.263 137.573 158.13 140.458 158.067 142.152C157.879 146.02 156.731 149.356 156.334 150.861C156.24 151.217 156.449 151.593 156.825 151.656C158.912 152.126 165.144 153.538 171.469 153.506C179.694 153.506 185.34 152.618 187.334 152.304C187.71 152.231 187.939 151.886 187.845 151.509C187.522 150.192 186.958 147.944 186.394 142.915C185.946 138.974 186.415 138.221 186.394 135.45C186.394 133.412 185.549 129.324 185.549 129.324L186.342 137.113C186.342 137.113 189.223 137.249 193.346 135.45C194.776 134.813 196.581 133.192 197.333 132.471C197.542 132.261 197.615 131.927 197.469 131.676C196.435 129.543 191.874 120.552 187.929 118.21Z" fill="white"/>
<path d="M172.554 107.734C170.895 107.734 169.298 107.472 167.795 107.002V109.961C169.298 110.431 170.936 110.452 172.627 110.285C174.85 110.076 175.811 109.647 177.314 108.999V107.002C175.821 107.472 174.224 107.734 172.554 107.734Z" fill="#E3996D"/>
<path d="M159.017 152.199C159.017 152.199 166.793 153.517 172.231 153.517C177.992 153.517 185.121 152.691 185.121 152.691C185.121 152.691 185.758 156.799 186.008 157.688C186.269 158.577 181.301 160.365 172.439 160.177C160.843 159.967 158.077 158.295 158.077 157.824C158.057 157.5 159.017 152.199 159.017 152.199Z" fill="#FCB58A"/>
<path d="M188.847 160.386C196.039 174.709 199.42 183.69 201.341 202.897C202.959 219.05 200.923 240.619 200.589 252.945C200.589 253.322 200.495 253.698 200.287 254.022C199.702 254.963 195.955 255.737 194.922 255.81C189.724 256.166 184.891 255.413 184.422 253.583C181.75 242.741 179.662 231.303 178.19 219.97C176.969 210.581 175.518 200.115 174.694 192.389C174.621 191.751 173.681 191.73 173.619 192.389C173.483 193.675 173.316 200.889 173.128 203.022C172.617 209.076 171.604 215.045 170.623 221.047C169.078 230.582 165.394 244.027 162.607 253.092C162.419 253.698 161.783 254.545 161.083 254.66C159.841 254.848 156.867 255.11 155.291 254.984C152.973 254.796 148.099 254.116 147.838 252.966C144.321 238.298 144.206 210.006 149.289 180.596C150.51 173.601 153.318 165.781 155.896 161.086C155.896 161.086 164.215 162.728 171.855 162.707C181.061 162.665 188.847 160.386 188.847 160.386Z" fill="#BF47A9"/>
<path d="M124.75 73.4197L114.417 70.0845C113.812 69.8754 113.457 69.2167 113.645 68.5789L115.826 61.8144C116.035 61.208 116.693 60.8525 117.329 61.0407L127.662 64.3759C128.268 64.585 128.623 65.2437 128.435 65.8815L126.253 72.646C126.045 73.2733 125.366 73.6288 124.75 73.4197Z" fill="#BF47A9"/>
<path d="M129.562 67.7638C129.145 67.7638 128.769 68.0461 128.644 68.4434L128.268 69.5726L127.892 70.7017C127.777 71.099 127.892 71.5486 128.247 71.7786L131.034 73.8906C131.576 74.3088 132.37 74.0578 132.558 73.3992L133.288 71.1722L134.019 68.9453C134.228 68.2866 133.737 67.6279 133.059 67.6593L129.562 67.7638Z" fill="#BF47A9"/>
<path d="M158.057 157.856C158.057 157.856 157.138 158.065 156.606 159.006C156.073 159.947 155.927 161.076 155.927 161.076C155.927 161.076 161.95 162.864 173.337 163.167C184.369 163.449 188.847 160.396 188.847 160.396C188.847 160.396 188.451 159.152 187.511 158.609C186.572 158.065 185.966 157.688 185.966 157.688C185.966 157.688 182.522 160.762 172.001 160.01C161.501 159.236 158.057 157.856 158.057 157.856Z" fill="#FF7F87"/>
<path d="M110.13 89.9799L106.529 90.2432L108.12 112.088L111.722 111.824L110.13 89.9799Z" fill="#DADAED"/>
<path d="M107.965 93.0794L106.727 93.1699L106.746 93.4306L107.984 93.3401L107.965 93.0794Z" fill="url(#paint0_linear_2006_1575)"/>
<path d="M108.153 95.5257L106.915 95.6162L106.934 95.8769L108.172 95.7863L108.153 95.5257Z" fill="url(#paint1_linear_2006_1575)"/>
<path d="M108.341 97.9622L107.102 98.0527L107.121 98.3134L108.36 98.2229L108.341 97.9622Z" fill="url(#paint2_linear_2006_1575)"/>
<path d="M108.498 100.408L107.259 100.499L107.278 100.76L108.517 100.669L108.498 100.408Z" fill="url(#paint3_linear_2006_1575)"/>
<path d="M108.686 102.876L107.447 102.967L107.466 103.227L108.705 103.137L108.686 102.876Z" fill="url(#paint4_linear_2006_1575)"/>
<path d="M108.852 105.312L107.614 105.402L107.633 105.663L108.871 105.572L108.852 105.312Z" fill="url(#paint5_linear_2006_1575)"/>
<path d="M109.041 107.758L107.802 107.849L107.821 108.109L109.06 108.019L109.041 107.758Z" fill="url(#paint6_linear_2006_1575)"/>
<path d="M106.452 97.4993L104.17 97.8994L107.184 115.149L109.466 114.749L106.452 97.4993Z" fill="#FFADB2"/>
<path d="M106.453 97.4973L104.157 97.8946L104.533 94.6117L105.003 94.5176L106.453 97.4973Z" fill="#EBDBCD"/>
<path d="M104.669 96.1172L105.003 95.9081L105.253 95.929L105.608 95.7617L105.003 94.5176L104.533 94.6117L104.366 95.929L104.669 96.1172Z" fill="#FF7A82"/>
<path d="M111.777 111.539C111.38 111.466 111.119 111.089 111.171 110.692L112.946 99.1705C112.966 99.0764 112.987 98.9823 113.019 98.8882L114.052 95.9817C114.188 95.6576 114.542 95.438 114.897 95.5112L115.064 95.5321C115.419 95.6053 115.67 95.9294 115.67 96.2849L115.44 99.3587C115.44 99.4528 115.419 99.5469 115.398 99.6619L112.653 110.974C112.549 111.372 112.173 111.633 111.777 111.539Z" fill="#2B31BA"/>
<path d="M125.241 119.422H110.315V124.419H125.241V119.422Z" fill="#F8D7BC"/>
<path d="M125.878 119.077V119.454H110.294V124.451H125.878V124.827H93.845V119.077H125.878Z" fill="#FF7A82"/>
<path d="M105.629 133.39H127.683V125.318H105.629C104.523 125.318 103.656 126.207 103.656 127.294V131.403C103.635 132.501 104.533 133.39 105.629 133.39Z" fill="#F8ECE2"/>
<path d="M92.5821 124.827H128.675C128.811 124.827 128.936 124.942 128.936 125.089C128.936 125.224 128.821 125.35 128.675 125.35H124.249H107.696C105.472 125.35 103.667 127.159 103.667 129.386C103.667 131.613 105.472 133.421 107.696 133.421H128.132H128.675C128.811 133.421 128.936 133.536 128.936 133.683C128.936 133.819 128.821 133.944 128.675 133.944H92.5821C90.3589 133.944 88.5532 132.135 88.5532 129.908V128.894C88.5532 126.636 90.3485 124.827 92.5821 124.827Z" fill="#2B31BA"/>
<path d="M127.683 126.636H106.756V126.918H127.683V126.636Z" fill="#EBD0BE"/>
<path d="M127.683 129.939H105.253V130.222H127.683V129.939Z" fill="#EBD0BE"/>
<path d="M127.683 131.676H107.998V131.958H127.683V131.676Z" fill="#EBD0BE"/>
<path d="M127.704 128.393H105.932V128.675H127.704V128.393Z" fill="#EBD0BE"/>
<path d="M110.576 118.857H96.8406V115.972H110.576C110.973 115.972 111.276 116.275 111.276 116.672V118.125C111.276 118.533 110.973 118.857 110.576 118.857Z" fill="#F8E7D8"/>
<path d="M119.104 115.763H96.256C96.2143 115.763 96.1621 115.805 96.1621 115.857C96.1621 115.899 96.2039 115.951 96.256 115.951H109.804C110.597 115.951 111.234 116.61 111.234 117.383C111.234 118.178 110.576 118.816 109.804 118.816H96.256C96.2143 118.816 96.1621 118.857 96.1621 118.91C96.1621 118.952 96.2039 119.004 96.256 119.004H119.104C119.897 119.004 120.534 118.345 120.534 117.571V117.153C120.555 116.4 119.907 115.763 119.104 115.763Z" fill="#FF5856"/>
<path d="M104.857 103.677H114.887C115.148 103.677 115.357 103.907 115.304 104.168L113.854 115.763H105.817L104.408 104.168C104.387 103.907 104.596 103.677 104.857 103.677Z" fill="#BF47A9"/>
<path d="M115.075 95.4594L114.908 95.4385C114.532 95.3653 114.177 95.5535 114.042 95.909L112.987 98.8678C112.967 98.9096 112.967 98.941 112.967 98.9828C113.29 99.2651 113.718 99.4742 114.209 99.5474C114.657 99.6206 115.075 99.5892 115.43 99.4742C115.43 99.4324 115.451 99.401 115.451 99.3592L115.68 96.2331C115.712 95.8567 115.451 95.5535 115.075 95.4594Z" fill="#D7D7E6"/>
<path d="M115.127 90.9947C115.221 90.8065 115.503 90.8065 115.597 90.9947C115.764 91.3188 115.973 91.7265 116.14 92.0088C116.421 92.5002 116.557 93.6503 116.421 94.194C116.254 94.8526 115.785 95.5322 115.649 95.7413C115.628 95.7831 115.576 95.8145 115.534 95.8354C115.399 95.8772 115.138 95.9295 114.783 95.8563C114.292 95.7413 114.24 95.4068 114.24 95.4068C114.24 95.4068 113.958 94.3299 114.01 93.6712C114.052 93.0125 114.407 92.1656 114.574 92.0297C114.626 91.9147 114.908 91.4024 115.127 90.9947Z" fill="#C7645D"/>
<path d="M153.955 258.863C157.232 258.905 159.372 257.88 159.372 257.88C159.372 257.88 160.708 260.724 160.969 262.198C161.229 263.672 162.002 268.68 160.854 269.611C159.612 270.646 159.841 270.364 158.255 271.043C156.032 271.984 155.071 271.535 152.044 273.082C150.917 273.668 146.043 278.195 141.127 278.623C136.983 278.979 135.877 276.982 135.386 275.874C134.896 274.765 135.783 272.632 138.716 270.447C142.275 267.792 145.845 263.996 146.565 263.035C148.767 260.076 149.748 257.357 149.748 257.357C149.748 257.357 150.583 258.79 153.955 258.863Z" fill="#C7645D"/>
<path d="M193.252 259.187C189.975 259.229 188.002 258.152 188.002 258.152C188.002 258.152 186.53 260.316 186.008 263.077C185.747 264.551 185.215 268.994 186.363 269.956C187.605 270.991 187.376 270.709 188.962 271.389C191.185 272.329 192.146 271.88 195.172 273.427C196.3 274.013 201.153 278.592 206.09 278.969C209.086 279.199 211.34 277.327 211.831 276.219C212.321 275.111 212.373 272.863 208.668 270.395C204.963 267.928 200.61 264.007 200.047 262.93C199.18 261.289 197.448 257.65 197.448 257.65C197.448 257.65 196.623 259.114 193.252 259.187Z" fill="#C7645D"/>
<path d="M235.805 97.8951C233.457 98.5328 231.046 97.1423 230.42 94.8212L229.292 90.6914C228.656 88.339 230.044 85.9239 232.361 85.2966C234.709 84.6588 237.121 86.0493 237.747 88.3704L238.874 92.5002C239.511 94.8212 238.154 97.2469 235.805 97.8951Z" fill="#BF47A9"/>
<path d="M236.484 100.436C232.643 101.492 228.677 99.2125 227.622 95.365L227.487 94.8527C227.372 94.4031 227.622 93.9326 228.071 93.8176C228.52 93.7026 228.99 93.9535 229.105 94.4031L229.24 94.9154C230.033 97.8533 233.081 99.6098 236.035 98.7838C238.968 97.9893 240.721 94.9363 239.897 91.9775L239.761 91.4652C239.646 91.0156 239.897 90.5451 240.346 90.4301C240.795 90.3151 241.264 90.5661 241.379 91.0156L241.515 91.5279C242.6 95.4068 240.335 99.3798 236.484 100.436Z" fill="#BF47A9"/>
<path d="M241.525 101.534C241.943 101.419 242.089 100.927 241.807 100.593C240.429 99.0244 238.216 98.2717 236.087 98.8571C233.927 99.4426 232.434 101.21 232.037 103.269C231.964 103.687 232.34 104.043 232.768 103.949L241.525 101.534Z" fill="#BF47A9"/>
<path d="M214.502 122.475C215.348 120.687 217.665 119.16 219.418 119.307C221.172 119.443 220.619 119.495 221.172 119.443C221.736 119.401 222.602 118.805 223.771 119.16C225.086 119.558 227.852 121.011 227.894 124.252C227.935 127.023 225.921 130.191 222.268 130.923C218.615 131.654 216.152 130.285 215.045 128.717C213.803 126.908 213.688 124.189 214.502 122.475Z" fill="#FF5856"/>
<path d="M220.201 121.607C220.201 121.607 219.92 117.457 221.611 115.69C223.489 113.745 225.942 111.915 225.754 113.107C225.712 113.39 226.109 117.404 224.982 118.91C223.27 121.21 220.201 121.607 220.201 121.607Z" fill="#4C7378"/>
<path d="M219.753 121.44C219.753 121.44 219.429 119.652 219.116 118.648C218.458 116.578 218.041 115.596 218.041 115.596L219.867 115.198C219.867 115.198 220.546 117.634 220.661 118.575C220.89 120.238 220.755 121.346 220.755 121.346C220.755 121.346 220.525 121.722 220.191 121.67C219.826 121.68 219.753 121.44 219.753 121.44Z" fill="#6B4D3A"/>
<path d="M219.038 115.851C219.549 115.762 219.929 115.492 219.886 115.247C219.844 115.003 219.395 114.876 218.884 114.966C218.373 115.055 217.993 115.325 218.035 115.57C218.078 115.814 218.527 115.941 219.038 115.851Z" fill="#8A634B"/>
<path d="M254.342 133.882H211.695C211.319 133.882 211.016 133.579 211.016 133.202V131.509C211.016 131.132 211.319 130.829 211.695 130.829H254.322C254.697 130.829 255 131.132 255 131.509V133.202C255 133.579 254.697 133.882 254.342 133.882Z" fill="#C5C6E3"/>
<path d="M232.695 130.338H223.364V127.055H232.695C232.956 127.055 233.144 127.264 233.144 127.504V129.878C233.165 130.129 232.946 130.338 232.695 130.338Z" fill="#F8D0B3"/>
<path d="M249.489 126.543H230.973H222.852H222.592C222.456 126.543 222.331 126.658 222.331 126.804C222.331 126.94 222.445 127.066 222.592 127.066H223.364H232.225C232.737 127.066 233.144 127.484 233.144 127.986V129.439C233.144 129.951 232.726 130.359 232.225 130.359H230.211H222.665C222.529 130.359 222.404 130.474 222.404 130.62C222.404 130.756 222.518 130.882 222.665 130.882H222.852H231.035H249.499C250.011 130.882 250.418 130.464 250.418 129.962V127.494C250.407 126.94 250.011 126.543 249.489 126.543Z" fill="#FF7A82"/>
<path d="M237.235 126.302H222.164V123.134H237.235C237.684 123.134 238.029 123.489 238.029 123.928V125.497C238.029 125.946 237.684 126.302 237.235 126.302Z" fill="#F8E7D8"/>
<path d="M246.66 122.904H221.516C221.443 122.904 221.402 122.946 221.402 123.019C221.402 123.092 221.443 123.134 221.516 123.134H236.421C237.287 123.134 238.018 123.835 238.018 124.734C238.018 125.602 237.319 126.334 236.421 126.334H221.516C221.443 126.334 221.402 126.375 221.402 126.449C221.402 126.522 221.443 126.564 221.516 126.564H246.639C247.506 126.564 248.236 125.863 248.236 124.964V124.493C248.226 123.605 247.527 122.904 246.66 122.904Z" fill="#4E53BA"/>
<path d="M233.624 125.362H222.143V125.226H233.624C233.666 125.226 233.697 125.246 233.697 125.299C233.718 125.341 233.676 125.362 233.624 125.362Z" fill="#DEBCA7"/>
<path d="M236.275 124.326H222.164V124.19H236.275C236.317 124.19 236.348 124.211 236.348 124.264C236.348 124.285 236.327 124.326 236.275 124.326Z" fill="#DEBCA7"/>
<path d="M215.556 76.3152C216.03 75.3905 214.464 73.6385 212.059 72.4019C209.653 71.1654 207.319 70.9126 206.846 71.8374C206.372 72.7621 207.938 74.5141 210.343 75.7506C212.748 76.9872 215.082 77.2399 215.556 76.3152Z" fill="#D4BFA9"/>
<path d="M207.708 70.3142C208.595 68.6937 209.346 67.0313 209.701 65.2226C210.474 61.3228 209.42 56.7957 211.904 53.7219C213.688 51.4949 216.872 50.8153 219.68 51.2126C223.124 51.704 226.401 53.7219 227.977 56.8271C229.543 59.9218 229.146 64.062 226.662 66.4772C224.575 68.516 221.464 69.1746 219.283 71.0984C218.062 72.1753 217.195 73.6076 216.287 74.9668L215.985 75.385C209.326 74.6636 207.708 70.3142 207.708 70.3142Z" fill="#EBDBCD"/>
<path d="M219.471 64.282C219.189 63.2469 218.302 63.2992 217.498 63.6442C217.31 63.0796 217.008 62.3582 216.423 62.1177C215.766 61.8564 215.014 62.3059 214.503 62.7032C213.375 63.571 212.509 64.8361 211.998 66.1534C211.486 67.4708 211.225 68.8718 210.756 70.2101C210.568 70.7537 211.434 70.9837 211.622 70.4401C212.206 68.7463 212.446 66.8958 213.375 65.3484C213.887 64.4806 214.638 63.4665 215.598 63.0692C215.901 62.9332 216.11 62.9019 216.329 63.2051C216.496 63.4351 216.611 63.7174 216.684 63.9788C216.684 63.9997 216.705 64.0206 216.705 64.0519C216.59 64.1251 216.496 64.1879 216.402 64.261C215.484 64.9406 214.273 66.1639 214.294 67.4081C214.294 67.9726 214.649 68.4431 215.233 68.4849C215.87 68.5268 216.496 68.0354 216.893 67.5649C217.644 66.6971 217.874 65.5679 217.717 64.4702C217.926 64.3551 218.114 64.282 218.302 64.261C218.865 64.2192 218.604 65.1288 218.531 65.432C218.25 66.4462 217.665 67.3349 217.102 68.2027C216.684 68.8613 216.308 69.5618 215.786 70.1473C215.223 70.806 214.471 71.2556 213.772 71.7156C213.281 72.0188 213.73 72.7925 214.221 72.4893C215.066 71.9456 215.933 71.4124 216.569 70.6387C217.248 69.8128 217.811 68.8822 218.354 67.9622C218.938 66.9899 219.805 65.4843 219.471 64.282ZM216.799 65.8084C216.684 66.2789 216.475 66.7285 216.141 67.0735C215.953 67.2826 215.087 67.9936 215.16 67.3349C215.202 66.9376 215.515 66.5089 215.745 66.1848C216.047 65.7666 216.444 65.3902 216.872 65.0556C216.872 65.2961 216.872 65.5575 216.799 65.8084Z" fill="#BFA990"/>
<path d="M210.338 75.7611C208.157 74.6528 206.685 73.1054 206.747 72.1436L205.641 76.0434C205.265 76.7961 206.528 78.2076 208.48 79.2113C210.421 80.2254 212.321 80.4345 212.697 79.6818C212.718 79.6399 212.718 79.6086 212.739 79.5668L215.338 76.587C214.628 77.1934 212.519 76.8902 210.338 75.7611Z" fill="#BFA990"/>
<path d="M186.123 45.8391C186.102 45.8391 186.081 45.8391 186.05 45.8182C185.956 45.7764 185.914 45.6509 185.956 45.5568C186.123 45.1805 186.311 44.825 186.561 44.5009C186.634 44.4068 186.749 44.3859 186.843 44.459C186.937 44.5322 186.958 44.6472 186.885 44.7413C186.655 45.0445 186.467 45.3791 186.321 45.7241C186.29 45.7869 186.217 45.8391 186.123 45.8391Z" fill="#110580"/>
<path d="M217.79 57.9256C217.769 57.9256 217.749 57.9256 217.717 57.9047L217.435 57.8106C216.799 57.5806 216.152 57.3192 215.442 57.0369C215.348 56.9951 215.306 56.8697 215.327 56.7756C215.369 56.6815 215.494 56.6396 215.588 56.6605C216.266 56.9428 216.924 57.2042 217.561 57.4342L217.843 57.5283C217.936 57.5702 218.01 57.6956 217.957 57.7897C217.947 57.8734 217.884 57.9256 217.79 57.9256ZM213.334 56.0437C213.313 56.0437 213.26 56.0437 213.24 56.0228C212.467 55.6255 211.789 55.1968 211.131 54.7577C211.037 54.6845 211.016 54.5695 211.09 54.4754C211.163 54.3813 211.277 54.3604 211.371 54.4336C212.008 54.8832 212.655 55.2805 213.438 55.6569C213.532 55.6987 213.574 55.8241 213.532 55.9182C213.48 56.0019 213.407 56.0437 213.334 56.0437ZM209.399 53.2522C209.357 53.2522 209.305 53.2312 209.263 53.179C208.678 52.5935 208.157 51.9348 207.718 51.2552C207.645 51.1611 207.697 51.0461 207.791 50.9729C207.885 50.8997 208 50.952 208.073 51.0461C208.491 51.7048 208.992 52.3112 209.576 52.8967C209.649 52.9699 209.649 53.1058 209.576 53.179C209.493 53.2312 209.44 53.2522 209.399 53.2522ZM206.8 49.1955C206.727 49.1955 206.633 49.1537 206.612 49.0596C206.33 48.2859 206.121 47.4914 206.006 46.6654C205.986 46.5504 206.079 46.4563 206.173 46.4354C206.288 46.4145 206.382 46.5086 206.403 46.6027C206.518 47.3763 206.706 48.15 206.988 48.9028C207.029 48.9969 206.967 49.1119 206.873 49.1642C206.841 49.1955 206.821 49.1955 206.8 49.1955ZM208.104 46.634C207.656 46.634 207.217 46.6131 206.768 46.5399C206.654 46.519 206.581 46.4249 206.601 46.3099C206.622 46.1949 206.716 46.1217 206.831 46.1426C207.248 46.2158 207.697 46.2367 208.115 46.2367C208.491 46.2367 208.845 46.2158 209.19 46.1635C209.305 46.1426 209.399 46.2367 209.42 46.3308C209.44 46.4249 209.346 46.5399 209.252 46.5608C208.856 46.6131 208.48 46.634 208.104 46.634ZM204.451 45.9335C204.43 45.9335 204.409 45.9335 204.378 45.9335C203.7 45.7035 203.021 45.3899 202.124 44.9926C202.03 44.9507 201.988 44.8253 202.03 44.7312C202.071 44.6371 202.197 44.5953 202.291 44.6371C203.157 45.0344 203.835 45.3376 204.514 45.5781C204.608 45.6199 204.681 45.714 204.629 45.8394C204.618 45.8813 204.524 45.9335 204.451 45.9335ZM211.507 45.8394C211.434 45.8394 211.371 45.7976 211.34 45.7453C211.298 45.6512 211.319 45.5362 211.413 45.463C211.789 45.2539 212.112 45.0135 212.425 44.7312C212.686 44.5012 212.916 44.2189 213.104 43.8843C213.146 43.7902 213.292 43.7693 213.386 43.8111C213.48 43.8529 213.501 43.9993 213.459 44.0934C213.25 44.4489 212.989 44.7521 212.707 45.0135C212.384 45.3167 212.029 45.5781 211.632 45.7872C211.58 45.8394 211.528 45.8394 211.507 45.8394ZM206.163 44.428C206.027 44.4071 205.954 44.313 205.975 44.2189C206.069 43.3511 206.299 42.5565 206.654 41.8246C206.695 41.7305 206.821 41.6887 206.915 41.7305C207.008 41.7724 207.05 41.8978 207.008 41.9919C206.685 42.6715 206.445 43.4243 206.351 44.2502C206.351 44.3548 206.257 44.428 206.163 44.428ZM200.026 43.9575C200.005 43.9575 199.984 43.9575 199.932 43.9366C199.671 43.8216 199.42 43.7066 199.159 43.5811C198.648 43.3511 198.178 43.1629 197.73 42.9747C197.636 42.9329 197.562 42.8074 197.615 42.7133C197.656 42.6192 197.782 42.546 197.876 42.5983C198.345 42.7865 198.815 42.9747 199.326 43.2047C199.587 43.3197 199.838 43.4347 200.099 43.5602C200.193 43.602 200.234 43.7275 200.193 43.8216C200.161 43.9157 200.099 43.9575 200.026 43.9575ZM188.471 43.1838C188.398 43.1838 188.336 43.1629 188.304 43.0897C188.231 42.9956 188.284 42.8806 188.377 42.8074C189.056 42.3579 189.828 42.0337 190.653 41.8246C190.768 41.8037 190.862 41.8665 190.882 41.9606C190.903 42.0756 190.841 42.1697 190.747 42.1906C189.974 42.3997 189.244 42.7029 188.586 43.1315C188.565 43.1838 188.513 43.1838 188.471 43.1838ZM195.506 42.2638C195.485 42.2638 195.485 42.2638 195.465 42.2638C194.64 42.0756 193.847 41.9815 193.095 41.9606C192.98 41.9606 192.907 41.8665 192.907 41.7515C192.907 41.6364 193.001 41.5633 193.095 41.5633C193.868 41.5842 194.692 41.6783 195.527 41.8665C195.642 41.8874 195.694 42.0024 195.663 42.0965C195.663 42.2219 195.59 42.2638 195.506 42.2638ZM213.876 41.8874C213.761 41.8874 213.688 41.7933 213.688 41.6992C213.668 41.0196 213.407 40.4341 213.01 40.0054C212.916 39.9113 212.822 39.8172 212.728 39.7441C212.634 39.6709 212.634 39.5559 212.686 39.4618C212.759 39.3677 212.874 39.3677 212.968 39.4199C213.083 39.514 213.198 39.6081 213.292 39.7231C213.782 40.2355 214.064 40.8941 214.085 41.6678C214.085 41.7933 213.991 41.8874 213.876 41.8874C213.876 41.8874 213.897 41.8874 213.876 41.8874ZM208.324 40.225C208.251 40.225 208.209 40.2041 208.157 40.1518C208.083 40.0577 208.115 39.9427 208.198 39.8695C208.877 39.3572 209.701 39.0017 210.495 38.8867C210.609 38.8658 210.703 38.9599 210.724 39.054C210.745 39.169 210.651 39.2631 210.557 39.284C209.806 39.3781 209.054 39.7022 208.449 40.2041C208.417 40.225 208.365 40.225 208.324 40.225Z" fill="#110580"/>
<path d="M221.026 59.4935C220.984 59.4935 220.932 59.4726 220.89 59.4517C220.682 59.2635 220.379 59.0544 219.951 58.8453C219.857 58.8035 219.815 58.678 219.857 58.5839C219.899 58.4898 220.024 58.448 220.118 58.4898C220.567 58.7199 220.89 58.9394 221.151 59.1485C221.224 59.2217 221.245 59.3576 221.172 59.4308C221.141 59.4726 221.068 59.4935 221.026 59.4935Z" fill="#110580"/>
<path d="M219.262 34.2652C220.577 38.7296 220.462 42.8594 220.337 47.4387C220.316 48.7038 224.439 48.3065 224.721 47.2087C225.827 42.7966 225.044 38.0291 223.646 33.7843C223.197 32.3833 218.907 33.0629 219.262 34.2652Z" fill="#F3E9E1"/>
<path d="M236.86 43.0372C234.866 46.6337 232.361 49.6135 229.804 52.7605C228.677 54.1406 232.612 53.9105 233.342 53.2519C236.484 50.4812 238.916 46.7487 240.795 43.0372C241.358 41.9603 237.444 41.9603 236.86 43.0372Z" fill="#F3E9E1"/>
<path d="M236.16 61.7518C238.968 61.825 241.786 61.9609 244.573 62.1282C245.585 62.2014 247.151 61.8041 247.454 60.6749C247.756 59.5458 246.42 58.9394 245.533 58.8871C242.726 58.7198 239.928 58.6048 237.121 58.5107C236.108 58.4898 234.563 58.8139 234.24 59.964C233.937 61.0931 235.242 61.7309 236.16 61.7518Z" fill="#F3E9E1"/>
<path d="M185.706 129.261C185.706 129.261 186.311 132.732 186.363 134.426C186.384 135.461 186.363 137.102 186.363 137.102C186.363 137.102 187.136 137.102 187.532 137.06C187.929 137.039 188.398 136.945 188.398 136.945C188.398 136.945 187.929 135.398 187.438 133.851C186.969 132.481 185.706 129.261 185.706 129.261Z" fill="#E0E0E0"/>
<path d="M158.777 129.073C158.777 129.073 157.931 131.488 157.555 133.036C157.274 134.207 157.388 135.242 157.326 135.524C157.232 136.015 156.741 137.375 156.501 138.012C156.428 138.201 156.219 138.316 156.032 138.274C155.708 138.201 155.207 138.086 154.831 137.971C154.226 137.782 153.798 137.594 153.892 137.647C153.892 137.647 155.207 135.765 156.146 134.175C156.95 132.806 158.777 129.073 158.777 129.073Z" fill="#E0E0E0"/>
<path d="M186.196 160.971C191.519 171.531 194.776 183.032 196.529 194.7C198.408 207.047 198.564 219.604 197.98 232.067C197.656 239.27 197.04 246.453 196.362 253.636C196.289 254.462 197.562 254.43 197.625 253.636C198.846 240.744 199.806 227.811 199.472 214.878C199.17 202.792 197.74 190.675 194.483 179.038C192.678 172.608 190.287 166.314 187.292 160.334C186.927 159.612 185.82 160.25 186.196 160.971Z" fill="white"/>
<path d="M157.19 161.233C152.545 171.96 149.967 183.419 148.569 194.993C147.118 206.891 146.763 218.956 146.909 230.927C147.003 238.037 147.358 245.125 148.172 252.193C148.266 252.988 149.529 253.019 149.435 252.193C148.005 239.845 147.932 227.383 148.381 214.962C148.778 203.388 149.759 191.772 152.337 180.429C153.767 174.093 155.708 167.82 158.286 161.86C158.589 161.139 157.514 160.48 157.19 161.233Z" fill="white"/>
<path d="M128.644 133.391H128.101H126.347C126.233 133.579 126.086 133.746 125.93 133.882H128.623C128.759 133.882 128.884 133.767 128.884 133.621C128.905 133.506 128.79 133.391 128.644 133.391Z" fill="#2B31BA"/>
<path d="M128.644 125.32C128.779 125.32 128.905 125.205 128.905 125.058C128.905 124.922 128.79 124.797 128.644 124.797H126.817V125.288L128.644 125.32Z" fill="#2B31BA"/>
<path d="M125.335 134.781C124.26 134.551 123.174 134.238 122.12 133.893H99.095V133.966C99.095 134.509 99.2828 135.001 99.6064 135.471H123.999C124.5 135.461 124.938 135.22 125.335 134.781Z" fill="#E3996D"/>
<path d="M215.118 134.75C215.515 135.199 215.985 135.45 216.475 135.45H242.016C242.131 135.147 242.204 134.844 242.183 134.488V133.882H218.229C217.206 134.216 216.173 134.52 215.118 134.75Z" fill="#E3996D"/>
<path d="M172.231 153.507C166.793 153.507 159.017 152.189 159.017 152.189C159.017 152.189 158.902 152.796 158.756 153.622C162.273 154.73 167.033 155.284 172.252 155.096C177.168 154.908 181.624 154.04 184.996 152.796C185.037 152.775 185.069 152.754 185.111 152.723C185.111 152.702 185.111 152.681 185.111 152.681C185.111 152.681 177.971 153.528 172.231 153.507Z" fill="#F0A173"/>
</g>

</svg>
