<svg width="354" height="310" viewBox="0 0 354 310" fill="none" xmlns="http://www.w3.org/2000/svg">
<path opacity="0.25" d="M117.617 290.343C135.094 298.432 153.654 305.632 173.054 308.618C210.834 314.421 241.015 301.774 276.962 273.151C319.608 237.743 338.466 176.209 328.301 124.027C321.679 89.9843 299.471 60.9609 274.259 38.8276C249.514 17.1223 219.647 2.0248 185.502 0.212797C125.138 -3.00894 61.1274 30.5426 34.5202 87.9065C7.4465 146.265 18.6333 216.499 64.7317 257.295C80.2429 271.042 98.7122 281.584 117.617 290.343Z" fill="#EBDBCD"/>
<path d="M92.5294 90.8966C91.1345 90.9188 89.7965 91.4528 88.7696 92.397C88.3283 84.7405 83.6726 78.7168 77.971 78.7168C71.9826 78.7168 67.1327 85.3363 67.1327 93.5444C67.1331 94.3899 67.1876 95.2345 67.296 96.073C66.1636 94.9148 64.6217 94.2476 63.0022 94.2152C59.7234 94.2152 56.9476 97.088 55.99 101.055H99.4975C99.4975 100.861 99.4975 100.663 99.4975 100.464C99.5284 95.1728 96.3996 90.8966 92.5294 90.8966Z" fill="#F9E4F8"/>
<path d="M138.455 240.342C137.396 236.785 135.119 234.327 132.476 234.327C131.814 234.348 131.163 234.499 130.561 234.774C129.959 235.048 129.417 235.439 128.967 235.925C128.354 231.141 125.688 227.54 122.489 227.54C119.069 227.54 116.253 231.662 115.914 236.953C115.305 236.728 114.661 236.613 114.012 236.613C111.633 236.613 109.568 238.122 108.509 240.342H138.455Z" fill="#F9E4F8"/>
<path d="M90.3891 200.202C89.5013 200.215 88.6502 200.558 88.0017 201.164C87.4986 197.109 85.6804 194.104 83.5048 194.104C80.9453 194.104 78.8712 198.274 78.8712 203.415V203.441C78.2523 202.85 77.4326 202.514 76.5765 202.501C74.7054 202.501 73.1343 204.165 72.7107 206.402H94.5637C94.5919 206.161 94.6066 205.918 94.6079 205.674C94.6079 202.651 92.7191 200.202 90.3891 200.202Z" fill="#F9E4F8"/>
<path d="M271.577 92.6358C271.171 88.2228 267.641 84.7719 263.347 84.7719C261.667 84.7738 260.031 85.3084 258.674 86.2988C258.351 78.3554 253.378 72.0537 247.332 72.0537C241.057 72.0537 235.973 78.8011 235.973 87.124C235.972 88.0795 236.042 89.0338 236.181 89.9792C234.979 89.0915 233.526 88.6079 232.032 88.5979C229.314 88.5979 226.918 90.2043 225.51 92.6358H271.577Z" fill="#F9E4F8"/>
<path d="M305.676 153.081C304.908 149.422 302.243 146.695 299.057 146.695C298.674 146.698 298.292 146.739 297.918 146.819C296.682 144.383 294.56 142.767 292.141 142.767C290.261 142.767 288.554 143.747 287.287 145.331C286.766 136.841 283.157 129.833 278.779 129.833C274.401 129.833 270.703 136.995 270.249 145.631C268.638 142.882 266.22 141.13 263.514 141.13C260.081 141.13 257.107 143.955 255.664 148.072C254.427 147.125 252.914 146.611 251.357 146.607C247.738 146.607 244.715 149.369 243.938 153.063L305.676 153.081Z" fill="#F9E4F8"/>
<path d="M302.168 192.294C301.104 192.311 300.087 192.734 299.326 193.477C298.885 188.693 296.237 185.004 292.998 185.004C289.467 185.004 286.612 189.39 286.612 194.801C286.612 194.836 286.612 194.867 286.612 194.902C285.936 194.278 285.052 193.926 284.132 193.914C282.018 193.914 280.244 195.851 279.719 198.472H307C307 198.45 307 198.433 307 198.411C307 195.03 304.829 192.294 302.168 192.294Z" fill="#F9E4F8"/>
<path d="M119.912 175.843C120.668 173.036 121.048 170.14 121.042 167.233C121.042 153.849 113.257 142.997 103.65 142.997C96.6556 142.997 90.6275 148.734 87.865 157.052C85.023 153.482 81.2455 151.316 77.0929 151.316C69.1848 151.316 62.6227 159.228 61.3518 169.607C59.5558 168.114 57.3018 167.282 54.9662 167.251C50.2885 167.251 46.2065 170.711 44 175.86L119.912 175.843Z" fill="#F9E4F8"/>
<path d="M51.7094 97.2955C51.7094 97.066 51.0739 96.8542 50.2178 96.8189C50.1692 95.8172 49.9707 95.0537 49.7368 95.0537C49.5029 95.0537 49.2955 95.7995 49.2513 96.8189C48.3952 96.8719 47.7598 97.066 47.7598 97.2955C47.7598 97.525 48.3952 97.7368 49.2513 97.7765C49.2999 98.7738 49.4985 99.5417 49.7368 99.5417C49.9751 99.5417 50.1781 98.7915 50.2178 97.7765C51.0739 97.7103 51.7094 97.5294 51.7094 97.2955Z" fill="#DDB6DC"/>
<path d="M242.482 61.2418C242.482 61.0123 241.847 60.8005 240.991 60.7652C240.942 59.7634 240.744 59 240.505 59C240.267 59 240.064 59.7458 240.024 60.7652C239.168 60.8181 238.533 61.0123 238.533 61.2418C238.533 61.4713 239.168 61.6831 240.024 61.7228C240.073 62.7201 240.271 63.488 240.505 63.488C240.739 63.488 240.947 62.7378 240.991 61.7228C241.847 61.6699 242.482 61.4757 242.482 61.2418Z" fill="#DDB6DC"/>
<path d="M280.76 123.209C280.76 122.979 280.125 122.767 279.269 122.732C279.22 121.73 279.022 120.967 278.783 120.967C278.545 120.967 278.342 121.713 278.302 122.732C277.446 122.785 276.811 122.979 276.811 123.209C276.811 123.438 277.446 123.65 278.302 123.69C278.351 124.687 278.549 125.455 278.783 125.455C279.017 125.455 279.225 124.705 279.269 123.69C280.125 123.632 280.76 123.442 280.76 123.209Z" fill="#DDB6DC"/>
<path d="M305.124 102.697C305.124 102.467 304.489 102.256 303.628 102.22C303.58 101.219 303.386 100.455 303.147 100.455C302.909 100.455 302.706 101.201 302.666 102.22C301.806 102.273 301.17 102.467 301.17 102.697C301.17 102.926 301.806 103.138 302.666 103.178C302.715 104.175 302.909 104.943 303.147 104.943C303.386 104.943 303.589 104.193 303.628 103.178C304.489 103.125 305.124 102.931 305.124 102.697Z" fill="#DDB6DC"/>
<path d="M49.7236 194.187C49.7236 193.958 49.0881 193.746 48.2276 193.711C48.179 192.709 47.9848 191.945 47.7465 191.945C47.5082 191.945 47.3052 192.691 47.2655 193.711C46.405 193.763 45.7695 193.958 45.7695 194.187C45.7695 194.417 46.405 194.628 47.2655 194.668C47.3141 195.665 47.5082 196.433 47.7465 196.433C47.9848 196.433 48.1878 195.683 48.2276 194.668C49.1013 194.615 49.7236 194.421 49.7236 194.187Z" fill="#DDB6DC"/>
<path d="M100.071 67.6668C100.071 67.2696 98.9857 66.9387 97.5162 66.846C97.4368 65.1382 97.0749 63.8584 96.691 63.8584C96.3071 63.8584 95.9496 65.1382 95.8658 66.846C94.4007 66.9387 93.3151 67.2873 93.3151 67.6668C93.3151 68.0463 94.4007 68.3905 95.8658 68.4832C95.9496 70.191 96.3071 71.4708 96.691 71.4708C97.0749 71.4708 97.4368 70.191 97.5162 68.4832C98.9857 68.3905 100.071 68.0595 100.071 67.6668Z" fill="#DDB6DC"/>
<path d="M206.87 72.177C206.87 71.7843 205.78 71.4489 204.315 71.3606C204.231 69.6528 203.895 68.373 203.489 68.373C203.083 68.373 202.748 69.6528 202.664 71.3606C201.199 71.4489 200.113 71.8019 200.113 72.177C200.113 72.5521 201.199 72.9052 202.664 72.9978C202.748 74.7057 203.105 75.9854 203.489 75.9854C203.873 75.9854 204.231 74.7057 204.315 72.9978C205.78 72.9052 206.87 72.5565 206.87 72.177Z" fill="#DDB6DC"/>
<path d="M285.654 176.972C285.654 176.579 284.569 176.248 283.104 176.156C283.02 174.448 282.662 173.168 282.279 173.168C281.895 173.168 281.533 174.448 281.453 176.156C279.984 176.248 278.898 176.597 278.898 176.972C278.898 177.347 279.984 177.7 281.453 177.793C281.533 179.501 281.873 180.78 282.279 180.78C282.685 180.78 283.02 179.501 283.104 177.793C284.569 177.7 285.654 177.369 285.654 176.972Z" fill="#DDB6DC"/>
<path d="M73.6111 132.604C73.6111 132.207 72.5255 131.876 71.0604 131.783C70.9766 130.076 70.6191 128.796 70.2352 128.796C69.8513 128.796 69.4938 130.076 69.41 131.783C67.9449 131.876 66.8549 132.225 66.8549 132.604C66.8549 132.984 67.9449 133.328 69.41 133.421C69.4938 135.129 69.8292 136.408 70.2352 136.408C70.6412 136.408 70.9766 135.129 71.0604 133.421C72.5255 133.328 73.6111 133.015 73.6111 132.604Z" fill="#DDB6DC"/>
<path d="M220.333 202.819C226.017 201.936 231.366 199.681 236.979 198.547C240.24 197.889 243.912 197.223 247.173 198.225C251.251 199.496 253.14 203.816 249.993 207.232C254.455 204.994 260.121 205.06 264.269 207.836C265.202 208.428 266.003 209.206 266.621 210.122C269.468 214.592 266.299 217.876 262.314 219.8C265.793 220.985 268.893 223.074 271.298 225.854C273.702 228.633 275.323 232.003 275.994 235.616C276.347 237.681 276.352 239.927 275.262 241.719C273.527 244.583 269.569 245.302 266.299 244.565C263.029 243.828 260.086 241.944 257.663 239.614C255.24 237.284 253.294 234.508 251.485 231.671C251.822 232.881 251.752 234.169 251.287 235.336C250.821 236.503 249.985 237.485 248.907 238.131C245.333 240.17 242.398 237.791 240.748 234.76C238.802 231.188 237.445 227.325 236.728 223.321C235.585 225.554 232.098 225.598 230.108 224.623C227.46 223.343 226.022 219.517 225.307 216.905C224.424 213.705 224.133 210.352 223.047 207.218C222.527 205.718 221.626 204.107 220.073 203.789" fill="#8F78EA"/>
<path d="M259.989 237.072C259.547 234.235 259.177 231.636 258.788 229.028C258.532 227.368 258.347 226.225 258.237 225.846C258.647 226.256 259.044 226.662 259.424 227.051C261.277 228.953 262.742 230.532 263.753 231.627C264.251 232.219 264.794 232.773 265.377 233.282C264.964 232.623 264.494 232.001 263.974 231.424C263.029 230.272 261.621 228.635 259.808 226.675L259.168 225.991C259.697 225.991 260.567 226.013 261.692 226.027C263.607 226.027 266.246 226.08 269.163 226.208C270.046 226.247 270.893 226.296 271.705 226.344C271.564 226.168 271.423 225.996 271.264 225.824C270.589 225.78 269.891 225.74 269.176 225.709C266.251 225.581 263.594 225.594 261.674 225.669C260.448 225.718 259.521 225.784 259.027 225.841C255.445 222.038 251.565 218.525 247.425 215.338H247.637C248.356 215.272 249.402 215.153 250.673 214.99C253.232 214.668 256.758 214.16 260.637 213.498C263.157 213.057 265.492 212.616 267.539 212.223C267.504 212.086 267.464 211.945 267.416 211.804C265.39 212.166 263.051 212.58 260.553 213.004C256.679 213.666 253.166 214.231 250.62 214.641L247.61 215.144L247.24 215.215C246.233 214.451 245.201 213.697 244.124 212.955C240.959 210.78 237.62 208.869 234.142 207.241L233.701 207.038C234.208 206.817 235.152 206.367 236.406 205.754L243.855 202.069L249.345 199.355C249.217 199.258 249.084 199.161 248.947 199.072C247.376 199.805 245.563 200.67 243.652 201.623C240.739 203.062 238.131 204.421 236.26 205.44C235.325 205.948 234.57 206.367 234.054 206.671C233.851 206.791 233.687 206.892 233.564 206.971C230.91 205.755 228.168 204.743 225.36 203.944C223.414 203.406 221.724 203.062 220.378 202.814H220.342L220.241 203.145C221.565 203.437 223.264 203.856 225.21 204.469C228.016 205.335 230.758 206.398 233.414 207.651C233.36 207.943 233.322 208.238 233.299 208.534C233.233 209.147 233.171 210.034 233.109 211.137C232.99 213.344 232.928 216.38 233.034 219.738C233.1 221.728 233.22 223.6 233.361 225.254L233.802 225.206C233.701 223.555 233.599 221.676 233.537 219.725C233.427 216.376 233.436 213.344 233.462 211.146C233.489 209.297 233.511 208.057 233.462 207.691L233.855 207.876C237.281 209.522 240.576 211.43 243.709 213.582C244.709 214.276 245.68 214.977 246.622 215.683C246.591 215.837 246.542 216.181 246.489 216.684C246.41 217.395 246.335 218.428 246.273 219.703C245.982 226.077 246.416 232.464 247.566 238.74C247.685 238.705 247.809 238.657 247.932 238.608C247.562 236.194 247.16 233.079 246.909 229.654C246.626 225.78 246.586 222.262 246.626 219.716C246.626 218.675 246.666 217.673 246.684 216.698C246.684 216.23 246.684 215.903 246.684 215.731C250.739 218.814 254.573 222.178 258.157 225.797C258.193 226.902 258.286 228.003 258.435 229.098C258.665 231.172 259.031 234.023 259.49 237.169C259.728 238.807 259.971 240.356 260.2 241.755C260.368 241.874 260.531 241.997 260.704 242.112C260.474 240.462 260.222 238.815 259.989 237.072Z" fill="#6858C6"/>
<path d="M286.912 221.177C287.614 220.295 286.259 218.388 285.813 217.819C283.316 214.598 279.269 213.062 275.121 212.02C272.861 210.225 270.486 208.58 268.011 207.096C270.047 207.316 272.098 207.356 274.141 207.215C276.063 207.08 277.954 206.662 279.754 205.975C280.407 205.705 282.843 204.527 282.733 203.649C282.587 202.594 280.019 202.413 279.203 202.382C274.79 202.21 270.266 203.803 266.211 206.067C263.47 204.532 260.629 203.181 257.707 202.025C260.152 202.063 262.595 201.893 265.011 201.518C266.948 201.209 268.835 200.641 270.619 199.827C271.255 199.514 273.629 198.19 273.413 197.396C273.153 196.443 270.505 196.513 269.68 196.579C264.966 196.866 260.381 198.905 256.379 201.509C255.456 201.164 254.53 200.829 253.577 200.516C251.758 199.929 249.949 199.426 248.166 198.998C249.976 198.846 251.769 198.533 253.524 198.062C255.166 197.626 256.729 196.935 258.157 196.015C258.66 195.67 260.514 194.214 260.178 193.459C259.777 192.577 257.46 192.837 256.745 192.948C252.72 193.565 249.111 195.798 246.088 198.539C243.881 198.097 241.767 197.762 239.715 197.55C238.961 197.471 238.224 197.409 237.509 197.356C239.242 196.947 240.936 196.386 242.571 195.679C244.13 195.01 245.576 194.102 246.856 192.987C247.297 192.546 248.925 190.86 248.488 190.163C247.959 189.329 245.708 189.938 245.015 190.163C241.123 191.354 237.875 194.086 235.28 197.224C232.907 197.136 230.531 197.175 228.162 197.343C227.469 197.391 226.838 197.453 226.181 197.519C227.959 196.942 229.682 196.203 231.326 195.313C232.821 194.506 234.181 193.473 235.36 192.25C235.77 191.809 237.235 189.951 236.732 189.294C236.132 188.512 233.948 189.316 233.277 189.589C229.398 191.165 226.344 194.298 224.01 197.78C222.602 197.978 221.397 198.195 220.435 198.398C219.473 198.601 218.846 198.773 218.374 198.892C218.131 198.937 217.894 199.015 217.673 199.126C217.673 199.192 218.688 199.015 220.497 198.724C221.503 198.57 222.77 198.398 224.252 198.243C225.792 200.269 227.341 202.303 229.257 203.98C230.507 205.127 231.929 206.073 233.471 206.782C234.036 207.021 236.26 207.802 236.715 207.113C237.257 206.292 235.779 204.487 235.302 203.945C232.743 201.028 229.151 199.214 225.409 198.124C226.291 198.049 227.205 197.978 228.198 197.93C230.303 197.833 232.681 197.811 235.258 197.93C236.618 200.088 237.99 202.254 239.742 204.108C240.886 205.363 242.219 206.431 243.691 207.276C244.234 207.563 246.379 208.534 246.895 207.89C247.509 207.118 246.194 205.194 245.766 204.607C243.519 201.518 240.183 199.43 236.626 198.014C237.612 198.084 238.618 198.178 239.645 198.296C241.697 198.526 243.833 198.892 246.026 199.338C247.045 201.632 248.078 203.936 249.521 205.988C250.472 207.395 251.636 208.646 252.972 209.695C253.466 210.057 255.448 211.328 256.061 210.767C256.78 210.092 255.757 207.996 255.421 207.356C253.7 204.104 250.849 201.619 247.672 199.708C249.534 200.15 251.427 200.679 253.338 201.292C254.384 201.637 255.408 202.007 256.427 202.387C257.067 204.743 257.751 207.104 258.89 209.253C259.67 210.784 260.716 212.163 261.979 213.327C262.455 213.737 264.406 215.207 265.196 214.681C266.14 214.055 265.434 211.831 265.196 211.151C264.102 208.106 261.908 205.582 259.247 203.517C261.454 204.448 263.51 205.445 265.425 206.491C266.061 208.896 266.718 211.31 267.879 213.512C268.649 215.046 269.686 216.432 270.942 217.603C271.414 218.022 273.356 219.5 274.15 218.984C275.099 218.362 274.41 216.133 274.15 215.454C273.267 212.96 269.472 209.452 267.469 207.612C269.56 208.936 273.603 211.619 275.231 212.877C276.375 214.704 277.715 216.399 279.229 217.934C280.444 219.147 281.865 220.135 283.426 220.851C284.013 221.124 286.321 221.919 286.912 221.177Z" fill="#FCEBFC"/>
<path d="M216.159 199.779C217.006 191.703 218.913 183.707 223.22 176.769C230.805 164.545 244.605 153.959 259.406 153.553C261.648 153.439 263.892 153.738 266.025 154.435C267.015 154.743 267.909 155.297 268.625 156.046C270.434 158.12 270.416 162.224 270.231 164.779C269.057 180.962 254.371 187.541 241.154 192.66C234.173 195.364 227.112 197.847 219.972 200.11" fill="#E28EDC"/>
<path d="M227.16 190.745C225.479 190.096 224.451 189.659 224.42 189.725C224.389 189.792 225.373 190.334 227.028 191.049C229.193 191.993 231.425 192.777 233.705 193.393C234.883 193.71 236.022 193.966 237.081 194.174L237.88 193.874C236.64 193.618 235.272 193.304 233.833 192.92C231.185 192.214 228.842 191.389 227.16 190.745Z" fill="#C472C2"/>
<path d="M254.486 177.431C252.504 176.738 250.646 176.006 248.974 175.3C247.301 174.593 245.819 173.892 244.587 173.278C243.965 172.983 243.413 172.691 242.928 172.444C242.443 172.197 242.019 171.981 241.679 171.8C241.238 171.575 240.933 171.416 240.757 171.359C241.136 171.054 241.511 170.75 241.882 170.476C243.263 169.452 244.561 168.451 245.854 167.621C246.489 167.18 247.089 166.765 247.694 166.39L249.459 165.326C250.554 164.62 251.608 164.086 252.509 163.561C252.95 163.309 253.391 163.067 253.775 162.864L254.861 162.317C255.556 162.011 256.223 161.646 256.855 161.227C256.127 161.446 255.419 161.725 254.737 162.061L253.616 162.546C253.215 162.736 252.787 162.961 252.319 163.195L251.405 163.636C251.6 163.27 251.886 162.687 252.257 161.933C252.906 160.609 253.81 158.782 254.878 156.8C255.47 155.702 256.048 154.673 256.573 153.751L256.008 153.826C255.509 154.66 254.975 155.591 254.446 156.566C253.374 158.561 252.509 160.423 251.939 161.791C251.564 162.674 251.313 163.371 251.198 163.742C250.562 164.064 249.874 164.413 249.194 164.836L247.429 165.869C246.811 166.231 246.198 166.659 245.549 167.074C244.225 167.89 242.902 168.879 241.511 169.898C241.225 170.114 240.942 170.339 240.655 170.564C240.717 170 240.797 169.17 240.898 168.151C241.101 166.125 241.428 163.332 241.926 160.269C242.023 159.669 242.12 159.091 242.226 158.504L241.675 158.821C241.595 159.263 241.516 159.704 241.441 160.176C241.013 162.807 240.718 165.459 240.558 168.12C240.496 169.143 240.47 169.969 240.47 170.538V170.71C237.86 172.775 235.382 175.002 233.052 177.378C232.377 178.08 231.728 178.79 231.092 179.501C231.062 179.059 230.969 178.287 230.859 177.268C230.678 175.644 230.457 173.398 230.32 170.909C230.258 169.836 230.223 168.817 230.197 167.859L229.755 168.345C229.755 169.165 229.795 170.035 229.844 170.935C229.958 173.071 230.186 175.2 230.528 177.312C230.713 178.428 230.881 179.231 230.969 179.629C229.139 181.689 227.414 183.841 225.801 186.076C225.073 187.148 224.358 188.177 223.723 189.165C223.657 188.697 223.484 187.797 223.281 186.579C222.973 184.77 222.615 182.254 222.399 179.465C222.372 179.055 222.346 178.653 222.324 178.261C222.174 178.525 222.028 178.799 221.883 179.068C221.883 179.214 221.883 179.355 221.913 179.509C222.092 181.912 222.436 184.299 222.942 186.654C223.126 187.548 223.357 188.432 223.635 189.302C223.454 189.598 223.273 189.889 223.105 190.184C222.712 190.846 222.306 191.473 221.962 192.1L220.996 193.913C220.351 195.061 219.879 196.151 219.429 197.091C219.213 197.563 218.988 198 218.824 198.415L218.383 199.549C218.069 200.241 217.813 200.958 217.62 201.694C218.019 201.047 218.363 200.368 218.648 199.664L219.155 198.56C219.35 198.159 219.597 197.735 219.813 197.272C220.294 196.354 220.797 195.286 221.463 194.183L222.474 192.417C222.827 191.8 223.242 191.186 223.648 190.538C224.433 189.214 225.413 187.89 226.375 186.482C227.884 184.426 229.592 182.281 231.494 180.141L232.134 180.502C232.747 180.842 233.652 181.306 234.782 181.848C237.732 183.262 240.751 184.528 243.828 185.639C246.75 186.694 249.481 187.523 251.714 188.124L252.231 187.868C249.954 187.197 247.081 186.292 243.996 185.18C240.404 183.878 237.218 182.532 234.927 181.535L232.218 180.33C231.953 180.211 231.737 180.123 231.573 180.052C232.213 179.337 232.875 178.618 233.559 177.908C235.816 175.606 238.203 173.435 240.708 171.407C240.854 171.518 241.15 171.716 241.591 171.99C241.917 172.193 242.323 172.431 242.8 172.709C243.277 172.987 243.819 173.296 244.433 173.592C245.646 174.249 247.129 174.973 248.797 175.719C250.465 176.465 252.328 177.202 254.331 177.899C256.335 178.596 258.259 179.148 260.028 179.602C261.118 179.876 262.142 180.11 263.091 180.304C263.197 180.198 263.303 180.083 263.409 179.973C262.407 179.743 261.312 179.479 260.143 179.165C258.391 178.684 256.48 178.111 254.486 177.431Z" fill="#C472C2"/>
<path d="M262.566 168.883C259.477 167.7 256.692 166.518 254.702 165.631C252.712 164.744 251.485 164.174 251.449 164.241C251.696 164.444 251.967 164.614 252.257 164.748C252.791 165.048 253.581 165.459 254.556 165.944C256.511 166.915 259.274 168.15 262.394 169.342C264.746 170.225 266.961 170.957 268.815 171.509L268.947 171.125C267.111 170.525 264.913 169.77 262.566 168.883Z" fill="#C472C2"/>
<path d="M112.15 197.002C111.736 194.788 111.748 192.514 112.185 190.304C108.654 189.315 105.177 188.128 101.594 187.404C98.3281 186.747 94.6565 186.08 91.3953 187.082C87.3222 188.353 85.4334 192.673 88.5799 196.089C84.1183 193.852 78.4521 193.918 74.3039 196.694C73.3694 197.284 72.5682 198.062 71.9518 198.979C69.1054 203.445 72.2739 206.733 76.2588 208.657C72.7801 209.842 69.6795 211.932 67.2754 214.711C64.8712 217.491 63.2501 220.86 62.5786 224.473C62.2212 226.539 62.2212 228.785 63.3068 230.576C65.0455 233.44 69.0039 234.16 72.2695 233.423C75.5351 232.686 78.4874 230.801 80.9101 228.471C83.3328 226.141 85.279 223.366 87.0883 220.528C86.7472 221.744 86.8167 223.038 87.2858 224.21C87.7549 225.382 88.5976 226.366 89.6831 227.011C93.2532 229.049 96.1922 226.671 97.8427 223.639C99.7877 220.067 101.145 216.205 101.863 212.201C103.006 214.434 106.492 214.478 108.482 213.503C111.13 212.218 112.569 208.397 113.279 205.784C113.473 205.074 113.637 204.359 113.791 203.64C113.765 203.595 113.734 203.56 113.707 203.516C112.626 201.519 112.089 199.273 112.15 197.002Z" fill="#8F78EA"/>
<path d="M105.274 197.369C105.226 196.928 105.186 196.632 105.155 196.487C107.333 195.464 109.566 194.564 111.845 193.79C111.845 193.593 111.845 193.395 111.845 193.194C109.51 193.92 107.222 194.791 104.996 195.803C104.872 195.719 104.705 195.622 104.506 195.502C103.99 195.198 103.24 194.779 102.3 194.271C100.429 193.252 97.8161 191.893 94.9036 190.45C92.9795 189.501 91.1658 188.636 89.608 187.903C89.4712 187.992 89.3388 188.089 89.2108 188.186L94.6962 190.9L102.15 194.585C103.403 195.198 104.356 195.648 104.855 195.869L104.414 196.072C100.935 197.7 97.5965 199.611 94.4314 201.787C93.3546 202.528 92.3161 203.281 91.3158 204.046L90.9451 203.975L87.9311 203.472C85.3892 203.062 81.8765 202.497 78.0019 201.835C75.5041 201.394 73.1476 200.997 71.1353 200.635C71.0912 200.776 71.0515 200.917 71.0162 201.054C73.0461 201.46 75.3982 201.901 77.918 202.329C81.797 202.991 85.323 203.499 87.8825 203.821C89.1623 203.984 90.1993 204.103 90.9187 204.17H91.1261C86.989 207.359 83.1138 210.874 79.5376 214.681C79.0345 214.624 78.1078 214.558 76.8898 214.509C74.9702 214.434 72.318 214.421 69.3878 214.549C68.6729 214.58 67.9712 214.619 67.3004 214.664C67.1504 214.837 67.0033 215.009 66.8591 215.18C67.6741 215.13 68.5228 215.086 69.4054 215.048C72.318 214.92 74.9613 214.88 76.8766 214.862C78.0019 214.862 78.8712 214.862 79.4008 214.831C79.1802 215.061 78.9595 215.273 78.7609 215.515C76.9472 217.475 75.5394 219.112 74.5951 220.264C74.0702 220.834 73.6003 221.454 73.1917 222.113C73.7726 221.603 74.314 221.05 74.8113 220.458C75.8263 219.363 77.287 217.784 79.1448 215.882C79.5199 215.493 79.9215 215.087 80.3319 214.677C80.2304 215.052 80.0363 216.199 79.7759 217.859C79.3876 220.467 79.0036 223.066 78.58 225.903C78.3284 227.642 78.0901 229.293 77.8607 230.917L78.3637 230.559C78.5932 229.16 78.8359 227.611 79.0742 225.974C79.5155 222.828 79.8995 219.972 80.1289 217.903C80.3319 216.089 80.429 214.88 80.407 214.602C83.9902 210.981 87.8243 207.617 91.8807 204.536C91.8807 204.708 91.8807 205.034 91.8807 205.502C91.9028 206.478 91.9204 207.475 91.9425 208.521C91.9778 211.067 91.9425 214.584 91.66 218.459C91.4085 221.883 91.0069 224.999 90.6362 227.413C90.7559 227.463 90.8781 227.508 91.0025 227.545C91.5484 224.552 91.9344 221.532 92.1587 218.498C92.4023 215.174 92.448 211.838 92.2955 208.507C92.2337 207.232 92.1543 206.2 92.0749 205.489C92.0219 204.982 91.9778 204.642 91.9425 204.487C92.8868 203.781 93.8533 203.08 94.8594 202.387C97.9929 200.235 101.287 198.327 104.714 196.681L105.106 196.495C105.071 196.848 105.106 198.102 105.106 199.951C105.137 202.157 105.142 205.18 105.036 208.525C104.97 210.502 104.872 212.36 104.767 214.006C104.912 214.006 105.062 214.046 105.208 214.055C105.345 212.404 105.464 210.524 105.53 208.543C105.64 205.185 105.574 202.14 105.455 199.942C105.402 198.87 105.327 197.983 105.274 197.369Z" fill="#6858C6"/>
<path d="M110.366 186.814C111.306 186.862 112.185 186.924 113.014 186.995C113.194 186.424 113.388 185.859 113.597 185.3C111.39 182.374 108.663 179.832 105.296 178.464C104.625 178.191 102.436 177.383 101.836 178.169C101.338 178.822 102.803 180.671 103.213 181.125C104.391 182.349 105.752 183.382 107.247 184.188C108.889 185.084 110.61 185.828 112.388 186.412C111.757 186.346 111.099 186.284 110.406 186.231C108.039 186.067 105.664 186.029 103.292 186.116C100.698 182.965 97.4453 180.234 93.5575 179.056C92.8646 178.844 90.614 178.235 90.0845 179.056C89.6432 179.753 91.2671 181.461 91.7173 181.875C92.9956 182.993 94.4416 183.903 96.0023 184.572C97.6352 185.278 99.3276 185.838 101.06 186.244C100.327 186.297 99.59 186.359 98.853 186.439C96.801 186.646 94.6695 186.995 92.4763 187.427C89.4402 184.647 85.8259 182.44 81.8057 181.809C81.0908 181.699 78.774 181.421 78.3724 182.321C78.037 183.076 79.8905 184.528 80.3936 184.876C81.8217 185.797 83.3852 186.488 85.0272 186.924C86.7814 187.395 88.5744 187.708 90.3845 187.859C88.6194 188.301 86.7924 188.791 84.9742 189.378C84.021 189.691 83.0899 190.026 82.172 190.37C78.1694 187.767 73.5844 185.728 68.8713 185.437C68.0461 185.388 65.3983 185.304 65.1379 186.258C64.9217 187.052 67.2959 188.376 67.9313 188.689C69.7202 189.505 71.6115 190.075 73.5535 190.384C75.9695 190.757 78.4125 190.927 80.8569 190.891C77.935 192.047 75.0939 193.397 72.3531 194.933C68.2976 192.67 63.792 191.077 59.3569 191.249C58.5582 191.28 55.9854 191.46 55.8266 192.515C55.703 193.398 58.1522 194.572 58.8009 194.841C60.601 195.527 62.4924 195.945 64.4142 196.081C66.4584 196.222 68.5111 196.183 70.5482 195.962C68.0732 197.446 65.6983 199.091 63.4389 200.887C59.2907 201.928 55.2396 203.464 52.7463 206.685C52.305 207.255 50.9414 209.152 51.6475 210.039C52.2388 210.78 54.5468 209.991 55.1293 209.748C56.6887 209.03 58.1093 208.042 59.326 206.831C60.832 205.296 62.164 203.6 63.2977 201.774C64.9305 200.516 68.9728 197.828 71.0645 196.509C69.0566 198.349 65.2571 201.857 64.3789 204.351C64.1406 205.035 63.4478 207.263 64.3789 207.881C65.1732 208.402 67.1149 206.919 67.5871 206.504C68.8426 205.333 69.8796 203.948 70.6497 202.413C71.8059 200.207 72.4679 197.798 73.1033 195.392C75.0318 194.347 77.1015 193.349 79.2815 192.418C76.6337 194.483 74.4272 197.008 73.3328 200.053C73.0857 200.732 72.3796 202.956 73.3328 203.583C74.1227 204.108 76.0733 202.639 76.5499 202.228C77.8129 201.064 78.8589 199.685 79.639 198.155C80.7907 196.006 81.4615 193.645 82.1014 191.288C83.1076 190.909 84.1358 190.538 85.1905 190.194C87.0969 189.576 88.9945 189.055 90.8567 188.61C87.6794 190.503 84.8242 193.023 83.1076 196.253C82.7678 196.897 81.7484 198.989 82.4677 199.664C83.0678 200.229 85.0493 198.958 85.5568 198.596C86.8955 197.549 88.0615 196.298 89.0121 194.889C90.4552 192.837 91.4878 190.534 92.5072 188.239C94.7137 187.798 96.8319 187.427 98.8839 187.198C99.9166 187.08 100.923 186.986 101.902 186.915C98.372 188.332 95.0138 190.445 92.7631 193.508C92.3218 194.095 91.0244 196.019 91.6378 196.791C92.1497 197.436 94.2856 196.465 94.8372 196.178C96.3177 195.335 97.6577 194.266 98.8089 193.009C100.574 191.156 101.933 188.989 103.292 186.831C105.883 186.694 108.262 186.717 110.366 186.814Z" fill="#FCEBFC"/>
<path d="M112.992 187.056C109.299 188.177 105.768 189.942 103.262 192.828C102.785 193.371 101.307 195.176 101.85 195.996C102.291 196.685 104.528 195.904 105.093 195.665C106.635 194.956 108.057 194.011 109.308 192.863C110.39 191.883 111.394 190.82 112.308 189.681C112.489 188.799 112.723 187.921 112.992 187.056Z" fill="#FCEBFC"/>
<path d="M116.302 179.316C116.639 178.569 117.207 177.952 117.922 177.554C118.638 177.157 119.462 177.001 120.274 177.109C119.18 173.07 117.519 169.207 115.34 165.635C107.754 153.411 93.9548 142.825 79.1537 142.419C76.9029 142.301 74.6497 142.6 72.5077 143.301C71.5195 143.611 70.6254 144.165 69.9085 144.912C68.1036 146.982 68.1168 151.09 68.3066 153.641C69.4804 169.828 84.1624 176.407 97.3837 181.526C102.529 183.521 107.72 185.392 112.957 187.14C113.831 184.435 114.95 181.816 116.302 179.316Z" fill="#E28EDC"/>
<path d="M111.404 179.603C113.081 178.958 114.109 178.521 114.144 178.588C114.179 178.654 113.191 179.192 111.532 179.912C109.367 180.856 107.135 181.64 104.855 182.255C103.677 182.573 102.542 182.829 101.483 183.036L100.685 182.736C101.925 182.48 103.293 182.167 104.727 181.783C106.988 181.169 109.216 180.441 111.404 179.603Z" fill="#C472C2"/>
<path d="M114.93 179.382C115.177 179.788 115.428 180.172 115.667 180.555C115.773 180.348 115.874 180.141 115.98 179.938C115.803 179.651 115.627 179.36 115.45 179.055C115.274 178.751 115.102 178.477 114.916 178.172C115.196 177.303 115.429 176.419 115.614 175.525C116.12 173.17 116.463 170.782 116.642 168.38C116.642 168.234 116.642 168.093 116.668 167.939C116.527 167.67 116.382 167.396 116.227 167.131C116.205 167.524 116.179 167.926 116.148 168.332C115.936 171.125 115.578 173.627 115.265 175.45C115.058 176.668 114.89 177.568 114.824 178.036C114.184 177.03 113.473 176.001 112.741 174.947C111.142 172.712 109.429 170.561 107.609 168.504C107.719 168.106 107.891 167.303 108.076 166.187C108.415 164.075 108.644 161.946 108.76 159.81C108.809 158.928 108.835 158.045 108.849 157.22L108.407 156.734C108.381 157.687 108.341 158.711 108.284 159.784C108.143 162.273 107.922 164.514 107.745 166.143C107.631 167.158 107.542 167.934 107.507 168.376C106.876 167.665 106.223 166.955 105.548 166.253C103.219 163.875 100.742 161.648 98.1295 159.585C98.1295 159.532 98.1295 159.475 98.1295 159.413C98.1295 158.844 98.103 158.014 98.0457 156.995C97.8855 154.334 97.5909 151.682 97.1631 149.051C97.088 148.61 97.0086 148.142 96.9292 147.696L96.3776 147.379C96.4791 147.952 96.5806 148.531 96.6776 149.144C97.1763 152.207 97.4985 155 97.7059 157.026C97.8074 158.045 97.8868 158.87 97.9486 159.439L97.0925 158.773C95.6847 157.754 94.3652 156.765 93.0546 155.949C92.4015 155.534 91.7881 155.106 91.1703 154.744L89.4051 153.711C88.7078 153.27 88.037 152.939 87.4016 152.617C87.2868 152.246 87.0353 151.567 86.6602 150.662C86.0865 149.294 85.226 147.436 84.1536 145.441C83.6197 144.457 83.0901 143.535 82.587 142.701L82.0266 142.626C82.5517 143.544 83.1254 144.572 83.7211 145.675C84.7847 147.657 85.6937 149.479 86.3425 150.808C86.7131 151.562 87 152.132 87.1942 152.511C86.8764 152.352 86.5675 152.198 86.2807 152.07C85.8129 151.836 85.3981 151.628 84.9788 151.421L83.8624 150.936C83.1793 150.599 82.4693 150.32 81.7397 150.102C82.3741 150.521 83.0429 150.885 83.7388 151.192L84.8244 151.734C85.2171 151.942 85.6364 152.176 86.0865 152.436C86.9912 152.944 88.0415 153.477 89.1403 154.201L90.8834 155.265C91.4924 155.64 92.0926 156.072 92.728 156.496C94.0166 157.326 95.3096 158.327 96.6997 159.351C97.0704 159.645 97.4455 159.94 97.825 160.234C97.6485 160.309 97.3352 160.463 96.8983 160.675C96.5585 160.856 96.1437 161.077 95.6538 161.319C95.164 161.562 94.6168 161.858 93.9946 162.153C92.7633 162.767 91.2762 163.455 89.6081 164.175C87.94 164.894 86.0777 165.613 84.0963 166.306C82.1148 166.999 80.1731 167.546 78.4079 168.023C77.2341 168.336 76.1441 168.601 75.1423 168.83C75.2482 168.941 75.3497 169.055 75.4601 169.161C76.4074 168.967 77.4282 168.733 78.5227 168.46C80.2879 168.018 82.2252 167.44 84.2198 166.756C86.2145 166.072 88.0812 165.309 89.7537 164.576C91.4262 163.844 92.9001 163.107 94.1181 162.449C94.7315 162.131 95.2699 161.818 95.7509 161.566C96.2319 161.315 96.6335 161.05 96.9601 160.847C97.4014 160.569 97.697 160.375 97.8427 160.265C100.352 162.296 102.743 164.47 105.005 166.774C105.689 167.484 106.329 168.204 106.991 168.918C106.823 168.989 106.611 169.077 106.346 169.196L103.637 170.401C101.355 171.407 98.1692 172.731 94.5815 174.029C91.4924 175.141 88.624 176.045 86.3469 176.716L86.8632 176.972C89.0917 176.372 91.8278 175.542 94.7492 174.488C97.8262 173.376 100.846 172.111 103.796 170.697C104.925 170.15 105.83 169.691 106.444 169.351C106.713 169.201 106.925 169.082 107.079 168.989C108.981 171.129 110.689 173.274 112.202 175.331C113.182 176.743 114.153 178.071 114.93 179.382Z" fill="#C472C2"/>
<path d="M75.9942 157.727C79.1053 156.549 81.8723 155.366 83.8625 154.479C85.8528 153.592 87.0796 153.023 87.1105 153.089C86.8673 153.294 86.5971 153.465 86.3073 153.597C85.7733 153.897 84.9834 154.307 84.0081 154.793C82.0488 155.763 79.2907 156.999 76.1707 158.186C73.8186 159.069 71.6033 159.806 69.7498 160.357C69.7013 160.229 69.6616 160.097 69.6174 159.973C71.4488 159.387 73.6509 158.632 75.9942 157.727Z" fill="#C472C2"/>
<path d="M224.248 172.568C250.063 172.568 270.99 151.641 270.99 125.826C270.99 100.011 250.063 79.084 224.248 79.084C198.433 79.084 177.506 100.011 177.506 125.826C177.506 151.641 198.433 172.568 224.248 172.568Z" fill="#BF47A9"/>
<path d="M227.75 161.691C247.568 159.758 262.067 142.126 260.134 122.308C258.202 102.49 240.569 87.9907 220.751 89.9234C200.933 91.8561 186.434 109.489 188.367 129.307C190.299 149.125 207.932 163.624 227.75 161.691Z" fill="#F3F7FA"/>
<path d="M224.243 101.025C224.099 101.025 223.956 100.996 223.822 100.94C223.689 100.884 223.568 100.803 223.466 100.699C223.365 100.596 223.285 100.474 223.231 100.34C223.178 100.206 223.151 100.062 223.153 99.9173V94.6217C223.153 94.3338 223.268 94.0577 223.471 93.8541C223.675 93.6505 223.951 93.5361 224.239 93.5361C224.527 93.5361 224.804 93.6504 225.008 93.8538C225.213 94.0573 225.328 94.3334 225.329 94.6217V99.9173C225.331 100.061 225.304 100.204 225.25 100.338C225.197 100.472 225.117 100.594 225.016 100.697C224.915 100.8 224.795 100.882 224.663 100.938C224.53 100.994 224.388 101.024 224.243 101.025Z" fill="#8F78EA"/>
<path d="M224.243 158.076C223.956 158.076 223.679 157.961 223.476 157.758C223.272 157.554 223.158 157.278 223.158 156.99V151.694C223.158 151.406 223.272 151.13 223.476 150.925C223.679 150.721 223.955 150.606 224.243 150.604C224.532 150.606 224.809 150.721 225.013 150.925C225.217 151.129 225.332 151.406 225.333 151.694V156.99C225.332 157.278 225.217 157.555 225.013 157.758C224.808 157.961 224.532 158.076 224.243 158.076Z" fill="#8F78EA"/>
<path d="M199.442 125.825C199.442 126.113 199.328 126.389 199.124 126.593C198.921 126.797 198.645 126.911 198.357 126.911H193.061C192.773 126.911 192.497 126.797 192.294 126.593C192.09 126.389 191.976 126.113 191.976 125.825C191.975 125.682 192.003 125.541 192.057 125.409C192.111 125.276 192.191 125.156 192.292 125.055C192.393 124.954 192.513 124.873 192.645 124.818C192.777 124.764 192.918 124.735 193.061 124.735H198.357C198.5 124.735 198.641 124.764 198.773 124.818C198.905 124.873 199.025 124.954 199.126 125.055C199.227 125.156 199.307 125.276 199.361 125.409C199.415 125.541 199.443 125.682 199.442 125.825Z" fill="#8F78EA"/>
<path d="M256.498 125.825C256.497 126.114 256.381 126.39 256.177 126.593C255.973 126.797 255.696 126.911 255.408 126.911H250.112C249.969 126.912 249.828 126.884 249.696 126.83C249.563 126.775 249.443 126.695 249.342 126.595C249.241 126.494 249.16 126.374 249.105 126.242C249.051 126.11 249.022 125.968 249.022 125.825C249.022 125.682 249.05 125.54 249.104 125.408C249.159 125.275 249.239 125.155 249.34 125.053C249.442 124.952 249.562 124.872 249.695 124.817C249.827 124.763 249.969 124.735 250.112 124.735H255.408C255.551 124.735 255.693 124.764 255.825 124.818C255.957 124.873 256.077 124.953 256.179 125.055C256.28 125.156 256.36 125.276 256.415 125.408C256.47 125.54 256.498 125.682 256.498 125.825Z" fill="#8F78EA"/>
<path d="M206.706 143.358C206.808 143.459 206.888 143.579 206.943 143.711C206.998 143.843 207.027 143.985 207.027 144.128C207.027 144.271 206.998 144.413 206.943 144.545C206.888 144.677 206.808 144.797 206.706 144.898L202.977 148.632C202.773 148.836 202.496 148.95 202.207 148.95C201.919 148.95 201.642 148.836 201.437 148.632C201.233 148.427 201.119 148.15 201.119 147.862C201.119 147.573 201.233 147.296 201.437 147.092L205.171 143.358C205.271 143.257 205.391 143.177 205.523 143.123C205.655 143.068 205.796 143.04 205.938 143.04C206.081 143.04 206.222 143.068 206.354 143.123C206.486 143.177 206.605 143.257 206.706 143.358Z" fill="#8F78EA"/>
<path d="M247.05 103.006C247.152 103.106 247.233 103.226 247.288 103.358C247.343 103.49 247.372 103.631 247.372 103.774C247.372 103.917 247.343 104.058 247.288 104.19C247.233 104.322 247.152 104.442 247.05 104.542L243.321 108.302C243.116 108.506 242.839 108.62 242.551 108.62C242.262 108.62 241.985 108.506 241.781 108.302C241.577 108.097 241.462 107.82 241.462 107.532C241.462 107.243 241.577 106.966 241.781 106.762L245.514 103.033C245.612 102.929 245.731 102.846 245.861 102.788C245.992 102.731 246.133 102.7 246.276 102.697C246.419 102.695 246.561 102.721 246.694 102.774C246.827 102.827 246.948 102.906 247.05 103.006Z" fill="#8F78EA"/>
<path d="M241.781 143.359C241.985 143.155 242.262 143.04 242.551 143.04C242.839 143.04 243.116 143.155 243.321 143.359L247.05 147.092C247.151 147.193 247.232 147.313 247.287 147.445C247.342 147.577 247.37 147.719 247.37 147.862C247.37 148.005 247.342 148.147 247.287 148.279C247.232 148.411 247.151 148.531 247.05 148.632C246.949 148.733 246.829 148.813 246.697 148.868C246.566 148.922 246.424 148.95 246.282 148.95C246.139 148.95 245.998 148.922 245.866 148.868C245.735 148.813 245.615 148.733 245.514 148.632L241.781 144.899C241.577 144.694 241.462 144.417 241.462 144.129C241.462 143.84 241.577 143.563 241.781 143.359Z" fill="#8F78EA"/>
<path d="M201.437 103.006C201.538 102.904 201.658 102.824 201.79 102.769C201.923 102.714 202.064 102.686 202.207 102.686C202.351 102.686 202.492 102.714 202.624 102.769C202.757 102.824 202.877 102.904 202.977 103.006L206.706 106.735C206.808 106.836 206.889 106.956 206.944 107.088C206.999 107.22 207.027 107.362 207.027 107.505C207.027 107.648 206.999 107.79 206.944 107.922C206.889 108.054 206.808 108.174 206.706 108.275C206.606 108.376 206.486 108.456 206.354 108.511C206.222 108.565 206.081 108.593 205.939 108.593C205.796 108.593 205.655 108.565 205.523 108.511C205.391 108.456 205.272 108.376 205.171 108.275L201.437 104.542C201.336 104.441 201.256 104.321 201.202 104.189C201.147 104.058 201.119 103.916 201.119 103.774C201.119 103.631 201.147 103.49 201.202 103.358C201.256 103.226 201.336 103.107 201.437 103.006Z" fill="#8F78EA"/>
<path d="M224.243 124.581C224.009 124.581 223.785 124.488 223.619 124.323C223.454 124.157 223.361 123.933 223.361 123.699V109.71C223.361 109.476 223.454 109.251 223.619 109.086C223.785 108.92 224.009 108.827 224.243 108.827C224.478 108.827 224.702 108.92 224.868 109.086C225.033 109.251 225.126 109.476 225.126 109.71V123.699C225.126 123.933 225.033 124.157 224.868 124.323C224.702 124.488 224.478 124.581 224.243 124.581Z" fill="#BF47A9"/>
<path d="M243.868 133.817C243.688 134.272 243.335 134.636 242.887 134.831C242.438 135.025 241.931 135.034 241.476 134.855L226.066 128.787C225.841 128.698 225.635 128.566 225.461 128.398C225.287 128.229 225.147 128.028 225.051 127.806C224.955 127.584 224.903 127.345 224.899 127.103C224.896 126.861 224.94 126.62 225.029 126.395C225.117 126.17 225.249 125.964 225.417 125.79C225.585 125.615 225.785 125.476 226.007 125.379C226.229 125.282 226.467 125.23 226.709 125.226C226.951 125.221 227.191 125.265 227.417 125.353L242.831 131.426C243.286 131.606 243.65 131.959 243.844 132.407C244.039 132.855 244.047 133.363 243.868 133.817Z" fill="#BF47A9"/>
<path d="M228.551 106.977C238.374 107.026 245.81 115.755 244.623 125.437C244.557 125.988 245.421 125.984 245.505 125.437C245.8 123.027 245.582 120.582 244.867 118.262C244.152 115.942 242.955 113.799 241.354 111.973C239.754 110.148 237.786 108.68 235.58 107.667C233.374 106.654 230.978 106.118 228.551 106.095C228.434 106.095 228.321 106.141 228.239 106.224C228.156 106.307 228.109 106.419 228.109 106.536C228.109 106.653 228.156 106.765 228.239 106.848C228.321 106.931 228.434 106.977 228.551 106.977Z" fill="#6D0892"/>
<path d="M241.405 123.351C241.767 124.577 242.21 125.779 242.729 126.947C243.096 127.768 243.563 129.184 244.556 129.458C245.474 129.71 245.84 128.439 246.176 127.83C246.857 126.58 247.415 125.266 247.84 123.907C248.012 123.373 247.178 123.148 247.005 123.677C246.72 124.564 246.382 125.433 245.995 126.281C245.84 126.616 244.909 128.778 244.499 128.421C243.934 127.927 243.616 126.801 243.307 126.131C242.88 125.152 242.518 124.147 242.222 123.121C242.176 123.03 242.1 122.958 242.007 122.917C241.914 122.875 241.809 122.868 241.711 122.895C241.613 122.922 241.527 122.982 241.468 123.065C241.409 123.148 241.381 123.249 241.388 123.351H241.405Z" fill="#6D0892"/>
<path d="M228.524 125.826C228.524 124.979 228.273 124.151 227.803 123.447C227.332 122.743 226.664 122.195 225.882 121.871C225.099 121.547 224.239 121.462 223.408 121.627C222.578 121.792 221.815 122.2 221.217 122.799C220.618 123.397 220.21 124.16 220.045 124.99C219.88 125.821 219.965 126.681 220.289 127.464C220.613 128.246 221.161 128.914 221.865 129.385C222.569 129.855 223.397 130.106 224.243 130.106C225.379 130.106 226.468 129.655 227.27 128.852C228.073 128.05 228.524 126.961 228.524 125.826Z" fill="#6D0892"/>
<path d="M154.88 80.4072H87.8033C84.3619 80.4072 81.5721 83.197 81.5721 86.6383V170.564C81.5721 174.006 84.3619 176.795 87.8033 176.795H154.88C158.322 176.795 161.112 174.006 161.112 170.564V86.6383C161.112 83.197 158.322 80.4072 154.88 80.4072Z" fill="#F3F7FA"/>
<path d="M150.984 87.2256H91.6999C89.5454 87.2256 87.7988 88.9722 87.7988 91.1267V166.072C87.7988 168.227 89.5454 169.973 91.6999 169.973H150.984C153.138 169.973 154.885 168.227 154.885 166.072V91.1267C154.885 88.9722 153.138 87.2256 150.984 87.2256Z" fill="#F2D1F0"/>
<path d="M154.977 166.073V141.664C153.742 140.054 151.496 139.378 149.426 139.074C142.537 138.063 135.529 139.427 128.575 139.162C127.083 139.105 125.538 138.955 124.254 138.196C122.97 137.437 122.048 135.91 122.396 134.467L121.479 136.828L120.565 134.467C120.927 135.91 119.987 137.437 118.703 138.196C117.419 138.955 115.874 139.105 114.387 139.162C107.432 139.427 100.42 138.063 93.5311 139.074C91.4129 139.383 89.1182 140.089 87.8914 141.788V166.059C87.8914 167.094 88.3024 168.086 89.034 168.818C89.7655 169.549 90.7578 169.96 91.7924 169.96H151.076C152.109 169.96 153.099 169.551 153.83 168.822C154.561 168.094 154.974 167.105 154.977 166.073Z" fill="#E85DBA"/>
<path d="M123.638 163.536C129.068 162.268 132.441 156.837 131.173 151.407C129.904 145.977 124.474 142.603 119.043 143.872C113.613 145.141 110.24 150.571 111.508 156.001C112.777 161.431 118.207 164.805 123.638 163.536Z" fill="#BF47A9"/>
<path d="M118.888 158.491C118.752 158.491 118.617 158.464 118.491 158.412C118.365 158.359 118.251 158.283 118.155 158.187C118.059 158.09 117.982 157.976 117.93 157.85C117.878 157.725 117.851 157.59 117.851 157.453V150.927C117.851 150.652 117.96 150.388 118.155 150.193C118.349 149.999 118.613 149.89 118.888 149.89C119.163 149.89 119.427 149.999 119.621 150.193C119.816 150.388 119.925 150.652 119.925 150.927V157.453C119.925 157.59 119.898 157.725 119.846 157.85C119.794 157.976 119.718 158.09 119.621 158.187C119.525 158.283 119.411 158.359 119.285 158.412C119.159 158.464 119.024 158.491 118.888 158.491Z" fill="#E54885"/>
<path d="M123.791 158.491C123.655 158.491 123.52 158.464 123.394 158.412C123.268 158.359 123.154 158.283 123.058 158.187C122.961 158.09 122.885 157.976 122.833 157.85C122.781 157.725 122.754 157.59 122.754 157.453V150.927C122.754 150.652 122.863 150.388 123.058 150.193C123.252 149.999 123.516 149.89 123.791 149.89C124.066 149.89 124.33 149.999 124.524 150.193C124.719 150.388 124.828 150.652 124.828 150.927V157.453C124.828 157.59 124.801 157.725 124.749 157.85C124.697 157.976 124.62 158.09 124.524 158.187C124.428 158.283 124.314 158.359 124.188 158.412C124.062 158.464 123.927 158.491 123.791 158.491Z" fill="#E54885"/>
<path d="M102.3 115.394C101.241 113.664 98.1868 112.746 96.3996 113.84C96.0319 114.066 95.7161 114.367 95.4729 114.723C95.1575 115.221 94.9865 115.797 94.9786 116.387C94.9602 116.966 95.0587 117.543 95.2681 118.084C95.4776 118.625 95.7937 119.118 96.1977 119.533C96.6016 119.949 97.0852 120.28 97.6195 120.505C98.1538 120.73 98.7279 120.845 99.3077 120.844C99.864 120.858 100.416 120.742 100.92 120.506C101.424 120.271 101.866 119.921 102.211 119.484C102.481 119.111 102.671 118.686 102.768 118.236C102.984 117.263 102.817 116.245 102.3 115.394Z" fill="#F3F7FA"/>
<path d="M140.088 115.394C141.151 113.664 144.201 112.746 145.988 113.84C146.357 114.066 146.674 114.367 146.919 114.723C147.231 115.222 147.401 115.798 147.409 116.387C147.427 116.966 147.329 117.543 147.12 118.083C146.911 118.623 146.595 119.116 146.192 119.532C145.788 119.948 145.305 120.278 144.771 120.504C144.237 120.729 143.664 120.845 143.084 120.844C142.527 120.858 141.975 120.742 141.47 120.507C140.966 120.271 140.523 119.921 140.176 119.484C139.908 119.11 139.719 118.685 139.62 118.236C139.403 117.263 139.571 116.245 140.088 115.394Z" fill="#F3F7FA"/>
<path d="M151.059 108.602C149.929 105.588 147.144 103.491 144.196 102.423C142.652 101.863 140.975 101.823 139.373 101.356C138.271 101.094 137.194 100.735 136.156 100.283C135.238 99.8419 134.506 99.0784 133.667 98.4606C130.19 95.8967 126.081 94.2418 121.695 94.2021C116.929 94.158 112.767 95.6672 108.981 98.4606C108.138 99.0784 107.41 99.8198 106.488 100.283C105.449 100.736 104.373 101.095 103.27 101.356C101.673 101.823 99.9917 101.863 98.4471 102.423C95.4993 103.491 92.7102 105.588 91.5894 108.602C90.9538 110.267 90.8702 112.093 91.3511 113.809C91.6379 114.749 92.3881 115.358 93.0633 116.015C93.4299 116.33 93.7403 116.704 93.9812 117.123C94.2239 117.613 94.268 118.191 94.6431 118.624C94.8025 118.829 95.0291 118.971 95.283 119.025C95.8479 119.109 96.1259 118.584 96.1656 118.107C96.1894 117.753 96.1318 117.397 95.9972 117.068C95.8626 116.739 95.6545 116.446 95.3889 116.21C95.8141 116.665 96.3584 116.992 96.9599 117.154C97.2615 117.226 97.579 117.186 97.8533 117.042C98.1277 116.897 98.3402 116.658 98.4515 116.368C98.4904 116.159 98.4761 115.944 98.4097 115.742C98.3434 115.54 98.2273 115.358 98.072 115.212C97.7685 114.923 97.4158 114.69 97.0305 114.524C97.6484 114.864 98.6766 114.837 99.1223 114.215C100.098 112.851 97.7499 112.715 97.11 112.339C95.7861 111.567 96.7525 109.405 97.4851 108.615C98.4924 107.599 99.7593 106.878 101.148 106.532C103.676 105.848 106.607 105.371 108.65 107.392C110.247 108.972 109.409 111.395 109.122 113.31C108.553 117.128 110.649 121.514 113.014 124.449C114.038 125.72 115.291 126.889 115.777 128.447C116.139 129.599 116.033 130.839 116.218 132.035C116.385 133.321 116.961 134.52 117.86 135.455C118.759 136.39 119.935 137.012 121.214 137.229C123.981 137.718 126.094 134.488 126.452 132.039C126.628 130.843 126.527 129.603 126.893 128.451C127.379 126.893 128.632 125.724 129.656 124.453C132.021 121.518 134.117 117.132 133.548 113.315C133.265 111.399 132.423 108.977 134.025 107.397C136.063 105.376 138.998 105.852 141.527 106.536C142.915 106.882 144.182 107.603 145.189 108.619C145.922 109.409 146.866 111.572 145.564 112.344C144.925 112.719 142.577 112.856 143.552 114.219C143.993 114.842 145.03 114.868 145.648 114.528C145.261 114.692 144.906 114.926 144.602 115.217C144.448 115.362 144.333 115.545 144.267 115.747C144.202 115.949 144.188 116.164 144.227 116.373C144.339 116.662 144.551 116.901 144.825 117.046C145.1 117.19 145.417 117.23 145.719 117.158C146.32 116.997 146.863 116.67 147.285 116.214C147.02 116.45 146.812 116.744 146.677 117.073C146.543 117.402 146.485 117.757 146.509 118.112C146.544 118.579 146.822 119.113 147.391 119.03C147.645 118.975 147.872 118.833 148.031 118.628C148.411 118.187 148.451 117.617 148.693 117.128C148.935 116.71 149.246 116.335 149.611 116.02C150.291 115.358 151.037 114.749 151.323 113.813C151.795 112.092 151.702 110.266 151.059 108.602Z" fill="#E79FE1"/>
<g style="mix-blend-mode:multiply">
<path d="M130.013 114.634C130.062 113.499 130.286 112.378 130.675 111.311C131.116 109.859 131.62 108.575 131.5 107.039C131.398 105.637 130.97 104.277 130.252 103.068C128.619 100.38 124.784 99.736 121.342 99.9037C117.9 99.736 114.065 100.38 112.428 103.068C111.709 104.277 111.281 105.637 111.179 107.039C111.06 108.575 111.558 109.859 112.008 111.311C112.394 112.379 112.616 113.5 112.666 114.634C112.666 115.517 112.454 116.342 112.419 117.203C112.335 119.237 114.157 121.024 115.596 122.286C116.479 123.045 117.397 123.756 118.028 124.718C119.93 127.608 119.007 131.576 119.409 134.841C119.482 135.507 119.612 136.165 119.797 136.809C120.246 137.01 120.717 137.158 121.201 137.251C121.732 137.345 122.279 137.301 122.789 137.123C123.03 136.389 123.191 135.631 123.27 134.863C123.672 131.598 122.749 127.63 124.651 124.74C125.283 123.778 126.218 123.067 127.083 122.308C128.522 121.046 130.349 119.259 130.26 117.225C130.225 116.342 130.04 115.495 130.013 114.634Z" fill="#E79FE1"/>
</g>
<g style="mix-blend-mode:multiply">
<path d="M131.5 107.039C131.398 105.637 130.97 104.277 130.252 103.068C128.619 100.38 124.784 99.736 121.342 99.9037C117.9 99.736 114.065 100.38 112.428 103.068C111.709 104.277 111.281 105.637 111.179 107.039C111.06 108.575 111.558 109.859 112.008 111.311C112.394 112.379 112.616 113.5 112.666 114.634C112.666 115.517 112.454 116.342 112.419 117.203C112.335 119.237 114.157 121.024 115.596 122.286C116.479 123.045 117.397 123.756 118.028 124.718C118.067 124.775 118.098 124.837 118.134 124.899C120.237 125.26 122.385 125.288 124.497 124.983C124.55 124.894 124.594 124.802 124.651 124.718C125.283 123.756 126.218 123.045 127.083 122.286C128.522 121.024 130.349 119.237 130.26 117.203C130.225 116.342 130.022 115.495 130.013 114.634C130.062 113.499 130.286 112.378 130.675 111.311C131.121 109.859 131.62 108.575 131.5 107.039Z" fill="#E79FE1"/>
</g>
<g style="mix-blend-mode:color-burn" opacity="0.21">
<path d="M132.542 141.046C127.917 140.331 123.182 139.691 119.007 137.577C111.382 133.712 106.876 125.534 104.445 117.339C102.013 109.145 101.21 100.517 98.5356 92.3973C97.1674 88.0635 95.0462 84.0047 92.2692 80.4072H87.8033C86.1507 80.4072 84.5658 81.0637 83.3972 82.2323C82.2286 83.4008 81.5721 84.9858 81.5721 86.6383V170.56C81.5721 172.213 82.2285 173.798 83.3969 174.967C84.5654 176.137 86.1503 176.794 87.8033 176.795H154.88C156.534 176.795 158.12 176.138 159.29 174.969C160.459 173.8 161.116 172.214 161.116 170.56V148.111C151.994 144.545 142.251 142.546 132.542 141.046Z" fill="#5B6878"/>
</g>
<path d="M160.869 102.944C172.999 102.944 182.832 93.111 182.832 80.9809C182.832 68.8509 172.999 59.0176 160.869 59.0176C148.739 59.0176 138.905 68.8509 138.905 80.9809C138.905 93.111 148.739 102.944 160.869 102.944Z" fill="#BF47A9"/>
<path d="M174.068 70.2969H147.674C146.68 70.2969 145.873 71.103 145.873 72.0974V90.6936C145.873 91.688 146.68 92.4941 147.674 92.4941H174.068C175.062 92.4941 175.868 91.688 175.868 90.6936V72.0974C175.868 71.103 175.062 70.2969 174.068 70.2969Z" fill="#F3F7FA"/>
<path d="M153.601 84.1299V83.219L157.022 79.4745C157.423 79.036 157.754 78.6548 158.013 78.3309C158.273 78.0037 158.465 77.6967 158.59 77.41C158.718 77.1198 158.782 76.8162 158.782 76.4991C158.782 76.1348 158.695 75.8194 158.519 75.5529C158.347 75.2864 158.111 75.0806 157.811 74.9355C157.511 74.7905 157.173 74.7179 156.799 74.7179C156.401 74.7179 156.053 74.8006 155.756 74.9659C155.463 75.1278 155.235 75.3555 155.073 75.649C154.915 75.9425 154.836 76.2866 154.836 76.6813H153.641C153.641 76.0741 153.781 75.5411 154.061 75.0823C154.341 74.6235 154.723 74.2659 155.205 74.0095C155.691 73.7531 156.236 73.6249 156.839 73.6249C157.447 73.6249 157.985 73.7531 158.454 74.0095C158.922 74.2659 159.29 74.6117 159.557 75.0468C159.823 75.482 159.956 75.9661 159.956 76.4991C159.956 76.8803 159.887 77.2531 159.749 77.6174C159.614 77.9784 159.378 78.3815 159.041 78.8268C158.707 79.2687 158.243 79.8085 157.649 80.4461L155.321 82.9357V83.0166H160.139V84.1299H153.601ZM165.872 73.7666V84.1299H164.617V75.0823H164.556L162.026 76.7622V75.4871L164.617 73.7666H165.872Z" fill="#6D0892"/>
<path d="M152.664 88.3438V86.3098H152.966V86.6276H152.992C153.035 86.519 153.103 86.4347 153.198 86.3747C153.292 86.3137 153.406 86.2833 153.538 86.2833C153.672 86.2833 153.784 86.3137 153.873 86.3747C153.963 86.4347 154.033 86.519 154.084 86.6276H154.105C154.157 86.5225 154.235 86.4391 154.339 86.3773C154.443 86.3146 154.568 86.2833 154.714 86.2833C154.896 86.2833 155.045 86.3402 155.16 86.4541C155.276 86.5671 155.334 86.7432 155.334 86.9825V88.3438H155.021V86.9825C155.021 86.8324 154.98 86.7251 154.898 86.6607C154.816 86.5962 154.719 86.564 154.608 86.564C154.465 86.564 154.354 86.6073 154.276 86.6938C154.197 86.7794 154.158 86.888 154.158 87.0195V88.3438H153.84V86.9507C153.84 86.835 153.802 86.7419 153.727 86.6713C153.652 86.5998 153.556 86.564 153.437 86.564C153.356 86.564 153.28 86.5856 153.21 86.6289C153.14 86.6722 153.083 86.7322 153.04 86.809C152.998 86.8849 152.977 86.9728 152.977 87.0725V88.3438H152.664ZM156.731 88.3861C156.548 88.3861 156.387 88.3424 156.248 88.255C156.11 88.1676 156.003 88.0454 155.925 87.8882C155.848 87.7311 155.81 87.5475 155.81 87.3374C155.81 87.1255 155.848 86.9405 155.925 86.7825C156.003 86.6245 156.11 86.5018 156.248 86.4144C156.387 86.327 156.548 86.2833 156.731 86.2833C156.915 86.2833 157.076 86.327 157.213 86.4144C157.352 86.5018 157.46 86.6245 157.536 86.7825C157.614 86.9405 157.653 87.1255 157.653 87.3374C157.653 87.5475 157.614 87.7311 157.536 87.8882C157.46 88.0454 157.352 88.1676 157.213 88.255C157.076 88.3424 156.915 88.3861 156.731 88.3861ZM156.731 88.1054C156.871 88.1054 156.986 88.0696 157.076 87.9981C157.166 87.9266 157.232 87.8326 157.276 87.7161C157.319 87.5995 157.341 87.4733 157.341 87.3374C157.341 87.2014 157.319 87.0747 157.276 86.9573C157.232 86.8399 157.166 86.745 157.076 86.6726C156.986 86.6002 156.871 86.564 156.731 86.564C156.592 86.564 156.477 86.6002 156.387 86.6726C156.297 86.745 156.23 86.8399 156.187 86.9573C156.144 87.0747 156.122 87.2014 156.122 87.3374C156.122 87.4733 156.144 87.5995 156.187 87.7161C156.23 87.8326 156.297 87.9266 156.387 87.9981C156.477 88.0696 156.592 88.1054 156.731 88.1054ZM158.443 87.1202V88.3438H158.13V86.3098H158.432V86.6276H158.458C158.506 86.5243 158.579 86.4413 158.676 86.3786C158.773 86.3151 158.898 86.2833 159.052 86.2833C159.189 86.2833 159.31 86.3115 159.413 86.368C159.517 86.4237 159.597 86.5084 159.654 86.6223C159.712 86.7353 159.74 86.8783 159.74 87.0513V88.3438H159.428V87.0725C159.428 86.9127 159.386 86.7883 159.303 86.6991C159.22 86.609 159.106 86.564 158.962 86.564C158.862 86.564 158.773 86.5856 158.694 86.6289C158.616 86.6722 158.555 86.7353 158.51 86.8183C158.465 86.9012 158.443 87.0019 158.443 87.1202ZM161.196 86.3098V86.5746H160.142V86.3098H161.196ZM160.449 85.8225H160.762V87.7611C160.762 87.8494 160.774 87.9156 160.8 87.9597C160.826 88.003 160.86 88.0321 160.901 88.0471C160.942 88.0613 160.986 88.0683 161.032 88.0683C161.066 88.0683 161.094 88.0665 161.116 88.063C161.139 88.0586 161.156 88.0551 161.169 88.0524L161.233 88.3332C161.212 88.3411 161.182 88.349 161.144 88.357C161.106 88.3658 161.058 88.3702 161 88.3702C160.912 88.3702 160.825 88.3513 160.74 88.3133C160.657 88.2753 160.587 88.2175 160.531 88.1398C160.476 88.0621 160.449 87.9641 160.449 87.8458V85.8225ZM162.022 87.1202V88.3438H161.71V85.6318H162.022V86.6276H162.049C162.096 86.5225 162.168 86.4391 162.263 86.3773C162.359 86.3146 162.487 86.2833 162.647 86.2833C162.786 86.2833 162.907 86.3111 163.011 86.3667C163.116 86.4214 163.196 86.5058 163.254 86.6196C163.312 86.7326 163.341 86.8765 163.341 87.0513V88.3438H163.029V87.0725C163.029 86.911 162.987 86.786 162.903 86.6978C162.82 86.6086 162.705 86.564 162.557 86.564C162.455 86.564 162.363 86.5856 162.282 86.6289C162.201 86.6722 162.138 86.7353 162.091 86.8183C162.045 86.9012 162.022 87.0019 162.022 87.1202Z" fill="#BF47A9"/>
<path d="M149.898 72.1778C149.733 72.1778 149.574 72.1123 149.457 71.9958C149.339 71.8792 149.273 71.721 149.272 71.5555V68.9386C149.273 68.7732 149.339 68.6149 149.457 68.4984C149.574 68.3818 149.733 68.3164 149.898 68.3164C150.063 68.3176 150.221 68.3835 150.337 68.4999C150.453 68.6164 150.519 68.774 150.52 68.9386V71.5555C150.52 71.6372 150.504 71.7182 150.473 71.7936C150.442 71.8691 150.396 71.9377 150.338 71.9955C150.28 72.0533 150.212 72.0991 150.136 72.1304C150.061 72.1617 149.98 72.1778 149.898 72.1778Z" fill="#BF47A9"/>
<path d="M154.276 72.1778C154.194 72.1778 154.113 72.1617 154.038 72.1304C153.962 72.0991 153.893 72.0533 153.836 71.9955C153.778 71.9377 153.732 71.8691 153.701 71.7936C153.67 71.7182 153.653 71.6372 153.653 71.5555V68.9386C153.653 68.8569 153.67 68.776 153.701 68.7005C153.732 68.625 153.778 68.5564 153.836 68.4987C153.893 68.4409 153.962 68.395 154.038 68.3638C154.113 68.3325 154.194 68.3164 154.276 68.3164C154.441 68.3164 154.599 68.382 154.716 68.4987C154.832 68.6153 154.898 68.7736 154.898 68.9386V71.5555C154.898 71.6372 154.882 71.7182 154.851 71.7936C154.819 71.8691 154.773 71.9377 154.716 71.9955C154.658 72.0533 154.589 72.0991 154.514 72.1304C154.438 72.1617 154.357 72.1778 154.276 72.1778Z" fill="#BF47A9"/>
<path d="M158.671 72.1778C158.506 72.1778 158.348 72.1122 158.231 71.9955C158.114 71.8788 158.049 71.7206 158.049 71.5555V68.9386C158.049 68.7736 158.114 68.6153 158.231 68.4987C158.348 68.382 158.506 68.3164 158.671 68.3164C158.836 68.3164 158.994 68.382 159.111 68.4987C159.228 68.6153 159.293 68.7736 159.293 68.9386V71.5555C159.293 71.6372 159.277 71.7182 159.246 71.7936C159.215 71.8691 159.169 71.9377 159.111 71.9955C159.053 72.0533 158.985 72.0991 158.909 72.1304C158.834 72.1617 158.753 72.1778 158.671 72.1778Z" fill="#BF47A9"/>
<path d="M163.066 72.1778C162.985 72.1778 162.904 72.1617 162.828 72.1304C162.753 72.0991 162.684 72.0533 162.626 71.9955C162.569 71.9377 162.523 71.8691 162.492 71.7936C162.46 71.7182 162.444 71.6372 162.444 71.5555V68.9386C162.444 68.8569 162.46 68.776 162.492 68.7005C162.523 68.625 162.569 68.5564 162.626 68.4987C162.684 68.4409 162.753 68.395 162.828 68.3638C162.904 68.3325 162.985 68.3164 163.066 68.3164C163.231 68.3164 163.39 68.382 163.506 68.4987C163.623 68.6153 163.689 68.7736 163.689 68.9386V71.5555C163.689 71.6372 163.673 71.7182 163.641 71.7936C163.61 71.8691 163.564 71.9377 163.506 71.9955C163.449 72.0533 163.38 72.0991 163.305 72.1304C163.229 72.1617 163.148 72.1778 163.066 72.1778Z" fill="#BF47A9"/>
<path d="M167.462 72.1778C167.38 72.1778 167.299 72.1617 167.224 72.1304C167.148 72.0991 167.08 72.0533 167.022 71.9955C166.964 71.9377 166.918 71.8691 166.887 71.7936C166.856 71.7182 166.84 71.6372 166.84 71.5555V68.9386C166.84 68.8569 166.856 68.776 166.887 68.7005C166.918 68.625 166.964 68.5564 167.022 68.4987C167.08 68.4409 167.148 68.395 167.224 68.3638C167.299 68.3325 167.38 68.3164 167.462 68.3164C167.544 68.3164 167.624 68.3325 167.7 68.3638C167.775 68.395 167.844 68.4409 167.902 68.4987C167.96 68.5564 168.005 68.625 168.037 68.7005C168.068 68.776 168.084 68.8569 168.084 68.9386V71.5555C168.084 71.6372 168.068 71.7182 168.037 71.7936C168.005 71.8691 167.96 71.9377 167.902 71.9955C167.844 72.0533 167.775 72.0991 167.7 72.1304C167.624 72.1617 167.544 72.1778 167.462 72.1778Z" fill="#BF47A9"/>
<path d="M171.862 72.1778C171.696 72.1778 171.537 72.1123 171.42 71.9958C171.303 71.8792 171.236 71.721 171.235 71.5555V68.9386C171.236 68.7732 171.303 68.6149 171.42 68.4984C171.537 68.3818 171.696 68.3164 171.862 68.3164C172.026 68.3176 172.184 68.3835 172.3 68.4999C172.417 68.6164 172.483 68.774 172.484 68.9386V71.5555C172.484 71.6372 172.468 71.7182 172.436 71.7936C172.405 71.8691 172.359 71.9377 172.302 71.9955C172.244 72.0533 172.175 72.0991 172.1 72.1304C172.024 72.1617 171.943 72.1778 171.862 72.1778Z" fill="#BF47A9"/>
<g style="mix-blend-mode:color-burn" opacity="0.21">
<path d="M182.519 84.6881C176.239 83.5187 169.549 84.5072 163.071 84.8117C159.54 84.975 155.763 84.847 152.921 82.7861C151.553 81.7478 150.434 80.4164 149.647 78.8895C147.44 74.8428 146.902 70.0194 147.515 65.4475C147.612 64.7194 147.74 63.9957 147.89 63.2764C144.992 65.4043 142.66 68.2112 141.1 71.4508C139.54 74.6903 138.799 78.2633 138.942 81.8561C139.086 85.4488 140.109 88.9515 141.922 92.0564C143.735 95.1614 146.283 97.7737 149.342 99.664C152.4 101.554 155.876 102.665 159.464 102.898C163.053 103.131 166.643 102.479 169.92 101.001C173.198 99.5222 176.062 97.2615 178.262 94.4172C180.462 91.573 181.93 88.2321 182.536 84.6881H182.519Z" fill="#5B6878"/>
</g>
<path d="M99.4093 220.33L104.555 224.09C103.099 226.129 101.62 228.181 100.12 230.171C99.8017 230.544 99.5633 230.979 99.4192 231.448C99.2751 231.917 99.2284 232.41 99.2819 232.898C99.3354 233.386 99.4879 233.857 99.7302 234.284C99.9725 234.711 100.299 235.083 100.691 235.379C101.082 235.675 101.53 235.887 102.007 236.004C102.483 236.12 102.979 236.138 103.462 236.056C103.946 235.974 104.408 235.794 104.82 235.527C105.232 235.261 105.584 234.912 105.857 234.504C107.388 232.474 108.888 230.396 110.358 228.326L115.512 232.09C116.284 232.627 117.235 232.84 118.162 232.684C119.089 232.529 119.919 232.017 120.473 231.258C121.028 230.5 121.264 229.554 121.131 228.624C120.999 227.693 120.507 226.852 119.762 226.279L114.533 222.457C115.857 220.59 117.22 218.728 118.597 216.897C124.494 221.013 131.736 222.73 138.854 221.699C145.971 220.667 152.428 216.965 156.913 211.343C161.398 205.722 163.575 198.603 163 191.435C162.426 184.266 159.143 177.586 153.82 172.75C148.497 167.915 141.532 165.288 134.342 165.403C127.151 165.518 120.274 168.367 115.109 173.37C109.943 178.374 106.876 185.156 106.531 192.339C106.187 199.522 108.59 206.567 113.253 212.042C111.704 214.085 110.195 216.16 108.716 218.22L103.646 214.518C103.265 214.225 102.83 214.012 102.365 213.89C101.901 213.768 101.417 213.74 100.941 213.808C100.466 213.876 100.009 214.038 99.597 214.285C99.1853 214.532 98.8271 214.859 98.5437 215.247C98.2602 215.635 98.0572 216.075 97.9465 216.542C97.8358 217.01 97.8197 217.494 97.8991 217.968C97.9785 218.442 98.1519 218.895 98.409 219.3C98.6661 219.706 99.0017 220.056 99.3961 220.33H99.4093ZM134.784 214.818C130.623 214.818 126.556 213.584 123.096 211.272C119.636 208.961 116.94 205.675 115.348 201.831C113.756 197.987 113.34 193.757 114.152 189.676C114.964 185.595 116.968 181.847 119.91 178.905C122.853 175.963 126.601 173.96 130.682 173.148C134.763 172.337 138.993 172.754 142.837 174.347C146.681 175.94 149.966 178.637 152.277 182.097C154.588 185.557 155.821 189.625 155.82 193.786C155.815 199.363 153.596 204.71 149.652 208.653C145.708 212.596 140.361 214.813 134.784 214.818Z" fill="#7D65B7"/>
<path d="M130.344 203.101C130.388 203.3 139.929 202.28 140.825 202.218C142.021 202.117 144.925 202.413 145.887 201.702C146.686 201.115 146.328 199.871 147.427 199.363C148.221 199.085 149.076 199.032 149.898 199.209C155.772 199.968 161.504 201.618 167.387 202.342C173.269 203.066 179.509 202.783 184.69 199.902C187.581 198.3 189.986 195.978 192.377 193.697C194.769 191.415 197.21 189.116 200.131 187.581C203.052 186.045 206.574 185.339 209.698 186.411C212.823 187.483 215.325 190.643 214.959 193.913L235.069 192.704C234.427 189.574 234.2 186.374 234.393 183.185C235.478 185.172 236.325 187.28 236.918 189.465C240.541 189.159 244.13 188.539 247.646 187.611C247.5 185.039 247.169 181.853 245.973 179.549C244.883 177.444 242.813 175.688 240.444 175.621C238.542 175.564 236.472 176.539 234.835 175.573C234.106 175.067 233.534 174.367 233.184 173.552C231.587 170.427 231.807 167.029 229.093 164.545C227.024 162.652 224.239 161.659 222.222 159.691C216.971 154.616 220.17 147.043 216.402 141.509C215.003 139.461 212.708 138.217 211.031 136.394C208.088 133.199 207.395 128.72 207.117 124.554C206.826 120.133 206.044 116.245 203.295 112.56C201.446 110.115 197.302 107.264 194.363 106.492C193.013 106.13 191.627 105.883 190.268 105.57C186.473 104.687 182.413 105.61 178.525 105.883C174.913 106.066 171.322 106.556 167.793 107.348C160.653 109.113 155.264 114.996 155.242 122.666C155.242 128.76 157.634 138.394 150.692 141.827C149.108 142.608 147.303 142.882 145.759 143.738C142.44 145.587 140.401 149.514 140.335 153.252C140.278 156.579 141.589 161.089 139.585 164.121C138.632 165.569 136.937 166.27 135.34 166.976C132.886 168.075 130.485 169.421 128.72 171.447C125.631 174.977 125.578 178.838 125.918 183.476C126.064 185.467 126.192 187.889 124.55 189.015C123.456 189.769 121.999 189.615 120.689 189.827C118.217 190.228 116.126 192.033 114.952 194.266C113.778 196.499 113.5 199.068 113.628 201.565C117.938 202.339 122.307 202.746 126.686 202.783C127.41 200.615 128.132 198.45 128.853 196.287C129.35 198.559 129.847 200.83 130.344 203.101Z" fill="#6D0892"/>
<path d="M176.482 166.363C176.482 166.363 152.347 167.488 146.588 178.057C140.829 188.626 134.629 208.701 137.484 219.923C140.34 231.145 146.403 231.092 155.644 230.704C155.644 230.704 151.84 239.292 151.782 246.097C151.782 246.097 200.277 257.156 223.012 243.215C223.012 243.215 221.119 233.149 218.979 230.704C218.979 230.704 233.449 227.756 230.285 211.062C227.121 194.368 214.27 169.849 206.772 168.406C199.275 166.963 186.813 165.847 186.813 165.847" fill="#F3F7FA"/>
<path d="M194.239 250.165L195.793 166.795C190.894 166.213 186.812 165.847 186.812 165.847L176.482 166.363C173.486 166.544 170.503 166.902 167.55 167.435C169.805 181.755 177.903 233.017 180.859 249.993C185.202 250.254 189.721 250.342 194.239 250.165Z" fill="#E28EDC"/>
<path d="M176.482 166.363C173.486 166.544 170.503 166.902 167.55 167.435C168.057 170.644 168.874 175.71 169.822 181.826L181.671 169.748L195.541 180.537L195.797 166.795C190.899 166.213 186.817 165.847 186.817 165.847L176.482 166.363Z" fill="#CC79CA"/>
<path d="M207.579 138.392C208.753 134.289 207.031 130.197 203.732 129.253C200.432 128.309 196.806 130.87 195.632 134.972C194.458 139.075 196.18 143.167 199.48 144.111C202.779 145.055 206.405 142.494 207.579 138.392Z" fill="#FCB58A"/>
<path d="M173.609 152.749H189.641V164.134C189.641 166.26 188.797 168.298 187.294 169.801C185.791 171.304 183.753 172.148 181.627 172.148C179.502 172.148 177.464 171.304 175.961 169.801C174.458 168.298 173.613 166.26 173.613 164.134V152.749H173.609Z" fill="#FFB384"/>
<path d="M202.818 123.037L202.858 123.893C199.544 123.991 195.722 122.874 192.223 120.531C189.484 118.741 187.242 116.288 185.705 113.399C184.054 117.636 180.749 122.071 176.129 125.756C171.182 129.688 165.723 131.956 160.992 132.411C160.787 132.714 160.521 132.971 160.211 133.166C159.901 133.362 159.554 133.49 159.192 133.545C158.299 133.672 157.451 134.011 156.716 134.533C153.68 136.74 153.42 141.554 156.138 145.336C158.225 148.24 161.46 149.665 164.222 149.189C165.946 152.358 168.526 154.979 171.669 156.752C174.811 158.524 178.389 159.376 181.994 159.21L188.728 158.88C197.642 158.469 204.103 150.91 203.692 142L202.818 123.037Z" fill="#FCB58A"/>
<path d="M180.427 141.589C180.723 143.175 181.604 144.592 182.895 145.559C184.186 146.526 185.793 146.974 187.398 146.813C189.003 146.652 190.49 145.894 191.563 144.69C192.636 143.486 193.218 141.923 193.194 140.31L180.427 141.589Z" fill="white"/>
<path d="M164.307 146.178C164.351 146.178 164.664 145.454 164.629 144.179C164.536 142.528 164.011 140.93 163.106 139.545C162.631 138.765 162.027 138.071 161.319 137.493C160.732 137.023 160.052 136.683 159.324 136.496C158.835 136.369 158.325 136.34 157.824 136.408C157.471 136.461 157.29 136.544 157.299 136.575C157.308 136.606 158.084 136.469 159.227 136.836C159.889 137.054 160.502 137.398 161.032 137.851C161.68 138.417 162.238 139.08 162.687 139.814C163.547 141.145 164.091 142.654 164.28 144.227C164.399 145.406 164.218 146.16 164.307 146.178Z" fill="#A54959"/>
<path d="M161.456 144.612C161.522 144.585 161.456 144.219 161.328 143.636C161.15 142.896 161.047 142.139 161.023 141.377C161.017 140.627 161.167 139.885 161.464 139.197C161.694 138.667 161.906 138.376 161.87 138.314C161.835 138.253 161.491 138.486 161.151 139.025C160.734 139.736 160.523 140.549 160.542 141.373C160.559 142.179 160.716 142.976 161.005 143.729C161.204 144.307 161.394 144.634 161.456 144.612Z" fill="#A54959"/>
<path d="M190.364 175.242L174.568 176.029C173.64 176.075 172.926 176.864 172.972 177.792L173.141 181.19C173.187 182.117 173.977 182.832 174.904 182.785L190.7 181.999C191.628 181.953 192.342 181.164 192.296 180.236L192.127 176.838C192.081 175.911 191.292 175.196 190.364 175.242Z" fill="#BF47A9"/>
<path d="M202.73 121.05C202.412 114.188 197.029 108.884 190.166 109.184L184.43 109.453L173.556 109.97C170.104 110.129 166.857 111.652 164.528 114.205C162.199 116.758 160.98 120.132 161.138 123.584L161.469 130.79C161.498 131.352 161.343 131.908 161.028 132.374C165.758 131.933 171.217 129.651 176.164 125.719C180.784 122.052 184.107 117.617 185.74 113.363C187.277 116.251 189.519 118.704 192.258 120.494C195.758 122.838 199.579 123.954 202.893 123.857L202.73 121.05Z" fill="#6D0892"/>
<g style="mix-blend-mode:multiply" opacity="0.2">
<path d="M201.945 124.511C202.254 124.511 202.567 124.48 202.885 124.449L202.841 123.461V123.902C199.526 123.999 195.705 122.883 192.205 120.54C189.467 118.75 187.225 116.297 185.687 113.408C184.037 117.645 180.732 122.08 176.111 125.765C171.35 129.551 166.111 131.788 161.509 132.358L161.469 132.631C166.456 132.388 171.478 131.431 175.926 129.167C180.374 126.903 184.231 123.249 186.115 118.624C190.43 122.563 196.105 124.674 201.945 124.511Z" fill="#A54959"/>
</g>
<path d="M200.41 178.291L164.872 180.06C163.492 180.129 162.429 181.303 162.498 182.684L164.87 230.329C164.938 231.709 166.113 232.772 167.493 232.704L203.031 230.934C204.411 230.866 205.474 229.691 205.406 228.311L203.034 180.666C202.965 179.285 201.79 178.222 200.41 178.291Z" fill="#6D0892"/>
<path d="M179.743 205.11C188.163 205.661 195.956 200.3 204.381 199.946C205.126 199.916 207.496 199.664 207.47 200.909C207.47 202.007 204.584 202.069 203.842 202.166C200.989 202.545 198.257 203.557 195.846 205.127C198.427 204.686 201.013 204.218 203.617 203.878C204.837 203.709 206.066 203.625 207.298 203.627C207.862 203.627 210.625 203.561 210.788 204.192C211.049 205.189 207.999 205.476 207.443 205.591C204.01 206.297 200.25 206.363 197.262 208.411C200.28 207.51 203.404 207.016 206.552 206.941C207.05 206.941 208.723 207.078 209.001 207.546C209.676 208.684 206.794 208.79 206.062 208.927C202.946 209.518 199.72 210.154 197.13 211.981C200.53 211.191 204.044 211.019 207.505 211.473C208.149 211.557 208.988 211.976 208.763 212.581C208.683 212.764 208.549 212.918 208.379 213.022C205.771 214.946 202.156 214.5 199.063 215.449C196.79 216.147 194.826 217.585 192.664 218.565C189.516 219.976 186.012 220.393 182.62 219.761" fill="#FCB58A"/>
<path d="M188.317 202.572C178.609 203.349 168.959 204.602 159.368 206.332C161.432 200.589 162.428 194.517 162.307 188.415C162.224 184.272 161.557 179.978 159.218 176.544C157.974 174.713 156.001 173.089 153.795 173.279L139.656 209.58C138.142 212.612 138.371 216.274 139.506 219.465C140.64 222.656 142.595 225.475 144.55 228.251C146.315 230.784 147.639 230.93 150.516 230.82C153.265 230.718 156.01 230.568 158.75 230.339C164.328 229.871 169.911 229.085 175.299 227.545C181.42 225.802 187.245 223.984 192.563 220.723C191.702 214.556 190.281 208.481 188.317 202.572Z" fill="#F3F7FA"/>
<path d="M168.543 204.606C168.543 204.509 167.281 204.606 165.286 204.95C160.097 205.867 155.021 207.332 150.141 209.319C148.274 210.096 147.162 210.669 147.202 210.762C147.286 210.965 151.915 209.138 157.793 207.452C163.671 205.767 168.578 204.822 168.543 204.606Z" fill="#D0D8DD"/>
<path d="M158.57 206.397C158.839 205.986 159.053 205.541 159.205 205.074C159.554 204.191 160.044 202.902 160.56 201.278C161.172 199.377 161.674 197.443 162.065 195.484C162.55 193.078 162.798 190.631 162.806 188.176C162.834 185.707 162.51 183.246 161.844 180.868C161.304 178.908 160.363 177.081 159.082 175.502C158.206 174.449 157.129 173.582 155.913 172.952C155.588 172.775 155.249 172.627 154.898 172.51C154.66 172.431 154.527 172.4 154.519 172.422C154.51 172.444 154.62 172.523 154.836 172.651C155.053 172.779 155.379 172.934 155.767 173.199C156.883 173.905 157.866 174.801 158.671 175.846C159.84 177.408 160.693 179.183 161.182 181.071C161.789 183.395 162.085 185.788 162.065 188.19C162.065 193.322 160.939 197.898 160.057 201.146C159.174 204.394 158.464 206.358 158.57 206.397Z" fill="#D0D8DD"/>
<path d="M181.345 220.192C176.857 221.34 172.519 223.008 168.106 224.274C163.861 225.492 159.545 226.212 155.635 228.401C154.615 228.906 153.724 229.638 153.031 230.541C153.526 230.938 154.249 230.638 154.797 230.351C158.299 228.557 162.119 227.467 166.041 227.143C162.277 228.546 158.398 230.024 155.498 232.809C154.568 233.627 153.873 234.678 153.486 235.854C154.766 235.929 155.878 235.046 156.91 234.283C159.751 232.186 162.974 230.664 166.398 229.804C163.965 231.169 161.622 232.687 159.382 234.349C158.133 235.316 156.888 236.472 156.5 238.003C156.449 238.136 156.43 238.279 156.444 238.421C156.458 238.562 156.504 238.699 156.579 238.82C156.919 239.226 157.568 238.899 157.978 238.568C160.944 236.136 164.112 233.736 167.846 232.831C164.757 234.994 161.597 237.284 159.849 240.607C159.616 241.048 159.554 241.803 160.057 241.865C160.214 241.866 160.368 241.82 160.498 241.732C162.131 240.85 163.415 239.393 165.043 238.489C167.325 237.218 170.065 237.116 172.669 237.257C175.273 237.399 177.912 237.743 180.48 237.257C183.048 236.772 185.643 235.289 186.526 232.831" fill="#FCB58A"/>
<path d="M154.24 188.618C153.495 186.442 151.346 185.348 149.126 185.657C144.386 186.323 142.458 194.28 146.738 196.751C147.415 197.136 148.17 197.365 148.946 197.42C149.723 197.475 150.502 197.355 151.226 197.069C151.618 196.916 151.985 196.706 152.316 196.447C153.077 195.791 153.648 194.944 153.971 193.993C154.684 192.287 154.779 190.386 154.24 188.618Z" fill="#CC79CA"/>
<path d="M229.725 214.341L213.291 208.11L194.858 213.883C187.488 216.191 180.096 218.507 173.022 221.583C173.657 227.564 175.143 233.423 177.435 238.984C185.959 239.037 194.462 238.129 202.783 236.278C206.865 235.338 210.599 233.714 214.548 232.395C220.466 230.418 226.022 227.951 228.696 221.932C229.773 219.557 230.131 216.918 229.725 214.341Z" fill="#F3F7FA"/>
<path d="M207.871 188.878C208.604 190.913 209.579 193.066 210.29 195.405C210.976 197.599 211.375 199.873 211.477 202.17C211.567 204.043 211.396 205.918 210.969 207.744C210.832 208.309 210.682 208.825 210.528 209.293L211.102 209.05C211.234 208.684 211.362 208.295 211.481 207.876C211.997 206.009 212.228 204.075 212.165 202.139C212.103 199.776 211.714 197.432 211.009 195.176C210.272 192.77 209.275 190.621 208.516 188.631C207.804 186.89 207.289 185.076 206.98 183.221C206.781 181.974 206.754 180.706 206.9 179.452C206.995 178.992 207.057 178.526 207.086 178.058C207.042 178.058 206.817 178.499 206.614 179.382C206.35 180.662 206.296 181.976 206.455 183.274C206.691 185.194 207.167 187.076 207.871 188.878Z" fill="#D0D8DD"/>
<path d="M207.995 187.842C208.207 187.842 208.436 186.24 208.838 184.28C209.239 182.321 209.597 180.75 209.394 180.662C209.191 180.574 208.489 182.114 208.101 184.135C207.712 186.156 207.792 187.833 207.995 187.842Z" fill="#D0D8DD"/>
<path d="M225.594 205.78C224.891 205.804 224.192 205.894 223.506 206.049C222.183 206.27 220.25 206.641 217.884 207.135C215.519 207.629 212.712 208.274 209.606 209.046C206.499 209.818 203.11 210.745 199.571 211.791C196.031 212.837 192.686 213.927 189.659 214.959C186.632 215.992 183.922 216.998 181.68 217.876C179.439 218.754 177.616 219.487 176.385 220.034C175.727 220.279 175.092 220.582 174.487 220.939C175.173 220.79 175.844 220.577 176.491 220.303L181.874 218.37C184.147 217.559 186.861 216.605 189.888 215.617C192.916 214.628 196.265 213.556 199.791 212.506C203.317 211.455 206.702 210.529 209.787 209.712C212.871 208.896 215.66 208.207 218.008 207.651L223.577 206.327C224.265 206.207 224.94 206.024 225.594 205.78Z" fill="#D0D8DD"/>
<path d="M196.57 62.7558C198.525 62.7558 198.525 59.7285 196.57 59.7285C194.615 59.7285 194.619 62.7558 196.57 62.7558Z" fill="#F3F7FA"/>
<path d="M287.265 106.237C290.61 106.237 290.61 101.047 287.265 101.047C283.92 101.047 283.916 106.237 287.265 106.237Z" fill="#F3F7FA"/>
<path d="M51.4534 149.66C54.7984 149.66 54.7984 144.475 51.4534 144.475C48.1083 144.475 48.1083 149.66 51.4534 149.66Z" fill="#F3F7FA"/>
<path d="M272.305 192.206C275.65 192.206 275.65 187.017 272.305 187.017C268.96 187.017 268.96 192.206 272.305 192.206Z" fill="#F3F7FA"/>
<path d="M69.6171 118.231C71.5676 118.231 71.5676 115.204 69.6171 115.204C67.6665 115.204 67.6665 118.231 69.6171 118.231Z" fill="#F3F7FA"/>
<path d="M119.307 67.9804C121.258 67.9804 121.258 64.9531 119.307 64.9531C117.357 64.9531 117.357 67.9804 119.307 67.9804Z" fill="#F3F7FA"/>
<path d="M300.522 133.284C302.472 133.284 302.472 130.261 300.522 130.261C298.571 130.261 298.571 133.284 300.522 133.284Z" fill="#F3F7FA"/>
<path d="M300.522 212.501C302.472 212.501 302.472 209.474 300.522 209.474C298.571 209.474 298.571 212.501 300.522 212.501Z" fill="#F3F7FA"/>
<path d="M89.1668 184.174C91.1173 184.174 91.1173 181.146 89.1668 181.146C87.2162 181.146 87.2162 184.174 89.1668 184.174Z" fill="#F3F7FA"/>
</svg>
