<svg width="41" height="40" viewBox="0 0 41 40" fill="none" xmlns="http://www.w3.org/2000/svg">
<g id="Sad">
<circle id="Oval Copy 19" cx="20.6666" cy="20" r="19.5" stroke="#874C48"/>
<path id="Combined Shape" fill-rule="evenodd" clip-rule="evenodd" d="M9.66663 20C9.66663 13.928 14.5836 9 20.6556 9C26.7386 9 31.6666 13.928 31.6666 20C31.6666 26.072 26.7386 31 20.6556 31C14.5836 31 9.66663 26.072 9.66663 20ZM15.9523 15.2856C15.0849 15.2856 14.3809 15.9896 14.3809 16.8571C14.3809 17.7245 15.0849 18.4285 15.9523 18.4285C16.8197 18.4285 17.5237 17.7245 17.5237 16.8571C17.5237 15.9896 16.8197 15.2856 15.9523 15.2856ZM25.1434 27.0714C24.8711 27.0714 24.6107 26.9619 24.4104 26.7775C23.7239 26.1455 22.0197 24.7143 20.6666 24.7143C19.2427 24.7143 17.4299 26.2993 16.8235 26.8698C16.6879 26.9974 16.5106 27.0714 16.3245 27.0714C15.7422 27.0714 15.4397 26.4139 15.8471 25.9979C16.9859 24.8347 18.9393 23.1428 20.6666 23.1428C22.443 23.1428 24.4584 24.9321 25.5811 26.0956C25.9478 26.4756 25.6714 27.0714 25.1434 27.0714ZM23.8094 16.8571C23.8094 17.7245 24.5134 18.4285 25.3809 18.4285C26.2483 18.4285 26.9523 17.7245 26.9523 16.8571C26.9523 15.9896 26.2483 15.2856 25.3809 15.2856C24.5134 15.2856 23.8094 15.9896 23.8094 16.8571Z" fill="#874C48"/>
</g>
</svg>
