<svg width="41" height="40" viewBox="0 0 41 40" fill="none" xmlns="http://www.w3.org/2000/svg">
<mask id="path-1-inside-1_1964_3506" fill="white">
<path fill-rule="evenodd" clip-rule="evenodd" d="M20.6665 40C31.7122 40 40.6665 31.0457 40.6665 20C40.6665 8.9543 31.7122 0 20.6665 0C9.62081 0 0.666504 8.9543 0.666504 20C0.666504 31.0457 9.62081 40 20.6665 40ZM20.6555 9C14.5835 9 9.6665 13.928 9.6665 20C9.6665 26.072 14.5835 31 20.6555 31C26.7385 31 31.6665 26.072 31.6665 20C31.6665 13.928 26.7385 9 20.6555 9ZM14.3807 16.8571C14.3807 15.9896 15.0847 15.2856 15.9522 15.2856C16.8196 15.2856 17.5236 15.9896 17.5236 16.8571C17.5236 17.7245 16.8196 18.4285 15.9522 18.4285C15.0847 18.4285 14.3807 17.7245 14.3807 16.8571ZM24.4103 26.7775C24.6106 26.9619 24.871 27.0714 25.1432 27.0714C25.6713 27.0714 25.9477 26.4756 25.581 26.0956C24.4582 24.9321 22.4428 23.1428 20.6665 23.1428C18.9391 23.1428 16.9858 24.8347 15.8469 25.9979C15.4396 26.4139 15.7421 27.0714 16.3244 27.0714C16.5105 27.0714 16.6878 26.9974 16.8234 26.8698C17.4298 26.2993 19.2425 24.7143 20.6665 24.7143C22.0196 24.7143 23.7238 26.1455 24.4103 26.7775ZM25.3808 18.4285C24.5133 18.4285 23.8093 17.7245 23.8093 16.8571C23.8093 15.9896 24.5133 15.2856 25.3808 15.2856C26.2482 15.2856 26.9522 15.9896 26.9522 16.8571C26.9522 17.7245 26.2482 18.4285 25.3808 18.4285Z"/>
</mask>
<path fill-rule="evenodd" clip-rule="evenodd" d="M20.6665 40C31.7122 40 40.6665 31.0457 40.6665 20C40.6665 8.9543 31.7122 0 20.6665 0C9.62081 0 0.666504 8.9543 0.666504 20C0.666504 31.0457 9.62081 40 20.6665 40ZM20.6555 9C14.5835 9 9.6665 13.928 9.6665 20C9.6665 26.072 14.5835 31 20.6555 31C26.7385 31 31.6665 26.072 31.6665 20C31.6665 13.928 26.7385 9 20.6555 9ZM14.3807 16.8571C14.3807 15.9896 15.0847 15.2856 15.9522 15.2856C16.8196 15.2856 17.5236 15.9896 17.5236 16.8571C17.5236 17.7245 16.8196 18.4285 15.9522 18.4285C15.0847 18.4285 14.3807 17.7245 14.3807 16.8571ZM24.4103 26.7775C24.6106 26.9619 24.871 27.0714 25.1432 27.0714C25.6713 27.0714 25.9477 26.4756 25.581 26.0956C24.4582 24.9321 22.4428 23.1428 20.6665 23.1428C18.9391 23.1428 16.9858 24.8347 15.8469 25.9979C15.4396 26.4139 15.7421 27.0714 16.3244 27.0714C16.5105 27.0714 16.6878 26.9974 16.8234 26.8698C17.4298 26.2993 19.2425 24.7143 20.6665 24.7143C22.0196 24.7143 23.7238 26.1455 24.4103 26.7775ZM25.3808 18.4285C24.5133 18.4285 23.8093 17.7245 23.8093 16.8571C23.8093 15.9896 24.5133 15.2856 25.3808 15.2856C26.2482 15.2856 26.9522 15.9896 26.9522 16.8571C26.9522 17.7245 26.2482 18.4285 25.3808 18.4285Z" fill="#874C48"/>
<path d="M24.4103 26.7775L23.733 27.5132L23.733 27.5132L24.4103 26.7775ZM25.581 26.0956L26.3006 25.4012L25.581 26.0956ZM15.8469 25.9979L15.1324 25.2983L15.8469 25.9979ZM16.8234 26.8698L17.5086 27.5982L17.5086 27.5981L16.8234 26.8698ZM39.6665 20C39.6665 30.4934 31.1599 39 20.6665 39V41C32.2645 41 41.6665 31.598 41.6665 20H39.6665ZM20.6665 1C31.1599 1 39.6665 9.50659 39.6665 20H41.6665C41.6665 8.40202 32.2645 -1 20.6665 -1V1ZM1.6665 20C1.6665 9.50659 10.1731 1 20.6665 1V-1C9.06852 -1 -0.333496 8.40202 -0.333496 20H1.6665ZM20.6665 39C10.1731 39 1.6665 30.4934 1.6665 20H-0.333496C-0.333496 31.598 9.06852 41 20.6665 41V39ZM10.6665 20C10.6665 14.479 15.1371 10 20.6555 10V8C14.0299 8 8.6665 13.377 8.6665 20H10.6665ZM20.6555 30C15.1371 30 10.6665 25.521 10.6665 20H8.6665C8.6665 26.623 14.0299 32 20.6555 32V30ZM30.6665 20C30.6665 25.5191 26.1869 30 20.6555 30V32C27.2901 32 32.6665 26.6249 32.6665 20H30.6665ZM20.6555 10C26.1869 10 30.6665 14.4809 30.6665 20H32.6665C32.6665 13.3751 27.2901 8 20.6555 8V10ZM15.9522 14.2856C14.5325 14.2856 13.3807 15.4374 13.3807 16.8571H15.3807C15.3807 16.5419 15.637 16.2856 15.9522 16.2856V14.2856ZM18.5236 16.8571C18.5236 15.4374 17.3719 14.2856 15.9522 14.2856V16.2856C16.2673 16.2856 16.5236 16.5419 16.5236 16.8571H18.5236ZM15.9522 19.4285C17.3719 19.4285 18.5236 18.2768 18.5236 16.8571H16.5236C16.5236 17.1722 16.2673 17.4285 15.9522 17.4285V19.4285ZM13.3807 16.8571C13.3807 18.2768 14.5325 19.4285 15.9522 19.4285V17.4285C15.637 17.4285 15.3807 17.1722 15.3807 16.8571H13.3807ZM25.1432 26.0714C25.1413 26.0714 25.118 26.0698 25.0876 26.0417L23.733 27.5132C24.1032 27.854 24.6007 28.0714 25.1432 28.0714V26.0714ZM24.8614 26.79C24.7458 26.6702 24.7153 26.4707 24.7872 26.3123C24.8554 26.1623 25.0036 26.0714 25.1432 26.0714V28.0714C26.4682 28.0714 27.3386 26.4769 26.3006 25.4012L24.8614 26.79ZM20.6665 24.1428C21.249 24.1428 21.9902 24.4513 22.8041 25.0082C23.5922 25.5475 24.3237 26.2328 24.8614 26.79L26.3006 25.4012C25.7155 24.7949 24.8779 24.0039 23.9336 23.3576C23.015 22.7291 21.8603 22.1428 20.6665 22.1428V24.1428ZM16.5615 26.6975C17.1065 26.1408 17.8258 25.4798 18.5934 24.9644C19.3849 24.4331 20.1016 24.1428 20.6665 24.1428V22.1428C19.504 22.1428 18.3804 22.6985 17.4786 23.3039C16.553 23.9253 15.7262 24.6918 15.1324 25.2983L16.5615 26.6975ZM16.3244 26.0714C16.4374 26.0714 16.5667 26.1476 16.6263 26.2799C16.6548 26.3431 16.6682 26.4209 16.6545 26.5039C16.64 26.5916 16.5996 26.6585 16.5615 26.6975L15.1324 25.2983C14.0447 26.4092 14.9439 28.0714 16.3244 28.0714V26.0714ZM16.1381 26.1415C16.1781 26.1039 16.2424 26.0714 16.3244 26.0714V28.0714C16.7785 28.0714 17.1976 27.8908 17.5086 27.5982L16.1381 26.1415ZM20.6665 23.7143C19.6414 23.7143 18.6204 24.2588 17.8867 24.744C17.1126 25.256 16.461 25.8377 16.1381 26.1415L17.5086 27.5981C17.7921 27.3314 18.3502 26.8353 18.99 26.4122C19.6703 25.9623 20.2676 25.7143 20.6665 25.7143V23.7143ZM25.0876 26.0418C24.7236 25.7067 24.0779 25.148 23.3283 24.6672C22.6147 24.2095 21.6446 23.7143 20.6665 23.7143V25.7143C21.0414 25.7143 21.6 25.9347 22.2484 26.3506C22.8608 26.7434 23.4105 27.2164 23.733 27.5132L25.0876 26.0418ZM22.8093 16.8571C22.8093 18.2768 23.961 19.4285 25.3808 19.4285V17.4285C25.0656 17.4285 24.8093 17.1722 24.8093 16.8571H22.8093ZM25.3808 14.2856C23.961 14.2856 22.8093 15.4374 22.8093 16.8571H24.8093C24.8093 16.5419 25.0656 16.2856 25.3808 16.2856V14.2856ZM27.9522 16.8571C27.9522 15.4374 26.8005 14.2856 25.3808 14.2856V16.2856C25.6959 16.2856 25.9522 16.5419 25.9522 16.8571H27.9522ZM25.3808 19.4285C26.8005 19.4285 27.9522 18.2768 27.9522 16.8571H25.9522C25.9522 17.1722 25.6959 17.4285 25.3808 17.4285V19.4285Z" fill="#874C48" mask="url(#path-1-inside-1_1964_3506)"/>
</svg>
