<svg width="167" height="246" viewBox="0 0 167 246" fill="none" xmlns="http://www.w3.org/2000/svg">
<g clip-path="url(#clip0_170_17836)">
<path d="M149.778 104.803L142.472 104.782C139.988 104.761 137.952 103.234 137.921 101.405V100.767C137.9 98.9374 139.894 97.4528 142.347 97.4841L149.653 97.505C152.137 97.5259 154.172 99.0524 154.204 100.882V101.52C154.225 103.349 152.241 104.824 149.778 104.803Z" fill="#FCB58A"/>
<path d="M22.973 104.385L15.6668 104.364C13.1826 104.343 11.1473 102.816 11.116 100.987V100.349C11.0951 98.5192 13.0887 97.0346 15.5415 97.0659L22.8478 97.0868C25.3319 97.1077 27.3672 98.6342 27.3985 100.464V101.102C27.4298 102.931 25.4363 104.405 22.973 104.385Z" fill="#FCB58A"/>
<path d="M62.6041 213.139C62.3223 216.872 62.0405 220.604 61.7378 224.337C61.5499 226.825 64.4515 228.822 66.873 228.707C69.7747 228.571 71.3507 226.334 71.5386 223.824C71.8204 220.092 72.1022 216.359 72.4049 212.627C72.5928 210.139 69.6912 208.142 67.2697 208.257C64.3576 208.393 62.8129 210.62 62.6041 213.139Z" fill="#FCB58A"/>
<path d="M98.2899 214.31C98.8744 217.99 99.4589 221.702 100.043 225.393C100.44 227.86 103.717 229.125 106.045 228.446C108.832 227.62 109.844 225.11 109.448 222.622C108.863 218.942 108.279 215.23 107.694 211.54C107.297 209.072 104.02 207.807 101.693 208.487C98.9057 209.313 97.8933 211.822 98.2899 214.31Z" fill="#FCB58A"/>
<path d="M23.1609 208.748C14.0907 208.748 6.71138 207.901 6.45044 206.866L7.78644 222.706C7.78644 230.213 14.6961 236.371 23.1609 236.371C31.6257 236.371 38.5353 230.223 38.5353 222.706L39.8713 206.835C39.6834 207.901 32.2833 208.748 23.1609 208.748Z" fill="#DEC7B2"/>
<path d="M23.1609 208.748C13.955 208.748 6.47131 207.88 6.45044 206.824V206.803C6.5235 205.747 13.9759 204.88 23.1609 204.88C32.3459 204.88 39.7983 205.747 39.8713 206.803V206.824C39.8191 207.88 32.3668 208.748 23.1609 208.748Z" fill="#E8D4C1"/>
<path d="M23.1609 208.414C15.4058 208.414 9.10156 207.682 9.08069 206.772V206.751C9.15375 205.862 15.4267 205.131 23.1609 205.131C30.9159 205.131 37.1993 205.862 37.2411 206.751V206.772C37.2202 207.692 30.9159 208.414 23.1609 208.414Z" fill="#BA9C7E"/>
<path d="M7.01404 213.652C8.0891 213.673 9.14329 214.101 10.0618 214.99C11.7735 216.652 12.8486 219.214 14.2368 221.158C14.7482 220.102 15.2179 219.026 15.6145 217.917C16.1051 216.6 17.869 215.387 19.2468 216.443C20.7185 217.593 21.8249 218.879 22.7851 220.479C23.6097 221.859 24.2881 223.511 25.5719 224.535C26.814 225.55 28.223 225.821 28.7345 224.044C29.1833 222.476 29.0163 220.803 29.5277 219.235C29.9452 217.917 30.6028 216.579 31.9388 215.994C33.5044 215.314 35.0283 216.161 36.4374 216.861C37.2828 217.28 38.0969 217.729 38.9006 218.221L38.6188 221.556C37.1888 220.667 35.4353 219.559 33.9532 219.35C33.0138 219.214 33.0869 219.841 33.0138 220.709C32.9721 221.483 32.9721 222.277 32.9199 223.061C32.826 224.661 32.5963 226.25 31.657 227.567C29.6425 230.411 25.8642 230.265 23.2235 228.456C21.7935 227.494 20.7602 226.229 19.8522 224.776C19.5495 224.305 19.2677 223.814 18.965 223.323C17.8169 225.978 16.0842 228.373 13.2035 227.358C11.4187 226.721 10.2497 224.776 9.19548 223.323C8.87191 222.873 8.2561 221.775 7.65073 220.793L7.01404 213.652Z" fill="#EBDBCD"/>
<path d="M0.480135 154.59C0.83501 153.231 2.42151 153.022 3.36088 153.817C5.1457 155.322 6.07464 157.382 7.0662 159.431C8.09951 161.595 9.36245 163.561 10.8341 165.422C13.8297 169.248 17.1593 172.793 19.3407 177.184C23.5783 185.684 24.6116 195.679 21.6891 204.765C21.5952 205.047 22.1588 203.615 21.2403 206.124C20.4158 208.403 17.1906 207.18 17.2114 204.524C17.2323 201.921 16.5539 199.506 15.4058 197.206C13.1304 192.626 10.2705 188.361 8.04732 183.76C5.79282 179.108 3.83057 174.319 2.23363 169.416C0.688885 164.638 -0.782803 159.588 0.480135 154.59Z" fill="#4C7378"/>
<path d="M21.3342 127.95C22.4823 125.859 25.8328 127.271 25.1752 129.571C23.2025 136.283 24.6116 143.393 25.8328 150.115C27.0748 156.974 28.5257 163.78 29.3711 170.702C30.8741 182.976 30.3835 196.777 22.618 207.065C21.7726 208.173 20.0191 207.253 20.7184 205.936C21.4908 204.482 19.5494 194.905 18.6831 191.852C17.8168 188.685 16.9296 185.538 16.1572 182.349C14.6125 176.128 13.3495 169.792 13.0155 163.383C12.3162 150.91 15.3849 138.845 21.3342 127.95Z" fill="#57848A"/>
<path d="M25.0396 196.233C25.9581 192.051 25.2692 187.618 26.1668 183.467C27.0331 179.379 28.2334 175.25 30.1226 171.517C31.9283 167.973 34.6942 165.463 37.9299 163.257C40.9776 161.187 44.589 159.149 45.6641 155.374C46.3007 153.116 50.1209 153.45 49.8808 155.939C49.3694 161.01 47.2297 165.474 44.7456 169.855C42.0944 174.507 39.7773 178.961 38.4935 184.199C36.2703 193.17 34.3498 204.785 24.1524 207.535C22.8999 207.859 23.0669 205.183 25.0396 196.233Z" fill="#689399"/>
<path d="M22.8582 105.388C30.2897 109.194 37.8047 111.379 46.2173 111.212C54.0872 111.044 61.7587 108.932 66.1842 101.865C69.1172 97.1703 61.7065 92.8523 58.784 97.5258C55.7885 102.314 49.8078 102.67 44.7039 102.617C38.3787 102.576 32.7738 100.83 27.2002 97.9649C22.2946 95.4661 17.9317 102.879 22.8582 105.388Z" fill="#FCB58A"/>
<path d="M137.19 97.9753C131.585 100.84 126.012 102.576 119.687 102.628C114.301 102.67 109.427 102.063 106.379 97.1389C103.477 92.4445 96.0667 96.7625 98.9788 101.478C100.878 104.552 103.456 107.249 106.692 108.87C110.324 110.699 114.144 111.128 118.152 111.222C126.565 111.389 134.09 109.204 141.512 105.399C146.428 102.879 142.086 95.4661 137.19 97.9753Z" fill="#FCB58A"/>
<path d="M163.159 132.927L160.226 148.913L147.409 138.301L163.159 132.927Z" fill="#D4BFA9"/>
<path d="M47.5846 17.6274C52.3346 17.6274 56.1851 13.7703 56.1851 9.01229C56.1851 4.25432 52.3346 0.397217 47.5846 0.397217C42.8347 0.397217 38.9841 4.25432 38.9841 9.01229C38.9841 13.7703 42.8347 17.6274 47.5846 17.6274Z" fill="#EBDBCD"/>
<path d="M55.7572 26.3052C55.6841 26.3052 55.6215 26.2634 55.5693 26.1902C55.5275 26.0961 55.5693 25.9811 55.6632 25.9288L56.5504 25.5315L56.1538 24.6428C56.112 24.5487 56.1538 24.4337 56.2477 24.3814C56.3417 24.3396 56.4565 24.3814 56.5087 24.4755L57.0514 25.7406L55.7885 26.2843C55.8093 26.3052 55.778 26.3052 55.7572 26.3052Z" fill="#110580"/>
<path d="M37.4812 34.3137C37.4081 34.3137 37.3455 34.2719 37.2933 34.1987C37.2515 34.1046 37.2933 33.9896 37.3872 33.9374L39.6835 32.9232C39.7774 32.8814 39.8922 32.9232 39.9444 33.0173C39.9862 33.1114 39.9444 33.2264 39.8505 33.2787L37.5542 34.2928C37.5229 34.3137 37.502 34.3137 37.4812 34.3137ZM42.0528 32.3168C41.9797 32.3168 41.9171 32.275 41.8649 32.2018C41.8232 32.1077 41.8649 31.9927 41.9588 31.9404L44.2551 30.9263C44.349 30.8844 44.4638 30.9263 44.516 31.0204C44.5578 31.1145 44.516 31.2295 44.4221 31.2817L42.1258 32.2959C42.0945 32.3168 42.0737 32.3168 42.0528 32.3168ZM46.6244 30.3199C46.5513 30.3199 46.4887 30.278 46.4365 30.2049C46.3948 30.1108 46.4365 29.9958 46.5305 29.9435L48.8267 28.9293C48.9207 28.8875 49.0355 28.9293 49.0877 29.0234C49.1398 29.1175 49.0877 29.2325 48.9937 29.2848L46.6975 30.299C46.6662 30.3199 46.6453 30.3199 46.6244 30.3199ZM51.1856 28.302C51.1125 28.302 51.0499 28.2602 50.9977 28.187C50.956 28.0929 50.9977 27.9779 51.0917 27.9256L53.3879 26.9115C53.4818 26.8697 53.5966 26.9115 53.6488 27.0056C53.6906 27.0997 53.6488 27.2147 53.5549 27.267L51.2587 28.2811C51.2378 28.302 51.2169 28.302 51.1856 28.302Z" fill="#110580"/>
<path d="M34.0158 35.8613L33.4731 34.5962C33.4313 34.5021 33.4731 34.3871 33.567 34.3348C33.661 34.293 33.7758 34.3348 33.828 34.4289L34.2246 35.3176L35.1118 34.9203C35.2057 34.8785 35.3205 34.9203 35.3727 35.0144C35.4145 35.1085 35.3727 35.2235 35.2788 35.2758L34.0158 35.8613Z" fill="#110580"/>
<path d="M32.7217 32.5992C32.6486 32.5992 32.586 32.5573 32.5338 32.4842L31.5944 30.3513C31.5527 30.2572 31.5944 30.1422 31.6884 30.0899C31.7823 30.0481 31.8971 30.0899 31.9493 30.184L32.8887 32.3169C32.9304 32.411 32.8887 32.526 32.7947 32.5782C32.7739 32.5782 32.7425 32.5992 32.7217 32.5992ZM30.8534 28.323C30.7803 28.323 30.7177 28.2812 30.6655 28.208L29.7261 26.0751C29.6844 25.981 29.7261 25.866 29.82 25.8137C29.914 25.7719 30.0288 25.8137 30.081 25.9078L31.0204 28.0407C31.0621 28.1348 31.0204 28.2498 30.9264 28.3021C30.916 28.323 30.8742 28.323 30.8534 28.323ZM28.9955 24.0782C28.9224 24.0782 28.8598 24.0364 28.8076 23.9632L27.8682 21.8303C27.8265 21.7362 27.8682 21.6212 27.9622 21.5689C28.0561 21.5271 28.1709 21.5689 28.2231 21.663L29.1625 23.7959C29.2042 23.89 29.1625 24.005 29.0685 24.0573C29.0477 24.0782 29.0164 24.0782 28.9955 24.0782Z" fill="#110580"/>
<path d="M27.148 19.8333C27.0749 19.8333 27.0123 19.7915 26.9601 19.7183L26.4174 18.4532L27.6803 17.9095C27.7742 17.8677 27.889 17.9095 27.9412 18.0036C27.983 18.0977 27.9412 18.2127 27.8473 18.265L26.9601 18.6623L27.3567 19.551C27.3985 19.6451 27.3567 19.7601 27.2628 19.8124C27.1897 19.8333 27.1689 19.8333 27.148 19.8333Z" fill="#110580"/>
<path d="M30.0288 17.2927C29.9557 17.2927 29.8931 17.2509 29.8409 17.1777C29.7991 17.0836 29.8409 16.9686 29.9348 16.9164L32.2311 15.9022C32.325 15.8604 32.4398 15.9022 32.492 15.9963C32.5442 16.0904 32.492 16.2054 32.3981 16.2577L30.1018 17.2718C30.1018 17.2718 30.0496 17.2927 30.0288 17.2927ZM34.6004 15.2749C34.5273 15.2749 34.4647 15.2331 34.4125 15.1599C34.3708 15.0658 34.4125 14.9508 34.5065 14.8985L36.8027 13.8844C36.8966 13.8425 37.0115 13.8844 37.0636 13.9785C37.1054 14.0725 37.0636 14.1876 36.9697 14.2398L34.6735 15.254C34.6735 15.2749 34.6213 15.2749 34.6004 15.2749ZM39.172 13.278C39.0989 13.278 39.0363 13.2361 38.9841 13.1629C38.9424 13.0689 38.9841 12.9538 39.0781 12.9016L41.3743 11.8874C41.4683 11.8456 41.5831 11.8874 41.6353 11.9815C41.677 12.0756 41.6353 12.1906 41.5413 12.2429L39.2451 13.257C39.2346 13.278 39.2138 13.278 39.172 13.278ZM43.7645 11.281C43.6914 11.281 43.6288 11.2392 43.5766 11.166C43.5349 11.0719 43.5766 10.9569 43.6706 10.9046L45.9668 9.89048C46.0608 9.84866 46.1756 9.89048 46.2278 9.98458C46.2695 10.0787 46.2278 10.1937 46.1338 10.246L43.8376 11.2601C43.8063 11.2601 43.7854 11.281 43.7645 11.281Z" fill="#110580"/>
<path d="M49.8809 9.88005C49.8078 9.88005 49.7452 9.83823 49.693 9.76505L49.2964 8.87636L48.4092 9.27365C48.3152 9.31547 48.2004 9.27365 48.1482 9.17956C48.0961 9.08546 48.1482 8.97046 48.2422 8.91818L49.5051 8.37451L50.0479 9.63958C50.0896 9.73368 50.0479 9.84869 49.9539 9.90096C49.9226 9.88005 49.9017 9.88005 49.8809 9.88005Z" fill="#110580"/>
<path d="M55.4336 22.6458C55.3605 22.6458 55.2979 22.604 55.2457 22.5308L54.3063 20.3979C54.2646 20.3038 54.3063 20.1888 54.4003 20.1366C54.4942 20.0947 54.609 20.1365 54.6612 20.2306L55.6006 22.3635C55.6423 22.4576 55.6006 22.5726 55.5067 22.6249C55.4962 22.6249 55.4545 22.6458 55.4336 22.6458ZM53.5757 18.3801C53.5027 18.3801 53.44 18.3383 53.3878 18.2651L52.4485 16.1322C52.4067 16.0381 52.4485 15.9231 52.5424 15.8708C52.6363 15.829 52.7512 15.8708 52.8033 15.9649L53.7427 18.0978C53.7845 18.1919 53.7427 18.3069 53.6488 18.3592C53.6279 18.3801 53.607 18.3801 53.5757 18.3801ZM51.7283 14.1248C51.6552 14.1248 51.5926 14.083 51.5404 14.0098L50.601 11.877C50.5593 11.7829 50.601 11.6679 50.695 11.6156C50.7889 11.5738 50.9037 11.6156 50.9559 11.7097L51.8953 13.8425C51.937 13.9366 51.8953 14.0516 51.8013 14.1039C51.77 14.1248 51.7492 14.1248 51.7283 14.1248Z" fill="#110580"/>
<path d="M151.187 153.722L150.133 153.325C150.039 153.304 150.018 153.21 150.039 153.116C150.06 153.022 150.154 152.98 150.248 153.022L150.999 153.304L151.281 152.551C151.302 152.457 151.396 152.436 151.49 152.457C151.584 152.478 151.605 152.572 151.584 152.666L151.187 153.722Z" fill="#110580"/>
<path d="M148.515 152.719C148.494 152.719 148.473 152.719 148.473 152.719L146.835 152.112C146.741 152.091 146.72 151.997 146.741 151.903C146.762 151.809 146.856 151.767 146.95 151.809L148.588 152.416C148.682 152.437 148.703 152.531 148.682 152.625C148.651 152.687 148.578 152.719 148.515 152.719ZM145.227 151.496C145.207 151.496 145.186 151.496 145.186 151.496L143.547 150.889C143.453 150.868 143.432 150.774 143.453 150.68C143.474 150.586 143.568 150.565 143.662 150.586L145.3 151.192C145.394 151.213 145.415 151.307 145.394 151.401C145.342 151.443 145.3 151.496 145.227 151.496ZM141.929 150.272C141.908 150.272 141.887 150.272 141.887 150.272L140.249 149.666C140.155 149.645 140.134 149.551 140.155 149.457C140.176 149.363 140.27 149.321 140.363 149.363L142.002 149.969C142.096 149.99 142.117 150.084 142.096 150.178C142.065 150.23 141.992 150.272 141.929 150.272ZM138.62 149.028C138.6 149.028 138.579 149.028 138.579 149.028L136.94 148.422C136.846 148.401 136.825 148.307 136.846 148.213C136.867 148.119 136.961 148.077 137.055 148.119L138.693 148.725C138.787 148.746 138.808 148.84 138.787 148.934C138.767 148.986 138.693 149.028 138.62 149.028Z" fill="#110580"/>
<path d="M135.343 147.805C135.322 147.805 135.301 147.805 135.301 147.805L134.247 147.407L134.644 146.352C134.665 146.257 134.758 146.216 134.852 146.257C134.946 146.278 134.967 146.372 134.946 146.467L134.665 147.219L135.416 147.502C135.51 147.522 135.531 147.617 135.51 147.711C135.458 147.763 135.416 147.805 135.343 147.805Z" fill="#110580"/>
<path d="M135.385 144.898C135.364 144.898 135.343 144.898 135.343 144.898C135.249 144.877 135.228 144.783 135.249 144.689L135.854 143.047C135.875 142.953 135.969 142.912 136.063 142.953C136.157 142.974 136.178 143.068 136.157 143.163L135.552 144.804C135.5 144.846 135.437 144.898 135.385 144.898ZM136.606 141.615C136.585 141.615 136.564 141.615 136.564 141.615C136.47 141.594 136.449 141.5 136.47 141.406L137.076 139.765C137.097 139.67 137.19 139.629 137.284 139.67C137.378 139.691 137.399 139.785 137.378 139.88L136.773 141.521C136.742 141.563 136.679 141.615 136.606 141.615ZM137.827 138.301C137.806 138.301 137.785 138.301 137.785 138.301C137.691 138.28 137.671 138.186 137.691 138.092L138.297 136.45C138.318 136.356 138.412 136.314 138.506 136.356C138.6 136.377 138.62 136.471 138.6 136.565L137.994 138.207C137.963 138.259 137.89 138.301 137.827 138.301ZM139.069 134.997C139.048 134.997 139.027 134.997 139.027 134.997C138.934 134.976 138.913 134.882 138.934 134.788L139.539 133.146C139.56 133.052 139.654 133.011 139.748 133.052C139.842 133.073 139.862 133.167 139.842 133.261L139.236 134.903C139.184 134.966 139.132 134.997 139.069 134.997Z" fill="#110580"/>
<path d="M140.29 131.704C140.27 131.704 140.249 131.704 140.249 131.704C140.155 131.683 140.134 131.589 140.155 131.495L140.551 130.439L141.606 130.836C141.699 130.857 141.72 130.951 141.699 131.045C141.679 131.139 141.585 131.16 141.491 131.139L140.739 130.857L140.457 131.61C140.426 131.662 140.353 131.704 140.29 131.704Z" fill="#110580"/>
<path d="M154.725 136.053C154.705 136.053 154.684 136.053 154.684 136.053L153.045 135.447C152.951 135.426 152.93 135.332 152.951 135.238C152.972 135.144 153.066 135.102 153.16 135.144L154.799 135.75C154.892 135.771 154.913 135.865 154.892 135.959C154.861 136.001 154.788 136.053 154.725 136.053ZM151.417 134.83C151.396 134.83 151.375 134.83 151.375 134.83L149.736 134.224C149.642 134.203 149.622 134.109 149.642 134.014C149.663 133.92 149.757 133.899 149.851 133.92L151.49 134.527C151.584 134.548 151.605 134.642 151.584 134.736C151.552 134.778 151.49 134.83 151.417 134.83ZM148.139 133.586C148.119 133.586 148.098 133.586 148.098 133.586L146.459 132.979C146.365 132.959 146.344 132.864 146.365 132.77C146.386 132.676 146.48 132.634 146.574 132.676L148.212 133.283C148.306 133.304 148.327 133.398 148.306 133.492C148.254 133.534 148.202 133.586 148.139 133.586ZM144.831 132.363C144.81 132.363 144.789 132.363 144.789 132.363L143.15 131.756C143.056 131.735 143.035 131.641 143.056 131.547C143.077 131.453 143.171 131.411 143.265 131.453L144.904 132.059C144.998 132.08 145.019 132.174 144.998 132.268C144.977 132.321 144.904 132.363 144.831 132.363Z" fill="#110580"/>
<path d="M156.949 137.904C156.928 137.904 156.907 137.904 156.907 137.904C156.813 137.883 156.792 137.789 156.813 137.695L157.095 136.942L156.343 136.66C156.249 136.639 156.228 136.544 156.249 136.45C156.27 136.356 156.364 136.314 156.458 136.356L157.512 136.754L157.116 137.81C157.063 137.883 157.022 137.904 156.949 137.904Z" fill="#110580"/>
<path d="M152.022 151.119C152.001 151.119 151.98 151.119 151.98 151.119C151.886 151.098 151.866 151.004 151.886 150.91L152.492 149.268C152.513 149.174 152.607 149.132 152.701 149.174C152.794 149.195 152.815 149.289 152.794 149.383L152.189 151.025C152.168 151.067 152.095 151.119 152.022 151.119ZM153.243 147.805C153.222 147.805 153.202 147.805 153.202 147.805C153.108 147.784 153.087 147.69 153.108 147.596L153.713 145.954C153.734 145.86 153.828 145.818 153.922 145.86C154.016 145.881 154.037 145.975 154.016 146.069L153.41 147.711C153.389 147.784 153.316 147.805 153.243 147.805ZM154.485 144.522C154.464 144.522 154.444 144.522 154.444 144.522C154.35 144.501 154.329 144.407 154.35 144.313L154.955 142.671C154.976 142.577 155.07 142.535 155.164 142.577C155.258 142.598 155.279 142.692 155.258 142.786L154.652 144.428C154.6 144.48 154.558 144.522 154.485 144.522ZM155.707 141.207C155.686 141.207 155.665 141.207 155.665 141.207C155.571 141.187 155.55 141.092 155.571 140.998L156.176 139.357C156.197 139.263 156.291 139.221 156.385 139.263C156.479 139.284 156.5 139.378 156.479 139.472L155.874 141.113C155.842 141.166 155.78 141.207 155.707 141.207Z" fill="#110580"/>
<path d="M106.379 75.3712C106.379 75.3712 102.235 62.1559 100.847 56.5728C98.6866 47.9577 92.8312 42.772 84.5647 42.772C76.1729 42.772 70.2653 48.0518 67.9482 56.6251C65.5789 65.4492 62.4685 74.6812 62.4685 74.6812C62.0927 75.8521 62.6772 77.0963 63.8045 77.5668C66.4765 78.6228 72.0501 80.5047 84.5438 80.3583C95.7015 80.2224 101.463 78.6437 104.365 78.3405C105.815 78.1627 106.755 76.7513 106.379 75.3712Z" fill="#110580"/>
<path d="M89.3137 71.1892H79.7738V87.4575C79.7738 88.8167 80.8802 89.9249 82.2371 89.9249H86.8504C88.2073 89.9249 89.3137 88.8167 89.3137 87.4575V71.1892Z" fill="#FCB58A"/>
<path d="M84.4185 41.4965C87.7042 41.4965 90.3679 38.8284 90.3679 35.5371C90.3679 32.2458 87.7042 29.5776 84.4185 29.5776C81.1327 29.5776 78.4691 32.2458 78.4691 35.5371C78.4691 38.8284 81.1327 41.4965 84.4185 41.4965Z" fill="#110580"/>
<path d="M70.401 73.1131C68.8563 73.1131 68.8041 67.9064 68.8041 67.3104C68.8041 66.7145 68.8458 61.5078 70.401 61.5078C71.9458 61.5078 71.998 66.7145 71.998 67.3104C71.9771 67.9064 71.9249 73.1131 70.401 73.1131ZM70.401 62.407C70.1192 62.7833 69.6704 64.4457 69.6704 67.2895C69.6704 70.1333 70.1192 71.7957 70.401 72.1721C70.6828 71.7957 71.1317 70.1333 71.1317 67.2895C71.1317 64.4562 70.6828 62.8147 70.401 62.407Z" fill="white"/>
<path d="M98.4048 73.1131C96.86 73.1131 96.8079 67.9064 96.8079 67.3104C96.8079 66.7145 96.8496 61.5078 98.4048 61.5078C99.9495 61.5078 100.002 66.7145 100.002 67.3104C99.9808 67.9064 99.9287 73.1131 98.4048 73.1131ZM98.4048 62.407C98.123 62.7833 97.6742 64.4457 97.6742 67.2895C97.6742 70.1333 98.123 71.7957 98.4048 72.1721C98.6866 71.7957 99.1354 70.1333 99.1354 67.2895C99.1354 64.4562 98.6866 62.8147 98.4048 62.407Z" fill="white"/>
<path d="M84.5541 74.7335C93.2643 74.7335 100.325 67.6606 100.325 58.9357C100.325 50.2108 93.2643 43.1379 84.5541 43.1379C75.844 43.1379 68.7831 50.2108 68.7831 58.9357C68.7831 67.6606 75.844 74.7335 84.5541 74.7335Z" fill="#FCB58A"/>
<path d="M68.4596 60.0859C68.4805 60.3473 68.5013 60.5982 68.5327 60.8387C68.5327 60.8596 68.5327 60.9119 68.5327 60.9328C68.5535 61.2151 68.6057 61.4764 68.6475 61.7587V61.7796C68.6892 62.0619 68.7623 62.3442 68.8145 62.6474C69.8687 58.2772 73.7827 55.0674 78.4692 55.0674C79.0537 55.0674 79.6173 55.1092 80.1809 55.2033C80.5984 55.2974 81.0263 55.3392 81.4647 55.3392C84.3977 55.3392 86.8296 53.1123 87.1323 50.2476C87.1323 50.2476 87.1532 50.2476 87.1532 50.2267C87.1114 50.5299 87.0801 50.8331 87.0801 51.1467C87.0801 54.5028 89.7938 57.2212 93.1443 57.2212H93.1651C96.4425 57.8799 99.0728 60.3159 100.033 63.4838C100.242 62.7833 100.388 62.0515 100.503 61.3196C100.503 61.2987 100.503 61.2778 100.503 61.2255C100.544 60.9223 100.576 60.6191 100.597 60.2845C100.597 60.2114 100.618 60.1173 100.618 60.0545C100.638 59.6991 100.659 59.354 100.659 58.9986C100.659 58.6954 100.659 58.4131 100.638 58.1308C100.638 58.0367 100.618 57.9635 100.618 57.8694C100.597 57.6603 100.597 57.4512 100.576 57.263C100.576 57.1689 100.555 57.0748 100.534 56.9807C100.513 56.7925 100.492 56.5834 100.461 56.3952C100.44 56.3011 100.44 56.207 100.419 56.1129C100.377 55.9247 100.346 55.7156 100.304 55.5274C100.284 55.4333 100.263 55.3602 100.263 55.2661C100.221 55.057 100.169 54.8688 100.096 54.6597C100.075 54.5865 100.054 54.5237 100.023 54.4506C99.9495 54.2415 99.8869 54.0323 99.8138 53.8128C99.793 53.771 99.7721 53.6978 99.7721 53.6455C99.699 53.4155 99.6051 53.175 99.5111 52.9659C99.4903 52.945 99.4903 52.8927 99.4694 52.8718C99.3755 52.6104 99.2606 52.3595 99.1458 52.0981C97.7681 49.1393 95.4927 46.651 92.6746 45.0095C91.7874 44.4972 90.848 44.0476 89.8669 43.7235C89.846 43.7235 89.7938 43.7026 89.773 43.7026C89.4911 43.6085 89.2093 43.5144 88.9066 43.4412C88.8649 43.4203 88.8127 43.4203 88.771 43.3994C88.1343 43.2321 87.4872 43.0962 86.8296 43.0021C86.7357 42.9812 86.6626 42.9812 86.5687 42.9812C86.3077 42.9603 86.0781 42.9394 85.8172 42.908C85.7232 42.908 85.6293 42.8871 85.5353 42.8871C85.2118 42.8662 84.8778 42.8662 84.5229 42.8662C75.6197 42.8662 68.397 50.1012 68.397 59.0195C68.397 59.3227 68.397 59.605 68.4178 59.9082C68.4596 59.9918 68.4596 60.0441 68.4596 60.0859Z" fill="#110580"/>
<path d="M99.9286 85.2097C95.9206 82.8155 91.3281 81.9895 89.3137 81.6863C88.677 84.3105 87.341 85.7743 84.3976 85.7743C81.4021 85.7743 80.3688 84.2687 79.8051 81.5713C79.1998 81.5922 77.3419 81.9686 76.9244 82.0627C71.4864 83.1187 69.2841 84.5301 66.5391 86.5689C62.3432 89.7159 58.2412 96.2399 57.3541 97.7141C57.2392 97.9023 57.2392 98.1323 57.3541 98.3205C57.8446 99.0733 59.2015 101.018 61.1533 102.283C63.8671 104.092 67.1027 105.075 67.1027 105.075C67.1027 105.075 68.4178 102.68 68.7936 101.76C69.305 100.558 70.6723 96.5222 70.6723 96.5222C70.6723 96.5222 69.4302 99.2196 69.3363 102.011C69.2632 104.573 70.1296 107.458 70.0669 109.152C69.8791 113.02 68.7309 116.356 68.3343 117.861C68.2404 118.217 68.4491 118.593 68.8249 118.656C70.9124 119.126 77.1436 120.538 83.4687 120.506C91.6935 120.506 97.3401 119.618 99.3337 119.304C99.7095 119.231 99.9391 118.886 99.8451 118.509C99.5216 117.192 98.958 114.944 98.3943 109.915C97.9455 105.974 98.4152 105.221 98.3943 102.45C98.3943 100.412 97.5489 96.3236 97.5489 96.3236L98.3421 104.113C98.3421 104.113 101.223 104.249 105.346 102.45C106.776 101.813 108.581 100.192 109.333 99.4706C109.542 99.2615 109.615 98.9269 109.469 98.676C108.435 96.5431 103.874 87.5517 99.9286 85.2097Z" fill="white"/>
<path d="M84.5542 74.7336C82.8946 74.7336 81.2977 74.4722 79.7947 74.0017V76.9605C81.2977 77.431 82.9364 77.4519 84.6272 77.2846C86.8504 77.0755 87.8107 76.6469 89.3137 75.9986V74.0017C87.8211 74.4722 86.2242 74.7336 84.5542 74.7336Z" fill="#E3996D"/>
<path d="M71.0167 119.199C71.0167 119.199 78.7927 120.517 84.2306 120.517C89.9921 120.517 97.121 119.691 97.121 119.691C97.121 119.691 97.7576 123.8 98.0081 124.688C98.2691 125.577 93.3008 127.365 84.4394 127.177C72.8433 126.968 70.0774 125.295 70.0774 124.824C70.0565 124.5 71.0167 119.199 71.0167 119.199Z" fill="#FCB58A"/>
<path d="M100.847 127.386C108.039 141.709 111.42 150.69 113.341 169.897C114.959 186.05 112.923 207.619 112.589 219.945C112.589 220.322 112.495 220.698 112.287 221.022C111.702 221.963 107.955 222.737 106.922 222.81C101.724 223.166 96.8913 222.413 96.4216 220.583C93.7496 209.741 91.6621 198.303 90.1904 186.97C88.9692 177.581 87.5184 167.115 86.6939 159.389C86.6208 158.751 85.6814 158.73 85.6188 159.389C85.4831 160.675 85.3161 167.889 85.1282 170.022C84.6168 176.076 83.6044 182.045 82.6232 188.047C81.0785 197.582 77.3941 211.027 74.6072 220.092C74.4194 220.698 73.7827 221.545 73.0834 221.66C71.8413 221.848 68.8666 222.11 67.2906 221.984C64.9734 221.796 60.0991 221.116 59.8382 219.966C56.3208 205.298 56.2059 177.006 61.289 147.596C62.5102 140.601 65.3179 132.781 67.8959 128.086C67.8959 128.086 76.2146 129.728 83.8549 129.707C93.0607 129.665 100.847 127.386 100.847 127.386Z" fill="#BF47A9"/>
<path d="M36.7504 40.4197L26.4173 37.0845C25.8119 36.8754 25.457 36.2167 25.6449 35.5789L27.8263 28.8144C28.0351 28.208 28.6926 27.8525 29.3293 28.0407L39.6624 31.3759C40.2678 31.585 40.6227 32.2437 40.4348 32.8815L38.2534 39.646C38.0446 40.2733 37.3662 40.6288 36.7504 40.4197Z" fill="url(#paint0_linear_170_17836)"/>
<path d="M41.562 34.7633C41.1445 34.7633 40.7688 35.0456 40.6435 35.4429L40.2678 36.5721L39.892 37.7012C39.7772 38.0985 39.892 38.5481 40.2469 38.7781L43.0337 40.8901C43.5764 41.3083 44.3697 41.0573 44.5576 40.3987L45.2882 38.1717L46.0188 35.9448C46.2276 35.2861 45.737 34.6274 45.0586 34.6588L41.562 34.7633Z" fill="url(#paint1_linear_170_17836)"/>
<path d="M70.0565 124.856C70.0565 124.856 69.138 125.065 68.6057 126.006C68.0734 126.947 67.9272 128.076 67.9272 128.076C67.9272 128.076 73.9497 129.864 85.337 130.167C96.3695 130.449 100.847 127.396 100.847 127.396C100.847 127.396 100.451 126.152 99.5112 125.609C98.5718 125.065 97.9664 124.688 97.9664 124.688C97.9664 124.688 94.522 127.762 84.001 127.01C73.5009 126.236 70.0565 124.856 70.0565 124.856Z" fill="#FF7F87"/>
<path d="M22.1301 56.9797L18.5284 57.2429L20.1198 79.0874L23.7214 78.8241L22.1301 56.9797Z" fill="#DADAED"/>
<path d="M19.965 60.0799L18.7263 60.1704L18.7453 60.4311L19.984 60.3405L19.965 60.0799Z" fill="url(#paint2_linear_170_17836)"/>
<path d="M20.1533 62.5259L18.9146 62.6165L18.9335 62.8771L20.1722 62.7866L20.1533 62.5259Z" fill="url(#paint3_linear_170_17836)"/>
<path d="M20.3408 64.9619L19.1021 65.0525L19.121 65.3132L20.3598 65.2226L20.3408 64.9619Z" fill="url(#paint4_linear_170_17836)"/>
<path d="M20.4977 67.409L19.259 67.4995L19.278 67.7602L20.5167 67.6696L20.4977 67.409Z" fill="url(#paint5_linear_170_17836)"/>
<path d="M20.6859 69.8763L19.4471 69.9668L19.4661 70.2275L20.7048 70.1369L20.6859 69.8763Z" fill="url(#paint6_linear_170_17836)"/>
<path d="M20.8525 72.312L19.6138 72.4026L19.6328 72.6633L20.8715 72.5727L20.8525 72.312Z" fill="url(#paint7_linear_170_17836)"/>
<path d="M21.0407 74.7583L19.802 74.8489L19.821 75.1095L21.0597 75.019L21.0407 74.7583Z" fill="url(#paint8_linear_170_17836)"/>
<path d="M18.4523 64.5002L16.1699 64.9004L19.184 82.1501L21.4663 81.75L18.4523 64.5002Z" fill="#FFADB2"/>
<path d="M18.4535 64.4981L16.1572 64.8953L16.533 61.6124L17.0027 61.5183L18.4535 64.4981Z" fill="#EBDBCD"/>
<path d="M16.6687 63.1179L17.0027 62.9088L17.2532 62.9297L17.608 62.7625L17.0027 61.5183L16.533 61.6124L16.366 62.9297L16.6687 63.1179Z" fill="#FF7A82"/>
<path d="M23.7767 78.5392C23.3801 78.466 23.1191 78.0896 23.1713 77.6923L24.9457 66.1707C24.9666 66.0766 24.9874 65.9825 25.0187 65.8884L26.0521 62.9819C26.1877 62.6578 26.5426 62.4382 26.8975 62.5114L27.0645 62.5323C27.4194 62.6055 27.6699 62.9296 27.6699 63.2851L27.4402 66.3589C27.4402 66.453 27.4194 66.5471 27.3985 66.6621L24.6534 77.9746C24.5491 78.3719 24.1733 78.6333 23.7767 78.5392Z" fill="#2B31BA"/>
<path d="M37.2411 86.4224H22.3154V91.42H37.2411V86.4224Z" fill="#F8D7BC"/>
<path d="M37.8778 86.0774V86.4538H22.2946V91.4514H37.8778V91.8277H5.84509V86.0774H37.8778Z" fill="#FF7A82"/>
<path d="M17.6289 100.391H39.6834V92.3193H17.6289C16.5226 92.3193 15.6562 93.208 15.6562 94.2954V98.4043C15.6354 99.5021 16.533 100.391 17.6289 100.391Z" fill="#F8ECE2"/>
<path d="M4.5821 91.8279H40.675C40.8107 91.8279 40.9359 91.9429 40.9359 92.0893C40.9359 92.2252 40.8211 92.3506 40.675 92.3506H36.2495H19.6956C17.4724 92.3506 15.6667 94.1594 15.6667 96.3863C15.6667 98.6133 17.4724 100.422 19.6956 100.422H40.1322H40.675C40.8107 100.422 40.9359 100.537 40.9359 100.683C40.9359 100.819 40.8211 100.945 40.675 100.945H4.5821C2.35891 100.945 0.553223 99.1361 0.553223 96.9091V95.895C0.553223 93.6366 2.34847 91.8279 4.5821 91.8279Z" fill="#2B31BA"/>
<path d="M39.6834 93.6367H18.7562V93.919H39.6834V93.6367Z" fill="#EBD0BE"/>
<path d="M39.6834 96.9404H17.2532V97.2227H39.6834V96.9404Z" fill="#EBD0BE"/>
<path d="M39.6834 98.676H19.9983V98.9583H39.6834V98.676Z" fill="#EBD0BE"/>
<path d="M39.7043 95.3931H17.9316V95.6754H39.7043V95.3931Z" fill="#EBD0BE"/>
<path d="M22.5763 85.858H8.84058V82.9724H22.5763C22.973 82.9724 23.2756 83.2756 23.2756 83.6729V85.1262C23.2756 85.5339 22.973 85.858 22.5763 85.858Z" fill="#F8E7D8"/>
<path d="M31.1037 82.7632H8.25605C8.2143 82.7632 8.16211 82.805 8.16211 82.8573C8.16211 82.8991 8.20386 82.9514 8.25605 82.9514H21.8039C22.5972 82.9514 23.2339 83.6101 23.2339 84.3837C23.2339 85.1783 22.5763 85.8161 21.8039 85.8161H8.25605C8.2143 85.8161 8.16211 85.8579 8.16211 85.9102C8.16211 85.952 8.20386 86.0043 8.25605 86.0043H31.1037C31.897 86.0043 32.5337 85.3456 32.5337 84.5719V84.1537C32.5546 83.401 31.9074 82.7632 31.1037 82.7632Z" fill="#FF5856"/>
<path d="M16.8566 70.677H26.8871C27.148 70.677 27.3567 70.907 27.3046 71.1684L25.8537 82.7632H17.8169L16.4078 71.1684C16.3869 70.907 16.5957 70.677 16.8566 70.677Z" fill="url(#paint9_linear_170_17836)"/>
<path d="M27.0749 62.4592L26.9079 62.4382C26.5322 62.3651 26.1773 62.5533 26.0416 62.9087L24.9874 65.8676C24.9666 65.9094 24.9666 65.9408 24.9666 65.9826C25.2901 66.2649 25.7181 66.474 26.2086 66.5472C26.6574 66.6204 27.0749 66.589 27.4298 66.474C27.4298 66.4322 27.4507 66.4008 27.4507 66.359L27.6803 63.2328C27.7116 62.8565 27.4507 62.5533 27.0749 62.4592Z" fill="#D7D7E6"/>
<path d="M27.127 57.9949C27.221 57.8067 27.5028 57.8067 27.5967 57.9949C27.7637 58.319 27.9725 58.7268 28.1395 59.0091C28.4213 59.5005 28.557 60.6505 28.4213 61.1942C28.2543 61.8529 27.7846 62.5325 27.6489 62.7416C27.6281 62.7834 27.5759 62.8148 27.5341 62.8357C27.3984 62.8775 27.1375 62.9298 26.7826 62.8566C26.292 62.7416 26.2399 62.407 26.2399 62.407C26.2399 62.407 25.958 61.3301 26.0102 60.6714C26.052 60.0128 26.4069 59.1659 26.5739 59.03C26.626 58.915 26.9079 58.4027 27.127 57.9949Z" fill="#C7645D"/>
<path d="M65.9546 225.863C69.2319 225.905 71.3716 224.88 71.3716 224.88C71.3716 224.88 72.7076 227.724 72.9686 229.198C73.2295 230.673 74.0019 235.681 72.8537 236.611C71.6117 237.646 71.8413 237.364 70.2548 238.044C68.0316 238.984 67.0714 238.535 64.0445 240.082C62.9172 240.668 58.0429 245.195 53.1269 245.624C48.9832 245.979 47.8768 243.982 47.3862 242.874C46.8957 241.766 47.7829 239.633 50.7158 237.448C54.275 234.792 57.8446 230.997 58.5648 230.035C60.7671 227.076 61.7482 224.358 61.7482 224.358C61.7482 224.358 62.5832 225.79 65.9546 225.863Z" fill="#C7645D"/>
<path d="M105.252 226.187C101.974 226.229 100.002 225.152 100.002 225.152C100.002 225.152 98.53 227.316 98.0081 230.077C97.7472 231.551 97.2149 235.994 98.363 236.956C99.6051 237.991 99.3755 237.709 100.962 238.389C103.185 239.329 104.145 238.88 107.172 240.427C108.3 241.013 113.153 245.592 118.09 245.969C121.085 246.199 123.34 244.327 123.831 243.219C124.321 242.111 124.373 239.863 120.668 237.395C116.963 234.928 112.61 231.007 112.047 229.93C111.18 228.289 109.448 224.65 109.448 224.65C109.448 224.65 108.623 226.114 105.252 226.187Z" fill="#C7645D"/>
<path d="M147.805 64.8953C145.457 65.5331 143.046 64.1425 142.42 61.8215L141.292 57.6917C140.656 55.3393 142.044 52.9241 144.361 52.2968C146.709 51.659 149.121 53.0496 149.747 55.3706L150.874 59.5004C151.511 61.8215 150.154 64.2471 147.805 64.8953Z" fill="url(#paint10_linear_170_17836)"/>
<path d="M148.484 67.436C144.643 68.492 140.677 66.2128 139.622 62.3652L139.487 61.8529C139.372 61.4034 139.622 60.9329 140.071 60.8179C140.52 60.7029 140.99 60.9538 141.105 61.4034L141.24 61.9157C142.033 64.8536 145.081 66.6101 148.035 65.7841C150.968 64.9895 152.721 61.9366 151.897 58.9778L151.761 58.4655C151.646 58.0159 151.897 57.5454 152.346 57.4304C152.795 57.3154 153.264 57.5663 153.379 58.0159L153.515 58.5282C154.6 62.4071 152.335 66.38 148.484 67.436Z" fill="url(#paint11_linear_170_17836)"/>
<path d="M153.525 68.5337C153.943 68.4187 154.089 67.9273 153.807 67.5927C152.429 66.0244 150.216 65.2717 148.087 65.8571C145.927 66.4426 144.434 68.2096 144.037 70.2692C143.964 70.6874 144.34 71.0429 144.768 70.9488L153.525 68.5337Z" fill="url(#paint12_linear_170_17836)"/>
<path d="M126.502 89.4755C127.348 87.6877 129.665 86.1612 131.418 86.3076C133.172 86.4435 132.619 86.4958 133.172 86.4435C133.736 86.4017 134.602 85.8057 135.771 86.1612C137.086 86.5585 139.852 88.0118 139.894 91.2529C139.935 94.0235 137.921 97.1914 134.268 97.9233C130.615 98.6551 128.152 97.2855 127.045 95.7172C125.803 93.9085 125.688 91.1901 126.502 89.4755Z" fill="#FF5856"/>
<path d="M132.201 88.6077C132.201 88.6077 131.92 84.457 133.61 82.6901C135.489 80.7454 137.942 78.9157 137.754 80.1076C137.712 80.3899 138.109 84.4047 136.982 85.9103C135.27 88.2104 132.201 88.6077 132.201 88.6077Z" fill="#4C7378"/>
<path d="M131.753 88.4405C131.753 88.4405 131.429 86.6526 131.116 85.6489C130.458 83.5788 130.041 82.596 130.041 82.596L131.867 82.1987C131.867 82.1987 132.546 84.6348 132.661 85.5758C132.89 87.2381 132.755 88.3464 132.755 88.3464C132.755 88.3464 132.525 88.7228 132.191 88.6705C131.826 88.6809 131.753 88.4405 131.753 88.4405Z" fill="#6B4D3A"/>
<path d="M131.038 82.8519C131.549 82.7628 131.929 82.4922 131.887 82.2476C131.844 82.003 131.395 81.8769 130.884 81.9661C130.373 82.0552 129.993 82.3257 130.036 82.5703C130.078 82.815 130.527 82.941 131.038 82.8519Z" fill="#8A634B"/>
<path d="M166.342 100.882H123.695C123.319 100.882 123.016 100.579 123.016 100.202V98.5087C123.016 98.1323 123.319 97.8291 123.695 97.8291H166.322C166.697 97.8291 167 98.1323 167 98.5087V100.202C167 100.579 166.697 100.882 166.342 100.882Z" fill="#C5C6E3"/>
<path d="M144.695 97.3376H135.364V94.0547H144.695C144.956 94.0547 145.144 94.2638 145.144 94.5043V96.8776C145.165 97.1285 144.946 97.3376 144.695 97.3376Z" fill="#F8D0B3"/>
<path d="M161.489 93.5425H142.973H134.853H134.592C134.456 93.5425 134.331 93.6575 134.331 93.8039C134.331 93.9398 134.446 94.0652 134.592 94.0652H135.364H144.225C144.737 94.0652 145.144 94.4834 145.144 94.9853V96.4386C145.144 96.9509 144.726 97.3586 144.225 97.3586H142.211H134.665C134.529 97.3586 134.404 97.4736 134.404 97.62C134.404 97.7559 134.519 97.8814 134.665 97.8814H134.853H143.036H161.499C162.011 97.8814 162.418 97.4632 162.418 96.9613V94.4939C162.408 93.9398 162.011 93.5425 161.489 93.5425Z" fill="#FF7A82"/>
<path d="M149.235 93.302H134.164V90.134H149.235C149.684 90.134 150.029 90.4895 150.029 90.9286V92.4969C150.029 92.9465 149.684 93.302 149.235 93.302Z" fill="#F8E7D8"/>
<path d="M158.66 89.9041H133.517C133.443 89.9041 133.402 89.9459 133.402 90.0191C133.402 90.0922 133.443 90.1341 133.517 90.1341H148.421C149.288 90.1341 150.018 90.8346 150.018 91.7337C150.018 92.6015 149.319 93.3334 148.421 93.3334H133.517C133.443 93.3334 133.402 93.3752 133.402 93.4484C133.402 93.5216 133.443 93.5634 133.517 93.5634H158.64C159.506 93.5634 160.237 92.8629 160.237 91.9637V91.4932C160.226 90.6046 159.527 89.9041 158.66 89.9041Z" fill="#4E53BA"/>
<path d="M145.624 92.361H134.143V92.2251H145.624C145.666 92.2251 145.697 92.246 145.697 92.2983C145.718 92.3401 145.676 92.361 145.624 92.361Z" fill="#DEBCA7"/>
<path d="M148.275 91.3261H134.164V91.1902H148.275C148.317 91.1902 148.348 91.2111 148.348 91.2634C148.348 91.2843 148.327 91.3261 148.275 91.3261Z" fill="#DEBCA7"/>
<path d="M127.556 43.3157C128.03 42.391 126.464 40.639 124.059 39.4024C121.653 38.1659 119.319 37.9131 118.846 38.8379C118.372 39.7626 119.938 41.5146 122.343 42.7511C124.748 43.9877 127.082 44.2404 127.556 43.3157Z" fill="#D4BFA9"/>
<path d="M119.708 37.3145C120.595 35.6939 121.346 34.0316 121.701 32.2228C122.474 28.323 121.42 23.7959 123.904 20.7221C125.688 18.4951 128.872 17.8156 131.68 18.2129C135.124 18.7043 138.401 20.7221 139.977 23.8273C141.543 26.922 141.146 31.0623 138.662 33.4774C136.575 35.5162 133.464 36.1749 131.283 38.0986C130.062 39.1755 129.195 40.6079 128.287 41.9671L127.985 42.3853C121.326 41.6639 119.708 37.3145 119.708 37.3145Z" fill="#EBDBCD"/>
<path d="M131.471 31.282C131.189 30.2469 130.302 30.2992 129.498 30.6442C129.31 30.0796 129.008 29.3582 128.423 29.1177C127.766 28.8564 127.014 29.3059 126.503 29.7032C125.375 30.571 124.509 31.8361 123.998 33.1534C123.486 34.4708 123.225 35.8718 122.756 37.2101C122.568 37.7537 123.434 37.9837 123.622 37.4401C124.206 35.7463 124.446 33.8958 125.375 32.3484C125.887 31.4806 126.638 30.4665 127.598 30.0692C127.901 29.9332 128.11 29.9019 128.329 30.2051C128.496 30.4351 128.611 30.7174 128.684 30.9788C128.684 30.9997 128.705 31.0206 128.705 31.0519C128.59 31.1251 128.496 31.1879 128.402 31.261C127.484 31.9406 126.273 33.1639 126.294 34.4081C126.294 34.9726 126.649 35.4431 127.233 35.4849C127.87 35.5268 128.496 35.0354 128.893 34.5649C129.644 33.6971 129.874 32.5679 129.717 31.4702C129.926 31.3551 130.114 31.282 130.302 31.261C130.865 31.2192 130.604 32.1288 130.531 32.432C130.25 33.4462 129.665 34.3349 129.102 35.2027C128.684 35.8613 128.308 36.5618 127.786 37.1473C127.223 37.806 126.471 38.2556 125.772 38.7156C125.281 39.0188 125.73 39.7925 126.221 39.4893C127.066 38.9456 127.933 38.4124 128.569 37.6387C129.248 36.8128 129.811 35.8822 130.354 34.9622C130.938 33.9899 131.805 32.4843 131.471 31.282ZM128.799 32.8084C128.684 33.2789 128.475 33.7285 128.141 34.0735C127.953 34.2826 127.087 34.9936 127.16 34.3349C127.202 33.9376 127.515 33.5089 127.745 33.1848C128.047 32.7666 128.444 32.3902 128.872 32.0556C128.872 32.2961 128.872 32.5575 128.799 32.8084Z" fill="#BFA990"/>
<path d="M122.338 42.7615C120.157 41.6533 118.685 40.1059 118.747 39.144L117.641 43.0438C117.265 43.7966 118.528 45.2081 120.48 46.2118C122.421 47.2259 124.321 47.435 124.697 46.6823C124.718 46.6404 124.718 46.6091 124.739 46.5672L127.338 43.5875C126.628 44.1939 124.519 43.8907 122.338 42.7615Z" fill="#BFA990"/>
<path d="M98.123 12.8389C98.1021 12.8389 98.0813 12.8389 98.0499 12.818C97.956 12.7762 97.9143 12.6507 97.956 12.5566C98.123 12.1802 98.3109 11.8247 98.5614 11.5006C98.6345 11.4065 98.7493 11.3856 98.8432 11.4588C98.9371 11.532 98.958 11.647 98.885 11.7411C98.6553 12.0443 98.4674 12.3789 98.3213 12.7239C98.29 12.7866 98.2169 12.8389 98.123 12.8389Z" fill="#110580"/>
<path d="M129.79 24.9251C129.769 24.9251 129.749 24.9251 129.717 24.9042L129.435 24.8101C128.799 24.5801 128.152 24.3187 127.442 24.0364C127.348 23.9946 127.306 23.8692 127.327 23.7751C127.369 23.681 127.494 23.6392 127.588 23.6601C128.266 23.9424 128.924 24.2037 129.561 24.4337L129.843 24.5278C129.936 24.5697 130.01 24.6951 129.957 24.7892C129.947 24.8729 129.884 24.9251 129.79 24.9251ZM125.334 23.0432C125.313 23.0432 125.26 23.0432 125.24 23.0223C124.467 22.625 123.789 22.1963 123.131 21.7572C123.037 21.684 123.016 21.569 123.09 21.4749C123.163 21.3808 123.277 21.3599 123.371 21.4331C124.008 21.8827 124.655 22.28 125.438 22.6564C125.532 22.6982 125.574 22.8236 125.532 22.9177C125.48 23.0014 125.407 23.0432 125.334 23.0432ZM121.399 20.2517C121.357 20.2517 121.305 20.2308 121.263 20.1785C120.678 19.593 120.157 18.9343 119.718 18.2547C119.645 18.1606 119.697 18.0456 119.791 17.9724C119.885 17.8993 120 17.9515 120.073 18.0456C120.491 18.7043 120.992 19.3107 121.576 19.8962C121.649 19.9694 121.649 20.1053 121.576 20.1785C121.493 20.2308 121.44 20.2517 121.399 20.2517ZM118.8 16.1951C118.727 16.1951 118.633 16.1532 118.612 16.0591C118.33 15.2855 118.121 14.4909 118.006 13.6649C117.986 13.5499 118.079 13.4558 118.173 13.4349C118.288 13.414 118.382 13.5081 118.403 13.6022C118.518 14.3759 118.706 15.1495 118.988 15.9023C119.029 15.9964 118.967 16.1114 118.873 16.1637C118.841 16.1951 118.821 16.1951 118.8 16.1951ZM120.104 13.6335C119.656 13.6335 119.217 13.6126 118.768 13.5394C118.654 13.5185 118.581 13.4244 118.601 13.3094C118.622 13.1944 118.716 13.1212 118.831 13.1421C119.248 13.2153 119.697 13.2362 120.115 13.2362C120.491 13.2362 120.845 13.2153 121.19 13.1631C121.305 13.1421 121.399 13.2362 121.42 13.3303C121.44 13.4244 121.346 13.5394 121.252 13.5604C120.856 13.6126 120.48 13.6335 120.104 13.6335ZM116.451 12.933C116.43 12.933 116.409 12.933 116.378 12.933C115.7 12.703 115.021 12.3894 114.124 11.9921C114.03 11.9503 113.988 11.8248 114.03 11.7307C114.071 11.6366 114.197 11.5948 114.291 11.6366C115.157 12.0339 115.835 12.3371 116.514 12.5776C116.608 12.6194 116.681 12.7135 116.629 12.8389C116.618 12.8808 116.524 12.933 116.451 12.933ZM123.507 12.8389C123.434 12.8389 123.371 12.7971 123.34 12.7448C123.298 12.6508 123.319 12.5357 123.413 12.4626C123.789 12.2535 124.112 12.013 124.425 11.7307C124.686 11.5007 124.916 11.2184 125.104 10.8838C125.146 10.7897 125.292 10.7688 125.386 10.8106C125.48 10.8525 125.501 10.9988 125.459 11.0929C125.25 11.4484 124.989 11.7516 124.707 12.013C124.384 12.3162 124.029 12.5776 123.632 12.7867C123.58 12.8389 123.528 12.8389 123.507 12.8389ZM118.163 11.4275C118.027 11.4066 117.954 11.3125 117.975 11.2184C118.069 10.3506 118.299 9.55602 118.654 8.82415C118.695 8.73006 118.821 8.68823 118.915 8.73006C119.008 8.77188 119.05 8.89734 119.008 8.99144C118.685 9.67102 118.445 10.4238 118.351 11.2498C118.351 11.3543 118.257 11.4275 118.163 11.4275ZM112.026 10.957C112.005 10.957 111.984 10.957 111.932 10.9361C111.671 10.8211 111.42 10.7061 111.159 10.5806C110.648 10.3506 110.178 10.1624 109.73 9.97422C109.636 9.9324 109.562 9.80694 109.615 9.71284C109.656 9.61875 109.782 9.54556 109.876 9.59784C110.345 9.78603 110.815 9.97422 111.326 10.2042C111.587 10.3192 111.838 10.4343 112.099 10.5597C112.193 10.6015 112.234 10.727 112.193 10.8211C112.161 10.9152 112.099 10.957 112.026 10.957ZM100.471 10.1833C100.398 10.1833 100.336 10.1624 100.304 10.0892C100.231 9.99513 100.284 9.88013 100.377 9.80694C101.056 9.35737 101.828 9.03326 102.653 8.82415C102.768 8.80324 102.862 8.86597 102.882 8.96007C102.903 9.07508 102.841 9.16917 102.747 9.19008C101.974 9.39919 101.244 9.70239 100.586 10.1311C100.565 10.1833 100.513 10.1833 100.471 10.1833ZM107.506 9.26327C107.485 9.26327 107.485 9.26327 107.465 9.26327C106.64 9.07508 105.847 8.98098 105.095 8.96007C104.98 8.96007 104.907 8.86597 104.907 8.75097C104.907 8.63596 105.001 8.56277 105.095 8.56277C105.868 8.58368 106.692 8.67778 107.527 8.86597C107.642 8.88688 107.694 9.00189 107.663 9.09599C107.663 9.22145 107.59 9.26327 107.506 9.26327ZM125.876 8.88688C125.761 8.88688 125.688 8.79279 125.688 8.69869C125.668 8.0191 125.407 7.43361 125.01 7.00495C124.916 6.91085 124.822 6.81676 124.728 6.74357C124.634 6.67038 124.634 6.55538 124.686 6.46128C124.759 6.36718 124.874 6.36718 124.968 6.41946C125.083 6.51356 125.198 6.60765 125.292 6.72266C125.782 7.23496 126.064 7.89364 126.085 8.66732C126.085 8.79279 125.991 8.88688 125.876 8.88688C125.897 8.88688 125.876 8.88688 125.876 8.88688ZM120.324 7.22451C120.25 7.22451 120.209 7.2036 120.157 7.15132C120.083 7.05723 120.115 6.94222 120.198 6.86903C120.877 6.35673 121.701 6.00125 122.495 5.88625C122.609 5.86533 122.703 5.95943 122.724 6.05353C122.745 6.16854 122.651 6.26263 122.557 6.28354C121.806 6.37764 121.054 6.70175 120.449 7.2036C120.417 7.22451 120.365 7.22451 120.324 7.22451Z" fill="#110580"/>
<path d="M133.026 26.4935C132.984 26.4935 132.932 26.4726 132.89 26.4517C132.682 26.2635 132.379 26.0544 131.951 25.8453C131.857 25.8035 131.815 25.678 131.857 25.5839C131.899 25.4898 132.024 25.448 132.118 25.4898C132.567 25.7199 132.89 25.9394 133.151 26.1485C133.224 26.2217 133.245 26.3576 133.172 26.4308C133.141 26.4726 133.068 26.4935 133.026 26.4935Z" fill="#110580"/>
<path d="M131.262 1.26497C132.577 5.72933 132.462 9.85913 132.337 14.4385C132.316 15.7036 136.439 15.3063 136.721 14.2085C137.827 9.79639 137.044 5.02883 135.646 0.784028C135.197 -0.616967 130.907 0.0626202 131.262 1.26497Z" fill="#F3E9E1"/>
<path d="M148.86 10.0369C146.866 13.6335 144.361 16.6132 141.804 19.7602C140.677 21.1403 144.612 20.9103 145.342 20.2516C148.484 17.481 150.916 13.7485 152.795 10.0369C153.358 8.96003 149.444 8.96003 148.86 10.0369Z" fill="#F3E9E1"/>
<path d="M148.16 28.7516C150.968 28.8247 153.786 28.9607 156.573 29.1279C157.585 29.2011 159.151 28.8038 159.454 27.6747C159.756 26.5455 158.42 25.9391 157.533 25.8868C154.726 25.7196 151.928 25.6046 149.121 25.5105C148.108 25.4895 146.563 25.8137 146.24 26.9637C145.937 28.0929 147.242 28.7306 148.16 28.7516Z" fill="#F3E9E1"/>
<path d="M97.7054 96.2607C97.7054 96.2607 98.3108 99.7319 98.363 101.426C98.3839 102.461 98.363 104.102 98.363 104.102C98.363 104.102 99.1354 104.102 99.532 104.06C99.9286 104.039 100.398 103.945 100.398 103.945C100.398 103.945 99.9286 102.398 99.4381 100.851C98.9684 99.4809 97.7054 96.2607 97.7054 96.2607Z" fill="#E0E0E0"/>
<path d="M70.7766 96.0725C70.7766 96.0725 69.9312 98.4877 69.5554 100.035C69.2736 101.206 69.3884 102.241 69.3258 102.523C69.2319 103.015 68.7413 104.374 68.5012 105.012C68.4282 105.2 68.2194 105.315 68.0315 105.273C67.708 105.2 67.207 105.085 66.8312 104.97C66.2259 104.782 65.7979 104.593 65.8919 104.646C65.8919 104.646 67.207 102.764 68.1464 101.175C68.95 99.805 70.7766 96.0725 70.7766 96.0725Z" fill="#E0E0E0"/>
<path d="M98.196 127.971C103.519 138.531 106.776 150.032 108.529 161.7C110.408 174.047 110.564 186.604 109.98 199.067C109.656 206.27 109.041 213.453 108.362 220.636C108.289 221.462 109.563 221.43 109.625 220.636C110.846 207.744 111.807 194.811 111.473 181.878C111.17 169.792 109.74 157.675 106.483 146.038C104.678 139.608 102.288 133.314 99.292 127.334C98.9267 126.612 97.8203 127.25 98.196 127.971Z" fill="white"/>
<path d="M69.1902 128.233C64.5455 138.96 61.9674 150.419 60.5688 161.993C59.118 173.891 58.7631 185.956 58.9092 197.927C59.0032 205.037 59.358 212.125 60.1722 219.193C60.2661 219.988 61.529 220.019 61.4351 219.193C60.0052 206.845 59.9321 194.383 60.3809 181.962C60.7775 170.388 61.7587 158.772 64.3367 147.429C65.7667 141.093 67.708 134.82 70.2861 128.86C70.5888 128.139 69.5137 127.48 69.1902 128.233Z" fill="white"/>
<path d="M40.6437 100.391H40.1009H38.3474C38.2326 100.579 38.0865 100.746 37.9299 100.882H40.6228C40.7585 100.882 40.8838 100.767 40.8838 100.621C40.9046 100.506 40.7898 100.391 40.6437 100.391Z" fill="#2B31BA"/>
<path d="M40.6436 92.3191C40.7793 92.3191 40.9045 92.2041 40.9045 92.0578C40.9045 91.9218 40.7897 91.7964 40.6436 91.7964H38.817V92.2878L40.6436 92.3191Z" fill="#2B31BA"/>
<path d="M37.335 101.781C36.2599 101.551 35.1744 101.237 34.1202 100.892H11.0951V100.966C11.0951 101.509 11.283 102.001 11.6065 102.471H35.999C36.5 102.461 36.9383 102.22 37.335 101.781Z" fill="#E3996D"/>
<path d="M127.118 101.75C127.515 102.199 127.985 102.45 128.475 102.45H154.016C154.13 102.147 154.204 101.844 154.183 101.488V100.882H130.229C129.206 101.216 128.172 101.52 127.118 101.75Z" fill="#E3996D"/>
<path d="M84.2307 120.506C78.7927 120.506 71.0168 119.189 71.0168 119.189C71.0168 119.189 70.902 119.795 70.7559 120.621C74.2733 121.73 79.0328 122.284 84.2515 122.096C89.1676 121.907 93.6244 121.04 96.9957 119.795C97.0375 119.774 97.0688 119.754 97.1105 119.722C97.1105 119.701 97.1105 119.68 97.1105 119.68C97.1105 119.68 89.9713 120.527 84.2307 120.506Z" fill="#F0A173"/>
</g>
<defs>
<linearGradient id="paint0_linear_170_17836" x1="33.0399" y1="27.9902" x2="33.0399" y2="40.4798" gradientUnits="userSpaceOnUse">
<stop stop-color="#DC3D8E"/>
<stop offset="1" stop-color="#AC4DBA"/>
</linearGradient>
<linearGradient id="paint1_linear_170_17836" x1="42.9583" y1="34.6577" x2="42.9583" y2="41.0949" gradientUnits="userSpaceOnUse">
<stop stop-color="#DC3D8E"/>
<stop offset="1" stop-color="#AC4DBA"/>
</linearGradient>
<linearGradient id="paint2_linear_170_17836" x1="19.3457" y1="60.1251" x2="19.3647" y2="60.3858" gradientUnits="userSpaceOnUse">
<stop stop-color="#DC3D8E"/>
<stop offset="1" stop-color="#AC4DBA"/>
</linearGradient>
<linearGradient id="paint3_linear_170_17836" x1="19.5339" y1="62.5712" x2="19.553" y2="62.8319" gradientUnits="userSpaceOnUse">
<stop stop-color="#DC3D8E"/>
<stop offset="1" stop-color="#AC4DBA"/>
</linearGradient>
<linearGradient id="paint4_linear_170_17836" x1="19.7214" y1="65.0072" x2="19.7405" y2="65.2679" gradientUnits="userSpaceOnUse">
<stop stop-color="#DC3D8E"/>
<stop offset="1" stop-color="#AC4DBA"/>
</linearGradient>
<linearGradient id="paint5_linear_170_17836" x1="19.8784" y1="67.4542" x2="19.8974" y2="67.7149" gradientUnits="userSpaceOnUse">
<stop stop-color="#DC3D8E"/>
<stop offset="1" stop-color="#AC4DBA"/>
</linearGradient>
<linearGradient id="paint6_linear_170_17836" x1="20.0665" y1="69.9215" x2="20.0856" y2="70.1822" gradientUnits="userSpaceOnUse">
<stop stop-color="#DC3D8E"/>
<stop offset="1" stop-color="#AC4DBA"/>
</linearGradient>
<linearGradient id="paint7_linear_170_17836" x1="20.2331" y1="72.3573" x2="20.2522" y2="72.618" gradientUnits="userSpaceOnUse">
<stop stop-color="#DC3D8E"/>
<stop offset="1" stop-color="#AC4DBA"/>
</linearGradient>
<linearGradient id="paint8_linear_170_17836" x1="20.4214" y1="74.8036" x2="20.4404" y2="75.0643" gradientUnits="userSpaceOnUse">
<stop stop-color="#DC3D8E"/>
<stop offset="1" stop-color="#AC4DBA"/>
</linearGradient>
<linearGradient id="paint9_linear_170_17836" x1="21.8595" y1="70.677" x2="21.8595" y2="82.7632" gradientUnits="userSpaceOnUse">
<stop stop-color="#DC3D8E"/>
<stop offset="1" stop-color="#AC4DBA"/>
</linearGradient>
<linearGradient id="paint10_linear_170_17836" x1="146.084" y1="52.1418" x2="146.084" y2="65.0503" gradientUnits="userSpaceOnUse">
<stop stop-color="#DC3D8E"/>
<stop offset="1" stop-color="#AC4DBA"/>
</linearGradient>
<linearGradient id="paint11_linear_170_17836" x1="146.623" y1="57.4026" x2="146.623" y2="67.6943" gradientUnits="userSpaceOnUse">
<stop stop-color="#DC3D8E"/>
<stop offset="1" stop-color="#AC4DBA"/>
</linearGradient>
<linearGradient id="paint12_linear_170_17836" x1="148.99" y1="65.6592" x2="148.99" y2="70.9641" gradientUnits="userSpaceOnUse">
<stop stop-color="#DC3D8E"/>
<stop offset="1" stop-color="#AC4DBA"/>
</linearGradient>
<clipPath id="clip0_170_17836">
<rect width="167" height="246" fill="white"/>
</clipPath>
</defs>
</svg>
