<svg width="41" height="40" viewBox="0 0 41 40" fill="none" xmlns="http://www.w3.org/2000/svg">
<circle cx="20.6665" cy="20" r="19.5" stroke="#874C48"/>
<path d="M29.5646 17.8981L28.2684 16.6019L25.7869 19.0833H22.8794L28.6479 13.3148L27.3517 12.0186L21.5832 17.7871V14.8796L24.0646 12.3981L22.7684 11.1019L21.5832 12.2871V9H19.7498V12.2871L18.5646 11.1019L17.2684 12.3981L19.7498 14.8796V17.7871L13.9813 12.0186L12.6851 13.3148L18.4536 19.0833H15.5461L13.0646 16.6019L11.7684 17.8981L12.9536 19.0833H9.6665V20.9167H12.9536L11.7684 22.1019L13.0646 23.3981L15.5461 20.9167H18.4536L12.6851 26.6852L13.9813 27.9814L19.7498 22.2129V25.1204L17.2684 27.6019L18.5646 28.8981L19.7498 27.7129V31H21.5832V27.7129L22.7684 28.8981L24.0646 27.6019L21.5832 25.1204V22.2129L27.3517 27.9814L28.6479 26.6852L22.8794 20.9167H25.7869L28.2684 23.3981L29.5646 22.1019L28.3794 20.9167H31.6665V19.0833H28.3794L29.5646 17.8981Z" fill="#874C48"/>
</svg>
