<svg width="41" height="40" viewBox="0 0 41 40" fill="none" xmlns="http://www.w3.org/2000/svg">
<g id="Sensitive">
<g id="Subtract">
<mask id="path-1-inside-1_131_5452" fill="white">
<path fill-rule="evenodd" clip-rule="evenodd" d="M20.6666 40C31.7123 40 40.6666 31.0457 40.6666 20C40.6666 8.9543 31.7123 0 20.6666 0C9.62093 0 0.666626 8.9543 0.666626 20C0.666626 31.0457 9.62093 40 20.6666 40ZM28.2685 16.6019L29.5647 17.8981L28.3795 19.0833H31.6666V20.9167H28.3795L29.5647 22.1019L28.2685 23.3981L25.7871 20.9167H22.8795L28.6481 26.6852L27.3518 27.9814L21.5833 22.2129V25.1204L24.0647 27.6019L22.7685 28.8981L21.5833 27.7129V31H19.75V27.7129L18.5647 28.8981L17.2685 27.6019L19.75 25.1204V22.2129L13.9814 27.9814L12.6852 26.6852L18.4537 20.9167H15.5462L13.0647 23.3981L11.7685 22.1019L12.9537 20.9167H9.66663V19.0833H12.9537L11.7685 17.8981L13.0647 16.6019L15.5462 19.0833H18.4537L12.6852 13.3148L13.9814 12.0186L19.75 17.7871V14.8796L17.2685 12.3981L18.5647 11.1019L19.75 12.2871V9H21.5833V12.2871L22.7685 11.1019L24.0647 12.3981L21.5833 14.8796V17.7871L27.3518 12.0186L28.6481 13.3148L22.8795 19.0833H25.7871L28.2685 16.6019Z"/>
</mask>
<path fill-rule="evenodd" clip-rule="evenodd" d="M20.6666 40C31.7123 40 40.6666 31.0457 40.6666 20C40.6666 8.9543 31.7123 0 20.6666 0C9.62093 0 0.666626 8.9543 0.666626 20C0.666626 31.0457 9.62093 40 20.6666 40ZM28.2685 16.6019L29.5647 17.8981L28.3795 19.0833H31.6666V20.9167H28.3795L29.5647 22.1019L28.2685 23.3981L25.7871 20.9167H22.8795L28.6481 26.6852L27.3518 27.9814L21.5833 22.2129V25.1204L24.0647 27.6019L22.7685 28.8981L21.5833 27.7129V31H19.75V27.7129L18.5647 28.8981L17.2685 27.6019L19.75 25.1204V22.2129L13.9814 27.9814L12.6852 26.6852L18.4537 20.9167H15.5462L13.0647 23.3981L11.7685 22.1019L12.9537 20.9167H9.66663V19.0833H12.9537L11.7685 17.8981L13.0647 16.6019L15.5462 19.0833H18.4537L12.6852 13.3148L13.9814 12.0186L19.75 17.7871V14.8796L17.2685 12.3981L18.5647 11.1019L19.75 12.2871V9H21.5833V12.2871L22.7685 11.1019L24.0647 12.3981L21.5833 14.8796V17.7871L27.3518 12.0186L28.6481 13.3148L22.8795 19.0833H25.7871L28.2685 16.6019Z" fill="#874C48"/>
<path d="M29.5647 17.8981L30.2718 18.6052L30.979 17.8981L30.2718 17.191L29.5647 17.8981ZM28.2685 16.6019L28.9756 15.8948L28.2685 15.1877L27.5614 15.8948L28.2685 16.6019ZM28.3795 19.0833L27.6724 18.3762L25.9653 20.0833H28.3795V19.0833ZM31.6666 19.0833H32.6666V18.0833H31.6666V19.0833ZM31.6666 20.9167V21.9167H32.6666V20.9167H31.6666ZM28.3795 20.9167V19.9167H25.9653L27.6724 21.6238L28.3795 20.9167ZM29.5647 22.1019L30.2718 22.809L30.979 22.1019L30.2718 21.3948L29.5647 22.1019ZM28.2685 23.3981L27.5614 24.1052L28.2685 24.8123L28.9756 24.1052L28.2685 23.3981ZM25.7871 20.9167L26.4942 20.2096L26.2013 19.9167H25.7871V20.9167ZM22.8795 20.9167V19.9167H20.4653L22.1724 21.6238L22.8795 20.9167ZM28.6481 26.6852L29.3552 27.3923L30.0623 26.6852L29.3552 25.9781L28.6481 26.6852ZM27.3518 27.9814L26.6447 28.6886L27.3518 29.3957L28.059 28.6886L27.3518 27.9814ZM21.5833 22.2129L22.2904 21.5058L20.5833 19.7987V22.2129H21.5833ZM21.5833 25.1204H20.5833V25.5347L20.8762 25.8276L21.5833 25.1204ZM24.0647 27.6019L24.7718 28.309L25.479 27.6019L24.7718 26.8948L24.0647 27.6019ZM22.7685 28.8981L22.0614 29.6052L22.7685 30.3123L23.4756 29.6052L22.7685 28.8981ZM21.5833 27.7129L22.2904 27.0058L20.5833 25.2987V27.7129H21.5833ZM21.5833 31V32H22.5833V31H21.5833ZM19.75 31H18.75V32H19.75V31ZM19.75 27.7129H20.75V25.2987L19.0429 27.0058L19.75 27.7129ZM18.5647 28.8981L17.8576 29.6052L18.5647 30.3123L19.2718 29.6052L18.5647 28.8981ZM17.2685 27.6019L16.5614 26.8948L15.8543 27.6019L16.5614 28.309L17.2685 27.6019ZM19.75 25.1204L20.4571 25.8275L20.75 25.5347V25.1204H19.75ZM19.75 22.2129H20.75V19.7987L19.0429 21.5058L19.75 22.2129ZM13.9814 27.9814L13.2743 28.6886L13.9814 29.3957L14.6885 28.6886L13.9814 27.9814ZM12.6852 26.6852L11.9781 25.9781L11.271 26.6852L11.9781 27.3923L12.6852 26.6852ZM18.4537 20.9167L19.1608 21.6238L20.8679 19.9167H18.4537V20.9167ZM15.5462 20.9167V19.9167H15.132L14.8391 20.2096L15.5462 20.9167ZM13.0647 23.3981L12.3576 24.1052L13.0647 24.8123L13.7718 24.1052L13.0647 23.3981ZM11.7685 22.1019L11.0614 21.3948L10.3543 22.1019L11.0614 22.809L11.7685 22.1019ZM12.9537 20.9167L13.6608 21.6238L15.368 19.9167H12.9537V20.9167ZM9.66663 20.9167H8.66663V21.9167H9.66663V20.9167ZM9.66663 19.0833V18.0833H8.66663V19.0833H9.66663ZM12.9537 19.0833V20.0833H15.368L13.6608 18.3762L12.9537 19.0833ZM11.7685 17.8981L11.0614 17.191L10.3543 17.8981L11.0614 18.6052L11.7685 17.8981ZM13.0647 16.6019L13.7718 15.8948L13.0647 15.1877L12.3576 15.8948L13.0647 16.6019ZM15.5462 19.0833L14.8391 19.7904L15.132 20.0833H15.5462V19.0833ZM18.4537 19.0833V20.0833H20.8679L19.1608 18.3762L18.4537 19.0833ZM12.6852 13.3148L11.9781 12.6077L11.271 13.3148L11.9781 14.0219L12.6852 13.3148ZM13.9814 12.0186L14.6885 11.3114L13.9814 10.6043L13.2743 11.3114L13.9814 12.0186ZM19.75 17.7871L19.0429 18.4942L20.75 20.2013V17.7871H19.75ZM19.75 14.8796H20.75V14.4653L20.4571 14.1725L19.75 14.8796ZM17.2685 12.3981L16.5614 11.691L15.8543 12.3981L16.5614 13.1052L17.2685 12.3981ZM18.5647 11.1019L19.2718 10.3948L18.5647 9.68767L17.8576 10.3948L18.5647 11.1019ZM19.75 12.2871L19.0429 12.9942L20.75 14.7013V12.2871H19.75ZM19.75 9V8H18.75V9H19.75ZM21.5833 9H22.5833V8H21.5833V9ZM21.5833 12.2871H20.5833V14.7013L22.2904 12.9942L21.5833 12.2871ZM22.7685 11.1019L23.4756 10.3948L22.7685 9.68767L22.0614 10.3948L22.7685 11.1019ZM24.0647 12.3981L24.7718 13.1052L25.479 12.3981L24.7718 11.691L24.0647 12.3981ZM21.5833 14.8796L20.8762 14.1725L20.5833 14.4653V14.8796H21.5833ZM21.5833 17.7871H20.5833V20.2013L22.2904 18.4942L21.5833 17.7871ZM27.3518 12.0186L28.059 11.3114L27.3518 10.6043L26.6447 11.3114L27.3518 12.0186ZM28.6481 13.3148L29.3552 14.0219L30.0623 13.3148L29.3552 12.6077L28.6481 13.3148ZM22.8795 19.0833L22.1724 18.3762L20.4653 20.0833H22.8795V19.0833ZM25.7871 19.0833V20.0833H26.2013L26.4942 19.7904L25.7871 19.0833ZM39.6666 20C39.6666 30.4934 31.16 39 20.6666 39V41C32.2646 41 41.6666 31.598 41.6666 20H39.6666ZM20.6666 1C31.16 1 39.6666 9.50659 39.6666 20H41.6666C41.6666 8.40202 32.2646 -1 20.6666 -1V1ZM1.66663 20C1.66663 9.50659 10.1732 1 20.6666 1V-1C9.06865 -1 -0.333374 8.40202 -0.333374 20H1.66663ZM20.6666 39C10.1732 39 1.66663 30.4934 1.66663 20H-0.333374C-0.333374 31.598 9.06865 41 20.6666 41V39ZM30.2718 17.191L28.9756 15.8948L27.5614 17.309L28.8576 18.6052L30.2718 17.191ZM29.0866 19.7904L30.2718 18.6052L28.8576 17.191L27.6724 18.3762L29.0866 19.7904ZM31.6666 18.0833H28.3795V20.0833H31.6666V18.0833ZM32.6666 20.9167V19.0833H30.6666V20.9167H32.6666ZM28.3795 21.9167H31.6666V19.9167H28.3795V21.9167ZM30.2718 21.3948L29.0866 20.2096L27.6724 21.6238L28.8576 22.809L30.2718 21.3948ZM28.9756 24.1052L30.2718 22.809L28.8576 21.3948L27.5614 22.691L28.9756 24.1052ZM25.08 21.6238L27.5614 24.1052L28.9756 22.691L26.4942 20.2096L25.08 21.6238ZM22.8795 21.9167H25.7871V19.9167H22.8795V21.9167ZM29.3552 25.9781L23.5866 20.2096L22.1724 21.6238L27.941 27.3923L29.3552 25.9781ZM28.059 28.6886L29.3552 27.3923L27.941 25.9781L26.6447 27.2743L28.059 28.6886ZM20.8762 22.92L26.6447 28.6886L28.059 27.2743L22.2904 21.5058L20.8762 22.92ZM22.5833 25.1204V22.2129H20.5833V25.1204H22.5833ZM24.7718 26.8948L22.2904 24.4133L20.8762 25.8276L23.3576 28.309L24.7718 26.8948ZM23.4756 29.6052L24.7718 28.309L23.3576 26.8948L22.0614 28.191L23.4756 29.6052ZM20.8762 28.42L22.0614 29.6052L23.4756 28.191L22.2904 27.0058L20.8762 28.42ZM22.5833 31V27.7129H20.5833V31H22.5833ZM19.75 32H21.5833V30H19.75V32ZM18.75 27.7129V31H20.75V27.7129H18.75ZM19.2718 29.6052L20.4571 28.42L19.0429 27.0058L17.8576 28.191L19.2718 29.6052ZM16.5614 28.309L17.8576 29.6052L19.2718 28.191L17.9756 26.8948L16.5614 28.309ZM19.0429 24.4133L16.5614 26.8948L17.9756 28.309L20.4571 25.8275L19.0429 24.4133ZM18.75 22.2129V25.1204H20.75V22.2129H18.75ZM14.6885 28.6886L20.4571 22.92L19.0429 21.5058L13.2743 27.2743L14.6885 28.6886ZM11.9781 27.3923L13.2743 28.6886L14.6885 27.2743L13.3923 25.9781L11.9781 27.3923ZM17.7466 20.2096L11.9781 25.9781L13.3923 27.3923L19.1608 21.6238L17.7466 20.2096ZM15.5462 21.9167H18.4537V19.9167H15.5462V21.9167ZM13.7718 24.1052L16.2533 21.6238L14.8391 20.2096L12.3576 22.691L13.7718 24.1052ZM11.0614 22.809L12.3576 24.1052L13.7718 22.691L12.4756 21.3948L11.0614 22.809ZM12.2466 20.2096L11.0614 21.3948L12.4756 22.809L13.6608 21.6238L12.2466 20.2096ZM9.66663 21.9167H12.9537V19.9167H9.66663V21.9167ZM8.66663 19.0833V20.9167H10.6666V19.0833H8.66663ZM12.9537 18.0833H9.66663V20.0833H12.9537V18.0833ZM11.0614 18.6052L12.2466 19.7904L13.6608 18.3762L12.4756 17.191L11.0614 18.6052ZM12.3576 15.8948L11.0614 17.191L12.4756 18.6052L13.7718 17.309L12.3576 15.8948ZM16.2533 18.3762L13.7718 15.8948L12.3576 17.309L14.8391 19.7904L16.2533 18.3762ZM18.4537 18.0833H15.5462V20.0833H18.4537V18.0833ZM11.9781 14.0219L17.7466 19.7904L19.1608 18.3762L13.3923 12.6077L11.9781 14.0219ZM13.2743 11.3114L11.9781 12.6077L13.3923 14.0219L14.6885 12.7257L13.2743 11.3114ZM20.4571 17.08L14.6885 11.3114L13.2743 12.7257L19.0429 18.4942L20.4571 17.08ZM18.75 14.8796V17.7871H20.75V14.8796H18.75ZM16.5614 13.1052L19.0429 15.5867L20.4571 14.1725L17.9756 11.691L16.5614 13.1052ZM17.8576 10.3948L16.5614 11.691L17.9756 13.1052L19.2718 11.809L17.8576 10.3948ZM20.4571 11.58L19.2718 10.3948L17.8576 11.809L19.0429 12.9942L20.4571 11.58ZM18.75 9V12.2871H20.75V9H18.75ZM21.5833 8H19.75V10H21.5833V8ZM22.5833 12.2871V9H20.5833V12.2871H22.5833ZM22.0614 10.3948L20.8762 11.58L22.2904 12.9942L23.4756 11.809L22.0614 10.3948ZM24.7718 11.691L23.4756 10.3948L22.0614 11.809L23.3576 13.1052L24.7718 11.691ZM22.2904 15.5867L24.7718 13.1052L23.3576 11.691L20.8762 14.1725L22.2904 15.5867ZM22.5833 17.7871V14.8796H20.5833V17.7871H22.5833ZM26.6447 11.3114L20.8762 17.08L22.2904 18.4942L28.059 12.7257L26.6447 11.3114ZM29.3552 12.6077L28.059 11.3114L26.6447 12.7257L27.941 14.0219L29.3552 12.6077ZM23.5866 19.7904L29.3552 14.0219L27.941 12.6077L22.1724 18.3762L23.5866 19.7904ZM25.7871 18.0833H22.8795V20.0833H25.7871V18.0833ZM27.5614 15.8948L25.08 18.3762L26.4942 19.7904L28.9756 17.309L27.5614 15.8948Z" fill="#874C48" mask="url(#path-1-inside-1_131_5452)"/>
</g>
</g>
</svg>
