<svg width="40" height="40" viewBox="0 0 40 40" fill="none" xmlns="http://www.w3.org/2000/svg">
<mask id="path-1-inside-1_1964_3260" fill="white">
<path fill-rule="evenodd" clip-rule="evenodd" d="M40 20C40 31.0457 31.0457 40 20 40C8.9543 40 0 31.0457 0 20C0 8.9543 8.9543 0 20 0C31.0457 0 40 8.9543 40 20ZM33 14C33 16.7614 30.7615 19 28 19C25.2386 19 23 16.7614 23 14C23 11.2386 25.2386 9 28 9C30.7615 9 33 11.2386 33 14ZM12 24C14.7614 24 17 21.7615 17 19C17 16.2386 14.7614 14 12 14C9.23858 14 7 16.2386 7 19C7 21.7615 9.23858 24 12 24ZM25 27C25 29.7614 22.7614 32 20 32C17.2386 32 15 29.7614 15 27C15 24.2385 17.2386 22 20 22C22.7614 22 25 24.2385 25 27ZM30.5 25C31.8807 25 33 23.8808 33 22.5C33 21.1193 31.8807 20 30.5 20C29.1193 20 28 21.1193 28 22.5C28 23.8808 29.1193 25 30.5 25ZM24 18.5C24 19.8807 22.8807 21 21.5 21C20.1193 21 19 19.8807 19 18.5C19 17.1192 20.1193 16 21.5 16C22.8807 16 24 17.1192 24 18.5ZM18 15C19.1046 15 20 14.1046 20 13C20 11.8955 19.1046 11 18 11C16.8954 11 16 11.8955 16 13C16 14.1046 16.8954 15 18 15Z"/>
</mask>
<path fill-rule="evenodd" clip-rule="evenodd" d="M40 20C40 31.0457 31.0457 40 20 40C8.9543 40 0 31.0457 0 20C0 8.9543 8.9543 0 20 0C31.0457 0 40 8.9543 40 20ZM33 14C33 16.7614 30.7615 19 28 19C25.2386 19 23 16.7614 23 14C23 11.2386 25.2386 9 28 9C30.7615 9 33 11.2386 33 14ZM12 24C14.7614 24 17 21.7615 17 19C17 16.2386 14.7614 14 12 14C9.23858 14 7 16.2386 7 19C7 21.7615 9.23858 24 12 24ZM25 27C25 29.7614 22.7614 32 20 32C17.2386 32 15 29.7614 15 27C15 24.2385 17.2386 22 20 22C22.7614 22 25 24.2385 25 27ZM30.5 25C31.8807 25 33 23.8808 33 22.5C33 21.1193 31.8807 20 30.5 20C29.1193 20 28 21.1193 28 22.5C28 23.8808 29.1193 25 30.5 25ZM24 18.5C24 19.8807 22.8807 21 21.5 21C20.1193 21 19 19.8807 19 18.5C19 17.1192 20.1193 16 21.5 16C22.8807 16 24 17.1192 24 18.5ZM18 15C19.1046 15 20 14.1046 20 13C20 11.8955 19.1046 11 18 11C16.8954 11 16 11.8955 16 13C16 14.1046 16.8954 15 18 15Z" fill="#DB4D46"/>
<path d="M20 41C31.598 41 41 31.598 41 20H39C39 30.4934 30.4934 39 20 39V41ZM-1 20C-1 31.598 8.40202 41 20 41V39C9.50659 39 1 30.4934 1 20H-1ZM20 -1C8.40202 -1 -1 8.40202 -1 20H1C1 9.50659 9.50659 1 20 1V-1ZM41 20C41 8.40202 31.598 -1 20 -1V1C30.4934 1 39 9.50659 39 20H41ZM28 20C31.3137 20 34 17.3137 34 14H32C32 16.2091 30.2092 18 28 18V20ZM22 14C22 17.3137 24.6863 20 28 20V18C25.7909 18 24 16.2091 24 14H22ZM28 8C24.6863 8 22 10.6863 22 14H24C24 11.7909 25.7909 10 28 10V8ZM34 14C34 10.6863 31.3137 8 28 8V10C30.2092 10 32 11.7909 32 14H34ZM16 19C16 21.2092 14.2091 23 12 23V25C15.3137 25 18 22.3137 18 19H16ZM12 15C14.2091 15 16 16.7909 16 19H18C18 15.6863 15.3137 13 12 13V15ZM8 19C8 16.7909 9.79086 15 12 15V13C8.68629 13 6 15.6863 6 19H8ZM12 23C9.79086 23 8 21.2092 8 19H6C6 22.3137 8.68629 25 12 25V23ZM20 33C23.3137 33 26 30.3137 26 27H24C24 29.2091 22.2091 31 20 31V33ZM14 27C14 30.3137 16.6863 33 20 33V31C17.7909 31 16 29.2091 16 27H14ZM20 21C16.6863 21 14 23.6863 14 27H16C16 24.7908 17.7909 23 20 23V21ZM26 27C26 23.6863 23.3137 21 20 21V23C22.2091 23 24 24.7908 24 27H26ZM32 22.5C32 23.3285 31.3284 24 30.5 24V26C32.433 26 34 24.433 34 22.5H32ZM30.5 21C31.3284 21 32 21.6716 32 22.5H34C34 20.567 32.433 19 30.5 19V21ZM29 22.5C29 21.6716 29.6716 21 30.5 21V19C28.567 19 27 20.567 27 22.5H29ZM30.5 24C29.6716 24 29 23.3285 29 22.5H27C27 24.433 28.567 26 30.5 26V24ZM21.5 22C23.433 22 25 20.433 25 18.5H23C23 19.3284 22.3284 20 21.5 20V22ZM18 18.5C18 20.433 19.567 22 21.5 22V20C20.6716 20 20 19.3284 20 18.5H18ZM21.5 15C19.567 15 18 16.567 18 18.5H20C20 17.6715 20.6716 17 21.5 17V15ZM25 18.5C25 16.567 23.433 15 21.5 15V17C22.3284 17 23 17.6715 23 18.5H25ZM19 13C19 13.5523 18.5523 14 18 14V16C19.6569 16 21 14.6569 21 13H19ZM18 12C18.5523 12 19 12.4478 19 13H21C21 11.3432 19.6569 10 18 10V12ZM17 13C17 12.4478 17.4477 12 18 12V10C16.3431 10 15 11.3432 15 13H17ZM18 14C17.4477 14 17 13.5523 17 13H15C15 14.6569 16.3431 16 18 16V14Z" fill="#DB4D46" mask="url(#path-1-inside-1_1964_3260)"/>
</svg>
