<svg width="41" height="40" viewBox="0 0 41 40" fill="none" xmlns="http://www.w3.org/2000/svg">
<g id="Tender Breasts">
<circle id="Oval Copy 16" cx="20.5125" cy="20" r="19.5" stroke="#946DAE"/>
<path id="Combined Shape" fill-rule="evenodd" clip-rule="evenodd" d="M11.6416 22.9798C12.8521 22.4905 13.6561 21.3239 13.6561 20C13.6561 18.9509 13.1366 18.0121 12.3068 17.4118C13.3283 16.2452 14.4172 15.1946 15.5878 14.31C16.8113 13.3854 17.5132 11.9935 17.5132 10.5666C17.5132 9.70141 18.2146 9 19.0798 9H26.3368C26.4342 9 26.5132 9.07901 26.5132 9.17647V29C26.5132 30.1046 25.6178 31 24.5132 31H15.5863C15.2303 31 14.9418 30.7114 14.9418 30.3555C14.9418 29.2371 14.825 28.0621 14.5939 26.9664C14.7948 27.0092 14.9964 27.0498 15.2035 27.0678C16.8073 27.2092 18.3464 26.6852 19.5309 25.5962C20.6999 24.5218 21.3704 22.996 21.3704 21.4105H20.0846C20.0846 22.636 19.5661 23.8156 18.662 24.6464C17.7461 25.4886 16.5558 25.8889 15.3147 25.7838C13.7099 25.6439 12.3123 24.5555 11.6416 22.9798ZM11.4804 18.3915C12.0265 18.7466 12.3695 19.3378 12.3695 20C12.3695 20.7761 11.9015 21.4493 11.2038 21.7548L10.5125 19.6761C10.8245 19.2311 11.1506 18.8083 11.4804 18.3915Z" fill="#946DAE"/>
</g>
</svg>
