<svg width="41" height="40" viewBox="0 0 41 40" fill="none" xmlns="http://www.w3.org/2000/svg">
<mask id="path-1-inside-1_1964_3369" fill="white">
<path fill-rule="evenodd" clip-rule="evenodd" d="M20.5122 40C31.5579 40 40.5122 31.0457 40.5122 20C40.5122 8.9543 31.5579 0 20.5122 0C9.46651 0 0.512207 8.9543 0.512207 20C0.512207 31.0457 9.46651 40 20.5122 40ZM13.6558 20C13.6558 21.3239 12.8518 22.4905 11.6414 22.9798C12.3121 24.5555 13.7096 25.6439 15.3144 25.7838C16.5556 25.8889 17.7459 25.4886 18.6618 24.6464C19.5658 23.8156 20.0844 22.636 20.0844 21.4105H21.3701C21.3701 22.996 20.6996 24.5218 19.5307 25.5962C18.3461 26.6852 16.807 27.2092 15.2033 27.0678C14.9961 27.0498 14.7945 27.0092 14.5937 26.9664C14.8247 28.0621 14.9415 29.2371 14.9415 30.3555C14.9415 30.7114 15.2301 31 15.5861 31H24.513C25.6176 31 26.513 30.1046 26.513 29V9.17647C26.513 9.07901 26.434 9 26.3365 9H19.0796C18.2144 9 17.513 9.70141 17.513 10.5666C17.513 11.9935 16.8111 13.3854 15.5875 14.31C14.417 15.1946 13.3281 16.2452 12.3065 17.4118C13.1364 18.0121 13.6558 18.9509 13.6558 20ZM12.3693 20C12.3693 19.3378 12.0262 18.7466 11.4802 18.3915C11.1504 18.8083 10.8242 19.2311 10.5122 19.6761L11.2036 21.7548C11.9013 21.4493 12.3693 20.7761 12.3693 20Z"/>
</mask>
<path fill-rule="evenodd" clip-rule="evenodd" d="M20.5122 40C31.5579 40 40.5122 31.0457 40.5122 20C40.5122 8.9543 31.5579 0 20.5122 0C9.46651 0 0.512207 8.9543 0.512207 20C0.512207 31.0457 9.46651 40 20.5122 40ZM13.6558 20C13.6558 21.3239 12.8518 22.4905 11.6414 22.9798C12.3121 24.5555 13.7096 25.6439 15.3144 25.7838C16.5556 25.8889 17.7459 25.4886 18.6618 24.6464C19.5658 23.8156 20.0844 22.636 20.0844 21.4105H21.3701C21.3701 22.996 20.6996 24.5218 19.5307 25.5962C18.3461 26.6852 16.807 27.2092 15.2033 27.0678C14.9961 27.0498 14.7945 27.0092 14.5937 26.9664C14.8247 28.0621 14.9415 29.2371 14.9415 30.3555C14.9415 30.7114 15.2301 31 15.5861 31H24.513C25.6176 31 26.513 30.1046 26.513 29V9.17647C26.513 9.07901 26.434 9 26.3365 9H19.0796C18.2144 9 17.513 9.70141 17.513 10.5666C17.513 11.9935 16.8111 13.3854 15.5875 14.31C14.417 15.1946 13.3281 16.2452 12.3065 17.4118C13.1364 18.0121 13.6558 18.9509 13.6558 20ZM12.3693 20C12.3693 19.3378 12.0262 18.7466 11.4802 18.3915C11.1504 18.8083 10.8242 19.2311 10.5122 19.6761L11.2036 21.7548C11.9013 21.4493 12.3693 20.7761 12.3693 20Z" fill="#946DAE"/>
<path d="M11.6414 22.9798L11.2666 22.0527L10.3224 22.4344L10.7213 23.3714L11.6414 22.9798ZM15.3144 25.7838L15.2276 26.78L15.2301 26.7802L15.3144 25.7838ZM18.6618 24.6464L17.9851 23.9101L17.985 23.9103L18.6618 24.6464ZM20.0844 21.4105V20.4105H19.0844V21.4105H20.0844ZM21.3701 21.4105H22.3701V20.4105H21.3701V21.4105ZM19.5307 25.5962L18.854 24.86L18.8539 24.86L19.5307 25.5962ZM15.2033 27.0678L15.2911 26.0717L15.2899 26.0716L15.2033 27.0678ZM14.5937 26.9664L14.8021 25.9884L13.2979 25.6678L13.6152 27.1727L14.5937 26.9664ZM15.5875 14.31L14.9846 13.5122L14.9846 13.5122L15.5875 14.31ZM12.3065 17.4118L11.5542 16.753L10.8312 17.5788L11.7204 18.222L12.3065 17.4118ZM11.4802 18.3915L12.0253 17.5531L11.2614 17.0564L10.696 17.771L11.4802 18.3915ZM10.5122 19.6761L9.69342 19.102L9.40447 19.5141L9.56332 19.9917L10.5122 19.6761ZM11.2036 21.7548L10.2547 22.0704L10.6006 23.1104L11.6046 22.6708L11.2036 21.7548ZM39.5122 20C39.5122 30.4934 31.0056 39 20.5122 39V41C32.1102 41 41.5122 31.598 41.5122 20H39.5122ZM20.5122 1C31.0056 1 39.5122 9.50659 39.5122 20H41.5122C41.5122 8.40202 32.1102 -1 20.5122 -1V1ZM1.51221 20C1.51221 9.50659 10.0188 1 20.5122 1V-1C8.91423 -1 -0.487793 8.40202 -0.487793 20H1.51221ZM20.5122 39C10.0188 39 1.51221 30.4934 1.51221 20H-0.487793C-0.487793 31.598 8.91423 41 20.5122 41V39ZM12.0162 23.9069C13.599 23.267 14.6558 21.7374 14.6558 20H12.6558C12.6558 20.9104 12.1047 21.7139 11.2666 22.0527L12.0162 23.9069ZM15.4013 24.7876C14.2055 24.6833 13.1043 23.8634 12.5615 22.5882L10.7213 23.3714C11.5199 25.2477 13.2137 26.6045 15.2276 26.78L15.4013 24.7876ZM17.985 23.9103C17.2781 24.5603 16.365 24.8692 15.3988 24.7874L15.2301 26.7802C16.7462 26.9086 18.2136 26.417 19.3386 25.3826L17.985 23.9103ZM19.0844 21.4105C19.0844 22.3556 18.6836 23.2683 17.9851 23.9101L19.3385 25.3827C20.4481 24.3629 21.0844 22.9165 21.0844 21.4105H19.0844ZM21.3701 20.4105H20.0844V22.4105H21.3701V20.4105ZM20.2074 26.3324C21.582 25.0689 22.3701 23.2763 22.3701 21.4105H20.3701C20.3701 22.7158 19.8172 23.9746 18.854 24.86L20.2074 26.3324ZM15.1155 28.0639C16.9995 28.23 18.8161 27.6115 20.2075 26.3324L18.8539 24.86C17.8762 25.7589 16.6145 26.1883 15.2911 26.0717L15.1155 28.0639ZM14.3853 27.9444C14.5871 27.9874 14.8421 28.0402 15.1167 28.064L15.2899 26.0716C15.1502 26.0594 15.002 26.0309 14.8021 25.9884L14.3853 27.9444ZM15.9415 30.3555C15.9415 29.1711 15.8182 27.9268 15.5722 26.7601L13.6152 27.1727C13.8313 28.1974 13.9415 29.3031 13.9415 30.3555H15.9415ZM15.5861 30C15.7824 30 15.9415 30.1591 15.9415 30.3555H13.9415C13.9415 31.2637 14.6778 32 15.5861 32V30ZM24.513 30H15.5861V32H24.513V30ZM25.513 29C25.513 29.5523 25.0653 30 24.513 30V32C26.1699 32 27.513 30.6569 27.513 29H25.513ZM25.513 9.17647V29H27.513V9.17647H25.513ZM26.3365 10C25.8817 10 25.513 9.63129 25.513 9.17647H27.513C27.513 8.52672 26.9863 8 26.3365 8V10ZM19.0796 10H26.3365V8H19.0796V10ZM18.513 10.5666C18.513 10.2537 18.7667 10 19.0796 10V8C17.6621 8 16.513 9.14913 16.513 10.5666H18.513ZM16.1904 15.1078C17.6508 14.0043 18.513 12.3233 18.513 10.5666H16.513C16.513 11.6638 15.9714 12.7665 14.9846 13.5122L16.1904 15.1078ZM13.0589 18.0706C14.0452 16.9441 15.085 15.9432 16.1904 15.1078L14.9846 13.5122C13.749 14.446 12.6109 15.5462 11.5542 16.753L13.0589 18.0706ZM14.6558 20C14.6558 18.608 13.964 17.3766 12.8927 16.6016L11.7204 18.222C12.3087 18.6476 12.6558 19.2938 12.6558 20H14.6558ZM10.935 19.2298C11.2147 19.4117 11.3693 19.6964 11.3693 20H13.3693C13.3693 18.9792 12.8377 18.0814 12.0253 17.5531L10.935 19.2298ZM11.331 20.2502C11.6266 19.8286 11.9389 19.4234 12.2644 19.012L10.696 17.771C10.3618 18.1933 10.0218 18.6336 9.69342 19.102L11.331 20.2502ZM12.1525 21.4392L11.4611 19.3605L9.56332 19.9917L10.2547 22.0704L12.1525 21.4392ZM11.3693 20C11.3693 20.358 11.1559 20.684 10.8025 20.8387L11.6046 22.6708C12.6467 22.2146 13.3693 21.1941 13.3693 20H11.3693Z" fill="#946DAE" mask="url(#path-1-inside-1_1964_3369)"/>
</svg>
