<svg width="40" height="41" viewBox="0 0 40 41" fill="none" xmlns="http://www.w3.org/2000/svg">
<mask id="path-1-inside-1_1964_3720" fill="white">
<path fill-rule="evenodd" clip-rule="evenodd" d="M20 40.417C31.0457 40.417 40 31.4627 40 20.417C40 9.3713 31.0457 0.416992 20 0.416992C8.9543 0.416992 0 9.3713 0 20.417C0 31.4627 8.9543 40.417 20 40.417ZM9.00027 17.6514C9.00027 25.8954 19.8765 30.417 19.8765 30.417C19.8765 30.417 31 25.8497 31 17.6514C31 14.203 28.3933 11.417 25.1798 11.417C22.9102 11.417 20.9327 12.8329 19.9889 14.8881C19.0451 12.8329 17.0676 11.417 14.7979 11.417C11.5845 11.417 8.97779 14.203 9.00027 17.6514Z"/>
</mask>
<path fill-rule="evenodd" clip-rule="evenodd" d="M20 40.417C31.0457 40.417 40 31.4627 40 20.417C40 9.3713 31.0457 0.416992 20 0.416992C8.9543 0.416992 0 9.3713 0 20.417C0 31.4627 8.9543 40.417 20 40.417ZM9.00027 17.6514C9.00027 25.8954 19.8765 30.417 19.8765 30.417C19.8765 30.417 31 25.8497 31 17.6514C31 14.203 28.3933 11.417 25.1798 11.417C22.9102 11.417 20.9327 12.8329 19.9889 14.8881C19.0451 12.8329 17.0676 11.417 14.7979 11.417C11.5845 11.417 8.97779 14.203 9.00027 17.6514Z" fill="#9CADCE"/>
<path d="M19.8765 30.417L19.4926 31.3404L19.8742 31.499L20.2564 31.342L19.8765 30.417ZM9.00027 17.6514H10.0003L10.0002 17.6448L9.00027 17.6514ZM19.9889 14.8881L19.0801 15.3055L19.9889 17.2844L20.8977 15.3055L19.9889 14.8881ZM39 20.417C39 30.9104 30.4934 39.417 20 39.417V41.417C31.598 41.417 41 32.015 41 20.417H39ZM20 1.41699C30.4934 1.41699 39 9.92358 39 20.417H41C41 8.81901 31.598 -0.583008 20 -0.583008V1.41699ZM1 20.417C1 9.92358 9.50659 1.41699 20 1.41699V-0.583008C8.40202 -0.583008 -1 8.81901 -1 20.417H1ZM20 39.417C9.50659 39.417 1 30.9104 1 20.417H-1C-1 32.015 8.40202 41.417 20 41.417V39.417ZM19.8765 30.417C20.2604 29.4936 20.2607 29.4937 20.2609 29.4938C20.2609 29.4938 20.2611 29.4939 20.2611 29.4939C20.2611 29.4939 20.261 29.4939 20.2608 29.4938C20.2602 29.4935 20.2591 29.493 20.2572 29.4923C20.2536 29.4907 20.2474 29.4881 20.2388 29.4844C20.2215 29.477 20.1943 29.4653 20.1579 29.4492C20.0851 29.4171 19.9755 29.3678 19.8345 29.3015C19.5522 29.1689 19.1446 28.9686 18.6537 28.7025C17.6694 28.169 16.3622 27.3772 15.0606 26.3428C12.4205 24.2447 10.0003 21.3105 10.0003 17.6514H8.00027C8.00027 22.2362 11.0181 25.6848 13.8162 27.9086C15.2336 29.035 16.6455 29.8889 17.7006 30.4608C18.2293 30.7474 18.6714 30.9648 18.9839 31.1117C19.1402 31.1851 19.2644 31.241 19.3509 31.2792C19.3941 31.2983 19.428 31.3129 19.4519 31.3231C19.4638 31.3282 19.4732 31.3322 19.48 31.3351C19.4835 31.3365 19.4862 31.3377 19.4883 31.3386C19.4894 31.339 19.4903 31.3394 19.491 31.3397C19.4913 31.3398 19.4918 31.34 19.4919 31.3401C19.4923 31.3402 19.4926 31.3404 19.8765 30.417ZM30 17.6514C30 21.277 27.5312 24.2102 24.8237 26.3197C23.4907 27.3582 22.1521 28.1551 21.1439 28.6929C20.6411 28.9612 20.2235 29.1633 19.9342 29.2974C19.7896 29.3643 19.6772 29.4142 19.6024 29.4468C19.5651 29.463 19.5371 29.4749 19.5193 29.4825C19.5103 29.4862 19.5039 29.4889 19.5001 29.4905C19.4983 29.4913 19.497 29.4918 19.4964 29.492C19.4961 29.4922 19.496 29.4922 19.4961 29.4922C19.4961 29.4922 19.4962 29.4921 19.4963 29.4921C19.4965 29.492 19.4967 29.4919 19.8765 30.417C20.2564 31.342 20.2567 31.3419 20.2571 31.3418C20.2572 31.3417 20.2577 31.3415 20.258 31.3414C20.2587 31.3411 20.2596 31.3407 20.2607 31.3403C20.2628 31.3394 20.2656 31.3382 20.269 31.3368C20.2759 31.3339 20.2855 31.3299 20.2976 31.3248C20.3219 31.3146 20.3564 31.2998 20.4005 31.2806C20.4887 31.2423 20.6153 31.186 20.7748 31.1121C21.0938 30.9643 21.5453 30.7456 22.0852 30.4576C23.1627 29.8828 24.6049 29.0255 26.0529 27.8974C28.907 25.6737 32 22.2241 32 17.6514H30ZM25.1798 12.417C27.778 12.417 30 14.6901 30 17.6514H32C32 13.716 29.0086 10.417 25.1798 10.417V12.417ZM20.8977 15.3055C21.6974 13.5638 23.3446 12.417 25.1798 12.417V10.417C22.4758 10.417 20.1679 12.1019 19.0801 14.4708L20.8977 15.3055ZM14.7979 12.417C16.6331 12.417 18.2803 13.5638 19.0801 15.3055L20.8976 14.4708C19.8098 12.1019 17.502 10.417 14.7979 10.417V12.417ZM10.0002 17.6448C9.98099 14.6897 12.199 12.417 14.7979 12.417V10.417C10.97 10.417 7.9746 13.7164 8.00029 17.6579L10.0002 17.6448Z" fill="#9CADCE" mask="url(#path-1-inside-1_1964_3720)"/>
</svg>
