<svg width="40" height="40" viewBox="0 0 40 40" fill="none" xmlns="http://www.w3.org/2000/svg">
<mask id="path-1-inside-1_1964_3153" fill="white">
<path fill-rule="evenodd" clip-rule="evenodd" d="M20 40C31.0457 40 40 31.0457 40 20C40 8.9543 31.0457 0 20 0C8.9543 0 0 8.9543 0 20C0 31.0457 8.9543 40 20 40ZM32.052 13.5688C32.5283 13.8469 32.8404 14.3251 32.9546 14.9515C33.0985 15.7393 32.8912 16.694 32.462 17.2219C32.1276 17.6327 31.8482 17.8605 31.6498 17.9866C31.6937 18.136 31.7197 18.2914 31.7197 18.4521C31.7197 19.5294 30.6697 20.4058 29.3792 20.4058C28.2389 20.4058 27.2879 19.7212 27.0816 18.8188C26.5166 18.7362 25.4989 18.5299 24.8455 18.0602C24.6045 17.8869 24.4023 17.7214 24.2339 17.5716C24.1268 17.8822 24.0337 18.261 23.9692 18.7694C23.765 20.3779 23.4851 21.0031 23.1886 21.665L23.1864 21.67C23.0694 21.9314 22.9484 22.2019 22.8301 22.5488C22.6207 23.1629 22.5749 24.1138 22.5344 24.9526C22.4974 25.7241 22.4651 26.3905 22.3208 26.8404C22.1061 27.5091 21.9611 29.0552 21.9234 29.5944C21.906 29.8454 21.6963 30.04 21.4434 30.04H18.5568C18.304 30.04 18.0944 29.8454 18.0768 29.5944C18.0755 29.575 17.9377 27.6454 17.6794 26.8403C17.5349 26.3903 17.5028 25.724 17.4656 24.9526C17.4252 24.1136 17.3794 23.1628 17.1699 22.5487C17.0508 22.1996 16.9291 21.9277 16.8113 21.6647C16.5149 21.0029 16.2349 20.3777 16.0308 18.7691C15.9663 18.2609 15.8731 17.882 15.7661 17.5714C15.5977 17.7212 15.3956 17.8866 15.1545 18.0599C14.5021 18.529 13.4863 18.7352 12.921 18.8181C12.7219 19.7198 11.775 20.4054 10.6381 20.4054C9.35712 20.4054 8.31504 19.5355 8.31504 18.4662C8.31504 18.3077 8.34042 18.1544 8.38361 18.0069C8.18379 17.8858 7.89145 17.6558 7.53799 17.2214C7.10875 16.694 6.90158 15.7394 7.04535 14.9515C7.15964 14.325 7.47183 13.8469 7.94799 13.5688C8.81539 13.0624 9.99076 13.4976 11.2352 13.9585L11.2395 13.9601L11.2395 13.9601L11.2396 13.9601C11.7664 14.1551 12.3108 14.3567 12.807 14.472C13.5195 14.6373 14.2088 14.1824 14.6807 13.7456C14.6285 12.531 14.852 11.3992 16.3112 10.7475C17.8771 10.0481 19.9142 10.04 20.0001 10.04C20.086 10.04 22.123 10.0482 23.6889 10.7475C25.148 11.3992 25.3716 12.5308 25.3194 13.7456C25.7913 14.1825 26.4808 14.6377 27.1931 14.472C27.6906 14.3563 28.2366 14.1541 28.7648 13.9585L28.766 13.958C30.0101 13.4974 31.1849 13.0624 32.052 13.5688ZM8.43509 14.3948C8.14828 14.5623 8.03604 14.883 7.99225 15.1226C7.88783 15.6954 8.06323 16.3451 8.28591 16.6186C8.58198 16.9823 8.79709 17.136 8.89092 17.1923C9.31704 16.7856 9.94142 16.527 10.6381 16.527C11.6653 16.527 12.5375 17.0869 12.8433 17.8599C13.372 17.776 14.1558 17.5961 14.5908 17.2834C14.9289 17.0405 15.1768 16.8183 15.3465 16.6495C15.1134 16.201 14.8804 15.7209 14.7814 14.8897C14.184 15.2982 13.4232 15.5992 12.588 15.4048C12.031 15.2752 11.4558 15.0622 10.8995 14.8562C9.92037 14.4935 8.90801 14.1188 8.43509 14.3948ZM31.7141 16.6187C31.4491 16.9444 31.2491 17.1014 31.1428 17.1712C30.7134 16.7597 30.0829 16.498 29.3794 16.498C28.3364 16.498 27.4514 17.0706 27.1499 17.8589C26.6211 17.7745 25.8422 17.5947 25.4091 17.2835C25.071 17.0405 24.8231 16.8182 24.6536 16.6495C24.8867 16.201 25.1197 15.7208 25.2188 14.8894C25.8162 15.2979 26.5769 15.5991 27.412 15.4047C27.9682 15.2754 28.5424 15.0628 29.0979 14.8572L29.1004 14.8563L29.1013 14.8559C30.0801 14.4935 31.0922 14.1187 31.5648 14.3948C31.8516 14.5623 31.9639 14.8831 32.0077 15.1227C32.1122 15.6954 31.9367 16.3452 31.7141 16.6187Z"/>
</mask>
<path fill-rule="evenodd" clip-rule="evenodd" d="M20 40C31.0457 40 40 31.0457 40 20C40 8.9543 31.0457 0 20 0C8.9543 0 0 8.9543 0 20C0 31.0457 8.9543 40 20 40ZM32.052 13.5688C32.5283 13.8469 32.8404 14.3251 32.9546 14.9515C33.0985 15.7393 32.8912 16.694 32.462 17.2219C32.1276 17.6327 31.8482 17.8605 31.6498 17.9866C31.6937 18.136 31.7197 18.2914 31.7197 18.4521C31.7197 19.5294 30.6697 20.4058 29.3792 20.4058C28.2389 20.4058 27.2879 19.7212 27.0816 18.8188C26.5166 18.7362 25.4989 18.5299 24.8455 18.0602C24.6045 17.8869 24.4023 17.7214 24.2339 17.5716C24.1268 17.8822 24.0337 18.261 23.9692 18.7694C23.765 20.3779 23.4851 21.0031 23.1886 21.665L23.1864 21.67C23.0694 21.9314 22.9484 22.2019 22.8301 22.5488C22.6207 23.1629 22.5749 24.1138 22.5344 24.9526C22.4974 25.7241 22.4651 26.3905 22.3208 26.8404C22.1061 27.5091 21.9611 29.0552 21.9234 29.5944C21.906 29.8454 21.6963 30.04 21.4434 30.04H18.5568C18.304 30.04 18.0944 29.8454 18.0768 29.5944C18.0755 29.575 17.9377 27.6454 17.6794 26.8403C17.5349 26.3903 17.5028 25.724 17.4656 24.9526C17.4252 24.1136 17.3794 23.1628 17.1699 22.5487C17.0508 22.1996 16.9291 21.9277 16.8113 21.6647C16.5149 21.0029 16.2349 20.3777 16.0308 18.7691C15.9663 18.2609 15.8731 17.882 15.7661 17.5714C15.5977 17.7212 15.3956 17.8866 15.1545 18.0599C14.5021 18.529 13.4863 18.7352 12.921 18.8181C12.7219 19.7198 11.775 20.4054 10.6381 20.4054C9.35712 20.4054 8.31504 19.5355 8.31504 18.4662C8.31504 18.3077 8.34042 18.1544 8.38361 18.0069C8.18379 17.8858 7.89145 17.6558 7.53799 17.2214C7.10875 16.694 6.90158 15.7394 7.04535 14.9515C7.15964 14.325 7.47183 13.8469 7.94799 13.5688C8.81539 13.0624 9.99076 13.4976 11.2352 13.9585L11.2395 13.9601L11.2395 13.9601L11.2396 13.9601C11.7664 14.1551 12.3108 14.3567 12.807 14.472C13.5195 14.6373 14.2088 14.1824 14.6807 13.7456C14.6285 12.531 14.852 11.3992 16.3112 10.7475C17.8771 10.0481 19.9142 10.04 20.0001 10.04C20.086 10.04 22.123 10.0482 23.6889 10.7475C25.148 11.3992 25.3716 12.5308 25.3194 13.7456C25.7913 14.1825 26.4808 14.6377 27.1931 14.472C27.6906 14.3563 28.2366 14.1541 28.7648 13.9585L28.766 13.958C30.0101 13.4974 31.1849 13.0624 32.052 13.5688ZM8.43509 14.3948C8.14828 14.5623 8.03604 14.883 7.99225 15.1226C7.88783 15.6954 8.06323 16.3451 8.28591 16.6186C8.58198 16.9823 8.79709 17.136 8.89092 17.1923C9.31704 16.7856 9.94142 16.527 10.6381 16.527C11.6653 16.527 12.5375 17.0869 12.8433 17.8599C13.372 17.776 14.1558 17.5961 14.5908 17.2834C14.9289 17.0405 15.1768 16.8183 15.3465 16.6495C15.1134 16.201 14.8804 15.7209 14.7814 14.8897C14.184 15.2982 13.4232 15.5992 12.588 15.4048C12.031 15.2752 11.4558 15.0622 10.8995 14.8562C9.92037 14.4935 8.90801 14.1188 8.43509 14.3948ZM31.7141 16.6187C31.4491 16.9444 31.2491 17.1014 31.1428 17.1712C30.7134 16.7597 30.0829 16.498 29.3794 16.498C28.3364 16.498 27.4514 17.0706 27.1499 17.8589C26.6211 17.7745 25.8422 17.5947 25.4091 17.2835C25.071 17.0405 24.8231 16.8182 24.6536 16.6495C24.8867 16.201 25.1197 15.7208 25.2188 14.8894C25.8162 15.2979 26.5769 15.5991 27.412 15.4047C27.9682 15.2754 28.5424 15.0628 29.0979 14.8572L29.1004 14.8563L29.1013 14.8559C30.0801 14.4935 31.0922 14.1187 31.5648 14.3948C31.8516 14.5623 31.9639 14.8831 32.0077 15.1227C32.1122 15.6954 31.9367 16.3452 31.7141 16.6187Z" fill="#7EC4CF"/>
<path d="M32.9546 14.9515L31.9708 15.1308L31.9709 15.1312L32.9546 14.9515ZM32.052 13.5688L31.5477 14.4323L31.5477 14.4323L32.052 13.5688ZM32.462 17.2219L33.2376 17.8531L33.2378 17.8528L32.462 17.2219ZM31.6498 17.9866L31.1134 17.1426L30.4781 17.5463L30.6904 18.2685L31.6498 17.9866ZM27.0816 18.8188L28.0564 18.5959L27.9038 17.9284L27.2263 17.8293L27.0816 18.8188ZM24.8455 18.0602L24.2615 18.872L24.2618 18.8722L24.8455 18.0602ZM24.2339 17.5716L24.8984 16.8244L23.7774 15.8275L23.2885 17.2457L24.2339 17.5716ZM23.9692 18.7694L24.9612 18.8953L24.9612 18.8952L23.9692 18.7694ZM23.1886 21.665L22.276 21.2562L22.2758 21.2567L23.1886 21.665ZM23.1864 21.67L24.0992 22.0785L24.0992 22.0784L23.1864 21.67ZM22.8301 22.5488L23.7766 22.8716L23.7767 22.8714L22.8301 22.5488ZM22.5344 24.9526L21.5356 24.9044L21.5356 24.9046L22.5344 24.9526ZM22.3208 26.8404L23.2729 27.146L23.273 27.146L22.3208 26.8404ZM21.9234 29.5944L20.9258 29.5248L20.9258 29.5251L21.9234 29.5944ZM18.0768 29.5944L17.0791 29.6625L17.0792 29.6642L18.0768 29.5944ZM17.6794 26.8403L18.6316 26.5348L18.6316 26.5346L17.6794 26.8403ZM17.4656 24.9526L16.4668 25.0007V25.0007L17.4656 24.9526ZM17.1699 22.5487L18.1164 22.2259L18.1164 22.2258L17.1699 22.5487ZM16.8113 21.6647L15.8987 22.0735L15.8987 22.0736L16.8113 21.6647ZM16.0308 18.7691L15.0387 18.895L15.0387 18.895L16.0308 18.7691ZM15.7661 17.5714L16.7116 17.2458L16.223 15.8269L15.1016 16.8241L15.7661 17.5714ZM15.1545 18.0599L14.5709 17.2478L14.5707 17.248L15.1545 18.0599ZM12.921 18.8181L12.776 17.8287L12.0933 17.9287L11.9445 18.6025L12.921 18.8181ZM8.38361 18.0069L9.34332 18.288L9.55929 17.5503L8.9021 17.1519L8.38361 18.0069ZM7.53799 17.2214L8.31365 16.5903L8.31358 16.5902L7.53799 17.2214ZM7.04535 14.9515L8.02911 15.131L8.02911 15.131L7.04535 14.9515ZM7.94799 13.5688L7.44386 12.7051L7.44363 12.7053L7.94799 13.5688ZM11.2352 13.9585L10.8879 14.8962L10.888 14.8963L11.2352 13.9585ZM11.2395 13.9601L11.6109 13.0316L11.5989 13.0268L11.5868 13.0223L11.2395 13.9601ZM11.2395 13.9601L10.8682 14.8886L10.8954 14.8995L10.9233 14.9088L11.2395 13.9601ZM11.2396 13.9601L11.5868 13.0223L11.5714 13.0166L11.5558 13.0114L11.2396 13.9601ZM12.807 14.472L12.5806 15.446L12.5809 15.4461L12.807 14.472ZM14.6807 13.7456L15.3599 14.4795L15.6997 14.1651L15.6798 13.7027L14.6807 13.7456ZM16.3112 10.7475L16.719 11.6606L16.719 11.6606L16.3112 10.7475ZM23.6889 10.7475L24.0967 9.83443L24.0967 9.83443L23.6889 10.7475ZM25.3194 13.7456L24.3203 13.7027L24.3004 14.1651L24.64 14.4795L25.3194 13.7456ZM27.1931 14.472L26.9666 13.498L26.9665 13.498L27.1931 14.472ZM28.7648 13.9585L28.4177 13.0206L28.4174 13.0207L28.7648 13.9585ZM28.766 13.958L29.113 14.8959L29.1132 14.8958L28.766 13.958ZM7.99225 15.1226L7.00855 14.9428L7.00847 14.9432L7.99225 15.1226ZM8.43509 14.3948L7.93108 13.5311L7.93078 13.5312L8.43509 14.3948ZM8.28591 16.6186L9.06147 15.9873L9.06133 15.9871L8.28591 16.6186ZM8.89092 17.1923L8.37663 18.0499L9.03014 18.4418L9.58137 17.9157L8.89092 17.1923ZM12.8433 17.8599L11.9134 18.2278L12.2083 18.9732L13.0001 18.8475L12.8433 17.8599ZM14.5908 17.2834L14.0073 16.4713L14.0071 16.4715L14.5908 17.2834ZM15.3465 16.6495L16.0519 17.3583L16.5725 16.8402L16.2338 16.1884L15.3465 16.6495ZM14.7814 14.8897L15.7744 14.7714L15.5792 13.1328L14.217 14.0642L14.7814 14.8897ZM12.588 15.4048L12.8148 14.4308L12.8145 14.4308L12.588 15.4048ZM10.8995 14.8562L11.2469 13.9184L11.2468 13.9184L10.8995 14.8562ZM31.1428 17.1712L30.4509 17.8932L31.0258 18.4442L31.6915 18.0072L31.1428 17.1712ZM31.7141 16.6187L30.9385 15.9874L30.9384 15.9876L31.7141 16.6187ZM27.1499 17.8589L26.9922 18.8464L27.7939 18.9744L28.0839 18.2161L27.1499 17.8589ZM25.4091 17.2835L24.8253 18.0954L24.8256 18.0956L25.4091 17.2835ZM24.6536 16.6495L23.7663 16.1883L23.4274 16.8401L23.9482 17.3584L24.6536 16.6495ZM25.2188 14.8894L25.7832 14.064L24.4209 13.1325L24.2258 14.7712L25.2188 14.8894ZM27.412 15.4047L27.1855 14.4307L27.1854 14.4308L27.412 15.4047ZM29.0979 14.8572L29.445 15.795L29.4452 15.7949L29.0979 14.8572ZM29.1004 14.8563L28.7531 13.9185L28.753 13.9185L29.1004 14.8563ZM29.1013 14.8559L28.7541 13.9182L28.754 13.9182L29.1013 14.8559ZM31.5648 14.3948L31.0604 15.2583L31.0605 15.2584L31.5648 14.3948ZM32.0077 15.1227L32.9914 14.9431L32.9914 14.9429L32.0077 15.1227ZM39 20C39 30.4934 30.4934 39 20 39V41C31.598 41 41 31.598 41 20H39ZM20 1C30.4934 1 39 9.50659 39 20H41C41 8.40202 31.598 -1 20 -1V1ZM1 20C1 9.50659 9.50659 1 20 1V-1C8.40202 -1 -1 8.40202 -1 20H1ZM20 39C9.50659 39 1 30.4934 1 20H-1C-1 31.598 8.40202 41 20 41V39ZM33.9384 14.7722C33.7809 13.9079 33.3248 13.154 32.5562 12.7052L31.5477 14.4323C31.7317 14.5398 31.9 14.7423 31.9708 15.1308L33.9384 14.7722ZM33.2378 17.8528C33.8847 17.0573 34.1245 15.7912 33.9383 14.7718L31.9709 15.1312C32.0725 15.6875 31.8977 16.3307 31.6861 16.591L33.2378 17.8528ZM32.1862 18.8306C32.4873 18.6392 32.8451 18.3353 33.2376 17.8531L31.6864 16.5907C31.4102 16.93 31.209 17.0818 31.1134 17.1426L32.1862 18.8306ZM32.7197 18.4521C32.7197 18.1826 32.676 17.9318 32.6092 17.7046L30.6904 18.2685C30.7114 18.3402 30.7197 18.4002 30.7197 18.4521H32.7197ZM29.3792 21.4058C31.0452 21.4058 32.7197 20.2433 32.7197 18.4521H30.7197C30.7197 18.8155 30.2942 19.4058 29.3792 19.4058V21.4058ZM26.1067 19.0417C26.4399 20.499 27.8837 21.4058 29.3792 21.4058V19.4058C28.5941 19.4058 28.1359 18.9435 28.0564 18.5959L26.1067 19.0417ZM24.2618 18.8722C25.1309 19.497 26.3693 19.7253 26.9369 19.8083L27.2263 17.8293C26.664 17.7471 25.8668 17.5629 25.4292 17.2483L24.2618 18.8722ZM23.5693 18.3189C23.7617 18.49 23.9907 18.6772 24.2615 18.872L25.4295 17.2485C25.2183 17.0965 25.0428 16.9528 24.8984 16.8244L23.5693 18.3189ZM24.9612 18.8952C25.0181 18.4469 25.0971 18.1359 25.1792 17.8975L23.2885 17.2457C23.1565 17.6285 23.0492 18.0752 22.9771 18.6435L24.9612 18.8952ZM24.1013 22.0737C24.4269 21.3467 24.7417 20.6252 24.9612 18.8953L22.9771 18.6435C22.7884 20.1307 22.5433 20.6595 22.276 21.2562L24.1013 22.0737ZM24.0992 22.0784L24.1015 22.0733L22.2758 21.2567L22.2735 21.2617L24.0992 22.0784ZM23.7767 22.8714C23.8785 22.5727 23.9823 22.3397 24.0992 22.0785L22.2736 21.2616C22.1566 21.5231 22.0182 21.8311 21.8836 22.2262L23.7767 22.8714ZM23.5333 25.0007C23.5766 24.1026 23.6235 23.3205 23.7766 22.8716L21.8837 22.226C21.6179 23.0053 21.5732 24.1249 21.5356 24.9044L23.5333 25.0007ZM23.273 27.146C23.4675 26.5397 23.4991 25.7126 23.5333 25.0006L21.5356 24.9046C21.4957 25.7356 21.4628 26.2413 21.3686 26.5349L23.273 27.146ZM22.921 29.6641C22.9387 29.4107 22.9827 28.908 23.0479 28.3911C23.1162 27.8492 23.1975 27.3812 23.2729 27.146L21.3686 26.5348C21.2295 26.9684 21.1308 27.6077 21.0636 28.1408C20.9932 28.6989 20.9458 29.2389 20.9258 29.5248L22.921 29.6641ZM21.4434 31.04C22.2172 31.04 22.8668 30.4432 22.921 29.6638L20.9258 29.5251C20.9451 29.2475 21.1753 29.04 21.4434 29.04V31.04ZM18.5568 31.04H21.4434V29.04H18.5568V31.04ZM17.0792 29.6642C17.1337 30.4431 17.7829 31.04 18.5568 31.04V29.04C18.8252 29.04 19.055 29.2477 19.0743 29.5246L17.0792 29.6642ZM16.7272 27.1458C16.8218 27.4406 16.9128 28.0291 16.9809 28.6255C17.0131 28.9071 17.0377 29.1661 17.0543 29.3561C17.0709 29.5467 17.0793 29.6646 17.0791 29.6625L19.0745 29.5263C19.0731 29.507 19.0372 29.0037 18.968 28.3985C18.9024 27.824 18.7953 27.045 18.6316 26.5348L16.7272 27.1458ZM16.4668 25.0007C16.5011 25.7123 16.5326 26.5395 16.7273 27.146L18.6316 26.5346C18.5373 26.241 18.5045 25.7356 18.4645 24.9044L16.4668 25.0007ZM16.2235 22.8715C16.3766 23.3203 16.4235 24.1025 16.4668 25.0007L18.4645 24.9045C18.4269 24.1248 18.3822 23.0052 18.1164 22.2259L16.2235 22.8715ZM15.8987 22.0736C16.0163 22.3361 16.1208 22.5706 16.2235 22.8716L18.1164 22.2258C17.9808 21.8285 17.8419 21.5192 17.7239 21.2559L15.8987 22.0736ZM15.0387 18.895C15.2583 20.6249 15.5731 21.3465 15.8987 22.0735L17.724 21.256C17.4567 20.6593 17.2116 20.1304 17.0228 18.6432L15.0387 18.895ZM14.8206 17.897C14.9028 18.1357 14.9819 18.447 15.0387 18.895L17.0228 18.6433C16.9507 18.0748 16.8433 17.6282 16.7116 17.2458L14.8206 17.897ZM15.738 18.8719C16.0093 18.677 16.2384 18.4896 16.4306 18.3186L15.1016 16.8241C14.957 16.9527 14.7818 17.0962 14.5709 17.2478L15.738 18.8719ZM13.066 19.8075C13.6341 19.7243 14.8702 19.4959 15.7382 18.8718L14.5707 17.248C14.1339 17.562 13.3386 17.7462 12.776 17.8287L13.066 19.8075ZM10.6381 21.4054C12.1314 21.4054 13.5748 20.4953 13.8975 19.0337L11.9445 18.6025C11.8691 18.9442 11.4186 19.4054 10.6381 19.4054V21.4054ZM7.31504 18.4662C7.31504 20.2493 8.98155 21.4054 10.6381 21.4054V19.4054C9.73269 19.4054 9.31504 18.8217 9.31504 18.4662H7.31504ZM7.42391 17.7259C7.35782 17.9516 7.31504 18.1999 7.31504 18.4662H9.31504C9.31504 18.4155 9.32303 18.3573 9.34332 18.288L7.42391 17.7259ZM6.76234 17.8526C7.17728 18.3625 7.55378 18.6732 7.86513 18.862L8.9021 17.1519C8.8138 17.0983 8.60561 16.9491 8.31365 16.5903L6.76234 17.8526ZM6.06159 14.772C5.87565 15.7911 6.11513 17.0574 6.76241 17.8527L8.31358 16.5902C8.10237 16.3307 7.92751 15.6878 8.02911 15.131L6.06159 14.772ZM7.44363 12.7053C6.67532 13.154 6.21925 13.9077 6.06158 14.772L8.02911 15.131C8.10002 14.7422 8.26833 14.5397 8.45236 14.4323L7.44363 12.7053ZM11.5825 13.0207C10.9822 12.7984 10.2913 12.5395 9.63198 12.4176C8.96381 12.2941 8.17286 12.2796 7.44386 12.7051L8.45212 14.4324C8.59051 14.3516 8.82096 14.3016 9.26843 14.3843C9.72473 14.4686 10.2438 14.6577 10.8879 14.8962L11.5825 13.0207ZM11.5868 13.0223L11.5824 13.0207L10.888 14.8963L10.8923 14.8979L11.5868 13.0223ZM11.6109 13.0316L11.6109 13.0316L10.8681 14.8886L10.8682 14.8886L11.6109 13.0316ZM11.5558 13.0114L11.5558 13.0114L10.9233 14.9088L10.9234 14.9088L11.5558 13.0114ZM13.0334 13.498C12.6107 13.3997 12.1288 13.223 11.5868 13.0223L10.8924 14.8979C11.404 15.0873 12.0109 15.3136 12.5806 15.446L13.0334 13.498ZM14.0015 13.0117C13.8092 13.1897 13.6062 13.3385 13.4155 13.4264C13.2292 13.5123 13.1104 13.5158 13.033 13.4979L12.5809 15.4461C13.8276 15.7354 14.8659 14.9367 15.3599 14.4795L14.0015 13.0117ZM15.9034 9.83443C14.9742 10.2494 14.3598 10.862 14.0169 11.6259C13.6906 12.3527 13.6531 13.124 13.6816 13.7886L15.6798 13.7027C15.6561 13.1526 15.7042 12.7507 15.8415 12.445C15.9621 12.1764 16.189 11.8973 16.719 11.6606L15.9034 9.83443ZM20.0001 9.04004C19.9139 9.04004 17.6827 9.03966 15.9034 9.83446L16.719 11.6606C18.0715 11.0565 19.9145 11.04 20.0001 11.04V9.04004ZM24.0967 9.83443C22.3174 9.03979 20.0864 9.04004 20.0001 9.04004V11.04C20.0856 11.04 21.9286 11.0566 23.2811 11.6606L24.0967 9.83443ZM26.3184 13.7885C26.347 13.1239 26.3095 12.3526 25.9832 11.6258C25.6402 10.862 25.0258 10.2494 24.0967 9.83443L23.2811 11.6606C23.8111 11.8973 24.038 12.1764 24.1586 12.445C24.2958 12.7506 24.3439 13.1526 24.3203 13.7027L26.3184 13.7885ZM26.9665 13.498C26.8896 13.5159 26.771 13.5125 26.5847 13.4266C26.394 13.3387 26.191 13.1898 25.9987 13.0118L24.64 14.4795C25.1339 14.9366 26.1728 15.7361 27.4197 15.446L26.9665 13.498ZM28.4174 13.0207C27.8741 13.222 27.3905 13.3994 26.9666 13.498L27.4196 15.446C27.9906 15.3133 28.5992 15.0862 29.1121 14.8962L28.4174 13.0207ZM28.419 13.0202L28.4177 13.0206L29.1118 14.8963L29.113 14.8959L28.419 13.0202ZM32.5563 12.7052C31.8274 12.2796 31.0367 12.294 30.3687 12.4174C29.7095 12.5392 29.0189 12.798 28.4188 13.0202L29.1132 14.8958C29.7573 14.6573 30.276 14.4684 30.7321 14.3841C31.1792 14.3015 31.4094 14.3515 31.5477 14.4323L32.5563 12.7052ZM8.97595 15.3024C8.98054 15.2773 8.98615 15.2545 8.99234 15.2351C8.99859 15.2155 9.00392 15.2041 9.00634 15.1995C9.00865 15.1951 9.00588 15.2016 8.99495 15.2138C8.9832 15.2268 8.96459 15.2436 8.9394 15.2583L7.93078 13.5312C7.25599 13.9253 7.06753 14.6201 7.00855 14.9428L8.97595 15.3024ZM9.06133 15.9871C9.08156 16.012 9.07288 16.0085 9.05145 15.9582C9.03214 15.9129 9.01065 15.8484 8.99335 15.7693C8.95735 15.6046 8.95185 15.4346 8.97603 15.3019L7.00847 14.9432C6.92823 15.3833 6.95822 15.8246 7.03949 16.1964C7.11659 16.5491 7.26368 16.9469 7.51049 17.25L9.06133 15.9871ZM9.40522 16.3347C9.42409 16.346 9.29459 16.2737 9.06147 15.9873L7.51036 17.2499C7.86937 17.6909 8.17008 17.9261 8.37663 18.0499L9.40522 16.3347ZM10.6381 15.527C9.69815 15.527 8.82242 15.8753 8.20048 16.4689L9.58137 17.9157C9.81166 17.6959 10.1847 17.527 10.6381 17.527V15.527ZM13.7732 17.492C13.2903 16.2715 11.9996 15.527 10.6381 15.527V17.527C11.3309 17.527 11.7847 17.9024 11.9134 18.2278L13.7732 17.492ZM14.0071 16.4715C13.924 16.5312 13.7445 16.6161 13.4659 16.6993C13.2041 16.7776 12.9217 16.8349 12.6865 16.8723L13.0001 18.8475C13.2937 18.8009 13.6675 18.7265 14.0385 18.6156C14.3927 18.5098 14.8226 18.3484 15.1745 18.0954L14.0071 16.4715ZM14.6411 15.9407C14.5061 16.075 14.2986 16.262 14.0073 16.4713L15.1744 18.0955C15.5592 17.819 15.8476 17.5616 16.0519 17.3583L14.6411 15.9407ZM13.7884 15.008C13.9078 16.0103 14.2008 16.6135 14.4591 17.1105L16.2338 16.1884C16.026 15.7885 15.853 15.4314 15.7744 14.7714L13.7884 15.008ZM12.3612 16.3787C13.5769 16.6618 14.6277 16.2063 15.3458 15.7152L14.217 14.0642C13.7403 14.3902 13.2694 14.5367 12.8148 14.4308L12.3612 16.3787ZM10.5522 15.7939C11.096 15.9953 11.7318 16.2323 12.3615 16.3788L12.8145 14.4308C12.3302 14.3181 11.8157 14.1291 11.2469 13.9184L10.5522 15.7939ZM8.9391 15.2585C8.84204 15.3151 8.79154 15.2985 8.87071 15.2994C8.94323 15.3002 9.06397 15.3151 9.24364 15.3583C9.60869 15.4461 10.0465 15.6066 10.5522 15.7939L11.2468 13.9184C10.7734 13.7431 10.2154 13.535 9.7113 13.4137C9.45636 13.3524 9.17415 13.3027 8.89324 13.2995C8.61899 13.2964 8.2646 13.3364 7.93108 13.5311L8.9391 15.2585ZM31.6915 18.0072C31.8938 17.8744 32.1683 17.645 32.4898 17.2497L30.9384 15.9876C30.7299 16.2439 30.6045 16.3284 30.5941 16.3352L31.6915 18.0072ZM29.3794 17.498C29.8392 17.498 30.2177 17.6697 30.4509 17.8932L31.8347 16.4492C31.2092 15.8497 30.3266 15.498 29.3794 15.498V17.498ZM28.0839 18.2161C28.211 17.8838 28.672 17.498 29.3794 17.498V15.498C28.0009 15.498 26.6917 16.2575 26.2159 17.5017L28.0839 18.2161ZM24.8256 18.0956C25.176 18.3474 25.6036 18.5084 25.9565 18.6141C26.326 18.7249 26.6986 18.7995 26.9922 18.8464L27.3075 16.8714C27.0724 16.8339 26.7912 16.7764 26.5307 16.6983C26.2537 16.6153 26.0753 16.5308 25.9926 16.4714L24.8256 18.0956ZM23.9482 17.3584C24.1523 17.5615 24.4406 17.8189 24.8253 18.0954L25.9928 16.4716C25.7014 16.2621 25.4938 16.075 25.359 15.9407L23.9482 17.3584ZM24.2258 14.7712C24.1471 15.4314 23.9741 15.7886 23.7663 16.1883L25.5408 17.1108C25.7993 16.6135 26.0924 16.0102 26.2117 15.0077L24.2258 14.7712ZM27.1854 14.4308C26.7308 14.5365 26.26 14.39 25.7832 14.064L24.6543 15.7149C25.3724 16.2059 26.4229 16.6616 27.6386 16.3787L27.1854 14.4308ZM28.7507 13.9194C28.1826 14.1297 27.6691 14.3183 27.1855 14.4307L27.6386 16.3787C28.2673 16.2325 28.9021 15.996 29.445 15.795L28.7507 13.9194ZM28.753 13.9185L28.7505 13.9195L29.4452 15.7949L29.4478 15.794L28.753 13.9185ZM28.754 13.9182L28.7531 13.9185L29.4477 15.794L29.4486 15.7937L28.754 13.9182ZM32.0693 13.5314C31.7357 13.3365 31.3812 13.2964 31.107 13.2995C30.8261 13.3026 30.5439 13.3524 30.289 13.4136C29.785 13.5349 29.2273 13.7429 28.7541 13.9182L29.4486 15.7937C29.9541 15.6065 30.3918 15.446 30.7567 15.3582C30.9363 15.315 31.0569 15.3002 31.1293 15.2994C31.2083 15.2985 31.1576 15.3151 31.0604 15.2583L32.0693 13.5314ZM32.9914 14.9429C32.9324 14.6202 32.7439 13.9254 32.0691 13.5313L31.0605 15.2584C31.0353 15.2436 31.0167 15.2269 31.005 15.2138C30.994 15.2017 30.9913 15.1952 30.9936 15.1996C30.996 15.2041 31.0013 15.2156 31.0076 15.2352C31.0138 15.2546 31.0194 15.2774 31.024 15.3025L32.9914 14.9429ZM32.4897 17.2499C32.7363 16.9469 32.8834 16.5492 32.9605 16.1965C33.0417 15.8247 33.0718 15.3833 32.9914 14.9431L31.0239 15.3022C31.0481 15.4348 31.0426 15.6047 31.0066 15.7693C30.9893 15.8485 30.9678 15.913 30.9485 15.9583C30.9271 16.0087 30.9184 16.0122 30.9385 15.9874L32.4897 17.2499Z" fill="#7EC4CF" mask="url(#path-1-inside-1_1964_3153)"/>
</svg>
