<svg width="40" height="40" viewBox="0 0 40 40" fill="none" xmlns="http://www.w3.org/2000/svg">
<circle cx="20" cy="20" r="19.5" stroke="#7EC4CF"/>
<path fill-rule="evenodd" clip-rule="evenodd" d="M32.9546 14.9515C32.8404 14.3251 32.5282 13.8469 32.052 13.5688C31.1849 13.0624 30.0101 13.4974 28.766 13.958L28.7648 13.9585C28.2366 14.1541 27.6906 14.3563 27.1931 14.472C26.4808 14.6377 25.7913 14.1825 25.3194 13.7456C25.3716 12.5308 25.148 11.3992 23.6889 10.7475C22.123 10.0482 20.086 10.04 20.0001 10.04C19.9142 10.04 17.8771 10.0481 16.3112 10.7475C14.852 11.3992 14.6285 12.531 14.6807 13.7456C14.2088 14.1824 13.5195 14.6373 12.807 14.472C12.3108 14.3567 11.7663 14.1551 11.2395 13.9601L11.2395 13.9601L11.2352 13.9585C9.99076 13.4976 8.81539 13.0624 7.94799 13.5688C7.47183 13.8469 7.15964 14.325 7.04535 14.9515C6.90158 15.7394 7.10875 16.694 7.53799 17.2214C7.89145 17.6558 8.18379 17.8858 8.38361 18.0069C8.34042 18.1545 8.31504 18.3077 8.31504 18.4662C8.31504 19.5355 9.35712 20.4054 10.6381 20.4054C11.775 20.4054 12.7219 19.7198 12.921 18.8181C13.4863 18.7352 14.5021 18.529 15.1545 18.0599C15.3956 17.8866 15.5977 17.7212 15.7661 17.5714C15.8731 17.882 15.9663 18.2609 16.0308 18.7691C16.2349 20.3777 16.5149 21.0029 16.8113 21.6647C16.9291 21.9277 17.0508 22.1996 17.1699 22.5487C17.3794 23.1628 17.4252 24.1136 17.4656 24.9526C17.5028 25.724 17.5349 26.3903 17.6794 26.8403C17.9377 27.6454 18.0755 29.575 18.0768 29.5944C18.0944 29.8454 18.304 30.04 18.5568 30.04H21.4434C21.6963 30.04 21.906 29.8454 21.9234 29.5944C21.9611 29.0552 22.1061 27.5091 22.3208 26.8404C22.4651 26.3905 22.4974 25.7241 22.5344 24.9526C22.5749 24.1138 22.6207 23.1629 22.8301 22.5488C22.9484 22.2019 23.0694 21.9314 23.1864 21.67L23.1886 21.665C23.4851 21.0031 23.765 20.3779 23.9692 18.7694C24.0337 18.261 24.1268 17.8822 24.2339 17.5716C24.4023 17.7214 24.6045 17.8869 24.8455 18.0602C25.4989 18.5299 26.5166 18.7362 27.0816 18.8188C27.2879 19.7212 28.2389 20.4058 29.3792 20.4058C30.6697 20.4058 31.7197 19.5294 31.7197 18.4521C31.7197 18.2914 31.6937 18.136 31.6498 17.9866C31.8482 17.8605 32.1276 17.6327 32.462 17.2219C32.8912 16.694 33.0985 15.7393 32.9546 14.9515ZM7.99225 15.1226C8.03604 14.883 8.14828 14.5623 8.43509 14.3948C8.90801 14.1188 9.92037 14.4935 10.8995 14.8562C11.4558 15.0622 12.031 15.2752 12.588 15.4048C13.4232 15.5992 14.184 15.2982 14.7814 14.8897C14.8804 15.7209 15.1134 16.201 15.3465 16.6495C15.1768 16.8183 14.9289 17.0405 14.5908 17.2834C14.1558 17.5961 13.372 17.776 12.8433 17.8599C12.5375 17.0869 11.6653 16.527 10.6381 16.527C9.94142 16.527 9.31704 16.7856 8.89092 17.1923C8.79709 17.136 8.58198 16.9823 8.28591 16.6186C8.06323 16.3451 7.88783 15.6954 7.99225 15.1226ZM31.1428 17.1712C31.2491 17.1014 31.4491 16.9444 31.7141 16.6187C31.9367 16.3452 32.1122 15.6954 32.0077 15.1227C31.9639 14.8831 31.8516 14.5623 31.5648 14.3948C31.0922 14.1187 30.0801 14.4935 29.1013 14.8559L29.1004 14.8563L29.0979 14.8572C28.5424 15.0628 27.9682 15.2754 27.412 15.4047C26.5769 15.5991 25.8162 15.2979 25.2188 14.8894C25.1197 15.7208 24.8867 16.201 24.6536 16.6495C24.8231 16.8182 25.071 17.0405 25.4091 17.2835C25.8422 17.5947 26.6211 17.7745 27.1499 17.8589C27.4514 17.0706 28.3364 16.498 29.3794 16.498C30.0829 16.498 30.7134 16.7597 31.1428 17.1712Z" fill="#7EC4CF"/>
</svg>
