<svg width="64" height="64" viewBox="0 0 64 64" fill="none" xmlns="http://www.w3.org/2000/svg">
<rect x="8" y="8" width="48" height="48" rx="24" fill="#3CB0D8"/>
<mask id="mask0_170_15554" style="mask-type:luminance" maskUnits="userSpaceOnUse" x="20" y="30" width="25" height="18">
<path fill-rule="evenodd" clip-rule="evenodd" d="M20 30.3843H44.5452V47.765H20V30.3843Z" fill="white"/>
</mask>
<g mask="url(#mask0_170_15554)">
<path fill-rule="evenodd" clip-rule="evenodd" d="M38.6704 36.3772C36.6894 36.3772 35.0783 34.7644 35.0783 32.7812H36.2757C36.2757 34.1034 37.3503 35.1786 38.6704 35.1786C39.991 35.1786 41.0651 34.1034 41.0651 32.7812H42.2624C42.2624 34.7644 40.652 36.3772 38.6704 36.3772ZM26.4731 36.3772C24.492 36.3772 22.881 34.7644 22.881 32.7812H24.0784C24.0784 34.1034 25.1524 35.1786 26.4731 35.1786C27.7943 35.1786 28.8677 34.1034 28.8677 32.7812H30.0651C30.0651 34.7644 28.4547 36.3772 26.4731 36.3772ZM44.5453 30.3843H19.9998V35.4786C19.9998 42.2643 25.495 47.765 32.2725 47.765C39.0513 47.765 44.5453 42.2643 44.5453 35.4786V30.3843Z" fill="white" fill-opacity="0.8"/>
</g>
<mask id="mask1_170_15554" style="mask-type:luminance" maskUnits="userSpaceOnUse" x="21" y="16" width="23" height="14">
<path fill-rule="evenodd" clip-rule="evenodd" d="M21.1978 16H43.9473V29.1853H21.1978V16Z" fill="white"/>
</mask>
<g mask="url(#mask1_170_15554)">
<path fill-rule="evenodd" clip-rule="evenodd" d="M35.9504 25.6669L33.4486 23.1623L35.9247 20.6834C36.4485 21.3834 36.7622 22.2501 36.7622 23.1922C36.7622 24.1188 36.4593 24.9729 35.9504 25.6669ZM32.5713 27.3875C31.6307 27.3875 30.7645 27.0734 30.0646 26.549L32.6012 24.0096L35.1126 26.5232C34.4074 27.0632 33.5279 27.3875 32.5713 27.3875ZM28.3811 23.1918C28.3811 22.234 28.7049 21.3542 29.2449 20.6482L31.7564 23.1618L29.2192 25.7012C28.6948 25.0006 28.3811 24.1339 28.3811 23.1918ZM32.5713 18.9971C33.513 18.9971 34.3781 19.3111 35.0779 19.8355L32.6018 22.3144L30.1006 19.8097C30.7926 19.3009 31.6463 18.9971 32.5713 18.9971ZM36.1645 16.5993C35.3444 16.5993 34.5781 16.8031 33.9016 17.1687C33.0634 16.4435 31.9738 16 30.7765 16C28.735 16 26.9989 17.2826 26.3104 19.0806C24.0834 19.4941 22.3951 21.442 22.3951 23.7914C22.3951 23.9945 22.4155 24.1935 22.44 24.3907H22.9938C24.6443 24.3907 25.9871 25.735 25.9871 27.3874H24.7898C24.7898 26.3961 23.984 25.5894 22.9938 25.5894H22.2544C21.5959 26.4111 21.1978 27.4515 21.1978 28.5861C21.1978 28.7898 21.2097 28.9876 21.2343 29.1854H39.1579V27.9867C39.1579 26.3344 40.5013 24.99 42.1513 24.99V26.1887C41.1611 26.1887 40.3552 26.9954 40.3552 27.9867V29.1854H43.3007C43.7144 28.4842 43.9473 27.6631 43.9473 26.788C43.9473 24.7443 42.6667 23.0002 40.8641 22.311C40.9246 22.0173 40.9539 21.7057 40.9539 21.394C40.9539 18.745 38.8107 16.5993 36.1645 16.5993Z" fill="white" fill-opacity="0.8"/>
</g>
<rect x="4" y="4" width="56" height="56" rx="28" stroke="white" stroke-opacity="0.1" stroke-width="8"/>
</svg>
