<svg width="41" height="41" viewBox="0 0 41 41" fill="none" xmlns="http://www.w3.org/2000/svg">
<g id="Withdrawal">
<g id="Subtract">
<mask id="path-1-inside-1_131_5564" fill="white">
<path fill-rule="evenodd" clip-rule="evenodd" d="M20.6666 40.7085C31.7123 40.7085 40.6666 31.7542 40.6666 20.7085C40.6666 9.6628 31.7123 0.708496 20.6666 0.708496C9.62093 0.708496 0.666626 9.6628 0.666626 20.7085C0.666626 31.7542 9.62093 40.7085 20.6666 40.7085ZM9.66689 17.8167C9.66689 25.8938 20.5432 30.3239 20.5432 30.3239C20.5432 30.3239 31.6666 25.849 31.6666 17.8167C31.6666 14.4382 29.0599 11.7085 25.8465 11.7085C23.5768 11.7085 21.5993 13.0957 20.6555 15.1094C19.7117 13.0957 17.7342 11.7085 15.4646 11.7085C12.2511 11.7085 9.64442 14.4382 9.66689 17.8167Z"/>
</mask>
<path fill-rule="evenodd" clip-rule="evenodd" d="M20.6666 40.7085C31.7123 40.7085 40.6666 31.7542 40.6666 20.7085C40.6666 9.6628 31.7123 0.708496 20.6666 0.708496C9.62093 0.708496 0.666626 9.6628 0.666626 20.7085C0.666626 31.7542 9.62093 40.7085 20.6666 40.7085ZM9.66689 17.8167C9.66689 25.8938 20.5432 30.3239 20.5432 30.3239C20.5432 30.3239 31.6666 25.849 31.6666 17.8167C31.6666 14.4382 29.0599 11.7085 25.8465 11.7085C23.5768 11.7085 21.5993 13.0957 20.6555 15.1094C19.7117 13.0957 17.7342 11.7085 15.4646 11.7085C12.2511 11.7085 9.64442 14.4382 9.66689 17.8167Z" fill="#9CADCE"/>
<path d="M20.5432 30.3239L20.1659 31.25L20.5408 31.4027L20.9164 31.2516L20.5432 30.3239ZM9.66689 17.8167H10.6669L10.6669 17.81L9.66689 17.8167ZM20.6555 15.1094L19.75 15.5338L20.6555 17.4657L21.561 15.5338L20.6555 15.1094ZM39.6666 20.7085C39.6666 31.2019 31.16 39.7085 20.6666 39.7085V41.7085C32.2646 41.7085 41.6666 32.3065 41.6666 20.7085H39.6666ZM20.6666 1.7085C31.16 1.7085 39.6666 10.2151 39.6666 20.7085H41.6666C41.6666 9.11052 32.2646 -0.291504 20.6666 -0.291504V1.7085ZM1.66663 20.7085C1.66663 10.2151 10.1732 1.7085 20.6666 1.7085V-0.291504C9.06865 -0.291504 -0.333374 9.11052 -0.333374 20.7085H1.66663ZM20.6666 39.7085C10.1732 39.7085 1.66663 31.2019 1.66663 20.7085H-0.333374C-0.333374 32.3065 9.06865 41.7085 20.6666 41.7085V39.7085ZM20.5432 30.3239C20.9204 29.3978 20.9206 29.3979 20.9208 29.3979C20.9208 29.3979 20.921 29.398 20.921 29.398C20.9211 29.3981 20.921 29.398 20.9207 29.3979C20.9202 29.3977 20.919 29.3972 20.9172 29.3964C20.9135 29.3949 20.9073 29.3923 20.8986 29.3887C20.8813 29.3814 20.8541 29.3699 20.8176 29.3542C20.7448 29.3227 20.6351 29.2744 20.494 29.2094C20.2116 29.0794 19.8039 28.8831 19.3128 28.6223C18.3282 28.0994 17.0209 27.3236 15.7194 26.3102C13.0762 24.2521 10.6669 21.3834 10.6669 17.8167H8.66689C8.66689 22.327 11.6957 25.712 14.4907 27.8882C15.9082 28.992 17.32 29.8285 18.3747 30.3886C18.9033 30.6694 19.3453 30.8823 19.6576 31.0261C19.8139 31.098 19.9379 31.1528 20.0244 31.1901C20.0676 31.2088 20.1015 31.2232 20.1253 31.2331C20.1372 31.2381 20.1466 31.242 20.1534 31.2448C20.1568 31.2463 20.1595 31.2474 20.1616 31.2482C20.1627 31.2487 20.1636 31.249 20.1643 31.2493C20.1646 31.2495 20.165 31.2496 20.1652 31.2497C20.1656 31.2499 20.1659 31.25 20.5432 30.3239ZM30.6666 17.8167C30.6666 21.3503 28.2092 24.218 25.4981 26.2875C24.1652 27.305 22.8265 28.0859 21.818 28.6129C21.315 28.8758 20.8973 29.0739 20.6078 29.2053C20.4631 29.271 20.3507 29.3199 20.2759 29.3518C20.2385 29.3677 20.2105 29.3794 20.1926 29.3868C20.1837 29.3905 20.1772 29.3932 20.1734 29.3947C20.1715 29.3955 20.1703 29.396 20.1697 29.3962C20.1694 29.3964 20.1693 29.3964 20.1693 29.3964C20.1693 29.3964 20.1695 29.3963 20.1695 29.3963C20.1697 29.3962 20.1699 29.3961 20.5432 30.3239C20.9164 31.2516 20.9167 31.2515 20.9171 31.2513C20.9172 31.2513 20.9177 31.2511 20.918 31.251C20.9187 31.2507 20.9196 31.2503 20.9207 31.2499C20.9228 31.249 20.9256 31.2479 20.929 31.2465C20.9359 31.2437 20.9454 31.2398 20.9575 31.2348C20.9817 31.2247 21.0162 31.2103 21.0603 31.1915C21.1484 31.154 21.2749 31.0989 21.4344 31.0265C21.7532 30.8818 22.2046 30.6676 22.7444 30.3854C23.8216 29.8225 25.2637 28.9826 26.7116 27.8773C29.5623 25.7013 32.6666 22.3154 32.6666 17.8167H30.6666ZM25.8465 12.7085C28.4633 12.7085 30.6666 14.945 30.6666 17.8167H32.6666C32.6666 13.9313 29.6565 10.7085 25.8465 10.7085V12.7085ZM21.561 15.5338C22.3556 13.8384 23.9999 12.7085 25.8465 12.7085V10.7085C23.1538 10.7085 20.843 12.353 19.75 14.685L21.561 15.5338ZM15.4646 12.7085C17.3112 12.7085 18.9554 13.8384 19.75 15.5338L21.561 14.685C20.468 12.353 18.1572 10.7085 15.4646 10.7085V12.7085ZM10.6669 17.81C10.6478 14.9447 12.8468 12.7085 15.4646 12.7085V10.7085C11.6554 10.7085 8.64103 13.9316 8.66691 17.8233L10.6669 17.81Z" fill="#9CADCE" mask="url(#path-1-inside-1_131_5564)"/>
</g>
<path id="Path Copy" d="M26.7146 18.712L26.7147 18.7117C26.7552 18.6447 26.8386 18.6025 26.9358 18.6025C27.0331 18.6025 27.1169 18.6448 27.1577 18.712C27.683 19.5779 28.333 20.3833 28.9561 21.1552C29.5898 21.9407 30.1982 22.6952 30.6492 23.4706C31.0994 24.2443 31.3877 25.0305 31.3877 25.8766C31.3877 28.2568 29.3943 30.1987 26.9357 30.1987C24.4772 30.1987 22.4838 28.2568 22.4838 25.8766C22.4838 25.0305 22.7721 24.2443 23.2223 23.4706C23.6733 22.6952 24.2817 21.9407 24.9154 21.1552C25.5385 20.3833 26.1885 19.5779 26.7146 18.712Z" fill="white" stroke="#9CADCE" stroke-width="0.25"/>
</g>
</svg>
