<svg width="41" height="41" viewBox="0 0 41 41" fill="none" xmlns="http://www.w3.org/2000/svg">
<circle cx="20.6665" cy="20.417" r="19.5" stroke="#9CADCE"/>
<path d="M20.5429 30.0324C20.5429 30.0324 9.66665 25.6023 9.66665 17.5252C9.64418 14.1467 12.2509 11.417 15.4643 11.417C17.734 11.417 19.7115 12.8042 20.6553 14.8179C21.5991 12.8042 23.5766 11.417 25.8462 11.417C29.0597 11.417 31.6664 14.1467 31.6664 17.5252C31.6664 25.5575 20.5429 30.0324 20.5429 30.0324Z" fill="#9CADCE"/>
<path d="M26.7144 18.4205L26.7146 18.4202C26.755 18.3532 26.8384 18.311 26.9357 18.311C27.0329 18.311 27.1167 18.3533 27.1575 18.4205C27.6828 19.2864 28.3328 20.0918 28.9559 20.8637C29.5896 21.6492 30.198 22.4037 30.6491 23.1791C31.0992 23.9528 31.3875 24.739 31.3875 25.5851C31.3875 27.9653 29.3941 29.9072 26.9356 29.9072C24.477 29.9072 22.4836 27.9653 22.4836 25.5851C22.4836 24.739 22.7719 23.9528 23.2221 23.1791C23.6731 22.4037 24.2815 21.6492 24.9152 20.8637C25.5383 20.0918 26.1883 19.2864 26.7144 18.4205Z" fill="#9CADCE" stroke="white" stroke-width="0.25"/>
</svg>
